<?xml version="1.0" encoding="UTF-8" standalone="no"?>
<!-- This is a Stata 16.1 generated SVG file (http://www.stata.com) -->

<svg version="1.1" width="5.50in" height="4.00in" viewBox="0 0 3960 2880" xmlns="http://www.w3.org/2000/svg" xmlns:xlink="http://www.w3.org/1999/xlink">
	<desc>Stata Graph - Graph</desc>
	<rect x="0" y="0" width="3960" height="2880" style="fill:#EAF2F3;stroke:none"/>
	<rect x="0.00" y="0.00" width="3959.88" height="2880.00" style="fill:#FFFFFF"/>
	<rect x="2.88" y="2.88" width="3954.12" height="2874.24" style="fill:none;stroke:#EAF2F3;stroke-width:5.76"/>
	<rect x="816.25" y="630.90" width="3033.86" height="1604.96" style="fill:#FFFFFF"/>
	<rect x="819.13" y="633.78" width="3028.10" height="1599.20" style="fill:none;stroke:#FFFFFF;stroke-width:5.76"/>
	<line x1="816.25" y1="2172.62" x2="3850.11" y2="2172.62" style="stroke:#EAF2F3;stroke-width:8.64"/>
	<line x1="816.25" y1="1500.64" x2="3850.11" y2="1500.64" style="stroke:#EAF2F3;stroke-width:8.64"/>
	<line x1="816.25" y1="828.66" x2="3850.11" y2="828.66" style="stroke:#EAF2F3;stroke-width:8.64"/>
	<path d=" M879.62 2172.62 L879.62 2172.62 L879.62 2172.62 L879.62 2172.62 L879.62 2172.62 L908.57 2172.62 L908.57 2172.62 L937.65 2172.62 L937.65 2172.62 L966.74 2172.62 L966.74 2172.62 L995.82 2172.62 L995.82 2172.62 L1024.90 2172.62 L1024.90 2172.62 L1053.98 2172.62 L1053.98 2172.62 L1083.06 2172.62 L1083.06 2172.62 L1112.14 2172.62 L1112.14 2172.62 L1141.22 2172.62 L1141.22 2172.62 L1170.30 2172.62 L1170.30 2172.62 L1199.38 2172.62 L1199.38 2172.62 L1228.47 2172.62 L1228.47 2172.62 L1257.55 2172.62 L1257.55 2172.62 L1286.51 2172.62 L1286.51 2172.62 L1315.59 2172.62 L1315.59 2172.62 L1344.67 2172.62 L1344.67 2172.62 L1373.75 2172.62 L1373.75 2172.62 L1402.83 2172.62 L1402.83 2162.60 L1431.91 2162.60 L1431.91 2162.60 L1460.99 2162.60 L1460.99 2162.60 L1490.07 2162.60 L1490.07 2152.57 L1519.15 2152.57 L1519.15 2142.55 L1548.24 2142.55 L1548.24 2112.48 L1577.32 2112.48 L1577.32 2102.45 L1606.40 2102.45 L1606.40 2102.45 L1635.48 2102.45 L1635.48 2092.43 L1664.44 2092.43 L1664.44 2082.41 L1693.52 2082.41 L1693.52 2082.41 L1722.60 2082.41 L1722.60 2072.26 L1751.68 2072.26 L1751.68 2042.19 L1780.76 2042.19 L1780.76 2042.19 L1809.84 2042.19 L1809.84 2042.19 L1838.92 2042.19 L1838.92 2002.09 L1868.01 2002.09 L1868.01 1982.04 L1897.09 1982.04 L1897.09 1951.97 L1926.17 1951.97 L1926.17 1931.80 L1955.25 1931.80 L1955.25 1911.75 L1984.33 1911.75 L1984.33 1891.70 L2013.29 1891.70 L2013.29 1881.68 L2042.37 1881.68 L2042.37 1861.63 L2071.45 1861.63 L2071.45 1851.61 L2100.53 1851.61 L2100.53 1841.58 L2129.61 1841.58 L2129.61 1831.56 L2158.70 1831.56 L2158.70 1831.56 L2187.78 1831.56 L2187.78 1821.41 L2216.86 1821.41 L2216.86 1781.31 L2245.94 1781.31 L2245.94 1761.27 L2275.02 1761.27 L2275.02 1761.27 L2304.10 1761.27 L2304.10 1741.22 L2333.18 1741.22 L2333.18 1731.19 L2362.26 1731.19 L2362.26 1711.02 L2391.22 1711.02 L2391.22 1690.97 L2420.30 1690.97 L2420.30 1660.90 L2449.38 1660.90 L2449.38 1640.85 L2478.47 1640.85 L2478.47 1620.68 L2507.55 1620.68 L2507.55 1610.66 L2536.63 1610.66 L2536.63 1610.66 L2565.71 1610.66 L2565.71 1610.66 L2594.79 1610.66 L2594.79 1600.63 L2623.87 1600.63 L2623.87 1600.63 L2652.95 1600.63 L2652.95 1580.58 L2682.03 1580.58 L2682.03 1560.54 L2711.11 1560.54 L2711.11 1550.39 L2740.20 1550.39 L2740.20 1540.36 L2798.24 1540.36 L2798.24 1540.36" stroke-linejoin="round" style="fill:none;stroke:#1A476F;stroke-width:8.64"/>
	<path d=" M879.62 2172.62 L879.62 2172.62 L879.62 2172.62 L879.62 2172.62 L879.62 2172.62 L908.57 2172.62 L908.57 2172.62 L937.65 2172.62 L937.65 2172.62 L966.74 2172.62 L966.74 2172.62 L995.82 2172.62 L995.82 2172.62 L1024.90 2172.62 L1024.90 2170.52 L1053.98 2170.52 L1053.98 2170.52 L1083.06 2170.52 L1083.06 2170.52 L1112.14 2170.52 L1112.14 2170.52 L1141.22 2170.52 L1141.22 2170.52 L1170.30 2170.52 L1170.30 2170.52 L1199.38 2170.52 L1199.38 2170.52 L1228.47 2170.52 L1228.47 2170.52 L1257.55 2170.52 L1257.55 2170.52 L1286.51 2170.52 L1286.51 2170.52 L1315.59 2170.52 L1315.59 2170.52 L1344.67 2170.52 L1344.67 2168.29 L1373.75 2168.29 L1373.75 2168.29 L1402.83 2168.29 L1402.83 2166.19 L1431.91 2166.19 L1431.91 2166.19 L1460.99 2166.19 L1460.99 2164.08 L1490.07 2164.08 L1490.07 2159.75 L1519.15 2159.75 L1519.15 2151.21 L1548.24 2151.21 L1548.24 2146.88 L1577.32 2146.88 L1577.32 2140.45 L1606.40 2140.45 L1606.40 2129.68 L1635.48 2129.68 L1635.48 2123.25 L1664.44 2123.25 L1664.44 2114.71 L1693.52 2114.71 L1693.52 2091.07 L1722.60 2091.07 L1722.60 2071.76 L1751.68 2071.76 L1751.68 2056.79 L1780.76 2056.79 L1780.76 2031.05 L1809.84 2031.05 L1809.84 2007.41 L1838.92 2007.41 L1838.92 1983.77 L1868.01 1983.77 L1868.01 1960.14 L1897.09 1960.14 L1897.09 1930.07 L1926.17 1930.07 L1926.17 1904.32 L1955.25 1904.32 L1955.25 1876.48 L1984.33 1876.48 L1984.33 1837.87 L2013.29 1837.87 L2013.29 1816.34 L2042.37 1816.34 L2042.37 1779.83 L2071.45 1779.83 L2071.45 1760.52 L2100.53 1760.52 L2100.53 1736.89 L2129.61 1736.89 L2129.61 1717.58 L2158.70 1717.58 L2158.70 1696.17 L2187.78 1696.17 L2187.78 1681.07 L2216.86 1681.07 L2216.86 1655.33 L2245.94 1655.33 L2245.94 1623.16 L2275.02 1623.16 L2275.02 1608.06 L2304.10 1608.06 L2304.10 1588.75 L2333.18 1588.75 L2333.18 1569.45 L2362.26 1569.45 L2362.26 1545.81 L2391.22 1545.81 L2391.22 1524.40 L2420.30 1524.40 L2420.30 1500.76 L2449.38 1500.76 L2449.38 1472.79 L2478.47 1472.79 L2478.47 1451.39 L2507.55 1451.39 L2507.55 1444.95 L2536.63 1444.95 L2536.63 1427.75 L2565.71 1427.75 L2565.71 1416.98 L2594.79 1416.98 L2594.79 1404.11 L2623.87 1404.11 L2623.87 1393.34 L2652.95 1393.34 L2652.95 1376.14 L2682.03 1376.14 L2682.03 1359.06 L2711.11 1359.06 L2711.11 1352.63 L2740.20 1352.63 L2740.20 1337.53 L2769.15 1337.53 L2769.15 1326.77 L2798.24 1326.77 L2798.24 1318.23" stroke-linejoin="round" style="fill:none;stroke:#90353B;stroke-width:8.64"/>
	<path d=" M879.62 2172.62 L879.62 2172.62 L879.62 2172.62 L879.62 2172.62 L879.62 2172.62 L908.57 2172.62 L908.57 2172.62 L937.65 2172.62 L937.65 2172.62 L966.74 2172.62 L966.74 2172.62 L995.82 2172.62 L995.82 2172.62 L1024.90 2172.62 L1024.90 2172.62 L1053.98 2172.62 L1053.98 2172.62 L1083.06 2172.62 L1083.06 2172.62 L1112.14 2172.62 L1112.14 2172.62 L1141.22 2172.62 L1141.22 2172.62 L1170.30 2172.62 L1170.30 2172.62 L1199.38 2172.62 L1199.38 2172.62 L1228.47 2172.62 L1228.47 2172.62 L1257.55 2172.62 L1257.55 2172.62 L1286.51 2172.62 L1286.51 2172.62 L1315.59 2172.62 L1315.59 2172.62 L1344.67 2172.62 L1344.67 2172.62 L1373.75 2172.62 L1373.75 2172.62 L1402.83 2172.62 L1402.83 2172.62 L1431.91 2172.62 L1431.91 2159.50 L1460.99 2159.50 L1460.99 2146.51 L1490.07 2146.51 L1490.07 2146.51 L1519.15 2146.51 L1519.15 2146.51 L1548.24 2146.51 L1548.24 2133.39 L1577.32 2133.39 L1577.32 2107.16 L1606.40 2107.16 L1606.40 2081.05 L1635.48 2081.05 L1635.48 2054.81 L1664.44 2054.81 L1664.44 2015.58 L1693.52 2015.58 L1693.52 1989.47 L1722.60 1989.47 L1722.60 1989.47 L1751.68 1989.47 L1751.68 1963.23 L1780.76 1963.23 L1780.76 1963.23 L1809.84 1963.23 L1809.84 1924.00 L1838.92 1924.00 L1838.92 1884.77 L1868.01 1884.77 L1868.01 1806.19 L1897.09 1806.19 L1897.09 1740.72 L1926.17 1740.72 L1926.17 1701.49 L1955.25 1701.49 L1955.25 1649.14 L1984.33 1649.14 L1984.33 1609.79 L2013.29 1609.79 L2013.29 1544.32 L2042.37 1544.32 L2042.37 1491.98 L2071.45 1491.98 L2071.45 1452.75 L2100.53 1452.75 L2100.53 1439.63 L2129.61 1439.63 L2129.61 1400.40 L2158.70 1400.40 L2158.70 1374.16 L2187.78 1374.16 L2187.78 1334.81 L2216.86 1334.81 L2216.86 1269.34 L2245.94 1269.34 L2245.94 1243.23 L2275.02 1243.23 L2275.02 1190.76 L2304.10 1190.76 L2304.10 1164.65 L2333.18 1164.65 L2333.18 1125.29 L2362.26 1125.29 L2362.26 1059.83 L2391.22 1059.83 L2391.22 1033.59 L2449.38 1033.59 L2449.38 994.36 L2478.47 994.36 L2478.47 981.24 L2507.55 981.24 L2507.55 955.01 L2536.63 955.01 L2536.63 928.90 L2565.71 928.90 L2565.71 902.66 L2594.79 902.66 L2594.79 850.31 L2623.87 850.31 L2623.87 837.19 L2652.95 837.19 L2652.95 824.08 L2682.03 824.08 L2682.03 797.84 L2711.11 797.84 L2711.11 797.84 L2740.20 797.84 L2740.20 797.84 L2769.15 797.84 L2769.15 758.61 L2798.24 758.61 L2798.24 732.38" stroke-linejoin="round" style="fill:none;stroke:#55752F;stroke-width:8.64"/>
	<line x1="816.25" y1="2235.86" x2="816.25" y2="630.90" style="stroke:#000000;stroke-width:5.76"/>
	<line x1="816.25" y1="2172.62" x2="776.28" y2="2172.62" style="stroke:#000000;stroke-width:5.76"/>
	<text x="756.24" y="2200.63" style="font-family:'Helvetica';font-size:79.94px;fill:#000000" text-anchor="end">0.0000</text>
	<line x1="816.25" y1="1500.64" x2="776.28" y2="1500.64" style="stroke:#000000;stroke-width:5.76"/>
	<text x="756.24" y="1528.65" style="font-family:'Helvetica';font-size:79.94px;fill:#000000" text-anchor="end">0.0005</text>
	<line x1="816.25" y1="828.66" x2="776.28" y2="828.66" style="stroke:#000000;stroke-width:5.76"/>
	<text x="756.24" y="856.67" style="font-family:'Helvetica';font-size:79.94px;fill:#000000" text-anchor="end">0.0010</text>
	<text x="879.62" y="2747.83" style="font-family:'Helvetica';font-size:60.02px;fill:#000000" text-anchor="middle">102787</text>
	<text x="1460.99" y="2747.83" style="font-family:'Helvetica';font-size:60.02px;fill:#000000" text-anchor="middle">102726</text>
	<text x="2042.49" y="2747.83" style="font-family:'Helvetica';font-size:60.02px;fill:#000000" text-anchor="middle">102602</text>
	<text x="2623.87" y="2747.83" style="font-family:'Helvetica';font-size:60.02px;fill:#000000" text-anchor="middle">102495</text>
	<text x="3205.37" y="2747.83" style="font-family:'Helvetica';font-size:60.02px;fill:#000000" text-anchor="middle">0</text>
	<text x="3786.75" y="2747.83" style="font-family:'Helvetica';font-size:60.02px;fill:#000000" text-anchor="middle">0</text>
	<text x="734.21" y="2747.83" style="font-family:'Helvetica';font-size:60.02px;fill:#000000" text-anchor="end">ICS (High Dose)</text>
	<text x="879.62" y="2674.44" style="font-family:'Helvetica';font-size:60.02px;fill:#000000" text-anchor="middle">626669</text>
	<text x="1460.99" y="2674.44" style="font-family:'Helvetica';font-size:60.02px;fill:#000000" text-anchor="middle">626399</text>
	<text x="2042.49" y="2674.44" style="font-family:'Helvetica';font-size:60.02px;fill:#000000" text-anchor="middle">625903</text>
	<text x="2623.87" y="2674.44" style="font-family:'Helvetica';font-size:60.02px;fill:#000000" text-anchor="middle">625398</text>
	<text x="3205.37" y="2674.44" style="font-family:'Helvetica';font-size:60.02px;fill:#000000" text-anchor="middle">0</text>
	<text x="3786.75" y="2674.44" style="font-family:'Helvetica';font-size:60.02px;fill:#000000" text-anchor="middle">0</text>
	<text x="734.21" y="2674.44" style="font-family:'Helvetica';font-size:60.02px;fill:#000000" text-anchor="end">ICS (Low/Medium Dose)</text>
	<text x="879.62" y="2601.18" style="font-family:'Helvetica';font-size:60.02px;fill:#000000" text-anchor="middle">134067</text>
	<text x="1460.99" y="2601.18" style="font-family:'Helvetica';font-size:60.02px;fill:#000000" text-anchor="middle">133993</text>
	<text x="2042.49" y="2601.18" style="font-family:'Helvetica';font-size:60.02px;fill:#000000" text-anchor="middle">133896</text>
	<text x="2623.87" y="2601.18" style="font-family:'Helvetica';font-size:60.02px;fill:#000000" text-anchor="middle">133807</text>
	<text x="3205.37" y="2601.18" style="font-family:'Helvetica';font-size:60.02px;fill:#000000" text-anchor="middle">0</text>
	<text x="3786.75" y="2601.18" style="font-family:'Helvetica';font-size:60.02px;fill:#000000" text-anchor="middle">0</text>
	<text x="734.21" y="2601.18" style="font-family:'Helvetica';font-size:60.02px;fill:#000000" text-anchor="end">SABA only</text>
	<text x="734.21" y="2527.80" style="font-family:'Helvetica';font-size:60.02px;fill:#000000" text-anchor="end">Number at risk</text>
	<line x1="816.25" y1="2235.86" x2="3850.11" y2="2235.86" style="stroke:#000000;stroke-width:5.76"/>
	<line x1="879.62" y1="2235.86" x2="879.62" y2="2275.96" style="stroke:#000000;stroke-width:5.76"/>
	<text x="879.62" y="2351.78" style="font-family:'Helvetica';font-size:79.94px;fill:#000000" text-anchor="middle">0</text>
	<line x1="1460.99" y1="2235.86" x2="1460.99" y2="2275.96" style="stroke:#000000;stroke-width:5.76"/>
	<text x="1460.99" y="2351.78" style="font-family:'Helvetica';font-size:79.94px;fill:#000000" text-anchor="middle">20</text>
	<line x1="2042.49" y1="2235.86" x2="2042.49" y2="2275.96" style="stroke:#000000;stroke-width:5.76"/>
	<text x="2042.49" y="2351.78" style="font-family:'Helvetica';font-size:79.94px;fill:#000000" text-anchor="middle">40</text>
	<line x1="2623.87" y1="2235.86" x2="2623.87" y2="2275.96" style="stroke:#000000;stroke-width:5.76"/>
	<text x="2623.87" y="2351.78" style="font-family:'Helvetica';font-size:79.94px;fill:#000000" text-anchor="middle">60</text>
	<line x1="3205.37" y1="2235.86" x2="3205.37" y2="2275.96" style="stroke:#000000;stroke-width:5.76"/>
	<text x="3205.37" y="2351.78" style="font-family:'Helvetica';font-size:79.94px;fill:#000000" text-anchor="middle">80</text>
	<line x1="3786.75" y1="2235.86" x2="3786.75" y2="2275.96" style="stroke:#000000;stroke-width:5.76"/>
	<text x="3786.75" y="2351.78" style="font-family:'Helvetica';font-size:79.94px;fill:#000000" text-anchor="middle">100</text>
	<text x="2333.18" y="2441.87" style="font-family:'Helvetica';font-size:79.94px;fill:#000000" text-anchor="middle">Days since 1 Mar 2020</text>
	<rect x="1281.68" y="269.91" width="2103.13" height="326.46" style="fill:#FFFFFF"/>
	<rect x="1284.56" y="272.79" width="2097.37" height="320.70" style="fill:none;stroke:#EAF2F3;stroke-width:5.76"/>
	<line x1="1324.87" y1="363.09" x2="1699.21" y2="363.09" style="stroke:#1A476F;stroke-width:8.64"/>
	<line x1="2287.64" y1="363.09" x2="2662.11" y2="363.09" style="stroke:#90353B;stroke-width:8.64"/>
	<line x1="1324.87" y1="503.06" x2="1699.21" y2="503.06" style="stroke:#55752F;stroke-width:8.64"/>
	<text x="1759.23" y="384.13" style="font-family:'Helvetica';font-size:60.02px;fill:#000000">SABA only</text>
	<text x="2722.13" y="384.13" style="font-family:'Helvetica';font-size:60.02px;fill:#000000">ICS (Low/Medium Dose)</text>
	<text x="1759.23" y="524.10" style="font-family:'Helvetica';font-size:60.02px;fill:#000000">ICS (High Dose)</text>
	<text x="1090.73" y="187.99" style="font-family:'Helvetica';font-size:99.99px;fill:#1E2D53">Time to COVID-19 Death in ONS, Asthma - Ever population</text>
</svg>
