<?xml version="1.0" encoding="UTF-8" standalone="no"?>
<!-- This is a Stata 16.1 generated SVG file (http://www.stata.com) -->

<svg version="1.1" width="5.50in" height="4.00in" viewBox="0 0 3960 2880" xmlns="http://www.w3.org/2000/svg" xmlns:xlink="http://www.w3.org/1999/xlink">
	<desc>Stata Graph - Graph</desc>
	<rect x="0" y="0" width="3960" height="2880" style="fill:#EAF2F3;stroke:none"/>
	<rect x="0.00" y="0.00" width="3959.88" height="2880.00" style="fill:#FFFFFF"/>
	<rect x="2.88" y="2.88" width="3954.12" height="2874.24" style="fill:none;stroke:#EAF2F3;stroke-width:5.76"/>
	<rect x="875.78" y="630.90" width="2965.05" height="1604.96" style="fill:#FFFFFF"/>
	<rect x="878.66" y="633.78" width="2959.29" height="1599.20" style="fill:none;stroke:#FFFFFF;stroke-width:5.76"/>
	<line x1="875.78" y1="2172.62" x2="3840.83" y2="2172.62" style="stroke:#EAF2F3;stroke-width:8.64"/>
	<line x1="875.78" y1="1433.44" x2="3840.83" y2="1433.44" style="stroke:#EAF2F3;stroke-width:8.64"/>
	<path d=" M939.14 2172.62 L939.14 2172.62 L939.14 2172.62 L939.14 2172.62 L939.14 2172.62 L967.48 2172.62 L967.48 2172.62 L995.94 2172.62 L995.94 2172.62 L1024.28 2172.62 L1024.28 2172.62 L1052.62 2172.62 L1052.62 2172.62 L1081.08 2172.62 L1081.08 2172.62 L1109.42 2172.62 L1109.42 2172.62 L1137.76 2172.62 L1137.76 2172.62 L1166.22 2172.62 L1166.22 2172.62 L1194.56 2172.62 L1194.56 2172.62 L1222.90 2172.62 L1222.90 2172.62 L1251.36 2172.62 L1251.36 2172.62 L1279.70 2172.62 L1279.70 2172.62 L1308.04 2172.62 L1308.04 2172.62 L1336.50 2172.62 L1336.50 2172.62 L1364.84 2172.62 L1364.84 2172.62 L1393.18 2172.62 L1393.18 2172.62 L1421.64 2172.62 L1421.64 2172.62 L1449.98 2172.62 L1449.98 2171.51 L1478.44 2171.51 L1478.44 2171.51 L1506.78 2171.51 L1506.78 2171.51 L1535.12 2171.51 L1535.12 2170.40 L1563.58 2170.40 L1563.58 2169.28 L1591.92 2169.28 L1591.92 2165.94 L1620.26 2165.94 L1620.26 2164.95 L1648.72 2164.95 L1648.72 2164.95 L1677.06 2164.95 L1677.06 2163.84 L1705.40 2163.84 L1705.40 2162.72 L1733.86 2162.72 L1733.86 2162.72 L1762.20 2162.72 L1762.20 2161.61 L1790.54 2161.61 L1790.54 2158.27 L1819.00 2158.27 L1819.00 2158.27 L1847.34 2158.27 L1847.34 2158.27 L1875.80 2158.27 L1875.80 2153.81 L1904.14 2153.81 L1904.14 2152.70 L1932.48 2152.70 L1932.48 2149.48 L1960.94 2149.48 L1960.94 2147.25 L1989.28 2147.25 L1989.28 2145.03 L2017.62 2145.03 L2017.62 2142.80 L2046.08 2142.80 L2046.08 2141.68 L2074.42 2141.68 L2074.42 2139.46 L2102.76 2139.46 L2102.76 2138.34 L2131.22 2138.34 L2131.22 2137.23 L2159.56 2137.23 L2159.56 2136.12 L2187.90 2136.12 L2187.90 2136.12 L2216.36 2136.12 L2216.36 2135.13 L2244.70 2135.13 L2244.70 2130.67 L2273.04 2130.67 L2273.04 2128.44 L2301.50 2128.44 L2301.50 2128.44 L2329.84 2128.44 L2329.84 2126.22 L2358.30 2126.22 L2358.30 2125.10 L2386.64 2125.10 L2386.64 2122.87 L2414.98 2122.87 L2414.98 2121.76 L2443.44 2121.76 L2443.44 2118.54 L2471.78 2118.54 L2471.78 2116.31 L2500.12 2116.31 L2500.12 2112.97 L2528.58 2112.97 L2528.58 2111.86 L2556.92 2111.86 L2556.92 2111.86 L2585.26 2111.86 L2585.26 2111.86 L2613.72 2111.86 L2613.72 2110.75 L2642.06 2110.75 L2642.06 2110.75 L2670.40 2110.75 L2670.40 2108.52 L2698.86 2108.52 L2698.86 2106.29 L2727.20 2106.29 L2727.20 2105.18 L2755.54 2105.18 L2755.54 2104.19 L2812.34 2104.19 L2812.34 2104.19" stroke-linejoin="round" style="fill:none;stroke:#1A476F;stroke-width:8.64"/>
	<path d=" M939.14 2172.62 L939.14 2172.62 L939.14 2172.62 L939.14 2172.62 L939.14 2172.62 L967.48 2172.62 L967.48 2172.62 L995.94 2172.62 L995.94 2172.62 L1024.28 2172.62 L1024.28 2172.62 L1052.62 2172.62 L1052.62 2172.62 L1081.08 2172.62 L1081.08 2172.62 L1109.42 2172.62 L1109.42 2172.62 L1137.76 2172.62 L1137.76 2172.62 L1166.22 2172.62 L1166.22 2172.62 L1194.56 2172.62 L1194.56 2172.62 L1222.90 2172.62 L1222.90 2172.62 L1251.36 2172.62 L1251.36 2172.62 L1279.70 2172.62 L1279.70 2172.62 L1308.04 2172.62 L1308.04 2172.62 L1336.50 2172.62 L1336.50 2172.62 L1364.84 2172.62 L1364.84 2172.62 L1393.18 2172.62 L1393.18 2172.62 L1421.64 2172.62 L1421.64 2172.62 L1449.98 2172.62 L1449.98 2172.38 L1478.44 2172.38 L1478.44 2172.38 L1506.78 2172.38 L1506.78 2172.13 L1535.12 2172.13 L1535.12 2171.63 L1563.58 2171.63 L1563.58 2170.77 L1591.92 2170.77 L1591.92 2170.27 L1620.26 2170.27 L1620.26 2169.53 L1648.72 2169.53 L1648.72 2168.42 L1677.06 2168.42 L1677.06 2167.67 L1705.40 2167.67 L1705.40 2166.68 L1733.86 2166.68 L1733.86 2164.08 L1762.20 2164.08 L1762.20 2161.98 L1790.54 2161.98 L1790.54 2160.37 L1819.00 2160.37 L1819.00 2157.52 L1847.34 2157.52 L1847.34 2154.93 L1875.80 2154.93 L1875.80 2152.33 L1904.14 2152.33 L1904.14 2149.73 L1932.48 2149.73 L1932.48 2146.39 L1960.94 2146.39 L1960.94 2143.54 L1989.28 2143.54 L1989.28 2140.45 L2017.62 2140.45 L2017.62 2136.24 L2046.08 2136.24 L2046.08 2133.89 L2074.42 2133.89 L2074.42 2129.80 L2102.76 2129.80 L2102.76 2127.70 L2131.22 2127.70 L2131.22 2125.35 L2159.56 2125.35 L2159.56 2123.25 L2187.90 2123.25 L2187.90 2120.89 L2216.36 2120.89 L2216.36 2119.28 L2244.70 2119.28 L2244.70 2116.69 L2273.04 2116.69 L2273.04 2113.10 L2301.50 2113.10 L2301.50 2111.61 L2329.84 2111.61 L2329.84 2109.51 L2358.30 2109.51 L2358.30 2107.40 L2386.64 2107.40 L2386.64 2104.81 L2414.98 2104.81 L2414.98 2102.70 L2443.44 2102.70 L2443.44 2100.10 L2471.78 2100.10 L2471.78 2097.01 L2500.12 2097.01 L2500.12 2095.15 L2528.58 2095.15 L2528.58 2094.41 L2556.92 2094.41 L2556.92 2092.55 L2585.26 2092.55 L2585.26 2091.32 L2613.72 2091.32 L2613.72 2089.96 L2642.06 2089.96 L2642.06 2088.97 L2670.40 2088.97 L2670.40 2087.11 L2698.86 2087.11 L2698.86 2085.38 L2727.20 2085.38 L2727.20 2084.76 L2755.54 2084.76 L2755.54 2083.52 L2784.00 2083.52 L2784.00 2082.53 L2812.34 2082.53 L2812.34 2082.16" stroke-linejoin="round" style="fill:none;stroke:#90353B;stroke-width:8.64"/>
	<path d=" M939.14 2172.62 L939.14 2172.62 L939.14 2172.62 L939.14 2172.62 L939.14 2172.62 L967.48 2172.62 L967.48 2172.62 L995.94 2172.62 L995.94 2172.62 L1024.28 2172.62 L1024.28 2172.62 L1052.62 2172.62 L1052.62 2172.62 L1081.08 2172.62 L1081.08 2172.62 L1109.42 2172.62 L1109.42 2172.62 L1137.76 2172.62 L1137.76 2172.62 L1166.22 2172.62 L1166.22 2172.62 L1194.56 2172.62 L1194.56 2172.62 L1222.90 2172.62 L1222.90 2172.62 L1251.36 2172.62 L1251.36 2172.62 L1279.70 2172.62 L1279.70 2172.62 L1308.04 2172.62 L1308.04 2172.62 L1336.50 2172.62 L1336.50 2172.62 L1364.84 2172.62 L1364.84 2172.62 L1393.18 2172.62 L1393.18 2172.62 L1421.64 2172.62 L1421.64 2172.62 L1449.98 2172.62 L1449.98 2172.62 L1478.44 2172.62 L1478.44 2171.14 L1506.78 2171.14 L1506.78 2169.78 L1535.12 2169.78 L1535.12 2169.78 L1563.58 2169.78 L1563.58 2169.78 L1591.92 2169.78 L1591.92 2168.29 L1620.26 2168.29 L1620.26 2165.45 L1648.72 2165.45 L1648.72 2162.60 L1677.06 2162.60 L1677.06 2159.63 L1705.40 2159.63 L1705.40 2155.30 L1733.86 2155.30 L1733.86 2152.45 L1762.20 2152.45 L1762.20 2152.45 L1790.54 2152.45 L1790.54 2149.60 L1819.00 2149.60 L1819.00 2149.60 L1847.34 2149.60 L1847.34 2145.27 L1875.80 2145.27 L1875.80 2140.94 L1904.14 2140.94 L1904.14 2132.28 L1932.48 2132.28 L1932.48 2125.10 L1960.94 2125.10 L1960.94 2120.77 L1989.28 2120.77 L1989.28 2114.95 L2017.62 2114.95 L2017.62 2110.62 L2046.08 2110.62 L2046.08 2103.44 L2074.42 2103.44 L2074.42 2097.75 L2102.76 2097.75 L2102.76 2093.42 L2131.22 2093.42 L2131.22 2091.94 L2159.56 2091.94 L2159.56 2087.60 L2187.90 2087.60 L2187.90 2084.76 L2216.36 2084.76 L2216.36 2080.43 L2244.70 2080.43 L2244.70 2073.25 L2273.04 2073.25 L2273.04 2070.28 L2301.50 2070.28 L2301.50 2064.59 L2329.84 2064.59 L2329.84 2061.62 L2358.30 2061.62 L2358.30 2057.28 L2386.64 2057.28 L2386.64 2050.11 L2414.98 2050.11 L2414.98 2047.26 L2471.78 2047.26 L2471.78 2042.93 L2500.12 2042.93 L2500.12 2041.44 L2528.58 2041.44 L2528.58 2038.60 L2556.92 2038.60 L2556.92 2035.75 L2585.26 2035.75 L2585.26 2032.78 L2613.72 2032.78 L2613.72 2027.09 L2642.06 2027.09 L2642.06 2025.60 L2670.40 2025.60 L2670.40 2024.24 L2698.86 2024.24 L2698.86 2021.27 L2727.20 2021.27 L2727.20 2021.27 L2755.54 2021.27 L2755.54 2021.27 L2784.00 2021.27 L2784.00 2016.94 L2812.34 2016.94 L2812.34 2015.58" stroke-linejoin="round" style="fill:none;stroke:#55752F;stroke-width:8.64"/>
	<line x1="875.78" y1="2235.86" x2="875.78" y2="630.90" style="stroke:#000000;stroke-width:5.76"/>
	<line x1="875.78" y1="2172.62" x2="835.81" y2="2172.62" style="stroke:#000000;stroke-width:5.76"/>
	<text x="815.88" y="2200.63" style="font-family:'Helvetica';font-size:79.94px;fill:#000000" text-anchor="end">0.000</text>
	<line x1="875.78" y1="1433.44" x2="835.81" y2="1433.44" style="stroke:#000000;stroke-width:5.76"/>
	<text x="815.88" y="1461.45" style="font-family:'Helvetica';font-size:79.94px;fill:#000000" text-anchor="end">0.005</text>
	<line x1="875.78" y1="694.26" x2="835.81" y2="694.26" style="stroke:#000000;stroke-width:5.76"/>
	<text x="815.88" y="722.27" style="font-family:'Helvetica';font-size:79.94px;fill:#000000" text-anchor="end">0.010</text>
	<text x="939.14" y="2747.83" style="font-family:'Helvetica';font-size:60.02px;fill:#000000" text-anchor="middle">102716</text>
	<text x="1506.78" y="2747.83" style="font-family:'Helvetica';font-size:60.02px;fill:#000000" text-anchor="middle">102658</text>
	<text x="2074.42" y="2747.83" style="font-family:'Helvetica';font-size:60.02px;fill:#000000" text-anchor="middle">102535</text>
	<text x="2642.19" y="2747.83" style="font-family:'Helvetica';font-size:60.02px;fill:#000000" text-anchor="middle">102430</text>
	<text x="3209.83" y="2747.83" style="font-family:'Helvetica';font-size:60.02px;fill:#000000" text-anchor="middle">0</text>
	<text x="3777.47" y="2747.83" style="font-family:'Helvetica';font-size:60.02px;fill:#000000" text-anchor="middle">0</text>
	<text x="797.32" y="2747.83" style="font-family:'Helvetica';font-size:60.02px;fill:#000000" text-anchor="end">ICS (High Dose)</text>
	<text x="939.14" y="2674.44" style="font-family:'Helvetica';font-size:60.02px;fill:#000000" text-anchor="middle">626206</text>
	<text x="1506.78" y="2674.44" style="font-family:'Helvetica';font-size:60.02px;fill:#000000" text-anchor="middle">625943</text>
	<text x="2074.42" y="2674.44" style="font-family:'Helvetica';font-size:60.02px;fill:#000000" text-anchor="middle">625455</text>
	<text x="2642.19" y="2674.44" style="font-family:'Helvetica';font-size:60.02px;fill:#000000" text-anchor="middle">624963</text>
	<text x="3209.83" y="2674.44" style="font-family:'Helvetica';font-size:60.02px;fill:#000000" text-anchor="middle">0</text>
	<text x="3777.47" y="2674.44" style="font-family:'Helvetica';font-size:60.02px;fill:#000000" text-anchor="middle">0</text>
	<text x="797.32" y="2674.44" style="font-family:'Helvetica';font-size:60.02px;fill:#000000" text-anchor="end">ICS (Low/Medium Dose)</text>
	<text x="939.14" y="2601.18" style="font-family:'Helvetica';font-size:60.02px;fill:#000000" text-anchor="middle">133957</text>
	<text x="1506.78" y="2601.18" style="font-family:'Helvetica';font-size:60.02px;fill:#000000" text-anchor="middle">133887</text>
	<text x="2074.42" y="2601.18" style="font-family:'Helvetica';font-size:60.02px;fill:#000000" text-anchor="middle">133793</text>
	<text x="2642.19" y="2601.18" style="font-family:'Helvetica';font-size:60.02px;fill:#000000" text-anchor="middle">133706</text>
	<text x="3209.83" y="2601.18" style="font-family:'Helvetica';font-size:60.02px;fill:#000000" text-anchor="middle">0</text>
	<text x="3777.47" y="2601.18" style="font-family:'Helvetica';font-size:60.02px;fill:#000000" text-anchor="middle">0</text>
	<text x="797.32" y="2601.18" style="font-family:'Helvetica';font-size:60.02px;fill:#000000" text-anchor="end">SABA only</text>
	<text x="797.32" y="2527.80" style="font-family:'Helvetica';font-size:60.02px;fill:#000000" text-anchor="end">Number at risk</text>
	<line x1="875.78" y1="2235.86" x2="3840.83" y2="2235.86" style="stroke:#000000;stroke-width:5.76"/>
	<line x1="939.14" y1="2235.86" x2="939.14" y2="2275.96" style="stroke:#000000;stroke-width:5.76"/>
	<text x="939.14" y="2351.78" style="font-family:'Helvetica';font-size:79.94px;fill:#000000" text-anchor="middle">0</text>
	<line x1="1506.78" y1="2235.86" x2="1506.78" y2="2275.96" style="stroke:#000000;stroke-width:5.76"/>
	<text x="1506.78" y="2351.78" style="font-family:'Helvetica';font-size:79.94px;fill:#000000" text-anchor="middle">20</text>
	<line x1="2074.42" y1="2235.86" x2="2074.42" y2="2275.96" style="stroke:#000000;stroke-width:5.76"/>
	<text x="2074.42" y="2351.78" style="font-family:'Helvetica';font-size:79.94px;fill:#000000" text-anchor="middle">40</text>
	<line x1="2642.19" y1="2235.86" x2="2642.19" y2="2275.96" style="stroke:#000000;stroke-width:5.76"/>
	<text x="2642.19" y="2351.78" style="font-family:'Helvetica';font-size:79.94px;fill:#000000" text-anchor="middle">60</text>
	<line x1="3209.83" y1="2235.86" x2="3209.83" y2="2275.96" style="stroke:#000000;stroke-width:5.76"/>
	<text x="3209.83" y="2351.78" style="font-family:'Helvetica';font-size:79.94px;fill:#000000" text-anchor="middle">80</text>
	<line x1="3777.47" y1="2235.86" x2="3777.47" y2="2275.96" style="stroke:#000000;stroke-width:5.76"/>
	<text x="3777.47" y="2351.78" style="font-family:'Helvetica';font-size:79.94px;fill:#000000" text-anchor="middle">100</text>
	<text x="2358.30" y="2441.87" style="font-family:'Helvetica';font-size:79.94px;fill:#000000" text-anchor="middle">Days since 1 Mar 2020</text>
	<rect x="1244.68" y="269.91" width="2227.25" height="326.46" style="fill:#FFFFFF"/>
	<rect x="1247.56" y="272.79" width="2221.49" height="320.70" style="fill:none;stroke:#EAF2F3;stroke-width:5.76"/>
	<line x1="1287.87" y1="363.09" x2="1662.21" y2="363.09" style="stroke:#1A476F;stroke-width:8.64"/>
	<line x1="2315.49" y1="363.09" x2="2689.83" y2="363.09" style="stroke:#90353B;stroke-width:8.64"/>
	<line x1="1287.87" y1="503.06" x2="1662.21" y2="503.06" style="stroke:#55752F;stroke-width:8.64"/>
	<text x="1722.23" y="384.13" style="font-family:'Helvetica';font-size:60.02px;fill:#000000">SABA only</text>
	<text x="2749.85" y="384.13" style="font-family:'Helvetica';font-size:60.02px;fill:#000000">ICS (Low/Medium Dose)</text>
	<text x="1722.23" y="524.10" style="font-family:'Helvetica';font-size:60.02px;fill:#000000">ICS (High Dose)</text>
	<text x="1139.24" y="187.99" style="font-family:'Helvetica';font-size:99.99px;fill:#1E2D53">Time to COVID-19 Death in ONS, Asthma population</text>
</svg>
