<?xml version="1.0" encoding="UTF-8" standalone="no"?>
<!-- This is a Stata 16.1 generated SVG file (http://www.stata.com) -->

<svg version="1.1" width="5.50in" height="4.00in" viewBox="0 0 3960 2880" xmlns="http://www.w3.org/2000/svg" xmlns:xlink="http://www.w3.org/1999/xlink">
	<desc>Stata Graph - Graph</desc>
	<rect x="0" y="0" width="3960" height="2880" style="fill:#EAF2F3;stroke:none"/>
	<rect x="0.00" y="0.00" width="3959.88" height="2880.00" style="fill:#FFFFFF"/>
	<rect x="2.88" y="2.88" width="3954.12" height="2874.24" style="fill:none;stroke:#EAF2F3;stroke-width:5.76"/>
	<rect x="875.78" y="630.90" width="2965.05" height="1604.96" style="fill:#FFFFFF"/>
	<rect x="878.66" y="633.78" width="2959.29" height="1599.20" style="fill:none;stroke:#FFFFFF;stroke-width:5.76"/>
	<line x1="875.78" y1="2172.62" x2="3840.83" y2="2172.62" style="stroke:#EAF2F3;stroke-width:8.64"/>
	<line x1="875.78" y1="1433.44" x2="3840.83" y2="1433.44" style="stroke:#EAF2F3;stroke-width:8.64"/>
	<path d=" M939.14 2172.62 L939.14 2172.62 L939.14 2172.62 L939.14 2172.62 L939.14 2172.62 L967.48 2172.62 L967.48 2172.62 L995.94 2172.62 L995.94 2172.62 L1024.28 2172.62 L1024.28 2172.62 L1052.62 2172.62 L1052.62 2172.62 L1081.08 2172.62 L1081.08 2172.62 L1109.42 2172.62 L1109.42 2172.62 L1137.76 2172.62 L1137.76 2172.62 L1166.22 2172.62 L1166.22 2172.62 L1194.56 2172.62 L1194.56 2172.62 L1222.90 2172.62 L1222.90 2172.62 L1251.36 2172.62 L1251.36 2172.62 L1279.70 2172.62 L1279.70 2172.62 L1308.04 2172.62 L1308.04 2172.62 L1336.50 2172.62 L1336.50 2172.62 L1364.84 2172.62 L1364.84 2172.62 L1393.18 2172.62 L1393.18 2172.62 L1421.64 2172.62 L1421.64 2172.62 L1449.98 2172.62 L1449.98 2171.51 L1478.44 2171.51 L1478.44 2171.51 L1506.78 2171.51 L1506.78 2171.51 L1535.12 2171.51 L1535.12 2170.40 L1563.58 2170.40 L1563.58 2169.28 L1591.92 2169.28 L1591.92 2166.06 L1620.26 2166.06 L1620.26 2164.95 L1648.72 2164.95 L1648.72 2164.95 L1677.06 2164.95 L1677.06 2163.84 L1705.40 2163.84 L1705.40 2162.72 L1733.86 2162.72 L1733.86 2162.72 L1762.20 2162.72 L1762.20 2161.61 L1790.54 2161.61 L1790.54 2158.27 L1819.00 2158.27 L1819.00 2158.27 L1847.34 2158.27 L1847.34 2158.27 L1875.80 2158.27 L1875.80 2153.81 L1904.14 2153.81 L1904.14 2151.71 L1932.48 2151.71 L1932.48 2148.37 L1960.94 2148.37 L1960.94 2146.14 L1989.28 2146.14 L1989.28 2143.91 L2017.62 2143.91 L2017.62 2141.68 L2046.08 2141.68 L2046.08 2140.57 L2074.42 2140.57 L2074.42 2138.47 L2102.76 2138.47 L2102.76 2137.35 L2131.22 2137.35 L2131.22 2136.24 L2159.56 2136.24 L2159.56 2135.13 L2187.90 2135.13 L2187.90 2135.13 L2216.36 2135.13 L2216.36 2134.01 L2244.70 2134.01 L2244.70 2129.56 L2273.04 2129.56 L2273.04 2127.33 L2301.50 2127.33 L2301.50 2127.33 L2329.84 2127.33 L2329.84 2125.23 L2358.30 2125.23 L2358.30 2124.11 L2386.64 2124.11 L2386.64 2121.88 L2414.98 2121.88 L2414.98 2119.66 L2443.44 2119.66 L2443.44 2116.31 L2471.78 2116.31 L2471.78 2114.09 L2500.12 2114.09 L2500.12 2111.86 L2528.58 2111.86 L2528.58 2110.87 L2556.92 2110.87 L2556.92 2110.87 L2585.26 2110.87 L2585.26 2110.87 L2613.72 2110.87 L2613.72 2109.76 L2642.06 2109.76 L2642.06 2109.76 L2670.40 2109.76 L2670.40 2107.53 L2698.86 2107.53 L2698.86 2105.30 L2727.20 2105.30 L2727.20 2104.19 L2755.54 2104.19 L2755.54 2103.07 L2812.34 2103.07 L2812.34 2103.07" stroke-linejoin="round" style="fill:none;stroke:#1A476F;stroke-width:8.64"/>
	<path d=" M939.14 2172.62 L939.14 2172.62 L939.14 2172.62 L939.14 2172.62 L939.14 2172.62 L967.48 2172.62 L967.48 2172.62 L995.94 2172.62 L995.94 2172.62 L1024.28 2172.62 L1024.28 2172.62 L1052.62 2172.62 L1052.62 2172.62 L1081.08 2172.62 L1081.08 2172.38 L1109.42 2172.38 L1109.42 2172.38 L1137.76 2172.38 L1137.76 2172.38 L1166.22 2172.38 L1166.22 2172.38 L1194.56 2172.38 L1194.56 2172.38 L1222.90 2172.38 L1222.90 2172.38 L1251.36 2172.38 L1251.36 2172.38 L1279.70 2172.38 L1279.70 2172.38 L1308.04 2172.38 L1308.04 2172.38 L1336.50 2172.38 L1336.50 2172.38 L1364.84 2172.38 L1364.84 2172.38 L1393.18 2172.38 L1393.18 2172.13 L1421.64 2172.13 L1421.64 2172.13 L1449.98 2172.13 L1449.98 2171.88 L1478.44 2171.88 L1478.44 2171.88 L1506.78 2171.88 L1506.78 2171.63 L1535.12 2171.63 L1535.12 2171.26 L1563.58 2171.26 L1563.58 2170.27 L1591.92 2170.27 L1591.92 2169.78 L1620.26 2169.78 L1620.26 2169.03 L1648.72 2169.03 L1648.72 2167.92 L1677.06 2167.92 L1677.06 2167.18 L1705.40 2167.18 L1705.40 2166.31 L1733.86 2166.31 L1733.86 2163.71 L1762.20 2163.71 L1762.20 2161.49 L1790.54 2161.49 L1790.54 2159.88 L1819.00 2159.88 L1819.00 2157.03 L1847.34 2157.03 L1847.34 2154.43 L1875.80 2154.43 L1875.80 2151.83 L1904.14 2151.83 L1904.14 2149.23 L1932.48 2149.23 L1932.48 2145.89 L1960.94 2145.89 L1960.94 2143.17 L1989.28 2143.17 L1989.28 2140.08 L2017.62 2140.08 L2017.62 2135.74 L2046.08 2135.74 L2046.08 2133.39 L2074.42 2133.39 L2074.42 2129.43 L2102.76 2129.43 L2102.76 2127.33 L2131.22 2127.33 L2131.22 2124.73 L2159.56 2124.73 L2159.56 2122.63 L2187.90 2122.63 L2187.90 2120.15 L2216.36 2120.15 L2216.36 2118.54 L2244.70 2118.54 L2244.70 2115.70 L2273.04 2115.70 L2273.04 2112.23 L2301.50 2112.23 L2301.50 2110.50 L2329.84 2110.50 L2329.84 2108.39 L2358.30 2108.39 L2358.30 2106.29 L2386.64 2106.29 L2386.64 2103.69 L2414.98 2103.69 L2414.98 2101.34 L2443.44 2101.34 L2443.44 2098.74 L2471.78 2098.74 L2471.78 2095.65 L2500.12 2095.65 L2500.12 2093.30 L2528.58 2093.30 L2528.58 2092.55 L2556.92 2092.55 L2556.92 2090.70 L2585.26 2090.70 L2585.26 2089.46 L2613.72 2089.46 L2613.72 2088.10 L2642.06 2088.10 L2642.06 2086.86 L2670.40 2086.86 L2670.40 2085.01 L2698.86 2085.01 L2698.86 2083.15 L2727.20 2083.15 L2727.20 2082.41 L2755.54 2082.41 L2755.54 2080.80 L2784.00 2080.80 L2784.00 2079.56 L2812.34 2079.56 L2812.34 2078.69" stroke-linejoin="round" style="fill:none;stroke:#90353B;stroke-width:8.64"/>
	<path d=" M939.14 2172.62 L939.14 2172.62 L939.14 2172.62 L939.14 2172.62 L939.14 2172.62 L967.48 2172.62 L967.48 2172.62 L995.94 2172.62 L995.94 2172.62 L1024.28 2172.62 L1024.28 2172.62 L1052.62 2172.62 L1052.62 2172.62 L1081.08 2172.62 L1081.08 2172.62 L1109.42 2172.62 L1109.42 2172.62 L1137.76 2172.62 L1137.76 2172.62 L1166.22 2172.62 L1166.22 2172.62 L1194.56 2172.62 L1194.56 2172.62 L1222.90 2172.62 L1222.90 2172.62 L1251.36 2172.62 L1251.36 2172.62 L1279.70 2172.62 L1279.70 2172.62 L1308.04 2172.62 L1308.04 2172.62 L1336.50 2172.62 L1336.50 2172.62 L1364.84 2172.62 L1364.84 2172.62 L1393.18 2172.62 L1393.18 2172.62 L1421.64 2172.62 L1421.64 2172.62 L1449.98 2172.62 L1449.98 2172.62 L1478.44 2172.62 L1478.44 2171.14 L1506.78 2171.14 L1506.78 2169.78 L1535.12 2169.78 L1535.12 2169.78 L1563.58 2169.78 L1563.58 2169.78 L1591.92 2169.78 L1591.92 2168.29 L1620.26 2168.29 L1620.26 2165.45 L1648.72 2165.45 L1648.72 2162.60 L1677.06 2162.60 L1677.06 2159.63 L1705.40 2159.63 L1705.40 2155.30 L1733.86 2155.30 L1733.86 2152.45 L1762.20 2152.45 L1762.20 2152.45 L1790.54 2152.45 L1790.54 2149.60 L1819.00 2149.60 L1819.00 2149.60 L1847.34 2149.60 L1847.34 2145.27 L1875.80 2145.27 L1875.80 2140.94 L1904.14 2140.94 L1904.14 2132.28 L1932.48 2132.28 L1932.48 2125.10 L1960.94 2125.10 L1960.94 2120.77 L1989.28 2120.77 L1989.28 2115.08 L2017.62 2115.08 L2017.62 2110.75 L2046.08 2110.75 L2046.08 2103.57 L2074.42 2103.57 L2074.42 2097.75 L2102.76 2097.75 L2102.76 2093.42 L2131.22 2093.42 L2131.22 2091.94 L2159.56 2091.94 L2159.56 2087.73 L2187.90 2087.73 L2187.90 2084.76 L2216.36 2084.76 L2216.36 2080.43 L2244.70 2080.43 L2244.70 2073.25 L2273.04 2073.25 L2273.04 2070.40 L2301.50 2070.40 L2301.50 2064.59 L2329.84 2064.59 L2329.84 2061.74 L2358.30 2061.74 L2358.30 2057.41 L2386.64 2057.41 L2386.64 2050.23 L2414.98 2050.23 L2414.98 2047.38 L2471.78 2047.38 L2471.78 2043.05 L2500.12 2043.05 L2500.12 2041.57 L2528.58 2041.57 L2528.58 2038.72 L2556.92 2038.72 L2556.92 2035.75 L2585.26 2035.75 L2585.26 2032.90 L2613.72 2032.90 L2613.72 2027.21 L2642.06 2027.21 L2642.06 2025.73 L2670.40 2025.73 L2670.40 2024.24 L2698.86 2024.24 L2698.86 2021.40 L2727.20 2021.40 L2727.20 2021.40 L2755.54 2021.40 L2755.54 2021.40 L2784.00 2021.40 L2784.00 2017.06 L2812.34 2017.06 L2812.34 2014.22" stroke-linejoin="round" style="fill:none;stroke:#55752F;stroke-width:8.64"/>
	<line x1="875.78" y1="2235.86" x2="875.78" y2="630.90" style="stroke:#000000;stroke-width:5.76"/>
	<line x1="875.78" y1="2172.62" x2="835.81" y2="2172.62" style="stroke:#000000;stroke-width:5.76"/>
	<text x="815.88" y="2200.63" style="font-family:'Helvetica';font-size:79.94px;fill:#000000" text-anchor="end">0.000</text>
	<line x1="875.78" y1="1433.44" x2="835.81" y2="1433.44" style="stroke:#000000;stroke-width:5.76"/>
	<text x="815.88" y="1461.45" style="font-family:'Helvetica';font-size:79.94px;fill:#000000" text-anchor="end">0.005</text>
	<line x1="875.78" y1="694.26" x2="835.81" y2="694.26" style="stroke:#000000;stroke-width:5.76"/>
	<text x="815.88" y="722.27" style="font-family:'Helvetica';font-size:79.94px;fill:#000000" text-anchor="end">0.010</text>
	<text x="939.14" y="2747.83" style="font-family:'Helvetica';font-size:60.02px;fill:#000000" text-anchor="middle">102787</text>
	<text x="1506.78" y="2747.83" style="font-family:'Helvetica';font-size:60.02px;fill:#000000" text-anchor="middle">102726</text>
	<text x="2074.42" y="2747.83" style="font-family:'Helvetica';font-size:60.02px;fill:#000000" text-anchor="middle">102602</text>
	<text x="2642.19" y="2747.83" style="font-family:'Helvetica';font-size:60.02px;fill:#000000" text-anchor="middle">102495</text>
	<text x="3209.83" y="2747.83" style="font-family:'Helvetica';font-size:60.02px;fill:#000000" text-anchor="middle">0</text>
	<text x="3777.47" y="2747.83" style="font-family:'Helvetica';font-size:60.02px;fill:#000000" text-anchor="middle">0</text>
	<text x="797.32" y="2747.83" style="font-family:'Helvetica';font-size:60.02px;fill:#000000" text-anchor="end">ICS (High Dose)</text>
	<text x="939.14" y="2674.44" style="font-family:'Helvetica';font-size:60.02px;fill:#000000" text-anchor="middle">626669</text>
	<text x="1506.78" y="2674.44" style="font-family:'Helvetica';font-size:60.02px;fill:#000000" text-anchor="middle">626399</text>
	<text x="2074.42" y="2674.44" style="font-family:'Helvetica';font-size:60.02px;fill:#000000" text-anchor="middle">625903</text>
	<text x="2642.19" y="2674.44" style="font-family:'Helvetica';font-size:60.02px;fill:#000000" text-anchor="middle">625398</text>
	<text x="3209.83" y="2674.44" style="font-family:'Helvetica';font-size:60.02px;fill:#000000" text-anchor="middle">0</text>
	<text x="3777.47" y="2674.44" style="font-family:'Helvetica';font-size:60.02px;fill:#000000" text-anchor="middle">0</text>
	<text x="797.32" y="2674.44" style="font-family:'Helvetica';font-size:60.02px;fill:#000000" text-anchor="end">ICS (Low/Medium Dose)</text>
	<text x="939.14" y="2601.18" style="font-family:'Helvetica';font-size:60.02px;fill:#000000" text-anchor="middle">134067</text>
	<text x="1506.78" y="2601.18" style="font-family:'Helvetica';font-size:60.02px;fill:#000000" text-anchor="middle">133993</text>
	<text x="2074.42" y="2601.18" style="font-family:'Helvetica';font-size:60.02px;fill:#000000" text-anchor="middle">133896</text>
	<text x="2642.19" y="2601.18" style="font-family:'Helvetica';font-size:60.02px;fill:#000000" text-anchor="middle">133807</text>
	<text x="3209.83" y="2601.18" style="font-family:'Helvetica';font-size:60.02px;fill:#000000" text-anchor="middle">0</text>
	<text x="3777.47" y="2601.18" style="font-family:'Helvetica';font-size:60.02px;fill:#000000" text-anchor="middle">0</text>
	<text x="797.32" y="2601.18" style="font-family:'Helvetica';font-size:60.02px;fill:#000000" text-anchor="end">SABA only</text>
	<text x="797.32" y="2527.80" style="font-family:'Helvetica';font-size:60.02px;fill:#000000" text-anchor="end">Number at risk</text>
	<line x1="875.78" y1="2235.86" x2="3840.83" y2="2235.86" style="stroke:#000000;stroke-width:5.76"/>
	<line x1="939.14" y1="2235.86" x2="939.14" y2="2275.96" style="stroke:#000000;stroke-width:5.76"/>
	<text x="939.14" y="2351.78" style="font-family:'Helvetica';font-size:79.94px;fill:#000000" text-anchor="middle">0</text>
	<line x1="1506.78" y1="2235.86" x2="1506.78" y2="2275.96" style="stroke:#000000;stroke-width:5.76"/>
	<text x="1506.78" y="2351.78" style="font-family:'Helvetica';font-size:79.94px;fill:#000000" text-anchor="middle">20</text>
	<line x1="2074.42" y1="2235.86" x2="2074.42" y2="2275.96" style="stroke:#000000;stroke-width:5.76"/>
	<text x="2074.42" y="2351.78" style="font-family:'Helvetica';font-size:79.94px;fill:#000000" text-anchor="middle">40</text>
	<line x1="2642.19" y1="2235.86" x2="2642.19" y2="2275.96" style="stroke:#000000;stroke-width:5.76"/>
	<text x="2642.19" y="2351.78" style="font-family:'Helvetica';font-size:79.94px;fill:#000000" text-anchor="middle">60</text>
	<line x1="3209.83" y1="2235.86" x2="3209.83" y2="2275.96" style="stroke:#000000;stroke-width:5.76"/>
	<text x="3209.83" y="2351.78" style="font-family:'Helvetica';font-size:79.94px;fill:#000000" text-anchor="middle">80</text>
	<line x1="3777.47" y1="2235.86" x2="3777.47" y2="2275.96" style="stroke:#000000;stroke-width:5.76"/>
	<text x="3777.47" y="2351.78" style="font-family:'Helvetica';font-size:79.94px;fill:#000000" text-anchor="middle">100</text>
	<text x="2358.30" y="2441.87" style="font-family:'Helvetica';font-size:79.94px;fill:#000000" text-anchor="middle">Days since 1 Mar 2020</text>
	<rect x="1244.68" y="269.91" width="2227.25" height="326.46" style="fill:#FFFFFF"/>
	<rect x="1247.56" y="272.79" width="2221.49" height="320.70" style="fill:none;stroke:#EAF2F3;stroke-width:5.76"/>
	<line x1="1287.87" y1="363.09" x2="1662.21" y2="363.09" style="stroke:#1A476F;stroke-width:8.64"/>
	<line x1="2315.49" y1="363.09" x2="2689.83" y2="363.09" style="stroke:#90353B;stroke-width:8.64"/>
	<line x1="1287.87" y1="503.06" x2="1662.21" y2="503.06" style="stroke:#55752F;stroke-width:8.64"/>
	<text x="1722.23" y="384.13" style="font-family:'Helvetica';font-size:60.02px;fill:#000000">SABA only</text>
	<text x="2749.85" y="384.13" style="font-family:'Helvetica';font-size:60.02px;fill:#000000">ICS (Low/Medium Dose)</text>
	<text x="1722.23" y="524.10" style="font-family:'Helvetica';font-size:60.02px;fill:#000000">ICS (High Dose)</text>
	<text x="986.04" y="187.99" style="font-family:'Helvetica';font-size:99.99px;fill:#1E2D53">Time to COVID-19 Death in ONS, Asthma - Ever population</text>
</svg>
