<?xml version="1.0" encoding="UTF-8" standalone="no"?>
<!-- This is a Stata 16.1 generated SVG file (http://www.stata.com) -->

<svg version="1.1" width="5.50in" height="4.00in" viewBox="0 0 3960 2880" xmlns="http://www.w3.org/2000/svg" xmlns:xlink="http://www.w3.org/1999/xlink">
	<desc>Stata Graph - Graph</desc>
	<rect x="0" y="0" width="3960" height="2880" style="fill:#EAF2F3;stroke:none"/>
	<rect x="0.00" y="0.00" width="3959.88" height="2880.00" style="fill:#FFFFFF"/>
	<rect x="2.88" y="2.88" width="3954.12" height="2874.24" style="fill:none;stroke:#EAF2F3;stroke-width:5.76"/>
	<rect x="816.25" y="630.90" width="3033.86" height="1604.96" style="fill:#FFFFFF"/>
	<rect x="819.13" y="633.78" width="3028.10" height="1599.20" style="fill:none;stroke:#FFFFFF;stroke-width:5.76"/>
	<line x1="816.25" y1="2172.62" x2="3850.11" y2="2172.62" style="stroke:#EAF2F3;stroke-width:8.64"/>
	<line x1="816.25" y1="1810.02" x2="3850.11" y2="1810.02" style="stroke:#EAF2F3;stroke-width:8.64"/>
	<line x1="816.25" y1="1447.43" x2="3850.11" y2="1447.43" style="stroke:#EAF2F3;stroke-width:8.64"/>
	<path d=" M879.62 2172.62 L879.62 2172.62 L879.62 2172.62 L879.62 2172.62 L879.62 2172.62 L908.57 2172.62 L908.57 2159.26 L937.65 2159.26 L937.65 2145.89 L966.74 2145.89 L966.74 2119.16 L995.82 2119.16 L995.82 2065.58 L1024.90 2065.58 L1024.90 2052.21 L1053.98 2052.21 L1053.98 2038.84 L1083.06 2038.84 L1083.06 2025.48 L1141.22 2025.48 L1141.22 1985.38 L1170.30 1985.38 L1170.30 1972.02 L1199.38 1972.02 L1199.38 1958.65 L1228.47 1958.65 L1228.47 1925.24 L1257.55 1925.24 L1257.55 1918.56 L1286.51 1918.56 L1286.51 1891.83 L1315.59 1891.83 L1315.59 1864.97 L1344.67 1864.97 L1344.67 1851.61 L1373.75 1851.61 L1373.75 1838.24 L1402.83 1838.24 L1402.83 1831.56 L1431.91 1831.56 L1431.91 1824.87 L1460.99 1824.87 L1460.99 1791.46 L1490.07 1791.46 L1490.07 1784.78 L1519.15 1784.78 L1519.15 1764.73 L1548.24 1764.73 L1548.24 1758.05 L1577.32 1758.05 L1577.32 1744.68 L1606.40 1744.68 L1606.40 1738.00 L1635.48 1738.00 L1635.48 1724.63 L1664.44 1724.63 L1664.44 1684.54 L1693.52 1684.54 L1693.52 1677.85 L1722.60 1677.85 L1722.60 1664.37 L1751.68 1664.37 L1751.68 1624.27 L1780.76 1624.27 L1780.76 1604.22 L1809.84 1604.22 L1809.84 1584.17 L1838.92 1584.17 L1838.92 1564.13 L1868.01 1564.13 L1868.01 1544.08 L1897.09 1544.08 L1897.09 1530.71 L1926.17 1530.71 L1926.17 1483.81 L1955.25 1483.81 L1955.25 1470.44 L1984.33 1470.44 L1984.33 1450.40 L2013.29 1450.40 L2013.29 1450.40 L2042.37 1450.40 L2042.37 1443.71 L2071.45 1443.71 L2071.45 1416.98 L2100.53 1416.98 L2100.53 1410.30 L2158.70 1410.30 L2158.70 1383.57 L2187.78 1383.57 L2187.78 1370.20 L2216.86 1370.20 L2216.86 1343.35 L2245.94 1343.35 L2245.94 1343.35 L2275.02 1343.35 L2275.02 1336.67 L2304.10 1336.67 L2304.10 1323.30 L2333.18 1323.30 L2333.18 1316.62 L2362.26 1316.62 L2362.26 1303.25 L2391.22 1303.25 L2391.22 1276.52 L2420.30 1276.52 L2420.30 1256.47 L2449.38 1256.47 L2449.38 1243.11 L2478.47 1243.11 L2478.47 1222.94 L2507.55 1222.94 L2507.55 1196.20 L2536.63 1196.20 L2536.63 1169.47 L2594.79 1169.47 L2594.79 1162.79 L2623.87 1162.79 L2623.87 1149.43 L2652.95 1149.43 L2652.95 1136.06 L2682.03 1136.06 L2682.03 1102.65 L2711.11 1102.65 L2711.11 1095.84 L2740.20 1095.84 L2740.20 1075.79 L2798.24 1075.79 L2798.24 1049.06" stroke-linejoin="round" style="fill:none;stroke:#1A476F;stroke-width:8.64"/>
	<path d=" M879.62 2172.62 L879.62 2172.62 L879.62 2172.62 L879.62 2172.62 L879.62 2172.62 L908.57 2172.62 L908.57 2154.80 L937.65 2154.80 L937.65 2142.80 L966.74 2142.80 L966.74 2129.80 L995.82 2129.80 L995.82 2120.28 L1024.90 2120.28 L1024.90 2103.57 L1053.98 2103.57 L1053.98 2089.21 L1083.06 2089.21 L1083.06 2072.63 L1112.14 2072.63 L1112.14 2054.69 L1141.22 2054.69 L1141.22 2035.63 L1170.30 2035.63 L1170.30 2023.75 L1199.38 2023.75 L1199.38 2010.63 L1228.47 2010.63 L1228.47 1992.81 L1257.55 1992.81 L1257.55 1983.28 L1286.51 1983.28 L1286.51 1969.05 L1315.59 1969.05 L1315.59 1953.58 L1344.67 1953.58 L1344.67 1930.93 L1373.75 1930.93 L1373.75 1896.40 L1402.83 1896.40 L1402.83 1884.52 L1431.91 1884.52 L1431.91 1873.76 L1460.99 1873.76 L1460.99 1854.70 L1490.07 1854.70 L1490.07 1841.58 L1519.15 1841.58 L1519.15 1829.70 L1548.24 1829.70 L1548.24 1803.47 L1577.32 1803.47 L1577.32 1793.94 L1606.40 1793.94 L1606.40 1778.47 L1635.48 1778.47 L1635.48 1764.24 L1664.44 1764.24 L1664.44 1753.47 L1693.52 1753.47 L1693.52 1730.82 L1722.60 1730.82 L1722.60 1708.17 L1751.68 1708.17 L1751.68 1689.12 L1780.76 1689.12 L1780.76 1661.77 L1809.84 1661.77 L1809.84 1638.01 L1838.92 1638.01 L1838.92 1617.71 L1868.01 1617.71 L1868.01 1590.36 L1897.09 1590.36 L1897.09 1573.65 L1926.17 1573.65 L1926.17 1555.83 L1955.25 1555.83 L1955.25 1537.89 L1984.33 1537.89 L1984.33 1518.83 L2013.29 1518.83 L2013.29 1499.77 L2042.37 1499.77 L2042.37 1478.36 L2071.45 1478.36 L2071.45 1465.25 L2100.53 1465.25 L2100.53 1431.96 L2129.61 1431.96 L2129.61 1420.08 L2158.70 1420.08 L2158.70 1404.48 L2187.78 1404.48 L2187.78 1384.31 L2216.86 1384.31 L2216.86 1359.31 L2245.94 1359.31 L2245.94 1344.96 L2275.02 1344.96 L2275.02 1325.90 L2304.10 1325.90 L2304.10 1314.02 L2333.18 1314.02 L2333.18 1297.31 L2362.26 1297.31 L2362.26 1277.02 L2391.22 1277.02 L2391.22 1253.26 L2420.30 1253.26 L2420.30 1237.79 L2449.38 1237.79 L2449.38 1225.91 L2478.47 1225.91 L2478.47 1209.20 L2507.55 1209.20 L2507.55 1192.49 L2536.63 1192.49 L2536.63 1182.96 L2565.71 1182.96 L2565.71 1173.43 L2594.79 1173.43 L2594.79 1159.08 L2623.87 1159.08 L2623.87 1146.08 L2652.95 1146.08 L2652.95 1135.32 L2682.03 1135.32 L2682.03 1118.61 L2711.11 1118.61 L2711.11 1103.14 L2740.20 1103.14 L2740.20 1085.32 L2769.15 1085.32 L2769.15 1070.97 L2798.24 1070.97 L2798.24 1060.20" stroke-linejoin="round" style="fill:none;stroke:#90353B;stroke-width:8.64"/>
	<path d=" M879.62 2172.62 L879.62 2172.62 L879.62 2172.62 L879.62 2172.62 L879.62 2172.62 L908.57 2172.62 L908.57 2143.91 L937.65 2143.91 L937.65 2100.85 L966.74 2100.85 L966.74 2086.49 L995.82 2086.49 L995.82 2050.73 L1024.90 2050.73 L1024.90 2022.01 L1053.98 2022.01 L1053.98 2014.84 L1083.06 2014.84 L1083.06 2007.66 L1112.14 2007.66 L1112.14 1964.59 L1141.22 1964.59 L1141.22 1943.06 L1170.30 1943.06 L1170.30 1921.53 L1199.38 1921.53 L1199.38 1914.35 L1228.47 1914.35 L1228.47 1885.64 L1257.55 1885.64 L1257.55 1871.28 L1286.51 1871.28 L1286.51 1864.10 L1315.59 1864.10 L1315.59 1828.22 L1344.67 1828.22 L1344.67 1821.04 L1373.75 1821.04 L1373.75 1806.81 L1402.83 1806.81 L1402.83 1792.45 L1431.91 1792.45 L1431.91 1756.56 L1460.99 1756.56 L1460.99 1713.50 L1490.07 1713.50 L1490.07 1691.96 L1519.15 1691.96 L1519.15 1684.79 L1548.24 1684.79 L1548.24 1670.43 L1577.32 1670.43 L1577.32 1620.19 L1606.40 1620.19 L1606.40 1605.83 L1635.48 1605.83 L1635.48 1534.18 L1664.44 1534.18 L1664.44 1498.29 L1693.52 1498.29 L1693.52 1462.40 L1722.60 1462.40 L1722.60 1448.04 L1751.68 1448.04 L1751.68 1426.51 L1780.76 1426.51 L1780.76 1390.62 L1809.84 1390.62 L1809.84 1376.27 L1838.92 1376.27 L1838.92 1354.73 L1868.01 1354.73 L1868.01 1326.02 L1897.09 1326.02 L1897.09 1326.02 L1926.17 1326.02 L1926.17 1282.96 L1955.25 1282.96 L1955.25 1275.78 L1984.33 1275.78 L1984.33 1275.78 L2013.29 1275.78 L2013.29 1225.53 L2042.37 1225.53 L2042.37 1189.65 L2071.45 1189.65 L2071.45 1168.11 L2100.53 1168.11 L2100.53 1139.40 L2129.61 1139.40 L2129.61 1125.05 L2158.70 1125.05 L2158.70 1074.80 L2187.78 1074.80 L2187.78 1053.27 L2216.86 1053.27 L2216.86 1038.91 L2245.94 1038.91 L2245.94 1031.74 L2275.02 1031.74 L2275.02 1003.03 L2304.10 1003.03 L2304.10 988.67 L2333.18 988.67 L2333.18 981.49 L2362.26 981.49 L2362.26 967.14 L2391.22 967.14 L2391.22 945.60 L2449.38 945.60 L2449.38 945.60 L2478.47 945.60 L2478.47 931.25 L2507.55 931.25 L2507.55 916.89 L2536.63 916.89 L2536.63 881.00 L2565.71 881.00 L2565.71 866.65 L2594.79 866.65 L2594.79 852.29 L2623.87 852.29 L2623.87 816.40 L2652.95 816.40 L2652.95 787.69 L2682.03 787.69 L2682.03 787.69 L2711.11 787.69 L2711.11 758.98 L2740.20 758.98 L2740.20 744.63 L2769.15 744.63 L2769.15 715.79 L2798.24 715.79 L2798.24 694.26" stroke-linejoin="round" style="fill:none;stroke:#55752F;stroke-width:8.64"/>
	<line x1="816.25" y1="2235.86" x2="816.25" y2="630.90" style="stroke:#000000;stroke-width:5.76"/>
	<line x1="816.25" y1="2172.62" x2="776.28" y2="2172.62" style="stroke:#000000;stroke-width:5.76"/>
	<text x="756.24" y="2200.63" style="font-family:'Helvetica';font-size:79.94px;fill:#000000" text-anchor="end">0.0000</text>
	<line x1="816.25" y1="1810.02" x2="776.28" y2="1810.02" style="stroke:#000000;stroke-width:5.76"/>
	<text x="756.24" y="1838.04" style="font-family:'Helvetica';font-size:79.94px;fill:#000000" text-anchor="end">0.0005</text>
	<line x1="816.25" y1="1447.43" x2="776.28" y2="1447.43" style="stroke:#000000;stroke-width:5.76"/>
	<text x="756.24" y="1475.44" style="font-family:'Helvetica';font-size:79.94px;fill:#000000" text-anchor="end">0.0010</text>
	<text x="879.62" y="2747.83" style="font-family:'Helvetica';font-size:60.02px;fill:#000000" text-anchor="middle">101077</text>
	<text x="1460.99" y="2747.83" style="font-family:'Helvetica';font-size:60.02px;fill:#000000" text-anchor="middle">101018</text>
	<text x="2042.49" y="2747.83" style="font-family:'Helvetica';font-size:60.02px;fill:#000000" text-anchor="middle">100898</text>
	<text x="2623.87" y="2747.83" style="font-family:'Helvetica';font-size:60.02px;fill:#000000" text-anchor="middle">100796</text>
	<text x="3205.37" y="2747.83" style="font-family:'Helvetica';font-size:60.02px;fill:#000000" text-anchor="middle">0</text>
	<text x="3786.75" y="2747.83" style="font-family:'Helvetica';font-size:60.02px;fill:#000000" text-anchor="middle">0</text>
	<text x="734.21" y="2747.83" style="font-family:'Helvetica';font-size:60.02px;fill:#000000" text-anchor="end">ICS (High Dose)</text>
	<text x="879.62" y="2674.44" style="font-family:'Helvetica';font-size:60.02px;fill:#000000" text-anchor="middle">608972</text>
	<text x="1460.99" y="2674.44" style="font-family:'Helvetica';font-size:60.02px;fill:#000000" text-anchor="middle">608718</text>
	<text x="2042.49" y="2674.44" style="font-family:'Helvetica';font-size:60.02px;fill:#000000" text-anchor="middle">608249</text>
	<text x="2623.87" y="2674.44" style="font-family:'Helvetica';font-size:60.02px;fill:#000000" text-anchor="middle">607783</text>
	<text x="3205.37" y="2674.44" style="font-family:'Helvetica';font-size:60.02px;fill:#000000" text-anchor="middle">0</text>
	<text x="3786.75" y="2674.44" style="font-family:'Helvetica';font-size:60.02px;fill:#000000" text-anchor="middle">0</text>
	<text x="734.21" y="2674.44" style="font-family:'Helvetica';font-size:60.02px;fill:#000000" text-anchor="end">ICS (Low/Medium Dose)</text>
	<text x="879.62" y="2601.18" style="font-family:'Helvetica';font-size:60.02px;fill:#000000" text-anchor="middle">108441</text>
	<text x="1460.99" y="2601.18" style="font-family:'Helvetica';font-size:60.02px;fill:#000000" text-anchor="middle">108388</text>
	<text x="2042.49" y="2601.18" style="font-family:'Helvetica';font-size:60.02px;fill:#000000" text-anchor="middle">108309</text>
	<text x="2623.87" y="2601.18" style="font-family:'Helvetica';font-size:60.02px;fill:#000000" text-anchor="middle">108246</text>
	<text x="3205.37" y="2601.18" style="font-family:'Helvetica';font-size:60.02px;fill:#000000" text-anchor="middle">0</text>
	<text x="3786.75" y="2601.18" style="font-family:'Helvetica';font-size:60.02px;fill:#000000" text-anchor="middle">0</text>
	<text x="734.21" y="2601.18" style="font-family:'Helvetica';font-size:60.02px;fill:#000000" text-anchor="end">SABA only</text>
	<text x="734.21" y="2527.80" style="font-family:'Helvetica';font-size:60.02px;fill:#000000" text-anchor="end">Number at risk</text>
	<line x1="816.25" y1="2235.86" x2="3850.11" y2="2235.86" style="stroke:#000000;stroke-width:5.76"/>
	<line x1="879.62" y1="2235.86" x2="879.62" y2="2275.96" style="stroke:#000000;stroke-width:5.76"/>
	<text x="879.62" y="2351.78" style="font-family:'Helvetica';font-size:79.94px;fill:#000000" text-anchor="middle">0</text>
	<line x1="1460.99" y1="2235.86" x2="1460.99" y2="2275.96" style="stroke:#000000;stroke-width:5.76"/>
	<text x="1460.99" y="2351.78" style="font-family:'Helvetica';font-size:79.94px;fill:#000000" text-anchor="middle">20</text>
	<line x1="2042.49" y1="2235.86" x2="2042.49" y2="2275.96" style="stroke:#000000;stroke-width:5.76"/>
	<text x="2042.49" y="2351.78" style="font-family:'Helvetica';font-size:79.94px;fill:#000000" text-anchor="middle">40</text>
	<line x1="2623.87" y1="2235.86" x2="2623.87" y2="2275.96" style="stroke:#000000;stroke-width:5.76"/>
	<text x="2623.87" y="2351.78" style="font-family:'Helvetica';font-size:79.94px;fill:#000000" text-anchor="middle">60</text>
	<line x1="3205.37" y1="2235.86" x2="3205.37" y2="2275.96" style="stroke:#000000;stroke-width:5.76"/>
	<text x="3205.37" y="2351.78" style="font-family:'Helvetica';font-size:79.94px;fill:#000000" text-anchor="middle">80</text>
	<line x1="3786.75" y1="2235.86" x2="3786.75" y2="2275.96" style="stroke:#000000;stroke-width:5.76"/>
	<text x="3786.75" y="2351.78" style="font-family:'Helvetica';font-size:79.94px;fill:#000000" text-anchor="middle">100</text>
	<text x="2333.18" y="2441.87" style="font-family:'Helvetica';font-size:79.94px;fill:#000000" text-anchor="middle">Days since 1 Mar 2020</text>
	<rect x="1281.68" y="269.91" width="2103.13" height="326.46" style="fill:#FFFFFF"/>
	<rect x="1284.56" y="272.79" width="2097.37" height="320.70" style="fill:none;stroke:#EAF2F3;stroke-width:5.76"/>
	<line x1="1324.87" y1="363.09" x2="1699.21" y2="363.09" style="stroke:#1A476F;stroke-width:8.64"/>
	<line x1="2287.64" y1="363.09" x2="2662.11" y2="363.09" style="stroke:#90353B;stroke-width:8.64"/>
	<line x1="1324.87" y1="503.06" x2="1699.21" y2="503.06" style="stroke:#55752F;stroke-width:8.64"/>
	<text x="1759.23" y="384.13" style="font-family:'Helvetica';font-size:60.02px;fill:#000000">SABA only</text>
	<text x="2722.13" y="384.13" style="font-family:'Helvetica';font-size:60.02px;fill:#000000">ICS (Low/Medium Dose)</text>
	<text x="1759.23" y="524.10" style="font-family:'Helvetica';font-size:60.02px;fill:#000000">ICS (High Dose)</text>
	<text x="1188.49" y="187.99" style="font-family:'Helvetica';font-size:99.99px;fill:#1E2D53">Time to Non-COVID Death in ONS, Asthma population</text>
</svg>
