<?xml version="1.0" encoding="UTF-8" standalone="no"?>
<!-- This is a Stata 16.1 generated SVG file (http://www.stata.com) -->

<svg version="1.1" width="5.50in" height="4.00in" viewBox="0 0 3960 2880" xmlns="http://www.w3.org/2000/svg" xmlns:xlink="http://www.w3.org/1999/xlink">
	<desc>Stata Graph - Graph</desc>
	<rect x="0" y="0" width="3960" height="2880" style="fill:#EAF2F3;stroke:none"/>
	<rect x="0.00" y="0.00" width="3959.88" height="2880.00" style="fill:#FFFFFF"/>
	<rect x="2.88" y="2.88" width="3954.12" height="2874.24" style="fill:none;stroke:#EAF2F3;stroke-width:5.76"/>
	<rect x="875.78" y="630.90" width="2965.05" height="1604.96" style="fill:#FFFFFF"/>
	<rect x="878.66" y="633.78" width="2959.29" height="1599.20" style="fill:none;stroke:#FFFFFF;stroke-width:5.76"/>
	<line x1="875.78" y1="2172.62" x2="3840.83" y2="2172.62" style="stroke:#EAF2F3;stroke-width:8.64"/>
	<path d=" M939.14 2172.62 L939.14 2172.62 L939.14 2172.62 L939.14 2172.62 L939.14 2172.62 L967.48 2172.62 L967.48 2172.50 L995.94 2172.50 L995.94 2172.38 L1024.28 2172.38 L1024.28 2172.13 L1052.62 2172.13 L1052.62 2171.51 L1081.08 2171.51 L1081.08 2171.39 L1109.42 2171.39 L1109.42 2171.26 L1137.76 2171.26 L1137.76 2171.14 L1194.56 2171.14 L1194.56 2170.77 L1222.90 2170.77 L1222.90 2170.52 L1251.36 2170.52 L1251.36 2170.40 L1279.70 2170.40 L1279.70 2170.15 L1308.04 2170.15 L1308.04 2170.02 L1336.50 2170.02 L1336.50 2169.78 L1364.84 2169.78 L1364.84 2169.53 L1393.18 2169.53 L1393.18 2169.41 L1421.64 2169.41 L1421.64 2169.16 L1449.98 2169.16 L1449.98 2169.16 L1478.44 2169.16 L1478.44 2169.03 L1506.78 2169.03 L1506.78 2168.79 L1535.12 2168.79 L1535.12 2168.66 L1563.58 2168.66 L1563.58 2168.42 L1591.92 2168.42 L1591.92 2168.42 L1620.26 2168.42 L1620.26 2168.29 L1648.72 2168.29 L1648.72 2168.17 L1677.06 2168.17 L1677.06 2168.04 L1705.40 2168.04 L1705.40 2167.67 L1733.86 2167.67 L1733.86 2167.55 L1762.20 2167.55 L1762.20 2167.43 L1790.54 2167.43 L1790.54 2167.05 L1819.00 2167.05 L1819.00 2166.81 L1847.34 2166.81 L1847.34 2166.68 L1875.80 2166.68 L1875.80 2166.44 L1904.14 2166.44 L1904.14 2166.19 L1932.48 2166.19 L1932.48 2166.06 L1960.94 2166.06 L1960.94 2165.57 L1989.28 2165.57 L1989.28 2165.45 L2017.62 2165.45 L2017.62 2165.32 L2046.08 2165.32 L2046.08 2165.32 L2074.42 2165.32 L2074.42 2165.20 L2102.76 2165.20 L2102.76 2164.95 L2131.22 2164.95 L2131.22 2164.83 L2187.90 2164.83 L2187.90 2164.58 L2216.36 2164.58 L2216.36 2164.46 L2244.70 2164.46 L2244.70 2164.21 L2273.04 2164.21 L2273.04 2164.21 L2301.50 2164.21 L2301.50 2164.08 L2329.84 2164.08 L2329.84 2163.96 L2358.30 2163.96 L2358.30 2163.84 L2386.64 2163.84 L2386.64 2163.71 L2414.98 2163.71 L2414.98 2163.47 L2443.44 2163.47 L2443.44 2163.34 L2471.78 2163.34 L2471.78 2163.09 L2500.12 2163.09 L2500.12 2162.97 L2528.58 2162.97 L2528.58 2162.72 L2556.92 2162.72 L2556.92 2162.35 L2613.72 2162.35 L2613.72 2162.35 L2642.06 2162.35 L2642.06 2162.23 L2670.40 2162.23 L2670.40 2162.10 L2698.86 2162.10 L2698.86 2161.73 L2727.20 2161.73 L2727.20 2161.61 L2755.54 2161.61 L2755.54 2161.49 L2812.34 2161.49 L2812.34 2161.11" stroke-linejoin="round" style="fill:none;stroke:#1A476F;stroke-width:8.64"/>
	<path d=" M939.14 2172.62 L939.14 2172.62 L939.14 2172.62 L939.14 2172.62 L939.14 2172.62 L967.48 2172.62 L967.48 2172.50 L995.94 2172.50 L995.94 2172.38 L1024.28 2172.38 L1024.28 2172.13 L1052.62 2172.13 L1052.62 2172.13 L1081.08 2172.13 L1081.08 2171.88 L1109.42 2171.88 L1109.42 2171.76 L1137.76 2171.76 L1137.76 2171.63 L1166.22 2171.63 L1166.22 2171.39 L1194.56 2171.39 L1194.56 2171.26 L1222.90 2171.26 L1222.90 2171.14 L1251.36 2171.14 L1251.36 2171.01 L1279.70 2171.01 L1279.70 2170.77 L1308.04 2170.77 L1308.04 2170.64 L1336.50 2170.64 L1336.50 2170.52 L1364.84 2170.52 L1364.84 2170.40 L1393.18 2170.40 L1393.18 2170.15 L1421.64 2170.15 L1421.64 2169.78 L1449.98 2169.78 L1449.98 2169.65 L1478.44 2169.65 L1478.44 2169.53 L1506.78 2169.53 L1506.78 2169.41 L1535.12 2169.41 L1535.12 2169.28 L1563.58 2169.28 L1563.58 2169.16 L1591.92 2169.16 L1591.92 2168.91 L1620.26 2168.91 L1620.26 2168.79 L1648.72 2168.79 L1648.72 2168.66 L1677.06 2168.66 L1677.06 2168.42 L1705.40 2168.42 L1705.40 2168.29 L1733.86 2168.29 L1733.86 2168.17 L1762.20 2168.17 L1762.20 2167.92 L1790.54 2167.92 L1790.54 2167.67 L1819.00 2167.67 L1819.00 2167.43 L1847.34 2167.43 L1847.34 2167.18 L1875.80 2167.18 L1875.80 2166.93 L1904.14 2166.93 L1904.14 2166.68 L1932.48 2166.68 L1932.48 2166.56 L1960.94 2166.56 L1960.94 2166.31 L1989.28 2166.31 L1989.28 2166.19 L2017.62 2166.19 L2017.62 2165.94 L2046.08 2165.94 L2046.08 2165.82 L2074.42 2165.82 L2074.42 2165.57 L2102.76 2165.57 L2102.76 2165.45 L2131.22 2165.45 L2131.22 2165.07 L2159.56 2165.07 L2159.56 2164.95 L2187.90 2164.95 L2187.90 2164.83 L2216.36 2164.83 L2216.36 2164.58 L2244.70 2164.58 L2244.70 2164.33 L2273.04 2164.33 L2273.04 2164.21 L2301.50 2164.21 L2301.50 2163.96 L2329.84 2163.96 L2329.84 2163.84 L2358.30 2163.84 L2358.30 2163.71 L2386.64 2163.71 L2386.64 2163.47 L2414.98 2163.47 L2414.98 2163.22 L2443.44 2163.22 L2443.44 2163.09 L2471.78 2163.09 L2471.78 2162.97 L2500.12 2162.97 L2500.12 2162.85 L2528.58 2162.85 L2528.58 2162.60 L2556.92 2162.60 L2556.92 2162.48 L2585.26 2162.48 L2585.26 2162.48 L2613.72 2162.48 L2613.72 2162.35 L2642.06 2162.35 L2642.06 2162.10 L2670.40 2162.10 L2670.40 2162.10 L2698.86 2162.10 L2698.86 2161.86 L2727.20 2161.86 L2727.20 2161.73 L2755.54 2161.73 L2755.54 2161.49 L2784.00 2161.49 L2784.00 2161.36 L2812.34 2161.36 L2812.34 2161.24" stroke-linejoin="round" style="fill:none;stroke:#90353B;stroke-width:8.64"/>
	<path d=" M939.14 2172.62 L939.14 2172.62 L939.14 2172.62 L939.14 2172.62 L939.14 2172.62 L967.48 2172.62 L967.48 2172.38 L995.94 2172.38 L995.94 2171.88 L1024.28 2171.88 L1024.28 2171.76 L1052.62 2171.76 L1052.62 2171.39 L1081.08 2171.39 L1081.08 2171.14 L1109.42 2171.14 L1109.42 2171.01 L1137.76 2171.01 L1137.76 2170.89 L1166.22 2170.89 L1166.22 2170.52 L1194.56 2170.52 L1194.56 2170.27 L1222.90 2170.27 L1222.90 2170.02 L1251.36 2170.02 L1251.36 2170.02 L1279.70 2170.02 L1279.70 2169.65 L1308.04 2169.65 L1308.04 2169.53 L1336.50 2169.53 L1336.50 2169.53 L1364.84 2169.53 L1364.84 2169.16 L1393.18 2169.16 L1393.18 2169.03 L1421.64 2169.03 L1421.64 2168.91 L1449.98 2168.91 L1449.98 2168.79 L1478.44 2168.79 L1478.44 2168.42 L1506.78 2168.42 L1506.78 2167.92 L1535.12 2167.92 L1535.12 2167.67 L1563.58 2167.67 L1563.58 2167.67 L1591.92 2167.67 L1591.92 2167.55 L1620.26 2167.55 L1620.26 2167.05 L1648.72 2167.05 L1648.72 2166.81 L1677.06 2166.81 L1677.06 2166.06 L1705.40 2166.06 L1705.40 2165.69 L1733.86 2165.69 L1733.86 2165.45 L1762.20 2165.45 L1762.20 2165.20 L1790.54 2165.20 L1790.54 2165.07 L1819.00 2165.07 L1819.00 2164.70 L1847.34 2164.70 L1847.34 2164.46 L1875.80 2164.46 L1875.80 2164.33 L1904.14 2164.33 L1904.14 2163.96 L1932.48 2163.96 L1932.48 2163.96 L1960.94 2163.96 L1960.94 2163.59 L1989.28 2163.59 L1989.28 2163.47 L2017.62 2163.47 L2017.62 2163.47 L2046.08 2163.47 L2046.08 2162.97 L2074.42 2162.97 L2074.42 2162.60 L2102.76 2162.60 L2102.76 2162.35 L2131.22 2162.35 L2131.22 2162.10 L2159.56 2162.10 L2159.56 2161.98 L2187.90 2161.98 L2187.90 2161.49 L2216.36 2161.49 L2216.36 2161.24 L2244.70 2161.24 L2244.70 2161.11 L2273.04 2161.11 L2273.04 2160.99 L2301.50 2160.99 L2301.50 2160.74 L2329.84 2160.74 L2329.84 2160.50 L2358.30 2160.50 L2358.30 2160.50 L2386.64 2160.50 L2386.64 2160.37 L2414.98 2160.37 L2414.98 2160.12 L2471.78 2160.12 L2471.78 2160.12 L2500.12 2160.12 L2500.12 2160.00 L2528.58 2160.00 L2528.58 2159.88 L2556.92 2159.88 L2556.92 2159.50 L2585.26 2159.50 L2585.26 2159.26 L2613.72 2159.26 L2613.72 2159.13 L2642.06 2159.13 L2642.06 2158.76 L2670.40 2158.76 L2670.40 2158.51 L2698.86 2158.51 L2698.86 2158.51 L2727.20 2158.51 L2727.20 2158.27 L2755.54 2158.27 L2755.54 2158.02 L2784.00 2158.02 L2784.00 2157.77 L2812.34 2157.77 L2812.34 2157.52" stroke-linejoin="round" style="fill:none;stroke:#55752F;stroke-width:8.64"/>
	<line x1="875.78" y1="2235.86" x2="875.78" y2="630.90" style="stroke:#000000;stroke-width:5.76"/>
	<line x1="875.78" y1="2172.62" x2="835.81" y2="2172.62" style="stroke:#000000;stroke-width:5.76"/>
	<text x="815.88" y="2200.63" style="font-family:'Helvetica';font-size:79.94px;fill:#000000" text-anchor="end">0.000</text>
	<text x="939.14" y="2747.83" style="font-family:'Helvetica';font-size:60.02px;fill:#000000" text-anchor="middle">101077</text>
	<text x="1506.78" y="2747.83" style="font-family:'Helvetica';font-size:60.02px;fill:#000000" text-anchor="middle">101018</text>
	<text x="2074.42" y="2747.83" style="font-family:'Helvetica';font-size:60.02px;fill:#000000" text-anchor="middle">100898</text>
	<text x="2642.19" y="2747.83" style="font-family:'Helvetica';font-size:60.02px;fill:#000000" text-anchor="middle">100796</text>
	<text x="3209.83" y="2747.83" style="font-family:'Helvetica';font-size:60.02px;fill:#000000" text-anchor="middle">0</text>
	<text x="3777.47" y="2747.83" style="font-family:'Helvetica';font-size:60.02px;fill:#000000" text-anchor="middle">0</text>
	<text x="797.32" y="2747.83" style="font-family:'Helvetica';font-size:60.02px;fill:#000000" text-anchor="end">ICS (High Dose)</text>
	<text x="939.14" y="2674.44" style="font-family:'Helvetica';font-size:60.02px;fill:#000000" text-anchor="middle">608972</text>
	<text x="1506.78" y="2674.44" style="font-family:'Helvetica';font-size:60.02px;fill:#000000" text-anchor="middle">608718</text>
	<text x="2074.42" y="2674.44" style="font-family:'Helvetica';font-size:60.02px;fill:#000000" text-anchor="middle">608249</text>
	<text x="2642.19" y="2674.44" style="font-family:'Helvetica';font-size:60.02px;fill:#000000" text-anchor="middle">607783</text>
	<text x="3209.83" y="2674.44" style="font-family:'Helvetica';font-size:60.02px;fill:#000000" text-anchor="middle">0</text>
	<text x="3777.47" y="2674.44" style="font-family:'Helvetica';font-size:60.02px;fill:#000000" text-anchor="middle">0</text>
	<text x="797.32" y="2674.44" style="font-family:'Helvetica';font-size:60.02px;fill:#000000" text-anchor="end">ICS (Low/Medium Dose)</text>
	<text x="939.14" y="2601.18" style="font-family:'Helvetica';font-size:60.02px;fill:#000000" text-anchor="middle">108441</text>
	<text x="1506.78" y="2601.18" style="font-family:'Helvetica';font-size:60.02px;fill:#000000" text-anchor="middle">108388</text>
	<text x="2074.42" y="2601.18" style="font-family:'Helvetica';font-size:60.02px;fill:#000000" text-anchor="middle">108309</text>
	<text x="2642.19" y="2601.18" style="font-family:'Helvetica';font-size:60.02px;fill:#000000" text-anchor="middle">108246</text>
	<text x="3209.83" y="2601.18" style="font-family:'Helvetica';font-size:60.02px;fill:#000000" text-anchor="middle">0</text>
	<text x="3777.47" y="2601.18" style="font-family:'Helvetica';font-size:60.02px;fill:#000000" text-anchor="middle">0</text>
	<text x="797.32" y="2601.18" style="font-family:'Helvetica';font-size:60.02px;fill:#000000" text-anchor="end">SABA only</text>
	<text x="797.32" y="2527.80" style="font-family:'Helvetica';font-size:60.02px;fill:#000000" text-anchor="end">Number at risk</text>
	<line x1="875.78" y1="2235.86" x2="3840.83" y2="2235.86" style="stroke:#000000;stroke-width:5.76"/>
	<line x1="939.14" y1="2235.86" x2="939.14" y2="2275.96" style="stroke:#000000;stroke-width:5.76"/>
	<text x="939.14" y="2351.78" style="font-family:'Helvetica';font-size:79.94px;fill:#000000" text-anchor="middle">0</text>
	<line x1="1506.78" y1="2235.86" x2="1506.78" y2="2275.96" style="stroke:#000000;stroke-width:5.76"/>
	<text x="1506.78" y="2351.78" style="font-family:'Helvetica';font-size:79.94px;fill:#000000" text-anchor="middle">20</text>
	<line x1="2074.42" y1="2235.86" x2="2074.42" y2="2275.96" style="stroke:#000000;stroke-width:5.76"/>
	<text x="2074.42" y="2351.78" style="font-family:'Helvetica';font-size:79.94px;fill:#000000" text-anchor="middle">40</text>
	<line x1="2642.19" y1="2235.86" x2="2642.19" y2="2275.96" style="stroke:#000000;stroke-width:5.76"/>
	<text x="2642.19" y="2351.78" style="font-family:'Helvetica';font-size:79.94px;fill:#000000" text-anchor="middle">60</text>
	<line x1="3209.83" y1="2235.86" x2="3209.83" y2="2275.96" style="stroke:#000000;stroke-width:5.76"/>
	<text x="3209.83" y="2351.78" style="font-family:'Helvetica';font-size:79.94px;fill:#000000" text-anchor="middle">80</text>
	<line x1="3777.47" y1="2235.86" x2="3777.47" y2="2275.96" style="stroke:#000000;stroke-width:5.76"/>
	<text x="3777.47" y="2351.78" style="font-family:'Helvetica';font-size:79.94px;fill:#000000" text-anchor="middle">100</text>
	<text x="2358.30" y="2441.87" style="font-family:'Helvetica';font-size:79.94px;fill:#000000" text-anchor="middle">Days since 1 Mar 2020</text>
	<rect x="1244.68" y="269.91" width="2227.25" height="326.46" style="fill:#FFFFFF"/>
	<rect x="1247.56" y="272.79" width="2221.49" height="320.70" style="fill:none;stroke:#EAF2F3;stroke-width:5.76"/>
	<line x1="1287.87" y1="363.09" x2="1662.21" y2="363.09" style="stroke:#1A476F;stroke-width:8.64"/>
	<line x1="2315.49" y1="363.09" x2="2689.83" y2="363.09" style="stroke:#90353B;stroke-width:8.64"/>
	<line x1="1287.87" y1="503.06" x2="1662.21" y2="503.06" style="stroke:#55752F;stroke-width:8.64"/>
	<text x="1722.23" y="384.13" style="font-family:'Helvetica';font-size:60.02px;fill:#000000">SABA only</text>
	<text x="2749.85" y="384.13" style="font-family:'Helvetica';font-size:60.02px;fill:#000000">ICS (Low/Medium Dose)</text>
	<text x="1722.23" y="524.10" style="font-family:'Helvetica';font-size:60.02px;fill:#000000">ICS (High Dose)</text>
	<text x="1102.74" y="187.99" style="font-family:'Helvetica';font-size:99.99px;fill:#1E2D53">Time to Non-COVID Death in ONS, Asthma population</text>
</svg>
