<?xml version="1.0" encoding="UTF-8" standalone="no"?>
<!-- This is a Stata 16.1 generated SVG file (http://www.stata.com) -->

<svg version="1.1" width="5.50in" height="4.00in" viewBox="0 0 3960 2880" xmlns="http://www.w3.org/2000/svg" xmlns:xlink="http://www.w3.org/1999/xlink">
	<desc>Stata Graph - Graph</desc>
	<rect x="0" y="0" width="3960" height="2880" style="fill:#EAF2F3;stroke:none"/>
	<rect x="0.00" y="0.00" width="3959.88" height="2880.00" style="fill:#FFFFFF"/>
	<rect x="2.88" y="2.88" width="3954.12" height="2874.24" style="fill:none;stroke:#EAF2F3;stroke-width:5.76"/>
	<rect x="875.78" y="630.90" width="2965.05" height="1604.96" style="fill:#FFFFFF"/>
	<rect x="878.66" y="633.78" width="2959.29" height="1599.20" style="fill:none;stroke:#FFFFFF;stroke-width:5.76"/>
	<line x1="875.78" y1="2172.62" x2="3840.83" y2="2172.62" style="stroke:#EAF2F3;stroke-width:8.64"/>
	<line x1="875.78" y1="1455.59" x2="3840.83" y2="1455.59" style="stroke:#EAF2F3;stroke-width:8.64"/>
	<line x1="875.78" y1="738.69" x2="3840.83" y2="738.69" style="stroke:#EAF2F3;stroke-width:8.64"/>
	<path d=" M939.14 2172.62 L939.14 2172.62 L939.14 2172.62 L939.14 2172.62 L939.14 2172.62 L967.48 2172.62 L967.48 2172.62 L995.94 2172.62 L995.94 2172.62 L1024.28 2172.62 L1024.28 2172.62 L1052.62 2172.62 L1052.62 2172.62 L1081.08 2172.62 L1081.08 2172.62 L1109.42 2172.62 L1109.42 2172.62 L1137.76 2172.62 L1137.76 2172.62 L1194.56 2172.62 L1194.56 2172.62 L1222.90 2172.62 L1222.90 2172.62 L1251.36 2172.62 L1251.36 2172.62 L1279.70 2172.62 L1279.70 2172.62 L1308.04 2172.62 L1308.04 2172.62 L1336.50 2172.62 L1336.50 2172.62 L1364.84 2172.62 L1364.84 2172.62 L1393.18 2172.62 L1393.18 2172.62 L1421.64 2172.62 L1421.64 2172.62 L1449.98 2172.62 L1449.98 2159.38 L1478.44 2159.38 L1478.44 2159.38 L1506.78 2159.38 L1506.78 2159.38 L1535.12 2159.38 L1535.12 2159.38 L1563.58 2159.38 L1563.58 2146.14 L1591.92 2146.14 L1591.92 2119.66 L1620.26 2119.66 L1620.26 2119.66 L1648.72 2119.66 L1648.72 2119.66 L1677.06 2119.66 L1677.06 2106.41 L1705.40 2106.41 L1705.40 2093.17 L1733.86 2093.17 L1733.86 2093.17 L1762.20 2093.17 L1762.20 2093.17 L1790.54 2093.17 L1790.54 2053.45 L1819.00 2053.45 L1819.00 2053.45 L1847.34 2053.45 L1847.34 2053.45 L1875.80 2053.45 L1875.80 2013.72 L1904.14 2013.72 L1904.14 2000.48 L1932.48 2000.48 L1932.48 1960.76 L1960.94 1960.76 L1960.94 1934.27 L1989.28 1934.27 L1989.28 1907.79 L2017.62 1907.79 L2017.62 1881.31 L2046.08 1881.31 L2046.08 1868.06 L2074.42 1868.06 L2074.42 1841.58 L2102.76 1841.58 L2102.76 1828.34 L2131.22 1828.34 L2131.22 1815.10 L2187.90 1815.10 L2187.90 1815.10 L2216.36 1815.10 L2216.36 1801.86 L2244.70 1801.86 L2244.70 1762.13 L2273.04 1762.13 L2273.04 1735.65 L2301.50 1735.65 L2301.50 1735.65 L2329.84 1735.65 L2329.84 1722.41 L2358.30 1722.41 L2358.30 1722.41 L2386.64 1722.41 L2386.64 1695.92 L2414.98 1695.92 L2414.98 1695.92 L2443.44 1695.92 L2443.44 1669.44 L2471.78 1669.44 L2471.78 1656.20 L2500.12 1656.20 L2500.12 1616.47 L2528.58 1616.47 L2528.58 1603.23 L2556.92 1603.23 L2556.92 1603.23 L2613.72 1603.23 L2613.72 1589.99 L2642.06 1589.99 L2642.06 1589.99 L2670.40 1589.99 L2670.40 1563.38 L2698.86 1563.38 L2698.86 1550.14 L2727.20 1550.14 L2727.20 1536.90 L2755.54 1536.90 L2755.54 1523.66 L2812.34 1523.66 L2812.34 1523.66" stroke-linejoin="round" style="fill:none;stroke:#1A476F;stroke-width:8.64"/>
	<path d=" M939.14 2172.62 L939.14 2172.62 L939.14 2172.62 L939.14 2172.62 L939.14 2172.62 L967.48 2172.62 L967.48 2172.62 L995.94 2172.62 L995.94 2172.62 L1024.28 2172.62 L1024.28 2172.62 L1052.62 2172.62 L1052.62 2172.62 L1081.08 2172.62 L1081.08 2172.62 L1109.42 2172.62 L1109.42 2172.62 L1137.76 2172.62 L1137.76 2172.62 L1166.22 2172.62 L1166.22 2172.62 L1194.56 2172.62 L1194.56 2172.62 L1222.90 2172.62 L1222.90 2172.62 L1251.36 2172.62 L1251.36 2172.62 L1279.70 2172.62 L1279.70 2172.62 L1308.04 2172.62 L1308.04 2172.62 L1336.50 2172.62 L1336.50 2172.62 L1364.84 2172.62 L1364.84 2172.62 L1393.18 2172.62 L1393.18 2172.62 L1421.64 2172.62 L1421.64 2172.62 L1449.98 2172.62 L1449.98 2170.27 L1478.44 2170.27 L1478.44 2170.27 L1506.78 2170.27 L1506.78 2167.92 L1535.12 2167.92 L1535.12 2163.22 L1563.58 2163.22 L1563.58 2153.81 L1591.92 2153.81 L1591.92 2149.11 L1620.26 2149.11 L1620.26 2144.28 L1648.72 2144.28 L1648.72 2134.88 L1677.06 2134.88 L1677.06 2127.82 L1705.40 2127.82 L1705.40 2118.42 L1733.86 2118.42 L1733.86 2092.43 L1762.20 2092.43 L1762.20 2073.62 L1790.54 2073.62 L1790.54 2057.16 L1819.00 2057.16 L1819.00 2028.82 L1847.34 2028.82 L1847.34 2002.83 L1875.80 2002.83 L1875.80 1976.97 L1904.14 1976.97 L1904.14 1950.98 L1932.48 1950.98 L1932.48 1925.12 L1960.94 1925.12 L1960.94 1899.13 L1989.28 1899.13 L1989.28 1870.79 L2017.62 1870.79 L2017.62 1828.34 L2046.08 1828.34 L2046.08 1804.83 L2074.42 1804.83 L2074.42 1764.73 L2102.76 1764.73 L2102.76 1743.44 L2131.22 1743.44 L2131.22 1722.28 L2159.56 1722.28 L2159.56 1705.70 L2187.90 1705.70 L2187.90 1682.19 L2216.36 1682.19 L2216.36 1667.95 L2244.70 1667.95 L2244.70 1644.44 L2273.04 1644.44 L2273.04 1611.40 L2301.50 1611.40 L2301.50 1599.64 L2329.84 1599.64 L2329.84 1578.36 L2358.30 1578.36 L2358.30 1559.55 L2386.64 1559.55 L2386.64 1535.91 L2414.98 1535.91 L2414.98 1514.62 L2443.44 1514.62 L2443.44 1491.11 L2471.78 1491.11 L2471.78 1460.42 L2500.12 1460.42 L2500.12 1443.96 L2528.58 1443.96 L2528.58 1436.78 L2556.92 1436.78 L2556.92 1417.97 L2585.26 1417.97 L2585.26 1406.22 L2613.72 1406.22 L2613.72 1394.33 L2642.06 1394.33 L2642.06 1384.93 L2670.40 1384.93 L2670.40 1366.00 L2698.86 1366.00 L2698.86 1349.54 L2727.20 1349.54 L2727.20 1342.48 L2755.54 1342.48 L2755.54 1330.60 L2784.00 1330.60 L2784.00 1323.55 L2812.34 1323.55 L2812.34 1318.84" stroke-linejoin="round" style="fill:none;stroke:#90353B;stroke-width:8.64"/>
	<path d=" M939.14 2172.62 L939.14 2172.62 L939.14 2172.62 L939.14 2172.62 L939.14 2172.62 L967.48 2172.62 L967.48 2172.62 L995.94 2172.62 L995.94 2172.62 L1024.28 2172.62 L1024.28 2172.62 L1052.62 2172.62 L1052.62 2172.62 L1081.08 2172.62 L1081.08 2172.62 L1109.42 2172.62 L1109.42 2172.62 L1137.76 2172.62 L1137.76 2172.62 L1166.22 2172.62 L1166.22 2172.62 L1194.56 2172.62 L1194.56 2172.62 L1222.90 2172.62 L1222.90 2172.62 L1251.36 2172.62 L1251.36 2172.62 L1279.70 2172.62 L1279.70 2172.62 L1308.04 2172.62 L1308.04 2172.62 L1336.50 2172.62 L1336.50 2172.62 L1364.84 2172.62 L1364.84 2172.62 L1393.18 2172.62 L1393.18 2172.62 L1421.64 2172.62 L1421.64 2172.62 L1449.98 2172.62 L1449.98 2172.62 L1478.44 2172.62 L1478.44 2158.39 L1506.78 2158.39 L1506.78 2144.16 L1535.12 2144.16 L1535.12 2144.16 L1563.58 2144.16 L1563.58 2144.16 L1591.92 2144.16 L1591.92 2130.05 L1620.26 2130.05 L1620.26 2101.59 L1648.72 2101.59 L1648.72 2073.25 L1677.06 2073.25 L1677.06 2044.79 L1705.40 2044.79 L1705.40 2002.09 L1733.86 2002.09 L1733.86 1973.75 L1762.20 1973.75 L1762.20 1973.75 L1790.54 1973.75 L1790.54 1945.29 L1819.00 1945.29 L1819.00 1945.29 L1847.34 1945.29 L1847.34 1902.72 L1875.80 1902.72 L1875.80 1860.02 L1904.14 1860.02 L1904.14 1774.75 L1932.48 1774.75 L1932.48 1703.72 L1960.94 1703.72 L1960.94 1675.26 L1989.28 1675.26 L1989.28 1618.45 L2017.62 1618.45 L2017.62 1575.76 L2046.08 1575.76 L2046.08 1504.72 L2074.42 1504.72 L2074.42 1447.92 L2102.76 1447.92 L2102.76 1405.23 L2131.22 1405.23 L2131.22 1390.99 L2159.56 1390.99 L2159.56 1348.42 L2187.90 1348.42 L2187.90 1334.19 L2216.36 1334.19 L2216.36 1291.50 L2244.70 1291.50 L2244.70 1234.69 L2273.04 1234.69 L2273.04 1206.23 L2301.50 1206.23 L2301.50 1149.30 L2329.84 1149.30 L2329.84 1120.84 L2358.30 1120.84 L2358.30 1092.50 L2386.64 1092.50 L2386.64 1021.34 L2414.98 1021.34 L2414.98 992.88 L2471.78 992.88 L2471.78 950.31 L2500.12 950.31 L2500.12 936.07 L2528.58 936.07 L2528.58 907.61 L2556.92 907.61 L2556.92 879.15 L2585.26 879.15 L2585.26 850.68 L2613.72 850.68 L2613.72 793.88 L2642.06 793.88 L2642.06 779.65 L2670.40 779.65 L2670.40 765.42 L2698.86 765.42 L2698.86 736.95 L2727.20 736.95 L2727.20 736.95 L2755.54 736.95 L2755.54 736.95 L2784.00 736.95 L2784.00 708.49 L2812.34 708.49 L2812.34 694.26" stroke-linejoin="round" style="fill:none;stroke:#55752F;stroke-width:8.64"/>
	<line x1="875.78" y1="2235.86" x2="875.78" y2="630.90" style="stroke:#000000;stroke-width:5.76"/>
	<line x1="875.78" y1="2172.62" x2="835.81" y2="2172.62" style="stroke:#000000;stroke-width:5.76"/>
	<text x="815.88" y="2200.63" style="font-family:'Helvetica';font-size:79.94px;fill:#000000" text-anchor="end">0</text>
	<line x1="875.78" y1="1455.59" x2="835.81" y2="1455.59" style="stroke:#000000;stroke-width:5.76"/>
	<text x="815.88" y="1483.60" style="font-family:'Helvetica';font-size:79.94px;fill:#000000" text-anchor="end">.0005</text>
	<line x1="875.78" y1="738.69" x2="835.81" y2="738.69" style="stroke:#000000;stroke-width:5.76"/>
	<text x="815.88" y="766.70" style="font-family:'Helvetica';font-size:79.94px;fill:#000000" text-anchor="end">.001</text>
	<text x="939.14" y="2747.83" style="font-family:'Helvetica';font-size:60.02px;fill:#000000" text-anchor="middle">101010</text>
	<text x="1506.78" y="2747.83" style="font-family:'Helvetica';font-size:60.02px;fill:#000000" text-anchor="middle">100954</text>
	<text x="2074.42" y="2747.83" style="font-family:'Helvetica';font-size:60.02px;fill:#000000" text-anchor="middle">100835</text>
	<text x="2642.19" y="2747.83" style="font-family:'Helvetica';font-size:60.02px;fill:#000000" text-anchor="middle">100735</text>
	<text x="3209.83" y="2747.83" style="font-family:'Helvetica';font-size:60.02px;fill:#000000" text-anchor="middle">0</text>
	<text x="3777.47" y="2747.83" style="font-family:'Helvetica';font-size:60.02px;fill:#000000" text-anchor="middle">0</text>
	<text x="797.32" y="2747.83" style="font-family:'Helvetica';font-size:60.02px;fill:#000000" text-anchor="end">ICS (High Dose)</text>
	<text x="939.14" y="2674.44" style="font-family:'Helvetica';font-size:60.02px;fill:#000000" text-anchor="middle">608583</text>
	<text x="1506.78" y="2674.44" style="font-family:'Helvetica';font-size:60.02px;fill:#000000" text-anchor="middle">608336</text>
	<text x="2074.42" y="2674.44" style="font-family:'Helvetica';font-size:60.02px;fill:#000000" text-anchor="middle">607875</text>
	<text x="2642.19" y="2674.44" style="font-family:'Helvetica';font-size:60.02px;fill:#000000" text-anchor="middle">607422</text>
	<text x="3209.83" y="2674.44" style="font-family:'Helvetica';font-size:60.02px;fill:#000000" text-anchor="middle">0</text>
	<text x="3777.47" y="2674.44" style="font-family:'Helvetica';font-size:60.02px;fill:#000000" text-anchor="middle">0</text>
	<text x="797.32" y="2674.44" style="font-family:'Helvetica';font-size:60.02px;fill:#000000" text-anchor="end">ICS (Low/Medium Dose)</text>
	<text x="939.14" y="2601.18" style="font-family:'Helvetica';font-size:60.02px;fill:#000000" text-anchor="middle">108380</text>
	<text x="1506.78" y="2601.18" style="font-family:'Helvetica';font-size:60.02px;fill:#000000" text-anchor="middle">108330</text>
	<text x="2074.42" y="2601.18" style="font-family:'Helvetica';font-size:60.02px;fill:#000000" text-anchor="middle">108254</text>
	<text x="2642.19" y="2601.18" style="font-family:'Helvetica';font-size:60.02px;fill:#000000" text-anchor="middle">108192</text>
	<text x="3209.83" y="2601.18" style="font-family:'Helvetica';font-size:60.02px;fill:#000000" text-anchor="middle">0</text>
	<text x="3777.47" y="2601.18" style="font-family:'Helvetica';font-size:60.02px;fill:#000000" text-anchor="middle">0</text>
	<text x="797.32" y="2601.18" style="font-family:'Helvetica';font-size:60.02px;fill:#000000" text-anchor="end">SABA only</text>
	<text x="797.32" y="2527.80" style="font-family:'Helvetica';font-size:60.02px;fill:#000000" text-anchor="end">Number at risk</text>
	<line x1="875.78" y1="2235.86" x2="3840.83" y2="2235.86" style="stroke:#000000;stroke-width:5.76"/>
	<line x1="939.14" y1="2235.86" x2="939.14" y2="2275.96" style="stroke:#000000;stroke-width:5.76"/>
	<text x="939.14" y="2351.78" style="font-family:'Helvetica';font-size:79.94px;fill:#000000" text-anchor="middle">0</text>
	<line x1="1506.78" y1="2235.86" x2="1506.78" y2="2275.96" style="stroke:#000000;stroke-width:5.76"/>
	<text x="1506.78" y="2351.78" style="font-family:'Helvetica';font-size:79.94px;fill:#000000" text-anchor="middle">20</text>
	<line x1="2074.42" y1="2235.86" x2="2074.42" y2="2275.96" style="stroke:#000000;stroke-width:5.76"/>
	<text x="2074.42" y="2351.78" style="font-family:'Helvetica';font-size:79.94px;fill:#000000" text-anchor="middle">40</text>
	<line x1="2642.19" y1="2235.86" x2="2642.19" y2="2275.96" style="stroke:#000000;stroke-width:5.76"/>
	<text x="2642.19" y="2351.78" style="font-family:'Helvetica';font-size:79.94px;fill:#000000" text-anchor="middle">60</text>
	<line x1="3209.83" y1="2235.86" x2="3209.83" y2="2275.96" style="stroke:#000000;stroke-width:5.76"/>
	<text x="3209.83" y="2351.78" style="font-family:'Helvetica';font-size:79.94px;fill:#000000" text-anchor="middle">80</text>
	<line x1="3777.47" y1="2235.86" x2="3777.47" y2="2275.96" style="stroke:#000000;stroke-width:5.76"/>
	<text x="3777.47" y="2351.78" style="font-family:'Helvetica';font-size:79.94px;fill:#000000" text-anchor="middle">100</text>
	<text x="2358.30" y="2441.87" style="font-family:'Helvetica';font-size:79.94px;fill:#000000" text-anchor="middle">Days since 1 Mar 2020</text>
	<rect x="1244.68" y="269.91" width="2227.25" height="326.46" style="fill:#FFFFFF"/>
	<rect x="1247.56" y="272.79" width="2221.49" height="320.70" style="fill:none;stroke:#EAF2F3;stroke-width:5.76"/>
	<line x1="1287.87" y1="363.09" x2="1662.21" y2="363.09" style="stroke:#1A476F;stroke-width:8.64"/>
	<line x1="2315.49" y1="363.09" x2="2689.83" y2="363.09" style="stroke:#90353B;stroke-width:8.64"/>
	<line x1="1287.87" y1="503.06" x2="1662.21" y2="503.06" style="stroke:#55752F;stroke-width:8.64"/>
	<text x="1722.23" y="384.13" style="font-family:'Helvetica';font-size:60.02px;fill:#000000">SABA only</text>
	<text x="2749.85" y="384.13" style="font-family:'Helvetica';font-size:60.02px;fill:#000000">ICS (Low/Medium Dose)</text>
	<text x="1722.23" y="524.10" style="font-family:'Helvetica';font-size:60.02px;fill:#000000">ICS (High Dose)</text>
	<text x="1139.24" y="187.99" style="font-family:'Helvetica';font-size:99.99px;fill:#1E2D53">Time to COVID-19 Death in ONS, Asthma population</text>
</svg>
