<?xml version="1.0" encoding="UTF-8" standalone="no"?>
<!-- This is a Stata 16.1 generated SVG file (http://www.stata.com) -->

<svg version="1.1" width="5.50in" height="4.00in" viewBox="0 0 3960 2880" xmlns="http://www.w3.org/2000/svg" xmlns:xlink="http://www.w3.org/1999/xlink">
	<desc>Stata Graph - Graph</desc>
	<rect x="0" y="0" width="3960" height="2880" style="fill:#EAF2F3;stroke:none"/>
	<rect x="0.00" y="0.00" width="3959.88" height="2880.00" style="fill:#FFFFFF"/>
	<rect x="2.88" y="2.88" width="3954.12" height="2874.24" style="fill:none;stroke:#EAF2F3;stroke-width:5.76"/>
	<rect x="875.78" y="630.90" width="2965.05" height="1604.96" style="fill:#FFFFFF"/>
	<rect x="878.66" y="633.78" width="2959.29" height="1599.20" style="fill:none;stroke:#FFFFFF;stroke-width:5.76"/>
	<line x1="875.78" y1="2172.62" x2="3840.83" y2="2172.62" style="stroke:#EAF2F3;stroke-width:8.64"/>
	<line x1="875.78" y1="1433.44" x2="3840.83" y2="1433.44" style="stroke:#EAF2F3;stroke-width:8.64"/>
	<path d=" M939.14 2172.62 L939.14 2172.62 L939.14 2172.62 L939.14 2172.62 L939.14 2172.62 L967.48 2172.62 L967.48 2172.62 L995.94 2172.62 L995.94 2172.62 L1024.28 2172.62 L1024.28 2172.62 L1052.62 2172.62 L1052.62 2172.62 L1081.08 2172.62 L1081.08 2172.62 L1109.42 2172.62 L1109.42 2172.62 L1137.76 2172.62 L1137.76 2172.62 L1194.56 2172.62 L1194.56 2172.62 L1222.90 2172.62 L1222.90 2172.62 L1251.36 2172.62 L1251.36 2172.62 L1279.70 2172.62 L1279.70 2172.62 L1308.04 2172.62 L1308.04 2172.62 L1336.50 2172.62 L1336.50 2172.62 L1364.84 2172.62 L1364.84 2172.62 L1393.18 2172.62 L1393.18 2172.62 L1421.64 2172.62 L1421.64 2172.62 L1449.98 2172.62 L1449.98 2171.26 L1478.44 2171.26 L1478.44 2171.26 L1506.78 2171.26 L1506.78 2171.26 L1535.12 2171.26 L1535.12 2171.26 L1563.58 2171.26 L1563.58 2169.90 L1591.92 2169.90 L1591.92 2167.18 L1620.26 2167.18 L1620.26 2167.18 L1648.72 2167.18 L1648.72 2167.18 L1677.06 2167.18 L1677.06 2165.82 L1705.40 2165.82 L1705.40 2164.46 L1733.86 2164.46 L1733.86 2164.46 L1762.20 2164.46 L1762.20 2164.46 L1790.54 2164.46 L1790.54 2160.37 L1819.00 2160.37 L1819.00 2160.37 L1847.34 2160.37 L1847.34 2160.37 L1875.80 2160.37 L1875.80 2156.29 L1904.14 2156.29 L1904.14 2154.93 L1932.48 2154.93 L1932.48 2150.84 L1960.94 2150.84 L1960.94 2148.00 L1989.28 2148.00 L1989.28 2145.27 L2017.62 2145.27 L2017.62 2142.55 L2046.08 2142.55 L2046.08 2141.19 L2074.42 2141.19 L2074.42 2138.47 L2102.76 2138.47 L2102.76 2137.11 L2131.22 2137.11 L2131.22 2135.74 L2187.90 2135.74 L2187.90 2135.74 L2216.36 2135.74 L2216.36 2134.38 L2244.70 2134.38 L2244.70 2130.30 L2273.04 2130.30 L2273.04 2127.58 L2301.50 2127.58 L2301.50 2127.58 L2329.84 2127.58 L2329.84 2126.22 L2358.30 2126.22 L2358.30 2126.22 L2386.64 2126.22 L2386.64 2123.49 L2414.98 2123.49 L2414.98 2123.49 L2443.44 2123.49 L2443.44 2120.77 L2471.78 2120.77 L2471.78 2119.41 L2500.12 2119.41 L2500.12 2115.32 L2528.58 2115.32 L2528.58 2113.96 L2556.92 2113.96 L2556.92 2113.96 L2613.72 2113.96 L2613.72 2112.60 L2642.06 2112.60 L2642.06 2112.60 L2670.40 2112.60 L2670.40 2109.88 L2698.86 2109.88 L2698.86 2108.39 L2727.20 2108.39 L2727.20 2107.03 L2755.54 2107.03 L2755.54 2105.67 L2812.34 2105.67 L2812.34 2105.67" stroke-linejoin="round" style="fill:none;stroke:#1A476F;stroke-width:8.64"/>
	<path d=" M939.14 2172.62 L939.14 2172.62 L939.14 2172.62 L939.14 2172.62 L939.14 2172.62 L967.48 2172.62 L967.48 2172.62 L995.94 2172.62 L995.94 2172.62 L1024.28 2172.62 L1024.28 2172.62 L1052.62 2172.62 L1052.62 2172.62 L1081.08 2172.62 L1081.08 2172.62 L1109.42 2172.62 L1109.42 2172.62 L1137.76 2172.62 L1137.76 2172.62 L1166.22 2172.62 L1166.22 2172.62 L1194.56 2172.62 L1194.56 2172.62 L1222.90 2172.62 L1222.90 2172.62 L1251.36 2172.62 L1251.36 2172.62 L1279.70 2172.62 L1279.70 2172.62 L1308.04 2172.62 L1308.04 2172.62 L1336.50 2172.62 L1336.50 2172.62 L1364.84 2172.62 L1364.84 2172.62 L1393.18 2172.62 L1393.18 2172.62 L1421.64 2172.62 L1421.64 2172.62 L1449.98 2172.62 L1449.98 2172.38 L1478.44 2172.38 L1478.44 2172.38 L1506.78 2172.38 L1506.78 2172.13 L1535.12 2172.13 L1535.12 2171.63 L1563.58 2171.63 L1563.58 2170.64 L1591.92 2170.64 L1591.92 2170.15 L1620.26 2170.15 L1620.26 2169.65 L1648.72 2169.65 L1648.72 2168.79 L1677.06 2168.79 L1677.06 2168.04 L1705.40 2168.04 L1705.40 2167.05 L1733.86 2167.05 L1733.86 2164.33 L1762.20 2164.33 L1762.20 2162.48 L1790.54 2162.48 L1790.54 2160.74 L1819.00 2160.74 L1819.00 2157.77 L1847.34 2157.77 L1847.34 2155.17 L1875.80 2155.17 L1875.80 2152.45 L1904.14 2152.45 L1904.14 2149.73 L1932.48 2149.73 L1932.48 2147.13 L1960.94 2147.13 L1960.94 2144.41 L1989.28 2144.41 L1989.28 2141.56 L2017.62 2141.56 L2017.62 2137.11 L2046.08 2137.11 L2046.08 2134.75 L2074.42 2134.75 L2074.42 2130.55 L2102.76 2130.55 L2102.76 2128.32 L2131.22 2128.32 L2131.22 2126.22 L2159.56 2126.22 L2159.56 2124.48 L2187.90 2124.48 L2187.90 2122.01 L2216.36 2122.01 L2216.36 2120.65 L2244.70 2120.65 L2244.70 2118.17 L2273.04 2118.17 L2273.04 2114.71 L2301.50 2114.71 L2301.50 2113.59 L2329.84 2113.59 L2329.84 2111.36 L2358.30 2111.36 L2358.30 2109.38 L2386.64 2109.38 L2386.64 2107.03 L2414.98 2107.03 L2414.98 2104.81 L2443.44 2104.81 L2443.44 2102.33 L2471.78 2102.33 L2471.78 2099.24 L2500.12 2099.24 L2500.12 2097.50 L2528.58 2097.50 L2528.58 2096.76 L2556.92 2096.76 L2556.92 2094.78 L2585.26 2094.78 L2585.26 2093.54 L2613.72 2093.54 L2613.72 2092.43 L2642.06 2092.43 L2642.06 2091.44 L2670.40 2091.44 L2670.40 2089.46 L2698.86 2089.46 L2698.86 2087.73 L2727.20 2087.73 L2727.20 2086.99 L2755.54 2086.99 L2755.54 2085.87 L2784.00 2085.87 L2784.00 2085.13 L2812.34 2085.13 L2812.34 2084.63" stroke-linejoin="round" style="fill:none;stroke:#90353B;stroke-width:8.64"/>
	<path d=" M939.14 2172.62 L939.14 2172.62 L939.14 2172.62 L939.14 2172.62 L939.14 2172.62 L967.48 2172.62 L967.48 2172.62 L995.94 2172.62 L995.94 2172.62 L1024.28 2172.62 L1024.28 2172.62 L1052.62 2172.62 L1052.62 2172.62 L1081.08 2172.62 L1081.08 2172.62 L1109.42 2172.62 L1109.42 2172.62 L1137.76 2172.62 L1137.76 2172.62 L1166.22 2172.62 L1166.22 2172.62 L1194.56 2172.62 L1194.56 2172.62 L1222.90 2172.62 L1222.90 2172.62 L1251.36 2172.62 L1251.36 2172.62 L1279.70 2172.62 L1279.70 2172.62 L1308.04 2172.62 L1308.04 2172.62 L1336.50 2172.62 L1336.50 2172.62 L1364.84 2172.62 L1364.84 2172.62 L1393.18 2172.62 L1393.18 2172.62 L1421.64 2172.62 L1421.64 2172.62 L1449.98 2172.62 L1449.98 2172.62 L1478.44 2172.62 L1478.44 2171.14 L1506.78 2171.14 L1506.78 2169.65 L1535.12 2169.65 L1535.12 2169.65 L1563.58 2169.65 L1563.58 2169.65 L1591.92 2169.65 L1591.92 2168.29 L1620.26 2168.29 L1620.26 2165.32 L1648.72 2165.32 L1648.72 2162.35 L1677.06 2162.35 L1677.06 2159.38 L1705.40 2159.38 L1705.40 2155.05 L1733.86 2155.05 L1733.86 2152.08 L1762.20 2152.08 L1762.20 2152.08 L1790.54 2152.08 L1790.54 2149.23 L1819.00 2149.23 L1819.00 2149.23 L1847.34 2149.23 L1847.34 2144.78 L1875.80 2144.78 L1875.80 2140.45 L1904.14 2140.45 L1904.14 2131.66 L1932.48 2131.66 L1932.48 2124.24 L1960.94 2124.24 L1960.94 2121.39 L1989.28 2121.39 L1989.28 2115.45 L2017.62 2115.45 L2017.62 2111.12 L2046.08 2111.12 L2046.08 2103.82 L2074.42 2103.82 L2074.42 2097.88 L2102.76 2097.88 L2102.76 2093.54 L2131.22 2093.54 L2131.22 2092.06 L2159.56 2092.06 L2159.56 2087.60 L2187.90 2087.60 L2187.90 2086.24 L2216.36 2086.24 L2216.36 2081.79 L2244.70 2081.79 L2244.70 2075.97 L2273.04 2075.97 L2273.04 2073.00 L2301.50 2073.00 L2301.50 2067.18 L2329.84 2067.18 L2329.84 2064.21 L2358.30 2064.21 L2358.30 2061.24 L2386.64 2061.24 L2386.64 2053.94 L2414.98 2053.94 L2414.98 2050.97 L2471.78 2050.97 L2471.78 2046.64 L2500.12 2046.64 L2500.12 2045.16 L2528.58 2045.16 L2528.58 2042.19 L2556.92 2042.19 L2556.92 2039.22 L2585.26 2039.22 L2585.26 2036.37 L2613.72 2036.37 L2613.72 2030.43 L2642.06 2030.43 L2642.06 2029.07 L2670.40 2029.07 L2670.40 2027.58 L2698.86 2027.58 L2698.86 2024.61 L2727.20 2024.61 L2727.20 2024.61 L2755.54 2024.61 L2755.54 2024.61 L2784.00 2024.61 L2784.00 2021.64 L2812.34 2021.64 L2812.34 2020.16" stroke-linejoin="round" style="fill:none;stroke:#55752F;stroke-width:8.64"/>
	<line x1="875.78" y1="2235.86" x2="875.78" y2="630.90" style="stroke:#000000;stroke-width:5.76"/>
	<line x1="875.78" y1="2172.62" x2="835.81" y2="2172.62" style="stroke:#000000;stroke-width:5.76"/>
	<text x="815.88" y="2200.63" style="font-family:'Helvetica';font-size:79.94px;fill:#000000" text-anchor="end">0.000</text>
	<line x1="875.78" y1="1433.44" x2="835.81" y2="1433.44" style="stroke:#000000;stroke-width:5.76"/>
	<text x="815.88" y="1461.45" style="font-family:'Helvetica';font-size:79.94px;fill:#000000" text-anchor="end">0.005</text>
	<line x1="875.78" y1="694.26" x2="835.81" y2="694.26" style="stroke:#000000;stroke-width:5.76"/>
	<text x="815.88" y="722.27" style="font-family:'Helvetica';font-size:79.94px;fill:#000000" text-anchor="end">0.010</text>
	<text x="939.14" y="2747.83" style="font-family:'Helvetica';font-size:60.02px;fill:#000000" text-anchor="middle">101010</text>
	<text x="1506.78" y="2747.83" style="font-family:'Helvetica';font-size:60.02px;fill:#000000" text-anchor="middle">100954</text>
	<text x="2074.42" y="2747.83" style="font-family:'Helvetica';font-size:60.02px;fill:#000000" text-anchor="middle">100835</text>
	<text x="2642.19" y="2747.83" style="font-family:'Helvetica';font-size:60.02px;fill:#000000" text-anchor="middle">100735</text>
	<text x="3209.83" y="2747.83" style="font-family:'Helvetica';font-size:60.02px;fill:#000000" text-anchor="middle">0</text>
	<text x="3777.47" y="2747.83" style="font-family:'Helvetica';font-size:60.02px;fill:#000000" text-anchor="middle">0</text>
	<text x="797.32" y="2747.83" style="font-family:'Helvetica';font-size:60.02px;fill:#000000" text-anchor="end">ICS (High Dose)</text>
	<text x="939.14" y="2674.44" style="font-family:'Helvetica';font-size:60.02px;fill:#000000" text-anchor="middle">608583</text>
	<text x="1506.78" y="2674.44" style="font-family:'Helvetica';font-size:60.02px;fill:#000000" text-anchor="middle">608336</text>
	<text x="2074.42" y="2674.44" style="font-family:'Helvetica';font-size:60.02px;fill:#000000" text-anchor="middle">607875</text>
	<text x="2642.19" y="2674.44" style="font-family:'Helvetica';font-size:60.02px;fill:#000000" text-anchor="middle">607422</text>
	<text x="3209.83" y="2674.44" style="font-family:'Helvetica';font-size:60.02px;fill:#000000" text-anchor="middle">0</text>
	<text x="3777.47" y="2674.44" style="font-family:'Helvetica';font-size:60.02px;fill:#000000" text-anchor="middle">0</text>
	<text x="797.32" y="2674.44" style="font-family:'Helvetica';font-size:60.02px;fill:#000000" text-anchor="end">ICS (Low/Medium Dose)</text>
	<text x="939.14" y="2601.18" style="font-family:'Helvetica';font-size:60.02px;fill:#000000" text-anchor="middle">108380</text>
	<text x="1506.78" y="2601.18" style="font-family:'Helvetica';font-size:60.02px;fill:#000000" text-anchor="middle">108330</text>
	<text x="2074.42" y="2601.18" style="font-family:'Helvetica';font-size:60.02px;fill:#000000" text-anchor="middle">108254</text>
	<text x="2642.19" y="2601.18" style="font-family:'Helvetica';font-size:60.02px;fill:#000000" text-anchor="middle">108192</text>
	<text x="3209.83" y="2601.18" style="font-family:'Helvetica';font-size:60.02px;fill:#000000" text-anchor="middle">0</text>
	<text x="3777.47" y="2601.18" style="font-family:'Helvetica';font-size:60.02px;fill:#000000" text-anchor="middle">0</text>
	<text x="797.32" y="2601.18" style="font-family:'Helvetica';font-size:60.02px;fill:#000000" text-anchor="end">SABA only</text>
	<text x="797.32" y="2527.80" style="font-family:'Helvetica';font-size:60.02px;fill:#000000" text-anchor="end">Number at risk</text>
	<line x1="875.78" y1="2235.86" x2="3840.83" y2="2235.86" style="stroke:#000000;stroke-width:5.76"/>
	<line x1="939.14" y1="2235.86" x2="939.14" y2="2275.96" style="stroke:#000000;stroke-width:5.76"/>
	<text x="939.14" y="2351.78" style="font-family:'Helvetica';font-size:79.94px;fill:#000000" text-anchor="middle">0</text>
	<line x1="1506.78" y1="2235.86" x2="1506.78" y2="2275.96" style="stroke:#000000;stroke-width:5.76"/>
	<text x="1506.78" y="2351.78" style="font-family:'Helvetica';font-size:79.94px;fill:#000000" text-anchor="middle">20</text>
	<line x1="2074.42" y1="2235.86" x2="2074.42" y2="2275.96" style="stroke:#000000;stroke-width:5.76"/>
	<text x="2074.42" y="2351.78" style="font-family:'Helvetica';font-size:79.94px;fill:#000000" text-anchor="middle">40</text>
	<line x1="2642.19" y1="2235.86" x2="2642.19" y2="2275.96" style="stroke:#000000;stroke-width:5.76"/>
	<text x="2642.19" y="2351.78" style="font-family:'Helvetica';font-size:79.94px;fill:#000000" text-anchor="middle">60</text>
	<line x1="3209.83" y1="2235.86" x2="3209.83" y2="2275.96" style="stroke:#000000;stroke-width:5.76"/>
	<text x="3209.83" y="2351.78" style="font-family:'Helvetica';font-size:79.94px;fill:#000000" text-anchor="middle">80</text>
	<line x1="3777.47" y1="2235.86" x2="3777.47" y2="2275.96" style="stroke:#000000;stroke-width:5.76"/>
	<text x="3777.47" y="2351.78" style="font-family:'Helvetica';font-size:79.94px;fill:#000000" text-anchor="middle">100</text>
	<text x="2358.30" y="2441.87" style="font-family:'Helvetica';font-size:79.94px;fill:#000000" text-anchor="middle">Days since 1 Mar 2020</text>
	<rect x="1244.68" y="269.91" width="2227.25" height="326.46" style="fill:#FFFFFF"/>
	<rect x="1247.56" y="272.79" width="2221.49" height="320.70" style="fill:none;stroke:#EAF2F3;stroke-width:5.76"/>
	<line x1="1287.87" y1="363.09" x2="1662.21" y2="363.09" style="stroke:#1A476F;stroke-width:8.64"/>
	<line x1="2315.49" y1="363.09" x2="2689.83" y2="363.09" style="stroke:#90353B;stroke-width:8.64"/>
	<line x1="1287.87" y1="503.06" x2="1662.21" y2="503.06" style="stroke:#55752F;stroke-width:8.64"/>
	<text x="1722.23" y="384.13" style="font-family:'Helvetica';font-size:60.02px;fill:#000000">SABA only</text>
	<text x="2749.85" y="384.13" style="font-family:'Helvetica';font-size:60.02px;fill:#000000">ICS (Low/Medium Dose)</text>
	<text x="1722.23" y="524.10" style="font-family:'Helvetica';font-size:60.02px;fill:#000000">ICS (High Dose)</text>
	<text x="1139.24" y="187.99" style="font-family:'Helvetica';font-size:99.99px;fill:#1E2D53">Time to COVID-19 Death in ONS, Asthma population</text>
</svg>
