<?xml version="1.0" encoding="UTF-8" standalone="no"?>
<!-- This is a Stata 16.1 generated SVG file (http://www.stata.com) -->

<svg version="1.1" width="5.50in" height="4.00in" viewBox="0 0 3960 2880" xmlns="http://www.w3.org/2000/svg" xmlns:xlink="http://www.w3.org/1999/xlink">
	<desc>Stata Graph - Graph</desc>
	<rect x="0" y="0" width="3960" height="2880" style="fill:#EAF2F3;stroke:none"/>
	<rect x="0.00" y="0.00" width="3959.88" height="2880.00" style="fill:#FFFFFF"/>
	<rect x="2.88" y="2.88" width="3954.12" height="2874.24" style="fill:none;stroke:#EAF2F3;stroke-width:5.76"/>
	<rect x="816.25" y="630.90" width="3033.86" height="1604.96" style="fill:#FFFFFF"/>
	<rect x="819.13" y="633.78" width="3028.10" height="1599.20" style="fill:none;stroke:#FFFFFF;stroke-width:5.76"/>
	<line x1="816.25" y1="2172.62" x2="3850.11" y2="2172.62" style="stroke:#EAF2F3;stroke-width:8.64"/>
	<line x1="816.25" y1="1500.64" x2="3850.11" y2="1500.64" style="stroke:#EAF2F3;stroke-width:8.64"/>
	<line x1="816.25" y1="828.66" x2="3850.11" y2="828.66" style="stroke:#EAF2F3;stroke-width:8.64"/>
	<path d=" M879.62 2172.62 L879.62 2172.62 L879.62 2172.62 L879.62 2172.62 L879.62 2172.62 L908.57 2172.62 L908.57 2172.62 L937.65 2172.62 L937.65 2172.62 L966.74 2172.62 L966.74 2172.62 L995.82 2172.62 L995.82 2172.62 L1024.90 2172.62 L1024.90 2172.62 L1053.98 2172.62 L1053.98 2172.62 L1083.06 2172.62 L1083.06 2172.62 L1141.22 2172.62 L1141.22 2172.62 L1170.30 2172.62 L1170.30 2172.62 L1199.38 2172.62 L1199.38 2172.62 L1228.47 2172.62 L1228.47 2172.62 L1257.55 2172.62 L1257.55 2172.62 L1286.51 2172.62 L1286.51 2172.62 L1315.59 2172.62 L1315.59 2172.62 L1344.67 2172.62 L1344.67 2172.62 L1373.75 2172.62 L1373.75 2172.62 L1402.83 2172.62 L1402.83 2160.25 L1431.91 2160.25 L1431.91 2160.25 L1460.99 2160.25 L1460.99 2160.25 L1490.07 2160.25 L1490.07 2160.25 L1519.15 2160.25 L1519.15 2147.87 L1548.24 2147.87 L1548.24 2123.00 L1577.32 2123.00 L1577.32 2123.00 L1606.40 2123.00 L1606.40 2123.00 L1635.48 2123.00 L1635.48 2110.62 L1664.44 2110.62 L1664.44 2098.25 L1693.52 2098.25 L1693.52 2098.25 L1722.60 2098.25 L1722.60 2098.25 L1751.68 2098.25 L1751.68 2061.00 L1780.76 2061.00 L1780.76 2061.00 L1809.84 2061.00 L1809.84 2061.00 L1838.92 2061.00 L1838.92 2023.75 L1868.01 2023.75 L1868.01 1999.00 L1897.09 1999.00 L1897.09 1961.75 L1926.17 1961.75 L1926.17 1937.00 L1955.25 1937.00 L1955.25 1912.12 L1984.33 1912.12 L1984.33 1887.37 L2013.29 1887.37 L2013.29 1874.99 L2042.37 1874.99 L2042.37 1850.12 L2071.45 1850.12 L2071.45 1837.74 L2100.53 1837.74 L2100.53 1825.37 L2158.70 1825.37 L2158.70 1825.37 L2187.78 1825.37 L2187.78 1812.87 L2216.86 1812.87 L2216.86 1775.74 L2245.94 1775.74 L2245.94 1750.87 L2275.02 1750.87 L2275.02 1750.87 L2304.10 1750.87 L2304.10 1738.49 L2333.18 1738.49 L2333.18 1738.49 L2362.26 1738.49 L2362.26 1713.62 L2391.22 1713.62 L2391.22 1713.62 L2420.30 1713.62 L2420.30 1688.87 L2449.38 1688.87 L2449.38 1676.49 L2478.47 1676.49 L2478.47 1651.62 L2507.55 1651.62 L2507.55 1639.24 L2536.63 1639.24 L2536.63 1639.24 L2594.79 1639.24 L2594.79 1626.74 L2623.87 1626.74 L2623.87 1626.74 L2652.95 1626.74 L2652.95 1601.99 L2682.03 1601.99 L2682.03 1589.62 L2711.11 1589.62 L2711.11 1577.12 L2740.20 1577.12 L2740.20 1564.74 L2798.24 1564.74 L2798.24 1564.74" stroke-linejoin="round" style="fill:none;stroke:#1A476F;stroke-width:8.64"/>
	<path d=" M879.62 2172.62 L879.62 2172.62 L879.62 2172.62 L879.62 2172.62 L879.62 2172.62 L908.57 2172.62 L908.57 2172.62 L937.65 2172.62 L937.65 2172.62 L966.74 2172.62 L966.74 2172.62 L995.82 2172.62 L995.82 2172.62 L1024.90 2172.62 L1024.90 2170.40 L1053.98 2170.40 L1053.98 2170.40 L1083.06 2170.40 L1083.06 2170.40 L1112.14 2170.40 L1112.14 2170.40 L1141.22 2170.40 L1141.22 2170.40 L1170.30 2170.40 L1170.30 2170.40 L1199.38 2170.40 L1199.38 2170.40 L1228.47 2170.40 L1228.47 2170.40 L1257.55 2170.40 L1257.55 2170.40 L1286.51 2170.40 L1286.51 2170.40 L1315.59 2170.40 L1315.59 2170.40 L1344.67 2170.40 L1344.67 2168.17 L1373.75 2168.17 L1373.75 2168.17 L1402.83 2168.17 L1402.83 2165.94 L1431.91 2165.94 L1431.91 2165.94 L1460.99 2165.94 L1460.99 2163.84 L1490.07 2163.84 L1490.07 2159.38 L1519.15 2159.38 L1519.15 2150.59 L1548.24 2150.59 L1548.24 2146.14 L1577.32 2146.14 L1577.32 2141.68 L1606.40 2141.68 L1606.40 2132.90 L1635.48 2132.90 L1635.48 2126.22 L1664.44 2126.22 L1664.44 2117.43 L1693.52 2117.43 L1693.52 2093.17 L1722.60 2093.17 L1722.60 2075.48 L1751.68 2075.48 L1751.68 2060.01 L1780.76 2060.01 L1780.76 2033.52 L1809.84 2033.52 L1809.84 2009.27 L1838.92 2009.27 L1838.92 1984.89 L1868.01 1984.89 L1868.01 1960.63 L1897.09 1960.63 L1897.09 1936.38 L1926.17 1936.38 L1926.17 1912.00 L1955.25 1912.00 L1955.25 1885.51 L1984.33 1885.51 L1984.33 1845.79 L2013.29 1845.79 L2013.29 1823.64 L2042.37 1823.64 L2042.37 1786.14 L2071.45 1786.14 L2071.45 1766.22 L2100.53 1766.22 L2100.53 1744.19 L2129.61 1744.19 L2129.61 1728.72 L2158.70 1728.72 L2158.70 1706.57 L2187.78 1706.57 L2187.78 1693.32 L2216.86 1693.32 L2216.86 1669.07 L2245.94 1669.07 L2245.94 1638.13 L2275.02 1638.13 L2275.02 1624.89 L2304.10 1624.89 L2304.10 1604.96 L2333.18 1604.96 L2333.18 1587.27 L2362.26 1587.27 L2362.26 1565.24 L2391.22 1565.24 L2391.22 1543.09 L2420.30 1543.09 L2420.30 1521.06 L2449.38 1521.06 L2449.38 1492.22 L2478.47 1492.22 L2478.47 1472.42 L2507.55 1472.42 L2507.55 1465.74 L2536.63 1465.74 L2536.63 1448.04 L2565.71 1448.04 L2565.71 1437.03 L2594.79 1437.03 L2594.79 1426.02 L2623.87 1426.02 L2623.87 1415.00 L2652.95 1415.00 L2652.95 1397.30 L2682.03 1397.30 L2682.03 1379.61 L2711.11 1379.61 L2711.11 1372.93 L2740.20 1372.93 L2740.20 1359.68 L2769.15 1359.68 L2769.15 1350.90 L2798.24 1350.90 L2798.24 1344.21" stroke-linejoin="round" style="fill:none;stroke:#90353B;stroke-width:8.64"/>
	<path d=" M879.62 2172.62 L879.62 2172.62 L879.62 2172.62 L879.62 2172.62 L879.62 2172.62 L908.57 2172.62 L908.57 2172.62 L937.65 2172.62 L937.65 2172.62 L966.74 2172.62 L966.74 2172.62 L995.82 2172.62 L995.82 2172.62 L1024.90 2172.62 L1024.90 2172.62 L1053.98 2172.62 L1053.98 2172.62 L1083.06 2172.62 L1083.06 2172.62 L1112.14 2172.62 L1112.14 2172.62 L1141.22 2172.62 L1141.22 2172.62 L1170.30 2172.62 L1170.30 2172.62 L1199.38 2172.62 L1199.38 2172.62 L1228.47 2172.62 L1228.47 2172.62 L1257.55 2172.62 L1257.55 2172.62 L1286.51 2172.62 L1286.51 2172.62 L1315.59 2172.62 L1315.59 2172.62 L1344.67 2172.62 L1344.67 2172.62 L1373.75 2172.62 L1373.75 2172.62 L1402.83 2172.62 L1402.83 2172.62 L1431.91 2172.62 L1431.91 2159.38 L1460.99 2159.38 L1460.99 2146.02 L1490.07 2146.02 L1490.07 2146.02 L1519.15 2146.02 L1519.15 2146.02 L1548.24 2146.02 L1548.24 2132.65 L1577.32 2132.65 L1577.32 2106.04 L1606.40 2106.04 L1606.40 2079.44 L1635.48 2079.44 L1635.48 2052.83 L1664.44 2052.83 L1664.44 2012.98 L1693.52 2012.98 L1693.52 1986.37 L1722.60 1986.37 L1722.60 1986.37 L1751.68 1986.37 L1751.68 1959.77 L1780.76 1959.77 L1780.76 1959.77 L1809.84 1959.77 L1809.84 1919.79 L1838.92 1919.79 L1838.92 1879.82 L1868.01 1879.82 L1868.01 1800.00 L1897.09 1800.00 L1897.09 1733.42 L1926.17 1733.42 L1926.17 1706.81 L1955.25 1706.81 L1955.25 1653.60 L1984.33 1653.60 L1984.33 1613.63 L2013.29 1613.63 L2013.29 1547.05 L2042.37 1547.05 L2042.37 1493.83 L2071.45 1493.83 L2071.45 1453.86 L2100.53 1453.86 L2100.53 1440.50 L2129.61 1440.50 L2129.61 1400.65 L2158.70 1400.65 L2158.70 1387.28 L2187.78 1387.28 L2187.78 1347.31 L2216.86 1347.31 L2216.86 1294.09 L2245.94 1294.09 L2245.94 1267.49 L2275.02 1267.49 L2275.02 1214.15 L2304.10 1214.15 L2304.10 1187.54 L2333.18 1187.54 L2333.18 1160.94 L2362.26 1160.94 L2362.26 1094.36 L2391.22 1094.36 L2391.22 1067.62 L2449.38 1067.62 L2449.38 1027.65 L2478.47 1027.65 L2478.47 1014.41 L2507.55 1014.41 L2507.55 987.80 L2536.63 987.80 L2536.63 961.07 L2565.71 961.07 L2565.71 934.47 L2594.79 934.47 L2594.79 881.25 L2623.87 881.25 L2623.87 867.89 L2652.95 867.89 L2652.95 854.52 L2682.03 854.52 L2682.03 827.91 L2711.11 827.91 L2711.11 827.91 L2740.20 827.91 L2740.20 827.91 L2769.15 827.91 L2769.15 801.31 L2798.24 801.31 L2798.24 774.58" stroke-linejoin="round" style="fill:none;stroke:#55752F;stroke-width:8.64"/>
	<line x1="816.25" y1="2235.86" x2="816.25" y2="630.90" style="stroke:#000000;stroke-width:5.76"/>
	<line x1="816.25" y1="2172.62" x2="776.28" y2="2172.62" style="stroke:#000000;stroke-width:5.76"/>
	<text x="756.24" y="2200.63" style="font-family:'Helvetica';font-size:79.94px;fill:#000000" text-anchor="end">0.0000</text>
	<line x1="816.25" y1="1500.64" x2="776.28" y2="1500.64" style="stroke:#000000;stroke-width:5.76"/>
	<text x="756.24" y="1528.65" style="font-family:'Helvetica';font-size:79.94px;fill:#000000" text-anchor="end">0.0005</text>
	<line x1="816.25" y1="828.66" x2="776.28" y2="828.66" style="stroke:#000000;stroke-width:5.76"/>
	<text x="756.24" y="856.67" style="font-family:'Helvetica';font-size:79.94px;fill:#000000" text-anchor="end">0.0010</text>
	<text x="879.62" y="2747.83" style="font-family:'Helvetica';font-size:60.02px;fill:#000000" text-anchor="middle">101077</text>
	<text x="1460.99" y="2747.83" style="font-family:'Helvetica';font-size:60.02px;fill:#000000" text-anchor="middle">101018</text>
	<text x="2042.49" y="2747.83" style="font-family:'Helvetica';font-size:60.02px;fill:#000000" text-anchor="middle">100898</text>
	<text x="2623.87" y="2747.83" style="font-family:'Helvetica';font-size:60.02px;fill:#000000" text-anchor="middle">100796</text>
	<text x="3205.37" y="2747.83" style="font-family:'Helvetica';font-size:60.02px;fill:#000000" text-anchor="middle">0</text>
	<text x="3786.75" y="2747.83" style="font-family:'Helvetica';font-size:60.02px;fill:#000000" text-anchor="middle">0</text>
	<text x="734.21" y="2747.83" style="font-family:'Helvetica';font-size:60.02px;fill:#000000" text-anchor="end">ICS (High Dose)</text>
	<text x="879.62" y="2674.44" style="font-family:'Helvetica';font-size:60.02px;fill:#000000" text-anchor="middle">608972</text>
	<text x="1460.99" y="2674.44" style="font-family:'Helvetica';font-size:60.02px;fill:#000000" text-anchor="middle">608718</text>
	<text x="2042.49" y="2674.44" style="font-family:'Helvetica';font-size:60.02px;fill:#000000" text-anchor="middle">608249</text>
	<text x="2623.87" y="2674.44" style="font-family:'Helvetica';font-size:60.02px;fill:#000000" text-anchor="middle">607783</text>
	<text x="3205.37" y="2674.44" style="font-family:'Helvetica';font-size:60.02px;fill:#000000" text-anchor="middle">0</text>
	<text x="3786.75" y="2674.44" style="font-family:'Helvetica';font-size:60.02px;fill:#000000" text-anchor="middle">0</text>
	<text x="734.21" y="2674.44" style="font-family:'Helvetica';font-size:60.02px;fill:#000000" text-anchor="end">ICS (Low/Medium Dose)</text>
	<text x="879.62" y="2601.18" style="font-family:'Helvetica';font-size:60.02px;fill:#000000" text-anchor="middle">108441</text>
	<text x="1460.99" y="2601.18" style="font-family:'Helvetica';font-size:60.02px;fill:#000000" text-anchor="middle">108388</text>
	<text x="2042.49" y="2601.18" style="font-family:'Helvetica';font-size:60.02px;fill:#000000" text-anchor="middle">108309</text>
	<text x="2623.87" y="2601.18" style="font-family:'Helvetica';font-size:60.02px;fill:#000000" text-anchor="middle">108246</text>
	<text x="3205.37" y="2601.18" style="font-family:'Helvetica';font-size:60.02px;fill:#000000" text-anchor="middle">0</text>
	<text x="3786.75" y="2601.18" style="font-family:'Helvetica';font-size:60.02px;fill:#000000" text-anchor="middle">0</text>
	<text x="734.21" y="2601.18" style="font-family:'Helvetica';font-size:60.02px;fill:#000000" text-anchor="end">SABA only</text>
	<text x="734.21" y="2527.80" style="font-family:'Helvetica';font-size:60.02px;fill:#000000" text-anchor="end">Number at risk</text>
	<line x1="816.25" y1="2235.86" x2="3850.11" y2="2235.86" style="stroke:#000000;stroke-width:5.76"/>
	<line x1="879.62" y1="2235.86" x2="879.62" y2="2275.96" style="stroke:#000000;stroke-width:5.76"/>
	<text x="879.62" y="2351.78" style="font-family:'Helvetica';font-size:79.94px;fill:#000000" text-anchor="middle">0</text>
	<line x1="1460.99" y1="2235.86" x2="1460.99" y2="2275.96" style="stroke:#000000;stroke-width:5.76"/>
	<text x="1460.99" y="2351.78" style="font-family:'Helvetica';font-size:79.94px;fill:#000000" text-anchor="middle">20</text>
	<line x1="2042.49" y1="2235.86" x2="2042.49" y2="2275.96" style="stroke:#000000;stroke-width:5.76"/>
	<text x="2042.49" y="2351.78" style="font-family:'Helvetica';font-size:79.94px;fill:#000000" text-anchor="middle">40</text>
	<line x1="2623.87" y1="2235.86" x2="2623.87" y2="2275.96" style="stroke:#000000;stroke-width:5.76"/>
	<text x="2623.87" y="2351.78" style="font-family:'Helvetica';font-size:79.94px;fill:#000000" text-anchor="middle">60</text>
	<line x1="3205.37" y1="2235.86" x2="3205.37" y2="2275.96" style="stroke:#000000;stroke-width:5.76"/>
	<text x="3205.37" y="2351.78" style="font-family:'Helvetica';font-size:79.94px;fill:#000000" text-anchor="middle">80</text>
	<line x1="3786.75" y1="2235.86" x2="3786.75" y2="2275.96" style="stroke:#000000;stroke-width:5.76"/>
	<text x="3786.75" y="2351.78" style="font-family:'Helvetica';font-size:79.94px;fill:#000000" text-anchor="middle">100</text>
	<text x="2333.18" y="2441.87" style="font-family:'Helvetica';font-size:79.94px;fill:#000000" text-anchor="middle">Days since 1 Mar 2020</text>
	<rect x="1281.68" y="269.91" width="2103.13" height="326.46" style="fill:#FFFFFF"/>
	<rect x="1284.56" y="272.79" width="2097.37" height="320.70" style="fill:none;stroke:#EAF2F3;stroke-width:5.76"/>
	<line x1="1324.87" y1="363.09" x2="1699.21" y2="363.09" style="stroke:#1A476F;stroke-width:8.64"/>
	<line x1="2287.64" y1="363.09" x2="2662.11" y2="363.09" style="stroke:#90353B;stroke-width:8.64"/>
	<line x1="1324.87" y1="503.06" x2="1699.21" y2="503.06" style="stroke:#55752F;stroke-width:8.64"/>
	<text x="1759.23" y="384.13" style="font-family:'Helvetica';font-size:60.02px;fill:#000000">SABA only</text>
	<text x="2722.13" y="384.13" style="font-family:'Helvetica';font-size:60.02px;fill:#000000">ICS (Low/Medium Dose)</text>
	<text x="1759.23" y="524.10" style="font-family:'Helvetica';font-size:60.02px;fill:#000000">ICS (High Dose)</text>
	<text x="1224.88" y="187.99" style="font-family:'Helvetica';font-size:99.99px;fill:#1E2D53">Time to COVID-19 Death in ONS, Asthma population</text>
</svg>
