<?xml version="1.0" encoding="UTF-8" standalone="no"?>
<!-- This is a Stata 16.1 generated SVG file (http://www.stata.com) -->

<svg version="1.1" width="5.50in" height="4.00in" viewBox="0 0 3960 2880" xmlns="http://www.w3.org/2000/svg" xmlns:xlink="http://www.w3.org/1999/xlink">
	<desc>Stata Graph - Graph</desc>
	<rect x="0" y="0" width="3960" height="2880" style="fill:#EAF2F3;stroke:none"/>
	<rect x="0.00" y="0.00" width="3959.88" height="2880.00" style="fill:#FFFFFF"/>
	<rect x="2.88" y="2.88" width="3954.12" height="2874.24" style="fill:none;stroke:#EAF2F3;stroke-width:5.76"/>
	<rect x="875.78" y="630.90" width="2965.05" height="1604.96" style="fill:#FFFFFF"/>
	<rect x="878.66" y="633.78" width="2959.29" height="1599.20" style="fill:none;stroke:#FFFFFF;stroke-width:5.76"/>
	<line x1="875.78" y1="2172.62" x2="3840.83" y2="2172.62" style="stroke:#EAF2F3;stroke-width:8.64"/>
	<line x1="875.78" y1="1433.44" x2="3840.83" y2="1433.44" style="stroke:#EAF2F3;stroke-width:8.64"/>
	<path d=" M939.14 2172.62 L939.14 2172.62 L939.14 2172.62 L939.14 2172.62 L939.14 2172.62 L967.48 2172.62 L967.48 2172.62 L995.94 2172.62 L995.94 2172.62 L1024.28 2172.62 L1024.28 2172.62 L1052.62 2172.62 L1052.62 2172.62 L1081.08 2172.62 L1081.08 2172.62 L1109.42 2172.62 L1109.42 2172.62 L1137.76 2172.62 L1137.76 2172.62 L1194.56 2172.62 L1194.56 2172.62 L1222.90 2172.62 L1222.90 2172.62 L1251.36 2172.62 L1251.36 2172.62 L1279.70 2172.62 L1279.70 2172.62 L1308.04 2172.62 L1308.04 2172.62 L1336.50 2172.62 L1336.50 2172.62 L1364.84 2172.62 L1364.84 2172.62 L1393.18 2172.62 L1393.18 2172.62 L1421.64 2172.62 L1421.64 2172.62 L1449.98 2172.62 L1449.98 2171.26 L1478.44 2171.26 L1478.44 2171.26 L1506.78 2171.26 L1506.78 2171.26 L1535.12 2171.26 L1535.12 2171.26 L1563.58 2171.26 L1563.58 2169.90 L1591.92 2169.90 L1591.92 2167.18 L1620.26 2167.18 L1620.26 2167.18 L1648.72 2167.18 L1648.72 2167.18 L1677.06 2167.18 L1677.06 2165.82 L1705.40 2165.82 L1705.40 2164.46 L1733.86 2164.46 L1733.86 2164.46 L1762.20 2164.46 L1762.20 2164.46 L1790.54 2164.46 L1790.54 2160.37 L1819.00 2160.37 L1819.00 2160.37 L1847.34 2160.37 L1847.34 2160.37 L1875.80 2160.37 L1875.80 2156.29 L1904.14 2156.29 L1904.14 2153.56 L1932.48 2153.56 L1932.48 2149.48 L1960.94 2149.48 L1960.94 2146.76 L1989.28 2146.76 L1989.28 2143.91 L2017.62 2143.91 L2017.62 2141.19 L2046.08 2141.19 L2046.08 2139.83 L2074.42 2139.83 L2074.42 2137.11 L2102.76 2137.11 L2102.76 2135.74 L2131.22 2135.74 L2131.22 2134.38 L2187.90 2134.38 L2187.90 2134.38 L2216.36 2134.38 L2216.36 2133.02 L2244.70 2133.02 L2244.70 2128.94 L2273.04 2128.94 L2273.04 2126.22 L2301.50 2126.22 L2301.50 2126.22 L2329.84 2126.22 L2329.84 2124.85 L2358.30 2124.85 L2358.30 2124.85 L2386.64 2124.85 L2386.64 2122.13 L2414.98 2122.13 L2414.98 2122.13 L2443.44 2122.13 L2443.44 2119.41 L2471.78 2119.41 L2471.78 2118.05 L2500.12 2118.05 L2500.12 2115.32 L2528.58 2115.32 L2528.58 2113.96 L2556.92 2113.96 L2556.92 2113.96 L2613.72 2113.96 L2613.72 2112.60 L2642.06 2112.60 L2642.06 2112.60 L2670.40 2112.60 L2670.40 2109.88 L2698.86 2109.88 L2698.86 2108.52 L2727.20 2108.52 L2727.20 2107.16 L2755.54 2107.16 L2755.54 2105.80 L2812.34 2105.80 L2812.34 2105.80" stroke-linejoin="round" style="fill:none;stroke:#1A476F;stroke-width:8.64"/>
	<path d=" M939.14 2172.62 L939.14 2172.62 L939.14 2172.62 L939.14 2172.62 L939.14 2172.62 L967.48 2172.62 L967.48 2172.62 L995.94 2172.62 L995.94 2172.62 L1024.28 2172.62 L1024.28 2172.62 L1052.62 2172.62 L1052.62 2172.62 L1081.08 2172.62 L1081.08 2172.38 L1109.42 2172.38 L1109.42 2172.38 L1137.76 2172.38 L1137.76 2172.38 L1166.22 2172.38 L1166.22 2172.38 L1194.56 2172.38 L1194.56 2172.38 L1222.90 2172.38 L1222.90 2172.38 L1251.36 2172.38 L1251.36 2172.38 L1279.70 2172.38 L1279.70 2172.38 L1308.04 2172.38 L1308.04 2172.38 L1336.50 2172.38 L1336.50 2172.38 L1364.84 2172.38 L1364.84 2172.38 L1393.18 2172.38 L1393.18 2172.13 L1421.64 2172.13 L1421.64 2172.13 L1449.98 2172.13 L1449.98 2171.88 L1478.44 2171.88 L1478.44 2171.88 L1506.78 2171.88 L1506.78 2171.63 L1535.12 2171.63 L1535.12 2171.14 L1563.58 2171.14 L1563.58 2170.15 L1591.92 2170.15 L1591.92 2169.65 L1620.26 2169.65 L1620.26 2169.28 L1648.72 2169.28 L1648.72 2168.29 L1677.06 2168.29 L1677.06 2167.55 L1705.40 2167.55 L1705.40 2166.56 L1733.86 2166.56 L1733.86 2163.84 L1762.20 2163.84 L1762.20 2161.98 L1790.54 2161.98 L1790.54 2160.25 L1819.00 2160.25 L1819.00 2157.28 L1847.34 2157.28 L1847.34 2154.68 L1875.80 2154.68 L1875.80 2151.96 L1904.14 2151.96 L1904.14 2149.36 L1932.48 2149.36 L1932.48 2146.63 L1960.94 2146.63 L1960.94 2143.91 L1989.28 2143.91 L1989.28 2141.07 L2017.62 2141.07 L2017.62 2136.61 L2046.08 2136.61 L2046.08 2134.26 L2074.42 2134.26 L2074.42 2130.05 L2102.76 2130.05 L2102.76 2127.95 L2131.22 2127.95 L2131.22 2125.47 L2159.56 2125.47 L2159.56 2123.74 L2187.90 2123.74 L2187.90 2121.39 L2216.36 2121.39 L2216.36 2119.90 L2244.70 2119.90 L2244.70 2117.18 L2273.04 2117.18 L2273.04 2113.84 L2301.50 2113.84 L2301.50 2112.35 L2329.84 2112.35 L2329.84 2110.13 L2358.30 2110.13 L2358.30 2108.27 L2386.64 2108.27 L2386.64 2105.80 L2414.98 2105.80 L2414.98 2103.32 L2443.44 2103.32 L2443.44 2100.97 L2471.78 2100.97 L2471.78 2097.75 L2500.12 2097.75 L2500.12 2095.65 L2528.58 2095.65 L2528.58 2094.91 L2556.92 2094.91 L2556.92 2092.93 L2585.26 2092.93 L2585.26 2091.69 L2613.72 2091.69 L2613.72 2090.45 L2642.06 2090.45 L2642.06 2089.34 L2670.40 2089.34 L2670.40 2087.36 L2698.86 2087.36 L2698.86 2085.38 L2727.20 2085.38 L2727.20 2084.63 L2755.54 2084.63 L2755.54 2083.15 L2784.00 2083.15 L2784.00 2082.28 L2812.34 2082.28 L2812.34 2081.54" stroke-linejoin="round" style="fill:none;stroke:#90353B;stroke-width:8.64"/>
	<path d=" M939.14 2172.62 L939.14 2172.62 L939.14 2172.62 L939.14 2172.62 L939.14 2172.62 L967.48 2172.62 L967.48 2172.62 L995.94 2172.62 L995.94 2172.62 L1024.28 2172.62 L1024.28 2172.62 L1052.62 2172.62 L1052.62 2172.62 L1081.08 2172.62 L1081.08 2172.62 L1109.42 2172.62 L1109.42 2172.62 L1137.76 2172.62 L1137.76 2172.62 L1166.22 2172.62 L1166.22 2172.62 L1194.56 2172.62 L1194.56 2172.62 L1222.90 2172.62 L1222.90 2172.62 L1251.36 2172.62 L1251.36 2172.62 L1279.70 2172.62 L1279.70 2172.62 L1308.04 2172.62 L1308.04 2172.62 L1336.50 2172.62 L1336.50 2172.62 L1364.84 2172.62 L1364.84 2172.62 L1393.18 2172.62 L1393.18 2172.62 L1421.64 2172.62 L1421.64 2172.62 L1449.98 2172.62 L1449.98 2172.62 L1478.44 2172.62 L1478.44 2171.14 L1506.78 2171.14 L1506.78 2169.65 L1535.12 2169.65 L1535.12 2169.65 L1563.58 2169.65 L1563.58 2169.65 L1591.92 2169.65 L1591.92 2168.29 L1620.26 2168.29 L1620.26 2165.32 L1648.72 2165.32 L1648.72 2162.35 L1677.06 2162.35 L1677.06 2159.50 L1705.40 2159.50 L1705.40 2155.05 L1733.86 2155.05 L1733.86 2152.08 L1762.20 2152.08 L1762.20 2152.08 L1790.54 2152.08 L1790.54 2149.23 L1819.00 2149.23 L1819.00 2149.23 L1847.34 2149.23 L1847.34 2144.78 L1875.80 2144.78 L1875.80 2140.45 L1904.14 2140.45 L1904.14 2131.66 L1932.48 2131.66 L1932.48 2124.36 L1960.94 2124.36 L1960.94 2121.39 L1989.28 2121.39 L1989.28 2115.57 L2017.62 2115.57 L2017.62 2111.12 L2046.08 2111.12 L2046.08 2103.82 L2074.42 2103.82 L2074.42 2098.00 L2102.76 2098.00 L2102.76 2093.54 L2131.22 2093.54 L2131.22 2092.06 L2159.56 2092.06 L2159.56 2087.73 L2187.90 2087.73 L2187.90 2086.24 L2216.36 2086.24 L2216.36 2081.79 L2244.70 2081.79 L2244.70 2075.97 L2273.04 2075.97 L2273.04 2073.00 L2301.50 2073.00 L2301.50 2067.18 L2329.84 2067.18 L2329.84 2064.21 L2358.30 2064.21 L2358.30 2061.37 L2386.64 2061.37 L2386.64 2054.07 L2414.98 2054.07 L2414.98 2051.10 L2471.78 2051.10 L2471.78 2046.64 L2500.12 2046.64 L2500.12 2045.16 L2528.58 2045.16 L2528.58 2042.31 L2556.92 2042.31 L2556.92 2039.34 L2585.26 2039.34 L2585.26 2036.37 L2613.72 2036.37 L2613.72 2030.55 L2642.06 2030.55 L2642.06 2029.07 L2670.40 2029.07 L2670.40 2027.58 L2698.86 2027.58 L2698.86 2024.74 L2727.20 2024.74 L2727.20 2024.74 L2755.54 2024.74 L2755.54 2024.74 L2784.00 2024.74 L2784.00 2021.77 L2812.34 2021.77 L2812.34 2018.80" stroke-linejoin="round" style="fill:none;stroke:#55752F;stroke-width:8.64"/>
	<line x1="875.78" y1="2235.86" x2="875.78" y2="630.90" style="stroke:#000000;stroke-width:5.76"/>
	<line x1="875.78" y1="2172.62" x2="835.81" y2="2172.62" style="stroke:#000000;stroke-width:5.76"/>
	<text x="815.88" y="2200.63" style="font-family:'Helvetica';font-size:79.94px;fill:#000000" text-anchor="end">0.000</text>
	<line x1="875.78" y1="1433.44" x2="835.81" y2="1433.44" style="stroke:#000000;stroke-width:5.76"/>
	<text x="815.88" y="1461.45" style="font-family:'Helvetica';font-size:79.94px;fill:#000000" text-anchor="end">0.005</text>
	<line x1="875.78" y1="694.26" x2="835.81" y2="694.26" style="stroke:#000000;stroke-width:5.76"/>
	<text x="815.88" y="722.27" style="font-family:'Helvetica';font-size:79.94px;fill:#000000" text-anchor="end">0.010</text>
	<text x="939.14" y="2747.83" style="font-family:'Helvetica';font-size:60.02px;fill:#000000" text-anchor="middle">101077</text>
	<text x="1506.78" y="2747.83" style="font-family:'Helvetica';font-size:60.02px;fill:#000000" text-anchor="middle">101018</text>
	<text x="2074.42" y="2747.83" style="font-family:'Helvetica';font-size:60.02px;fill:#000000" text-anchor="middle">100898</text>
	<text x="2642.19" y="2747.83" style="font-family:'Helvetica';font-size:60.02px;fill:#000000" text-anchor="middle">100796</text>
	<text x="3209.83" y="2747.83" style="font-family:'Helvetica';font-size:60.02px;fill:#000000" text-anchor="middle">0</text>
	<text x="3777.47" y="2747.83" style="font-family:'Helvetica';font-size:60.02px;fill:#000000" text-anchor="middle">0</text>
	<text x="797.32" y="2747.83" style="font-family:'Helvetica';font-size:60.02px;fill:#000000" text-anchor="end">ICS (High Dose)</text>
	<text x="939.14" y="2674.44" style="font-family:'Helvetica';font-size:60.02px;fill:#000000" text-anchor="middle">608972</text>
	<text x="1506.78" y="2674.44" style="font-family:'Helvetica';font-size:60.02px;fill:#000000" text-anchor="middle">608718</text>
	<text x="2074.42" y="2674.44" style="font-family:'Helvetica';font-size:60.02px;fill:#000000" text-anchor="middle">608249</text>
	<text x="2642.19" y="2674.44" style="font-family:'Helvetica';font-size:60.02px;fill:#000000" text-anchor="middle">607783</text>
	<text x="3209.83" y="2674.44" style="font-family:'Helvetica';font-size:60.02px;fill:#000000" text-anchor="middle">0</text>
	<text x="3777.47" y="2674.44" style="font-family:'Helvetica';font-size:60.02px;fill:#000000" text-anchor="middle">0</text>
	<text x="797.32" y="2674.44" style="font-family:'Helvetica';font-size:60.02px;fill:#000000" text-anchor="end">ICS (Low/Medium Dose)</text>
	<text x="939.14" y="2601.18" style="font-family:'Helvetica';font-size:60.02px;fill:#000000" text-anchor="middle">108441</text>
	<text x="1506.78" y="2601.18" style="font-family:'Helvetica';font-size:60.02px;fill:#000000" text-anchor="middle">108388</text>
	<text x="2074.42" y="2601.18" style="font-family:'Helvetica';font-size:60.02px;fill:#000000" text-anchor="middle">108309</text>
	<text x="2642.19" y="2601.18" style="font-family:'Helvetica';font-size:60.02px;fill:#000000" text-anchor="middle">108246</text>
	<text x="3209.83" y="2601.18" style="font-family:'Helvetica';font-size:60.02px;fill:#000000" text-anchor="middle">0</text>
	<text x="3777.47" y="2601.18" style="font-family:'Helvetica';font-size:60.02px;fill:#000000" text-anchor="middle">0</text>
	<text x="797.32" y="2601.18" style="font-family:'Helvetica';font-size:60.02px;fill:#000000" text-anchor="end">SABA only</text>
	<text x="797.32" y="2527.80" style="font-family:'Helvetica';font-size:60.02px;fill:#000000" text-anchor="end">Number at risk</text>
	<line x1="875.78" y1="2235.86" x2="3840.83" y2="2235.86" style="stroke:#000000;stroke-width:5.76"/>
	<line x1="939.14" y1="2235.86" x2="939.14" y2="2275.96" style="stroke:#000000;stroke-width:5.76"/>
	<text x="939.14" y="2351.78" style="font-family:'Helvetica';font-size:79.94px;fill:#000000" text-anchor="middle">0</text>
	<line x1="1506.78" y1="2235.86" x2="1506.78" y2="2275.96" style="stroke:#000000;stroke-width:5.76"/>
	<text x="1506.78" y="2351.78" style="font-family:'Helvetica';font-size:79.94px;fill:#000000" text-anchor="middle">20</text>
	<line x1="2074.42" y1="2235.86" x2="2074.42" y2="2275.96" style="stroke:#000000;stroke-width:5.76"/>
	<text x="2074.42" y="2351.78" style="font-family:'Helvetica';font-size:79.94px;fill:#000000" text-anchor="middle">40</text>
	<line x1="2642.19" y1="2235.86" x2="2642.19" y2="2275.96" style="stroke:#000000;stroke-width:5.76"/>
	<text x="2642.19" y="2351.78" style="font-family:'Helvetica';font-size:79.94px;fill:#000000" text-anchor="middle">60</text>
	<line x1="3209.83" y1="2235.86" x2="3209.83" y2="2275.96" style="stroke:#000000;stroke-width:5.76"/>
	<text x="3209.83" y="2351.78" style="font-family:'Helvetica';font-size:79.94px;fill:#000000" text-anchor="middle">80</text>
	<line x1="3777.47" y1="2235.86" x2="3777.47" y2="2275.96" style="stroke:#000000;stroke-width:5.76"/>
	<text x="3777.47" y="2351.78" style="font-family:'Helvetica';font-size:79.94px;fill:#000000" text-anchor="middle">100</text>
	<text x="2358.30" y="2441.87" style="font-family:'Helvetica';font-size:79.94px;fill:#000000" text-anchor="middle">Days since 1 Mar 2020</text>
	<rect x="1244.68" y="269.91" width="2227.25" height="326.46" style="fill:#FFFFFF"/>
	<rect x="1247.56" y="272.79" width="2221.49" height="320.70" style="fill:none;stroke:#EAF2F3;stroke-width:5.76"/>
	<line x1="1287.87" y1="363.09" x2="1662.21" y2="363.09" style="stroke:#1A476F;stroke-width:8.64"/>
	<line x1="2315.49" y1="363.09" x2="2689.83" y2="363.09" style="stroke:#90353B;stroke-width:8.64"/>
	<line x1="1287.87" y1="503.06" x2="1662.21" y2="503.06" style="stroke:#55752F;stroke-width:8.64"/>
	<text x="1722.23" y="384.13" style="font-family:'Helvetica';font-size:60.02px;fill:#000000">SABA only</text>
	<text x="2749.85" y="384.13" style="font-family:'Helvetica';font-size:60.02px;fill:#000000">ICS (Low/Medium Dose)</text>
	<text x="1722.23" y="524.10" style="font-family:'Helvetica';font-size:60.02px;fill:#000000">ICS (High Dose)</text>
	<text x="1139.24" y="187.99" style="font-family:'Helvetica';font-size:99.99px;fill:#1E2D53">Time to COVID-19 Death in ONS, Asthma population</text>
</svg>
