<?xml version="1.0" encoding="UTF-8" standalone="no"?>
<!-- This is a Stata 16.1 generated SVG file (http://www.stata.com) -->

<svg version="1.1" width="5.50in" height="4.00in" viewBox="0 0 3960 2880" xmlns="http://www.w3.org/2000/svg" xmlns:xlink="http://www.w3.org/1999/xlink">
	<desc>Stata Graph - Graph</desc>
	<rect x="0" y="0" width="3960" height="2880" style="fill:#EAF2F3;stroke:none"/>
	<rect x="0.00" y="0.00" width="3959.88" height="2880.00" style="fill:#FFFFFF"/>
	<rect x="2.88" y="2.88" width="3954.12" height="2874.24" style="fill:none;stroke:#EAF2F3;stroke-width:5.76"/>
	<rect x="875.78" y="630.90" width="2965.05" height="1604.96" style="fill:#FFFFFF"/>
	<rect x="878.66" y="633.78" width="2959.29" height="1599.20" style="fill:none;stroke:#FFFFFF;stroke-width:5.76"/>
	<line x1="875.78" y1="2172.62" x2="3840.83" y2="2172.62" style="stroke:#EAF2F3;stroke-width:8.64"/>
	<line x1="875.78" y1="1802.97" x2="3840.83" y2="1802.97" style="stroke:#EAF2F3;stroke-width:8.64"/>
	<line x1="875.78" y1="1433.44" x2="3840.83" y2="1433.44" style="stroke:#EAF2F3;stroke-width:8.64"/>
	<line x1="875.78" y1="1063.79" x2="3840.83" y2="1063.79" style="stroke:#EAF2F3;stroke-width:8.64"/>
	<path d=" M939.14 2172.62 L939.14 2172.62 L939.14 2172.62 L939.14 2172.62 L939.14 2172.62 L967.48 2172.62 L967.48 2172.62 L995.94 2172.62 L995.94 2172.62 L1024.28 2172.62 L1024.28 2172.62 L1052.62 2172.62 L1052.62 2172.62 L1081.08 2172.62 L1081.08 2172.62 L1109.42 2172.62 L1109.42 2172.62 L1137.76 2172.62 L1137.76 2172.62 L1166.22 2172.62 L1166.22 2172.62 L1194.56 2172.62 L1194.56 2172.62 L1222.90 2172.62 L1222.90 2172.62 L1251.36 2172.62 L1251.36 2172.62 L1279.70 2172.62 L1279.70 2172.62 L1308.04 2172.62 L1308.04 2172.62 L1336.50 2172.62 L1336.50 2172.62 L1364.84 2172.62 L1364.84 2172.62 L1393.18 2172.62 L1393.18 2172.62 L1421.64 2172.62 L1421.64 2172.62 L1449.98 2172.62 L1449.98 2172.62 L1478.44 2172.62 L1478.44 2172.62 L1506.78 2172.62 L1506.78 2172.62 L1535.12 2172.62 L1535.12 2172.62 L1563.58 2172.62 L1563.58 2172.00 L1591.92 2172.00 L1591.92 2170.64 L1620.26 2170.64 L1620.26 2170.64 L1648.72 2170.64 L1648.72 2170.64 L1677.06 2170.64 L1677.06 2170.02 L1705.40 2170.02 L1705.40 2168.66 L1733.86 2168.66 L1733.86 2168.04 L1762.20 2168.04 L1762.20 2166.68 L1790.54 2166.68 L1790.54 2165.45 L1819.00 2165.45 L1819.00 2165.45 L1847.34 2165.45 L1847.34 2165.45 L1875.80 2165.45 L1875.80 2164.70 L1904.14 2164.70 L1904.14 2164.08 L1932.48 2164.08 L1932.48 2162.72 L1960.94 2162.72 L1960.94 2161.49 L1989.28 2161.49 L1989.28 2160.12 L2017.62 2160.12 L2017.62 2158.76 L2046.08 2158.76 L2046.08 2158.76 L2074.42 2158.76 L2074.42 2158.14 L2102.76 2158.14 L2102.76 2155.54 L2131.22 2155.54 L2131.22 2154.93 L2187.90 2154.93 L2187.90 2154.18 L2216.36 2154.18 L2216.36 2154.18 L2244.70 2154.18 L2244.70 2153.56 L2273.04 2153.56 L2273.04 2152.95 L2301.50 2152.95 L2301.50 2152.95 L2329.84 2152.95 L2329.84 2152.20 L2358.30 2152.20 L2358.30 2152.20 L2386.64 2152.20 L2386.64 2151.58 L2414.98 2151.58 L2414.98 2151.58 L2443.44 2151.58 L2443.44 2150.97 L2471.78 2150.97 L2471.78 2150.97 L2500.12 2150.97 L2500.12 2149.60" stroke-linejoin="round" style="fill:none;stroke:#1A476F;stroke-width:8.64"/>
	<path d=" M939.14 2172.62 L939.14 2172.62 L939.14 2172.62 L939.14 2172.62 L939.14 2172.62 L967.48 2172.62 L967.48 2172.62 L995.94 2172.62 L995.94 2172.62 L1024.28 2172.62 L1024.28 2172.62 L1052.62 2172.62 L1052.62 2172.62 L1081.08 2172.62 L1081.08 2172.62 L1109.42 2172.62 L1109.42 2172.62 L1137.76 2172.62 L1137.76 2172.62 L1166.22 2172.62 L1166.22 2172.62 L1194.56 2172.62 L1194.56 2172.62 L1222.90 2172.62 L1222.90 2172.62 L1251.36 2172.62 L1251.36 2172.62 L1279.70 2172.62 L1279.70 2172.62 L1308.04 2172.62 L1308.04 2172.62 L1336.50 2172.62 L1336.50 2172.62 L1364.84 2172.62 L1364.84 2172.62 L1393.18 2172.62 L1393.18 2172.62 L1421.64 2172.62 L1421.64 2172.62 L1449.98 2172.62 L1449.98 2172.62 L1478.44 2172.62 L1478.44 2172.62 L1506.78 2172.62 L1506.78 2172.62 L1535.12 2172.62 L1535.12 2172.38 L1563.58 2172.38 L1563.58 2171.76 L1591.92 2171.76 L1591.92 2171.51 L1620.26 2171.51 L1620.26 2171.26 L1648.72 2171.26 L1648.72 2170.77 L1677.06 2170.77 L1677.06 2170.40 L1705.40 2170.40 L1705.40 2170.15 L1733.86 2170.15 L1733.86 2168.66 L1762.20 2168.66 L1762.20 2167.67 L1790.54 2167.67 L1790.54 2167.05 L1819.00 2167.05 L1819.00 2165.69 L1847.34 2165.69 L1847.34 2164.46 L1875.80 2164.46 L1875.80 2163.34 L1904.14 2163.34 L1904.14 2162.10 L1932.48 2162.10 L1932.48 2161.24 L1960.94 2161.24 L1960.94 2160.00 L1989.28 2160.00 L1989.28 2158.64 L2017.62 2158.64 L2017.62 2156.66 L2046.08 2156.66 L2046.08 2155.92 L2074.42 2155.92 L2074.42 2154.31 L2102.76 2154.31 L2102.76 2153.32 L2131.22 2153.32 L2131.22 2152.33 L2159.56 2152.33 L2159.56 2151.58 L2187.90 2151.58 L2187.90 2150.47 L2216.36 2150.47 L2216.36 2149.48 L2244.70 2149.48 L2244.70 2148.37 L2273.04 2148.37 L2273.04 2147.01 L2301.50 2147.01 L2301.50 2146.26 L2329.84 2146.26 L2329.84 2145.64 L2358.30 2145.64 L2358.30 2144.78 L2386.64 2144.78 L2386.64 2143.79 L2414.98 2143.79 L2414.98 2143.66 L2443.44 2143.66 L2443.44 2143.05 L2471.78 2143.05 L2471.78 2141.93 L2500.12 2141.93 L2500.12 2141.68" stroke-linejoin="round" style="fill:none;stroke:#90353B;stroke-width:8.64"/>
	<path d=" M939.14 2172.62 L939.14 2172.62 L939.14 2172.62 L939.14 2172.62 L939.14 2172.62 L967.48 2172.62 L967.48 2172.62 L995.94 2172.62 L995.94 2172.62 L1024.28 2172.62 L1024.28 2172.62 L1052.62 2172.62 L1052.62 2172.62 L1081.08 2172.62 L1081.08 2172.62 L1109.42 2172.62 L1109.42 2172.62 L1137.76 2172.62 L1137.76 2172.62 L1166.22 2172.62 L1166.22 2172.62 L1194.56 2172.62 L1194.56 2172.62 L1222.90 2172.62 L1222.90 2172.62 L1251.36 2172.62 L1251.36 2172.62 L1279.70 2172.62 L1279.70 2172.62 L1308.04 2172.62 L1308.04 2172.62 L1336.50 2172.62 L1336.50 2172.62 L1364.84 2172.62 L1364.84 2172.62 L1393.18 2172.62 L1393.18 2172.62 L1421.64 2172.62 L1421.64 2172.62 L1449.98 2172.62 L1449.98 2172.62 L1478.44 2172.62 L1478.44 2172.00 L1506.78 2172.00 L1506.78 2171.26 L1535.12 2171.26 L1535.12 2171.26 L1563.58 2171.26 L1563.58 2171.26 L1591.92 2171.26 L1591.92 2170.64 L1620.26 2170.64 L1620.26 2168.54 L1648.72 2168.54 L1648.72 2167.18 L1677.06 2167.18 L1677.06 2165.82 L1705.40 2165.82 L1705.40 2164.58 L1733.86 2164.58 L1733.86 2163.22 L1762.20 2163.22 L1762.20 2161.86 L1790.54 2161.86 L1790.54 2161.11 L1819.00 2161.11 L1819.00 2159.13 L1847.34 2159.13 L1847.34 2158.39 L1875.80 2158.39 L1875.80 2155.79 L1904.14 2155.79 L1904.14 2151.71 L1932.48 2151.71 L1932.48 2148.99 L1960.94 2148.99 L1960.94 2147.01 L1989.28 2147.01 L1989.28 2144.90 L2017.62 2144.90 L2017.62 2144.28 L2046.08 2144.28 L2046.08 2140.94 L2074.42 2140.94 L2074.42 2140.20 L2102.76 2140.20 L2102.76 2137.48 L2131.22 2137.48 L2131.22 2137.48 L2159.56 2137.48 L2159.56 2136.12 L2187.90 2136.12 L2187.90 2135.50 L2216.36 2135.50 L2216.36 2133.52 L2244.70 2133.52 L2244.70 2131.41 L2273.04 2131.41 L2273.04 2130.05 L2301.50 2130.05 L2301.50 2128.07 L2329.84 2128.07 L2329.84 2127.33 L2358.30 2127.33 L2358.30 2126.71 L2386.64 2126.71 L2386.64 2124.73 L2414.98 2124.73 L2414.98 2124.73 L2471.78 2124.73 L2471.78 2122.63 L2500.12 2122.63 L2500.12 2122.63" stroke-linejoin="round" style="fill:none;stroke:#55752F;stroke-width:8.64"/>
	<line x1="875.78" y1="2235.86" x2="875.78" y2="630.90" style="stroke:#000000;stroke-width:5.76"/>
	<line x1="875.78" y1="2172.62" x2="835.81" y2="2172.62" style="stroke:#000000;stroke-width:5.76"/>
	<text x="815.88" y="2200.63" style="font-family:'Helvetica';font-size:79.94px;fill:#000000" text-anchor="end">0.000</text>
	<line x1="875.78" y1="1802.97" x2="835.81" y2="1802.97" style="stroke:#000000;stroke-width:5.76"/>
	<text x="815.88" y="1830.98" style="font-family:'Helvetica';font-size:79.94px;fill:#000000" text-anchor="end">0.005</text>
	<line x1="875.78" y1="1433.44" x2="835.81" y2="1433.44" style="stroke:#000000;stroke-width:5.76"/>
	<text x="815.88" y="1461.45" style="font-family:'Helvetica';font-size:79.94px;fill:#000000" text-anchor="end">0.010</text>
	<line x1="875.78" y1="1063.79" x2="835.81" y2="1063.79" style="stroke:#000000;stroke-width:5.76"/>
	<text x="815.88" y="1091.80" style="font-family:'Helvetica';font-size:79.94px;fill:#000000" text-anchor="end">0.015</text>
	<line x1="875.78" y1="694.26" x2="835.81" y2="694.26" style="stroke:#000000;stroke-width:5.76"/>
	<text x="815.88" y="722.27" style="font-family:'Helvetica';font-size:79.94px;fill:#000000" text-anchor="end">0.020</text>
	<text x="939.14" y="2747.83" style="font-family:'Helvetica';font-size:60.02px;fill:#000000" text-anchor="middle">109590</text>
	<text x="1506.78" y="2747.83" style="font-family:'Helvetica';font-size:60.02px;fill:#000000" text-anchor="middle">109526</text>
	<text x="2074.42" y="2747.83" style="font-family:'Helvetica';font-size:60.02px;fill:#000000" text-anchor="middle">109385</text>
	<text x="2642.19" y="2747.83" style="font-family:'Helvetica';font-size:60.02px;fill:#000000" text-anchor="middle">0</text>
	<text x="3209.83" y="2747.83" style="font-family:'Helvetica';font-size:60.02px;fill:#000000" text-anchor="middle">0</text>
	<text x="3777.47" y="2747.83" style="font-family:'Helvetica';font-size:60.02px;fill:#000000" text-anchor="middle">0</text>
	<text x="797.32" y="2747.83" style="font-family:'Helvetica';font-size:60.02px;fill:#000000" text-anchor="end">ICS (High Dose)</text>
	<text x="939.14" y="2674.44" style="font-family:'Helvetica';font-size:60.02px;fill:#000000" text-anchor="middle">635353</text>
	<text x="1506.78" y="2674.44" style="font-family:'Helvetica';font-size:60.02px;fill:#000000" text-anchor="middle">635077</text>
	<text x="2074.42" y="2674.44" style="font-family:'Helvetica';font-size:60.02px;fill:#000000" text-anchor="middle">634561</text>
	<text x="2642.19" y="2674.44" style="font-family:'Helvetica';font-size:60.02px;fill:#000000" text-anchor="middle">0</text>
	<text x="3209.83" y="2674.44" style="font-family:'Helvetica';font-size:60.02px;fill:#000000" text-anchor="middle">0</text>
	<text x="3777.47" y="2674.44" style="font-family:'Helvetica';font-size:60.02px;fill:#000000" text-anchor="middle">0</text>
	<text x="797.32" y="2674.44" style="font-family:'Helvetica';font-size:60.02px;fill:#000000" text-anchor="end">ICS (Low/Medium Dose)</text>
	<text x="939.14" y="2601.18" style="font-family:'Helvetica';font-size:60.02px;fill:#000000" text-anchor="middle">112528</text>
	<text x="1506.78" y="2601.18" style="font-family:'Helvetica';font-size:60.02px;fill:#000000" text-anchor="middle">112473</text>
	<text x="2074.42" y="2601.18" style="font-family:'Helvetica';font-size:60.02px;fill:#000000" text-anchor="middle">112383</text>
	<text x="2642.19" y="2601.18" style="font-family:'Helvetica';font-size:60.02px;fill:#000000" text-anchor="middle">0</text>
	<text x="3209.83" y="2601.18" style="font-family:'Helvetica';font-size:60.02px;fill:#000000" text-anchor="middle">0</text>
	<text x="3777.47" y="2601.18" style="font-family:'Helvetica';font-size:60.02px;fill:#000000" text-anchor="middle">0</text>
	<text x="797.32" y="2601.18" style="font-family:'Helvetica';font-size:60.02px;fill:#000000" text-anchor="end">SABA only</text>
	<text x="797.32" y="2527.80" style="font-family:'Helvetica';font-size:60.02px;fill:#000000" text-anchor="end">Number at risk</text>
	<line x1="875.78" y1="2235.86" x2="3840.83" y2="2235.86" style="stroke:#000000;stroke-width:5.76"/>
	<line x1="939.14" y1="2235.86" x2="939.14" y2="2275.96" style="stroke:#000000;stroke-width:5.76"/>
	<text x="939.14" y="2351.78" style="font-family:'Helvetica';font-size:79.94px;fill:#000000" text-anchor="middle">0</text>
	<line x1="1506.78" y1="2235.86" x2="1506.78" y2="2275.96" style="stroke:#000000;stroke-width:5.76"/>
	<text x="1506.78" y="2351.78" style="font-family:'Helvetica';font-size:79.94px;fill:#000000" text-anchor="middle">20</text>
	<line x1="2074.42" y1="2235.86" x2="2074.42" y2="2275.96" style="stroke:#000000;stroke-width:5.76"/>
	<text x="2074.42" y="2351.78" style="font-family:'Helvetica';font-size:79.94px;fill:#000000" text-anchor="middle">40</text>
	<line x1="2642.19" y1="2235.86" x2="2642.19" y2="2275.96" style="stroke:#000000;stroke-width:5.76"/>
	<text x="2642.19" y="2351.78" style="font-family:'Helvetica';font-size:79.94px;fill:#000000" text-anchor="middle">60</text>
	<line x1="3209.83" y1="2235.86" x2="3209.83" y2="2275.96" style="stroke:#000000;stroke-width:5.76"/>
	<text x="3209.83" y="2351.78" style="font-family:'Helvetica';font-size:79.94px;fill:#000000" text-anchor="middle">80</text>
	<line x1="3777.47" y1="2235.86" x2="3777.47" y2="2275.96" style="stroke:#000000;stroke-width:5.76"/>
	<text x="3777.47" y="2351.78" style="font-family:'Helvetica';font-size:79.94px;fill:#000000" text-anchor="middle">100</text>
	<text x="2358.30" y="2441.87" style="font-family:'Helvetica';font-size:79.94px;fill:#000000" text-anchor="middle">Days since 1 Mar 2020</text>
	<rect x="1244.68" y="269.91" width="2227.25" height="326.46" style="fill:#FFFFFF"/>
	<rect x="1247.56" y="272.79" width="2221.49" height="320.70" style="fill:none;stroke:#EAF2F3;stroke-width:5.76"/>
	<line x1="1287.87" y1="363.09" x2="1662.21" y2="363.09" style="stroke:#1A476F;stroke-width:8.64"/>
	<line x1="2315.49" y1="363.09" x2="2689.83" y2="363.09" style="stroke:#90353B;stroke-width:8.64"/>
	<line x1="1287.87" y1="503.06" x2="1662.21" y2="503.06" style="stroke:#55752F;stroke-width:8.64"/>
	<text x="1722.23" y="384.13" style="font-family:'Helvetica';font-size:60.02px;fill:#000000">SABA only</text>
	<text x="2749.85" y="384.13" style="font-family:'Helvetica';font-size:60.02px;fill:#000000">ICS (Low/Medium Dose)</text>
	<text x="1722.23" y="524.10" style="font-family:'Helvetica';font-size:60.02px;fill:#000000">ICS (High Dose)</text>
	<text x="1127.49" y="187.99" style="font-family:'Helvetica';font-size:99.99px;fill:#1E2D53">Time to Hospital COVID-19 death, Asthma population</text>
</svg>
