<?xml version="1.0" encoding="UTF-8" standalone="no"?>
<!-- This is a Stata 16.1 generated SVG file (http://www.stata.com) -->

<svg version="1.1" width="5.50in" height="4.00in" viewBox="0 0 3960 2880" xmlns="http://www.w3.org/2000/svg" xmlns:xlink="http://www.w3.org/1999/xlink">
	<desc>Stata Graph - Graph</desc>
	<rect x="0" y="0" width="3960" height="2880" style="fill:#FFFFFF;stroke:none"/>
	<rect x="0.00" y="0.00" width="3959.88" height="2880.00" style="fill:#FFFFFF"/>
	<rect x="2.88" y="2.88" width="3954.12" height="2874.24" style="fill:none;stroke:#FFFFFF;stroke-width:5.76"/>
	<rect x="353.59" y="238.26" width="3502.55" height="2173.55" style="fill:none;stroke:#000000;stroke-width:5.76"/>
	<circle cx="414.07" cy="780.64" r="14.97" style="fill:none;stroke:#606060;stroke-width:8.64"/>
	<circle cx="496.49" cy="821.23" r="14.97" style="fill:none;stroke:#606060;stroke-width:8.64"/>
	<circle cx="579.03" cy="1111.19" r="14.97" style="fill:none;stroke:#606060;stroke-width:8.64"/>
	<circle cx="579.03" cy="1109.82" r="14.97" style="fill:none;stroke:#606060;stroke-width:8.64"/>
	<circle cx="661.44" cy="1215.88" r="14.97" style="fill:none;stroke:#606060;stroke-width:8.64"/>
	<circle cx="661.44" cy="1258.58" r="14.97" style="fill:none;stroke:#606060;stroke-width:8.64"/>
	<circle cx="661.44" cy="1170.22" r="14.97" style="fill:none;stroke:#606060;stroke-width:8.64"/>
	<circle cx="661.44" cy="2157.90" r="14.97" style="fill:none;stroke:#606060;stroke-width:8.64"/>
	<circle cx="661.44" cy="1184.08" r="14.97" style="fill:none;stroke:#606060;stroke-width:8.64"/>
	<circle cx="661.44" cy="1143.73" r="14.97" style="fill:none;stroke:#606060;stroke-width:8.64"/>
	<circle cx="743.99" cy="1151.78" r="14.97" style="fill:none;stroke:#606060;stroke-width:8.64"/>
	<circle cx="743.99" cy="2134.14" r="14.97" style="fill:none;stroke:#606060;stroke-width:8.64"/>
	<circle cx="743.99" cy="815.66" r="14.97" style="fill:none;stroke:#606060;stroke-width:8.64"/>
	<circle cx="743.99" cy="2191.43" r="14.97" style="fill:none;stroke:#606060;stroke-width:8.64"/>
	<circle cx="743.99" cy="1197.94" r="14.97" style="fill:none;stroke:#606060;stroke-width:8.64"/>
	<circle cx="826.40" cy="728.66" r="14.97" style="fill:none;stroke:#606060;stroke-width:8.64"/>
	<circle cx="826.40" cy="1173.43" r="14.97" style="fill:none;stroke:#606060;stroke-width:8.64"/>
	<circle cx="826.40" cy="1088.17" r="14.97" style="fill:none;stroke:#606060;stroke-width:8.64"/>
	<circle cx="826.40" cy="773.21" r="14.97" style="fill:none;stroke:#606060;stroke-width:8.64"/>
	<circle cx="826.40" cy="778.16" r="14.97" style="fill:none;stroke:#606060;stroke-width:8.64"/>
	<circle cx="908.94" cy="1301.52" r="14.97" style="fill:none;stroke:#606060;stroke-width:8.64"/>
	<circle cx="908.94" cy="833.11" r="14.97" style="fill:none;stroke:#606060;stroke-width:8.64"/>
	<circle cx="908.94" cy="1140.64" r="14.97" style="fill:none;stroke:#606060;stroke-width:8.64"/>
	<circle cx="908.94" cy="1141.38" r="14.97" style="fill:none;stroke:#606060;stroke-width:8.64"/>
	<circle cx="908.94" cy="789.55" r="14.97" style="fill:none;stroke:#606060;stroke-width:8.64"/>
	<circle cx="908.94" cy="1157.84" r="14.97" style="fill:none;stroke:#606060;stroke-width:8.64"/>
	<circle cx="991.36" cy="2140.57" r="14.97" style="fill:none;stroke:#606060;stroke-width:8.64"/>
	<circle cx="991.36" cy="1179.75" r="14.97" style="fill:none;stroke:#606060;stroke-width:8.64"/>
	<circle cx="991.36" cy="1183.21" r="14.97" style="fill:none;stroke:#606060;stroke-width:8.64"/>
	<circle cx="991.36" cy="1287.91" r="14.97" style="fill:none;stroke:#606060;stroke-width:8.64"/>
	<circle cx="991.36" cy="677.80" r="14.97" style="fill:none;stroke:#606060;stroke-width:8.64"/>
	<circle cx="1073.90" cy="797.10" r="14.97" style="fill:none;stroke:#606060;stroke-width:8.64"/>
	<circle cx="1073.90" cy="2208.26" r="14.97" style="fill:none;stroke:#606060;stroke-width:8.64"/>
	<circle cx="1073.90" cy="665.18" r="14.97" style="fill:none;stroke:#606060;stroke-width:8.64"/>
	<circle cx="1073.90" cy="1139.15" r="14.97" style="fill:none;stroke:#606060;stroke-width:8.64"/>
	<circle cx="1073.90" cy="1234.82" r="14.97" style="fill:none;stroke:#606060;stroke-width:8.64"/>
	<circle cx="1156.32" cy="1230.36" r="14.97" style="fill:none;stroke:#606060;stroke-width:8.64"/>
	<circle cx="1156.32" cy="1168.24" r="14.97" style="fill:none;stroke:#606060;stroke-width:8.64"/>
	<circle cx="1156.32" cy="1194.72" r="14.97" style="fill:none;stroke:#606060;stroke-width:8.64"/>
	<circle cx="1156.32" cy="1173.81" r="14.97" style="fill:none;stroke:#606060;stroke-width:8.64"/>
	<circle cx="1156.32" cy="1168.11" r="14.97" style="fill:none;stroke:#606060;stroke-width:8.64"/>
	<circle cx="1156.32" cy="1146.21" r="14.97" style="fill:none;stroke:#606060;stroke-width:8.64"/>
	<circle cx="1156.32" cy="801.55" r="14.97" style="fill:none;stroke:#606060;stroke-width:8.64"/>
	<circle cx="1156.32" cy="1167.37" r="14.97" style="fill:none;stroke:#606060;stroke-width:8.64"/>
	<circle cx="1156.32" cy="1192.62" r="14.97" style="fill:none;stroke:#606060;stroke-width:8.64"/>
	<circle cx="1156.32" cy="1150.29" r="14.97" style="fill:none;stroke:#606060;stroke-width:8.64"/>
	<circle cx="1156.32" cy="1199.17" r="14.97" style="fill:none;stroke:#606060;stroke-width:8.64"/>
	<circle cx="1156.32" cy="2164.70" r="14.97" style="fill:none;stroke:#606060;stroke-width:8.64"/>
	<circle cx="1156.32" cy="1231.23" r="14.97" style="fill:none;stroke:#606060;stroke-width:8.64"/>
	<circle cx="1156.32" cy="1297.31" r="14.97" style="fill:none;stroke:#606060;stroke-width:8.64"/>
	<circle cx="1156.32" cy="1171.83" r="14.97" style="fill:none;stroke:#606060;stroke-width:8.64"/>
	<circle cx="1238.86" cy="1222.69" r="14.97" style="fill:none;stroke:#606060;stroke-width:8.64"/>
	<circle cx="1238.86" cy="1221.08" r="14.97" style="fill:none;stroke:#606060;stroke-width:8.64"/>
	<circle cx="1238.86" cy="1188.90" r="14.97" style="fill:none;stroke:#606060;stroke-width:8.64"/>
	<circle cx="1238.86" cy="1180.98" r="14.97" style="fill:none;stroke:#606060;stroke-width:8.64"/>
	<circle cx="1238.86" cy="2137.97" r="14.97" style="fill:none;stroke:#606060;stroke-width:8.64"/>
	<circle cx="1238.86" cy="849.82" r="14.97" style="fill:none;stroke:#606060;stroke-width:8.64"/>
	<circle cx="1238.86" cy="2293.28" r="14.97" style="fill:none;stroke:#606060;stroke-width:8.64"/>
	<circle cx="1238.86" cy="1203.75" r="14.97" style="fill:none;stroke:#606060;stroke-width:8.64"/>
	<circle cx="1238.86" cy="1161.43" r="14.97" style="fill:none;stroke:#606060;stroke-width:8.64"/>
	<circle cx="1321.28" cy="1294.34" r="14.97" style="fill:none;stroke:#606060;stroke-width:8.64"/>
	<circle cx="1321.28" cy="2300.46" r="14.97" style="fill:none;stroke:#606060;stroke-width:8.64"/>
	<circle cx="1321.28" cy="720.62" r="14.97" style="fill:none;stroke:#606060;stroke-width:8.64"/>
	<circle cx="1321.28" cy="1193.36" r="14.97" style="fill:none;stroke:#606060;stroke-width:8.64"/>
	<circle cx="1321.28" cy="2234.50" r="14.97" style="fill:none;stroke:#606060;stroke-width:8.64"/>
	<circle cx="1321.28" cy="1244.72" r="14.97" style="fill:none;stroke:#606060;stroke-width:8.64"/>
	<circle cx="1321.28" cy="1283.70" r="14.97" style="fill:none;stroke:#606060;stroke-width:8.64"/>
	<circle cx="1321.28" cy="1161.80" r="14.97" style="fill:none;stroke:#606060;stroke-width:8.64"/>
	<circle cx="1403.82" cy="1293.60" r="14.97" style="fill:none;stroke:#606060;stroke-width:8.64"/>
	<circle cx="1403.82" cy="1198.68" r="14.97" style="fill:none;stroke:#606060;stroke-width:8.64"/>
	<circle cx="1403.82" cy="693.89" r="14.97" style="fill:none;stroke:#606060;stroke-width:8.64"/>
	<circle cx="1403.82" cy="1291.25" r="14.97" style="fill:none;stroke:#606060;stroke-width:8.64"/>
	<circle cx="1403.82" cy="1169.60" r="14.97" style="fill:none;stroke:#606060;stroke-width:8.64"/>
	<circle cx="1403.82" cy="1181.11" r="14.97" style="fill:none;stroke:#606060;stroke-width:8.64"/>
	<circle cx="1403.82" cy="1221.33" r="14.97" style="fill:none;stroke:#606060;stroke-width:8.64"/>
	<circle cx="1403.82" cy="1211.92" r="14.97" style="fill:none;stroke:#606060;stroke-width:8.64"/>
	<circle cx="1403.82" cy="1106.85" r="14.97" style="fill:none;stroke:#606060;stroke-width:8.64"/>
	<circle cx="1403.82" cy="675.57" r="14.97" style="fill:none;stroke:#606060;stroke-width:8.64"/>
	<circle cx="1403.82" cy="1217.99" r="14.97" style="fill:none;stroke:#606060;stroke-width:8.64"/>
	<circle cx="1403.82" cy="1167.12" r="14.97" style="fill:none;stroke:#606060;stroke-width:8.64"/>
	<circle cx="1403.82" cy="1189.27" r="14.97" style="fill:none;stroke:#606060;stroke-width:8.64"/>
	<circle cx="1486.24" cy="1326.02" r="14.97" style="fill:none;stroke:#606060;stroke-width:8.64"/>
	<circle cx="1486.24" cy="1189.89" r="14.97" style="fill:none;stroke:#606060;stroke-width:8.64"/>
	<circle cx="1486.24" cy="1063.42" r="14.97" style="fill:none;stroke:#606060;stroke-width:8.64"/>
	<circle cx="1486.24" cy="1211.80" r="14.97" style="fill:none;stroke:#606060;stroke-width:8.64"/>
	<circle cx="1486.24" cy="1230.73" r="14.97" style="fill:none;stroke:#606060;stroke-width:8.64"/>
	<circle cx="1486.24" cy="1305.36" r="14.97" style="fill:none;stroke:#606060;stroke-width:8.64"/>
	<circle cx="1486.24" cy="1192.62" r="14.97" style="fill:none;stroke:#606060;stroke-width:8.64"/>
	<circle cx="1486.24" cy="1254.00" r="14.97" style="fill:none;stroke:#606060;stroke-width:8.64"/>
	<circle cx="1486.24" cy="718.51" r="14.97" style="fill:none;stroke:#606060;stroke-width:8.64"/>
	<circle cx="1568.78" cy="1201.90" r="14.97" style="fill:none;stroke:#606060;stroke-width:8.64"/>
	<circle cx="1568.78" cy="1222.56" r="14.97" style="fill:none;stroke:#606060;stroke-width:8.64"/>
	<circle cx="1568.78" cy="1230.98" r="14.97" style="fill:none;stroke:#606060;stroke-width:8.64"/>
	<circle cx="1568.78" cy="644.63" r="14.97" style="fill:none;stroke:#606060;stroke-width:8.64"/>
	<circle cx="1568.78" cy="1197.32" r="14.97" style="fill:none;stroke:#606060;stroke-width:8.64"/>
	<circle cx="1568.78" cy="1227.89" r="14.97" style="fill:none;stroke:#606060;stroke-width:8.64"/>
	<circle cx="1568.78" cy="1274.54" r="14.97" style="fill:none;stroke:#606060;stroke-width:8.64"/>
	<circle cx="1568.78" cy="2211.98" r="14.97" style="fill:none;stroke:#606060;stroke-width:8.64"/>
	<circle cx="1568.78" cy="1145.84" r="14.97" style="fill:none;stroke:#606060;stroke-width:8.64"/>
	<circle cx="1568.78" cy="826.06" r="14.97" style="fill:none;stroke:#606060;stroke-width:8.64"/>
	<circle cx="1568.78" cy="1214.89" r="14.97" style="fill:none;stroke:#606060;stroke-width:8.64"/>
	<circle cx="1568.78" cy="1172.57" r="14.97" style="fill:none;stroke:#606060;stroke-width:8.64"/>
	<circle cx="1568.78" cy="1186.18" r="14.97" style="fill:none;stroke:#606060;stroke-width:8.64"/>
	<circle cx="1651.20" cy="792.15" r="14.97" style="fill:none;stroke:#606060;stroke-width:8.64"/>
	<circle cx="1651.20" cy="742.77" r="14.97" style="fill:none;stroke:#606060;stroke-width:8.64"/>
	<circle cx="1651.20" cy="1158.21" r="14.97" style="fill:none;stroke:#606060;stroke-width:8.64"/>
	<circle cx="1651.20" cy="1187.42" r="14.97" style="fill:none;stroke:#606060;stroke-width:8.64"/>
	<circle cx="1651.20" cy="1152.89" r="14.97" style="fill:none;stroke:#606060;stroke-width:8.64"/>
	<circle cx="1651.20" cy="772.97" r="14.97" style="fill:none;stroke:#606060;stroke-width:8.64"/>
	<circle cx="1651.20" cy="1282.09" r="14.97" style="fill:none;stroke:#606060;stroke-width:8.64"/>
	<circle cx="1651.20" cy="711.34" r="14.97" style="fill:none;stroke:#606060;stroke-width:8.64"/>
	<circle cx="1651.20" cy="1301.52" r="14.97" style="fill:none;stroke:#606060;stroke-width:8.64"/>
	<circle cx="1651.20" cy="1168.98" r="14.97" style="fill:none;stroke:#606060;stroke-width:8.64"/>
	<circle cx="1651.20" cy="677.18" r="14.97" style="fill:none;stroke:#606060;stroke-width:8.64"/>
	<circle cx="1651.20" cy="1254.99" r="14.97" style="fill:none;stroke:#606060;stroke-width:8.64"/>
	<circle cx="1651.20" cy="678.91" r="14.97" style="fill:none;stroke:#606060;stroke-width:8.64"/>
	<circle cx="1651.20" cy="1170.71" r="14.97" style="fill:none;stroke:#606060;stroke-width:8.64"/>
	<circle cx="1651.20" cy="1135.07" r="14.97" style="fill:none;stroke:#606060;stroke-width:8.64"/>
	<circle cx="1733.74" cy="1316.49" r="14.97" style="fill:none;stroke:#606060;stroke-width:8.64"/>
	<circle cx="1733.74" cy="1259.69" r="14.97" style="fill:none;stroke:#606060;stroke-width:8.64"/>
	<circle cx="1733.74" cy="751.43" r="14.97" style="fill:none;stroke:#606060;stroke-width:8.64"/>
	<circle cx="1733.74" cy="1195.09" r="14.97" style="fill:none;stroke:#606060;stroke-width:8.64"/>
	<circle cx="1733.74" cy="1198.80" r="14.97" style="fill:none;stroke:#606060;stroke-width:8.64"/>
	<circle cx="1733.74" cy="1215.51" r="14.97" style="fill:none;stroke:#606060;stroke-width:8.64"/>
	<circle cx="1733.74" cy="702.92" r="14.97" style="fill:none;stroke:#606060;stroke-width:8.64"/>
	<circle cx="1733.74" cy="775.07" r="14.97" style="fill:none;stroke:#606060;stroke-width:8.64"/>
	<circle cx="1733.74" cy="2188.59" r="14.97" style="fill:none;stroke:#606060;stroke-width:8.64"/>
	<circle cx="1733.74" cy="1063.66" r="14.97" style="fill:none;stroke:#606060;stroke-width:8.64"/>
	<circle cx="1733.74" cy="1256.10" r="14.97" style="fill:none;stroke:#606060;stroke-width:8.64"/>
	<circle cx="1733.74" cy="746.24" r="14.97" style="fill:none;stroke:#606060;stroke-width:8.64"/>
	<circle cx="1733.74" cy="2328.55" r="14.97" style="fill:none;stroke:#606060;stroke-width:8.64"/>
	<circle cx="1733.74" cy="1291.50" r="14.97" style="fill:none;stroke:#606060;stroke-width:8.64"/>
	<circle cx="1816.15" cy="2202.70" r="14.97" style="fill:none;stroke:#606060;stroke-width:8.64"/>
	<circle cx="1816.15" cy="2271.50" r="14.97" style="fill:none;stroke:#606060;stroke-width:8.64"/>
	<circle cx="1816.15" cy="1202.76" r="14.97" style="fill:none;stroke:#606060;stroke-width:8.64"/>
	<circle cx="1816.15" cy="1184.45" r="14.97" style="fill:none;stroke:#606060;stroke-width:8.64"/>
	<circle cx="1816.15" cy="1177.52" r="14.97" style="fill:none;stroke:#606060;stroke-width:8.64"/>
	<circle cx="1816.15" cy="1184.45" r="14.97" style="fill:none;stroke:#606060;stroke-width:8.64"/>
	<circle cx="1816.15" cy="1292.11" r="14.97" style="fill:none;stroke:#606060;stroke-width:8.64"/>
	<circle cx="1816.15" cy="658.87" r="14.97" style="fill:none;stroke:#606060;stroke-width:8.64"/>
	<circle cx="1816.15" cy="1189.65" r="14.97" style="fill:none;stroke:#606060;stroke-width:8.64"/>
	<circle cx="1816.15" cy="804.03" r="14.97" style="fill:none;stroke:#606060;stroke-width:8.64"/>
	<circle cx="1816.15" cy="783.86" r="14.97" style="fill:none;stroke:#606060;stroke-width:8.64"/>
	<circle cx="1816.15" cy="1198.93" r="14.97" style="fill:none;stroke:#606060;stroke-width:8.64"/>
	<circle cx="1816.15" cy="1186.92" r="14.97" style="fill:none;stroke:#606060;stroke-width:8.64"/>
	<circle cx="1816.15" cy="1241.99" r="14.97" style="fill:none;stroke:#606060;stroke-width:8.64"/>
	<circle cx="1898.70" cy="1250.29" r="14.97" style="fill:none;stroke:#606060;stroke-width:8.64"/>
	<circle cx="1898.70" cy="1169.10" r="14.97" style="fill:none;stroke:#606060;stroke-width:8.64"/>
	<circle cx="1898.70" cy="1265.14" r="14.97" style="fill:none;stroke:#606060;stroke-width:8.64"/>
	<circle cx="1898.70" cy="1222.94" r="14.97" style="fill:none;stroke:#606060;stroke-width:8.64"/>
	<circle cx="1898.70" cy="1264.76" r="14.97" style="fill:none;stroke:#606060;stroke-width:8.64"/>
	<circle cx="1898.70" cy="1230.98" r="14.97" style="fill:none;stroke:#606060;stroke-width:8.64"/>
	<circle cx="1898.70" cy="2199.11" r="14.97" style="fill:none;stroke:#606060;stroke-width:8.64"/>
	<circle cx="1898.70" cy="735.22" r="14.97" style="fill:none;stroke:#606060;stroke-width:8.64"/>
	<circle cx="1898.70" cy="1182.96" r="14.97" style="fill:none;stroke:#606060;stroke-width:8.64"/>
	<circle cx="1898.70" cy="1170.84" r="14.97" style="fill:none;stroke:#606060;stroke-width:8.64"/>
	<circle cx="1898.70" cy="1273.80" r="14.97" style="fill:none;stroke:#606060;stroke-width:8.64"/>
	<circle cx="1898.70" cy="2277.44" r="14.97" style="fill:none;stroke:#606060;stroke-width:8.64"/>
	<circle cx="1898.70" cy="1229.49" r="14.97" style="fill:none;stroke:#606060;stroke-width:8.64"/>
	<circle cx="1898.70" cy="1156.48" r="14.97" style="fill:none;stroke:#606060;stroke-width:8.64"/>
	<circle cx="1898.70" cy="1290.75" r="14.97" style="fill:none;stroke:#606060;stroke-width:8.64"/>
	<circle cx="1898.70" cy="733.24" r="14.97" style="fill:none;stroke:#606060;stroke-width:8.64"/>
	<circle cx="1898.70" cy="809.72" r="14.97" style="fill:none;stroke:#606060;stroke-width:8.64"/>
	<circle cx="1981.11" cy="1212.29" r="14.97" style="fill:none;stroke:#606060;stroke-width:8.64"/>
	<circle cx="1981.11" cy="1181.11" r="14.97" style="fill:none;stroke:#606060;stroke-width:8.64"/>
	<circle cx="1981.11" cy="1199.55" r="14.97" style="fill:none;stroke:#606060;stroke-width:8.64"/>
	<circle cx="1981.11" cy="1164.28" r="14.97" style="fill:none;stroke:#606060;stroke-width:8.64"/>
	<circle cx="1981.11" cy="1279.61" r="14.97" style="fill:none;stroke:#606060;stroke-width:8.64"/>
	<circle cx="1981.11" cy="2051.96" r="14.97" style="fill:none;stroke:#606060;stroke-width:8.64"/>
	<circle cx="1981.11" cy="1249.30" r="14.97" style="fill:none;stroke:#606060;stroke-width:8.64"/>
	<circle cx="1981.11" cy="1231.85" r="14.97" style="fill:none;stroke:#606060;stroke-width:8.64"/>
	<circle cx="1981.11" cy="1174.42" r="14.97" style="fill:none;stroke:#606060;stroke-width:8.64"/>
	<circle cx="1981.11" cy="1190.39" r="14.97" style="fill:none;stroke:#606060;stroke-width:8.64"/>
	<circle cx="1981.11" cy="1297.81" r="14.97" style="fill:none;stroke:#606060;stroke-width:8.64"/>
	<circle cx="1981.11" cy="700.57" r="14.97" style="fill:none;stroke:#606060;stroke-width:8.64"/>
	<circle cx="1981.11" cy="2179.80" r="14.97" style="fill:none;stroke:#606060;stroke-width:8.64"/>
	<circle cx="1981.11" cy="1140.02" r="14.97" style="fill:none;stroke:#606060;stroke-width:8.64"/>
	<circle cx="1981.11" cy="1226.52" r="14.97" style="fill:none;stroke:#606060;stroke-width:8.64"/>
	<circle cx="1981.11" cy="1164.52" r="14.97" style="fill:none;stroke:#606060;stroke-width:8.64"/>
	<circle cx="1981.11" cy="1201.53" r="14.97" style="fill:none;stroke:#606060;stroke-width:8.64"/>
	<circle cx="1981.11" cy="1136.80" r="14.97" style="fill:none;stroke:#606060;stroke-width:8.64"/>
	<circle cx="1981.11" cy="1202.89" r="14.97" style="fill:none;stroke:#606060;stroke-width:8.64"/>
	<circle cx="2063.66" cy="1301.77" r="14.97" style="fill:none;stroke:#606060;stroke-width:8.64"/>
	<circle cx="2063.66" cy="708.37" r="14.97" style="fill:none;stroke:#606060;stroke-width:8.64"/>
	<circle cx="2063.66" cy="724.21" r="14.97" style="fill:none;stroke:#606060;stroke-width:8.64"/>
	<circle cx="2063.66" cy="1198.31" r="14.97" style="fill:none;stroke:#606060;stroke-width:8.64"/>
	<circle cx="2063.66" cy="1168.61" r="14.97" style="fill:none;stroke:#606060;stroke-width:8.64"/>
	<circle cx="2063.66" cy="1197.81" r="14.97" style="fill:none;stroke:#606060;stroke-width:8.64"/>
	<circle cx="2063.66" cy="787.94" r="14.97" style="fill:none;stroke:#606060;stroke-width:8.64"/>
	<circle cx="2063.66" cy="675.20" r="14.97" style="fill:none;stroke:#606060;stroke-width:8.64"/>
	<circle cx="2063.66" cy="1180.98" r="14.97" style="fill:none;stroke:#606060;stroke-width:8.64"/>
	<circle cx="2063.66" cy="1200.17" r="14.97" style="fill:none;stroke:#606060;stroke-width:8.64"/>
	<circle cx="2063.66" cy="688.32" r="14.97" style="fill:none;stroke:#606060;stroke-width:8.64"/>
	<circle cx="2146.07" cy="2227.82" r="14.97" style="fill:none;stroke:#606060;stroke-width:8.64"/>
	<circle cx="2146.07" cy="1217.00" r="14.97" style="fill:none;stroke:#606060;stroke-width:8.64"/>
	<circle cx="2146.07" cy="1210.68" r="14.97" style="fill:none;stroke:#606060;stroke-width:8.64"/>
	<circle cx="2146.07" cy="1197.19" r="14.97" style="fill:none;stroke:#606060;stroke-width:8.64"/>
	<circle cx="2146.07" cy="1201.16" r="14.97" style="fill:none;stroke:#606060;stroke-width:8.64"/>
	<circle cx="2146.07" cy="1283.20" r="14.97" style="fill:none;stroke:#606060;stroke-width:8.64"/>
	<circle cx="2146.07" cy="1164.77" r="14.97" style="fill:none;stroke:#606060;stroke-width:8.64"/>
	<circle cx="2146.07" cy="1169.10" r="14.97" style="fill:none;stroke:#606060;stroke-width:8.64"/>
	<circle cx="2146.07" cy="1270.33" r="14.97" style="fill:none;stroke:#606060;stroke-width:8.64"/>
	<circle cx="2146.07" cy="1159.45" r="14.97" style="fill:none;stroke:#606060;stroke-width:8.64"/>
	<circle cx="2146.07" cy="1297.81" r="14.97" style="fill:none;stroke:#606060;stroke-width:8.64"/>
	<circle cx="2146.07" cy="682.38" r="14.97" style="fill:none;stroke:#606060;stroke-width:8.64"/>
	<circle cx="2146.07" cy="1236.92" r="14.97" style="fill:none;stroke:#606060;stroke-width:8.64"/>
	<circle cx="2146.07" cy="1217.74" r="14.97" style="fill:none;stroke:#606060;stroke-width:8.64"/>
	<circle cx="2228.61" cy="1188.90" r="14.97" style="fill:none;stroke:#606060;stroke-width:8.64"/>
	<circle cx="2228.61" cy="2182.28" r="14.97" style="fill:none;stroke:#606060;stroke-width:8.64"/>
	<circle cx="2228.61" cy="1150.79" r="14.97" style="fill:none;stroke:#606060;stroke-width:8.64"/>
	<circle cx="2228.61" cy="1243.60" r="14.97" style="fill:none;stroke:#606060;stroke-width:8.64"/>
	<circle cx="2228.61" cy="1181.35" r="14.97" style="fill:none;stroke:#606060;stroke-width:8.64"/>
	<circle cx="2228.61" cy="2119.53" r="14.97" style="fill:none;stroke:#606060;stroke-width:8.64"/>
	<circle cx="2228.61" cy="704.78" r="14.97" style="fill:none;stroke:#606060;stroke-width:8.64"/>
	<circle cx="2228.61" cy="1178.76" r="14.97" style="fill:none;stroke:#606060;stroke-width:8.64"/>
	<circle cx="2228.61" cy="2194.77" r="14.97" style="fill:none;stroke:#606060;stroke-width:8.64"/>
	<circle cx="2228.61" cy="659.48" r="14.97" style="fill:none;stroke:#606060;stroke-width:8.64"/>
	<circle cx="2228.61" cy="1275.28" r="14.97" style="fill:none;stroke:#606060;stroke-width:8.64"/>
	<circle cx="2228.61" cy="1266.99" r="14.97" style="fill:none;stroke:#606060;stroke-width:8.64"/>
	<circle cx="2228.61" cy="1162.42" r="14.97" style="fill:none;stroke:#606060;stroke-width:8.64"/>
	<circle cx="2228.61" cy="775.44" r="14.97" style="fill:none;stroke:#606060;stroke-width:8.64"/>
	<circle cx="2311.03" cy="1123.31" r="14.97" style="fill:none;stroke:#606060;stroke-width:8.64"/>
	<circle cx="2311.03" cy="2234.38" r="14.97" style="fill:none;stroke:#606060;stroke-width:8.64"/>
	<circle cx="2311.03" cy="1101.53" r="14.97" style="fill:none;stroke:#606060;stroke-width:8.64"/>
	<circle cx="2311.03" cy="1224.67" r="14.97" style="fill:none;stroke:#606060;stroke-width:8.64"/>
	<circle cx="2311.03" cy="1255.98" r="14.97" style="fill:none;stroke:#606060;stroke-width:8.64"/>
	<circle cx="2311.03" cy="1273.06" r="14.97" style="fill:none;stroke:#606060;stroke-width:8.64"/>
	<circle cx="2311.03" cy="1299.79" r="14.97" style="fill:none;stroke:#606060;stroke-width:8.64"/>
	<circle cx="2311.03" cy="1158.34" r="14.97" style="fill:none;stroke:#606060;stroke-width:8.64"/>
	<circle cx="2311.03" cy="1190.02" r="14.97" style="fill:none;stroke:#606060;stroke-width:8.64"/>
	<circle cx="2393.57" cy="1196.82" r="14.97" style="fill:none;stroke:#606060;stroke-width:8.64"/>
	<circle cx="2393.57" cy="1130.49" r="14.97" style="fill:none;stroke:#606060;stroke-width:8.64"/>
	<circle cx="2393.57" cy="1176.53" r="14.97" style="fill:none;stroke:#606060;stroke-width:8.64"/>
	<circle cx="2393.57" cy="1174.92" r="14.97" style="fill:none;stroke:#606060;stroke-width:8.64"/>
	<circle cx="2393.57" cy="1218.23" r="14.97" style="fill:none;stroke:#606060;stroke-width:8.64"/>
	<circle cx="2393.57" cy="792.27" r="14.97" style="fill:none;stroke:#606060;stroke-width:8.64"/>
	<circle cx="2393.57" cy="681.88" r="14.97" style="fill:none;stroke:#606060;stroke-width:8.64"/>
	<circle cx="2475.99" cy="1155.12" r="14.97" style="fill:none;stroke:#606060;stroke-width:8.64"/>
	<circle cx="2475.99" cy="2174.73" r="14.97" style="fill:none;stroke:#606060;stroke-width:8.64"/>
	<circle cx="2475.99" cy="1205.98" r="14.97" style="fill:none;stroke:#606060;stroke-width:8.64"/>
	<circle cx="2475.99" cy="1175.29" r="14.97" style="fill:none;stroke:#606060;stroke-width:8.64"/>
	<circle cx="2475.99" cy="1137.42" r="14.97" style="fill:none;stroke:#606060;stroke-width:8.64"/>
	<circle cx="2475.99" cy="1304.74" r="14.97" style="fill:none;stroke:#606060;stroke-width:8.64"/>
	<circle cx="2475.99" cy="1149.55" r="14.97" style="fill:none;stroke:#606060;stroke-width:8.64"/>
	<circle cx="2475.99" cy="690.30" r="14.97" style="fill:none;stroke:#606060;stroke-width:8.64"/>
	<circle cx="2475.99" cy="1157.84" r="14.97" style="fill:none;stroke:#606060;stroke-width:8.64"/>
	<circle cx="2475.99" cy="1169.47" r="14.97" style="fill:none;stroke:#606060;stroke-width:8.64"/>
	<circle cx="2475.99" cy="1123.93" r="14.97" style="fill:none;stroke:#606060;stroke-width:8.64"/>
	<circle cx="2558.53" cy="1314.39" r="14.97" style="fill:none;stroke:#606060;stroke-width:8.64"/>
	<circle cx="2558.53" cy="1199.79" r="14.97" style="fill:none;stroke:#606060;stroke-width:8.64"/>
	<circle cx="2558.53" cy="1183.83" r="14.97" style="fill:none;stroke:#606060;stroke-width:8.64"/>
	<circle cx="2558.53" cy="1270.09" r="14.97" style="fill:none;stroke:#606060;stroke-width:8.64"/>
	<circle cx="2558.53" cy="699.33" r="14.97" style="fill:none;stroke:#606060;stroke-width:8.64"/>
	<circle cx="2558.53" cy="832.37" r="14.97" style="fill:none;stroke:#606060;stroke-width:8.64"/>
	<circle cx="2558.53" cy="1282.34" r="14.97" style="fill:none;stroke:#606060;stroke-width:8.64"/>
	<circle cx="2558.53" cy="678.17" r="14.97" style="fill:none;stroke:#606060;stroke-width:8.64"/>
	<circle cx="2558.53" cy="1121.83" r="14.97" style="fill:none;stroke:#606060;stroke-width:8.64"/>
	<circle cx="2640.95" cy="637.70" r="14.97" style="fill:none;stroke:#606060;stroke-width:8.64"/>
	<circle cx="2640.95" cy="1293.10" r="14.97" style="fill:none;stroke:#606060;stroke-width:8.64"/>
	<circle cx="2640.95" cy="677.68" r="14.97" style="fill:none;stroke:#606060;stroke-width:8.64"/>
	<circle cx="2640.95" cy="1266.37" r="14.97" style="fill:none;stroke:#606060;stroke-width:8.64"/>
	<circle cx="2640.95" cy="754.53" r="14.97" style="fill:none;stroke:#606060;stroke-width:8.64"/>
	<circle cx="2640.95" cy="1218.73" r="14.97" style="fill:none;stroke:#606060;stroke-width:8.64"/>
	<circle cx="2640.95" cy="2201.46" r="14.97" style="fill:none;stroke:#606060;stroke-width:8.64"/>
	<circle cx="2640.95" cy="1305.73" r="14.97" style="fill:none;stroke:#606060;stroke-width:8.64"/>
	<circle cx="2640.95" cy="1171.21" r="14.97" style="fill:none;stroke:#606060;stroke-width:8.64"/>
	<circle cx="2640.95" cy="1170.84" r="14.97" style="fill:none;stroke:#606060;stroke-width:8.64"/>
	<circle cx="2640.95" cy="1221.82" r="14.97" style="fill:none;stroke:#606060;stroke-width:8.64"/>
	<circle cx="2640.95" cy="1164.40" r="14.97" style="fill:none;stroke:#606060;stroke-width:8.64"/>
	<circle cx="2723.49" cy="1130.12" r="14.97" style="fill:none;stroke:#606060;stroke-width:8.64"/>
	<circle cx="2723.49" cy="1184.94" r="14.97" style="fill:none;stroke:#606060;stroke-width:8.64"/>
	<circle cx="2723.49" cy="1211.67" r="14.97" style="fill:none;stroke:#606060;stroke-width:8.64"/>
	<circle cx="2723.49" cy="1236.55" r="14.97" style="fill:none;stroke:#606060;stroke-width:8.64"/>
	<circle cx="2723.49" cy="1192.99" r="14.97" style="fill:none;stroke:#606060;stroke-width:8.64"/>
	<circle cx="2723.49" cy="1282.21" r="14.97" style="fill:none;stroke:#606060;stroke-width:8.64"/>
	<circle cx="2723.49" cy="1124.43" r="14.97" style="fill:none;stroke:#606060;stroke-width:8.64"/>
	<circle cx="2723.49" cy="1160.94" r="14.97" style="fill:none;stroke:#606060;stroke-width:8.64"/>
	<circle cx="2723.49" cy="2341.55" r="14.97" style="fill:none;stroke:#606060;stroke-width:8.64"/>
	<circle cx="2723.49" cy="1145.71" r="14.97" style="fill:none;stroke:#606060;stroke-width:8.64"/>
	<circle cx="2723.49" cy="812.57" r="14.97" style="fill:none;stroke:#606060;stroke-width:8.64"/>
	<circle cx="2723.49" cy="680.40" r="14.97" style="fill:none;stroke:#606060;stroke-width:8.64"/>
	<circle cx="2723.49" cy="1209.20" r="14.97" style="fill:none;stroke:#606060;stroke-width:8.64"/>
	<circle cx="2805.91" cy="694.26" r="14.97" style="fill:none;stroke:#606060;stroke-width:8.64"/>
	<circle cx="2805.91" cy="1229.12" r="14.97" style="fill:none;stroke:#606060;stroke-width:8.64"/>
	<circle cx="2805.91" cy="765.29" r="14.97" style="fill:none;stroke:#606060;stroke-width:8.64"/>
	<circle cx="2805.91" cy="1279.61" r="14.97" style="fill:none;stroke:#606060;stroke-width:8.64"/>
	<circle cx="2805.91" cy="664.68" r="14.97" style="fill:none;stroke:#606060;stroke-width:8.64"/>
	<circle cx="2888.45" cy="2351.45" r="14.97" style="fill:none;stroke:#606060;stroke-width:8.64"/>
	<circle cx="2888.45" cy="1224.79" r="14.97" style="fill:none;stroke:#606060;stroke-width:8.64"/>
	<circle cx="2888.45" cy="1191.13" r="14.97" style="fill:none;stroke:#606060;stroke-width:8.64"/>
	<circle cx="2888.45" cy="1264.27" r="14.97" style="fill:none;stroke:#606060;stroke-width:8.64"/>
	<circle cx="2888.45" cy="669.88" r="14.97" style="fill:none;stroke:#606060;stroke-width:8.64"/>
	<circle cx="2888.45" cy="1181.23" r="14.97" style="fill:none;stroke:#606060;stroke-width:8.64"/>
	<circle cx="2888.45" cy="1274.17" r="14.97" style="fill:none;stroke:#606060;stroke-width:8.64"/>
	<circle cx="2970.87" cy="1180.36" r="14.97" style="fill:none;stroke:#606060;stroke-width:8.64"/>
	<circle cx="2970.87" cy="1207.59" r="14.97" style="fill:none;stroke:#606060;stroke-width:8.64"/>
	<circle cx="2970.87" cy="1155.74" r="14.97" style="fill:none;stroke:#606060;stroke-width:8.64"/>
	<circle cx="2970.87" cy="1165.27" r="14.97" style="fill:none;stroke:#606060;stroke-width:8.64"/>
	<circle cx="2970.87" cy="1174.18" r="14.97" style="fill:none;stroke:#606060;stroke-width:8.64"/>
	<circle cx="2970.87" cy="642.28" r="14.97" style="fill:none;stroke:#606060;stroke-width:8.64"/>
	<circle cx="3053.41" cy="1200.78" r="14.97" style="fill:none;stroke:#606060;stroke-width:8.64"/>
	<circle cx="3053.41" cy="1125.29" r="14.97" style="fill:none;stroke:#606060;stroke-width:8.64"/>
	<circle cx="3053.41" cy="1222.69" r="14.97" style="fill:none;stroke:#606060;stroke-width:8.64"/>
	<circle cx="3053.41" cy="1126.04" r="14.97" style="fill:none;stroke:#606060;stroke-width:8.64"/>
	<circle cx="3053.41" cy="666.04" r="14.97" style="fill:none;stroke:#606060;stroke-width:8.64"/>
	<circle cx="3053.41" cy="1148.31" r="14.97" style="fill:none;stroke:#606060;stroke-width:8.64"/>
	<circle cx="3053.41" cy="1367.48" r="14.97" style="fill:none;stroke:#606060;stroke-width:8.64"/>
	<circle cx="3053.41" cy="1190.14" r="14.97" style="fill:none;stroke:#606060;stroke-width:8.64"/>
	<circle cx="3053.41" cy="2291.06" r="14.97" style="fill:none;stroke:#606060;stroke-width:8.64"/>
	<circle cx="3053.41" cy="1223.68" r="14.97" style="fill:none;stroke:#606060;stroke-width:8.64"/>
	<circle cx="3053.41" cy="835.34" r="14.97" style="fill:none;stroke:#606060;stroke-width:8.64"/>
	<circle cx="3053.41" cy="771.98" r="14.97" style="fill:none;stroke:#606060;stroke-width:8.64"/>
	<circle cx="3135.82" cy="1202.39" r="14.97" style="fill:none;stroke:#606060;stroke-width:8.64"/>
	<circle cx="3218.37" cy="1322.68" r="14.97" style="fill:none;stroke:#606060;stroke-width:8.64"/>
	<circle cx="3218.37" cy="1145.84" r="14.97" style="fill:none;stroke:#606060;stroke-width:8.64"/>
	<circle cx="3218.37" cy="1202.39" r="14.97" style="fill:none;stroke:#606060;stroke-width:8.64"/>
	<circle cx="3218.37" cy="1184.20" r="14.97" style="fill:none;stroke:#606060;stroke-width:8.64"/>
	<circle cx="3218.37" cy="1204.74" r="14.97" style="fill:none;stroke:#606060;stroke-width:8.64"/>
	<circle cx="3218.37" cy="2189.08" r="14.97" style="fill:none;stroke:#606060;stroke-width:8.64"/>
	<path d=" M414.07 1194.84 L496.49 1195.34 L579.03 1191.87 L579.03 1200.54 L661.44 1201.16 L661.44 1208.70 L661.44 1216.62 L661.44 1216.62 L661.44 1216.38 L661.44 1216.01 L743.99 1215.88 L743.99 1216.38 L743.99 1212.42 L743.99 1212.17 L743.99 1209.32 L826.40 1206.35 L826.40 1206.35 L826.40 1206.23 L826.40 1206.48 L826.40 1206.72 L908.94 1206.48 L908.94 1206.85 L908.94 1206.97 L908.94 1207.34 L908.94 1207.47 L908.94 1214.03 L991.36 1210.93 L991.36 1210.68 L991.36 1210.44 L991.36 1210.81 L991.36 1217.61 L1073.90 1217.74 L1073.90 1217.24 L1073.90 1217.74 L1073.90 1214.77 L1073.90 1212.29 L1156.32 1212.29 L1156.32 1212.05 L1156.32 1212.05 L1156.32 1211.67 L1156.32 1212.17 L1156.32 1217.12 L1156.32 1217.24 L1156.32 1217.37 L1156.32 1217.12 L1156.32 1217.00 L1156.32 1217.49 L1156.32 1214.52 L1156.32 1219.97 L1156.32 1219.47 L1156.32 1219.59 L1238.86 1219.22 L1238.86 1219.10 L1238.86 1218.73 L1238.86 1218.60 L1238.86 1219.10 L1238.86 1216.25 L1238.86 1213.65 L1238.86 1213.53 L1238.86 1213.28 L1321.28 1213.28 L1321.28 1210.93 L1321.28 1208.21 L1321.28 1207.96 L1321.28 1207.96 L1321.28 1205.24 L1321.28 1210.56 L1321.28 1210.56 L1403.82 1210.56 L1403.82 1210.56 L1403.82 1210.44 L1403.82 1210.81 L1403.82 1210.56 L1403.82 1210.44 L1403.82 1210.68 L1403.82 1210.44 L1403.82 1210.93 L1403.82 1208.33 L1403.82 1208.46 L1403.82 1208.46 L1403.82 1208.33 L1486.24 1213.04 L1486.24 1212.79 L1486.24 1212.91 L1486.24 1212.79 L1486.24 1217.00 L1486.24 1214.64 L1486.24 1214.40 L1486.24 1218.98 L1486.24 1216.38 L1568.78 1216.62 L1568.78 1216.87 L1568.78 1216.62 L1568.78 1214.64 L1568.78 1214.27 L1568.78 1218.85 L1568.78 1218.36 L1568.78 1218.36 L1568.78 1218.48 L1568.78 1218.73 L1568.78 1219.10 L1568.78 1218.85 L1568.78 1218.73 L1651.20 1218.60 L1651.20 1218.23 L1651.20 1217.99 L1651.20 1217.86 L1651.20 1217.86 L1651.20 1216.01 L1651.20 1213.78 L1651.20 1213.53 L1651.20 1217.61 L1651.20 1217.49 L1651.20 1217.37 L1651.20 1217.00 L1651.20 1217.37 L1651.20 1217.12 L1651.20 1215.02 L1733.74 1214.77 L1733.74 1214.52 L1733.74 1214.15 L1733.74 1214.52 L1733.74 1214.52 L1733.74 1214.40 L1733.74 1214.64 L1733.74 1212.54 L1733.74 1211.06 L1733.74 1211.43 L1733.74 1210.93 L1733.74 1212.17 L1733.74 1210.31 L1733.74 1211.06 L1816.15 1208.95 L1816.15 1208.95 L1816.15 1207.34 L1816.15 1203.63 L1816.15 1207.59 L1816.15 1208.21 L1816.15 1208.33 L1816.15 1204.50 L1816.15 1206.11 L1816.15 1202.15 L1816.15 1201.77 L1816.15 1203.63 L1816.15 1203.75 L1816.15 1204.37 L1898.70 1205.98 L1898.70 1207.96 L1898.70 1207.34 L1898.70 1208.58 L1898.70 1213.28 L1898.70 1213.28 L1898.70 1213.41 L1898.70 1211.55 L1898.70 1207.84 L1898.70 1205.98 L1898.70 1206.11 L1898.70 1204.13 L1898.70 1206.48 L1898.70 1205.98 L1898.70 1206.48 L1898.70 1208.70 L1898.70 1208.83 L1981.11 1208.95 L1981.11 1206.85 L1981.11 1206.85 L1981.11 1207.22 L1981.11 1207.22 L1981.11 1207.34 L1981.11 1207.34 L1981.11 1208.83 L1981.11 1208.83 L1981.11 1206.72 L1981.11 1206.85 L1981.11 1206.60 L1981.11 1202.89 L1981.11 1202.52 L1981.11 1200.04 L1981.11 1199.92 L1981.11 1200.54 L1981.11 1200.41 L1981.11 1204.74 L2063.66 1204.87 L2063.66 1199.79 L2063.66 1199.42 L2063.66 1195.21 L2063.66 1195.59 L2063.66 1195.59 L2063.66 1195.21 L2063.66 1190.88 L2063.66 1192.74 L2063.66 1196.58 L2063.66 1192.49 L2146.07 1192.37 L2146.07 1192.00 L2146.07 1192.12 L2146.07 1191.75 L2146.07 1191.63 L2146.07 1193.73 L2146.07 1193.23 L2146.07 1193.36 L2146.07 1193.48 L2146.07 1193.36 L2146.07 1193.23 L2146.07 1193.61 L2146.07 1195.71 L2146.07 1195.59 L2228.61 1195.71 L2228.61 1195.83 L2228.61 1195.21 L2228.61 1195.21 L2228.61 1195.83 L2228.61 1195.71 L2228.61 1195.59 L2228.61 1195.09 L2228.61 1195.09 L2228.61 1194.84 L2228.61 1196.95 L2228.61 1196.95 L2228.61 1196.82 L2228.61 1196.70 L2311.03 1199.17 L2311.03 1199.17 L2311.03 1199.05 L2311.03 1198.68 L2311.03 1194.10 L2311.03 1194.35 L2311.03 1195.96 L2311.03 1195.96 L2311.03 1195.96 L2393.57 1196.08 L2393.57 1197.94 L2393.57 1200.04 L2393.57 1200.29 L2393.57 1200.29 L2393.57 1200.54 L2393.57 1202.64 L2475.99 1202.15 L2475.99 1204.62 L2475.99 1204.13 L2475.99 1204.25 L2475.99 1206.85 L2475.99 1206.60 L2475.99 1209.20 L2475.99 1209.45 L2475.99 1209.82 L2475.99 1209.20 L2475.99 1208.95 L2558.53 1211.30 L2558.53 1211.30 L2558.53 1211.43 L2558.53 1211.43 L2558.53 1214.03 L2558.53 1216.25 L2558.53 1211.18 L2558.53 1212.05 L2558.53 1211.80 L2640.95 1214.27 L2640.95 1208.33 L2640.95 1207.84 L2640.95 1202.52 L2640.95 1196.70 L2640.95 1196.70 L2640.95 1196.82 L2640.95 1196.82 L2640.95 1196.95 L2640.95 1196.45 L2640.95 1199.42 L2640.95 1199.42 L2723.49 1201.77 L2723.49 1204.13 L2723.49 1204.13 L2723.49 1204.25 L2723.49 1204.00 L2723.49 1203.75 L2723.49 1203.88 L2723.49 1203.63 L2723.49 1203.51 L2723.49 1203.14 L2723.49 1202.89 L2723.49 1196.95 L2723.49 1199.67 L2805.91 1199.79 L2805.91 1200.04 L2805.91 1199.55 L2805.91 1192.86 L2805.91 1192.62 L2888.45 1192.86 L2888.45 1192.24 L2888.45 1195.09 L2888.45 1197.57 L2888.45 1197.57 L2888.45 1197.69 L2888.45 1197.57 L2970.87 1197.81 L2970.87 1197.32 L2970.87 1191.63 L2970.87 1191.25 L2970.87 1190.88 L2970.87 1191.01 L3053.41 1191.01 L3053.41 1190.26 L3053.41 1193.73 L3053.41 1186.80 L3053.41 1187.17 L3053.41 1186.92 L3053.41 1187.05 L3053.41 1186.92 L3053.41 1187.29 L3053.41 1187.17 L3053.41 1186.30 L3053.41 1189.89 L3135.82 1193.36 L3218.37 1193.36 L3218.37 1193.48 L3218.37 1193.48 L3218.37 1196.58 L3218.37 1200.66 L3218.37 1200.78" stroke-linejoin="round" style="fill:none;stroke:#000000;stroke-width:8.64"/>
	<line x1="350.71" y1="2414.69" x2="350.71" y2="235.38" style="stroke:#000000;stroke-width:5.76"/>
	<line x1="350.71" y1="2186.73" x2="310.74" y2="2186.73" style="stroke:#000000;stroke-width:5.76"/>
	<text x="266.64" y="2186.73" style="font-family:'Helvetica';font-size:79.94px;fill:#000000" transform="rotate(-90 266.64,2186.73)" text-anchor="middle">-10</text>
	<line x1="350.71" y1="1714.73" x2="310.74" y2="1714.73" style="stroke:#000000;stroke-width:5.76"/>
	<text x="266.64" y="1714.73" style="font-family:'Helvetica';font-size:79.94px;fill:#000000" transform="rotate(-90 266.64,1714.73)" text-anchor="middle">-5</text>
	<line x1="350.71" y1="1242.74" x2="310.74" y2="1242.74" style="stroke:#000000;stroke-width:5.76"/>
	<text x="266.64" y="1242.74" style="font-family:'Helvetica';font-size:79.94px;fill:#000000" transform="rotate(-90 266.64,1242.74)" text-anchor="middle">0</text>
	<line x1="350.71" y1="770.74" x2="310.74" y2="770.74" style="stroke:#000000;stroke-width:5.76"/>
	<text x="266.64" y="770.74" style="font-family:'Helvetica';font-size:79.94px;fill:#000000" transform="rotate(-90 266.64,770.74)" text-anchor="middle">5</text>
	<line x1="350.71" y1="298.74" x2="310.74" y2="298.74" style="stroke:#000000;stroke-width:5.76"/>
	<text x="266.64" y="298.74" style="font-family:'Helvetica';font-size:79.94px;fill:#000000" transform="rotate(-90 266.64,298.74)" text-anchor="middle">10</text>
	<text x="176.68" y="1325.03" style="font-family:'Helvetica';font-size:79.94px;fill:#000000" transform="rotate(-90 176.68,1325.03)" text-anchor="middle">Scaled Shoenfeld Residuals</text>
	<line x1="350.71" y1="2414.69" x2="3859.02" y2="2414.69" style="stroke:#000000;stroke-width:5.76"/>
	<line x1="496.61" y1="2414.69" x2="496.61" y2="2454.66" style="stroke:#000000;stroke-width:5.76"/>
	<text x="496.61" y="2530.61" style="font-family:'Helvetica';font-size:79.94px;fill:#000000" text-anchor="middle">20</text>
	<line x1="1321.40" y1="2414.69" x2="1321.40" y2="2454.66" style="stroke:#000000;stroke-width:5.76"/>
	<text x="1321.40" y="2530.61" style="font-family:'Helvetica';font-size:79.94px;fill:#000000" text-anchor="middle">30</text>
	<line x1="2146.20" y1="2414.69" x2="2146.20" y2="2454.66" style="stroke:#000000;stroke-width:5.76"/>
	<text x="2146.20" y="2530.61" style="font-family:'Helvetica';font-size:79.94px;fill:#000000" text-anchor="middle">40</text>
	<line x1="2970.99" y1="2414.69" x2="2970.99" y2="2454.66" style="stroke:#000000;stroke-width:5.76"/>
	<text x="2970.99" y="2530.61" style="font-family:'Helvetica';font-size:79.94px;fill:#000000" text-anchor="middle">50</text>
	<line x1="3795.66" y1="2414.69" x2="3795.66" y2="2454.66" style="stroke:#000000;stroke-width:5.76"/>
	<text x="3795.66" y="2530.61" style="font-family:'Helvetica';font-size:79.94px;fill:#000000" text-anchor="middle">60</text>
	<text x="2104.86" y="2620.57" style="font-family:'Helvetica';font-size:79.94px;fill:#000000" text-anchor="middle">Time</text>
	<text x="368.03" y="2737.89" style="font-family:'Helvetica';font-size:79.94px;fill:#000000">bandwidth = .8</text>
	<text x="368.03" y="187.99" style="font-family:'Helvetica';font-size:99.99px;fill:#000000">Schoenfeld residuals against time, fully adjusted ICS (High Dose)</text>
</svg>
