<?xml version="1.0" encoding="UTF-8" standalone="no"?>
<!-- This is a Stata 16.1 generated SVG file (http://www.stata.com) -->

<svg version="1.1" width="5.50in" height="4.00in" viewBox="0 0 3960 2880" xmlns="http://www.w3.org/2000/svg" xmlns:xlink="http://www.w3.org/1999/xlink">
	<desc>Stata Graph - Graph</desc>
	<rect x="0" y="0" width="3960" height="2880" style="fill:#FFFFFF;stroke:none"/>
	<rect x="0.00" y="0.00" width="3959.88" height="2880.00" style="fill:#FFFFFF"/>
	<rect x="2.88" y="2.88" width="3954.12" height="2874.24" style="fill:none;stroke:#FFFFFF;stroke-width:5.76"/>
	<rect x="353.59" y="238.26" width="3502.55" height="2173.55" style="fill:none;stroke:#000000;stroke-width:5.76"/>
	<circle cx="414.07" cy="928.90" r="14.97" style="fill:none;stroke:#606060;stroke-width:8.64"/>
	<circle cx="496.49" cy="928.90" r="14.97" style="fill:none;stroke:#606060;stroke-width:8.64"/>
	<circle cx="579.03" cy="739.31" r="14.97" style="fill:none;stroke:#606060;stroke-width:8.64"/>
	<circle cx="579.03" cy="739.31" r="14.97" style="fill:none;stroke:#606060;stroke-width:8.64"/>
	<circle cx="661.44" cy="739.31" r="14.97" style="fill:none;stroke:#606060;stroke-width:8.64"/>
	<circle cx="661.44" cy="739.31" r="14.97" style="fill:none;stroke:#606060;stroke-width:8.64"/>
	<circle cx="661.44" cy="739.31" r="14.97" style="fill:none;stroke:#606060;stroke-width:8.64"/>
	<circle cx="661.44" cy="2351.45" r="14.97" style="fill:none;stroke:#606060;stroke-width:8.64"/>
	<circle cx="661.44" cy="739.31" r="14.97" style="fill:none;stroke:#606060;stroke-width:8.64"/>
	<circle cx="661.44" cy="739.31" r="14.97" style="fill:none;stroke:#606060;stroke-width:8.64"/>
	<circle cx="743.99" cy="739.31" r="14.97" style="fill:none;stroke:#606060;stroke-width:8.64"/>
	<circle cx="743.99" cy="2351.45" r="14.97" style="fill:none;stroke:#606060;stroke-width:8.64"/>
	<circle cx="743.99" cy="928.90" r="14.97" style="fill:none;stroke:#606060;stroke-width:8.64"/>
	<circle cx="743.99" cy="2351.45" r="14.97" style="fill:none;stroke:#606060;stroke-width:8.64"/>
	<circle cx="743.99" cy="739.31" r="14.97" style="fill:none;stroke:#606060;stroke-width:8.64"/>
	<circle cx="826.40" cy="928.90" r="14.97" style="fill:none;stroke:#606060;stroke-width:8.64"/>
	<circle cx="826.40" cy="739.31" r="14.97" style="fill:none;stroke:#606060;stroke-width:8.64"/>
	<circle cx="826.40" cy="739.31" r="14.97" style="fill:none;stroke:#606060;stroke-width:8.64"/>
	<circle cx="826.40" cy="928.90" r="14.97" style="fill:none;stroke:#606060;stroke-width:8.64"/>
	<circle cx="826.40" cy="928.90" r="14.97" style="fill:none;stroke:#606060;stroke-width:8.64"/>
	<circle cx="908.94" cy="739.31" r="14.97" style="fill:none;stroke:#606060;stroke-width:8.64"/>
	<circle cx="908.94" cy="928.90" r="14.97" style="fill:none;stroke:#606060;stroke-width:8.64"/>
	<circle cx="908.94" cy="739.31" r="14.97" style="fill:none;stroke:#606060;stroke-width:8.64"/>
	<circle cx="908.94" cy="739.31" r="14.97" style="fill:none;stroke:#606060;stroke-width:8.64"/>
	<circle cx="908.94" cy="928.90" r="14.97" style="fill:none;stroke:#606060;stroke-width:8.64"/>
	<circle cx="908.94" cy="739.31" r="14.97" style="fill:none;stroke:#606060;stroke-width:8.64"/>
	<circle cx="991.36" cy="2351.45" r="14.97" style="fill:none;stroke:#606060;stroke-width:8.64"/>
	<circle cx="991.36" cy="739.31" r="14.97" style="fill:none;stroke:#606060;stroke-width:8.64"/>
	<circle cx="991.36" cy="739.31" r="14.97" style="fill:none;stroke:#606060;stroke-width:8.64"/>
	<circle cx="991.36" cy="739.31" r="14.97" style="fill:none;stroke:#606060;stroke-width:8.64"/>
	<circle cx="991.36" cy="928.90" r="14.97" style="fill:none;stroke:#606060;stroke-width:8.64"/>
	<circle cx="1073.90" cy="928.90" r="14.97" style="fill:none;stroke:#606060;stroke-width:8.64"/>
	<circle cx="1073.90" cy="2351.45" r="14.97" style="fill:none;stroke:#606060;stroke-width:8.64"/>
	<circle cx="1073.90" cy="928.90" r="14.97" style="fill:none;stroke:#606060;stroke-width:8.64"/>
	<circle cx="1073.90" cy="739.31" r="14.97" style="fill:none;stroke:#606060;stroke-width:8.64"/>
	<circle cx="1073.90" cy="739.31" r="14.97" style="fill:none;stroke:#606060;stroke-width:8.64"/>
	<circle cx="1156.32" cy="739.31" r="14.97" style="fill:none;stroke:#606060;stroke-width:8.64"/>
	<circle cx="1156.32" cy="739.31" r="14.97" style="fill:none;stroke:#606060;stroke-width:8.64"/>
	<circle cx="1156.32" cy="739.31" r="14.97" style="fill:none;stroke:#606060;stroke-width:8.64"/>
	<circle cx="1156.32" cy="739.31" r="14.97" style="fill:none;stroke:#606060;stroke-width:8.64"/>
	<circle cx="1156.32" cy="739.31" r="14.97" style="fill:none;stroke:#606060;stroke-width:8.64"/>
	<circle cx="1156.32" cy="739.31" r="14.97" style="fill:none;stroke:#606060;stroke-width:8.64"/>
	<circle cx="1156.32" cy="928.90" r="14.97" style="fill:none;stroke:#606060;stroke-width:8.64"/>
	<circle cx="1156.32" cy="739.31" r="14.97" style="fill:none;stroke:#606060;stroke-width:8.64"/>
	<circle cx="1156.32" cy="739.31" r="14.97" style="fill:none;stroke:#606060;stroke-width:8.64"/>
	<circle cx="1156.32" cy="739.31" r="14.97" style="fill:none;stroke:#606060;stroke-width:8.64"/>
	<circle cx="1156.32" cy="739.31" r="14.97" style="fill:none;stroke:#606060;stroke-width:8.64"/>
	<circle cx="1156.32" cy="2351.45" r="14.97" style="fill:none;stroke:#606060;stroke-width:8.64"/>
	<circle cx="1156.32" cy="739.31" r="14.97" style="fill:none;stroke:#606060;stroke-width:8.64"/>
	<circle cx="1156.32" cy="739.31" r="14.97" style="fill:none;stroke:#606060;stroke-width:8.64"/>
	<circle cx="1156.32" cy="739.31" r="14.97" style="fill:none;stroke:#606060;stroke-width:8.64"/>
	<circle cx="1238.86" cy="739.31" r="14.97" style="fill:none;stroke:#606060;stroke-width:8.64"/>
	<circle cx="1238.86" cy="739.31" r="14.97" style="fill:none;stroke:#606060;stroke-width:8.64"/>
	<circle cx="1238.86" cy="739.31" r="14.97" style="fill:none;stroke:#606060;stroke-width:8.64"/>
	<circle cx="1238.86" cy="739.31" r="14.97" style="fill:none;stroke:#606060;stroke-width:8.64"/>
	<circle cx="1238.86" cy="2351.45" r="14.97" style="fill:none;stroke:#606060;stroke-width:8.64"/>
	<circle cx="1238.86" cy="928.90" r="14.97" style="fill:none;stroke:#606060;stroke-width:8.64"/>
	<circle cx="1238.86" cy="2351.45" r="14.97" style="fill:none;stroke:#606060;stroke-width:8.64"/>
	<circle cx="1238.86" cy="739.31" r="14.97" style="fill:none;stroke:#606060;stroke-width:8.64"/>
	<circle cx="1238.86" cy="739.31" r="14.97" style="fill:none;stroke:#606060;stroke-width:8.64"/>
	<circle cx="1321.28" cy="739.31" r="14.97" style="fill:none;stroke:#606060;stroke-width:8.64"/>
	<circle cx="1321.28" cy="2351.45" r="14.97" style="fill:none;stroke:#606060;stroke-width:8.64"/>
	<circle cx="1321.28" cy="928.90" r="14.97" style="fill:none;stroke:#606060;stroke-width:8.64"/>
	<circle cx="1321.28" cy="739.31" r="14.97" style="fill:none;stroke:#606060;stroke-width:8.64"/>
	<circle cx="1321.28" cy="2351.45" r="14.97" style="fill:none;stroke:#606060;stroke-width:8.64"/>
	<circle cx="1321.28" cy="739.31" r="14.97" style="fill:none;stroke:#606060;stroke-width:8.64"/>
	<circle cx="1321.28" cy="739.31" r="14.97" style="fill:none;stroke:#606060;stroke-width:8.64"/>
	<circle cx="1321.28" cy="739.31" r="14.97" style="fill:none;stroke:#606060;stroke-width:8.64"/>
	<circle cx="1403.82" cy="739.31" r="14.97" style="fill:none;stroke:#606060;stroke-width:8.64"/>
	<circle cx="1403.82" cy="739.31" r="14.97" style="fill:none;stroke:#606060;stroke-width:8.64"/>
	<circle cx="1403.82" cy="928.90" r="14.97" style="fill:none;stroke:#606060;stroke-width:8.64"/>
	<circle cx="1403.82" cy="739.31" r="14.97" style="fill:none;stroke:#606060;stroke-width:8.64"/>
	<circle cx="1403.82" cy="739.31" r="14.97" style="fill:none;stroke:#606060;stroke-width:8.64"/>
	<circle cx="1403.82" cy="739.31" r="14.97" style="fill:none;stroke:#606060;stroke-width:8.64"/>
	<circle cx="1403.82" cy="739.31" r="14.97" style="fill:none;stroke:#606060;stroke-width:8.64"/>
	<circle cx="1403.82" cy="739.31" r="14.97" style="fill:none;stroke:#606060;stroke-width:8.64"/>
	<circle cx="1403.82" cy="739.31" r="14.97" style="fill:none;stroke:#606060;stroke-width:8.64"/>
	<circle cx="1403.82" cy="928.90" r="14.97" style="fill:none;stroke:#606060;stroke-width:8.64"/>
	<circle cx="1403.82" cy="739.31" r="14.97" style="fill:none;stroke:#606060;stroke-width:8.64"/>
	<circle cx="1403.82" cy="739.31" r="14.97" style="fill:none;stroke:#606060;stroke-width:8.64"/>
	<circle cx="1403.82" cy="739.31" r="14.97" style="fill:none;stroke:#606060;stroke-width:8.64"/>
	<circle cx="1486.24" cy="739.31" r="14.97" style="fill:none;stroke:#606060;stroke-width:8.64"/>
	<circle cx="1486.24" cy="739.31" r="14.97" style="fill:none;stroke:#606060;stroke-width:8.64"/>
	<circle cx="1486.24" cy="739.31" r="14.97" style="fill:none;stroke:#606060;stroke-width:8.64"/>
	<circle cx="1486.24" cy="739.31" r="14.97" style="fill:none;stroke:#606060;stroke-width:8.64"/>
	<circle cx="1486.24" cy="739.31" r="14.97" style="fill:none;stroke:#606060;stroke-width:8.64"/>
	<circle cx="1486.24" cy="739.31" r="14.97" style="fill:none;stroke:#606060;stroke-width:8.64"/>
	<circle cx="1486.24" cy="739.31" r="14.97" style="fill:none;stroke:#606060;stroke-width:8.64"/>
	<circle cx="1486.24" cy="739.31" r="14.97" style="fill:none;stroke:#606060;stroke-width:8.64"/>
	<circle cx="1486.24" cy="928.90" r="14.97" style="fill:none;stroke:#606060;stroke-width:8.64"/>
	<circle cx="1568.78" cy="739.31" r="14.97" style="fill:none;stroke:#606060;stroke-width:8.64"/>
	<circle cx="1568.78" cy="739.31" r="14.97" style="fill:none;stroke:#606060;stroke-width:8.64"/>
	<circle cx="1568.78" cy="739.31" r="14.97" style="fill:none;stroke:#606060;stroke-width:8.64"/>
	<circle cx="1568.78" cy="928.90" r="14.97" style="fill:none;stroke:#606060;stroke-width:8.64"/>
	<circle cx="1568.78" cy="739.31" r="14.97" style="fill:none;stroke:#606060;stroke-width:8.64"/>
	<circle cx="1568.78" cy="739.31" r="14.97" style="fill:none;stroke:#606060;stroke-width:8.64"/>
	<circle cx="1568.78" cy="739.31" r="14.97" style="fill:none;stroke:#606060;stroke-width:8.64"/>
	<circle cx="1568.78" cy="2351.45" r="14.97" style="fill:none;stroke:#606060;stroke-width:8.64"/>
	<circle cx="1568.78" cy="739.31" r="14.97" style="fill:none;stroke:#606060;stroke-width:8.64"/>
	<circle cx="1568.78" cy="928.90" r="14.97" style="fill:none;stroke:#606060;stroke-width:8.64"/>
	<circle cx="1568.78" cy="739.31" r="14.97" style="fill:none;stroke:#606060;stroke-width:8.64"/>
	<circle cx="1568.78" cy="739.31" r="14.97" style="fill:none;stroke:#606060;stroke-width:8.64"/>
	<circle cx="1568.78" cy="739.31" r="14.97" style="fill:none;stroke:#606060;stroke-width:8.64"/>
	<circle cx="1651.20" cy="928.90" r="14.97" style="fill:none;stroke:#606060;stroke-width:8.64"/>
	<circle cx="1651.20" cy="928.90" r="14.97" style="fill:none;stroke:#606060;stroke-width:8.64"/>
	<circle cx="1651.20" cy="739.31" r="14.97" style="fill:none;stroke:#606060;stroke-width:8.64"/>
	<circle cx="1651.20" cy="739.31" r="14.97" style="fill:none;stroke:#606060;stroke-width:8.64"/>
	<circle cx="1651.20" cy="739.31" r="14.97" style="fill:none;stroke:#606060;stroke-width:8.64"/>
	<circle cx="1651.20" cy="928.90" r="14.97" style="fill:none;stroke:#606060;stroke-width:8.64"/>
	<circle cx="1651.20" cy="739.31" r="14.97" style="fill:none;stroke:#606060;stroke-width:8.64"/>
	<circle cx="1651.20" cy="928.90" r="14.97" style="fill:none;stroke:#606060;stroke-width:8.64"/>
	<circle cx="1651.20" cy="739.31" r="14.97" style="fill:none;stroke:#606060;stroke-width:8.64"/>
	<circle cx="1651.20" cy="739.31" r="14.97" style="fill:none;stroke:#606060;stroke-width:8.64"/>
	<circle cx="1651.20" cy="928.90" r="14.97" style="fill:none;stroke:#606060;stroke-width:8.64"/>
	<circle cx="1651.20" cy="739.31" r="14.97" style="fill:none;stroke:#606060;stroke-width:8.64"/>
	<circle cx="1651.20" cy="928.90" r="14.97" style="fill:none;stroke:#606060;stroke-width:8.64"/>
	<circle cx="1651.20" cy="739.31" r="14.97" style="fill:none;stroke:#606060;stroke-width:8.64"/>
	<circle cx="1651.20" cy="739.31" r="14.97" style="fill:none;stroke:#606060;stroke-width:8.64"/>
	<circle cx="1733.74" cy="739.31" r="14.97" style="fill:none;stroke:#606060;stroke-width:8.64"/>
	<circle cx="1733.74" cy="739.31" r="14.97" style="fill:none;stroke:#606060;stroke-width:8.64"/>
	<circle cx="1733.74" cy="928.90" r="14.97" style="fill:none;stroke:#606060;stroke-width:8.64"/>
	<circle cx="1733.74" cy="739.31" r="14.97" style="fill:none;stroke:#606060;stroke-width:8.64"/>
	<circle cx="1733.74" cy="739.31" r="14.97" style="fill:none;stroke:#606060;stroke-width:8.64"/>
	<circle cx="1733.74" cy="739.31" r="14.97" style="fill:none;stroke:#606060;stroke-width:8.64"/>
	<circle cx="1733.74" cy="928.90" r="14.97" style="fill:none;stroke:#606060;stroke-width:8.64"/>
	<circle cx="1733.74" cy="928.90" r="14.97" style="fill:none;stroke:#606060;stroke-width:8.64"/>
	<circle cx="1733.74" cy="2351.45" r="14.97" style="fill:none;stroke:#606060;stroke-width:8.64"/>
	<circle cx="1733.74" cy="739.31" r="14.97" style="fill:none;stroke:#606060;stroke-width:8.64"/>
	<circle cx="1733.74" cy="739.31" r="14.97" style="fill:none;stroke:#606060;stroke-width:8.64"/>
	<circle cx="1733.74" cy="928.90" r="14.97" style="fill:none;stroke:#606060;stroke-width:8.64"/>
	<circle cx="1733.74" cy="2351.45" r="14.97" style="fill:none;stroke:#606060;stroke-width:8.64"/>
	<circle cx="1733.74" cy="739.31" r="14.97" style="fill:none;stroke:#606060;stroke-width:8.64"/>
	<circle cx="1816.15" cy="2351.45" r="14.97" style="fill:none;stroke:#606060;stroke-width:8.64"/>
	<circle cx="1816.15" cy="2351.45" r="14.97" style="fill:none;stroke:#606060;stroke-width:8.64"/>
	<circle cx="1816.15" cy="739.31" r="14.97" style="fill:none;stroke:#606060;stroke-width:8.64"/>
	<circle cx="1816.15" cy="739.31" r="14.97" style="fill:none;stroke:#606060;stroke-width:8.64"/>
	<circle cx="1816.15" cy="739.31" r="14.97" style="fill:none;stroke:#606060;stroke-width:8.64"/>
	<circle cx="1816.15" cy="739.31" r="14.97" style="fill:none;stroke:#606060;stroke-width:8.64"/>
	<circle cx="1816.15" cy="739.31" r="14.97" style="fill:none;stroke:#606060;stroke-width:8.64"/>
	<circle cx="1816.15" cy="928.90" r="14.97" style="fill:none;stroke:#606060;stroke-width:8.64"/>
	<circle cx="1816.15" cy="739.31" r="14.97" style="fill:none;stroke:#606060;stroke-width:8.64"/>
	<circle cx="1816.15" cy="928.90" r="14.97" style="fill:none;stroke:#606060;stroke-width:8.64"/>
	<circle cx="1816.15" cy="928.90" r="14.97" style="fill:none;stroke:#606060;stroke-width:8.64"/>
	<circle cx="1816.15" cy="739.31" r="14.97" style="fill:none;stroke:#606060;stroke-width:8.64"/>
	<circle cx="1816.15" cy="739.31" r="14.97" style="fill:none;stroke:#606060;stroke-width:8.64"/>
	<circle cx="1816.15" cy="739.31" r="14.97" style="fill:none;stroke:#606060;stroke-width:8.64"/>
	<circle cx="1898.70" cy="739.31" r="14.97" style="fill:none;stroke:#606060;stroke-width:8.64"/>
	<circle cx="1898.70" cy="739.31" r="14.97" style="fill:none;stroke:#606060;stroke-width:8.64"/>
	<circle cx="1898.70" cy="739.31" r="14.97" style="fill:none;stroke:#606060;stroke-width:8.64"/>
	<circle cx="1898.70" cy="739.31" r="14.97" style="fill:none;stroke:#606060;stroke-width:8.64"/>
	<circle cx="1898.70" cy="739.31" r="14.97" style="fill:none;stroke:#606060;stroke-width:8.64"/>
	<circle cx="1898.70" cy="739.31" r="14.97" style="fill:none;stroke:#606060;stroke-width:8.64"/>
	<circle cx="1898.70" cy="2351.45" r="14.97" style="fill:none;stroke:#606060;stroke-width:8.64"/>
	<circle cx="1898.70" cy="928.90" r="14.97" style="fill:none;stroke:#606060;stroke-width:8.64"/>
	<circle cx="1898.70" cy="739.31" r="14.97" style="fill:none;stroke:#606060;stroke-width:8.64"/>
	<circle cx="1898.70" cy="739.31" r="14.97" style="fill:none;stroke:#606060;stroke-width:8.64"/>
	<circle cx="1898.70" cy="739.31" r="14.97" style="fill:none;stroke:#606060;stroke-width:8.64"/>
	<circle cx="1898.70" cy="2351.45" r="14.97" style="fill:none;stroke:#606060;stroke-width:8.64"/>
	<circle cx="1898.70" cy="739.31" r="14.97" style="fill:none;stroke:#606060;stroke-width:8.64"/>
	<circle cx="1898.70" cy="739.31" r="14.97" style="fill:none;stroke:#606060;stroke-width:8.64"/>
	<circle cx="1898.70" cy="739.31" r="14.97" style="fill:none;stroke:#606060;stroke-width:8.64"/>
	<circle cx="1898.70" cy="928.90" r="14.97" style="fill:none;stroke:#606060;stroke-width:8.64"/>
	<circle cx="1898.70" cy="928.90" r="14.97" style="fill:none;stroke:#606060;stroke-width:8.64"/>
	<circle cx="1981.11" cy="739.31" r="14.97" style="fill:none;stroke:#606060;stroke-width:8.64"/>
	<circle cx="1981.11" cy="739.31" r="14.97" style="fill:none;stroke:#606060;stroke-width:8.64"/>
	<circle cx="1981.11" cy="739.31" r="14.97" style="fill:none;stroke:#606060;stroke-width:8.64"/>
	<circle cx="1981.11" cy="739.31" r="14.97" style="fill:none;stroke:#606060;stroke-width:8.64"/>
	<circle cx="1981.11" cy="739.31" r="14.97" style="fill:none;stroke:#606060;stroke-width:8.64"/>
	<circle cx="1981.11" cy="2351.45" r="14.97" style="fill:none;stroke:#606060;stroke-width:8.64"/>
	<circle cx="1981.11" cy="739.31" r="14.97" style="fill:none;stroke:#606060;stroke-width:8.64"/>
	<circle cx="1981.11" cy="739.31" r="14.97" style="fill:none;stroke:#606060;stroke-width:8.64"/>
	<circle cx="1981.11" cy="739.31" r="14.97" style="fill:none;stroke:#606060;stroke-width:8.64"/>
	<circle cx="1981.11" cy="739.31" r="14.97" style="fill:none;stroke:#606060;stroke-width:8.64"/>
	<circle cx="1981.11" cy="739.31" r="14.97" style="fill:none;stroke:#606060;stroke-width:8.64"/>
	<circle cx="1981.11" cy="928.90" r="14.97" style="fill:none;stroke:#606060;stroke-width:8.64"/>
	<circle cx="1981.11" cy="2351.45" r="14.97" style="fill:none;stroke:#606060;stroke-width:8.64"/>
	<circle cx="1981.11" cy="739.31" r="14.97" style="fill:none;stroke:#606060;stroke-width:8.64"/>
	<circle cx="1981.11" cy="739.31" r="14.97" style="fill:none;stroke:#606060;stroke-width:8.64"/>
	<circle cx="1981.11" cy="739.31" r="14.97" style="fill:none;stroke:#606060;stroke-width:8.64"/>
	<circle cx="1981.11" cy="739.31" r="14.97" style="fill:none;stroke:#606060;stroke-width:8.64"/>
	<circle cx="1981.11" cy="739.31" r="14.97" style="fill:none;stroke:#606060;stroke-width:8.64"/>
	<circle cx="1981.11" cy="739.31" r="14.97" style="fill:none;stroke:#606060;stroke-width:8.64"/>
	<circle cx="2063.66" cy="739.31" r="14.97" style="fill:none;stroke:#606060;stroke-width:8.64"/>
	<circle cx="2063.66" cy="928.90" r="14.97" style="fill:none;stroke:#606060;stroke-width:8.64"/>
	<circle cx="2063.66" cy="928.90" r="14.97" style="fill:none;stroke:#606060;stroke-width:8.64"/>
	<circle cx="2063.66" cy="739.31" r="14.97" style="fill:none;stroke:#606060;stroke-width:8.64"/>
	<circle cx="2063.66" cy="739.31" r="14.97" style="fill:none;stroke:#606060;stroke-width:8.64"/>
	<circle cx="2063.66" cy="739.31" r="14.97" style="fill:none;stroke:#606060;stroke-width:8.64"/>
	<circle cx="2063.66" cy="928.90" r="14.97" style="fill:none;stroke:#606060;stroke-width:8.64"/>
	<circle cx="2063.66" cy="928.90" r="14.97" style="fill:none;stroke:#606060;stroke-width:8.64"/>
	<circle cx="2063.66" cy="739.31" r="14.97" style="fill:none;stroke:#606060;stroke-width:8.64"/>
	<circle cx="2063.66" cy="739.31" r="14.97" style="fill:none;stroke:#606060;stroke-width:8.64"/>
	<circle cx="2063.66" cy="928.90" r="14.97" style="fill:none;stroke:#606060;stroke-width:8.64"/>
	<circle cx="2146.07" cy="2351.45" r="14.97" style="fill:none;stroke:#606060;stroke-width:8.64"/>
	<circle cx="2146.07" cy="739.31" r="14.97" style="fill:none;stroke:#606060;stroke-width:8.64"/>
	<circle cx="2146.07" cy="739.31" r="14.97" style="fill:none;stroke:#606060;stroke-width:8.64"/>
	<circle cx="2146.07" cy="739.31" r="14.97" style="fill:none;stroke:#606060;stroke-width:8.64"/>
	<circle cx="2146.07" cy="739.31" r="14.97" style="fill:none;stroke:#606060;stroke-width:8.64"/>
	<circle cx="2146.07" cy="739.31" r="14.97" style="fill:none;stroke:#606060;stroke-width:8.64"/>
	<circle cx="2146.07" cy="739.31" r="14.97" style="fill:none;stroke:#606060;stroke-width:8.64"/>
	<circle cx="2146.07" cy="739.31" r="14.97" style="fill:none;stroke:#606060;stroke-width:8.64"/>
	<circle cx="2146.07" cy="739.31" r="14.97" style="fill:none;stroke:#606060;stroke-width:8.64"/>
	<circle cx="2146.07" cy="739.31" r="14.97" style="fill:none;stroke:#606060;stroke-width:8.64"/>
	<circle cx="2146.07" cy="739.31" r="14.97" style="fill:none;stroke:#606060;stroke-width:8.64"/>
	<circle cx="2146.07" cy="928.90" r="14.97" style="fill:none;stroke:#606060;stroke-width:8.64"/>
	<circle cx="2146.07" cy="739.31" r="14.97" style="fill:none;stroke:#606060;stroke-width:8.64"/>
	<circle cx="2146.07" cy="739.31" r="14.97" style="fill:none;stroke:#606060;stroke-width:8.64"/>
	<circle cx="2228.61" cy="739.31" r="14.97" style="fill:none;stroke:#606060;stroke-width:8.64"/>
	<circle cx="2228.61" cy="2351.45" r="14.97" style="fill:none;stroke:#606060;stroke-width:8.64"/>
	<circle cx="2228.61" cy="739.31" r="14.97" style="fill:none;stroke:#606060;stroke-width:8.64"/>
	<circle cx="2228.61" cy="739.31" r="14.97" style="fill:none;stroke:#606060;stroke-width:8.64"/>
	<circle cx="2228.61" cy="739.31" r="14.97" style="fill:none;stroke:#606060;stroke-width:8.64"/>
	<circle cx="2228.61" cy="2351.45" r="14.97" style="fill:none;stroke:#606060;stroke-width:8.64"/>
	<circle cx="2228.61" cy="928.90" r="14.97" style="fill:none;stroke:#606060;stroke-width:8.64"/>
	<circle cx="2228.61" cy="739.31" r="14.97" style="fill:none;stroke:#606060;stroke-width:8.64"/>
	<circle cx="2228.61" cy="2351.45" r="14.97" style="fill:none;stroke:#606060;stroke-width:8.64"/>
	<circle cx="2228.61" cy="928.90" r="14.97" style="fill:none;stroke:#606060;stroke-width:8.64"/>
	<circle cx="2228.61" cy="739.31" r="14.97" style="fill:none;stroke:#606060;stroke-width:8.64"/>
	<circle cx="2228.61" cy="739.31" r="14.97" style="fill:none;stroke:#606060;stroke-width:8.64"/>
	<circle cx="2228.61" cy="739.31" r="14.97" style="fill:none;stroke:#606060;stroke-width:8.64"/>
	<circle cx="2228.61" cy="928.90" r="14.97" style="fill:none;stroke:#606060;stroke-width:8.64"/>
	<circle cx="2311.03" cy="739.31" r="14.97" style="fill:none;stroke:#606060;stroke-width:8.64"/>
	<circle cx="2311.03" cy="2351.45" r="14.97" style="fill:none;stroke:#606060;stroke-width:8.64"/>
	<circle cx="2311.03" cy="739.31" r="14.97" style="fill:none;stroke:#606060;stroke-width:8.64"/>
	<circle cx="2311.03" cy="739.31" r="14.97" style="fill:none;stroke:#606060;stroke-width:8.64"/>
	<circle cx="2311.03" cy="739.31" r="14.97" style="fill:none;stroke:#606060;stroke-width:8.64"/>
	<circle cx="2311.03" cy="739.31" r="14.97" style="fill:none;stroke:#606060;stroke-width:8.64"/>
	<circle cx="2311.03" cy="739.31" r="14.97" style="fill:none;stroke:#606060;stroke-width:8.64"/>
	<circle cx="2311.03" cy="739.31" r="14.97" style="fill:none;stroke:#606060;stroke-width:8.64"/>
	<circle cx="2311.03" cy="739.31" r="14.97" style="fill:none;stroke:#606060;stroke-width:8.64"/>
	<circle cx="2393.57" cy="739.31" r="14.97" style="fill:none;stroke:#606060;stroke-width:8.64"/>
	<circle cx="2393.57" cy="739.31" r="14.97" style="fill:none;stroke:#606060;stroke-width:8.64"/>
	<circle cx="2393.57" cy="739.31" r="14.97" style="fill:none;stroke:#606060;stroke-width:8.64"/>
	<circle cx="2393.57" cy="739.31" r="14.97" style="fill:none;stroke:#606060;stroke-width:8.64"/>
	<circle cx="2393.57" cy="739.31" r="14.97" style="fill:none;stroke:#606060;stroke-width:8.64"/>
	<circle cx="2393.57" cy="928.90" r="14.97" style="fill:none;stroke:#606060;stroke-width:8.64"/>
	<circle cx="2393.57" cy="928.90" r="14.97" style="fill:none;stroke:#606060;stroke-width:8.64"/>
	<circle cx="2475.99" cy="739.31" r="14.97" style="fill:none;stroke:#606060;stroke-width:8.64"/>
	<circle cx="2475.99" cy="2351.45" r="14.97" style="fill:none;stroke:#606060;stroke-width:8.64"/>
	<circle cx="2475.99" cy="739.31" r="14.97" style="fill:none;stroke:#606060;stroke-width:8.64"/>
	<circle cx="2475.99" cy="739.31" r="14.97" style="fill:none;stroke:#606060;stroke-width:8.64"/>
	<circle cx="2475.99" cy="739.31" r="14.97" style="fill:none;stroke:#606060;stroke-width:8.64"/>
	<circle cx="2475.99" cy="739.31" r="14.97" style="fill:none;stroke:#606060;stroke-width:8.64"/>
	<circle cx="2475.99" cy="739.31" r="14.97" style="fill:none;stroke:#606060;stroke-width:8.64"/>
	<circle cx="2475.99" cy="928.90" r="14.97" style="fill:none;stroke:#606060;stroke-width:8.64"/>
	<circle cx="2475.99" cy="739.31" r="14.97" style="fill:none;stroke:#606060;stroke-width:8.64"/>
	<circle cx="2475.99" cy="739.31" r="14.97" style="fill:none;stroke:#606060;stroke-width:8.64"/>
	<circle cx="2475.99" cy="739.31" r="14.97" style="fill:none;stroke:#606060;stroke-width:8.64"/>
	<circle cx="2558.53" cy="739.31" r="14.97" style="fill:none;stroke:#606060;stroke-width:8.64"/>
	<circle cx="2558.53" cy="739.31" r="14.97" style="fill:none;stroke:#606060;stroke-width:8.64"/>
	<circle cx="2558.53" cy="739.31" r="14.97" style="fill:none;stroke:#606060;stroke-width:8.64"/>
	<circle cx="2558.53" cy="739.31" r="14.97" style="fill:none;stroke:#606060;stroke-width:8.64"/>
	<circle cx="2558.53" cy="928.90" r="14.97" style="fill:none;stroke:#606060;stroke-width:8.64"/>
	<circle cx="2558.53" cy="928.90" r="14.97" style="fill:none;stroke:#606060;stroke-width:8.64"/>
	<circle cx="2558.53" cy="739.31" r="14.97" style="fill:none;stroke:#606060;stroke-width:8.64"/>
	<circle cx="2558.53" cy="928.90" r="14.97" style="fill:none;stroke:#606060;stroke-width:8.64"/>
	<circle cx="2558.53" cy="739.31" r="14.97" style="fill:none;stroke:#606060;stroke-width:8.64"/>
	<circle cx="2640.95" cy="928.90" r="14.97" style="fill:none;stroke:#606060;stroke-width:8.64"/>
	<circle cx="2640.95" cy="739.31" r="14.97" style="fill:none;stroke:#606060;stroke-width:8.64"/>
	<circle cx="2640.95" cy="928.90" r="14.97" style="fill:none;stroke:#606060;stroke-width:8.64"/>
	<circle cx="2640.95" cy="739.31" r="14.97" style="fill:none;stroke:#606060;stroke-width:8.64"/>
	<circle cx="2640.95" cy="928.90" r="14.97" style="fill:none;stroke:#606060;stroke-width:8.64"/>
	<circle cx="2640.95" cy="739.31" r="14.97" style="fill:none;stroke:#606060;stroke-width:8.64"/>
	<circle cx="2640.95" cy="2351.45" r="14.97" style="fill:none;stroke:#606060;stroke-width:8.64"/>
	<circle cx="2640.95" cy="739.31" r="14.97" style="fill:none;stroke:#606060;stroke-width:8.64"/>
	<circle cx="2640.95" cy="739.31" r="14.97" style="fill:none;stroke:#606060;stroke-width:8.64"/>
	<circle cx="2640.95" cy="739.31" r="14.97" style="fill:none;stroke:#606060;stroke-width:8.64"/>
	<circle cx="2640.95" cy="739.31" r="14.97" style="fill:none;stroke:#606060;stroke-width:8.64"/>
	<circle cx="2640.95" cy="739.31" r="14.97" style="fill:none;stroke:#606060;stroke-width:8.64"/>
	<circle cx="2723.49" cy="739.31" r="14.97" style="fill:none;stroke:#606060;stroke-width:8.64"/>
	<circle cx="2723.49" cy="739.31" r="14.97" style="fill:none;stroke:#606060;stroke-width:8.64"/>
	<circle cx="2723.49" cy="739.31" r="14.97" style="fill:none;stroke:#606060;stroke-width:8.64"/>
	<circle cx="2723.49" cy="739.31" r="14.97" style="fill:none;stroke:#606060;stroke-width:8.64"/>
	<circle cx="2723.49" cy="739.31" r="14.97" style="fill:none;stroke:#606060;stroke-width:8.64"/>
	<circle cx="2723.49" cy="739.31" r="14.97" style="fill:none;stroke:#606060;stroke-width:8.64"/>
	<circle cx="2723.49" cy="739.31" r="14.97" style="fill:none;stroke:#606060;stroke-width:8.64"/>
	<circle cx="2723.49" cy="739.31" r="14.97" style="fill:none;stroke:#606060;stroke-width:8.64"/>
	<circle cx="2723.49" cy="2351.45" r="14.97" style="fill:none;stroke:#606060;stroke-width:8.64"/>
	<circle cx="2723.49" cy="739.31" r="14.97" style="fill:none;stroke:#606060;stroke-width:8.64"/>
	<circle cx="2723.49" cy="928.90" r="14.97" style="fill:none;stroke:#606060;stroke-width:8.64"/>
	<circle cx="2723.49" cy="928.90" r="14.97" style="fill:none;stroke:#606060;stroke-width:8.64"/>
	<circle cx="2723.49" cy="739.31" r="14.97" style="fill:none;stroke:#606060;stroke-width:8.64"/>
	<circle cx="2805.91" cy="928.90" r="14.97" style="fill:none;stroke:#606060;stroke-width:8.64"/>
	<circle cx="2805.91" cy="739.31" r="14.97" style="fill:none;stroke:#606060;stroke-width:8.64"/>
	<circle cx="2805.91" cy="928.90" r="14.97" style="fill:none;stroke:#606060;stroke-width:8.64"/>
	<circle cx="2805.91" cy="739.31" r="14.97" style="fill:none;stroke:#606060;stroke-width:8.64"/>
	<circle cx="2805.91" cy="928.90" r="14.97" style="fill:none;stroke:#606060;stroke-width:8.64"/>
	<circle cx="2888.45" cy="2351.45" r="14.97" style="fill:none;stroke:#606060;stroke-width:8.64"/>
	<circle cx="2888.45" cy="739.31" r="14.97" style="fill:none;stroke:#606060;stroke-width:8.64"/>
	<circle cx="2888.45" cy="739.31" r="14.97" style="fill:none;stroke:#606060;stroke-width:8.64"/>
	<circle cx="2888.45" cy="739.31" r="14.97" style="fill:none;stroke:#606060;stroke-width:8.64"/>
	<circle cx="2888.45" cy="928.90" r="14.97" style="fill:none;stroke:#606060;stroke-width:8.64"/>
	<circle cx="2888.45" cy="739.31" r="14.97" style="fill:none;stroke:#606060;stroke-width:8.64"/>
	<circle cx="2888.45" cy="739.31" r="14.97" style="fill:none;stroke:#606060;stroke-width:8.64"/>
	<circle cx="2970.87" cy="739.31" r="14.97" style="fill:none;stroke:#606060;stroke-width:8.64"/>
	<circle cx="2970.87" cy="739.31" r="14.97" style="fill:none;stroke:#606060;stroke-width:8.64"/>
	<circle cx="2970.87" cy="739.31" r="14.97" style="fill:none;stroke:#606060;stroke-width:8.64"/>
	<circle cx="2970.87" cy="739.31" r="14.97" style="fill:none;stroke:#606060;stroke-width:8.64"/>
	<circle cx="2970.87" cy="739.31" r="14.97" style="fill:none;stroke:#606060;stroke-width:8.64"/>
	<circle cx="2970.87" cy="928.90" r="14.97" style="fill:none;stroke:#606060;stroke-width:8.64"/>
	<circle cx="3053.41" cy="739.18" r="14.97" style="fill:none;stroke:#606060;stroke-width:8.64"/>
	<circle cx="3053.41" cy="739.18" r="14.97" style="fill:none;stroke:#606060;stroke-width:8.64"/>
	<circle cx="3053.41" cy="739.18" r="14.97" style="fill:none;stroke:#606060;stroke-width:8.64"/>
	<circle cx="3053.41" cy="739.18" r="14.97" style="fill:none;stroke:#606060;stroke-width:8.64"/>
	<circle cx="3053.41" cy="928.90" r="14.97" style="fill:none;stroke:#606060;stroke-width:8.64"/>
	<circle cx="3053.41" cy="739.18" r="14.97" style="fill:none;stroke:#606060;stroke-width:8.64"/>
	<circle cx="3053.41" cy="739.18" r="14.97" style="fill:none;stroke:#606060;stroke-width:8.64"/>
	<circle cx="3053.41" cy="739.18" r="14.97" style="fill:none;stroke:#606060;stroke-width:8.64"/>
	<circle cx="3053.41" cy="2351.32" r="14.97" style="fill:none;stroke:#606060;stroke-width:8.64"/>
	<circle cx="3053.41" cy="739.18" r="14.97" style="fill:none;stroke:#606060;stroke-width:8.64"/>
	<circle cx="3053.41" cy="928.90" r="14.97" style="fill:none;stroke:#606060;stroke-width:8.64"/>
	<circle cx="3053.41" cy="928.90" r="14.97" style="fill:none;stroke:#606060;stroke-width:8.64"/>
	<circle cx="3135.82" cy="739.18" r="14.97" style="fill:none;stroke:#606060;stroke-width:8.64"/>
	<circle cx="3218.37" cy="739.18" r="14.97" style="fill:none;stroke:#606060;stroke-width:8.64"/>
	<circle cx="3218.37" cy="739.18" r="14.97" style="fill:none;stroke:#606060;stroke-width:8.64"/>
	<circle cx="3218.37" cy="739.18" r="14.97" style="fill:none;stroke:#606060;stroke-width:8.64"/>
	<circle cx="3218.37" cy="739.18" r="14.97" style="fill:none;stroke:#606060;stroke-width:8.64"/>
	<circle cx="3218.37" cy="739.18" r="14.97" style="fill:none;stroke:#606060;stroke-width:8.64"/>
	<circle cx="3218.37" cy="2351.32" r="14.97" style="fill:none;stroke:#606060;stroke-width:8.64"/>
	<path d=" M414.07 931.87 L496.49 930.38 L579.03 930.38 L579.03 941.27 L661.44 939.66 L661.44 950.31 L661.44 960.83 L661.44 959.09 L661.44 957.48 L661.44 955.87 L743.99 954.39 L743.99 952.78 L743.99 952.66 L743.99 951.17 L743.99 950.92 L826.40 950.80 L826.40 949.32 L826.40 947.95 L826.40 946.47 L826.40 945.11 L908.94 943.62 L908.94 942.26 L908.94 940.90 L908.94 939.66 L908.94 938.30 L908.94 947.58 L991.36 947.46 L991.36 946.10 L991.36 944.74 L991.36 943.38 L991.36 952.29 L1073.90 951.05 L1073.90 949.69 L1073.90 948.33 L1073.90 948.20 L1073.90 948.08 L1156.32 946.84 L1156.32 945.60 L1156.32 944.37 L1156.32 943.13 L1156.32 941.89 L1156.32 950.31 L1156.32 949.07 L1156.32 947.83 L1156.32 946.59 L1156.32 945.36 L1156.32 944.24 L1156.32 944.12 L1156.32 952.16 L1156.32 950.92 L1156.32 949.69 L1238.86 948.57 L1238.86 947.34 L1238.86 946.22 L1238.86 945.11 L1238.86 943.99 L1238.86 943.87 L1238.86 943.75 L1238.86 942.76 L1238.86 941.64 L1321.28 940.53 L1321.28 940.53 L1321.28 940.41 L1321.28 939.42 L1321.28 938.30 L1321.28 938.30 L1321.28 945.60 L1321.28 944.49 L1403.82 943.50 L1403.82 942.39 L1403.82 941.40 L1403.82 940.41 L1403.82 939.42 L1403.82 938.43 L1403.82 937.44 L1403.82 936.45 L1403.82 935.46 L1403.82 935.46 L1403.82 934.47 L1403.82 933.48 L1403.82 932.61 L1486.24 939.42 L1486.24 938.43 L1486.24 937.44 L1486.24 936.57 L1486.24 943.13 L1486.24 943.13 L1486.24 942.14 L1486.24 948.70 L1486.24 948.57 L1568.78 947.58 L1568.78 946.72 L1568.78 945.73 L1568.78 945.73 L1568.78 944.74 L1568.78 951.05 L1568.78 950.06 L1568.78 949.19 L1568.78 948.20 L1568.78 947.34 L1568.78 946.35 L1568.78 945.48 L1568.78 944.61 L1651.20 943.75 L1651.20 942.88 L1651.20 942.01 L1651.20 941.15 L1651.20 940.28 L1651.20 940.16 L1651.20 940.16 L1651.20 939.29 L1651.20 945.23 L1651.20 944.37 L1651.20 943.50 L1651.20 942.63 L1651.20 941.77 L1651.20 941.02 L1651.20 940.90 L1733.74 940.16 L1733.74 939.29 L1733.74 938.55 L1733.74 937.68 L1733.74 936.94 L1733.74 936.07 L1733.74 935.33 L1733.74 935.33 L1733.74 935.33 L1733.74 934.47 L1733.74 934.47 L1733.74 933.72 L1733.74 934.47 L1733.74 934.47 L1816.15 935.21 L1816.15 935.21 L1816.15 935.95 L1816.15 929.64 L1816.15 935.95 L1816.15 935.95 L1816.15 935.95 L1816.15 929.64 L1816.15 928.90 L1816.15 922.59 L1816.15 922.59 L1816.15 921.84 L1816.15 921.84 L1816.15 921.84 L1898.70 921.10 L1898.70 920.36 L1898.70 920.36 L1898.70 919.61 L1898.70 925.93 L1898.70 925.93 L1898.70 925.93 L1898.70 926.67 L1898.70 920.36 L1898.70 921.10 L1898.70 921.10 L1898.70 921.84 L1898.70 921.10 L1898.70 921.10 L1898.70 921.10 L1898.70 920.36 L1898.70 920.36 L1981.11 920.36 L1981.11 921.10 L1981.11 921.10 L1981.11 921.10 L1981.11 921.10 L1981.11 921.10 L1981.11 921.10 L1981.11 920.36 L1981.11 920.36 L1981.11 921.10 L1981.11 921.10 L1981.11 921.10 L1981.11 914.79 L1981.11 914.79 L1981.11 915.53 L1981.11 915.53 L1981.11 915.53 L1981.11 915.53 L1981.11 921.84 L2063.66 921.84 L2063.66 916.27 L2063.66 916.27 L2063.66 909.96 L2063.66 909.96 L2063.66 909.96 L2063.66 909.96 L2063.66 903.65 L2063.66 902.91 L2063.66 909.22 L2063.66 903.53 L2146.07 904.15 L2146.07 904.89 L2146.07 905.51 L2146.07 906.13 L2146.07 906.87 L2146.07 906.74 L2146.07 907.36 L2146.07 908.11 L2146.07 908.85 L2146.07 909.47 L2146.07 910.21 L2146.07 910.95 L2146.07 910.83 L2146.07 911.57 L2228.61 912.31 L2228.61 912.93 L2228.61 913.67 L2228.61 914.42 L2228.61 915.16 L2228.61 915.90 L2228.61 916.77 L2228.61 917.51 L2228.61 918.25 L2228.61 919.00 L2228.61 919.00 L2228.61 919.74 L2228.61 920.61 L2228.61 921.35 L2311.03 921.35 L2311.03 922.09 L2311.03 922.96 L2311.03 923.82 L2311.03 917.39 L2311.03 918.13 L2311.03 918.13 L2311.03 918.87 L2311.03 919.74 L2393.57 920.61 L2393.57 920.48 L2393.57 920.48 L2393.57 921.35 L2393.57 922.21 L2393.57 923.08 L2393.57 923.08 L2475.99 923.95 L2475.99 923.95 L2475.99 924.81 L2475.99 925.68 L2475.99 925.68 L2475.99 926.55 L2475.99 926.55 L2475.99 927.54 L2475.99 928.40 L2475.99 929.39 L2475.99 930.38 L2558.53 930.38 L2558.53 931.37 L2558.53 932.36 L2558.53 933.35 L2558.53 933.35 L2558.53 933.35 L2558.53 925.93 L2558.53 926.92 L2558.53 927.91 L2640.95 927.91 L2640.95 920.36 L2640.95 921.35 L2640.95 913.67 L2640.95 905.88 L2640.95 906.74 L2640.95 907.73 L2640.95 908.60 L2640.95 909.59 L2640.95 910.46 L2640.95 910.33 L2640.95 911.32 L2723.49 911.20 L2723.49 911.20 L2723.49 912.07 L2723.49 913.06 L2723.49 914.17 L2723.49 915.16 L2723.49 916.15 L2723.49 917.26 L2723.49 918.25 L2723.49 919.37 L2723.49 920.36 L2723.49 911.82 L2723.49 911.69 L2805.91 912.68 L2805.91 913.80 L2805.91 914.91 L2805.91 906.00 L2805.91 906.99 L2888.45 908.11 L2888.45 909.10 L2888.45 908.97 L2888.45 908.85 L2888.45 909.96 L2888.45 911.08 L2888.45 912.19 L2970.87 913.30 L2970.87 914.42 L2970.87 904.89 L2970.87 906.00 L2970.87 907.12 L2970.87 908.23 L3053.41 909.47 L3053.41 910.58 L3053.41 910.46 L3053.41 900.43 L3053.41 901.55 L3053.41 902.66 L3053.41 903.90 L3053.41 905.01 L3053.41 906.25 L3053.41 907.49 L3053.41 908.72 L3053.41 908.60 L3135.82 908.35 L3218.37 909.71 L3218.37 910.95 L3218.37 912.31 L3218.37 912.19 L3218.37 912.07 L3218.37 913.30" stroke-linejoin="round" style="fill:none;stroke:#000000;stroke-width:8.64"/>
	<line x1="350.71" y1="2414.69" x2="350.71" y2="235.38" style="stroke:#000000;stroke-width:5.76"/>
	<line x1="350.71" y1="2305.29" x2="310.74" y2="2305.29" style="stroke:#000000;stroke-width:5.76"/>
	<text x="266.64" y="2305.29" style="font-family:'Helvetica';font-size:79.94px;fill:#000000" transform="rotate(-90 266.64,2305.29)" text-anchor="middle">-10</text>
	<line x1="350.71" y1="1636.52" x2="310.74" y2="1636.52" style="stroke:#000000;stroke-width:5.76"/>
	<text x="266.64" y="1636.52" style="font-family:'Helvetica';font-size:79.94px;fill:#000000" transform="rotate(-90 266.64,1636.52)" text-anchor="middle">-5</text>
	<line x1="350.71" y1="967.63" x2="310.74" y2="967.63" style="stroke:#000000;stroke-width:5.76"/>
	<text x="266.64" y="967.63" style="font-family:'Helvetica';font-size:79.94px;fill:#000000" transform="rotate(-90 266.64,967.63)" text-anchor="middle">0</text>
	<line x1="350.71" y1="298.74" x2="310.74" y2="298.74" style="stroke:#000000;stroke-width:5.76"/>
	<text x="266.64" y="298.74" style="font-family:'Helvetica';font-size:79.94px;fill:#000000" transform="rotate(-90 266.64,298.74)" text-anchor="middle">5</text>
	<text x="176.68" y="1325.03" style="font-family:'Helvetica';font-size:79.94px;fill:#000000" transform="rotate(-90 176.68,1325.03)" text-anchor="middle">Scaled Shoenfeld Residuals</text>
	<line x1="350.71" y1="2414.69" x2="3859.02" y2="2414.69" style="stroke:#000000;stroke-width:5.76"/>
	<line x1="496.61" y1="2414.69" x2="496.61" y2="2454.66" style="stroke:#000000;stroke-width:5.76"/>
	<text x="496.61" y="2530.61" style="font-family:'Helvetica';font-size:79.94px;fill:#000000" text-anchor="middle">20</text>
	<line x1="1321.40" y1="2414.69" x2="1321.40" y2="2454.66" style="stroke:#000000;stroke-width:5.76"/>
	<text x="1321.40" y="2530.61" style="font-family:'Helvetica';font-size:79.94px;fill:#000000" text-anchor="middle">30</text>
	<line x1="2146.20" y1="2414.69" x2="2146.20" y2="2454.66" style="stroke:#000000;stroke-width:5.76"/>
	<text x="2146.20" y="2530.61" style="font-family:'Helvetica';font-size:79.94px;fill:#000000" text-anchor="middle">40</text>
	<line x1="2970.99" y1="2414.69" x2="2970.99" y2="2454.66" style="stroke:#000000;stroke-width:5.76"/>
	<text x="2970.99" y="2530.61" style="font-family:'Helvetica';font-size:79.94px;fill:#000000" text-anchor="middle">50</text>
	<line x1="3795.66" y1="2414.69" x2="3795.66" y2="2454.66" style="stroke:#000000;stroke-width:5.76"/>
	<text x="3795.66" y="2530.61" style="font-family:'Helvetica';font-size:79.94px;fill:#000000" text-anchor="middle">60</text>
	<text x="2104.86" y="2620.57" style="font-family:'Helvetica';font-size:79.94px;fill:#000000" text-anchor="middle">Time</text>
	<text x="368.03" y="2737.89" style="font-family:'Helvetica';font-size:79.94px;fill:#000000">bandwidth = .8</text>
	<text x="368.03" y="187.99" style="font-family:'Helvetica';font-size:99.99px;fill:#000000">Schoenfeld residuals against time, univariable ICS (Low/Medium Dose)</text>
</svg>
