<?xml version="1.0" encoding="UTF-8" standalone="no"?>
<!-- This is a Stata 16.1 generated SVG file (http://www.stata.com) -->

<svg version="1.1" width="5.50in" height="4.00in" viewBox="0 0 3960 2880" xmlns="http://www.w3.org/2000/svg" xmlns:xlink="http://www.w3.org/1999/xlink">
	<desc>Stata Graph - Graph</desc>
	<rect x="0" y="0" width="3960" height="2880" style="fill:#FFFFFF;stroke:none"/>
	<rect x="0.00" y="0.00" width="3959.88" height="2880.00" style="fill:#FFFFFF"/>
	<rect x="2.88" y="2.88" width="3954.12" height="2874.24" style="fill:none;stroke:#FFFFFF;stroke-width:5.76"/>
	<rect x="353.59" y="238.26" width="3502.55" height="2173.55" style="fill:none;stroke:#000000;stroke-width:5.76"/>
	<circle cx="414.07" cy="401.33" r="14.97" style="fill:none;stroke:#606060;stroke-width:8.64"/>
	<circle cx="496.49" cy="397.87" r="14.97" style="fill:none;stroke:#606060;stroke-width:8.64"/>
	<circle cx="579.03" cy="1024.81" r="14.97" style="fill:none;stroke:#606060;stroke-width:8.64"/>
	<circle cx="579.03" cy="947.58" r="14.97" style="fill:none;stroke:#606060;stroke-width:8.64"/>
	<circle cx="661.44" cy="1021.09" r="14.97" style="fill:none;stroke:#606060;stroke-width:8.64"/>
	<circle cx="661.44" cy="1023.44" r="14.97" style="fill:none;stroke:#606060;stroke-width:8.64"/>
	<circle cx="661.44" cy="1017.13" r="14.97" style="fill:none;stroke:#606060;stroke-width:8.64"/>
	<circle cx="661.44" cy="2348.85" r="14.97" style="fill:none;stroke:#606060;stroke-width:8.64"/>
	<circle cx="661.44" cy="1022.83" r="14.97" style="fill:none;stroke:#606060;stroke-width:8.64"/>
	<circle cx="661.44" cy="1022.08" r="14.97" style="fill:none;stroke:#606060;stroke-width:8.64"/>
	<circle cx="743.99" cy="1022.58" r="14.97" style="fill:none;stroke:#606060;stroke-width:8.64"/>
	<circle cx="743.99" cy="2345.26" r="14.97" style="fill:none;stroke:#606060;stroke-width:8.64"/>
	<circle cx="743.99" cy="396.26" r="14.97" style="fill:none;stroke:#606060;stroke-width:8.64"/>
	<circle cx="743.99" cy="2342.17" r="14.97" style="fill:none;stroke:#606060;stroke-width:8.64"/>
	<circle cx="743.99" cy="1023.07" r="14.97" style="fill:none;stroke:#606060;stroke-width:8.64"/>
	<circle cx="826.40" cy="398.86" r="14.97" style="fill:none;stroke:#606060;stroke-width:8.64"/>
	<circle cx="826.40" cy="1022.58" r="14.97" style="fill:none;stroke:#606060;stroke-width:8.64"/>
	<circle cx="826.40" cy="985.70" r="14.97" style="fill:none;stroke:#606060;stroke-width:8.64"/>
	<circle cx="826.40" cy="401.95" r="14.97" style="fill:none;stroke:#606060;stroke-width:8.64"/>
	<circle cx="826.40" cy="404.18" r="14.97" style="fill:none;stroke:#606060;stroke-width:8.64"/>
	<circle cx="908.94" cy="1019.11" r="14.97" style="fill:none;stroke:#606060;stroke-width:8.64"/>
	<circle cx="908.94" cy="404.55" r="14.97" style="fill:none;stroke:#606060;stroke-width:8.64"/>
	<circle cx="908.94" cy="1026.04" r="14.97" style="fill:none;stroke:#606060;stroke-width:8.64"/>
	<circle cx="908.94" cy="1018.99" r="14.97" style="fill:none;stroke:#606060;stroke-width:8.64"/>
	<circle cx="908.94" cy="395.39" r="14.97" style="fill:none;stroke:#606060;stroke-width:8.64"/>
	<circle cx="908.94" cy="1015.28" r="14.97" style="fill:none;stroke:#606060;stroke-width:8.64"/>
	<circle cx="991.36" cy="2348.35" r="14.97" style="fill:none;stroke:#606060;stroke-width:8.64"/>
	<circle cx="991.36" cy="1020.97" r="14.97" style="fill:none;stroke:#606060;stroke-width:8.64"/>
	<circle cx="991.36" cy="1017.63" r="14.97" style="fill:none;stroke:#606060;stroke-width:8.64"/>
	<circle cx="991.36" cy="1016.64" r="14.97" style="fill:none;stroke:#606060;stroke-width:8.64"/>
	<circle cx="991.36" cy="404.06" r="14.97" style="fill:none;stroke:#606060;stroke-width:8.64"/>
	<circle cx="1073.90" cy="406.66" r="14.97" style="fill:none;stroke:#606060;stroke-width:8.64"/>
	<circle cx="1073.90" cy="2348.23" r="14.97" style="fill:none;stroke:#606060;stroke-width:8.64"/>
	<circle cx="1073.90" cy="400.59" r="14.97" style="fill:none;stroke:#606060;stroke-width:8.64"/>
	<circle cx="1073.90" cy="1014.66" r="14.97" style="fill:none;stroke:#606060;stroke-width:8.64"/>
	<circle cx="1073.90" cy="1026.41" r="14.97" style="fill:none;stroke:#606060;stroke-width:8.64"/>
	<circle cx="1156.32" cy="1016.64" r="14.97" style="fill:none;stroke:#606060;stroke-width:8.64"/>
	<circle cx="1156.32" cy="1022.21" r="14.97" style="fill:none;stroke:#606060;stroke-width:8.64"/>
	<circle cx="1156.32" cy="1021.96" r="14.97" style="fill:none;stroke:#606060;stroke-width:8.64"/>
	<circle cx="1156.32" cy="1023.69" r="14.97" style="fill:none;stroke:#606060;stroke-width:8.64"/>
	<circle cx="1156.32" cy="1019.73" r="14.97" style="fill:none;stroke:#606060;stroke-width:8.64"/>
	<circle cx="1156.32" cy="1013.79" r="14.97" style="fill:none;stroke:#606060;stroke-width:8.64"/>
	<circle cx="1156.32" cy="401.46" r="14.97" style="fill:none;stroke:#606060;stroke-width:8.64"/>
	<circle cx="1156.32" cy="1020.97" r="14.97" style="fill:none;stroke:#606060;stroke-width:8.64"/>
	<circle cx="1156.32" cy="1015.90" r="14.97" style="fill:none;stroke:#606060;stroke-width:8.64"/>
	<circle cx="1156.32" cy="1021.96" r="14.97" style="fill:none;stroke:#606060;stroke-width:8.64"/>
	<circle cx="1156.32" cy="1021.59" r="14.97" style="fill:none;stroke:#606060;stroke-width:8.64"/>
	<circle cx="1156.32" cy="2337.59" r="14.97" style="fill:none;stroke:#606060;stroke-width:8.64"/>
	<circle cx="1156.32" cy="1018.37" r="14.97" style="fill:none;stroke:#606060;stroke-width:8.64"/>
	<circle cx="1156.32" cy="1026.29" r="14.97" style="fill:none;stroke:#606060;stroke-width:8.64"/>
	<circle cx="1156.32" cy="1019.48" r="14.97" style="fill:none;stroke:#606060;stroke-width:8.64"/>
	<circle cx="1238.86" cy="1020.97" r="14.97" style="fill:none;stroke:#606060;stroke-width:8.64"/>
	<circle cx="1238.86" cy="1022.21" r="14.97" style="fill:none;stroke:#606060;stroke-width:8.64"/>
	<circle cx="1238.86" cy="985.58" r="14.97" style="fill:none;stroke:#606060;stroke-width:8.64"/>
	<circle cx="1238.86" cy="1014.41" r="14.97" style="fill:none;stroke:#606060;stroke-width:8.64"/>
	<circle cx="1238.86" cy="2299.72" r="14.97" style="fill:none;stroke:#606060;stroke-width:8.64"/>
	<circle cx="1238.86" cy="403.44" r="14.97" style="fill:none;stroke:#606060;stroke-width:8.64"/>
	<circle cx="1238.86" cy="2272.49" r="14.97" style="fill:none;stroke:#606060;stroke-width:8.64"/>
	<circle cx="1238.86" cy="1024.68" r="14.97" style="fill:none;stroke:#606060;stroke-width:8.64"/>
	<circle cx="1238.86" cy="1021.34" r="14.97" style="fill:none;stroke:#606060;stroke-width:8.64"/>
	<circle cx="1321.28" cy="1024.06" r="14.97" style="fill:none;stroke:#606060;stroke-width:8.64"/>
	<circle cx="1321.28" cy="2346.00" r="14.97" style="fill:none;stroke:#606060;stroke-width:8.64"/>
	<circle cx="1321.28" cy="402.45" r="14.97" style="fill:none;stroke:#606060;stroke-width:8.64"/>
	<circle cx="1321.28" cy="997.83" r="14.97" style="fill:none;stroke:#606060;stroke-width:8.64"/>
	<circle cx="1321.28" cy="2343.90" r="14.97" style="fill:none;stroke:#606060;stroke-width:8.64"/>
	<circle cx="1321.28" cy="1022.70" r="14.97" style="fill:none;stroke:#606060;stroke-width:8.64"/>
	<circle cx="1321.28" cy="1016.39" r="14.97" style="fill:none;stroke:#606060;stroke-width:8.64"/>
	<circle cx="1321.28" cy="1016.51" r="14.97" style="fill:none;stroke:#606060;stroke-width:8.64"/>
	<circle cx="1403.82" cy="999.31" r="14.97" style="fill:none;stroke:#606060;stroke-width:8.64"/>
	<circle cx="1403.82" cy="1018.37" r="14.97" style="fill:none;stroke:#606060;stroke-width:8.64"/>
	<circle cx="1403.82" cy="404.18" r="14.97" style="fill:none;stroke:#606060;stroke-width:8.64"/>
	<circle cx="1403.82" cy="1022.21" r="14.97" style="fill:none;stroke:#606060;stroke-width:8.64"/>
	<circle cx="1403.82" cy="1014.66" r="14.97" style="fill:none;stroke:#606060;stroke-width:8.64"/>
	<circle cx="1403.82" cy="1023.57" r="14.97" style="fill:none;stroke:#606060;stroke-width:8.64"/>
	<circle cx="1403.82" cy="1018.25" r="14.97" style="fill:none;stroke:#606060;stroke-width:8.64"/>
	<circle cx="1403.82" cy="1020.97" r="14.97" style="fill:none;stroke:#606060;stroke-width:8.64"/>
	<circle cx="1403.82" cy="882.98" r="14.97" style="fill:none;stroke:#606060;stroke-width:8.64"/>
	<circle cx="1403.82" cy="404.55" r="14.97" style="fill:none;stroke:#606060;stroke-width:8.64"/>
	<circle cx="1403.82" cy="1020.72" r="14.97" style="fill:none;stroke:#606060;stroke-width:8.64"/>
	<circle cx="1403.82" cy="1017.13" r="14.97" style="fill:none;stroke:#606060;stroke-width:8.64"/>
	<circle cx="1403.82" cy="1024.06" r="14.97" style="fill:none;stroke:#606060;stroke-width:8.64"/>
	<circle cx="1486.24" cy="1020.10" r="14.97" style="fill:none;stroke:#606060;stroke-width:8.64"/>
	<circle cx="1486.24" cy="1023.57" r="14.97" style="fill:none;stroke:#606060;stroke-width:8.64"/>
	<circle cx="1486.24" cy="897.09" r="14.97" style="fill:none;stroke:#606060;stroke-width:8.64"/>
	<circle cx="1486.24" cy="1020.97" r="14.97" style="fill:none;stroke:#606060;stroke-width:8.64"/>
	<circle cx="1486.24" cy="1022.21" r="14.97" style="fill:none;stroke:#606060;stroke-width:8.64"/>
	<circle cx="1486.24" cy="1023.57" r="14.97" style="fill:none;stroke:#606060;stroke-width:8.64"/>
	<circle cx="1486.24" cy="1020.72" r="14.97" style="fill:none;stroke:#606060;stroke-width:8.64"/>
	<circle cx="1486.24" cy="1024.68" r="14.97" style="fill:none;stroke:#606060;stroke-width:8.64"/>
	<circle cx="1486.24" cy="406.90" r="14.97" style="fill:none;stroke:#606060;stroke-width:8.64"/>
	<circle cx="1568.78" cy="1022.21" r="14.97" style="fill:none;stroke:#606060;stroke-width:8.64"/>
	<circle cx="1568.78" cy="1024.68" r="14.97" style="fill:none;stroke:#606060;stroke-width:8.64"/>
	<circle cx="1568.78" cy="1022.95" r="14.97" style="fill:none;stroke:#606060;stroke-width:8.64"/>
	<circle cx="1568.78" cy="397.99" r="14.97" style="fill:none;stroke:#606060;stroke-width:8.64"/>
	<circle cx="1568.78" cy="1017.26" r="14.97" style="fill:none;stroke:#606060;stroke-width:8.64"/>
	<circle cx="1568.78" cy="1024.68" r="14.97" style="fill:none;stroke:#606060;stroke-width:8.64"/>
	<circle cx="1568.78" cy="1022.21" r="14.97" style="fill:none;stroke:#606060;stroke-width:8.64"/>
	<circle cx="1568.78" cy="2349.71" r="14.97" style="fill:none;stroke:#606060;stroke-width:8.64"/>
	<circle cx="1568.78" cy="1005.75" r="14.97" style="fill:none;stroke:#606060;stroke-width:8.64"/>
	<circle cx="1568.78" cy="396.14" r="14.97" style="fill:none;stroke:#606060;stroke-width:8.64"/>
	<circle cx="1568.78" cy="1026.29" r="14.97" style="fill:none;stroke:#606060;stroke-width:8.64"/>
	<circle cx="1568.78" cy="1020.72" r="14.97" style="fill:none;stroke:#606060;stroke-width:8.64"/>
	<circle cx="1568.78" cy="1013.79" r="14.97" style="fill:none;stroke:#606060;stroke-width:8.64"/>
	<circle cx="1651.20" cy="352.08" r="14.97" style="fill:none;stroke:#606060;stroke-width:8.64"/>
	<circle cx="1651.20" cy="401.46" r="14.97" style="fill:none;stroke:#606060;stroke-width:8.64"/>
	<circle cx="1651.20" cy="1020.97" r="14.97" style="fill:none;stroke:#606060;stroke-width:8.64"/>
	<circle cx="1651.20" cy="1022.95" r="14.97" style="fill:none;stroke:#606060;stroke-width:8.64"/>
	<circle cx="1651.20" cy="1026.29" r="14.97" style="fill:none;stroke:#606060;stroke-width:8.64"/>
	<circle cx="1651.20" cy="403.93" r="14.97" style="fill:none;stroke:#606060;stroke-width:8.64"/>
	<circle cx="1651.20" cy="1018.87" r="14.97" style="fill:none;stroke:#606060;stroke-width:8.64"/>
	<circle cx="1651.20" cy="392.67" r="14.97" style="fill:none;stroke:#606060;stroke-width:8.64"/>
	<circle cx="1651.20" cy="1021.59" r="14.97" style="fill:none;stroke:#606060;stroke-width:8.64"/>
	<circle cx="1651.20" cy="1015.28" r="14.97" style="fill:none;stroke:#606060;stroke-width:8.64"/>
	<circle cx="1651.20" cy="393.17" r="14.97" style="fill:none;stroke:#606060;stroke-width:8.64"/>
	<circle cx="1651.20" cy="1022.83" r="14.97" style="fill:none;stroke:#606060;stroke-width:8.64"/>
	<circle cx="1651.20" cy="396.14" r="14.97" style="fill:none;stroke:#606060;stroke-width:8.64"/>
	<circle cx="1651.20" cy="1021.34" r="14.97" style="fill:none;stroke:#606060;stroke-width:8.64"/>
	<circle cx="1651.20" cy="1014.66" r="14.97" style="fill:none;stroke:#606060;stroke-width:8.64"/>
	<circle cx="1733.74" cy="1023.32" r="14.97" style="fill:none;stroke:#606060;stroke-width:8.64"/>
	<circle cx="1733.74" cy="1012.55" r="14.97" style="fill:none;stroke:#606060;stroke-width:8.64"/>
	<circle cx="1733.74" cy="398.86" r="14.97" style="fill:none;stroke:#606060;stroke-width:8.64"/>
	<circle cx="1733.74" cy="1017.63" r="14.97" style="fill:none;stroke:#606060;stroke-width:8.64"/>
	<circle cx="1733.74" cy="1021.34" r="14.97" style="fill:none;stroke:#606060;stroke-width:8.64"/>
	<circle cx="1733.74" cy="947.34" r="14.97" style="fill:none;stroke:#606060;stroke-width:8.64"/>
	<circle cx="1733.74" cy="403.93" r="14.97" style="fill:none;stroke:#606060;stroke-width:8.64"/>
	<circle cx="1733.74" cy="392.55" r="14.97" style="fill:none;stroke:#606060;stroke-width:8.64"/>
	<circle cx="1733.74" cy="2334.49" r="14.97" style="fill:none;stroke:#606060;stroke-width:8.64"/>
	<circle cx="1733.74" cy="888.92" r="14.97" style="fill:none;stroke:#606060;stroke-width:8.64"/>
	<circle cx="1733.74" cy="974.69" r="14.97" style="fill:none;stroke:#606060;stroke-width:8.64"/>
	<circle cx="1733.74" cy="395.52" r="14.97" style="fill:none;stroke:#606060;stroke-width:8.64"/>
	<circle cx="1733.74" cy="2351.45" r="14.97" style="fill:none;stroke:#606060;stroke-width:8.64"/>
	<circle cx="1733.74" cy="1021.34" r="14.97" style="fill:none;stroke:#606060;stroke-width:8.64"/>
	<circle cx="1816.15" cy="2348.23" r="14.97" style="fill:none;stroke:#606060;stroke-width:8.64"/>
	<circle cx="1816.15" cy="2348.23" r="14.97" style="fill:none;stroke:#606060;stroke-width:8.64"/>
	<circle cx="1816.15" cy="1019.48" r="14.97" style="fill:none;stroke:#606060;stroke-width:8.64"/>
	<circle cx="1816.15" cy="1019.61" r="14.97" style="fill:none;stroke:#606060;stroke-width:8.64"/>
	<circle cx="1816.15" cy="1020.97" r="14.97" style="fill:none;stroke:#606060;stroke-width:8.64"/>
	<circle cx="1816.15" cy="1026.41" r="14.97" style="fill:none;stroke:#606060;stroke-width:8.64"/>
	<circle cx="1816.15" cy="1017.13" r="14.97" style="fill:none;stroke:#606060;stroke-width:8.64"/>
	<circle cx="1816.15" cy="402.32" r="14.97" style="fill:none;stroke:#606060;stroke-width:8.64"/>
	<circle cx="1816.15" cy="1005.75" r="14.97" style="fill:none;stroke:#606060;stroke-width:8.64"/>
	<circle cx="1816.15" cy="402.57" r="14.97" style="fill:none;stroke:#606060;stroke-width:8.64"/>
	<circle cx="1816.15" cy="401.21" r="14.97" style="fill:none;stroke:#606060;stroke-width:8.64"/>
	<circle cx="1816.15" cy="1023.44" r="14.97" style="fill:none;stroke:#606060;stroke-width:8.64"/>
	<circle cx="1816.15" cy="974.69" r="14.97" style="fill:none;stroke:#606060;stroke-width:8.64"/>
	<circle cx="1816.15" cy="1021.34" r="14.97" style="fill:none;stroke:#606060;stroke-width:8.64"/>
	<circle cx="1898.70" cy="1026.41" r="14.97" style="fill:none;stroke:#606060;stroke-width:8.64"/>
	<circle cx="1898.70" cy="1020.10" r="14.97" style="fill:none;stroke:#606060;stroke-width:8.64"/>
	<circle cx="1898.70" cy="1022.45" r="14.97" style="fill:none;stroke:#606060;stroke-width:8.64"/>
	<circle cx="1898.70" cy="1012.18" r="14.97" style="fill:none;stroke:#606060;stroke-width:8.64"/>
	<circle cx="1898.70" cy="993.12" r="14.97" style="fill:none;stroke:#606060;stroke-width:8.64"/>
	<circle cx="1898.70" cy="1016.51" r="14.97" style="fill:none;stroke:#606060;stroke-width:8.64"/>
	<circle cx="1898.70" cy="2349.10" r="14.97" style="fill:none;stroke:#606060;stroke-width:8.64"/>
	<circle cx="1898.70" cy="401.33" r="14.97" style="fill:none;stroke:#606060;stroke-width:8.64"/>
	<circle cx="1898.70" cy="1016.51" r="14.97" style="fill:none;stroke:#606060;stroke-width:8.64"/>
	<circle cx="1898.70" cy="1012.55" r="14.97" style="fill:none;stroke:#606060;stroke-width:8.64"/>
	<circle cx="1898.70" cy="1018.99" r="14.97" style="fill:none;stroke:#606060;stroke-width:8.64"/>
	<circle cx="1898.70" cy="2350.46" r="14.97" style="fill:none;stroke:#606060;stroke-width:8.64"/>
	<circle cx="1898.70" cy="1017.63" r="14.97" style="fill:none;stroke:#606060;stroke-width:8.64"/>
	<circle cx="1898.70" cy="1005.75" r="14.97" style="fill:none;stroke:#606060;stroke-width:8.64"/>
	<circle cx="1898.70" cy="1025.67" r="14.97" style="fill:none;stroke:#606060;stroke-width:8.64"/>
	<circle cx="1898.70" cy="397.00" r="14.97" style="fill:none;stroke:#606060;stroke-width:8.64"/>
	<circle cx="1898.70" cy="402.08" r="14.97" style="fill:none;stroke:#606060;stroke-width:8.64"/>
	<circle cx="1981.11" cy="1025.18" r="14.97" style="fill:none;stroke:#606060;stroke-width:8.64"/>
	<circle cx="1981.11" cy="1022.95" r="14.97" style="fill:none;stroke:#606060;stroke-width:8.64"/>
	<circle cx="1981.11" cy="1020.10" r="14.97" style="fill:none;stroke:#606060;stroke-width:8.64"/>
	<circle cx="1981.11" cy="1009.09" r="14.97" style="fill:none;stroke:#606060;stroke-width:8.64"/>
	<circle cx="1981.11" cy="1026.29" r="14.97" style="fill:none;stroke:#606060;stroke-width:8.64"/>
	<circle cx="1981.11" cy="2200.47" r="14.97" style="fill:none;stroke:#606060;stroke-width:8.64"/>
	<circle cx="1981.11" cy="1020.35" r="14.97" style="fill:none;stroke:#606060;stroke-width:8.64"/>
	<circle cx="1981.11" cy="1017.01" r="14.97" style="fill:none;stroke:#606060;stroke-width:8.64"/>
	<circle cx="1981.11" cy="1025.18" r="14.97" style="fill:none;stroke:#606060;stroke-width:8.64"/>
	<circle cx="1981.11" cy="1017.01" r="14.97" style="fill:none;stroke:#606060;stroke-width:8.64"/>
	<circle cx="1981.11" cy="1013.17" r="14.97" style="fill:none;stroke:#606060;stroke-width:8.64"/>
	<circle cx="1981.11" cy="406.66" r="14.97" style="fill:none;stroke:#606060;stroke-width:8.64"/>
	<circle cx="1981.11" cy="2343.40" r="14.97" style="fill:none;stroke:#606060;stroke-width:8.64"/>
	<circle cx="1981.11" cy="1022.83" r="14.97" style="fill:none;stroke:#606060;stroke-width:8.64"/>
	<circle cx="1981.11" cy="1018.99" r="14.97" style="fill:none;stroke:#606060;stroke-width:8.64"/>
	<circle cx="1981.11" cy="1017.75" r="14.97" style="fill:none;stroke:#606060;stroke-width:8.64"/>
	<circle cx="1981.11" cy="1014.53" r="14.97" style="fill:none;stroke:#606060;stroke-width:8.64"/>
	<circle cx="1981.11" cy="1018.37" r="14.97" style="fill:none;stroke:#606060;stroke-width:8.64"/>
	<circle cx="1981.11" cy="1026.41" r="14.97" style="fill:none;stroke:#606060;stroke-width:8.64"/>
	<circle cx="2063.66" cy="1013.30" r="14.97" style="fill:none;stroke:#606060;stroke-width:8.64"/>
	<circle cx="2063.66" cy="403.31" r="14.97" style="fill:none;stroke:#606060;stroke-width:8.64"/>
	<circle cx="2063.66" cy="298.74" r="14.97" style="fill:none;stroke:#606060;stroke-width:8.64"/>
	<circle cx="2063.66" cy="1015.65" r="14.97" style="fill:none;stroke:#606060;stroke-width:8.64"/>
	<circle cx="2063.66" cy="1023.69" r="14.97" style="fill:none;stroke:#606060;stroke-width:8.64"/>
	<circle cx="2063.66" cy="1023.69" r="14.97" style="fill:none;stroke:#606060;stroke-width:8.64"/>
	<circle cx="2063.66" cy="401.46" r="14.97" style="fill:none;stroke:#606060;stroke-width:8.64"/>
	<circle cx="2063.66" cy="395.02" r="14.97" style="fill:none;stroke:#606060;stroke-width:8.64"/>
	<circle cx="2063.66" cy="1017.13" r="14.97" style="fill:none;stroke:#606060;stroke-width:8.64"/>
	<circle cx="2063.66" cy="1026.41" r="14.97" style="fill:none;stroke:#606060;stroke-width:8.64"/>
	<circle cx="2063.66" cy="389.58" r="14.97" style="fill:none;stroke:#606060;stroke-width:8.64"/>
	<circle cx="2146.07" cy="2348.48" r="14.97" style="fill:none;stroke:#606060;stroke-width:8.64"/>
	<circle cx="2146.07" cy="1023.20" r="14.97" style="fill:none;stroke:#606060;stroke-width:8.64"/>
	<circle cx="2146.07" cy="1024.06" r="14.97" style="fill:none;stroke:#606060;stroke-width:8.64"/>
	<circle cx="2146.07" cy="1022.83" r="14.97" style="fill:none;stroke:#606060;stroke-width:8.64"/>
	<circle cx="2146.07" cy="1018.37" r="14.97" style="fill:none;stroke:#606060;stroke-width:8.64"/>
	<circle cx="2146.07" cy="1019.24" r="14.97" style="fill:none;stroke:#606060;stroke-width:8.64"/>
	<circle cx="2146.07" cy="1013.05" r="14.97" style="fill:none;stroke:#606060;stroke-width:8.64"/>
	<circle cx="2146.07" cy="1020.72" r="14.97" style="fill:none;stroke:#606060;stroke-width:8.64"/>
	<circle cx="2146.07" cy="1018.37" r="14.97" style="fill:none;stroke:#606060;stroke-width:8.64"/>
	<circle cx="2146.07" cy="1015.15" r="14.97" style="fill:none;stroke:#606060;stroke-width:8.64"/>
	<circle cx="2146.07" cy="1018.74" r="14.97" style="fill:none;stroke:#606060;stroke-width:8.64"/>
	<circle cx="2146.07" cy="406.78" r="14.97" style="fill:none;stroke:#606060;stroke-width:8.64"/>
	<circle cx="2146.07" cy="1006.37" r="14.97" style="fill:none;stroke:#606060;stroke-width:8.64"/>
	<circle cx="2146.07" cy="1022.45" r="14.97" style="fill:none;stroke:#606060;stroke-width:8.64"/>
	<circle cx="2228.61" cy="1017.50" r="14.97" style="fill:none;stroke:#606060;stroke-width:8.64"/>
	<circle cx="2228.61" cy="2342.54" r="14.97" style="fill:none;stroke:#606060;stroke-width:8.64"/>
	<circle cx="2228.61" cy="1022.83" r="14.97" style="fill:none;stroke:#606060;stroke-width:8.64"/>
	<circle cx="2228.61" cy="994.98" r="14.97" style="fill:none;stroke:#606060;stroke-width:8.64"/>
	<circle cx="2228.61" cy="1026.29" r="14.97" style="fill:none;stroke:#606060;stroke-width:8.64"/>
	<circle cx="2228.61" cy="2296.50" r="14.97" style="fill:none;stroke:#606060;stroke-width:8.64"/>
	<circle cx="2228.61" cy="398.12" r="14.97" style="fill:none;stroke:#606060;stroke-width:8.64"/>
	<circle cx="2228.61" cy="1025.05" r="14.97" style="fill:none;stroke:#606060;stroke-width:8.64"/>
	<circle cx="2228.61" cy="2341.92" r="14.97" style="fill:none;stroke:#606060;stroke-width:8.64"/>
	<circle cx="2228.61" cy="401.71" r="14.97" style="fill:none;stroke:#606060;stroke-width:8.64"/>
	<circle cx="2228.61" cy="1020.23" r="14.97" style="fill:none;stroke:#606060;stroke-width:8.64"/>
	<circle cx="2228.61" cy="1017.01" r="14.97" style="fill:none;stroke:#606060;stroke-width:8.64"/>
	<circle cx="2228.61" cy="1014.29" r="14.97" style="fill:none;stroke:#606060;stroke-width:8.64"/>
	<circle cx="2228.61" cy="386.11" r="14.97" style="fill:none;stroke:#606060;stroke-width:8.64"/>
	<circle cx="2311.03" cy="1021.84" r="14.97" style="fill:none;stroke:#606060;stroke-width:8.64"/>
	<circle cx="2311.03" cy="2345.63" r="14.97" style="fill:none;stroke:#606060;stroke-width:8.64"/>
	<circle cx="2311.03" cy="882.98" r="14.97" style="fill:none;stroke:#606060;stroke-width:8.64"/>
	<circle cx="2311.03" cy="1022.08" r="14.97" style="fill:none;stroke:#606060;stroke-width:8.64"/>
	<circle cx="2311.03" cy="974.56" r="14.97" style="fill:none;stroke:#606060;stroke-width:8.64"/>
	<circle cx="2311.03" cy="944.61" r="14.97" style="fill:none;stroke:#606060;stroke-width:8.64"/>
	<circle cx="2311.03" cy="1015.03" r="14.97" style="fill:none;stroke:#606060;stroke-width:8.64"/>
	<circle cx="2311.03" cy="1023.44" r="14.97" style="fill:none;stroke:#606060;stroke-width:8.64"/>
	<circle cx="2311.03" cy="1016.39" r="14.97" style="fill:none;stroke:#606060;stroke-width:8.64"/>
	<circle cx="2393.57" cy="1024.56" r="14.97" style="fill:none;stroke:#606060;stroke-width:8.64"/>
	<circle cx="2393.57" cy="926.67" r="14.97" style="fill:none;stroke:#606060;stroke-width:8.64"/>
	<circle cx="2393.57" cy="1017.50" r="14.97" style="fill:none;stroke:#606060;stroke-width:8.64"/>
	<circle cx="2393.57" cy="1015.65" r="14.97" style="fill:none;stroke:#606060;stroke-width:8.64"/>
	<circle cx="2393.57" cy="1002.90" r="14.97" style="fill:none;stroke:#606060;stroke-width:8.64"/>
	<circle cx="2393.57" cy="400.59" r="14.97" style="fill:none;stroke:#606060;stroke-width:8.64"/>
	<circle cx="2393.57" cy="382.28" r="14.97" style="fill:none;stroke:#606060;stroke-width:8.64"/>
	<circle cx="2475.99" cy="1026.17" r="14.97" style="fill:none;stroke:#606060;stroke-width:8.64"/>
	<circle cx="2475.99" cy="2351.08" r="14.97" style="fill:none;stroke:#606060;stroke-width:8.64"/>
	<circle cx="2475.99" cy="988.05" r="14.97" style="fill:none;stroke:#606060;stroke-width:8.64"/>
	<circle cx="2475.99" cy="1020.23" r="14.97" style="fill:none;stroke:#606060;stroke-width:8.64"/>
	<circle cx="2475.99" cy="1023.32" r="14.97" style="fill:none;stroke:#606060;stroke-width:8.64"/>
	<circle cx="2475.99" cy="1025.55" r="14.97" style="fill:none;stroke:#606060;stroke-width:8.64"/>
	<circle cx="2475.99" cy="1016.39" r="14.97" style="fill:none;stroke:#606060;stroke-width:8.64"/>
	<circle cx="2475.99" cy="403.56" r="14.97" style="fill:none;stroke:#606060;stroke-width:8.64"/>
	<circle cx="2475.99" cy="1019.11" r="14.97" style="fill:none;stroke:#606060;stroke-width:8.64"/>
	<circle cx="2475.99" cy="985.33" r="14.97" style="fill:none;stroke:#606060;stroke-width:8.64"/>
	<circle cx="2475.99" cy="985.33" r="14.97" style="fill:none;stroke:#606060;stroke-width:8.64"/>
	<circle cx="2558.53" cy="1023.32" r="14.97" style="fill:none;stroke:#606060;stroke-width:8.64"/>
	<circle cx="2558.53" cy="1021.84" r="14.97" style="fill:none;stroke:#606060;stroke-width:8.64"/>
	<circle cx="2558.53" cy="1016.89" r="14.97" style="fill:none;stroke:#606060;stroke-width:8.64"/>
	<circle cx="2558.53" cy="1015.15" r="14.97" style="fill:none;stroke:#606060;stroke-width:8.64"/>
	<circle cx="2558.53" cy="397.25" r="14.97" style="fill:none;stroke:#606060;stroke-width:8.64"/>
	<circle cx="2558.53" cy="397.50" r="14.97" style="fill:none;stroke:#606060;stroke-width:8.64"/>
	<circle cx="2558.53" cy="1020.85" r="14.97" style="fill:none;stroke:#606060;stroke-width:8.64"/>
	<circle cx="2558.53" cy="399.97" r="14.97" style="fill:none;stroke:#606060;stroke-width:8.64"/>
	<circle cx="2558.53" cy="1023.07" r="14.97" style="fill:none;stroke:#606060;stroke-width:8.64"/>
	<circle cx="2640.95" cy="360.50" r="14.97" style="fill:none;stroke:#606060;stroke-width:8.64"/>
	<circle cx="2640.95" cy="1015.52" r="14.97" style="fill:none;stroke:#606060;stroke-width:8.64"/>
	<circle cx="2640.95" cy="392.42" r="14.97" style="fill:none;stroke:#606060;stroke-width:8.64"/>
	<circle cx="2640.95" cy="1014.29" r="14.97" style="fill:none;stroke:#606060;stroke-width:8.64"/>
	<circle cx="2640.95" cy="401.83" r="14.97" style="fill:none;stroke:#606060;stroke-width:8.64"/>
	<circle cx="2640.95" cy="1022.70" r="14.97" style="fill:none;stroke:#606060;stroke-width:8.64"/>
	<circle cx="2640.95" cy="2348.35" r="14.97" style="fill:none;stroke:#606060;stroke-width:8.64"/>
	<circle cx="2640.95" cy="1019.98" r="14.97" style="fill:none;stroke:#606060;stroke-width:8.64"/>
	<circle cx="2640.95" cy="1025.18" r="14.97" style="fill:none;stroke:#606060;stroke-width:8.64"/>
	<circle cx="2640.95" cy="999.06" r="14.97" style="fill:none;stroke:#606060;stroke-width:8.64"/>
	<circle cx="2640.95" cy="999.06" r="14.97" style="fill:none;stroke:#606060;stroke-width:8.64"/>
	<circle cx="2640.95" cy="1023.94" r="14.97" style="fill:none;stroke:#606060;stroke-width:8.64"/>
	<circle cx="2723.49" cy="1025.80" r="14.97" style="fill:none;stroke:#606060;stroke-width:8.64"/>
	<circle cx="2723.49" cy="1011.32" r="14.97" style="fill:none;stroke:#606060;stroke-width:8.64"/>
	<circle cx="2723.49" cy="1021.84" r="14.97" style="fill:none;stroke:#606060;stroke-width:8.64"/>
	<circle cx="2723.49" cy="920.98" r="14.97" style="fill:none;stroke:#606060;stroke-width:8.64"/>
	<circle cx="2723.49" cy="1023.07" r="14.97" style="fill:none;stroke:#606060;stroke-width:8.64"/>
	<circle cx="2723.49" cy="1016.89" r="14.97" style="fill:none;stroke:#606060;stroke-width:8.64"/>
	<circle cx="2723.49" cy="935.21" r="14.97" style="fill:none;stroke:#606060;stroke-width:8.64"/>
	<circle cx="2723.49" cy="1025.80" r="14.97" style="fill:none;stroke:#606060;stroke-width:8.64"/>
	<circle cx="2723.49" cy="2347.12" r="14.97" style="fill:none;stroke:#606060;stroke-width:8.64"/>
	<circle cx="2723.49" cy="1014.29" r="14.97" style="fill:none;stroke:#606060;stroke-width:8.64"/>
	<circle cx="2723.49" cy="406.28" r="14.97" style="fill:none;stroke:#606060;stroke-width:8.64"/>
	<circle cx="2723.49" cy="397.87" r="14.97" style="fill:none;stroke:#606060;stroke-width:8.64"/>
	<circle cx="2723.49" cy="926.67" r="14.97" style="fill:none;stroke:#606060;stroke-width:8.64"/>
	<circle cx="2805.91" cy="395.64" r="14.97" style="fill:none;stroke:#606060;stroke-width:8.64"/>
	<circle cx="2805.91" cy="1026.17" r="14.97" style="fill:none;stroke:#606060;stroke-width:8.64"/>
	<circle cx="2805.91" cy="349.23" r="14.97" style="fill:none;stroke:#606060;stroke-width:8.64"/>
	<circle cx="2805.91" cy="997.70" r="14.97" style="fill:none;stroke:#606060;stroke-width:8.64"/>
	<circle cx="2805.91" cy="401.95" r="14.97" style="fill:none;stroke:#606060;stroke-width:8.64"/>
	<circle cx="2888.45" cy="2330.66" r="14.97" style="fill:none;stroke:#606060;stroke-width:8.64"/>
	<circle cx="2888.45" cy="1016.76" r="14.97" style="fill:none;stroke:#606060;stroke-width:8.64"/>
	<circle cx="2888.45" cy="1019.98" r="14.97" style="fill:none;stroke:#606060;stroke-width:8.64"/>
	<circle cx="2888.45" cy="1014.41" r="14.97" style="fill:none;stroke:#606060;stroke-width:8.64"/>
	<circle cx="2888.45" cy="401.33" r="14.97" style="fill:none;stroke:#606060;stroke-width:8.64"/>
	<circle cx="2888.45" cy="1018.87" r="14.97" style="fill:none;stroke:#606060;stroke-width:8.64"/>
	<circle cx="2888.45" cy="1014.91" r="14.97" style="fill:none;stroke:#606060;stroke-width:8.64"/>
	<circle cx="2970.87" cy="1023.07" r="14.97" style="fill:none;stroke:#606060;stroke-width:8.64"/>
	<circle cx="2970.87" cy="1017.01" r="14.97" style="fill:none;stroke:#606060;stroke-width:8.64"/>
	<circle cx="2970.87" cy="982.73" r="14.97" style="fill:none;stroke:#606060;stroke-width:8.64"/>
	<circle cx="2970.87" cy="1018.25" r="14.97" style="fill:none;stroke:#606060;stroke-width:8.64"/>
	<circle cx="2970.87" cy="1015.52" r="14.97" style="fill:none;stroke:#606060;stroke-width:8.64"/>
	<circle cx="2970.87" cy="396.01" r="14.97" style="fill:none;stroke:#606060;stroke-width:8.64"/>
	<circle cx="3053.41" cy="1022.33" r="14.97" style="fill:none;stroke:#606060;stroke-width:8.64"/>
	<circle cx="3053.41" cy="888.80" r="14.97" style="fill:none;stroke:#606060;stroke-width:8.64"/>
	<circle cx="3053.41" cy="1017.13" r="14.97" style="fill:none;stroke:#606060;stroke-width:8.64"/>
	<circle cx="3053.41" cy="1023.07" r="14.97" style="fill:none;stroke:#606060;stroke-width:8.64"/>
	<circle cx="3053.41" cy="327.70" r="14.97" style="fill:none;stroke:#606060;stroke-width:8.64"/>
	<circle cx="3053.41" cy="1025.80" r="14.97" style="fill:none;stroke:#606060;stroke-width:8.64"/>
	<circle cx="3053.41" cy="1023.94" r="14.97" style="fill:none;stroke:#606060;stroke-width:8.64"/>
	<circle cx="3053.41" cy="1016.39" r="14.97" style="fill:none;stroke:#606060;stroke-width:8.64"/>
	<circle cx="3053.41" cy="2350.83" r="14.97" style="fill:none;stroke:#606060;stroke-width:8.64"/>
	<circle cx="3053.41" cy="1012.06" r="14.97" style="fill:none;stroke:#606060;stroke-width:8.64"/>
	<circle cx="3053.41" cy="386.73" r="14.97" style="fill:none;stroke:#606060;stroke-width:8.64"/>
	<circle cx="3053.41" cy="395.15" r="14.97" style="fill:none;stroke:#606060;stroke-width:8.64"/>
	<circle cx="3135.82" cy="1026.17" r="14.97" style="fill:none;stroke:#606060;stroke-width:8.64"/>
	<circle cx="3218.37" cy="1026.04" r="14.97" style="fill:none;stroke:#606060;stroke-width:8.64"/>
	<circle cx="3218.37" cy="1013.05" r="14.97" style="fill:none;stroke:#606060;stroke-width:8.64"/>
	<circle cx="3218.37" cy="1015.52" r="14.97" style="fill:none;stroke:#606060;stroke-width:8.64"/>
	<circle cx="3218.37" cy="1019.98" r="14.97" style="fill:none;stroke:#606060;stroke-width:8.64"/>
	<circle cx="3218.37" cy="988.05" r="14.97" style="fill:none;stroke:#606060;stroke-width:8.64"/>
	<circle cx="3218.37" cy="2351.08" r="14.97" style="fill:none;stroke:#606060;stroke-width:8.64"/>
	<path d=" M414.07 1002.53 L496.49 1002.41 L579.03 997.70 L579.03 1007.98 L661.44 1008.10 L661.44 1018.25 L661.44 1028.15 L661.44 1028.02 L661.44 1028.02 L661.44 1027.90 L743.99 1027.90 L743.99 1027.90 L743.99 1023.44 L743.99 1023.32 L743.99 1018.87 L826.40 1014.53 L826.40 1014.66 L826.40 1014.41 L826.40 1014.41 L826.40 1014.53 L908.94 1014.53 L908.94 1014.53 L908.94 1014.53 L908.94 1014.41 L908.94 1014.41 L908.94 1023.20 L991.36 1019.11 L991.36 1019.11 L991.36 1019.11 L991.36 1019.11 L991.36 1027.53 L1073.90 1027.40 L1073.90 1027.28 L1073.90 1027.28 L1073.90 1023.44 L1073.90 1019.61 L1156.32 1019.61 L1156.32 1019.61 L1156.32 1019.61 L1156.32 1019.61 L1156.32 1019.61 L1156.32 1026.66 L1156.32 1026.54 L1156.32 1026.54 L1156.32 1026.54 L1156.32 1026.41 L1156.32 1026.41 L1156.32 1022.83 L1156.32 1030.37 L1156.32 1030.25 L1156.32 1030.25 L1238.86 1030.13 L1238.86 1030.13 L1238.86 1030.00 L1238.86 1030.00 L1238.86 1029.88 L1238.86 1026.54 L1238.86 1022.58 L1238.86 1022.58 L1238.86 1022.58 L1321.28 1022.58 L1321.28 1019.24 L1321.28 1016.02 L1321.28 1016.02 L1321.28 1016.02 L1321.28 1012.80 L1321.28 1019.61 L1321.28 1019.73 L1403.82 1019.73 L1403.82 1019.73 L1403.82 1019.73 L1403.82 1019.73 L1403.82 1019.73 L1403.82 1019.73 L1403.82 1019.73 L1403.82 1019.61 L1403.82 1019.61 L1403.82 1016.64 L1403.82 1016.64 L1403.82 1016.64 L1403.82 1016.64 L1486.24 1022.95 L1486.24 1022.95 L1486.24 1022.83 L1486.24 1022.83 L1486.24 1028.89 L1486.24 1025.92 L1486.24 1025.92 L1486.24 1031.98 L1486.24 1029.14 L1568.78 1029.01 L1568.78 1029.01 L1568.78 1028.89 L1568.78 1026.04 L1568.78 1026.04 L1568.78 1031.86 L1568.78 1031.24 L1568.78 1031.24 L1568.78 1030.99 L1568.78 1030.62 L1568.78 1030.50 L1568.78 1030.50 L1568.78 1030.37 L1651.20 1030.37 L1651.20 1030.00 L1651.20 1029.88 L1651.20 1029.88 L1651.20 1029.76 L1651.20 1027.03 L1651.20 1024.31 L1651.20 1024.31 L1651.20 1029.88 L1651.20 1029.76 L1651.20 1029.63 L1651.20 1029.63 L1651.20 1029.63 L1651.20 1029.63 L1651.20 1027.03 L1733.74 1027.03 L1733.74 1026.79 L1733.74 1026.66 L1733.74 1026.66 L1733.74 1026.66 L1733.74 1026.54 L1733.74 1026.54 L1733.74 1024.06 L1733.74 1021.59 L1733.74 1021.59 L1733.74 1021.59 L1733.74 1024.06 L1733.74 1021.46 L1733.74 1021.71 L1816.15 1019.24 L1816.15 1019.24 L1816.15 1016.76 L1816.15 1011.56 L1816.15 1016.76 L1816.15 1016.76 L1816.15 1016.76 L1816.15 1011.44 L1816.15 1013.92 L1816.15 1008.72 L1816.15 1008.72 L1816.15 1011.07 L1816.15 1011.07 L1816.15 1010.82 L1898.70 1013.30 L1898.70 1015.65 L1898.70 1015.40 L1898.70 1017.75 L1898.70 1022.95 L1898.70 1022.95 L1898.70 1022.95 L1898.70 1020.60 L1898.70 1015.03 L1898.70 1012.55 L1898.70 1012.55 L1898.70 1009.96 L1898.70 1012.31 L1898.70 1012.31 L1898.70 1012.18 L1898.70 1014.66 L1898.70 1014.66 L1981.11 1014.53 L1981.11 1012.18 L1981.11 1012.18 L1981.11 1012.18 L1981.11 1012.18 L1981.11 1012.18 L1981.11 1012.06 L1981.11 1014.41 L1981.11 1014.41 L1981.11 1011.94 L1981.11 1011.94 L1981.11 1011.44 L1981.11 1006.24 L1981.11 1006.24 L1981.11 1003.52 L1981.11 1003.52 L1981.11 1003.64 L1981.11 1003.52 L1981.11 1008.97 L2063.66 1008.97 L2063.66 1001.42 L2063.66 1001.42 L2063.66 996.47 L2063.66 996.47 L2063.66 996.47 L2063.66 996.47 L2063.66 991.27 L2063.66 993.50 L2063.66 998.82 L2063.66 993.50 L2146.07 993.37 L2146.07 993.37 L2146.07 993.25 L2146.07 993.25 L2146.07 993.12 L2146.07 995.48 L2146.07 995.35 L2146.07 995.35 L2146.07 995.23 L2146.07 995.10 L2146.07 994.98 L2146.07 995.48 L2146.07 997.95 L2146.07 997.83 L2228.61 997.70 L2228.61 997.58 L2228.61 997.46 L2228.61 997.46 L2228.61 997.83 L2228.61 997.70 L2228.61 997.58 L2228.61 997.46 L2228.61 997.46 L2228.61 997.33 L2228.61 999.93 L2228.61 999.81 L2228.61 999.68 L2228.61 999.56 L2311.03 1002.28 L2311.03 1002.16 L2311.03 1002.04 L2311.03 1002.04 L2311.03 995.85 L2311.03 995.85 L2311.03 998.57 L2311.03 998.45 L2311.03 998.32 L2393.57 998.32 L2393.57 1001.29 L2393.57 1004.02 L2393.57 1004.02 L2393.57 1003.89 L2393.57 1003.77 L2393.57 1006.61 L2475.99 1006.61 L2475.99 1009.58 L2475.99 1009.46 L2475.99 1009.46 L2475.99 1012.43 L2475.99 1012.43 L2475.99 1015.40 L2475.99 1015.40 L2475.99 1015.40 L2475.99 1015.40 L2475.99 1015.40 L2558.53 1018.49 L2558.53 1018.49 L2558.53 1018.49 L2558.53 1018.87 L2558.53 1022.08 L2558.53 1025.30 L2558.53 1018.49 L2558.53 1019.11 L2558.53 1019.36 L2640.95 1022.70 L2640.95 1015.65 L2640.95 1015.65 L2640.95 1008.47 L2640.95 1001.17 L2640.95 1001.05 L2640.95 1001.05 L2640.95 1000.92 L2640.95 1000.80 L2640.95 1000.67 L2640.95 1004.02 L2640.95 1004.02 L2723.49 1007.36 L2723.49 1010.82 L2723.49 1010.70 L2723.49 1010.95 L2723.49 1010.95 L2723.49 1010.82 L2723.49 1010.82 L2723.49 1010.70 L2723.49 1010.70 L2723.49 1010.82 L2723.49 1010.70 L2723.49 1002.65 L2723.49 1006.37 L2805.91 1006.24 L2805.91 1006.24 L2805.91 1006.12 L2805.91 997.83 L2805.91 997.70 L2888.45 997.58 L2888.45 997.46 L2888.45 1001.29 L2888.45 1005.13 L2888.45 1005.01 L2888.45 1004.88 L2888.45 1004.76 L2970.87 1004.76 L2970.87 1004.63 L2970.87 996.59 L2970.87 996.47 L2970.87 996.34 L2970.87 996.09 L3053.41 995.97 L3053.41 995.85 L3053.41 999.93 L3053.41 990.53 L3053.41 990.40 L3053.41 990.15 L3053.41 989.91 L3053.41 989.78 L3053.41 989.54 L3053.41 989.29 L3053.41 989.16 L3053.41 993.50 L3135.82 998.69 L3218.37 998.57 L3218.37 998.32 L3218.37 998.07 L3218.37 1002.78 L3218.37 1007.48 L3218.37 1007.36" stroke-linejoin="round" style="fill:none;stroke:#000000;stroke-width:8.64"/>
	<line x1="350.71" y1="2414.69" x2="350.71" y2="235.38" style="stroke:#000000;stroke-width:5.76"/>
	<line x1="350.71" y1="2314.07" x2="310.74" y2="2314.07" style="stroke:#000000;stroke-width:5.76"/>
	<text x="266.64" y="2314.07" style="font-family:'Helvetica';font-size:79.94px;fill:#000000" transform="rotate(-90 266.64,2314.07)" text-anchor="middle">-10</text>
	<line x1="350.71" y1="1693.08" x2="310.74" y2="1693.08" style="stroke:#000000;stroke-width:5.76"/>
	<text x="266.64" y="1693.08" style="font-family:'Helvetica';font-size:79.94px;fill:#000000" transform="rotate(-90 266.64,1693.08)" text-anchor="middle">-5</text>
	<line x1="350.71" y1="1072.08" x2="310.74" y2="1072.08" style="stroke:#000000;stroke-width:5.76"/>
	<text x="266.64" y="1072.08" style="font-family:'Helvetica';font-size:79.94px;fill:#000000" transform="rotate(-90 266.64,1072.08)" text-anchor="middle">0</text>
	<line x1="350.71" y1="451.08" x2="310.74" y2="451.08" style="stroke:#000000;stroke-width:5.76"/>
	<text x="266.64" y="451.08" style="font-family:'Helvetica';font-size:79.94px;fill:#000000" transform="rotate(-90 266.64,451.08)" text-anchor="middle">5</text>
	<text x="176.68" y="1325.03" style="font-family:'Helvetica';font-size:79.94px;fill:#000000" transform="rotate(-90 176.68,1325.03)" text-anchor="middle">Scaled Shoenfeld Residuals</text>
	<line x1="350.71" y1="2414.69" x2="3859.02" y2="2414.69" style="stroke:#000000;stroke-width:5.76"/>
	<line x1="496.61" y1="2414.69" x2="496.61" y2="2454.66" style="stroke:#000000;stroke-width:5.76"/>
	<text x="496.61" y="2530.61" style="font-family:'Helvetica';font-size:79.94px;fill:#000000" text-anchor="middle">20</text>
	<line x1="1321.40" y1="2414.69" x2="1321.40" y2="2454.66" style="stroke:#000000;stroke-width:5.76"/>
	<text x="1321.40" y="2530.61" style="font-family:'Helvetica';font-size:79.94px;fill:#000000" text-anchor="middle">30</text>
	<line x1="2146.20" y1="2414.69" x2="2146.20" y2="2454.66" style="stroke:#000000;stroke-width:5.76"/>
	<text x="2146.20" y="2530.61" style="font-family:'Helvetica';font-size:79.94px;fill:#000000" text-anchor="middle">40</text>
	<line x1="2970.99" y1="2414.69" x2="2970.99" y2="2454.66" style="stroke:#000000;stroke-width:5.76"/>
	<text x="2970.99" y="2530.61" style="font-family:'Helvetica';font-size:79.94px;fill:#000000" text-anchor="middle">50</text>
	<line x1="3795.66" y1="2414.69" x2="3795.66" y2="2454.66" style="stroke:#000000;stroke-width:5.76"/>
	<text x="3795.66" y="2530.61" style="font-family:'Helvetica';font-size:79.94px;fill:#000000" text-anchor="middle">60</text>
	<text x="2104.86" y="2620.57" style="font-family:'Helvetica';font-size:79.94px;fill:#000000" text-anchor="middle">Time</text>
	<text x="368.03" y="2737.89" style="font-family:'Helvetica';font-size:79.94px;fill:#000000">bandwidth = .8</text>
	<text x="368.03" y="187.99" style="font-family:'Helvetica';font-size:99.99px;fill:#000000">Schoenfeld residuals against time, age and sex adjusted ICS (High Dose)</text>
</svg>
