<?xml version="1.0" encoding="UTF-8" standalone="no"?>
<!-- This is a Stata 16.1 generated SVG file (http://www.stata.com) -->

<svg version="1.1" width="5.50in" height="4.00in" viewBox="0 0 3960 2880" xmlns="http://www.w3.org/2000/svg" xmlns:xlink="http://www.w3.org/1999/xlink">
	<desc>Stata Graph - Graph</desc>
	<rect x="0" y="0" width="3960" height="2880" style="fill:#FFFFFF;stroke:none"/>
	<rect x="0.00" y="0.00" width="3959.88" height="2880.00" style="fill:#FFFFFF"/>
	<rect x="2.88" y="2.88" width="3954.12" height="2874.24" style="fill:none;stroke:#FFFFFF;stroke-width:5.76"/>
	<rect x="353.59" y="238.26" width="3502.55" height="2173.55" style="fill:none;stroke:#000000;stroke-width:5.76"/>
	<circle cx="414.07" cy="980.38" r="14.97" style="fill:none;stroke:#606060;stroke-width:8.64"/>
	<circle cx="496.49" cy="987.18" r="14.97" style="fill:none;stroke:#606060;stroke-width:8.64"/>
	<circle cx="579.03" cy="678.42" r="14.97" style="fill:none;stroke:#606060;stroke-width:8.64"/>
	<circle cx="579.03" cy="678.05" r="14.97" style="fill:none;stroke:#606060;stroke-width:8.64"/>
	<circle cx="661.44" cy="747.10" r="14.97" style="fill:none;stroke:#606060;stroke-width:8.64"/>
	<circle cx="661.44" cy="760.72" r="14.97" style="fill:none;stroke:#606060;stroke-width:8.64"/>
	<circle cx="661.44" cy="729.78" r="14.97" style="fill:none;stroke:#606060;stroke-width:8.64"/>
	<circle cx="661.44" cy="2280.91" r="14.97" style="fill:none;stroke:#606060;stroke-width:8.64"/>
	<circle cx="661.44" cy="751.06" r="14.97" style="fill:none;stroke:#606060;stroke-width:8.64"/>
	<circle cx="661.44" cy="666.91" r="14.97" style="fill:none;stroke:#606060;stroke-width:8.64"/>
	<circle cx="743.99" cy="761.33" r="14.97" style="fill:none;stroke:#606060;stroke-width:8.64"/>
	<circle cx="743.99" cy="2256.65" r="14.97" style="fill:none;stroke:#606060;stroke-width:8.64"/>
	<circle cx="743.99" cy="935.21" r="14.97" style="fill:none;stroke:#606060;stroke-width:8.64"/>
	<circle cx="743.99" cy="2308.75" r="14.97" style="fill:none;stroke:#606060;stroke-width:8.64"/>
	<circle cx="743.99" cy="747.47" r="14.97" style="fill:none;stroke:#606060;stroke-width:8.64"/>
	<circle cx="826.40" cy="879.39" r="14.97" style="fill:none;stroke:#606060;stroke-width:8.64"/>
	<circle cx="826.40" cy="732.62" r="14.97" style="fill:none;stroke:#606060;stroke-width:8.64"/>
	<circle cx="826.40" cy="648.84" r="14.97" style="fill:none;stroke:#606060;stroke-width:8.64"/>
	<circle cx="826.40" cy="869.87" r="14.97" style="fill:none;stroke:#606060;stroke-width:8.64"/>
	<circle cx="826.40" cy="891.65" r="14.97" style="fill:none;stroke:#606060;stroke-width:8.64"/>
	<circle cx="908.94" cy="758.98" r="14.97" style="fill:none;stroke:#606060;stroke-width:8.64"/>
	<circle cx="908.94" cy="932.24" r="14.97" style="fill:none;stroke:#606060;stroke-width:8.64"/>
	<circle cx="908.94" cy="712.33" r="14.97" style="fill:none;stroke:#606060;stroke-width:8.64"/>
	<circle cx="908.94" cy="704.41" r="14.97" style="fill:none;stroke:#606060;stroke-width:8.64"/>
	<circle cx="908.94" cy="889.79" r="14.97" style="fill:none;stroke:#606060;stroke-width:8.64"/>
	<circle cx="908.94" cy="727.30" r="14.97" style="fill:none;stroke:#606060;stroke-width:8.64"/>
	<circle cx="991.36" cy="2223.73" r="14.97" style="fill:none;stroke:#606060;stroke-width:8.64"/>
	<circle cx="991.36" cy="740.05" r="14.97" style="fill:none;stroke:#606060;stroke-width:8.64"/>
	<circle cx="991.36" cy="690.55" r="14.97" style="fill:none;stroke:#606060;stroke-width:8.64"/>
	<circle cx="991.36" cy="764.18" r="14.97" style="fill:none;stroke:#606060;stroke-width:8.64"/>
	<circle cx="991.36" cy="858.11" r="14.97" style="fill:none;stroke:#606060;stroke-width:8.64"/>
	<circle cx="1073.90" cy="1021.34" r="14.97" style="fill:none;stroke:#606060;stroke-width:8.64"/>
	<circle cx="1073.90" cy="2239.82" r="14.97" style="fill:none;stroke:#606060;stroke-width:8.64"/>
	<circle cx="1073.90" cy="908.35" r="14.97" style="fill:none;stroke:#606060;stroke-width:8.64"/>
	<circle cx="1073.90" cy="580.03" r="14.97" style="fill:none;stroke:#606060;stroke-width:8.64"/>
	<circle cx="1073.90" cy="707.50" r="14.97" style="fill:none;stroke:#606060;stroke-width:8.64"/>
	<circle cx="1156.32" cy="778.91" r="14.97" style="fill:none;stroke:#606060;stroke-width:8.64"/>
	<circle cx="1156.32" cy="722.85" r="14.97" style="fill:none;stroke:#606060;stroke-width:8.64"/>
	<circle cx="1156.32" cy="706.51" r="14.97" style="fill:none;stroke:#606060;stroke-width:8.64"/>
	<circle cx="1156.32" cy="709.48" r="14.97" style="fill:none;stroke:#606060;stroke-width:8.64"/>
	<circle cx="1156.32" cy="746.11" r="14.97" style="fill:none;stroke:#606060;stroke-width:8.64"/>
	<circle cx="1156.32" cy="720.25" r="14.97" style="fill:none;stroke:#606060;stroke-width:8.64"/>
	<circle cx="1156.32" cy="958.35" r="14.97" style="fill:none;stroke:#606060;stroke-width:8.64"/>
	<circle cx="1156.32" cy="683.37" r="14.97" style="fill:none;stroke:#606060;stroke-width:8.64"/>
	<circle cx="1156.32" cy="669.63" r="14.97" style="fill:none;stroke:#606060;stroke-width:8.64"/>
	<circle cx="1156.32" cy="723.59" r="14.97" style="fill:none;stroke:#606060;stroke-width:8.64"/>
	<circle cx="1156.32" cy="747.35" r="14.97" style="fill:none;stroke:#606060;stroke-width:8.64"/>
	<circle cx="1156.32" cy="2190.44" r="14.97" style="fill:none;stroke:#606060;stroke-width:8.64"/>
	<circle cx="1156.32" cy="725.82" r="14.97" style="fill:none;stroke:#606060;stroke-width:8.64"/>
	<circle cx="1156.32" cy="828.53" r="14.97" style="fill:none;stroke:#606060;stroke-width:8.64"/>
	<circle cx="1156.32" cy="671.98" r="14.97" style="fill:none;stroke:#606060;stroke-width:8.64"/>
	<circle cx="1238.86" cy="747.72" r="14.97" style="fill:none;stroke:#606060;stroke-width:8.64"/>
	<circle cx="1238.86" cy="772.84" r="14.97" style="fill:none;stroke:#606060;stroke-width:8.64"/>
	<circle cx="1238.86" cy="743.64" r="14.97" style="fill:none;stroke:#606060;stroke-width:8.64"/>
	<circle cx="1238.86" cy="739.80" r="14.97" style="fill:none;stroke:#606060;stroke-width:8.64"/>
	<circle cx="1238.86" cy="2240.32" r="14.97" style="fill:none;stroke:#606060;stroke-width:8.64"/>
	<circle cx="1238.86" cy="936.32" r="14.97" style="fill:none;stroke:#606060;stroke-width:8.64"/>
	<circle cx="1238.86" cy="2256.28" r="14.97" style="fill:none;stroke:#606060;stroke-width:8.64"/>
	<circle cx="1238.86" cy="695.25" r="14.97" style="fill:none;stroke:#606060;stroke-width:8.64"/>
	<circle cx="1238.86" cy="729.53" r="14.97" style="fill:none;stroke:#606060;stroke-width:8.64"/>
	<circle cx="1321.28" cy="790.54" r="14.97" style="fill:none;stroke:#606060;stroke-width:8.64"/>
	<circle cx="1321.28" cy="2263.46" r="14.97" style="fill:none;stroke:#606060;stroke-width:8.64"/>
	<circle cx="1321.28" cy="960.95" r="14.97" style="fill:none;stroke:#606060;stroke-width:8.64"/>
	<circle cx="1321.28" cy="715.42" r="14.97" style="fill:none;stroke:#606060;stroke-width:8.64"/>
	<circle cx="1321.28" cy="2299.47" r="14.97" style="fill:none;stroke:#606060;stroke-width:8.64"/>
	<circle cx="1321.28" cy="748.71" r="14.97" style="fill:none;stroke:#606060;stroke-width:8.64"/>
	<circle cx="1321.28" cy="815.04" r="14.97" style="fill:none;stroke:#606060;stroke-width:8.64"/>
	<circle cx="1321.28" cy="665.42" r="14.97" style="fill:none;stroke:#606060;stroke-width:8.64"/>
	<circle cx="1403.82" cy="823.33" r="14.97" style="fill:none;stroke:#606060;stroke-width:8.64"/>
	<circle cx="1403.82" cy="733.37" r="14.97" style="fill:none;stroke:#606060;stroke-width:8.64"/>
	<circle cx="1403.82" cy="884.84" r="14.97" style="fill:none;stroke:#606060;stroke-width:8.64"/>
	<circle cx="1403.82" cy="787.69" r="14.97" style="fill:none;stroke:#606060;stroke-width:8.64"/>
	<circle cx="1403.82" cy="688.81" r="14.97" style="fill:none;stroke:#606060;stroke-width:8.64"/>
	<circle cx="1403.82" cy="741.66" r="14.97" style="fill:none;stroke:#606060;stroke-width:8.64"/>
	<circle cx="1403.82" cy="700.45" r="14.97" style="fill:none;stroke:#606060;stroke-width:8.64"/>
	<circle cx="1403.82" cy="708.74" r="14.97" style="fill:none;stroke:#606060;stroke-width:8.64"/>
	<circle cx="1403.82" cy="707.25" r="14.97" style="fill:none;stroke:#606060;stroke-width:8.64"/>
	<circle cx="1403.82" cy="945.11" r="14.97" style="fill:none;stroke:#606060;stroke-width:8.64"/>
	<circle cx="1403.82" cy="715.05" r="14.97" style="fill:none;stroke:#606060;stroke-width:8.64"/>
	<circle cx="1403.82" cy="724.08" r="14.97" style="fill:none;stroke:#606060;stroke-width:8.64"/>
	<circle cx="1403.82" cy="780.52" r="14.97" style="fill:none;stroke:#606060;stroke-width:8.64"/>
	<circle cx="1486.24" cy="817.27" r="14.97" style="fill:none;stroke:#606060;stroke-width:8.64"/>
	<circle cx="1486.24" cy="727.18" r="14.97" style="fill:none;stroke:#606060;stroke-width:8.64"/>
	<circle cx="1486.24" cy="624.96" r="14.97" style="fill:none;stroke:#606060;stroke-width:8.64"/>
	<circle cx="1486.24" cy="764.80" r="14.97" style="fill:none;stroke:#606060;stroke-width:8.64"/>
	<circle cx="1486.24" cy="757.00" r="14.97" style="fill:none;stroke:#606060;stroke-width:8.64"/>
	<circle cx="1486.24" cy="782.74" r="14.97" style="fill:none;stroke:#606060;stroke-width:8.64"/>
	<circle cx="1486.24" cy="746.36" r="14.97" style="fill:none;stroke:#606060;stroke-width:8.64"/>
	<circle cx="1486.24" cy="765.67" r="14.97" style="fill:none;stroke:#606060;stroke-width:8.64"/>
	<circle cx="1486.24" cy="941.77" r="14.97" style="fill:none;stroke:#606060;stroke-width:8.64"/>
	<circle cx="1568.78" cy="764.92" r="14.97" style="fill:none;stroke:#606060;stroke-width:8.64"/>
	<circle cx="1568.78" cy="756.26" r="14.97" style="fill:none;stroke:#606060;stroke-width:8.64"/>
	<circle cx="1568.78" cy="720.99" r="14.97" style="fill:none;stroke:#606060;stroke-width:8.64"/>
	<circle cx="1568.78" cy="894.49" r="14.97" style="fill:none;stroke:#606060;stroke-width:8.64"/>
	<circle cx="1568.78" cy="722.10" r="14.97" style="fill:none;stroke:#606060;stroke-width:8.64"/>
	<circle cx="1568.78" cy="801.68" r="14.97" style="fill:none;stroke:#606060;stroke-width:8.64"/>
	<circle cx="1568.78" cy="788.31" r="14.97" style="fill:none;stroke:#606060;stroke-width:8.64"/>
	<circle cx="1568.78" cy="2208.14" r="14.97" style="fill:none;stroke:#606060;stroke-width:8.64"/>
	<circle cx="1568.78" cy="675.70" r="14.97" style="fill:none;stroke:#606060;stroke-width:8.64"/>
	<circle cx="1568.78" cy="967.38" r="14.97" style="fill:none;stroke:#606060;stroke-width:8.64"/>
	<circle cx="1568.78" cy="762.32" r="14.97" style="fill:none;stroke:#606060;stroke-width:8.64"/>
	<circle cx="1568.78" cy="745.99" r="14.97" style="fill:none;stroke:#606060;stroke-width:8.64"/>
	<circle cx="1568.78" cy="725.82" r="14.97" style="fill:none;stroke:#606060;stroke-width:8.64"/>
	<circle cx="1651.20" cy="877.79" r="14.97" style="fill:none;stroke:#606060;stroke-width:8.64"/>
	<circle cx="1651.20" cy="921.97" r="14.97" style="fill:none;stroke:#606060;stroke-width:8.64"/>
	<circle cx="1651.20" cy="708.86" r="14.97" style="fill:none;stroke:#606060;stroke-width:8.64"/>
	<circle cx="1651.20" cy="796.85" r="14.97" style="fill:none;stroke:#606060;stroke-width:8.64"/>
	<circle cx="1651.20" cy="721.86" r="14.97" style="fill:none;stroke:#606060;stroke-width:8.64"/>
	<circle cx="1651.20" cy="950.92" r="14.97" style="fill:none;stroke:#606060;stroke-width:8.64"/>
	<circle cx="1651.20" cy="714.55" r="14.97" style="fill:none;stroke:#606060;stroke-width:8.64"/>
	<circle cx="1651.20" cy="944.12" r="14.97" style="fill:none;stroke:#606060;stroke-width:8.64"/>
	<circle cx="1651.20" cy="766.41" r="14.97" style="fill:none;stroke:#606060;stroke-width:8.64"/>
	<circle cx="1651.20" cy="744.01" r="14.97" style="fill:none;stroke:#606060;stroke-width:8.64"/>
	<circle cx="1651.20" cy="849.69" r="14.97" style="fill:none;stroke:#606060;stroke-width:8.64"/>
	<circle cx="1651.20" cy="783.86" r="14.97" style="fill:none;stroke:#606060;stroke-width:8.64"/>
	<circle cx="1651.20" cy="897.83" r="14.97" style="fill:none;stroke:#606060;stroke-width:8.64"/>
	<circle cx="1651.20" cy="754.16" r="14.97" style="fill:none;stroke:#606060;stroke-width:8.64"/>
	<circle cx="1651.20" cy="679.90" r="14.97" style="fill:none;stroke:#606060;stroke-width:8.64"/>
	<circle cx="1733.74" cy="773.09" r="14.97" style="fill:none;stroke:#606060;stroke-width:8.64"/>
	<circle cx="1733.74" cy="756.88" r="14.97" style="fill:none;stroke:#606060;stroke-width:8.64"/>
	<circle cx="1733.74" cy="940.53" r="14.97" style="fill:none;stroke:#606060;stroke-width:8.64"/>
	<circle cx="1733.74" cy="774.20" r="14.97" style="fill:none;stroke:#606060;stroke-width:8.64"/>
	<circle cx="1733.74" cy="776.80" r="14.97" style="fill:none;stroke:#606060;stroke-width:8.64"/>
	<circle cx="1733.74" cy="715.05" r="14.97" style="fill:none;stroke:#606060;stroke-width:8.64"/>
	<circle cx="1733.74" cy="842.02" r="14.97" style="fill:none;stroke:#606060;stroke-width:8.64"/>
	<circle cx="1733.74" cy="932.86" r="14.97" style="fill:none;stroke:#606060;stroke-width:8.64"/>
	<circle cx="1733.74" cy="2277.32" r="14.97" style="fill:none;stroke:#606060;stroke-width:8.64"/>
	<circle cx="1733.74" cy="619.39" r="14.97" style="fill:none;stroke:#606060;stroke-width:8.64"/>
	<circle cx="1733.74" cy="777.17" r="14.97" style="fill:none;stroke:#606060;stroke-width:8.64"/>
	<circle cx="1733.74" cy="818.26" r="14.97" style="fill:none;stroke:#606060;stroke-width:8.64"/>
	<circle cx="1733.74" cy="2312.09" r="14.97" style="fill:none;stroke:#606060;stroke-width:8.64"/>
	<circle cx="1733.74" cy="820.98" r="14.97" style="fill:none;stroke:#606060;stroke-width:8.64"/>
	<circle cx="1816.15" cy="2217.17" r="14.97" style="fill:none;stroke:#606060;stroke-width:8.64"/>
	<circle cx="1816.15" cy="2275.34" r="14.97" style="fill:none;stroke:#606060;stroke-width:8.64"/>
	<circle cx="1816.15" cy="721.73" r="14.97" style="fill:none;stroke:#606060;stroke-width:8.64"/>
	<circle cx="1816.15" cy="714.06" r="14.97" style="fill:none;stroke:#606060;stroke-width:8.64"/>
	<circle cx="1816.15" cy="747.23" r="14.97" style="fill:none;stroke:#606060;stroke-width:8.64"/>
	<circle cx="1816.15" cy="753.54" r="14.97" style="fill:none;stroke:#606060;stroke-width:8.64"/>
	<circle cx="1816.15" cy="795.61" r="14.97" style="fill:none;stroke:#606060;stroke-width:8.64"/>
	<circle cx="1816.15" cy="910.21" r="14.97" style="fill:none;stroke:#606060;stroke-width:8.64"/>
	<circle cx="1816.15" cy="723.96" r="14.97" style="fill:none;stroke:#606060;stroke-width:8.64"/>
	<circle cx="1816.15" cy="929.52" r="14.97" style="fill:none;stroke:#606060;stroke-width:8.64"/>
	<circle cx="1816.15" cy="934.47" r="14.97" style="fill:none;stroke:#606060;stroke-width:8.64"/>
	<circle cx="1816.15" cy="790.17" r="14.97" style="fill:none;stroke:#606060;stroke-width:8.64"/>
	<circle cx="1816.15" cy="669.63" r="14.97" style="fill:none;stroke:#606060;stroke-width:8.64"/>
	<circle cx="1816.15" cy="774.95" r="14.97" style="fill:none;stroke:#606060;stroke-width:8.64"/>
	<circle cx="1898.70" cy="813.19" r="14.97" style="fill:none;stroke:#606060;stroke-width:8.64"/>
	<circle cx="1898.70" cy="726.93" r="14.97" style="fill:none;stroke:#606060;stroke-width:8.64"/>
	<circle cx="1898.70" cy="709.36" r="14.97" style="fill:none;stroke:#606060;stroke-width:8.64"/>
	<circle cx="1898.70" cy="778.91" r="14.97" style="fill:none;stroke:#606060;stroke-width:8.64"/>
	<circle cx="1898.70" cy="780.39" r="14.97" style="fill:none;stroke:#606060;stroke-width:8.64"/>
	<circle cx="1898.70" cy="770.99" r="14.97" style="fill:none;stroke:#606060;stroke-width:8.64"/>
	<circle cx="1898.70" cy="2284.13" r="14.97" style="fill:none;stroke:#606060;stroke-width:8.64"/>
	<circle cx="1898.70" cy="965.65" r="14.97" style="fill:none;stroke:#606060;stroke-width:8.64"/>
	<circle cx="1898.70" cy="752.67" r="14.97" style="fill:none;stroke:#606060;stroke-width:8.64"/>
	<circle cx="1898.70" cy="653.79" r="14.97" style="fill:none;stroke:#606060;stroke-width:8.64"/>
	<circle cx="1898.70" cy="785.09" r="14.97" style="fill:none;stroke:#606060;stroke-width:8.64"/>
	<circle cx="1898.70" cy="2330.29" r="14.97" style="fill:none;stroke:#606060;stroke-width:8.64"/>
	<circle cx="1898.70" cy="738.69" r="14.97" style="fill:none;stroke:#606060;stroke-width:8.64"/>
	<circle cx="1898.70" cy="633.50" r="14.97" style="fill:none;stroke:#606060;stroke-width:8.64"/>
	<circle cx="1898.70" cy="781.38" r="14.97" style="fill:none;stroke:#606060;stroke-width:8.64"/>
	<circle cx="1898.70" cy="890.53" r="14.97" style="fill:none;stroke:#606060;stroke-width:8.64"/>
	<circle cx="1898.70" cy="972.83" r="14.97" style="fill:none;stroke:#606060;stroke-width:8.64"/>
	<circle cx="1981.11" cy="779.90" r="14.97" style="fill:none;stroke:#606060;stroke-width:8.64"/>
	<circle cx="1981.11" cy="724.95" r="14.97" style="fill:none;stroke:#606060;stroke-width:8.64"/>
	<circle cx="1981.11" cy="723.34" r="14.97" style="fill:none;stroke:#606060;stroke-width:8.64"/>
	<circle cx="1981.11" cy="737.57" r="14.97" style="fill:none;stroke:#606060;stroke-width:8.64"/>
	<circle cx="1981.11" cy="816.90" r="14.97" style="fill:none;stroke:#606060;stroke-width:8.64"/>
	<circle cx="1981.11" cy="2194.90" r="14.97" style="fill:none;stroke:#606060;stroke-width:8.64"/>
	<circle cx="1981.11" cy="747.23" r="14.97" style="fill:none;stroke:#606060;stroke-width:8.64"/>
	<circle cx="1981.11" cy="803.66" r="14.97" style="fill:none;stroke:#606060;stroke-width:8.64"/>
	<circle cx="1981.11" cy="723.34" r="14.97" style="fill:none;stroke:#606060;stroke-width:8.64"/>
	<circle cx="1981.11" cy="768.51" r="14.97" style="fill:none;stroke:#606060;stroke-width:8.64"/>
	<circle cx="1981.11" cy="773.96" r="14.97" style="fill:none;stroke:#606060;stroke-width:8.64"/>
	<circle cx="1981.11" cy="845.61" r="14.97" style="fill:none;stroke:#606060;stroke-width:8.64"/>
	<circle cx="1981.11" cy="2253.31" r="14.97" style="fill:none;stroke:#606060;stroke-width:8.64"/>
	<circle cx="1981.11" cy="731.63" r="14.97" style="fill:none;stroke:#606060;stroke-width:8.64"/>
	<circle cx="1981.11" cy="758.73" r="14.97" style="fill:none;stroke:#606060;stroke-width:8.64"/>
	<circle cx="1981.11" cy="726.93" r="14.97" style="fill:none;stroke:#606060;stroke-width:8.64"/>
	<circle cx="1981.11" cy="711.21" r="14.97" style="fill:none;stroke:#606060;stroke-width:8.64"/>
	<circle cx="1981.11" cy="694.26" r="14.97" style="fill:none;stroke:#606060;stroke-width:8.64"/>
	<circle cx="1981.11" cy="757.50" r="14.97" style="fill:none;stroke:#606060;stroke-width:8.64"/>
	<circle cx="2063.66" cy="781.26" r="14.97" style="fill:none;stroke:#606060;stroke-width:8.64"/>
	<circle cx="2063.66" cy="899.44" r="14.97" style="fill:none;stroke:#606060;stroke-width:8.64"/>
	<circle cx="2063.66" cy="846.60" r="14.97" style="fill:none;stroke:#606060;stroke-width:8.64"/>
	<circle cx="2063.66" cy="724.83" r="14.97" style="fill:none;stroke:#606060;stroke-width:8.64"/>
	<circle cx="2063.66" cy="710.97" r="14.97" style="fill:none;stroke:#606060;stroke-width:8.64"/>
	<circle cx="2063.66" cy="739.43" r="14.97" style="fill:none;stroke:#606060;stroke-width:8.64"/>
	<circle cx="2063.66" cy="956.74" r="14.97" style="fill:none;stroke:#606060;stroke-width:8.64"/>
	<circle cx="2063.66" cy="920.11" r="14.97" style="fill:none;stroke:#606060;stroke-width:8.64"/>
	<circle cx="2063.66" cy="708.37" r="14.97" style="fill:none;stroke:#606060;stroke-width:8.64"/>
	<circle cx="2063.66" cy="728.66" r="14.97" style="fill:none;stroke:#606060;stroke-width:8.64"/>
	<circle cx="2063.66" cy="934.71" r="14.97" style="fill:none;stroke:#606060;stroke-width:8.64"/>
	<circle cx="2146.07" cy="2245.64" r="14.97" style="fill:none;stroke:#606060;stroke-width:8.64"/>
	<circle cx="2146.07" cy="744.87" r="14.97" style="fill:none;stroke:#606060;stroke-width:8.64"/>
	<circle cx="2146.07" cy="754.65" r="14.97" style="fill:none;stroke:#606060;stroke-width:8.64"/>
	<circle cx="2146.07" cy="791.78" r="14.97" style="fill:none;stroke:#606060;stroke-width:8.64"/>
	<circle cx="2146.07" cy="749.58" r="14.97" style="fill:none;stroke:#606060;stroke-width:8.64"/>
	<circle cx="2146.07" cy="785.96" r="14.97" style="fill:none;stroke:#606060;stroke-width:8.64"/>
	<circle cx="2146.07" cy="664.31" r="14.97" style="fill:none;stroke:#606060;stroke-width:8.64"/>
	<circle cx="2146.07" cy="760.22" r="14.97" style="fill:none;stroke:#606060;stroke-width:8.64"/>
	<circle cx="2146.07" cy="821.60" r="14.97" style="fill:none;stroke:#606060;stroke-width:8.64"/>
	<circle cx="2146.07" cy="728.29" r="14.97" style="fill:none;stroke:#606060;stroke-width:8.64"/>
	<circle cx="2146.07" cy="841.16" r="14.97" style="fill:none;stroke:#606060;stroke-width:8.64"/>
	<circle cx="2146.07" cy="971.10" r="14.97" style="fill:none;stroke:#606060;stroke-width:8.64"/>
	<circle cx="2146.07" cy="775.32" r="14.97" style="fill:none;stroke:#606060;stroke-width:8.64"/>
	<circle cx="2146.07" cy="734.97" r="14.97" style="fill:none;stroke:#606060;stroke-width:8.64"/>
	<circle cx="2228.61" cy="729.16" r="14.97" style="fill:none;stroke:#606060;stroke-width:8.64"/>
	<circle cx="2228.61" cy="2301.70" r="14.97" style="fill:none;stroke:#606060;stroke-width:8.64"/>
	<circle cx="2228.61" cy="717.77" r="14.97" style="fill:none;stroke:#606060;stroke-width:8.64"/>
	<circle cx="2228.61" cy="733.74" r="14.97" style="fill:none;stroke:#606060;stroke-width:8.64"/>
	<circle cx="2228.61" cy="712.20" r="14.97" style="fill:none;stroke:#606060;stroke-width:8.64"/>
	<circle cx="2228.61" cy="2212.35" r="14.97" style="fill:none;stroke:#606060;stroke-width:8.64"/>
	<circle cx="2228.61" cy="922.96" r="14.97" style="fill:none;stroke:#606060;stroke-width:8.64"/>
	<circle cx="2228.61" cy="735.35" r="14.97" style="fill:none;stroke:#606060;stroke-width:8.64"/>
	<circle cx="2228.61" cy="2221.01" r="14.97" style="fill:none;stroke:#606060;stroke-width:8.64"/>
	<circle cx="2228.61" cy="894.86" r="14.97" style="fill:none;stroke:#606060;stroke-width:8.64"/>
	<circle cx="2228.61" cy="776.18" r="14.97" style="fill:none;stroke:#606060;stroke-width:8.64"/>
	<circle cx="2228.61" cy="772.35" r="14.97" style="fill:none;stroke:#606060;stroke-width:8.64"/>
	<circle cx="2228.61" cy="748.46" r="14.97" style="fill:none;stroke:#606060;stroke-width:8.64"/>
	<circle cx="2228.61" cy="945.11" r="14.97" style="fill:none;stroke:#606060;stroke-width:8.64"/>
	<circle cx="2311.03" cy="705.15" r="14.97" style="fill:none;stroke:#606060;stroke-width:8.64"/>
	<circle cx="2311.03" cy="2300.71" r="14.97" style="fill:none;stroke:#606060;stroke-width:8.64"/>
	<circle cx="2311.03" cy="659.36" r="14.97" style="fill:none;stroke:#606060;stroke-width:8.64"/>
	<circle cx="2311.03" cy="788.81" r="14.97" style="fill:none;stroke:#606060;stroke-width:8.64"/>
	<circle cx="2311.03" cy="749.58" r="14.97" style="fill:none;stroke:#606060;stroke-width:8.64"/>
	<circle cx="2311.03" cy="752.79" r="14.97" style="fill:none;stroke:#606060;stroke-width:8.64"/>
	<circle cx="2311.03" cy="789.80" r="14.97" style="fill:none;stroke:#606060;stroke-width:8.64"/>
	<circle cx="2311.03" cy="723.59" r="14.97" style="fill:none;stroke:#606060;stroke-width:8.64"/>
	<circle cx="2311.03" cy="752.55" r="14.97" style="fill:none;stroke:#606060;stroke-width:8.64"/>
	<circle cx="2393.57" cy="761.33" r="14.97" style="fill:none;stroke:#606060;stroke-width:8.64"/>
	<circle cx="2393.57" cy="699.33" r="14.97" style="fill:none;stroke:#606060;stroke-width:8.64"/>
	<circle cx="2393.57" cy="758.12" r="14.97" style="fill:none;stroke:#606060;stroke-width:8.64"/>
	<circle cx="2393.57" cy="706.63" r="14.97" style="fill:none;stroke:#606060;stroke-width:8.64"/>
	<circle cx="2393.57" cy="750.94" r="14.97" style="fill:none;stroke:#606060;stroke-width:8.64"/>
	<circle cx="2393.57" cy="944.86" r="14.97" style="fill:none;stroke:#606060;stroke-width:8.64"/>
	<circle cx="2393.57" cy="866.77" r="14.97" style="fill:none;stroke:#606060;stroke-width:8.64"/>
	<circle cx="2475.99" cy="669.76" r="14.97" style="fill:none;stroke:#606060;stroke-width:8.64"/>
	<circle cx="2475.99" cy="2244.15" r="14.97" style="fill:none;stroke:#606060;stroke-width:8.64"/>
	<circle cx="2475.99" cy="739.92" r="14.97" style="fill:none;stroke:#606060;stroke-width:8.64"/>
	<circle cx="2475.99" cy="713.69" r="14.97" style="fill:none;stroke:#606060;stroke-width:8.64"/>
	<circle cx="2475.99" cy="704.16" r="14.97" style="fill:none;stroke:#606060;stroke-width:8.64"/>
	<circle cx="2475.99" cy="841.03" r="14.97" style="fill:none;stroke:#606060;stroke-width:8.64"/>
	<circle cx="2475.99" cy="733.12" r="14.97" style="fill:none;stroke:#606060;stroke-width:8.64"/>
	<circle cx="2475.99" cy="875.31" r="14.97" style="fill:none;stroke:#606060;stroke-width:8.64"/>
	<circle cx="2475.99" cy="654.66" r="14.97" style="fill:none;stroke:#606060;stroke-width:8.64"/>
	<circle cx="2475.99" cy="747.47" r="14.97" style="fill:none;stroke:#606060;stroke-width:8.64"/>
	<circle cx="2475.99" cy="682.50" r="14.97" style="fill:none;stroke:#606060;stroke-width:8.64"/>
	<circle cx="2558.53" cy="831.01" r="14.97" style="fill:none;stroke:#606060;stroke-width:8.64"/>
	<circle cx="2558.53" cy="765.42" r="14.97" style="fill:none;stroke:#606060;stroke-width:8.64"/>
	<circle cx="2558.53" cy="791.41" r="14.97" style="fill:none;stroke:#606060;stroke-width:8.64"/>
	<circle cx="2558.53" cy="756.88" r="14.97" style="fill:none;stroke:#606060;stroke-width:8.64"/>
	<circle cx="2558.53" cy="926.67" r="14.97" style="fill:none;stroke:#606060;stroke-width:8.64"/>
	<circle cx="2558.53" cy="987.06" r="14.97" style="fill:none;stroke:#606060;stroke-width:8.64"/>
	<circle cx="2558.53" cy="757.74" r="14.97" style="fill:none;stroke:#606060;stroke-width:8.64"/>
	<circle cx="2558.53" cy="919.49" r="14.97" style="fill:none;stroke:#606060;stroke-width:8.64"/>
	<circle cx="2558.53" cy="646.37" r="14.97" style="fill:none;stroke:#606060;stroke-width:8.64"/>
	<circle cx="2640.95" cy="864.17" r="14.97" style="fill:none;stroke:#606060;stroke-width:8.64"/>
	<circle cx="2640.95" cy="785.59" r="14.97" style="fill:none;stroke:#606060;stroke-width:8.64"/>
	<circle cx="2640.95" cy="907.12" r="14.97" style="fill:none;stroke:#606060;stroke-width:8.64"/>
	<circle cx="2640.95" cy="749.45" r="14.97" style="fill:none;stroke:#606060;stroke-width:8.64"/>
	<circle cx="2640.95" cy="894.37" r="14.97" style="fill:none;stroke:#606060;stroke-width:8.64"/>
	<circle cx="2640.95" cy="770.49" r="14.97" style="fill:none;stroke:#606060;stroke-width:8.64"/>
	<circle cx="2640.95" cy="2301.95" r="14.97" style="fill:none;stroke:#606060;stroke-width:8.64"/>
	<circle cx="2640.95" cy="794.13" r="14.97" style="fill:none;stroke:#606060;stroke-width:8.64"/>
	<circle cx="2640.95" cy="638.45" r="14.97" style="fill:none;stroke:#606060;stroke-width:8.64"/>
	<circle cx="2640.95" cy="733.12" r="14.97" style="fill:none;stroke:#606060;stroke-width:8.64"/>
	<circle cx="2640.95" cy="760.84" r="14.97" style="fill:none;stroke:#606060;stroke-width:8.64"/>
	<circle cx="2640.95" cy="643.77" r="14.97" style="fill:none;stroke:#606060;stroke-width:8.64"/>
	<circle cx="2723.49" cy="678.17" r="14.97" style="fill:none;stroke:#606060;stroke-width:8.64"/>
	<circle cx="2723.49" cy="690.92" r="14.97" style="fill:none;stroke:#606060;stroke-width:8.64"/>
	<circle cx="2723.49" cy="720.00" r="14.97" style="fill:none;stroke:#606060;stroke-width:8.64"/>
	<circle cx="2723.49" cy="731.14" r="14.97" style="fill:none;stroke:#606060;stroke-width:8.64"/>
	<circle cx="2723.49" cy="787.82" r="14.97" style="fill:none;stroke:#606060;stroke-width:8.64"/>
	<circle cx="2723.49" cy="777.30" r="14.97" style="fill:none;stroke:#606060;stroke-width:8.64"/>
	<circle cx="2723.49" cy="716.04" r="14.97" style="fill:none;stroke:#606060;stroke-width:8.64"/>
	<circle cx="2723.49" cy="759.23" r="14.97" style="fill:none;stroke:#606060;stroke-width:8.64"/>
	<circle cx="2723.49" cy="2333.26" r="14.97" style="fill:none;stroke:#606060;stroke-width:8.64"/>
	<circle cx="2723.49" cy="721.86" r="14.97" style="fill:none;stroke:#606060;stroke-width:8.64"/>
	<circle cx="2723.49" cy="946.59" r="14.97" style="fill:none;stroke:#606060;stroke-width:8.64"/>
	<circle cx="2723.49" cy="962.19" r="14.97" style="fill:none;stroke:#606060;stroke-width:8.64"/>
	<circle cx="2723.49" cy="716.66" r="14.97" style="fill:none;stroke:#606060;stroke-width:8.64"/>
	<circle cx="2805.91" cy="964.91" r="14.97" style="fill:none;stroke:#606060;stroke-width:8.64"/>
	<circle cx="2805.91" cy="749.58" r="14.97" style="fill:none;stroke:#606060;stroke-width:8.64"/>
	<circle cx="2805.91" cy="941.15" r="14.97" style="fill:none;stroke:#606060;stroke-width:8.64"/>
	<circle cx="2805.91" cy="773.46" r="14.97" style="fill:none;stroke:#606060;stroke-width:8.64"/>
	<circle cx="2805.91" cy="849.45" r="14.97" style="fill:none;stroke:#606060;stroke-width:8.64"/>
	<circle cx="2888.45" cy="2330.29" r="14.97" style="fill:none;stroke:#606060;stroke-width:8.64"/>
	<circle cx="2888.45" cy="763.69" r="14.97" style="fill:none;stroke:#606060;stroke-width:8.64"/>
	<circle cx="2888.45" cy="715.05" r="14.97" style="fill:none;stroke:#606060;stroke-width:8.64"/>
	<circle cx="2888.45" cy="774.95" r="14.97" style="fill:none;stroke:#606060;stroke-width:8.64"/>
	<circle cx="2888.45" cy="874.57" r="14.97" style="fill:none;stroke:#606060;stroke-width:8.64"/>
	<circle cx="2888.45" cy="788.56" r="14.97" style="fill:none;stroke:#606060;stroke-width:8.64"/>
	<circle cx="2888.45" cy="752.05" r="14.97" style="fill:none;stroke:#606060;stroke-width:8.64"/>
	<circle cx="2970.87" cy="728.66" r="14.97" style="fill:none;stroke:#606060;stroke-width:8.64"/>
	<circle cx="2970.87" cy="752.42" r="14.97" style="fill:none;stroke:#606060;stroke-width:8.64"/>
	<circle cx="2970.87" cy="704.65" r="14.97" style="fill:none;stroke:#606060;stroke-width:8.64"/>
	<circle cx="2970.87" cy="681.27" r="14.97" style="fill:none;stroke:#606060;stroke-width:8.64"/>
	<circle cx="2970.87" cy="721.73" r="14.97" style="fill:none;stroke:#606060;stroke-width:8.64"/>
	<circle cx="2970.87" cy="849.20" r="14.97" style="fill:none;stroke:#606060;stroke-width:8.64"/>
	<circle cx="3053.41" cy="765.42" r="14.97" style="fill:none;stroke:#606060;stroke-width:8.64"/>
	<circle cx="3053.41" cy="683.74" r="14.97" style="fill:none;stroke:#606060;stroke-width:8.64"/>
	<circle cx="3053.41" cy="759.11" r="14.97" style="fill:none;stroke:#606060;stroke-width:8.64"/>
	<circle cx="3053.41" cy="729.03" r="14.97" style="fill:none;stroke:#606060;stroke-width:8.64"/>
	<circle cx="3053.41" cy="858.36" r="14.97" style="fill:none;stroke:#606060;stroke-width:8.64"/>
	<circle cx="3053.41" cy="690.05" r="14.97" style="fill:none;stroke:#606060;stroke-width:8.64"/>
	<circle cx="3053.41" cy="810.84" r="14.97" style="fill:none;stroke:#606060;stroke-width:8.64"/>
	<circle cx="3053.41" cy="740.67" r="14.97" style="fill:none;stroke:#606060;stroke-width:8.64"/>
	<circle cx="3053.41" cy="2351.45" r="14.97" style="fill:none;stroke:#606060;stroke-width:8.64"/>
	<circle cx="3053.41" cy="728.91" r="14.97" style="fill:none;stroke:#606060;stroke-width:8.64"/>
	<circle cx="3053.41" cy="947.21" r="14.97" style="fill:none;stroke:#606060;stroke-width:8.64"/>
	<circle cx="3053.41" cy="968.75" r="14.97" style="fill:none;stroke:#606060;stroke-width:8.64"/>
	<circle cx="3135.82" cy="788.31" r="14.97" style="fill:none;stroke:#606060;stroke-width:8.64"/>
	<circle cx="3218.37" cy="754.03" r="14.97" style="fill:none;stroke:#606060;stroke-width:8.64"/>
	<circle cx="3218.37" cy="719.88" r="14.97" style="fill:none;stroke:#606060;stroke-width:8.64"/>
	<circle cx="3218.37" cy="712.57" r="14.97" style="fill:none;stroke:#606060;stroke-width:8.64"/>
	<circle cx="3218.37" cy="779.28" r="14.97" style="fill:none;stroke:#606060;stroke-width:8.64"/>
	<circle cx="3218.37" cy="707.01" r="14.97" style="fill:none;stroke:#606060;stroke-width:8.64"/>
	<circle cx="3218.37" cy="2278.68" r="14.97" style="fill:none;stroke:#606060;stroke-width:8.64"/>
	<path d=" M414.07 917.02 L496.49 915.90 L579.03 915.16 L579.03 925.80 L661.44 925.06 L661.44 934.71 L661.44 944.74 L661.44 943.13 L661.44 941.40 L661.44 940.03 L743.99 938.67 L743.99 937.68 L743.99 937.44 L743.99 935.95 L743.99 935.83 L826.40 935.83 L826.40 934.84 L826.40 932.98 L826.40 931.99 L826.40 931.12 L908.94 929.76 L908.94 928.28 L908.94 927.29 L908.94 926.30 L908.94 925.31 L908.94 934.22 L991.36 934.34 L991.36 933.23 L991.36 931.37 L991.36 930.51 L991.36 939.29 L1073.90 938.05 L1073.90 936.20 L1073.90 935.21 L1073.90 934.96 L1073.90 935.21 L1156.32 934.22 L1156.32 932.98 L1156.32 931.74 L1156.32 930.51 L1156.32 929.89 L1156.32 937.31 L1156.32 936.20 L1156.32 935.46 L1156.32 934.22 L1156.32 933.23 L1156.32 932.36 L1156.32 931.87 L1156.32 939.42 L1156.32 938.18 L1156.32 937.19 L1238.86 935.95 L1238.86 934.71 L1238.86 933.48 L1238.86 932.49 L1238.86 931.62 L1238.86 931.50 L1238.86 931.00 L1238.86 929.89 L1238.86 928.77 L1321.28 927.66 L1321.28 927.91 L1321.28 927.78 L1321.28 926.67 L1321.28 925.68 L1321.28 925.68 L1321.28 932.49 L1321.28 931.50 L1403.82 930.63 L1403.82 929.89 L1403.82 929.02 L1403.82 928.28 L1403.82 926.92 L1403.82 926.17 L1403.82 925.68 L1403.82 924.69 L1403.82 924.19 L1403.82 924.44 L1403.82 923.70 L1403.82 922.83 L1403.82 921.97 L1486.24 928.53 L1486.24 927.54 L1486.24 926.55 L1486.24 925.56 L1486.24 931.62 L1486.24 931.62 L1486.24 930.63 L1486.24 936.69 L1486.24 936.45 L1568.78 935.70 L1568.78 934.96 L1568.78 934.09 L1568.78 934.22 L1568.78 933.10 L1568.78 939.29 L1568.78 938.05 L1568.78 937.31 L1568.78 936.57 L1568.78 935.70 L1568.78 935.08 L1568.78 934.09 L1568.78 933.35 L1651.20 932.61 L1651.20 931.62 L1651.20 930.88 L1651.20 929.89 L1651.20 929.14 L1651.20 929.27 L1651.20 928.90 L1651.20 927.91 L1651.20 933.35 L1651.20 932.61 L1651.20 931.62 L1651.20 930.75 L1651.20 930.38 L1651.20 929.52 L1651.20 929.27 L1733.74 928.15 L1733.74 927.41 L1733.74 926.42 L1733.74 926.05 L1733.74 925.43 L1733.74 924.94 L1733.74 924.19 L1733.74 924.32 L1733.74 924.57 L1733.74 923.82 L1733.74 923.58 L1733.74 922.34 L1733.74 922.96 L1733.74 923.45 L1816.15 924.07 L1816.15 924.07 L1816.15 924.69 L1816.15 918.75 L1816.15 924.81 L1816.15 925.31 L1816.15 924.81 L1816.15 918.87 L1816.15 918.13 L1816.15 911.69 L1816.15 911.32 L1816.15 910.58 L1816.15 910.58 L1816.15 910.95 L1898.70 910.58 L1898.70 910.09 L1898.70 909.96 L1898.70 909.34 L1898.70 915.65 L1898.70 915.65 L1898.70 915.90 L1898.70 916.89 L1898.70 910.95 L1898.70 911.82 L1898.70 912.07 L1898.70 912.81 L1898.70 912.44 L1898.70 911.69 L1898.70 912.07 L1898.70 911.57 L1898.70 912.07 L1981.11 912.31 L1981.11 912.68 L1981.11 912.93 L1981.11 913.18 L1981.11 913.18 L1981.11 913.30 L1981.11 913.18 L1981.11 912.07 L1981.11 912.19 L1981.11 912.93 L1981.11 913.06 L1981.11 912.81 L1981.11 907.24 L1981.11 907.24 L1981.11 907.36 L1981.11 907.49 L1981.11 907.73 L1981.11 907.61 L1981.11 913.92 L2063.66 913.80 L2063.66 908.72 L2063.66 908.85 L2063.66 903.16 L2063.66 903.40 L2063.66 903.28 L2063.66 903.03 L2063.66 897.22 L2063.66 896.23 L2063.66 902.29 L2063.66 896.84 L2146.07 897.46 L2146.07 897.71 L2146.07 898.70 L2146.07 898.95 L2146.07 899.69 L2146.07 899.69 L2146.07 900.19 L2146.07 901.05 L2146.07 901.67 L2146.07 902.54 L2146.07 903.28 L2146.07 904.15 L2146.07 903.90 L2146.07 904.76 L2228.61 905.51 L2228.61 906.00 L2228.61 906.37 L2228.61 907.12 L2228.61 908.35 L2228.61 908.97 L2228.61 909.59 L2228.61 910.09 L2228.61 910.83 L2228.61 911.45 L2228.61 911.32 L2228.61 911.94 L2228.61 912.68 L2228.61 913.55 L2311.03 913.55 L2311.03 914.42 L2311.03 914.91 L2311.03 915.53 L2311.03 909.71 L2311.03 910.70 L2311.03 910.46 L2311.03 911.20 L2311.03 911.94 L2393.57 912.81 L2393.57 912.93 L2393.57 912.93 L2393.57 913.92 L2393.57 914.42 L2393.57 915.28 L2393.57 915.16 L2475.99 916.15 L2475.99 916.03 L2475.99 916.77 L2475.99 917.51 L2475.99 917.88 L2475.99 918.50 L2475.99 918.62 L2475.99 919.49 L2475.99 920.61 L2475.99 921.35 L2475.99 922.21 L2558.53 922.09 L2558.53 922.83 L2558.53 923.58 L2558.53 924.69 L2558.53 925.06 L2558.53 925.06 L2558.53 918.01 L2558.53 919.61 L2558.53 920.36 L2640.95 920.85 L2640.95 913.43 L2640.95 913.92 L2640.95 906.99 L2640.95 899.57 L2640.95 900.56 L2640.95 901.55 L2640.95 902.41 L2640.95 903.28 L2640.95 903.77 L2640.95 903.77 L2640.95 904.76 L2723.49 904.64 L2723.49 904.52 L2723.49 905.14 L2723.49 906.50 L2723.49 907.24 L2723.49 907.86 L2723.49 908.85 L2723.49 910.09 L2723.49 910.83 L2723.49 911.57 L2723.49 912.44 L2723.49 904.15 L2723.49 903.77 L2805.91 904.76 L2805.91 906.25 L2805.91 906.99 L2805.91 898.21 L2805.91 899.20 L2888.45 900.80 L2888.45 901.55 L2888.45 901.67 L2888.45 901.18 L2888.45 902.04 L2888.45 903.16 L2888.45 904.27 L2970.87 905.38 L2970.87 906.00 L2970.87 897.46 L2970.87 898.45 L2970.87 899.07 L2970.87 900.31 L3053.41 901.18 L3053.41 902.04 L3053.41 902.41 L3053.41 893.01 L3053.41 894.12 L3053.41 895.11 L3053.41 896.23 L3053.41 897.59 L3053.41 899.07 L3053.41 900.06 L3053.41 900.93 L3053.41 901.05 L3135.82 901.42 L3218.37 902.78 L3218.37 904.15 L3218.37 905.38 L3218.37 905.01 L3218.37 904.89 L3218.37 906.50" stroke-linejoin="round" style="fill:none;stroke:#000000;stroke-width:8.64"/>
	<line x1="350.71" y1="2414.69" x2="350.71" y2="235.38" style="stroke:#000000;stroke-width:5.76"/>
	<line x1="350.71" y1="2203.31" x2="310.74" y2="2203.31" style="stroke:#000000;stroke-width:5.76"/>
	<text x="266.64" y="2203.31" style="font-family:'Helvetica';font-size:79.94px;fill:#000000" transform="rotate(-90 266.64,2203.31)" text-anchor="middle">-10</text>
	<line x1="350.71" y1="1568.46" x2="310.74" y2="1568.46" style="stroke:#000000;stroke-width:5.76"/>
	<text x="266.64" y="1568.46" style="font-family:'Helvetica';font-size:79.94px;fill:#000000" transform="rotate(-90 266.64,1568.46)" text-anchor="middle">-5</text>
	<line x1="350.71" y1="933.60" x2="310.74" y2="933.60" style="stroke:#000000;stroke-width:5.76"/>
	<text x="266.64" y="933.60" style="font-family:'Helvetica';font-size:79.94px;fill:#000000" transform="rotate(-90 266.64,933.60)" text-anchor="middle">0</text>
	<line x1="350.71" y1="298.74" x2="310.74" y2="298.74" style="stroke:#000000;stroke-width:5.76"/>
	<text x="266.64" y="298.74" style="font-family:'Helvetica';font-size:79.94px;fill:#000000" transform="rotate(-90 266.64,298.74)" text-anchor="middle">5</text>
	<text x="176.68" y="1325.03" style="font-family:'Helvetica';font-size:79.94px;fill:#000000" transform="rotate(-90 176.68,1325.03)" text-anchor="middle">Scaled Shoenfeld Residuals</text>
	<line x1="350.71" y1="2414.69" x2="3859.02" y2="2414.69" style="stroke:#000000;stroke-width:5.76"/>
	<line x1="496.61" y1="2414.69" x2="496.61" y2="2454.66" style="stroke:#000000;stroke-width:5.76"/>
	<text x="496.61" y="2530.61" style="font-family:'Helvetica';font-size:79.94px;fill:#000000" text-anchor="middle">20</text>
	<line x1="1321.40" y1="2414.69" x2="1321.40" y2="2454.66" style="stroke:#000000;stroke-width:5.76"/>
	<text x="1321.40" y="2530.61" style="font-family:'Helvetica';font-size:79.94px;fill:#000000" text-anchor="middle">30</text>
	<line x1="2146.20" y1="2414.69" x2="2146.20" y2="2454.66" style="stroke:#000000;stroke-width:5.76"/>
	<text x="2146.20" y="2530.61" style="font-family:'Helvetica';font-size:79.94px;fill:#000000" text-anchor="middle">40</text>
	<line x1="2970.99" y1="2414.69" x2="2970.99" y2="2454.66" style="stroke:#000000;stroke-width:5.76"/>
	<text x="2970.99" y="2530.61" style="font-family:'Helvetica';font-size:79.94px;fill:#000000" text-anchor="middle">50</text>
	<line x1="3795.66" y1="2414.69" x2="3795.66" y2="2454.66" style="stroke:#000000;stroke-width:5.76"/>
	<text x="3795.66" y="2530.61" style="font-family:'Helvetica';font-size:79.94px;fill:#000000" text-anchor="middle">60</text>
	<text x="2104.86" y="2620.57" style="font-family:'Helvetica';font-size:79.94px;fill:#000000" text-anchor="middle">Time</text>
	<text x="368.03" y="2737.89" style="font-family:'Helvetica';font-size:79.94px;fill:#000000">bandwidth = .8</text>
	<text x="368.03" y="187.99" style="font-family:'Helvetica';font-size:99.99px;fill:#000000">Schoenfeld residuals against time, fully adjusted ICS (Low/Medium Dose)</text>
</svg>
