<?xml version="1.0" encoding="UTF-8" standalone="no"?>
<!-- This is a Stata 16.1 generated SVG file (http://www.stata.com) -->

<svg version="1.1" width="5.50in" height="4.00in" viewBox="0 0 3960 2880" xmlns="http://www.w3.org/2000/svg" xmlns:xlink="http://www.w3.org/1999/xlink">
	<desc>Stata Graph - Graph</desc>
	<rect x="0" y="0" width="3960" height="2880" style="fill:#FFFFFF;stroke:none"/>
	<rect x="0.00" y="0.00" width="3959.88" height="2880.00" style="fill:#FFFFFF"/>
	<rect x="2.88" y="2.88" width="3954.12" height="2874.24" style="fill:none;stroke:#FFFFFF;stroke-width:5.76"/>
	<rect x="336.26" y="238.26" width="3519.88" height="2173.55" style="fill:none;stroke:#000000;stroke-width:5.76"/>
	<circle cx="396.74" cy="958.60" r="14.97" style="fill:none;stroke:#606060;stroke-width:8.64"/>
	<circle cx="479.65" cy="952.90" r="14.97" style="fill:none;stroke:#606060;stroke-width:8.64"/>
	<circle cx="562.57" cy="776.43" r="14.97" style="fill:none;stroke:#606060;stroke-width:8.64"/>
	<circle cx="562.57" cy="695.99" r="14.97" style="fill:none;stroke:#606060;stroke-width:8.64"/>
	<circle cx="645.36" cy="771.48" r="14.97" style="fill:none;stroke:#606060;stroke-width:8.64"/>
	<circle cx="645.36" cy="777.42" r="14.97" style="fill:none;stroke:#606060;stroke-width:8.64"/>
	<circle cx="645.36" cy="770.00" r="14.97" style="fill:none;stroke:#606060;stroke-width:8.64"/>
	<circle cx="645.36" cy="2351.45" r="14.97" style="fill:none;stroke:#606060;stroke-width:8.64"/>
	<circle cx="645.36" cy="777.17" r="14.97" style="fill:none;stroke:#606060;stroke-width:8.64"/>
	<circle cx="645.36" cy="775.81" r="14.97" style="fill:none;stroke:#606060;stroke-width:8.64"/>
	<circle cx="728.27" cy="776.43" r="14.97" style="fill:none;stroke:#606060;stroke-width:8.64"/>
	<circle cx="728.27" cy="2347.12" r="14.97" style="fill:none;stroke:#606060;stroke-width:8.64"/>
	<circle cx="728.27" cy="952.66" r="14.97" style="fill:none;stroke:#606060;stroke-width:8.64"/>
	<circle cx="728.27" cy="2343.40" r="14.97" style="fill:none;stroke:#606060;stroke-width:8.64"/>
	<circle cx="728.27" cy="776.93" r="14.97" style="fill:none;stroke:#606060;stroke-width:8.64"/>
	<circle cx="811.18" cy="956.86" r="14.97" style="fill:none;stroke:#606060;stroke-width:8.64"/>
	<circle cx="811.18" cy="776.43" r="14.97" style="fill:none;stroke:#606060;stroke-width:8.64"/>
	<circle cx="811.18" cy="737.82" r="14.97" style="fill:none;stroke:#606060;stroke-width:8.64"/>
	<circle cx="811.18" cy="959.34" r="14.97" style="fill:none;stroke:#606060;stroke-width:8.64"/>
	<circle cx="811.18" cy="961.94" r="14.97" style="fill:none;stroke:#606060;stroke-width:8.64"/>
	<circle cx="894.09" cy="769.25" r="14.97" style="fill:none;stroke:#606060;stroke-width:8.64"/>
	<circle cx="894.09" cy="959.34" r="14.97" style="fill:none;stroke:#606060;stroke-width:8.64"/>
	<circle cx="894.09" cy="777.42" r="14.97" style="fill:none;stroke:#606060;stroke-width:8.64"/>
	<circle cx="894.09" cy="772.22" r="14.97" style="fill:none;stroke:#606060;stroke-width:8.64"/>
	<circle cx="894.09" cy="950.43" r="14.97" style="fill:none;stroke:#606060;stroke-width:8.64"/>
	<circle cx="894.09" cy="764.80" r="14.97" style="fill:none;stroke:#606060;stroke-width:8.64"/>
	<circle cx="977.01" cy="2351.08" r="14.97" style="fill:none;stroke:#606060;stroke-width:8.64"/>
	<circle cx="977.01" cy="771.48" r="14.97" style="fill:none;stroke:#606060;stroke-width:8.64"/>
	<circle cx="977.01" cy="770.62" r="14.97" style="fill:none;stroke:#606060;stroke-width:8.64"/>
	<circle cx="977.01" cy="766.28" r="14.97" style="fill:none;stroke:#606060;stroke-width:8.64"/>
	<circle cx="977.01" cy="962.06" r="14.97" style="fill:none;stroke:#606060;stroke-width:8.64"/>
	<circle cx="1059.92" cy="962.19" r="14.97" style="fill:none;stroke:#606060;stroke-width:8.64"/>
	<circle cx="1059.92" cy="2351.08" r="14.97" style="fill:none;stroke:#606060;stroke-width:8.64"/>
	<circle cx="1059.92" cy="957.85" r="14.97" style="fill:none;stroke:#606060;stroke-width:8.64"/>
	<circle cx="1059.92" cy="764.06" r="14.97" style="fill:none;stroke:#606060;stroke-width:8.64"/>
	<circle cx="1059.92" cy="777.92" r="14.97" style="fill:none;stroke:#606060;stroke-width:8.64"/>
	<circle cx="1142.83" cy="770.74" r="14.97" style="fill:none;stroke:#606060;stroke-width:8.64"/>
	<circle cx="1142.83" cy="772.97" r="14.97" style="fill:none;stroke:#606060;stroke-width:8.64"/>
	<circle cx="1142.83" cy="775.81" r="14.97" style="fill:none;stroke:#606060;stroke-width:8.64"/>
	<circle cx="1142.83" cy="777.92" r="14.97" style="fill:none;stroke:#606060;stroke-width:8.64"/>
	<circle cx="1142.83" cy="770.00" r="14.97" style="fill:none;stroke:#606060;stroke-width:8.64"/>
	<circle cx="1142.83" cy="766.28" r="14.97" style="fill:none;stroke:#606060;stroke-width:8.64"/>
	<circle cx="1142.83" cy="956.86" r="14.97" style="fill:none;stroke:#606060;stroke-width:8.64"/>
	<circle cx="1142.83" cy="775.44" r="14.97" style="fill:none;stroke:#606060;stroke-width:8.64"/>
	<circle cx="1142.83" cy="765.54" r="14.97" style="fill:none;stroke:#606060;stroke-width:8.64"/>
	<circle cx="1142.83" cy="776.31" r="14.97" style="fill:none;stroke:#606060;stroke-width:8.64"/>
	<circle cx="1142.83" cy="772.22" r="14.97" style="fill:none;stroke:#606060;stroke-width:8.64"/>
	<circle cx="1142.83" cy="2338.21" r="14.97" style="fill:none;stroke:#606060;stroke-width:8.64"/>
	<circle cx="1142.83" cy="772.60" r="14.97" style="fill:none;stroke:#606060;stroke-width:8.64"/>
	<circle cx="1142.83" cy="777.92" r="14.97" style="fill:none;stroke:#606060;stroke-width:8.64"/>
	<circle cx="1142.83" cy="772.84" r="14.97" style="fill:none;stroke:#606060;stroke-width:8.64"/>
	<circle cx="1225.74" cy="771.48" r="14.97" style="fill:none;stroke:#606060;stroke-width:8.64"/>
	<circle cx="1225.74" cy="772.84" r="14.97" style="fill:none;stroke:#606060;stroke-width:8.64"/>
	<circle cx="1225.74" cy="737.82" r="14.97" style="fill:none;stroke:#606060;stroke-width:8.64"/>
	<circle cx="1225.74" cy="767.03" r="14.97" style="fill:none;stroke:#606060;stroke-width:8.64"/>
	<circle cx="1225.74" cy="2299.84" r="14.97" style="fill:none;stroke:#606060;stroke-width:8.64"/>
	<circle cx="1225.74" cy="961.20" r="14.97" style="fill:none;stroke:#606060;stroke-width:8.64"/>
	<circle cx="1225.74" cy="2269.40" r="14.97" style="fill:none;stroke:#606060;stroke-width:8.64"/>
	<circle cx="1225.74" cy="775.81" r="14.97" style="fill:none;stroke:#606060;stroke-width:8.64"/>
	<circle cx="1225.74" cy="775.07" r="14.97" style="fill:none;stroke:#606060;stroke-width:8.64"/>
	<circle cx="1308.66" cy="775.07" r="14.97" style="fill:none;stroke:#606060;stroke-width:8.64"/>
	<circle cx="1308.66" cy="2344.89" r="14.97" style="fill:none;stroke:#606060;stroke-width:8.64"/>
	<circle cx="1308.66" cy="959.96" r="14.97" style="fill:none;stroke:#606060;stroke-width:8.64"/>
	<circle cx="1308.66" cy="747.97" r="14.97" style="fill:none;stroke:#606060;stroke-width:8.64"/>
	<circle cx="1308.66" cy="2345.63" r="14.97" style="fill:none;stroke:#606060;stroke-width:8.64"/>
	<circle cx="1308.66" cy="777.05" r="14.97" style="fill:none;stroke:#606060;stroke-width:8.64"/>
	<circle cx="1308.66" cy="769.13" r="14.97" style="fill:none;stroke:#606060;stroke-width:8.64"/>
	<circle cx="1308.66" cy="766.16" r="14.97" style="fill:none;stroke:#606060;stroke-width:8.64"/>
	<circle cx="1391.57" cy="752.42" r="14.97" style="fill:none;stroke:#606060;stroke-width:8.64"/>
	<circle cx="1391.57" cy="772.60" r="14.97" style="fill:none;stroke:#606060;stroke-width:8.64"/>
	<circle cx="1391.57" cy="962.19" r="14.97" style="fill:none;stroke:#606060;stroke-width:8.64"/>
	<circle cx="1391.57" cy="772.84" r="14.97" style="fill:none;stroke:#606060;stroke-width:8.64"/>
	<circle cx="1391.57" cy="764.06" r="14.97" style="fill:none;stroke:#606060;stroke-width:8.64"/>
	<circle cx="1391.57" cy="777.67" r="14.97" style="fill:none;stroke:#606060;stroke-width:8.64"/>
	<circle cx="1391.57" cy="771.36" r="14.97" style="fill:none;stroke:#606060;stroke-width:8.64"/>
	<circle cx="1391.57" cy="775.32" r="14.97" style="fill:none;stroke:#606060;stroke-width:8.64"/>
	<circle cx="1391.57" cy="651.81" r="14.97" style="fill:none;stroke:#606060;stroke-width:8.64"/>
	<circle cx="1391.57" cy="959.34" r="14.97" style="fill:none;stroke:#606060;stroke-width:8.64"/>
	<circle cx="1391.57" cy="774.33" r="14.97" style="fill:none;stroke:#606060;stroke-width:8.64"/>
	<circle cx="1391.57" cy="767.03" r="14.97" style="fill:none;stroke:#606060;stroke-width:8.64"/>
	<circle cx="1391.57" cy="775.07" r="14.97" style="fill:none;stroke:#606060;stroke-width:8.64"/>
	<circle cx="1474.48" cy="773.59" r="14.97" style="fill:none;stroke:#606060;stroke-width:8.64"/>
	<circle cx="1474.48" cy="777.92" r="14.97" style="fill:none;stroke:#606060;stroke-width:8.64"/>
	<circle cx="1474.48" cy="656.89" r="14.97" style="fill:none;stroke:#606060;stroke-width:8.64"/>
	<circle cx="1474.48" cy="772.60" r="14.97" style="fill:none;stroke:#606060;stroke-width:8.64"/>
	<circle cx="1474.48" cy="772.84" r="14.97" style="fill:none;stroke:#606060;stroke-width:8.64"/>
	<circle cx="1474.48" cy="777.92" r="14.97" style="fill:none;stroke:#606060;stroke-width:8.64"/>
	<circle cx="1474.48" cy="774.33" r="14.97" style="fill:none;stroke:#606060;stroke-width:8.64"/>
	<circle cx="1474.48" cy="775.81" r="14.97" style="fill:none;stroke:#606060;stroke-width:8.64"/>
	<circle cx="1474.48" cy="962.19" r="14.97" style="fill:none;stroke:#606060;stroke-width:8.64"/>
	<circle cx="1557.27" cy="772.84" r="14.97" style="fill:none;stroke:#606060;stroke-width:8.64"/>
	<circle cx="1557.27" cy="776.31" r="14.97" style="fill:none;stroke:#606060;stroke-width:8.64"/>
	<circle cx="1557.27" cy="776.93" r="14.97" style="fill:none;stroke:#606060;stroke-width:8.64"/>
	<circle cx="1557.27" cy="954.88" r="14.97" style="fill:none;stroke:#606060;stroke-width:8.64"/>
	<circle cx="1557.27" cy="768.64" r="14.97" style="fill:none;stroke:#606060;stroke-width:8.64"/>
	<circle cx="1557.27" cy="776.31" r="14.97" style="fill:none;stroke:#606060;stroke-width:8.64"/>
	<circle cx="1557.27" cy="772.84" r="14.97" style="fill:none;stroke:#606060;stroke-width:8.64"/>
	<circle cx="1557.27" cy="2349.84" r="14.97" style="fill:none;stroke:#606060;stroke-width:8.64"/>
	<circle cx="1557.27" cy="756.51" r="14.97" style="fill:none;stroke:#606060;stroke-width:8.64"/>
	<circle cx="1557.27" cy="952.66" r="14.97" style="fill:none;stroke:#606060;stroke-width:8.64"/>
	<circle cx="1557.27" cy="777.92" r="14.97" style="fill:none;stroke:#606060;stroke-width:8.64"/>
	<circle cx="1557.27" cy="774.33" r="14.97" style="fill:none;stroke:#606060;stroke-width:8.64"/>
	<circle cx="1557.27" cy="766.16" r="14.97" style="fill:none;stroke:#606060;stroke-width:8.64"/>
	<circle cx="1640.18" cy="904.64" r="14.97" style="fill:none;stroke:#606060;stroke-width:8.64"/>
	<circle cx="1640.18" cy="956.86" r="14.97" style="fill:none;stroke:#606060;stroke-width:8.64"/>
	<circle cx="1640.18" cy="771.36" r="14.97" style="fill:none;stroke:#606060;stroke-width:8.64"/>
	<circle cx="1640.18" cy="776.93" r="14.97" style="fill:none;stroke:#606060;stroke-width:8.64"/>
	<circle cx="1640.18" cy="777.92" r="14.97" style="fill:none;stroke:#606060;stroke-width:8.64"/>
	<circle cx="1640.18" cy="958.60" r="14.97" style="fill:none;stroke:#606060;stroke-width:8.64"/>
	<circle cx="1640.18" cy="772.10" r="14.97" style="fill:none;stroke:#606060;stroke-width:8.64"/>
	<circle cx="1640.18" cy="947.58" r="14.97" style="fill:none;stroke:#606060;stroke-width:8.64"/>
	<circle cx="1640.18" cy="772.10" r="14.97" style="fill:none;stroke:#606060;stroke-width:8.64"/>
	<circle cx="1640.18" cy="764.80" r="14.97" style="fill:none;stroke:#606060;stroke-width:8.64"/>
	<circle cx="1640.18" cy="945.97" r="14.97" style="fill:none;stroke:#606060;stroke-width:8.64"/>
	<circle cx="1640.18" cy="773.59" r="14.97" style="fill:none;stroke:#606060;stroke-width:8.64"/>
	<circle cx="1640.18" cy="952.66" r="14.97" style="fill:none;stroke:#606060;stroke-width:8.64"/>
	<circle cx="1640.18" cy="775.07" r="14.97" style="fill:none;stroke:#606060;stroke-width:8.64"/>
	<circle cx="1640.18" cy="764.06" r="14.97" style="fill:none;stroke:#606060;stroke-width:8.64"/>
	<circle cx="1723.10" cy="777.42" r="14.97" style="fill:none;stroke:#606060;stroke-width:8.64"/>
	<circle cx="1723.10" cy="764.68" r="14.97" style="fill:none;stroke:#606060;stroke-width:8.64"/>
	<circle cx="1723.10" cy="952.66" r="14.97" style="fill:none;stroke:#606060;stroke-width:8.64"/>
	<circle cx="1723.10" cy="770.62" r="14.97" style="fill:none;stroke:#606060;stroke-width:8.64"/>
	<circle cx="1723.10" cy="775.07" r="14.97" style="fill:none;stroke:#606060;stroke-width:8.64"/>
	<circle cx="1723.10" cy="695.87" r="14.97" style="fill:none;stroke:#606060;stroke-width:8.64"/>
	<circle cx="1723.10" cy="962.06" r="14.97" style="fill:none;stroke:#606060;stroke-width:8.64"/>
	<circle cx="1723.10" cy="950.43" r="14.97" style="fill:none;stroke:#606060;stroke-width:8.64"/>
	<circle cx="1723.10" cy="2336.72" r="14.97" style="fill:none;stroke:#606060;stroke-width:8.64"/>
	<circle cx="1723.10" cy="652.55" r="14.97" style="fill:none;stroke:#606060;stroke-width:8.64"/>
	<circle cx="1723.10" cy="726.31" r="14.97" style="fill:none;stroke:#606060;stroke-width:8.64"/>
	<circle cx="1723.10" cy="951.91" r="14.97" style="fill:none;stroke:#606060;stroke-width:8.64"/>
	<circle cx="1723.10" cy="2351.32" r="14.97" style="fill:none;stroke:#606060;stroke-width:8.64"/>
	<circle cx="1723.10" cy="775.07" r="14.97" style="fill:none;stroke:#606060;stroke-width:8.64"/>
	<circle cx="1806.01" cy="2351.08" r="14.97" style="fill:none;stroke:#606060;stroke-width:8.64"/>
	<circle cx="1806.01" cy="2350.83" r="14.97" style="fill:none;stroke:#606060;stroke-width:8.64"/>
	<circle cx="1806.01" cy="772.84" r="14.97" style="fill:none;stroke:#606060;stroke-width:8.64"/>
	<circle cx="1806.01" cy="769.87" r="14.97" style="fill:none;stroke:#606060;stroke-width:8.64"/>
	<circle cx="1806.01" cy="775.32" r="14.97" style="fill:none;stroke:#606060;stroke-width:8.64"/>
	<circle cx="1806.01" cy="778.04" r="14.97" style="fill:none;stroke:#606060;stroke-width:8.64"/>
	<circle cx="1806.01" cy="767.03" r="14.97" style="fill:none;stroke:#606060;stroke-width:8.64"/>
	<circle cx="1806.01" cy="959.96" r="14.97" style="fill:none;stroke:#606060;stroke-width:8.64"/>
	<circle cx="1806.01" cy="756.51" r="14.97" style="fill:none;stroke:#606060;stroke-width:8.64"/>
	<circle cx="1806.01" cy="957.11" r="14.97" style="fill:none;stroke:#606060;stroke-width:8.64"/>
	<circle cx="1806.01" cy="958.60" r="14.97" style="fill:none;stroke:#606060;stroke-width:8.64"/>
	<circle cx="1806.01" cy="774.33" r="14.97" style="fill:none;stroke:#606060;stroke-width:8.64"/>
	<circle cx="1806.01" cy="726.31" r="14.97" style="fill:none;stroke:#606060;stroke-width:8.64"/>
	<circle cx="1806.01" cy="775.07" r="14.97" style="fill:none;stroke:#606060;stroke-width:8.64"/>
	<circle cx="1888.92" cy="778.04" r="14.97" style="fill:none;stroke:#606060;stroke-width:8.64"/>
	<circle cx="1888.92" cy="773.71" r="14.97" style="fill:none;stroke:#606060;stroke-width:8.64"/>
	<circle cx="1888.92" cy="776.43" r="14.97" style="fill:none;stroke:#606060;stroke-width:8.64"/>
	<circle cx="1888.92" cy="763.31" r="14.97" style="fill:none;stroke:#606060;stroke-width:8.64"/>
	<circle cx="1888.92" cy="743.14" r="14.97" style="fill:none;stroke:#606060;stroke-width:8.64"/>
	<circle cx="1888.92" cy="770.86" r="14.97" style="fill:none;stroke:#606060;stroke-width:8.64"/>
	<circle cx="1888.92" cy="2348.60" r="14.97" style="fill:none;stroke:#606060;stroke-width:8.64"/>
	<circle cx="1888.92" cy="955.63" r="14.97" style="fill:none;stroke:#606060;stroke-width:8.64"/>
	<circle cx="1888.92" cy="766.28" r="14.97" style="fill:none;stroke:#606060;stroke-width:8.64"/>
	<circle cx="1888.92" cy="764.80" r="14.97" style="fill:none;stroke:#606060;stroke-width:8.64"/>
	<circle cx="1888.92" cy="769.25" r="14.97" style="fill:none;stroke:#606060;stroke-width:8.64"/>
	<circle cx="1888.92" cy="2350.58" r="14.97" style="fill:none;stroke:#606060;stroke-width:8.64"/>
	<circle cx="1888.92" cy="770.74" r="14.97" style="fill:none;stroke:#606060;stroke-width:8.64"/>
	<circle cx="1888.92" cy="756.51" r="14.97" style="fill:none;stroke:#606060;stroke-width:8.64"/>
	<circle cx="1888.92" cy="776.93" r="14.97" style="fill:none;stroke:#606060;stroke-width:8.64"/>
	<circle cx="1888.92" cy="955.01" r="14.97" style="fill:none;stroke:#606060;stroke-width:8.64"/>
	<circle cx="1888.92" cy="956.37" r="14.97" style="fill:none;stroke:#606060;stroke-width:8.64"/>
	<circle cx="1971.83" cy="776.43" r="14.97" style="fill:none;stroke:#606060;stroke-width:8.64"/>
	<circle cx="1971.83" cy="776.93" r="14.97" style="fill:none;stroke:#606060;stroke-width:8.64"/>
	<circle cx="1971.83" cy="773.59" r="14.97" style="fill:none;stroke:#606060;stroke-width:8.64"/>
	<circle cx="1971.83" cy="760.10" r="14.97" style="fill:none;stroke:#606060;stroke-width:8.64"/>
	<circle cx="1971.83" cy="777.79" r="14.97" style="fill:none;stroke:#606060;stroke-width:8.64"/>
	<circle cx="1971.83" cy="2226.58" r="14.97" style="fill:none;stroke:#606060;stroke-width:8.64"/>
	<circle cx="1971.83" cy="770.74" r="14.97" style="fill:none;stroke:#606060;stroke-width:8.64"/>
	<circle cx="1971.83" cy="770.00" r="14.97" style="fill:none;stroke:#606060;stroke-width:8.64"/>
	<circle cx="1971.83" cy="776.43" r="14.97" style="fill:none;stroke:#606060;stroke-width:8.64"/>
	<circle cx="1971.83" cy="770.00" r="14.97" style="fill:none;stroke:#606060;stroke-width:8.64"/>
	<circle cx="1971.83" cy="765.54" r="14.97" style="fill:none;stroke:#606060;stroke-width:8.64"/>
	<circle cx="1971.83" cy="961.94" r="14.97" style="fill:none;stroke:#606060;stroke-width:8.64"/>
	<circle cx="1971.83" cy="2341.92" r="14.97" style="fill:none;stroke:#606060;stroke-width:8.64"/>
	<circle cx="1971.83" cy="773.71" r="14.97" style="fill:none;stroke:#606060;stroke-width:8.64"/>
	<circle cx="1971.83" cy="769.25" r="14.97" style="fill:none;stroke:#606060;stroke-width:8.64"/>
	<circle cx="1971.83" cy="767.77" r="14.97" style="fill:none;stroke:#606060;stroke-width:8.64"/>
	<circle cx="1971.83" cy="768.64" r="14.97" style="fill:none;stroke:#606060;stroke-width:8.64"/>
	<circle cx="1971.83" cy="768.51" r="14.97" style="fill:none;stroke:#606060;stroke-width:8.64"/>
	<circle cx="1971.83" cy="777.92" r="14.97" style="fill:none;stroke:#606060;stroke-width:8.64"/>
	<circle cx="2054.74" cy="762.57" r="14.97" style="fill:none;stroke:#606060;stroke-width:8.64"/>
	<circle cx="2054.74" cy="961.20" r="14.97" style="fill:none;stroke:#606060;stroke-width:8.64"/>
	<circle cx="2054.74" cy="853.78" r="14.97" style="fill:none;stroke:#606060;stroke-width:8.64"/>
	<circle cx="2054.74" cy="768.51" r="14.97" style="fill:none;stroke:#606060;stroke-width:8.64"/>
	<circle cx="2054.74" cy="777.92" r="14.97" style="fill:none;stroke:#606060;stroke-width:8.64"/>
	<circle cx="2054.74" cy="778.04" r="14.97" style="fill:none;stroke:#606060;stroke-width:8.64"/>
	<circle cx="2054.74" cy="959.59" r="14.97" style="fill:none;stroke:#606060;stroke-width:8.64"/>
	<circle cx="2054.74" cy="948.20" r="14.97" style="fill:none;stroke:#606060;stroke-width:8.64"/>
	<circle cx="2054.74" cy="767.03" r="14.97" style="fill:none;stroke:#606060;stroke-width:8.64"/>
	<circle cx="2054.74" cy="778.04" r="14.97" style="fill:none;stroke:#606060;stroke-width:8.64"/>
	<circle cx="2054.74" cy="944.37" r="14.97" style="fill:none;stroke:#606060;stroke-width:8.64"/>
	<circle cx="2137.66" cy="2347.86" r="14.97" style="fill:none;stroke:#606060;stroke-width:8.64"/>
	<circle cx="2137.66" cy="777.42" r="14.97" style="fill:none;stroke:#606060;stroke-width:8.64"/>
	<circle cx="2137.66" cy="775.07" r="14.97" style="fill:none;stroke:#606060;stroke-width:8.64"/>
	<circle cx="2137.66" cy="776.93" r="14.97" style="fill:none;stroke:#606060;stroke-width:8.64"/>
	<circle cx="2137.66" cy="768.39" r="14.97" style="fill:none;stroke:#606060;stroke-width:8.64"/>
	<circle cx="2137.66" cy="770.74" r="14.97" style="fill:none;stroke:#606060;stroke-width:8.64"/>
	<circle cx="2137.66" cy="765.42" r="14.97" style="fill:none;stroke:#606060;stroke-width:8.64"/>
	<circle cx="2137.66" cy="774.33" r="14.97" style="fill:none;stroke:#606060;stroke-width:8.64"/>
	<circle cx="2137.66" cy="768.39" r="14.97" style="fill:none;stroke:#606060;stroke-width:8.64"/>
	<circle cx="2137.66" cy="764.80" r="14.97" style="fill:none;stroke:#606060;stroke-width:8.64"/>
	<circle cx="2137.66" cy="772.10" r="14.97" style="fill:none;stroke:#606060;stroke-width:8.64"/>
	<circle cx="2137.66" cy="962.19" r="14.97" style="fill:none;stroke:#606060;stroke-width:8.64"/>
	<circle cx="2137.66" cy="760.10" r="14.97" style="fill:none;stroke:#606060;stroke-width:8.64"/>
	<circle cx="2137.66" cy="776.43" r="14.97" style="fill:none;stroke:#606060;stroke-width:8.64"/>
	<circle cx="2220.57" cy="770.62" r="14.97" style="fill:none;stroke:#606060;stroke-width:8.64"/>
	<circle cx="2220.57" cy="2344.02" r="14.97" style="fill:none;stroke:#606060;stroke-width:8.64"/>
	<circle cx="2220.57" cy="776.93" r="14.97" style="fill:none;stroke:#606060;stroke-width:8.64"/>
	<circle cx="2220.57" cy="747.97" r="14.97" style="fill:none;stroke:#606060;stroke-width:8.64"/>
	<circle cx="2220.57" cy="777.92" r="14.97" style="fill:none;stroke:#606060;stroke-width:8.64"/>
	<circle cx="2220.57" cy="2293.78" r="14.97" style="fill:none;stroke:#606060;stroke-width:8.64"/>
	<circle cx="2220.57" cy="951.91" r="14.97" style="fill:none;stroke:#606060;stroke-width:8.64"/>
	<circle cx="2220.57" cy="776.31" r="14.97" style="fill:none;stroke:#606060;stroke-width:8.64"/>
	<circle cx="2220.57" cy="2343.28" r="14.97" style="fill:none;stroke:#606060;stroke-width:8.64"/>
	<circle cx="2220.57" cy="959.22" r="14.97" style="fill:none;stroke:#606060;stroke-width:8.64"/>
	<circle cx="2220.57" cy="770.62" r="14.97" style="fill:none;stroke:#606060;stroke-width:8.64"/>
	<circle cx="2220.57" cy="766.90" r="14.97" style="fill:none;stroke:#606060;stroke-width:8.64"/>
	<circle cx="2220.57" cy="766.90" r="14.97" style="fill:none;stroke:#606060;stroke-width:8.64"/>
	<circle cx="2220.57" cy="940.65" r="14.97" style="fill:none;stroke:#606060;stroke-width:8.64"/>
	<circle cx="2303.48" cy="775.69" r="14.97" style="fill:none;stroke:#606060;stroke-width:8.64"/>
	<circle cx="2303.48" cy="2347.73" r="14.97" style="fill:none;stroke:#606060;stroke-width:8.64"/>
	<circle cx="2303.48" cy="651.94" r="14.97" style="fill:none;stroke:#606060;stroke-width:8.64"/>
	<circle cx="2303.48" cy="772.84" r="14.97" style="fill:none;stroke:#606060;stroke-width:8.64"/>
	<circle cx="2303.48" cy="726.31" r="14.97" style="fill:none;stroke:#606060;stroke-width:8.64"/>
	<circle cx="2303.48" cy="695.87" r="14.97" style="fill:none;stroke:#606060;stroke-width:8.64"/>
	<circle cx="2303.48" cy="767.65" r="14.97" style="fill:none;stroke:#606060;stroke-width:8.64"/>
	<circle cx="2303.48" cy="777.67" r="14.97" style="fill:none;stroke:#606060;stroke-width:8.64"/>
	<circle cx="2303.48" cy="766.16" r="14.97" style="fill:none;stroke:#606060;stroke-width:8.64"/>
	<circle cx="2386.39" cy="776.31" r="14.97" style="fill:none;stroke:#606060;stroke-width:8.64"/>
	<circle cx="2386.39" cy="679.04" r="14.97" style="fill:none;stroke:#606060;stroke-width:8.64"/>
	<circle cx="2386.39" cy="770.62" r="14.97" style="fill:none;stroke:#606060;stroke-width:8.64"/>
	<circle cx="2386.39" cy="768.39" r="14.97" style="fill:none;stroke:#606060;stroke-width:8.64"/>
	<circle cx="2386.39" cy="756.38" r="14.97" style="fill:none;stroke:#606060;stroke-width:8.64"/>
	<circle cx="2386.39" cy="954.88" r="14.97" style="fill:none;stroke:#606060;stroke-width:8.64"/>
	<circle cx="2386.39" cy="936.69" r="14.97" style="fill:none;stroke:#606060;stroke-width:8.64"/>
	<circle cx="2469.18" cy="777.79" r="14.97" style="fill:none;stroke:#606060;stroke-width:8.64"/>
	<circle cx="2469.18" cy="2351.20" r="14.97" style="fill:none;stroke:#606060;stroke-width:8.64"/>
	<circle cx="2469.18" cy="737.70" r="14.97" style="fill:none;stroke:#606060;stroke-width:8.64"/>
	<circle cx="2469.18" cy="770.62" r="14.97" style="fill:none;stroke:#606060;stroke-width:8.64"/>
	<circle cx="2469.18" cy="774.33" r="14.97" style="fill:none;stroke:#606060;stroke-width:8.64"/>
	<circle cx="2469.18" cy="776.80" r="14.97" style="fill:none;stroke:#606060;stroke-width:8.64"/>
	<circle cx="2469.18" cy="766.16" r="14.97" style="fill:none;stroke:#606060;stroke-width:8.64"/>
	<circle cx="2469.18" cy="961.57" r="14.97" style="fill:none;stroke:#606060;stroke-width:8.64"/>
	<circle cx="2469.18" cy="770.74" r="14.97" style="fill:none;stroke:#606060;stroke-width:8.64"/>
	<circle cx="2469.18" cy="737.70" r="14.97" style="fill:none;stroke:#606060;stroke-width:8.64"/>
	<circle cx="2469.18" cy="737.70" r="14.97" style="fill:none;stroke:#606060;stroke-width:8.64"/>
	<circle cx="2552.10" cy="774.33" r="14.97" style="fill:none;stroke:#606060;stroke-width:8.64"/>
	<circle cx="2552.10" cy="775.69" r="14.97" style="fill:none;stroke:#606060;stroke-width:8.64"/>
	<circle cx="2552.10" cy="769.87" r="14.97" style="fill:none;stroke:#606060;stroke-width:8.64"/>
	<circle cx="2552.10" cy="764.68" r="14.97" style="fill:none;stroke:#606060;stroke-width:8.64"/>
	<circle cx="2552.10" cy="954.14" r="14.97" style="fill:none;stroke:#606060;stroke-width:8.64"/>
	<circle cx="2552.10" cy="951.17" r="14.97" style="fill:none;stroke:#606060;stroke-width:8.64"/>
	<circle cx="2552.10" cy="772.60" r="14.97" style="fill:none;stroke:#606060;stroke-width:8.64"/>
	<circle cx="2552.10" cy="954.14" r="14.97" style="fill:none;stroke:#606060;stroke-width:8.64"/>
	<circle cx="2552.10" cy="777.55" r="14.97" style="fill:none;stroke:#606060;stroke-width:8.64"/>
	<circle cx="2635.01" cy="916.40" r="14.97" style="fill:none;stroke:#606060;stroke-width:8.64"/>
	<circle cx="2635.01" cy="768.39" r="14.97" style="fill:none;stroke:#606060;stroke-width:8.64"/>
	<circle cx="2635.01" cy="947.46" r="14.97" style="fill:none;stroke:#606060;stroke-width:8.64"/>
	<circle cx="2635.01" cy="766.90" r="14.97" style="fill:none;stroke:#606060;stroke-width:8.64"/>
	<circle cx="2635.01" cy="956.37" r="14.97" style="fill:none;stroke:#606060;stroke-width:8.64"/>
	<circle cx="2635.01" cy="773.59" r="14.97" style="fill:none;stroke:#606060;stroke-width:8.64"/>
	<circle cx="2635.01" cy="2347.73" r="14.97" style="fill:none;stroke:#606060;stroke-width:8.64"/>
	<circle cx="2635.01" cy="773.59" r="14.97" style="fill:none;stroke:#606060;stroke-width:8.64"/>
	<circle cx="2635.01" cy="777.05" r="14.97" style="fill:none;stroke:#606060;stroke-width:8.64"/>
	<circle cx="2635.01" cy="752.42" r="14.97" style="fill:none;stroke:#606060;stroke-width:8.64"/>
	<circle cx="2635.01" cy="752.42" r="14.97" style="fill:none;stroke:#606060;stroke-width:8.64"/>
	<circle cx="2635.01" cy="775.07" r="14.97" style="fill:none;stroke:#606060;stroke-width:8.64"/>
	<circle cx="2717.92" cy="777.55" r="14.97" style="fill:none;stroke:#606060;stroke-width:8.64"/>
	<circle cx="2717.92" cy="760.22" r="14.97" style="fill:none;stroke:#606060;stroke-width:8.64"/>
	<circle cx="2717.92" cy="776.31" r="14.97" style="fill:none;stroke:#606060;stroke-width:8.64"/>
	<circle cx="2717.92" cy="674.09" r="14.97" style="fill:none;stroke:#606060;stroke-width:8.64"/>
	<circle cx="2717.92" cy="777.55" r="14.97" style="fill:none;stroke:#606060;stroke-width:8.64"/>
	<circle cx="2717.92" cy="769.87" r="14.97" style="fill:none;stroke:#606060;stroke-width:8.64"/>
	<circle cx="2717.92" cy="684.36" r="14.97" style="fill:none;stroke:#606060;stroke-width:8.64"/>
	<circle cx="2717.92" cy="777.55" r="14.97" style="fill:none;stroke:#606060;stroke-width:8.64"/>
	<circle cx="2717.92" cy="2346.25" r="14.97" style="fill:none;stroke:#606060;stroke-width:8.64"/>
	<circle cx="2717.92" cy="766.90" r="14.97" style="fill:none;stroke:#606060;stroke-width:8.64"/>
	<circle cx="2717.92" cy="961.57" r="14.97" style="fill:none;stroke:#606060;stroke-width:8.64"/>
	<circle cx="2717.92" cy="954.88" r="14.97" style="fill:none;stroke:#606060;stroke-width:8.64"/>
	<circle cx="2717.92" cy="679.04" r="14.97" style="fill:none;stroke:#606060;stroke-width:8.64"/>
	<circle cx="2800.83" cy="948.94" r="14.97" style="fill:none;stroke:#606060;stroke-width:8.64"/>
	<circle cx="2800.83" cy="777.67" r="14.97" style="fill:none;stroke:#606060;stroke-width:8.64"/>
	<circle cx="2800.83" cy="904.52" r="14.97" style="fill:none;stroke:#606060;stroke-width:8.64"/>
	<circle cx="2800.83" cy="747.97" r="14.97" style="fill:none;stroke:#606060;stroke-width:8.64"/>
	<circle cx="2800.83" cy="956.37" r="14.97" style="fill:none;stroke:#606060;stroke-width:8.64"/>
	<circle cx="2883.75" cy="2329.91" r="14.97" style="fill:none;stroke:#606060;stroke-width:8.64"/>
	<circle cx="2883.75" cy="769.87" r="14.97" style="fill:none;stroke:#606060;stroke-width:8.64"/>
	<circle cx="2883.75" cy="773.59" r="14.97" style="fill:none;stroke:#606060;stroke-width:8.64"/>
	<circle cx="2883.75" cy="763.93" r="14.97" style="fill:none;stroke:#606060;stroke-width:8.64"/>
	<circle cx="2883.75" cy="956.74" r="14.97" style="fill:none;stroke:#606060;stroke-width:8.64"/>
	<circle cx="2883.75" cy="769.13" r="14.97" style="fill:none;stroke:#606060;stroke-width:8.64"/>
	<circle cx="2883.75" cy="767.65" r="14.97" style="fill:none;stroke:#606060;stroke-width:8.64"/>
	<circle cx="2966.66" cy="777.55" r="14.97" style="fill:none;stroke:#606060;stroke-width:8.64"/>
	<circle cx="2966.66" cy="766.90" r="14.97" style="fill:none;stroke:#606060;stroke-width:8.64"/>
	<circle cx="2966.66" cy="732.13" r="14.97" style="fill:none;stroke:#606060;stroke-width:8.64"/>
	<circle cx="2966.66" cy="768.39" r="14.97" style="fill:none;stroke:#606060;stroke-width:8.64"/>
	<circle cx="2966.66" cy="768.39" r="14.97" style="fill:none;stroke:#606060;stroke-width:8.64"/>
	<circle cx="2966.66" cy="952.66" r="14.97" style="fill:none;stroke:#606060;stroke-width:8.64"/>
	<circle cx="3049.57" cy="776.31" r="14.97" style="fill:none;stroke:#606060;stroke-width:8.64"/>
	<circle cx="3049.57" cy="652.55" r="14.97" style="fill:none;stroke:#606060;stroke-width:8.64"/>
	<circle cx="3049.57" cy="768.64" r="14.97" style="fill:none;stroke:#606060;stroke-width:8.64"/>
	<circle cx="3049.57" cy="777.55" r="14.97" style="fill:none;stroke:#606060;stroke-width:8.64"/>
	<circle cx="3049.57" cy="880.01" r="14.97" style="fill:none;stroke:#606060;stroke-width:8.64"/>
	<circle cx="3049.57" cy="777.30" r="14.97" style="fill:none;stroke:#606060;stroke-width:8.64"/>
	<circle cx="3049.57" cy="775.07" r="14.97" style="fill:none;stroke:#606060;stroke-width:8.64"/>
	<circle cx="3049.57" cy="766.16" r="14.97" style="fill:none;stroke:#606060;stroke-width:8.64"/>
	<circle cx="3049.57" cy="2350.95" r="14.97" style="fill:none;stroke:#606060;stroke-width:8.64"/>
	<circle cx="3049.57" cy="763.31" r="14.97" style="fill:none;stroke:#606060;stroke-width:8.64"/>
	<circle cx="3049.57" cy="944.24" r="14.97" style="fill:none;stroke:#606060;stroke-width:8.64"/>
	<circle cx="3049.57" cy="950.31" r="14.97" style="fill:none;stroke:#606060;stroke-width:8.64"/>
	<circle cx="3132.48" cy="777.92" r="14.97" style="fill:none;stroke:#606060;stroke-width:8.64"/>
	<circle cx="3215.40" cy="777.67" r="14.97" style="fill:none;stroke:#606060;stroke-width:8.64"/>
	<circle cx="3215.40" cy="765.42" r="14.97" style="fill:none;stroke:#606060;stroke-width:8.64"/>
	<circle cx="3215.40" cy="768.39" r="14.97" style="fill:none;stroke:#606060;stroke-width:8.64"/>
	<circle cx="3215.40" cy="773.46" r="14.97" style="fill:none;stroke:#606060;stroke-width:8.64"/>
	<circle cx="3215.40" cy="737.70" r="14.97" style="fill:none;stroke:#606060;stroke-width:8.64"/>
	<circle cx="3215.40" cy="2351.20" r="14.97" style="fill:none;stroke:#606060;stroke-width:8.64"/>
	<path d=" M396.74 954.14 L479.65 952.41 L562.57 952.41 L562.57 963.05 L645.36 961.69 L645.36 972.09 L645.36 982.36 L645.36 980.87 L645.36 979.26 L645.36 977.78 L728.27 976.29 L728.27 974.81 L728.27 974.69 L728.27 973.20 L728.27 973.08 L811.18 972.95 L811.18 971.59 L811.18 969.86 L811.18 968.50 L811.18 967.26 L894.09 965.90 L894.09 964.66 L894.09 963.30 L894.09 961.82 L894.09 960.58 L894.09 969.74 L977.01 969.61 L977.01 968.25 L977.01 967.01 L977.01 965.78 L977.01 974.44 L1059.92 973.20 L1059.92 971.84 L1059.92 970.60 L1059.92 970.60 L1059.92 970.48 L1142.83 969.24 L1142.83 968.13 L1142.83 966.89 L1142.83 965.65 L1142.83 964.54 L1142.83 972.09 L1142.83 970.85 L1142.83 969.74 L1142.83 968.62 L1142.83 967.38 L1142.83 966.27 L1142.83 966.27 L1142.83 974.07 L1142.83 972.95 L1142.83 971.72 L1225.74 970.60 L1225.74 969.49 L1225.74 968.37 L1225.74 967.38 L1225.74 966.27 L1225.74 966.15 L1225.74 965.65 L1225.74 964.54 L1225.74 963.55 L1308.66 962.56 L1308.66 962.56 L1308.66 962.43 L1308.66 961.44 L1308.66 960.45 L1308.66 960.45 L1308.66 967.51 L1308.66 966.52 L1391.57 965.65 L1391.57 964.66 L1391.57 963.67 L1391.57 962.68 L1391.57 961.69 L1391.57 960.83 L1391.57 959.83 L1391.57 958.84 L1391.57 957.98 L1391.57 957.98 L1391.57 956.99 L1391.57 956.12 L1391.57 955.26 L1474.48 961.94 L1474.48 960.95 L1474.48 959.96 L1474.48 959.09 L1474.48 965.40 L1474.48 965.28 L1474.48 964.41 L1474.48 970.85 L1474.48 970.73 L1557.27 969.86 L1557.27 968.99 L1557.27 968.00 L1557.27 967.88 L1557.27 967.01 L1557.27 973.20 L1557.27 971.84 L1557.27 970.85 L1557.27 969.86 L1557.27 968.62 L1557.27 967.76 L1557.27 966.89 L1557.27 966.02 L1640.18 965.16 L1640.18 963.92 L1640.18 963.18 L1640.18 962.31 L1640.18 961.44 L1640.18 961.44 L1640.18 961.32 L1640.18 960.58 L1640.18 966.39 L1640.18 965.40 L1640.18 964.54 L1640.18 963.80 L1640.18 963.05 L1640.18 962.19 L1640.18 962.19 L1723.10 961.44 L1723.10 960.58 L1723.10 959.59 L1723.10 958.84 L1723.10 958.23 L1723.10 957.36 L1723.10 956.62 L1723.10 956.62 L1723.10 956.62 L1723.10 955.87 L1723.10 955.87 L1723.10 955.13 L1723.10 955.75 L1723.10 956.00 L1806.01 956.74 L1806.01 956.62 L1806.01 957.36 L1806.01 951.17 L1806.01 957.36 L1806.01 957.36 L1806.01 957.36 L1806.01 951.17 L1806.01 950.31 L1806.01 944.24 L1806.01 944.24 L1806.01 943.38 L1806.01 943.38 L1806.01 943.13 L1888.92 942.51 L1888.92 941.64 L1888.92 941.40 L1888.92 940.65 L1888.92 946.84 L1888.92 946.84 L1888.92 946.84 L1888.92 947.58 L1888.92 941.02 L1888.92 941.77 L1888.92 941.77 L1888.92 942.26 L1888.92 941.40 L1888.92 941.40 L1888.92 941.40 L1888.92 940.65 L1888.92 940.65 L1971.83 940.53 L1971.83 941.27 L1971.83 941.27 L1971.83 941.27 L1971.83 941.27 L1971.83 941.27 L1971.83 941.15 L1971.83 940.41 L1971.83 940.41 L1971.83 941.02 L1971.83 941.02 L1971.83 940.65 L1971.83 934.47 L1971.83 934.47 L1971.83 934.84 L1971.83 934.84 L1971.83 934.96 L1971.83 934.84 L1971.83 941.15 L2054.74 941.15 L2054.74 935.83 L2054.74 935.83 L2054.74 930.01 L2054.74 930.01 L2054.74 930.01 L2054.74 929.89 L2054.74 923.82 L2054.74 922.96 L2054.74 929.14 L2054.74 923.58 L2137.66 924.19 L2137.66 924.81 L2137.66 925.43 L2137.66 926.17 L2137.66 926.79 L2137.66 926.55 L2137.66 927.16 L2137.66 927.91 L2137.66 928.53 L2137.66 929.14 L2137.66 929.76 L2137.66 930.88 L2137.66 930.75 L2137.66 931.50 L2220.57 932.11 L2220.57 932.86 L2220.57 933.48 L2220.57 934.09 L2220.57 935.33 L2220.57 935.95 L2220.57 936.69 L2220.57 937.44 L2220.57 938.05 L2220.57 938.80 L2220.57 938.67 L2220.57 939.42 L2220.57 940.16 L2220.57 940.90 L2303.48 940.78 L2303.48 941.52 L2303.48 942.26 L2303.48 943.13 L2303.48 936.69 L2303.48 937.56 L2303.48 937.44 L2303.48 938.18 L2303.48 938.92 L2386.39 939.79 L2386.39 939.91 L2386.39 939.79 L2386.39 940.65 L2386.39 941.40 L2386.39 942.14 L2386.39 942.14 L2469.18 942.88 L2469.18 942.88 L2469.18 943.75 L2469.18 944.61 L2469.18 944.61 L2469.18 945.36 L2469.18 945.36 L2469.18 946.22 L2469.18 947.09 L2469.18 947.95 L2469.18 948.94 L2552.10 948.82 L2552.10 949.81 L2552.10 950.68 L2552.10 952.04 L2552.10 951.91 L2552.10 951.91 L2552.10 944.74 L2552.10 946.22 L2552.10 947.46 L2635.01 947.34 L2635.01 939.91 L2635.01 940.78 L2635.01 933.23 L2635.01 925.56 L2635.01 926.42 L2635.01 927.29 L2635.01 928.03 L2635.01 928.90 L2635.01 929.76 L2635.01 929.64 L2635.01 930.63 L2717.92 930.51 L2717.92 930.26 L2717.92 931.25 L2717.92 932.36 L2717.92 933.23 L2717.92 934.22 L2717.92 935.08 L2717.92 936.07 L2717.92 937.06 L2717.92 938.18 L2717.92 939.17 L2717.92 930.75 L2717.92 930.63 L2800.83 931.62 L2800.83 932.61 L2800.83 933.60 L2800.83 924.81 L2800.83 925.80 L2883.75 926.79 L2883.75 927.78 L2883.75 927.66 L2883.75 927.41 L2883.75 928.40 L2883.75 929.39 L2883.75 930.38 L2966.66 931.50 L2966.66 932.61 L2966.66 923.95 L2966.66 924.94 L2966.66 926.05 L2966.66 927.04 L3049.57 928.15 L3049.57 929.27 L3049.57 929.02 L3049.57 919.12 L3049.57 920.11 L3049.57 921.22 L3049.57 922.34 L3049.57 923.45 L3049.57 924.57 L3049.57 925.56 L3049.57 926.79 L3049.57 926.55 L3132.48 927.04 L3215.40 928.28 L3215.40 929.39 L3215.40 930.63 L3215.40 930.38 L3215.40 930.26 L3215.40 931.50" stroke-linejoin="round" style="fill:none;stroke:#000000;stroke-width:8.64"/>
	<line x1="333.38" y1="2414.69" x2="333.38" y2="235.38" style="stroke:#000000;stroke-width:5.76"/>
	<line x1="333.38" y1="2251.95" x2="293.41" y2="2251.95" style="stroke:#000000;stroke-width:5.76"/>
	<text x="249.32" y="2251.95" style="font-family:'Helvetica';font-size:79.94px;fill:#000000" transform="rotate(-90 249.32,2251.95)" text-anchor="middle">-10</text>
	<line x1="333.38" y1="1600.88" x2="293.41" y2="1600.88" style="stroke:#000000;stroke-width:5.76"/>
	<text x="249.32" y="1600.88" style="font-family:'Helvetica';font-size:79.94px;fill:#000000" transform="rotate(-90 249.32,1600.88)" text-anchor="middle">-5</text>
	<line x1="333.38" y1="949.81" x2="293.41" y2="949.81" style="stroke:#000000;stroke-width:5.76"/>
	<text x="249.32" y="949.81" style="font-family:'Helvetica';font-size:79.94px;fill:#000000" transform="rotate(-90 249.32,949.81)" text-anchor="middle">0</text>
	<line x1="333.38" y1="298.74" x2="293.41" y2="298.74" style="stroke:#000000;stroke-width:5.76"/>
	<text x="249.32" y="298.74" style="font-family:'Helvetica';font-size:79.94px;fill:#000000" transform="rotate(-90 249.32,298.74)" text-anchor="middle">5</text>
	<text x="176.68" y="1325.03" style="font-family:'Helvetica';font-size:79.94px;fill:#000000" transform="rotate(-90 176.68,1325.03)" text-anchor="middle">Scaled Shoenfeld Residuals</text>
	<line x1="333.38" y1="2414.69" x2="3859.02" y2="2414.69" style="stroke:#000000;stroke-width:5.76"/>
	<line x1="479.65" y1="2414.69" x2="479.65" y2="2454.66" style="stroke:#000000;stroke-width:5.76"/>
	<text x="479.65" y="2530.61" style="font-family:'Helvetica';font-size:79.94px;fill:#000000" text-anchor="middle">20</text>
	<line x1="1308.66" y1="2414.69" x2="1308.66" y2="2454.66" style="stroke:#000000;stroke-width:5.76"/>
	<text x="1308.66" y="2530.61" style="font-family:'Helvetica';font-size:79.94px;fill:#000000" text-anchor="middle">30</text>
	<line x1="2137.66" y1="2414.69" x2="2137.66" y2="2454.66" style="stroke:#000000;stroke-width:5.76"/>
	<text x="2137.66" y="2530.61" style="font-family:'Helvetica';font-size:79.94px;fill:#000000" text-anchor="middle">40</text>
	<line x1="2966.66" y1="2414.69" x2="2966.66" y2="2454.66" style="stroke:#000000;stroke-width:5.76"/>
	<text x="2966.66" y="2530.61" style="font-family:'Helvetica';font-size:79.94px;fill:#000000" text-anchor="middle">50</text>
	<line x1="3795.66" y1="2414.69" x2="3795.66" y2="2454.66" style="stroke:#000000;stroke-width:5.76"/>
	<text x="3795.66" y="2530.61" style="font-family:'Helvetica';font-size:79.94px;fill:#000000" text-anchor="middle">60</text>
	<text x="2096.20" y="2620.57" style="font-family:'Helvetica';font-size:79.94px;fill:#000000" text-anchor="middle">Time</text>
	<text x="350.71" y="2737.89" style="font-family:'Helvetica';font-size:79.94px;fill:#000000">bandwidth = .8</text>
	<text x="350.71" y="187.99" style="font-family:'Helvetica';font-size:99.99px;fill:#000000">Schoenfeld residuals against time, age and sex adjusted ICS (Low/Medium Dose)</text>
</svg>
