<?xml version="1.0" encoding="UTF-8" standalone="no"?>
<!-- This is a Stata 16.1 generated SVG file (http://www.stata.com) -->

<svg version="1.1" width="5.50in" height="4.00in" viewBox="0 0 3960 2880" xmlns="http://www.w3.org/2000/svg" xmlns:xlink="http://www.w3.org/1999/xlink">
	<desc>Stata Graph - Graph</desc>
	<rect x="0" y="0" width="3960" height="2880" style="fill:#FFFFFF;stroke:none"/>
	<rect x="0.00" y="0.00" width="3959.88" height="2880.00" style="fill:#FFFFFF"/>
	<rect x="2.88" y="2.88" width="3954.12" height="2874.24" style="fill:none;stroke:#FFFFFF;stroke-width:5.76"/>
	<rect x="353.59" y="238.26" width="3502.55" height="2173.55" style="fill:none;stroke:#000000;stroke-width:5.76"/>
	<circle cx="414.07" cy="298.87" r="14.97" style="fill:none;stroke:#606060;stroke-width:8.64"/>
	<circle cx="496.49" cy="298.87" r="14.97" style="fill:none;stroke:#606060;stroke-width:8.64"/>
	<circle cx="579.03" cy="945.85" r="14.97" style="fill:none;stroke:#606060;stroke-width:8.64"/>
	<circle cx="579.03" cy="945.85" r="14.97" style="fill:none;stroke:#606060;stroke-width:8.64"/>
	<circle cx="661.44" cy="945.85" r="14.97" style="fill:none;stroke:#606060;stroke-width:8.64"/>
	<circle cx="661.44" cy="945.85" r="14.97" style="fill:none;stroke:#606060;stroke-width:8.64"/>
	<circle cx="661.44" cy="945.85" r="14.97" style="fill:none;stroke:#606060;stroke-width:8.64"/>
	<circle cx="661.44" cy="2326.08" r="14.97" style="fill:none;stroke:#606060;stroke-width:8.64"/>
	<circle cx="661.44" cy="945.85" r="14.97" style="fill:none;stroke:#606060;stroke-width:8.64"/>
	<circle cx="661.44" cy="945.85" r="14.97" style="fill:none;stroke:#606060;stroke-width:8.64"/>
	<circle cx="743.99" cy="945.85" r="14.97" style="fill:none;stroke:#606060;stroke-width:8.64"/>
	<circle cx="743.99" cy="2326.08" r="14.97" style="fill:none;stroke:#606060;stroke-width:8.64"/>
	<circle cx="743.99" cy="298.87" r="14.97" style="fill:none;stroke:#606060;stroke-width:8.64"/>
	<circle cx="743.99" cy="2326.08" r="14.97" style="fill:none;stroke:#606060;stroke-width:8.64"/>
	<circle cx="743.99" cy="945.85" r="14.97" style="fill:none;stroke:#606060;stroke-width:8.64"/>
	<circle cx="826.40" cy="298.87" r="14.97" style="fill:none;stroke:#606060;stroke-width:8.64"/>
	<circle cx="826.40" cy="945.85" r="14.97" style="fill:none;stroke:#606060;stroke-width:8.64"/>
	<circle cx="826.40" cy="945.85" r="14.97" style="fill:none;stroke:#606060;stroke-width:8.64"/>
	<circle cx="826.40" cy="298.87" r="14.97" style="fill:none;stroke:#606060;stroke-width:8.64"/>
	<circle cx="826.40" cy="298.87" r="14.97" style="fill:none;stroke:#606060;stroke-width:8.64"/>
	<circle cx="908.94" cy="945.85" r="14.97" style="fill:none;stroke:#606060;stroke-width:8.64"/>
	<circle cx="908.94" cy="298.87" r="14.97" style="fill:none;stroke:#606060;stroke-width:8.64"/>
	<circle cx="908.94" cy="945.85" r="14.97" style="fill:none;stroke:#606060;stroke-width:8.64"/>
	<circle cx="908.94" cy="945.85" r="14.97" style="fill:none;stroke:#606060;stroke-width:8.64"/>
	<circle cx="908.94" cy="298.87" r="14.97" style="fill:none;stroke:#606060;stroke-width:8.64"/>
	<circle cx="908.94" cy="945.85" r="14.97" style="fill:none;stroke:#606060;stroke-width:8.64"/>
	<circle cx="991.36" cy="2326.08" r="14.97" style="fill:none;stroke:#606060;stroke-width:8.64"/>
	<circle cx="991.36" cy="945.85" r="14.97" style="fill:none;stroke:#606060;stroke-width:8.64"/>
	<circle cx="991.36" cy="945.85" r="14.97" style="fill:none;stroke:#606060;stroke-width:8.64"/>
	<circle cx="991.36" cy="945.85" r="14.97" style="fill:none;stroke:#606060;stroke-width:8.64"/>
	<circle cx="991.36" cy="298.87" r="14.97" style="fill:none;stroke:#606060;stroke-width:8.64"/>
	<circle cx="1073.90" cy="298.87" r="14.97" style="fill:none;stroke:#606060;stroke-width:8.64"/>
	<circle cx="1073.90" cy="2326.08" r="14.97" style="fill:none;stroke:#606060;stroke-width:8.64"/>
	<circle cx="1073.90" cy="298.87" r="14.97" style="fill:none;stroke:#606060;stroke-width:8.64"/>
	<circle cx="1073.90" cy="945.85" r="14.97" style="fill:none;stroke:#606060;stroke-width:8.64"/>
	<circle cx="1073.90" cy="945.85" r="14.97" style="fill:none;stroke:#606060;stroke-width:8.64"/>
	<circle cx="1156.32" cy="945.85" r="14.97" style="fill:none;stroke:#606060;stroke-width:8.64"/>
	<circle cx="1156.32" cy="945.85" r="14.97" style="fill:none;stroke:#606060;stroke-width:8.64"/>
	<circle cx="1156.32" cy="945.85" r="14.97" style="fill:none;stroke:#606060;stroke-width:8.64"/>
	<circle cx="1156.32" cy="945.85" r="14.97" style="fill:none;stroke:#606060;stroke-width:8.64"/>
	<circle cx="1156.32" cy="945.85" r="14.97" style="fill:none;stroke:#606060;stroke-width:8.64"/>
	<circle cx="1156.32" cy="945.85" r="14.97" style="fill:none;stroke:#606060;stroke-width:8.64"/>
	<circle cx="1156.32" cy="298.87" r="14.97" style="fill:none;stroke:#606060;stroke-width:8.64"/>
	<circle cx="1156.32" cy="945.85" r="14.97" style="fill:none;stroke:#606060;stroke-width:8.64"/>
	<circle cx="1156.32" cy="945.85" r="14.97" style="fill:none;stroke:#606060;stroke-width:8.64"/>
	<circle cx="1156.32" cy="945.85" r="14.97" style="fill:none;stroke:#606060;stroke-width:8.64"/>
	<circle cx="1156.32" cy="945.85" r="14.97" style="fill:none;stroke:#606060;stroke-width:8.64"/>
	<circle cx="1156.32" cy="2326.08" r="14.97" style="fill:none;stroke:#606060;stroke-width:8.64"/>
	<circle cx="1156.32" cy="945.85" r="14.97" style="fill:none;stroke:#606060;stroke-width:8.64"/>
	<circle cx="1156.32" cy="945.85" r="14.97" style="fill:none;stroke:#606060;stroke-width:8.64"/>
	<circle cx="1156.32" cy="945.85" r="14.97" style="fill:none;stroke:#606060;stroke-width:8.64"/>
	<circle cx="1238.86" cy="945.85" r="14.97" style="fill:none;stroke:#606060;stroke-width:8.64"/>
	<circle cx="1238.86" cy="945.85" r="14.97" style="fill:none;stroke:#606060;stroke-width:8.64"/>
	<circle cx="1238.86" cy="945.85" r="14.97" style="fill:none;stroke:#606060;stroke-width:8.64"/>
	<circle cx="1238.86" cy="945.85" r="14.97" style="fill:none;stroke:#606060;stroke-width:8.64"/>
	<circle cx="1238.86" cy="2326.08" r="14.97" style="fill:none;stroke:#606060;stroke-width:8.64"/>
	<circle cx="1238.86" cy="298.87" r="14.97" style="fill:none;stroke:#606060;stroke-width:8.64"/>
	<circle cx="1238.86" cy="2326.08" r="14.97" style="fill:none;stroke:#606060;stroke-width:8.64"/>
	<circle cx="1238.86" cy="945.85" r="14.97" style="fill:none;stroke:#606060;stroke-width:8.64"/>
	<circle cx="1238.86" cy="945.85" r="14.97" style="fill:none;stroke:#606060;stroke-width:8.64"/>
	<circle cx="1321.28" cy="945.85" r="14.97" style="fill:none;stroke:#606060;stroke-width:8.64"/>
	<circle cx="1321.28" cy="2326.08" r="14.97" style="fill:none;stroke:#606060;stroke-width:8.64"/>
	<circle cx="1321.28" cy="298.87" r="14.97" style="fill:none;stroke:#606060;stroke-width:8.64"/>
	<circle cx="1321.28" cy="945.85" r="14.97" style="fill:none;stroke:#606060;stroke-width:8.64"/>
	<circle cx="1321.28" cy="2326.08" r="14.97" style="fill:none;stroke:#606060;stroke-width:8.64"/>
	<circle cx="1321.28" cy="945.85" r="14.97" style="fill:none;stroke:#606060;stroke-width:8.64"/>
	<circle cx="1321.28" cy="945.85" r="14.97" style="fill:none;stroke:#606060;stroke-width:8.64"/>
	<circle cx="1321.28" cy="945.85" r="14.97" style="fill:none;stroke:#606060;stroke-width:8.64"/>
	<circle cx="1403.82" cy="945.85" r="14.97" style="fill:none;stroke:#606060;stroke-width:8.64"/>
	<circle cx="1403.82" cy="945.85" r="14.97" style="fill:none;stroke:#606060;stroke-width:8.64"/>
	<circle cx="1403.82" cy="298.87" r="14.97" style="fill:none;stroke:#606060;stroke-width:8.64"/>
	<circle cx="1403.82" cy="945.85" r="14.97" style="fill:none;stroke:#606060;stroke-width:8.64"/>
	<circle cx="1403.82" cy="945.85" r="14.97" style="fill:none;stroke:#606060;stroke-width:8.64"/>
	<circle cx="1403.82" cy="945.85" r="14.97" style="fill:none;stroke:#606060;stroke-width:8.64"/>
	<circle cx="1403.82" cy="945.85" r="14.97" style="fill:none;stroke:#606060;stroke-width:8.64"/>
	<circle cx="1403.82" cy="945.85" r="14.97" style="fill:none;stroke:#606060;stroke-width:8.64"/>
	<circle cx="1403.82" cy="945.85" r="14.97" style="fill:none;stroke:#606060;stroke-width:8.64"/>
	<circle cx="1403.82" cy="298.87" r="14.97" style="fill:none;stroke:#606060;stroke-width:8.64"/>
	<circle cx="1403.82" cy="945.85" r="14.97" style="fill:none;stroke:#606060;stroke-width:8.64"/>
	<circle cx="1403.82" cy="945.85" r="14.97" style="fill:none;stroke:#606060;stroke-width:8.64"/>
	<circle cx="1403.82" cy="945.85" r="14.97" style="fill:none;stroke:#606060;stroke-width:8.64"/>
	<circle cx="1486.24" cy="945.85" r="14.97" style="fill:none;stroke:#606060;stroke-width:8.64"/>
	<circle cx="1486.24" cy="945.85" r="14.97" style="fill:none;stroke:#606060;stroke-width:8.64"/>
	<circle cx="1486.24" cy="945.85" r="14.97" style="fill:none;stroke:#606060;stroke-width:8.64"/>
	<circle cx="1486.24" cy="945.85" r="14.97" style="fill:none;stroke:#606060;stroke-width:8.64"/>
	<circle cx="1486.24" cy="945.85" r="14.97" style="fill:none;stroke:#606060;stroke-width:8.64"/>
	<circle cx="1486.24" cy="945.85" r="14.97" style="fill:none;stroke:#606060;stroke-width:8.64"/>
	<circle cx="1486.24" cy="945.85" r="14.97" style="fill:none;stroke:#606060;stroke-width:8.64"/>
	<circle cx="1486.24" cy="945.85" r="14.97" style="fill:none;stroke:#606060;stroke-width:8.64"/>
	<circle cx="1486.24" cy="298.87" r="14.97" style="fill:none;stroke:#606060;stroke-width:8.64"/>
	<circle cx="1568.78" cy="945.85" r="14.97" style="fill:none;stroke:#606060;stroke-width:8.64"/>
	<circle cx="1568.78" cy="945.85" r="14.97" style="fill:none;stroke:#606060;stroke-width:8.64"/>
	<circle cx="1568.78" cy="945.85" r="14.97" style="fill:none;stroke:#606060;stroke-width:8.64"/>
	<circle cx="1568.78" cy="298.87" r="14.97" style="fill:none;stroke:#606060;stroke-width:8.64"/>
	<circle cx="1568.78" cy="945.85" r="14.97" style="fill:none;stroke:#606060;stroke-width:8.64"/>
	<circle cx="1568.78" cy="945.85" r="14.97" style="fill:none;stroke:#606060;stroke-width:8.64"/>
	<circle cx="1568.78" cy="945.85" r="14.97" style="fill:none;stroke:#606060;stroke-width:8.64"/>
	<circle cx="1568.78" cy="2326.08" r="14.97" style="fill:none;stroke:#606060;stroke-width:8.64"/>
	<circle cx="1568.78" cy="945.85" r="14.97" style="fill:none;stroke:#606060;stroke-width:8.64"/>
	<circle cx="1568.78" cy="298.87" r="14.97" style="fill:none;stroke:#606060;stroke-width:8.64"/>
	<circle cx="1568.78" cy="945.85" r="14.97" style="fill:none;stroke:#606060;stroke-width:8.64"/>
	<circle cx="1568.78" cy="945.85" r="14.97" style="fill:none;stroke:#606060;stroke-width:8.64"/>
	<circle cx="1568.78" cy="945.85" r="14.97" style="fill:none;stroke:#606060;stroke-width:8.64"/>
	<circle cx="1651.20" cy="298.87" r="14.97" style="fill:none;stroke:#606060;stroke-width:8.64"/>
	<circle cx="1651.20" cy="298.87" r="14.97" style="fill:none;stroke:#606060;stroke-width:8.64"/>
	<circle cx="1651.20" cy="945.85" r="14.97" style="fill:none;stroke:#606060;stroke-width:8.64"/>
	<circle cx="1651.20" cy="945.85" r="14.97" style="fill:none;stroke:#606060;stroke-width:8.64"/>
	<circle cx="1651.20" cy="945.85" r="14.97" style="fill:none;stroke:#606060;stroke-width:8.64"/>
	<circle cx="1651.20" cy="298.87" r="14.97" style="fill:none;stroke:#606060;stroke-width:8.64"/>
	<circle cx="1651.20" cy="945.85" r="14.97" style="fill:none;stroke:#606060;stroke-width:8.64"/>
	<circle cx="1651.20" cy="298.87" r="14.97" style="fill:none;stroke:#606060;stroke-width:8.64"/>
	<circle cx="1651.20" cy="945.85" r="14.97" style="fill:none;stroke:#606060;stroke-width:8.64"/>
	<circle cx="1651.20" cy="945.85" r="14.97" style="fill:none;stroke:#606060;stroke-width:8.64"/>
	<circle cx="1651.20" cy="298.87" r="14.97" style="fill:none;stroke:#606060;stroke-width:8.64"/>
	<circle cx="1651.20" cy="945.85" r="14.97" style="fill:none;stroke:#606060;stroke-width:8.64"/>
	<circle cx="1651.20" cy="298.87" r="14.97" style="fill:none;stroke:#606060;stroke-width:8.64"/>
	<circle cx="1651.20" cy="945.85" r="14.97" style="fill:none;stroke:#606060;stroke-width:8.64"/>
	<circle cx="1651.20" cy="945.85" r="14.97" style="fill:none;stroke:#606060;stroke-width:8.64"/>
	<circle cx="1733.74" cy="945.85" r="14.97" style="fill:none;stroke:#606060;stroke-width:8.64"/>
	<circle cx="1733.74" cy="945.85" r="14.97" style="fill:none;stroke:#606060;stroke-width:8.64"/>
	<circle cx="1733.74" cy="298.87" r="14.97" style="fill:none;stroke:#606060;stroke-width:8.64"/>
	<circle cx="1733.74" cy="945.85" r="14.97" style="fill:none;stroke:#606060;stroke-width:8.64"/>
	<circle cx="1733.74" cy="945.85" r="14.97" style="fill:none;stroke:#606060;stroke-width:8.64"/>
	<circle cx="1733.74" cy="945.85" r="14.97" style="fill:none;stroke:#606060;stroke-width:8.64"/>
	<circle cx="1733.74" cy="298.87" r="14.97" style="fill:none;stroke:#606060;stroke-width:8.64"/>
	<circle cx="1733.74" cy="298.87" r="14.97" style="fill:none;stroke:#606060;stroke-width:8.64"/>
	<circle cx="1733.74" cy="2326.08" r="14.97" style="fill:none;stroke:#606060;stroke-width:8.64"/>
	<circle cx="1733.74" cy="945.85" r="14.97" style="fill:none;stroke:#606060;stroke-width:8.64"/>
	<circle cx="1733.74" cy="945.85" r="14.97" style="fill:none;stroke:#606060;stroke-width:8.64"/>
	<circle cx="1733.74" cy="298.87" r="14.97" style="fill:none;stroke:#606060;stroke-width:8.64"/>
	<circle cx="1733.74" cy="2326.08" r="14.97" style="fill:none;stroke:#606060;stroke-width:8.64"/>
	<circle cx="1733.74" cy="945.85" r="14.97" style="fill:none;stroke:#606060;stroke-width:8.64"/>
	<circle cx="1816.15" cy="2326.08" r="14.97" style="fill:none;stroke:#606060;stroke-width:8.64"/>
	<circle cx="1816.15" cy="2326.08" r="14.97" style="fill:none;stroke:#606060;stroke-width:8.64"/>
	<circle cx="1816.15" cy="945.85" r="14.97" style="fill:none;stroke:#606060;stroke-width:8.64"/>
	<circle cx="1816.15" cy="945.85" r="14.97" style="fill:none;stroke:#606060;stroke-width:8.64"/>
	<circle cx="1816.15" cy="945.85" r="14.97" style="fill:none;stroke:#606060;stroke-width:8.64"/>
	<circle cx="1816.15" cy="945.85" r="14.97" style="fill:none;stroke:#606060;stroke-width:8.64"/>
	<circle cx="1816.15" cy="945.85" r="14.97" style="fill:none;stroke:#606060;stroke-width:8.64"/>
	<circle cx="1816.15" cy="298.87" r="14.97" style="fill:none;stroke:#606060;stroke-width:8.64"/>
	<circle cx="1816.15" cy="945.85" r="14.97" style="fill:none;stroke:#606060;stroke-width:8.64"/>
	<circle cx="1816.15" cy="298.87" r="14.97" style="fill:none;stroke:#606060;stroke-width:8.64"/>
	<circle cx="1816.15" cy="298.87" r="14.97" style="fill:none;stroke:#606060;stroke-width:8.64"/>
	<circle cx="1816.15" cy="945.85" r="14.97" style="fill:none;stroke:#606060;stroke-width:8.64"/>
	<circle cx="1816.15" cy="945.85" r="14.97" style="fill:none;stroke:#606060;stroke-width:8.64"/>
	<circle cx="1816.15" cy="945.85" r="14.97" style="fill:none;stroke:#606060;stroke-width:8.64"/>
	<circle cx="1898.70" cy="945.85" r="14.97" style="fill:none;stroke:#606060;stroke-width:8.64"/>
	<circle cx="1898.70" cy="945.85" r="14.97" style="fill:none;stroke:#606060;stroke-width:8.64"/>
	<circle cx="1898.70" cy="945.85" r="14.97" style="fill:none;stroke:#606060;stroke-width:8.64"/>
	<circle cx="1898.70" cy="945.85" r="14.97" style="fill:none;stroke:#606060;stroke-width:8.64"/>
	<circle cx="1898.70" cy="945.85" r="14.97" style="fill:none;stroke:#606060;stroke-width:8.64"/>
	<circle cx="1898.70" cy="945.85" r="14.97" style="fill:none;stroke:#606060;stroke-width:8.64"/>
	<circle cx="1898.70" cy="2326.08" r="14.97" style="fill:none;stroke:#606060;stroke-width:8.64"/>
	<circle cx="1898.70" cy="298.87" r="14.97" style="fill:none;stroke:#606060;stroke-width:8.64"/>
	<circle cx="1898.70" cy="945.85" r="14.97" style="fill:none;stroke:#606060;stroke-width:8.64"/>
	<circle cx="1898.70" cy="945.85" r="14.97" style="fill:none;stroke:#606060;stroke-width:8.64"/>
	<circle cx="1898.70" cy="945.85" r="14.97" style="fill:none;stroke:#606060;stroke-width:8.64"/>
	<circle cx="1898.70" cy="2326.08" r="14.97" style="fill:none;stroke:#606060;stroke-width:8.64"/>
	<circle cx="1898.70" cy="945.85" r="14.97" style="fill:none;stroke:#606060;stroke-width:8.64"/>
	<circle cx="1898.70" cy="945.85" r="14.97" style="fill:none;stroke:#606060;stroke-width:8.64"/>
	<circle cx="1898.70" cy="945.85" r="14.97" style="fill:none;stroke:#606060;stroke-width:8.64"/>
	<circle cx="1898.70" cy="298.87" r="14.97" style="fill:none;stroke:#606060;stroke-width:8.64"/>
	<circle cx="1898.70" cy="298.87" r="14.97" style="fill:none;stroke:#606060;stroke-width:8.64"/>
	<circle cx="1981.11" cy="945.85" r="14.97" style="fill:none;stroke:#606060;stroke-width:8.64"/>
	<circle cx="1981.11" cy="945.85" r="14.97" style="fill:none;stroke:#606060;stroke-width:8.64"/>
	<circle cx="1981.11" cy="945.85" r="14.97" style="fill:none;stroke:#606060;stroke-width:8.64"/>
	<circle cx="1981.11" cy="945.85" r="14.97" style="fill:none;stroke:#606060;stroke-width:8.64"/>
	<circle cx="1981.11" cy="945.85" r="14.97" style="fill:none;stroke:#606060;stroke-width:8.64"/>
	<circle cx="1981.11" cy="2326.08" r="14.97" style="fill:none;stroke:#606060;stroke-width:8.64"/>
	<circle cx="1981.11" cy="945.85" r="14.97" style="fill:none;stroke:#606060;stroke-width:8.64"/>
	<circle cx="1981.11" cy="945.85" r="14.97" style="fill:none;stroke:#606060;stroke-width:8.64"/>
	<circle cx="1981.11" cy="945.85" r="14.97" style="fill:none;stroke:#606060;stroke-width:8.64"/>
	<circle cx="1981.11" cy="945.85" r="14.97" style="fill:none;stroke:#606060;stroke-width:8.64"/>
	<circle cx="1981.11" cy="945.85" r="14.97" style="fill:none;stroke:#606060;stroke-width:8.64"/>
	<circle cx="1981.11" cy="298.87" r="14.97" style="fill:none;stroke:#606060;stroke-width:8.64"/>
	<circle cx="1981.11" cy="2326.08" r="14.97" style="fill:none;stroke:#606060;stroke-width:8.64"/>
	<circle cx="1981.11" cy="945.85" r="14.97" style="fill:none;stroke:#606060;stroke-width:8.64"/>
	<circle cx="1981.11" cy="945.85" r="14.97" style="fill:none;stroke:#606060;stroke-width:8.64"/>
	<circle cx="1981.11" cy="945.85" r="14.97" style="fill:none;stroke:#606060;stroke-width:8.64"/>
	<circle cx="1981.11" cy="945.85" r="14.97" style="fill:none;stroke:#606060;stroke-width:8.64"/>
	<circle cx="1981.11" cy="945.85" r="14.97" style="fill:none;stroke:#606060;stroke-width:8.64"/>
	<circle cx="1981.11" cy="945.85" r="14.97" style="fill:none;stroke:#606060;stroke-width:8.64"/>
	<circle cx="2063.66" cy="945.85" r="14.97" style="fill:none;stroke:#606060;stroke-width:8.64"/>
	<circle cx="2063.66" cy="298.87" r="14.97" style="fill:none;stroke:#606060;stroke-width:8.64"/>
	<circle cx="2063.66" cy="298.87" r="14.97" style="fill:none;stroke:#606060;stroke-width:8.64"/>
	<circle cx="2063.66" cy="945.85" r="14.97" style="fill:none;stroke:#606060;stroke-width:8.64"/>
	<circle cx="2063.66" cy="945.85" r="14.97" style="fill:none;stroke:#606060;stroke-width:8.64"/>
	<circle cx="2063.66" cy="945.85" r="14.97" style="fill:none;stroke:#606060;stroke-width:8.64"/>
	<circle cx="2063.66" cy="298.87" r="14.97" style="fill:none;stroke:#606060;stroke-width:8.64"/>
	<circle cx="2063.66" cy="298.87" r="14.97" style="fill:none;stroke:#606060;stroke-width:8.64"/>
	<circle cx="2063.66" cy="945.85" r="14.97" style="fill:none;stroke:#606060;stroke-width:8.64"/>
	<circle cx="2063.66" cy="945.85" r="14.97" style="fill:none;stroke:#606060;stroke-width:8.64"/>
	<circle cx="2063.66" cy="298.87" r="14.97" style="fill:none;stroke:#606060;stroke-width:8.64"/>
	<circle cx="2146.07" cy="2326.08" r="14.97" style="fill:none;stroke:#606060;stroke-width:8.64"/>
	<circle cx="2146.07" cy="945.85" r="14.97" style="fill:none;stroke:#606060;stroke-width:8.64"/>
	<circle cx="2146.07" cy="945.85" r="14.97" style="fill:none;stroke:#606060;stroke-width:8.64"/>
	<circle cx="2146.07" cy="945.85" r="14.97" style="fill:none;stroke:#606060;stroke-width:8.64"/>
	<circle cx="2146.07" cy="945.85" r="14.97" style="fill:none;stroke:#606060;stroke-width:8.64"/>
	<circle cx="2146.07" cy="945.85" r="14.97" style="fill:none;stroke:#606060;stroke-width:8.64"/>
	<circle cx="2146.07" cy="945.85" r="14.97" style="fill:none;stroke:#606060;stroke-width:8.64"/>
	<circle cx="2146.07" cy="945.85" r="14.97" style="fill:none;stroke:#606060;stroke-width:8.64"/>
	<circle cx="2146.07" cy="945.85" r="14.97" style="fill:none;stroke:#606060;stroke-width:8.64"/>
	<circle cx="2146.07" cy="945.85" r="14.97" style="fill:none;stroke:#606060;stroke-width:8.64"/>
	<circle cx="2146.07" cy="945.85" r="14.97" style="fill:none;stroke:#606060;stroke-width:8.64"/>
	<circle cx="2146.07" cy="298.87" r="14.97" style="fill:none;stroke:#606060;stroke-width:8.64"/>
	<circle cx="2146.07" cy="945.85" r="14.97" style="fill:none;stroke:#606060;stroke-width:8.64"/>
	<circle cx="2146.07" cy="945.85" r="14.97" style="fill:none;stroke:#606060;stroke-width:8.64"/>
	<circle cx="2228.61" cy="945.85" r="14.97" style="fill:none;stroke:#606060;stroke-width:8.64"/>
	<circle cx="2228.61" cy="2326.08" r="14.97" style="fill:none;stroke:#606060;stroke-width:8.64"/>
	<circle cx="2228.61" cy="945.85" r="14.97" style="fill:none;stroke:#606060;stroke-width:8.64"/>
	<circle cx="2228.61" cy="945.85" r="14.97" style="fill:none;stroke:#606060;stroke-width:8.64"/>
	<circle cx="2228.61" cy="945.85" r="14.97" style="fill:none;stroke:#606060;stroke-width:8.64"/>
	<circle cx="2228.61" cy="2326.08" r="14.97" style="fill:none;stroke:#606060;stroke-width:8.64"/>
	<circle cx="2228.61" cy="298.87" r="14.97" style="fill:none;stroke:#606060;stroke-width:8.64"/>
	<circle cx="2228.61" cy="945.85" r="14.97" style="fill:none;stroke:#606060;stroke-width:8.64"/>
	<circle cx="2228.61" cy="2326.08" r="14.97" style="fill:none;stroke:#606060;stroke-width:8.64"/>
	<circle cx="2228.61" cy="298.87" r="14.97" style="fill:none;stroke:#606060;stroke-width:8.64"/>
	<circle cx="2228.61" cy="945.85" r="14.97" style="fill:none;stroke:#606060;stroke-width:8.64"/>
	<circle cx="2228.61" cy="945.85" r="14.97" style="fill:none;stroke:#606060;stroke-width:8.64"/>
	<circle cx="2228.61" cy="945.85" r="14.97" style="fill:none;stroke:#606060;stroke-width:8.64"/>
	<circle cx="2228.61" cy="298.87" r="14.97" style="fill:none;stroke:#606060;stroke-width:8.64"/>
	<circle cx="2311.03" cy="945.85" r="14.97" style="fill:none;stroke:#606060;stroke-width:8.64"/>
	<circle cx="2311.03" cy="2326.08" r="14.97" style="fill:none;stroke:#606060;stroke-width:8.64"/>
	<circle cx="2311.03" cy="945.85" r="14.97" style="fill:none;stroke:#606060;stroke-width:8.64"/>
	<circle cx="2311.03" cy="945.85" r="14.97" style="fill:none;stroke:#606060;stroke-width:8.64"/>
	<circle cx="2311.03" cy="945.85" r="14.97" style="fill:none;stroke:#606060;stroke-width:8.64"/>
	<circle cx="2311.03" cy="945.85" r="14.97" style="fill:none;stroke:#606060;stroke-width:8.64"/>
	<circle cx="2311.03" cy="945.85" r="14.97" style="fill:none;stroke:#606060;stroke-width:8.64"/>
	<circle cx="2311.03" cy="945.85" r="14.97" style="fill:none;stroke:#606060;stroke-width:8.64"/>
	<circle cx="2311.03" cy="945.85" r="14.97" style="fill:none;stroke:#606060;stroke-width:8.64"/>
	<circle cx="2393.57" cy="945.85" r="14.97" style="fill:none;stroke:#606060;stroke-width:8.64"/>
	<circle cx="2393.57" cy="945.85" r="14.97" style="fill:none;stroke:#606060;stroke-width:8.64"/>
	<circle cx="2393.57" cy="945.85" r="14.97" style="fill:none;stroke:#606060;stroke-width:8.64"/>
	<circle cx="2393.57" cy="945.85" r="14.97" style="fill:none;stroke:#606060;stroke-width:8.64"/>
	<circle cx="2393.57" cy="945.85" r="14.97" style="fill:none;stroke:#606060;stroke-width:8.64"/>
	<circle cx="2393.57" cy="298.87" r="14.97" style="fill:none;stroke:#606060;stroke-width:8.64"/>
	<circle cx="2393.57" cy="298.87" r="14.97" style="fill:none;stroke:#606060;stroke-width:8.64"/>
	<circle cx="2475.99" cy="945.85" r="14.97" style="fill:none;stroke:#606060;stroke-width:8.64"/>
	<circle cx="2475.99" cy="2326.08" r="14.97" style="fill:none;stroke:#606060;stroke-width:8.64"/>
	<circle cx="2475.99" cy="945.85" r="14.97" style="fill:none;stroke:#606060;stroke-width:8.64"/>
	<circle cx="2475.99" cy="945.85" r="14.97" style="fill:none;stroke:#606060;stroke-width:8.64"/>
	<circle cx="2475.99" cy="945.85" r="14.97" style="fill:none;stroke:#606060;stroke-width:8.64"/>
	<circle cx="2475.99" cy="945.85" r="14.97" style="fill:none;stroke:#606060;stroke-width:8.64"/>
	<circle cx="2475.99" cy="945.85" r="14.97" style="fill:none;stroke:#606060;stroke-width:8.64"/>
	<circle cx="2475.99" cy="298.74" r="14.97" style="fill:none;stroke:#606060;stroke-width:8.64"/>
	<circle cx="2475.99" cy="945.85" r="14.97" style="fill:none;stroke:#606060;stroke-width:8.64"/>
	<circle cx="2475.99" cy="945.85" r="14.97" style="fill:none;stroke:#606060;stroke-width:8.64"/>
	<circle cx="2475.99" cy="945.85" r="14.97" style="fill:none;stroke:#606060;stroke-width:8.64"/>
	<circle cx="2558.53" cy="945.73" r="14.97" style="fill:none;stroke:#606060;stroke-width:8.64"/>
	<circle cx="2558.53" cy="945.73" r="14.97" style="fill:none;stroke:#606060;stroke-width:8.64"/>
	<circle cx="2558.53" cy="945.73" r="14.97" style="fill:none;stroke:#606060;stroke-width:8.64"/>
	<circle cx="2558.53" cy="945.73" r="14.97" style="fill:none;stroke:#606060;stroke-width:8.64"/>
	<circle cx="2558.53" cy="298.74" r="14.97" style="fill:none;stroke:#606060;stroke-width:8.64"/>
	<circle cx="2558.53" cy="298.74" r="14.97" style="fill:none;stroke:#606060;stroke-width:8.64"/>
	<circle cx="2558.53" cy="945.73" r="14.97" style="fill:none;stroke:#606060;stroke-width:8.64"/>
	<circle cx="2558.53" cy="298.74" r="14.97" style="fill:none;stroke:#606060;stroke-width:8.64"/>
	<circle cx="2558.53" cy="945.73" r="14.97" style="fill:none;stroke:#606060;stroke-width:8.64"/>
	<circle cx="2640.95" cy="298.74" r="14.97" style="fill:none;stroke:#606060;stroke-width:8.64"/>
	<circle cx="2640.95" cy="945.73" r="14.97" style="fill:none;stroke:#606060;stroke-width:8.64"/>
	<circle cx="2640.95" cy="298.74" r="14.97" style="fill:none;stroke:#606060;stroke-width:8.64"/>
	<circle cx="2640.95" cy="945.73" r="14.97" style="fill:none;stroke:#606060;stroke-width:8.64"/>
	<circle cx="2640.95" cy="298.74" r="14.97" style="fill:none;stroke:#606060;stroke-width:8.64"/>
	<circle cx="2640.95" cy="945.73" r="14.97" style="fill:none;stroke:#606060;stroke-width:8.64"/>
	<circle cx="2640.95" cy="2326.08" r="14.97" style="fill:none;stroke:#606060;stroke-width:8.64"/>
	<circle cx="2640.95" cy="945.73" r="14.97" style="fill:none;stroke:#606060;stroke-width:8.64"/>
	<circle cx="2640.95" cy="945.73" r="14.97" style="fill:none;stroke:#606060;stroke-width:8.64"/>
	<circle cx="2640.95" cy="945.73" r="14.97" style="fill:none;stroke:#606060;stroke-width:8.64"/>
	<circle cx="2640.95" cy="945.73" r="14.97" style="fill:none;stroke:#606060;stroke-width:8.64"/>
	<circle cx="2640.95" cy="945.73" r="14.97" style="fill:none;stroke:#606060;stroke-width:8.64"/>
	<circle cx="2723.49" cy="945.73" r="14.97" style="fill:none;stroke:#606060;stroke-width:8.64"/>
	<circle cx="2723.49" cy="945.73" r="14.97" style="fill:none;stroke:#606060;stroke-width:8.64"/>
	<circle cx="2723.49" cy="945.73" r="14.97" style="fill:none;stroke:#606060;stroke-width:8.64"/>
	<circle cx="2723.49" cy="945.73" r="14.97" style="fill:none;stroke:#606060;stroke-width:8.64"/>
	<circle cx="2723.49" cy="945.73" r="14.97" style="fill:none;stroke:#606060;stroke-width:8.64"/>
	<circle cx="2723.49" cy="945.73" r="14.97" style="fill:none;stroke:#606060;stroke-width:8.64"/>
	<circle cx="2723.49" cy="945.73" r="14.97" style="fill:none;stroke:#606060;stroke-width:8.64"/>
	<circle cx="2723.49" cy="945.73" r="14.97" style="fill:none;stroke:#606060;stroke-width:8.64"/>
	<circle cx="2723.49" cy="2326.08" r="14.97" style="fill:none;stroke:#606060;stroke-width:8.64"/>
	<circle cx="2723.49" cy="945.73" r="14.97" style="fill:none;stroke:#606060;stroke-width:8.64"/>
	<circle cx="2723.49" cy="298.74" r="14.97" style="fill:none;stroke:#606060;stroke-width:8.64"/>
	<circle cx="2723.49" cy="298.74" r="14.97" style="fill:none;stroke:#606060;stroke-width:8.64"/>
	<circle cx="2723.49" cy="945.73" r="14.97" style="fill:none;stroke:#606060;stroke-width:8.64"/>
	<circle cx="2805.91" cy="298.74" r="14.97" style="fill:none;stroke:#606060;stroke-width:8.64"/>
	<circle cx="2805.91" cy="945.73" r="14.97" style="fill:none;stroke:#606060;stroke-width:8.64"/>
	<circle cx="2805.91" cy="298.74" r="14.97" style="fill:none;stroke:#606060;stroke-width:8.64"/>
	<circle cx="2805.91" cy="945.73" r="14.97" style="fill:none;stroke:#606060;stroke-width:8.64"/>
	<circle cx="2805.91" cy="298.74" r="14.97" style="fill:none;stroke:#606060;stroke-width:8.64"/>
	<circle cx="2888.45" cy="2326.08" r="14.97" style="fill:none;stroke:#606060;stroke-width:8.64"/>
	<circle cx="2888.45" cy="945.73" r="14.97" style="fill:none;stroke:#606060;stroke-width:8.64"/>
	<circle cx="2888.45" cy="945.73" r="14.97" style="fill:none;stroke:#606060;stroke-width:8.64"/>
	<circle cx="2888.45" cy="945.73" r="14.97" style="fill:none;stroke:#606060;stroke-width:8.64"/>
	<circle cx="2888.45" cy="298.74" r="14.97" style="fill:none;stroke:#606060;stroke-width:8.64"/>
	<circle cx="2888.45" cy="945.73" r="14.97" style="fill:none;stroke:#606060;stroke-width:8.64"/>
	<circle cx="2888.45" cy="945.73" r="14.97" style="fill:none;stroke:#606060;stroke-width:8.64"/>
	<circle cx="2970.87" cy="945.73" r="14.97" style="fill:none;stroke:#606060;stroke-width:8.64"/>
	<circle cx="2970.87" cy="945.73" r="14.97" style="fill:none;stroke:#606060;stroke-width:8.64"/>
	<circle cx="2970.87" cy="945.73" r="14.97" style="fill:none;stroke:#606060;stroke-width:8.64"/>
	<circle cx="2970.87" cy="945.73" r="14.97" style="fill:none;stroke:#606060;stroke-width:8.64"/>
	<circle cx="2970.87" cy="945.73" r="14.97" style="fill:none;stroke:#606060;stroke-width:8.64"/>
	<circle cx="2970.87" cy="298.74" r="14.97" style="fill:none;stroke:#606060;stroke-width:8.64"/>
	<circle cx="3053.41" cy="945.73" r="14.97" style="fill:none;stroke:#606060;stroke-width:8.64"/>
	<circle cx="3053.41" cy="945.73" r="14.97" style="fill:none;stroke:#606060;stroke-width:8.64"/>
	<circle cx="3053.41" cy="945.73" r="14.97" style="fill:none;stroke:#606060;stroke-width:8.64"/>
	<circle cx="3053.41" cy="945.73" r="14.97" style="fill:none;stroke:#606060;stroke-width:8.64"/>
	<circle cx="3053.41" cy="298.74" r="14.97" style="fill:none;stroke:#606060;stroke-width:8.64"/>
	<circle cx="3053.41" cy="945.73" r="14.97" style="fill:none;stroke:#606060;stroke-width:8.64"/>
	<circle cx="3053.41" cy="945.73" r="14.97" style="fill:none;stroke:#606060;stroke-width:8.64"/>
	<circle cx="3053.41" cy="945.73" r="14.97" style="fill:none;stroke:#606060;stroke-width:8.64"/>
	<circle cx="3053.41" cy="2325.95" r="14.97" style="fill:none;stroke:#606060;stroke-width:8.64"/>
	<circle cx="3053.41" cy="945.73" r="14.97" style="fill:none;stroke:#606060;stroke-width:8.64"/>
	<circle cx="3053.41" cy="298.74" r="14.97" style="fill:none;stroke:#606060;stroke-width:8.64"/>
	<circle cx="3053.41" cy="298.74" r="14.97" style="fill:none;stroke:#606060;stroke-width:8.64"/>
	<circle cx="3135.82" cy="945.73" r="14.97" style="fill:none;stroke:#606060;stroke-width:8.64"/>
	<circle cx="3218.37" cy="945.73" r="14.97" style="fill:none;stroke:#606060;stroke-width:8.64"/>
	<circle cx="3218.37" cy="945.73" r="14.97" style="fill:none;stroke:#606060;stroke-width:8.64"/>
	<circle cx="3218.37" cy="945.73" r="14.97" style="fill:none;stroke:#606060;stroke-width:8.64"/>
	<circle cx="3218.37" cy="945.73" r="14.97" style="fill:none;stroke:#606060;stroke-width:8.64"/>
	<circle cx="3218.37" cy="945.73" r="14.97" style="fill:none;stroke:#606060;stroke-width:8.64"/>
	<circle cx="3218.37" cy="2325.95" r="14.97" style="fill:none;stroke:#606060;stroke-width:8.64"/>
	<path d=" M414.07 933.72 L496.49 933.85 L579.03 928.90 L579.03 939.54 L661.44 939.66 L661.44 950.06 L661.44 960.33 L661.44 960.21 L661.44 960.08 L661.44 959.96 L743.99 959.96 L743.99 959.83 L743.99 955.13 L743.99 955.01 L743.99 950.43 L826.40 945.85 L826.40 945.85 L826.40 945.85 L826.40 945.85 L826.40 945.85 L908.94 945.85 L908.94 945.85 L908.94 945.85 L908.94 945.85 L908.94 945.85 L908.94 954.88 L991.36 950.55 L991.36 950.55 L991.36 950.55 L991.36 950.55 L991.36 959.22 L1073.90 959.09 L1073.90 959.09 L1073.90 958.97 L1073.90 954.88 L1073.90 950.92 L1156.32 950.80 L1156.32 950.80 L1156.32 950.80 L1156.32 950.80 L1156.32 950.68 L1156.32 958.84 L1156.32 958.72 L1156.32 958.72 L1156.32 958.60 L1156.32 958.60 L1156.32 958.47 L1156.32 954.76 L1156.32 962.56 L1156.32 962.43 L1156.32 962.31 L1238.86 962.19 L1238.86 962.19 L1238.86 962.06 L1238.86 961.94 L1238.86 961.82 L1238.86 958.23 L1238.86 954.64 L1238.86 954.64 L1238.86 954.64 L1321.28 954.51 L1321.28 951.05 L1321.28 947.71 L1321.28 947.58 L1321.28 947.58 L1321.28 944.24 L1321.28 951.42 L1321.28 951.42 L1403.82 951.30 L1403.82 951.30 L1403.82 951.30 L1403.82 951.30 L1403.82 951.17 L1403.82 951.17 L1403.82 951.17 L1403.82 951.17 L1403.82 951.17 L1403.82 947.95 L1403.82 947.95 L1403.82 947.95 L1403.82 947.95 L1486.24 954.51 L1486.24 954.51 L1486.24 954.39 L1486.24 954.39 L1486.24 960.83 L1486.24 957.73 L1486.24 957.73 L1486.24 964.04 L1486.24 960.95 L1568.78 960.83 L1568.78 960.83 L1568.78 960.70 L1568.78 957.73 L1568.78 957.73 L1568.78 963.80 L1568.78 963.80 L1568.78 963.67 L1568.78 963.55 L1568.78 963.55 L1568.78 963.42 L1568.78 963.30 L1568.78 963.30 L1651.20 963.18 L1651.20 963.18 L1651.20 963.05 L1651.20 962.93 L1651.20 962.93 L1651.20 960.08 L1651.20 957.24 L1651.20 957.24 L1651.20 962.93 L1651.20 962.93 L1651.20 962.81 L1651.20 962.81 L1651.20 962.68 L1651.20 962.68 L1651.20 959.96 L1733.74 959.83 L1733.74 959.83 L1733.74 959.71 L1733.74 959.71 L1733.74 959.59 L1733.74 959.59 L1733.74 959.46 L1733.74 956.86 L1733.74 954.27 L1733.74 954.27 L1733.74 954.27 L1733.74 956.86 L1733.74 954.27 L1733.74 954.27 L1816.15 951.79 L1816.15 951.79 L1816.15 949.19 L1816.15 943.75 L1816.15 949.19 L1816.15 949.19 L1816.15 949.19 L1816.15 943.75 L1816.15 946.35 L1816.15 940.90 L1816.15 940.90 L1816.15 943.50 L1816.15 943.50 L1816.15 943.50 L1898.70 945.97 L1898.70 948.57 L1898.70 948.57 L1898.70 951.05 L1898.70 956.49 L1898.70 956.49 L1898.70 956.49 L1898.70 953.89 L1898.70 948.57 L1898.70 945.97 L1898.70 945.97 L1898.70 943.50 L1898.70 945.97 L1898.70 945.97 L1898.70 945.97 L1898.70 948.57 L1898.70 948.57 L1981.11 948.57 L1981.11 945.97 L1981.11 945.97 L1981.11 945.97 L1981.11 945.97 L1981.11 945.97 L1981.11 945.97 L1981.11 948.57 L1981.11 948.57 L1981.11 945.97 L1981.11 945.97 L1981.11 945.97 L1981.11 940.53 L1981.11 940.53 L1981.11 938.05 L1981.11 938.05 L1981.11 938.05 L1981.11 938.05 L1981.11 943.50 L2063.66 943.50 L2063.66 935.46 L2063.66 935.46 L2063.66 930.13 L2063.66 930.13 L2063.66 930.13 L2063.66 930.13 L2063.66 924.69 L2063.66 927.16 L2063.66 932.61 L2063.66 927.16 L2146.07 927.04 L2146.07 927.04 L2146.07 926.92 L2146.07 926.79 L2146.07 926.79 L2146.07 929.27 L2146.07 929.27 L2146.07 929.14 L2146.07 929.14 L2146.07 929.02 L2146.07 928.90 L2146.07 928.90 L2146.07 931.50 L2146.07 931.37 L2228.61 931.37 L2228.61 931.25 L2228.61 931.25 L2228.61 931.25 L2228.61 931.12 L2228.61 931.00 L2228.61 931.00 L2228.61 930.88 L2228.61 930.88 L2228.61 930.75 L2228.61 933.60 L2228.61 933.48 L2228.61 933.48 L2228.61 933.35 L2311.03 936.20 L2311.03 936.20 L2311.03 936.07 L2311.03 936.07 L2311.03 929.76 L2311.03 929.76 L2311.03 932.61 L2311.03 932.61 L2311.03 932.49 L2393.57 932.49 L2393.57 935.33 L2393.57 938.30 L2393.57 938.30 L2393.57 938.30 L2393.57 938.30 L2393.57 941.27 L2475.99 941.27 L2475.99 944.37 L2475.99 944.37 L2475.99 944.37 L2475.99 947.46 L2475.99 947.46 L2475.99 950.68 L2475.99 950.68 L2475.99 950.68 L2475.99 950.80 L2475.99 950.80 L2558.53 954.02 L2558.53 954.14 L2558.53 954.14 L2558.53 954.27 L2558.53 957.61 L2558.53 960.95 L2558.53 953.89 L2558.53 953.89 L2558.53 954.02 L2640.95 957.48 L2640.95 950.18 L2640.95 950.18 L2640.95 942.76 L2640.95 935.33 L2640.95 935.21 L2640.95 935.21 L2640.95 935.08 L2640.95 935.08 L2640.95 934.96 L2640.95 938.55 L2640.95 938.55 L2723.49 942.14 L2723.49 945.85 L2723.49 945.85 L2723.49 945.85 L2723.49 945.85 L2723.49 945.85 L2723.49 945.85 L2723.49 945.85 L2723.49 945.85 L2723.49 945.85 L2723.49 945.85 L2723.49 937.44 L2723.49 941.40 L2805.91 941.27 L2805.91 941.27 L2805.91 941.27 L2805.91 932.61 L2805.91 932.61 L2888.45 932.49 L2888.45 932.36 L2888.45 936.45 L2888.45 940.53 L2888.45 940.53 L2888.45 940.53 L2888.45 940.41 L2970.87 940.41 L2970.87 940.41 L2970.87 931.12 L2970.87 931.00 L2970.87 930.88 L2970.87 930.88 L3053.41 930.75 L3053.41 930.63 L3053.41 934.96 L3053.41 925.31 L3053.41 925.18 L3053.41 924.94 L3053.41 924.81 L3053.41 924.69 L3053.41 924.57 L3053.41 924.44 L3053.41 924.19 L3053.41 928.90 L3135.82 933.60 L3218.37 933.48 L3218.37 933.35 L3218.37 933.23 L3218.37 938.18 L3218.37 943.13 L3218.37 943.13" stroke-linejoin="round" style="fill:none;stroke:#000000;stroke-width:8.64"/>
	<line x1="350.71" y1="2414.69" x2="350.71" y2="235.38" style="stroke:#000000;stroke-width:5.76"/>
	<line x1="350.71" y1="2351.32" x2="310.74" y2="2351.32" style="stroke:#000000;stroke-width:5.76"/>
	<text x="266.64" y="2351.32" style="font-family:'Helvetica';font-size:79.94px;fill:#000000" transform="rotate(-90 266.64,2351.32)" text-anchor="middle">-10</text>
	<line x1="350.71" y1="1702.36" x2="310.74" y2="1702.36" style="stroke:#000000;stroke-width:5.76"/>
	<text x="266.64" y="1702.36" style="font-family:'Helvetica';font-size:79.94px;fill:#000000" transform="rotate(-90 266.64,1702.36)" text-anchor="middle">-5</text>
	<line x1="350.71" y1="1053.27" x2="310.74" y2="1053.27" style="stroke:#000000;stroke-width:5.76"/>
	<text x="266.64" y="1053.27" style="font-family:'Helvetica';font-size:79.94px;fill:#000000" transform="rotate(-90 266.64,1053.27)" text-anchor="middle">0</text>
	<line x1="350.71" y1="404.30" x2="310.74" y2="404.30" style="stroke:#000000;stroke-width:5.76"/>
	<text x="266.64" y="404.30" style="font-family:'Helvetica';font-size:79.94px;fill:#000000" transform="rotate(-90 266.64,404.30)" text-anchor="middle">5</text>
	<text x="176.68" y="1325.03" style="font-family:'Helvetica';font-size:79.94px;fill:#000000" transform="rotate(-90 176.68,1325.03)" text-anchor="middle">Scaled Shoenfeld Residuals</text>
	<line x1="350.71" y1="2414.69" x2="3859.02" y2="2414.69" style="stroke:#000000;stroke-width:5.76"/>
	<line x1="496.61" y1="2414.69" x2="496.61" y2="2454.66" style="stroke:#000000;stroke-width:5.76"/>
	<text x="496.61" y="2530.61" style="font-family:'Helvetica';font-size:79.94px;fill:#000000" text-anchor="middle">20</text>
	<line x1="1321.40" y1="2414.69" x2="1321.40" y2="2454.66" style="stroke:#000000;stroke-width:5.76"/>
	<text x="1321.40" y="2530.61" style="font-family:'Helvetica';font-size:79.94px;fill:#000000" text-anchor="middle">30</text>
	<line x1="2146.20" y1="2414.69" x2="2146.20" y2="2454.66" style="stroke:#000000;stroke-width:5.76"/>
	<text x="2146.20" y="2530.61" style="font-family:'Helvetica';font-size:79.94px;fill:#000000" text-anchor="middle">40</text>
	<line x1="2970.99" y1="2414.69" x2="2970.99" y2="2454.66" style="stroke:#000000;stroke-width:5.76"/>
	<text x="2970.99" y="2530.61" style="font-family:'Helvetica';font-size:79.94px;fill:#000000" text-anchor="middle">50</text>
	<line x1="3795.66" y1="2414.69" x2="3795.66" y2="2454.66" style="stroke:#000000;stroke-width:5.76"/>
	<text x="3795.66" y="2530.61" style="font-family:'Helvetica';font-size:79.94px;fill:#000000" text-anchor="middle">60</text>
	<text x="2104.86" y="2620.57" style="font-family:'Helvetica';font-size:79.94px;fill:#000000" text-anchor="middle">Time</text>
	<text x="368.03" y="2737.89" style="font-family:'Helvetica';font-size:79.94px;fill:#000000">bandwidth = .8</text>
	<text x="368.03" y="187.99" style="font-family:'Helvetica';font-size:99.99px;fill:#000000">Schoenfeld residuals against time, univariable ICS (High Dose)</text>
</svg>
