<?xml version="1.0" encoding="UTF-8" standalone="no"?>
<!-- This is a Stata 16.1 generated SVG file (http://www.stata.com) -->

<svg version="1.1" width="5.50in" height="4.00in" viewBox="0 0 3960 2880" xmlns="http://www.w3.org/2000/svg" xmlns:xlink="http://www.w3.org/1999/xlink">
	<desc>Stata Graph - Graph</desc>
	<rect x="0" y="0" width="3960" height="2880" style="fill:#EAF2F3;stroke:none"/>
	<rect x="0.00" y="0.00" width="3959.88" height="2880.00" style="fill:#FFFFFF"/>
	<rect x="2.88" y="2.88" width="3954.12" height="2874.24" style="fill:none;stroke:#EAF2F3;stroke-width:5.76"/>
	<rect x="524.08" y="100.86" width="3334.94" height="2388.33" style="fill:#FFFFFF"/>
	<rect x="526.96" y="103.74" width="3329.18" height="2382.57" style="fill:none;stroke:#FFFFFF;stroke-width:5.76"/>
	<line x1="524.08" y1="2425.82" x2="3859.02" y2="2425.82" style="stroke:#EAF2F3;stroke-width:8.64"/>
	<line x1="524.08" y1="1973.50" x2="3859.02" y2="1973.50" style="stroke:#EAF2F3;stroke-width:8.64"/>
	<line x1="524.08" y1="1521.18" x2="3859.02" y2="1521.18" style="stroke:#EAF2F3;stroke-width:8.64"/>
	<line x1="524.08" y1="1068.86" x2="3859.02" y2="1068.86" style="stroke:#EAF2F3;stroke-width:8.64"/>
	<line x1="524.08" y1="616.54" x2="3859.02" y2="616.54" style="stroke:#EAF2F3;stroke-width:8.64"/>
	<defs>
		<path id="path_RHzQJiRY" d="M627.54 2425.82 L627.54 2425.82 L667.63 2425.82 L707.73 2425.82 L747.82 2425.82 L788.04 2425.82 L828.13 2425.82 L868.23 2425.82 L908.33 2425.82 L948.42 2425.82 L988.51 2425.82 L1028.61 2425.82 L1068.70 2425.82 L1108.80 2425.82 L1148.89 2425.70 L1188.99 2425.58 L1229.09 2425.20 L1269.18 2424.71 L1309.28 2423.97 L1349.37 2422.73 L1389.59 2421.00 L1429.68 2418.40 L1469.78 2414.69 L1509.87 2409.86 L1549.97 2403.42 L1590.06 2395.26 L1630.16 2385.11 L1670.25 2372.98 L1710.35 2358.75 L1750.44 2342.54 L1790.54 2324.22 L1830.63 2304.05 L1870.73 2282.27 L1910.82 2259.00 L1950.92 2234.50 L1991.14 2209.13 L2031.23 2183.14 L2071.33 2156.78 L2111.42 2130.42 L2151.52 2104.43 L2191.61 2078.69 L2231.71 2053.57 L2271.80 2029.19 L2311.90 2005.56 L2351.99 1982.91 L2392.09 1961.00 L2432.18 1939.97 L2472.28 1919.79 L2512.37 1900.36 L2552.47 1881.68 L2592.69 1863.61 L2632.78 1846.16 L2672.88 1829.45 L2712.97 1813.12 L2753.07 1797.52 L2793.16 1782.30 L2833.26 1767.45 L2873.35 1753.22 L2913.45 1739.24 L2953.54 1725.62 L2993.64 1712.26 L3033.73 1699.26 L3073.83 1686.39 L3113.92 1673.77 L3154.02 1661.40 L3194.24 1649.02 L3234.33 1636.77 L3234.33 1217.61 L3194.24 1236.30 L3154.02 1254.86 L3113.92 1273.55 L3073.83 1292.36 L3033.73 1311.30 L2993.64 1330.48 L2953.54 1349.91 L2913.45 1369.83 L2873.35 1390.13 L2833.26 1411.04 L2793.16 1432.57 L2753.07 1454.73 L2712.97 1477.74 L2672.88 1501.63 L2632.78 1526.50 L2592.69 1552.24 L2552.47 1578.98 L2512.37 1606.94 L2472.28 1635.78 L2432.18 1665.85 L2392.09 1696.91 L2351.99 1729.21 L2311.90 1762.63 L2271.80 1797.15 L2231.71 1832.79 L2191.61 1869.67 L2151.52 1907.54 L2111.42 1946.40 L2071.33 1986.00 L2031.23 2026.10 L1991.14 2066.07 L1950.92 2105.18 L1910.82 2143.05 L1870.73 2179.06 L1830.63 2212.60 L1790.54 2243.53 L1750.44 2271.75 L1710.35 2296.87 L1670.25 2319.02 L1630.16 2338.45 L1590.06 2355.16 L1549.97 2369.39 L1509.87 2381.27 L1469.78 2391.30 L1429.68 2399.34 L1389.59 2405.90 L1349.37 2411.10 L1309.28 2415.18 L1269.18 2418.27 L1229.09 2420.63 L1188.99 2422.36 L1148.89 2423.47 L1108.80 2424.34 L1068.70 2424.96 L1028.61 2425.33 L988.51 2425.58 L948.42 2425.70 L908.33 2425.82 L868.23 2425.82 L828.13 2425.82 L788.04 2425.82 L747.82 2425.82 L707.73 2425.82 L667.63 2425.82 L627.54 2425.82 L627.54 2425.82 Z" stroke-linejoin="round"/>
	</defs>
	<defs>
		<clipPath id="clipPath_BGqZitTv">
			<use xlink:href="#path_RHzQJiRY"/>
		</clipPath>
	</defs>
	<use xlink:href="#path_RHzQJiRY" style="stroke:none;fill:#3333FF;fill-opacity:0.25"/>
	<use xlink:href="#path_RHzQJiRY" style="fill:none;stroke:#0000FF;stroke-opacity:0.25;stroke-width:17.28" clip-path="url(#clipPath_BGqZitTv)"/>
	<defs>
		<path id="path_dwhFJzVq" d="M627.54 2425.82 L627.54 2425.82 L667.63 2425.82 L707.73 2425.82 L747.82 2425.82 L788.04 2425.82 L828.13 2425.82 L868.23 2425.82 L908.33 2425.82 L948.42 2425.82 L988.51 2425.82 L1028.61 2425.82 L1068.70 2425.82 L1108.80 2425.70 L1148.89 2425.58 L1188.99 2425.33 L1229.09 2424.96 L1269.18 2424.21 L1309.28 2423.10 L1349.37 2421.37 L1389.59 2418.65 L1429.68 2414.81 L1469.78 2409.36 L1509.87 2402.06 L1549.97 2392.29 L1590.06 2379.91 L1630.16 2364.57 L1670.25 2345.88 L1710.35 2323.97 L1750.44 2298.60 L1790.54 2270.14 L1830.63 2238.58 L1870.73 2204.30 L1910.82 2167.80 L1950.92 2129.31 L1991.14 2089.34 L2031.23 2048.25 L2071.33 2006.67 L2111.42 1964.84 L2151.52 1923.26 L2191.61 1882.17 L2231.71 1841.83 L2271.80 1802.72 L2311.90 1764.73 L2351.99 1728.10 L2392.09 1692.95 L2432.18 1659.17 L2472.28 1626.87 L2512.37 1595.68 L2552.47 1565.61 L2592.69 1536.65 L2632.78 1508.68 L2672.88 1481.71 L2712.97 1455.47 L2753.07 1430.22 L2793.16 1405.60 L2833.26 1381.71 L2873.35 1358.45 L2913.45 1335.80 L2953.54 1313.77 L2993.64 1292.24 L3033.73 1271.20 L3073.83 1250.53 L3113.92 1230.36 L3154.02 1210.31 L3194.24 1190.76 L3234.33 1171.21 L3234.33 862.69 L3194.24 886.82 L3154.02 910.70 L3113.92 934.59 L3073.83 958.60 L3033.73 982.73 L2993.64 1006.99 L2953.54 1031.61 L2913.45 1056.73 L2873.35 1082.48 L2833.26 1108.96 L2793.16 1136.18 L2753.07 1164.28 L2712.97 1193.48 L2672.88 1223.80 L2632.78 1255.36 L2592.69 1288.28 L2552.47 1322.56 L2512.37 1358.20 L2472.28 1395.32 L2432.18 1433.69 L2392.09 1473.54 L2351.99 1514.62 L2311.90 1557.19 L2271.80 1601.25 L2231.71 1646.79 L2191.61 1693.94 L2151.52 1742.58 L2111.42 1792.57 L2071.33 1843.81 L2031.23 1895.91 L1991.14 1948.01 L1950.92 1999.12 L1910.82 2048.62 L1870.73 2095.77 L1830.63 2139.83 L1790.54 2180.42 L1750.44 2217.42 L1710.35 2250.59 L1670.25 2280.17 L1630.16 2306.03 L1590.06 2328.43 L1549.97 2347.73 L1509.87 2363.95 L1469.78 2377.68 L1429.68 2388.82 L1389.59 2397.98 L1349.37 2405.16 L1309.28 2410.85 L1269.18 2415.18 L1229.09 2418.40 L1188.99 2420.87 L1148.89 2422.48 L1108.80 2423.72 L1068.70 2424.59 L1028.61 2425.08 L988.51 2425.45 L948.42 2425.58 L908.33 2425.70 L868.23 2425.82 L828.13 2425.82 L788.04 2425.82 L747.82 2425.82 L707.73 2425.82 L667.63 2425.82 L627.54 2425.82 L627.54 2425.82 Z" stroke-linejoin="round"/>
	</defs>
	<defs>
		<clipPath id="clipPath_MXmaTXAT">
			<use xlink:href="#path_dwhFJzVq"/>
		</clipPath>
	</defs>
	<use xlink:href="#path_dwhFJzVq" style="stroke:none;fill:#FF3333;fill-opacity:0.25"/>
	<use xlink:href="#path_dwhFJzVq" style="fill:none;stroke:#FF0000;stroke-opacity:0.25;stroke-width:17.28" clip-path="url(#clipPath_MXmaTXAT)"/>
	<path d=" M587.44 2425.95 L627.54 2425.95 L667.63 2425.95 L707.73 2425.95 L747.82 2425.95 L787.92 2425.95 L828.01 2425.95 L868.11 2425.95 L908.20 2425.95 L948.30 2425.95 L988.39 2425.82 L1028.49 2425.82 L1068.70 2425.70 L1108.80 2425.58 L1148.89 2425.33 L1188.99 2424.83 L1229.09 2424.09 L1269.18 2423.10 L1309.28 2421.49 L1349.37 2419.14 L1389.46 2416.05 L1429.56 2411.84 L1469.65 2406.27 L1509.75 2399.22 L1549.85 2390.31 L1589.94 2379.42 L1630.04 2366.30 L1670.13 2350.83 L1710.35 2332.88 L1750.44 2312.59 L1790.54 2289.82 L1830.63 2264.82 L1870.73 2237.59 L1910.82 2208.64 L1950.92 2178.19 L1991.01 2146.63 L2031.11 2114.46 L2071.20 2081.91 L2111.30 2049.61 L2151.39 2017.68 L2191.49 1986.50 L2231.58 1956.05 L2271.68 1926.48 L2311.90 1898.01 L2351.99 1870.42 L2392.09 1843.81 L2432.18 1818.19 L2472.28 1793.56 L2512.37 1769.93 L2552.47 1747.03 L2592.56 1725.01 L2632.66 1703.84 L2672.75 1683.42 L2712.85 1663.75 L2752.94 1644.81 L2793.04 1626.37 L2833.13 1608.55 L2873.23 1591.23 L2913.45 1574.40 L2953.54 1557.94 L2993.64 1541.85 L3033.73 1526.01 L3073.83 1510.42 L3113.92 1495.07 L3154.02 1479.85 L3194.11 1464.63 L3234.21 1449.53" stroke-linejoin="round" style="fill:none;stroke:#0000FF;stroke-width:8.64"/>
	<path d=" M587.44 2425.95 L627.54 2425.95 L667.63 2425.95 L707.73 2425.95 L747.82 2425.95 L787.92 2425.95 L828.01 2425.95 L868.11 2425.95 L908.20 2425.95 L948.30 2425.82 L988.39 2425.82 L1028.49 2425.82 L1068.70 2425.70 L1108.80 2425.45 L1148.89 2424.96 L1188.99 2424.34 L1229.09 2423.35 L1269.18 2421.74 L1309.28 2419.51 L1349.37 2416.29 L1389.46 2411.72 L1429.56 2405.65 L1469.65 2397.73 L1509.75 2387.46 L1549.85 2374.71 L1589.94 2359.00 L1630.04 2340.19 L1670.13 2318.03 L1710.35 2292.29 L1750.44 2263.09 L1790.54 2230.42 L1830.63 2194.40 L1870.73 2155.54 L1910.82 2113.96 L1950.92 2070.15 L1991.01 2024.86 L2031.11 1978.58 L2071.20 1931.92 L2111.30 1885.51 L2151.39 1839.85 L2191.49 1795.05 L2231.58 1751.49 L2271.68 1709.04 L2311.90 1668.08 L2351.99 1628.60 L2392.09 1590.48 L2432.18 1553.73 L2472.28 1518.46 L2512.37 1484.43 L2552.47 1451.76 L2592.56 1420.20 L2632.66 1389.88 L2672.75 1360.55 L2712.85 1332.33 L2752.94 1305.11 L2793.04 1278.75 L2833.13 1253.26 L2873.23 1228.50 L2913.45 1204.37 L2953.54 1180.74 L2993.64 1157.72 L3033.73 1135.07 L3073.83 1112.67 L3113.92 1090.64 L3154.02 1068.86 L3194.11 1047.21 L3234.21 1025.55" stroke-linejoin="round" style="fill:none;stroke:#FF0000;stroke-width:8.64"/>
	<line x1="524.08" y1="2489.19" x2="524.08" y2="100.86" style="stroke:#000000;stroke-width:5.76"/>
	<line x1="524.08" y1="2425.82" x2="484.11" y2="2425.82" style="stroke:#000000;stroke-width:5.76"/>
	<text x="464.06" y="2460.85" style="font-family:'Helvetica';font-size:99.99px;fill:#000000" text-anchor="end">0.00</text>
	<line x1="524.08" y1="1973.50" x2="484.11" y2="1973.50" style="stroke:#000000;stroke-width:5.76"/>
	<text x="464.06" y="2008.53" style="font-family:'Helvetica';font-size:99.99px;fill:#000000" text-anchor="end">0.10</text>
	<line x1="524.08" y1="1521.18" x2="484.11" y2="1521.18" style="stroke:#000000;stroke-width:5.76"/>
	<text x="464.06" y="1556.21" style="font-family:'Helvetica';font-size:99.99px;fill:#000000" text-anchor="end">0.20</text>
	<line x1="524.08" y1="1068.86" x2="484.11" y2="1068.86" style="stroke:#000000;stroke-width:5.76"/>
	<text x="464.06" y="1103.89" style="font-family:'Helvetica';font-size:99.99px;fill:#000000" text-anchor="end">0.30</text>
	<line x1="524.08" y1="616.54" x2="484.11" y2="616.54" style="stroke:#000000;stroke-width:5.76"/>
	<text x="464.06" y="651.57" style="font-family:'Helvetica';font-size:99.99px;fill:#000000" text-anchor="end">0.40</text>
	<line x1="524.08" y1="164.22" x2="484.11" y2="164.22" style="stroke:#000000;stroke-width:5.76"/>
	<text x="464.06" y="199.25" style="font-family:'Helvetica';font-size:99.99px;fill:#000000" text-anchor="end">0.50</text>
	<text x="190.71" y="1294.96" style="font-family:'Helvetica';font-size:99.99px;fill:#000000" transform="rotate(-90 190.71,1294.96)" text-anchor="middle">Standardised cumulative mortality (%)</text>
	<line x1="524.08" y1="2489.19" x2="3859.02" y2="2489.19" style="stroke:#000000;stroke-width:5.76"/>
	<line x1="587.44" y1="2489.19" x2="587.44" y2="2529.16" style="stroke:#000000;stroke-width:5.76"/>
	<text x="587.44" y="2619.14" style="font-family:'Helvetica';font-size:99.99px;fill:#000000" text-anchor="middle">0</text>
	<line x1="1389.59" y1="2489.19" x2="1389.59" y2="2529.16" style="stroke:#000000;stroke-width:5.76"/>
	<text x="1389.59" y="2619.14" style="font-family:'Helvetica';font-size:99.99px;fill:#000000" text-anchor="middle">20</text>
	<line x1="2191.61" y1="2489.19" x2="2191.61" y2="2529.16" style="stroke:#000000;stroke-width:5.76"/>
	<text x="2191.61" y="2619.14" style="font-family:'Helvetica';font-size:99.99px;fill:#000000" text-anchor="middle">40</text>
	<line x1="2993.64" y1="2489.19" x2="2993.64" y2="2529.16" style="stroke:#000000;stroke-width:5.76"/>
	<text x="2993.64" y="2619.14" style="font-family:'Helvetica';font-size:99.99px;fill:#000000" text-anchor="middle">60</text>
	<line x1="3795.66" y1="2489.19" x2="3795.66" y2="2529.16" style="stroke:#000000;stroke-width:5.76"/>
	<text x="3795.66" y="2619.14" style="font-family:'Helvetica';font-size:99.99px;fill:#000000" text-anchor="middle">80</text>
	<text x="2191.61" y="2729.16" style="font-family:'Helvetica';font-size:99.99px;fill:#000000" text-anchor="middle">Days from 1 March 2020</text>
	<rect x="2678.57" y="135.39" width="1145.93" height="326.34" style="fill:#FFFFFF"/>
	<rect x="2681.45" y="138.27" width="1140.17" height="320.58" style="fill:none;stroke:#EAF2F3;stroke-width:5.76"/>
	<rect x="2721.76" y="178.58" width="374.47" height="99.99" style="fill:#3333FF;fill-opacity:0.25"/>
	<rect x="2726.08" y="182.90" width="365.83" height="91.35" style="fill:none;stroke:#0000FF;stroke-opacity:0.25;stroke-width:8.64"/>
	<rect x="2721.76" y="318.54" width="374.47" height="99.99" style="fill:#FF3333;fill-opacity:0.25"/>
	<rect x="2726.08" y="322.86" width="365.83" height="91.35" style="fill:none;stroke:#FF0000;stroke-opacity:0.25;stroke-width:8.64"/>
	<text x="3156.24" y="256.59" style="font-family:'Helvetica';font-size:79.94px;fill:#000000">LABA/LAMA</text>
	<text x="3156.24" y="396.55" style="font-family:'Helvetica';font-size:79.94px;fill:#000000">ICS Combination</text>
</svg>
