<?xml version="1.0" encoding="UTF-8" standalone="no"?>
<!-- This is a Stata 16.1 generated SVG file (http://www.stata.com) -->

<svg version="1.1" width="5.50in" height="4.00in" viewBox="0 0 3960 2880" xmlns="http://www.w3.org/2000/svg" xmlns:xlink="http://www.w3.org/1999/xlink">
	<desc>Stata Graph - Graph</desc>
	<rect x="0" y="0" width="3960" height="2880" style="fill:#EAF2F3;stroke:none"/>
	<rect x="0.00" y="0.00" width="3959.88" height="2880.00" style="fill:#FFFFFF"/>
	<rect x="2.88" y="2.88" width="3954.12" height="2874.24" style="fill:none;stroke:#EAF2F3;stroke-width:5.76"/>
	<rect x="497.85" y="100.86" width="3361.17" height="2388.33" style="fill:#FFFFFF"/>
	<rect x="500.73" y="103.74" width="3355.41" height="2382.57" style="fill:none;stroke:#FFFFFF;stroke-width:5.76"/>
	<line x1="497.85" y1="2425.82" x2="3859.02" y2="2425.82" style="stroke:#EAF2F3;stroke-width:8.64"/>
	<line x1="497.85" y1="1860.39" x2="3859.02" y2="1860.39" style="stroke:#EAF2F3;stroke-width:8.64"/>
	<line x1="497.85" y1="1294.96" x2="3859.02" y2="1294.96" style="stroke:#EAF2F3;stroke-width:8.64"/>
	<line x1="497.85" y1="729.53" x2="3859.02" y2="729.53" style="stroke:#EAF2F3;stroke-width:8.64"/>
	<defs>
		<path id="path_bFsOFADq" d="M601.67 2425.82 L601.67 2425.82 L642.14 2425.82 L682.48 2425.82 L722.95 2425.82 L763.41 2425.82 L803.76 2425.82 L844.22 2425.82 L884.69 2425.82 L925.15 2425.82 L965.50 2425.82 L1005.96 2425.82 L1046.43 2425.82 L1086.77 2425.82 L1127.24 2425.70 L1167.70 2425.58 L1208.17 2425.33 L1248.51 2424.96 L1288.98 2424.34 L1329.45 2423.47 L1369.79 2422.23 L1410.26 2420.63 L1450.72 2418.40 L1491.19 2415.55 L1531.53 2412.09 L1572.00 2407.88 L1612.46 2402.93 L1652.81 2397.11 L1693.27 2390.43 L1733.74 2383.00 L1774.20 2374.71 L1814.55 2365.68 L1855.01 2355.90 L1895.48 2345.63 L1935.82 2334.74 L1976.29 2323.48 L2016.75 2311.85 L2057.22 2299.97 L2097.56 2287.84 L2138.03 2275.83 L2178.49 2263.83 L2218.96 2251.95 L2259.30 2240.44 L2299.77 2229.05 L2340.24 2218.16 L2380.58 2207.40 L2421.05 2197.13 L2461.51 2187.23 L2501.98 2177.57 L2542.32 2168.42 L2582.79 2159.50 L2623.25 2150.97 L2663.59 2142.67 L2704.06 2134.75 L2744.53 2127.08 L2784.99 2119.66 L2825.34 2112.48 L2865.80 2105.55 L2906.27 2098.87 L2946.61 2092.31 L2987.08 2085.87 L3027.54 2079.68 L3068.01 2073.50 L3108.35 2067.43 L3148.82 2061.49 L3189.28 2055.55 L3229.63 2049.61 L3229.63 1687.51 L3189.28 1699.14 L3148.82 1710.65 L3108.35 1722.28 L3068.01 1733.92 L3027.54 1745.80 L2987.08 1757.80 L2946.61 1769.93 L2906.27 1782.43 L2865.80 1795.17 L2825.34 1808.42 L2784.99 1821.90 L2744.53 1836.01 L2704.06 1850.49 L2663.59 1865.59 L2623.25 1881.31 L2582.79 1897.64 L2542.32 1914.60 L2501.98 1932.29 L2461.51 1950.73 L2421.05 1969.79 L2380.58 1989.71 L2340.24 2010.38 L2299.77 2031.67 L2259.30 2053.57 L2218.96 2076.09 L2178.49 2099.11 L2138.03 2122.38 L2097.56 2145.77 L2057.22 2169.16 L2016.75 2192.05 L1976.29 2214.58 L1935.82 2236.36 L1895.48 2257.27 L1855.01 2277.07 L1814.55 2295.76 L1774.20 2313.21 L1733.74 2329.30 L1693.27 2343.90 L1652.81 2357.14 L1612.46 2368.90 L1572.00 2379.29 L1531.53 2388.33 L1491.19 2396.12 L1450.72 2402.68 L1410.26 2408.13 L1369.79 2412.58 L1329.45 2416.05 L1288.98 2418.89 L1248.51 2421.00 L1208.17 2422.61 L1167.70 2423.72 L1127.24 2424.59 L1086.77 2425.08 L1046.43 2425.45 L1005.96 2425.58 L965.50 2425.70 L925.15 2425.82 L884.69 2425.82 L844.22 2425.82 L803.76 2425.82 L763.41 2425.82 L722.95 2425.82 L682.48 2425.82 L642.14 2425.82 L601.67 2425.82 L601.67 2425.82 Z" stroke-linejoin="round"/>
	</defs>
	<defs>
		<clipPath id="clipPath_dOTpmLjf">
			<use xlink:href="#path_bFsOFADq"/>
		</clipPath>
	</defs>
	<use xlink:href="#path_bFsOFADq" style="stroke:none;fill:#FF3333;fill-opacity:0.25"/>
	<use xlink:href="#path_bFsOFADq" style="fill:none;stroke:#FF0000;stroke-opacity:0.25;stroke-width:17.28" clip-path="url(#clipPath_dOTpmLjf)"/>
	<defs>
		<path id="path_fmQmcWbO" d="M601.67 2425.82 L601.67 2425.82 L642.14 2425.82 L682.48 2425.82 L722.95 2425.82 L763.41 2425.82 L803.76 2425.82 L844.22 2425.82 L884.69 2425.82 L925.15 2425.82 L965.50 2425.82 L1005.96 2425.82 L1046.43 2425.82 L1086.77 2425.82 L1127.24 2425.70 L1167.70 2425.45 L1208.17 2425.20 L1248.51 2424.71 L1288.98 2424.09 L1329.45 2422.98 L1369.79 2421.49 L1410.26 2419.51 L1450.72 2416.79 L1491.19 2413.20 L1531.53 2408.87 L1572.00 2403.42 L1612.46 2396.99 L1652.81 2389.32 L1693.27 2380.53 L1733.74 2370.51 L1774.20 2359.37 L1814.55 2347.24 L1855.01 2334.00 L1895.48 2319.89 L1935.82 2304.92 L1976.29 2289.32 L2016.75 2273.36 L2057.22 2256.90 L2097.56 2240.32 L2138.03 2223.73 L2178.49 2207.15 L2218.96 2190.81 L2259.30 2174.85 L2299.77 2159.13 L2340.24 2143.91 L2380.58 2129.19 L2421.05 2114.83 L2461.51 2100.97 L2501.98 2087.60 L2542.32 2074.73 L2582.79 2062.23 L2623.25 2050.23 L2663.59 2038.60 L2704.06 2027.46 L2744.53 2016.57 L2784.99 2006.17 L2825.34 1996.15 L2865.80 1986.37 L2906.27 1976.84 L2946.61 1967.56 L2987.08 1958.65 L3027.54 1949.87 L3068.01 1941.20 L3108.35 1932.79 L3148.82 1924.50 L3189.28 1916.33 L3229.63 1908.16 L3229.63 1765.84 L3189.28 1776.12 L3148.82 1786.39 L3108.35 1796.66 L3068.01 1806.93 L3027.54 1817.33 L2987.08 1827.84 L2946.61 1838.49 L2906.27 1849.38 L2865.80 1860.52 L2825.34 1872.02 L2784.99 1883.78 L2744.53 1896.03 L2704.06 1908.66 L2663.59 1921.77 L2623.25 1935.51 L2582.79 1949.74 L2542.32 1964.59 L2501.98 1980.19 L2461.51 1996.40 L2421.05 2013.23 L2380.58 2030.80 L2340.24 2049.12 L2299.77 2067.93 L2259.30 2087.48 L2218.96 2107.53 L2178.49 2127.95 L2138.03 2148.74 L2097.56 2169.53 L2057.22 2190.32 L2016.75 2210.74 L1976.29 2230.79 L1935.82 2250.09 L1895.48 2268.78 L1855.01 2286.60 L1814.55 2303.31 L1774.20 2319.02 L1733.74 2333.63 L1693.27 2346.99 L1652.81 2359.24 L1612.46 2370.26 L1572.00 2380.03 L1531.53 2388.57 L1491.19 2396.12 L1450.72 2402.43 L1410.26 2407.76 L1369.79 2412.21 L1329.45 2415.80 L1288.98 2418.65 L1248.51 2420.75 L1208.17 2422.48 L1167.70 2423.60 L1127.24 2424.46 L1086.77 2425.08 L1046.43 2425.33 L1005.96 2425.58 L965.50 2425.70 L925.15 2425.82 L884.69 2425.82 L844.22 2425.82 L803.76 2425.82 L763.41 2425.82 L722.95 2425.82 L682.48 2425.82 L642.14 2425.82 L601.67 2425.82 L601.67 2425.82 Z" stroke-linejoin="round"/>
	</defs>
	<defs>
		<clipPath id="clipPath_xUnmUZjr">
			<use xlink:href="#path_fmQmcWbO"/>
		</clipPath>
	</defs>
	<use xlink:href="#path_fmQmcWbO" style="stroke:none;fill:#3333FF;fill-opacity:0.25"/>
	<use xlink:href="#path_fmQmcWbO" style="fill:none;stroke:#0000FF;stroke-opacity:0.25;stroke-width:17.28" clip-path="url(#clipPath_xUnmUZjr)"/>
	<defs>
		<path id="path_PsaUBDtv" d="M601.67 2425.82 L601.67 2425.82 L642.14 2425.82 L682.48 2425.82 L722.95 2425.82 L763.41 2425.82 L803.76 2425.82 L844.22 2425.82 L884.69 2425.82 L925.15 2425.82 L965.50 2425.82 L1005.96 2425.82 L1046.43 2425.82 L1086.77 2425.70 L1127.24 2425.58 L1167.70 2425.33 L1208.17 2424.96 L1248.51 2424.34 L1288.98 2423.35 L1329.45 2421.99 L1369.79 2419.88 L1410.26 2417.16 L1450.72 2413.57 L1491.19 2408.87 L1531.53 2403.05 L1572.00 2395.87 L1612.46 2387.46 L1652.81 2377.44 L1693.27 2366.05 L1733.74 2353.18 L1774.20 2338.95 L1814.55 2323.36 L1855.01 2306.52 L1895.48 2288.58 L1935.82 2269.77 L1976.29 2250.09 L2016.75 2229.92 L2057.22 2209.25 L2097.56 2188.46 L2138.03 2167.55 L2178.49 2146.76 L2218.96 2126.22 L2259.30 2106.04 L2299.77 2086.49 L2340.24 2067.43 L2380.58 2048.87 L2421.05 2031.05 L2461.51 2013.72 L2501.98 1997.02 L2542.32 1980.93 L2582.79 1965.46 L2623.25 1950.61 L2663.59 1936.25 L2704.06 1922.39 L2744.53 1909.03 L2784.99 1896.16 L2825.34 1883.78 L2865.80 1871.65 L2906.27 1859.90 L2946.61 1848.51 L2987.08 1837.37 L3027.54 1826.48 L3068.01 1815.84 L3108.35 1805.32 L3148.82 1794.93 L3189.28 1784.65 L3229.63 1774.51 L3229.63 1391.12 L3189.28 1407.33 L3148.82 1423.42 L3108.35 1439.63 L3068.01 1455.96 L3027.54 1472.42 L2987.08 1489.13 L2946.61 1506.08 L2906.27 1523.41 L2865.80 1541.23 L2825.34 1559.55 L2784.99 1578.36 L2744.53 1597.91 L2704.06 1618.08 L2663.59 1639.12 L2623.25 1660.90 L2582.79 1683.67 L2542.32 1707.31 L2501.98 1731.94 L2461.51 1757.55 L2421.05 1784.28 L2380.58 1812.13 L2340.24 1840.84 L2299.77 1870.66 L2259.30 1901.35 L2218.96 1932.79 L2178.49 1964.96 L2138.03 1997.63 L2097.56 2030.43 L2057.22 2062.98 L2016.75 2095.15 L1976.29 2126.59 L1935.82 2157.03 L1895.48 2186.24 L1855.01 2213.96 L1814.55 2240.19 L1774.20 2264.57 L1733.74 2287.22 L1693.27 2307.76 L1652.81 2326.45 L1612.46 2343.28 L1572.00 2358.01 L1531.53 2371.00 L1491.19 2382.14 L1450.72 2391.67 L1410.26 2399.59 L1369.79 2406.02 L1329.45 2411.22 L1288.98 2415.43 L1248.51 2418.65 L1208.17 2421.00 L1167.70 2422.73 L1127.24 2423.84 L1086.77 2424.71 L1046.43 2425.20 L1005.96 2425.45 L965.50 2425.70 L925.15 2425.82 L884.69 2425.82 L844.22 2425.82 L803.76 2425.82 L763.41 2425.82 L722.95 2425.82 L682.48 2425.82 L642.14 2425.82 L601.67 2425.82 L601.67 2425.82 Z" stroke-linejoin="round"/>
	</defs>
	<defs>
		<clipPath id="clipPath_JTijPwaj">
			<use xlink:href="#path_PsaUBDtv"/>
		</clipPath>
	</defs>
	<use xlink:href="#path_PsaUBDtv" style="stroke:none;fill:#339933;fill-opacity:0.25"/>
	<use xlink:href="#path_PsaUBDtv" style="fill:none;stroke:#008000;stroke-opacity:0.25;stroke-width:17.28" clip-path="url(#clipPath_JTijPwaj)"/>
	<path d=" M561.21 2425.95 L601.55 2425.95 L642.01 2425.95 L682.48 2425.95 L722.82 2425.95 L763.29 2425.95 L803.76 2425.95 L844.22 2425.95 L884.57 2425.95 L925.03 2425.95 L965.50 2425.95 L1005.84 2425.82 L1046.31 2425.82 L1086.77 2425.70 L1127.24 2425.45 L1167.58 2425.08 L1208.05 2424.59 L1248.51 2423.84 L1288.98 2422.61 L1329.32 2421.12 L1369.79 2419.02 L1410.26 2416.17 L1450.60 2412.71 L1491.06 2408.50 L1531.53 2403.18 L1572.00 2396.99 L1612.34 2389.81 L1652.81 2381.40 L1693.27 2371.99 L1733.61 2361.60 L1774.08 2349.96 L1814.55 2337.46 L1855.01 2323.97 L1895.36 2309.62 L1935.82 2294.52 L1976.29 2278.80 L2016.63 2262.59 L2057.10 2246.13 L2097.56 2229.30 L2138.03 2212.60 L2178.37 2195.89 L2218.84 2179.31 L2259.30 2163.22 L2299.65 2147.38 L2340.11 2132.16 L2380.58 2117.30 L2421.05 2102.95 L2461.39 2089.21 L2501.85 2075.85 L2542.32 2063.10 L2582.66 2050.85 L2623.13 2038.97 L2663.59 2027.58 L2704.06 2016.69 L2744.40 2006.05 L2784.87 1995.90 L2825.34 1986.13 L2865.80 1976.47 L2906.14 1967.19 L2946.61 1958.16 L2987.08 1949.37 L3027.42 1940.71 L3067.89 1932.17 L3108.35 1923.75 L3148.82 1915.46 L3189.16 1907.17 L3229.63 1898.88" stroke-linejoin="round" style="fill:none;stroke:#FF0000;stroke-width:8.64"/>
	<path d=" M561.21 2425.95 L601.55 2425.95 L642.01 2425.95 L682.48 2425.95 L722.82 2425.95 L763.29 2425.95 L803.76 2425.95 L844.22 2425.95 L884.57 2425.95 L925.03 2425.95 L965.50 2425.82 L1005.84 2425.82 L1046.31 2425.82 L1086.77 2425.70 L1127.24 2425.45 L1167.58 2425.08 L1208.05 2424.46 L1248.51 2423.60 L1288.98 2422.23 L1329.32 2420.50 L1369.79 2418.15 L1410.26 2415.18 L1450.60 2411.34 L1491.06 2406.52 L1531.53 2400.70 L1572.00 2393.89 L1612.34 2385.85 L1652.81 2376.57 L1693.27 2366.17 L1733.61 2354.54 L1774.08 2341.67 L1814.55 2327.69 L1855.01 2312.71 L1895.36 2296.87 L1935.82 2280.17 L1976.29 2262.72 L2016.63 2244.77 L2057.10 2226.46 L2097.56 2207.89 L2138.03 2189.21 L2178.37 2170.64 L2218.84 2152.33 L2259.30 2134.38 L2299.65 2116.93 L2340.11 2099.98 L2380.58 2083.52 L2421.05 2067.68 L2461.39 2052.33 L2501.85 2037.61 L2542.32 2023.50 L2582.66 2009.76 L2623.13 1996.64 L2663.59 1984.15 L2704.06 1971.89 L2744.40 1960.26 L2784.87 1949.00 L2825.34 1937.99 L2865.80 1927.47 L2906.14 1917.19 L2946.61 1907.17 L2987.08 1897.27 L3027.42 1887.74 L3067.89 1878.21 L3108.35 1868.93 L3148.82 1859.65 L3189.16 1850.49 L3229.63 1841.33" stroke-linejoin="round" style="fill:none;stroke:#0000FF;stroke-width:8.64"/>
	<path d=" M561.21 2425.95 L601.55 2425.95 L642.01 2425.95 L682.48 2425.95 L722.82 2425.95 L763.29 2425.95 L803.76 2425.95 L844.22 2425.95 L884.57 2425.95 L925.03 2425.95 L965.50 2425.82 L1005.84 2425.82 L1046.31 2425.70 L1086.77 2425.58 L1127.24 2425.20 L1167.58 2424.71 L1208.05 2423.84 L1248.51 2422.61 L1288.98 2420.87 L1329.32 2418.40 L1369.79 2415.06 L1410.26 2410.85 L1450.60 2405.40 L1491.06 2398.72 L1531.53 2390.55 L1572.00 2380.90 L1612.34 2369.52 L1652.81 2356.52 L1693.27 2341.92 L1733.61 2325.58 L1774.08 2307.51 L1814.55 2287.96 L1855.01 2266.92 L1895.36 2244.52 L1935.82 2221.01 L1976.29 2196.63 L2016.63 2171.39 L2057.10 2145.64 L2097.56 2119.53 L2138.03 2093.30 L2178.37 2067.31 L2218.84 2041.57 L2259.30 2016.32 L2299.65 1991.82 L2340.11 1967.93 L2380.58 1944.92 L2421.05 1922.64 L2461.39 1901.11 L2501.85 1880.44 L2542.32 1860.52 L2582.66 1841.33 L2623.13 1823.02 L2663.59 1805.32 L2704.06 1788.24 L2744.40 1771.78 L2784.87 1755.94 L2825.34 1740.60 L2865.80 1725.75 L2906.14 1711.27 L2946.61 1697.28 L2987.08 1683.42 L3027.42 1670.06 L3067.89 1656.69 L3108.35 1643.70 L3148.82 1630.70 L3189.16 1617.83 L3229.63 1604.96" stroke-linejoin="round" style="fill:none;stroke:#008000;stroke-width:8.64"/>
	<line x1="497.85" y1="2489.19" x2="497.85" y2="100.86" style="stroke:#000000;stroke-width:5.76"/>
	<line x1="497.85" y1="2425.82" x2="457.88" y2="2425.82" style="stroke:#000000;stroke-width:5.76"/>
	<text x="437.83" y="2460.85" style="font-family:'Helvetica';font-size:99.99px;fill:#000000" text-anchor="end">0.00</text>
	<line x1="497.85" y1="1860.39" x2="457.88" y2="1860.39" style="stroke:#000000;stroke-width:5.76"/>
	<text x="437.83" y="1895.42" style="font-family:'Helvetica';font-size:99.99px;fill:#000000" text-anchor="end">0.05</text>
	<line x1="497.85" y1="1294.96" x2="457.88" y2="1294.96" style="stroke:#000000;stroke-width:5.76"/>
	<text x="437.83" y="1329.99" style="font-family:'Helvetica';font-size:99.99px;fill:#000000" text-anchor="end">0.10</text>
	<line x1="497.85" y1="729.53" x2="457.88" y2="729.53" style="stroke:#000000;stroke-width:5.76"/>
	<text x="437.83" y="764.56" style="font-family:'Helvetica';font-size:99.99px;fill:#000000" text-anchor="end">0.15</text>
	<line x1="497.85" y1="164.22" x2="457.88" y2="164.22" style="stroke:#000000;stroke-width:5.76"/>
	<text x="437.83" y="199.25" style="font-family:'Helvetica';font-size:99.99px;fill:#000000" text-anchor="end">0.20</text>
	<text x="190.71" y="1294.96" style="font-family:'Helvetica';font-size:99.99px;fill:#000000" transform="rotate(-90 190.71,1294.96)" text-anchor="middle">Standardised cumulative mortality (%)</text>
	<line x1="497.85" y1="2489.19" x2="3859.02" y2="2489.19" style="stroke:#000000;stroke-width:5.76"/>
	<line x1="561.21" y1="2489.19" x2="561.21" y2="2529.16" style="stroke:#000000;stroke-width:5.76"/>
	<text x="561.21" y="2619.14" style="font-family:'Helvetica';font-size:99.99px;fill:#000000" text-anchor="middle">0</text>
	<line x1="1369.79" y1="2489.19" x2="1369.79" y2="2529.16" style="stroke:#000000;stroke-width:5.76"/>
	<text x="1369.79" y="2619.14" style="font-family:'Helvetica';font-size:99.99px;fill:#000000" text-anchor="middle">20</text>
	<line x1="2178.49" y1="2489.19" x2="2178.49" y2="2529.16" style="stroke:#000000;stroke-width:5.76"/>
	<text x="2178.49" y="2619.14" style="font-family:'Helvetica';font-size:99.99px;fill:#000000" text-anchor="middle">40</text>
	<line x1="2987.08" y1="2489.19" x2="2987.08" y2="2529.16" style="stroke:#000000;stroke-width:5.76"/>
	<text x="2987.08" y="2619.14" style="font-family:'Helvetica';font-size:99.99px;fill:#000000" text-anchor="middle">60</text>
	<line x1="3795.78" y1="2489.19" x2="3795.78" y2="2529.16" style="stroke:#000000;stroke-width:5.76"/>
	<text x="3795.78" y="2619.14" style="font-family:'Helvetica';font-size:99.99px;fill:#000000" text-anchor="middle">80</text>
	<text x="2178.49" y="2729.16" style="font-family:'Helvetica';font-size:99.99px;fill:#000000" text-anchor="middle">Days from 1 March 2020</text>
	<rect x="2837.22" y="135.39" width="987.28" height="466.30" style="fill:#FFFFFF"/>
	<rect x="2840.10" y="138.27" width="981.52" height="460.54" style="fill:none;stroke:#EAF2F3;stroke-width:5.76"/>
	<rect x="2880.41" y="178.58" width="374.34" height="99.99" style="fill:#FF3333;fill-opacity:0.25"/>
	<rect x="2884.72" y="182.90" width="365.70" height="91.35" style="fill:none;stroke:#FF0000;stroke-opacity:0.25;stroke-width:8.64"/>
	<rect x="2880.41" y="318.54" width="374.34" height="99.99" style="fill:#3333FF;fill-opacity:0.25"/>
	<rect x="2884.72" y="322.86" width="365.70" height="91.35" style="fill:none;stroke:#0000FF;stroke-opacity:0.25;stroke-width:8.64"/>
	<rect x="2880.41" y="458.51" width="374.34" height="99.99" style="fill:#339933;fill-opacity:0.25"/>
	<rect x="2884.72" y="462.83" width="365.70" height="91.35" style="fill:none;stroke:#008000;stroke-opacity:0.25;stroke-width:8.64"/>
	<text x="3314.77" y="256.59" style="font-family:'Helvetica';font-size:79.94px;fill:#000000">SABA</text>
	<text x="3314.77" y="396.55" style="font-family:'Helvetica';font-size:79.94px;fill:#000000">ICS Low Dose</text>
	<text x="3314.77" y="536.52" style="font-family:'Helvetica';font-size:79.94px;fill:#000000">ICS High Dose</text>
</svg>
