<?xml version="1.0" encoding="UTF-8" standalone="no"?>
<!-- This is a Stata 16.1 generated SVG file (http://www.stata.com) -->

<svg version="1.1" width="5.50in" height="4.00in" viewBox="0 0 3960 2880" xmlns="http://www.w3.org/2000/svg" xmlns:xlink="http://www.w3.org/1999/xlink">
	<desc>Stata Graph - Graph</desc>
	<rect x="0" y="0" width="3960" height="2880" style="fill:#EAF2F3;stroke:none"/>
	<rect x="0.00" y="0.00" width="3959.88" height="2880.00" style="fill:#FFFFFF"/>
	<rect x="2.88" y="2.88" width="3954.12" height="2874.24" style="fill:none;stroke:#EAF2F3;stroke-width:5.76"/>
	<rect x="760.94" y="630.90" width="3090.28" height="1604.96" style="fill:#FFFFFF"/>
	<rect x="763.82" y="633.78" width="3084.53" height="1599.20" style="fill:none;stroke:#FFFFFF;stroke-width:5.76"/>
	<line x1="760.94" y1="2172.62" x2="3851.22" y2="2172.62" style="stroke:#EAF2F3;stroke-width:8.64"/>
	<line x1="760.94" y1="1802.97" x2="3851.22" y2="1802.97" style="stroke:#EAF2F3;stroke-width:8.64"/>
	<line x1="760.94" y1="1433.44" x2="3851.22" y2="1433.44" style="stroke:#EAF2F3;stroke-width:8.64"/>
	<line x1="760.94" y1="1063.79" x2="3851.22" y2="1063.79" style="stroke:#EAF2F3;stroke-width:8.64"/>
	<path d=" M824.17 2172.62 L824.17 2172.62 L824.17 2172.62 L824.17 2172.62 L824.17 2172.62 L853.88 2172.62 L853.88 2172.62 L883.45 2172.62 L883.45 2172.62 L913.15 2172.62 L913.15 2172.62 L942.73 2172.62 L942.73 2172.62 L972.43 2172.62 L972.43 2172.62 L1002.00 2172.62 L1002.00 2172.62 L1031.70 2172.62 L1031.70 2172.62 L1061.28 2172.62 L1061.28 2172.62 L1090.98 2172.62 L1090.98 2172.62 L1120.56 2172.62 L1120.56 2172.62 L1150.26 2172.62 L1150.26 2172.62 L1179.83 2172.62 L1179.83 2172.62 L1209.53 2172.62 L1209.53 2172.62 L1239.11 2172.62 L1239.11 2172.62 L1268.81 2172.62 L1268.81 2172.62 L1298.38 2172.62 L1298.38 2172.62 L1328.09 2172.62 L1328.09 2172.62 L1357.66 2172.62 L1357.66 2172.62 L1387.36 2172.62 L1387.36 2172.62 L1416.94 2172.62 L1416.94 2172.62 L1446.64 2172.62 L1446.64 2172.62 L1476.21 2172.62 L1476.21 2172.62 L1505.91 2172.62 L1505.91 2172.62 L1535.49 2172.62 L1535.49 2172.62 L1565.19 2172.62 L1565.19 2170.89 L1594.77 2170.89 L1594.77 2169.16 L1624.34 2169.16 L1624.34 2165.82 L1654.04 2165.82 L1654.04 2162.35 L1683.62 2162.35 L1683.62 2158.89 L1713.32 2158.89 L1713.32 2153.81 L1742.89 2153.81 L1742.89 2150.35 L1772.60 2150.35 L1772.60 2148.61 L1802.17 2148.61 L1802.17 2145.27 L1831.87 2145.27 L1831.87 2141.81 L1861.45 2141.81 L1861.45 2133.27 L1891.15 2133.27 L1891.15 2133.27 L1920.72 2133.27 L1920.72 2131.54 L1950.42 2131.54 L1950.42 2117.80 L1980.00 2117.80 L1980.00 2114.33 L2009.70 2114.33 L2009.70 2109.26 L2039.28 2109.26 L2039.28 2107.53 L2068.98 2107.53 L2068.98 2097.26 L2098.55 2097.26 L2098.55 2093.79 L2128.25 2093.79 L2128.25 2088.72 L2157.83 2088.72 L2157.83 2080.06 L2187.53 2080.06 L2187.53 2078.32 L2217.11 2078.32 L2217.11 2073.25 L2246.80 2073.25 L2246.80 2069.78 L2276.38 2069.78 L2276.38 2069.78 L2306.08 2069.78 L2306.08 2068.05 L2335.66 2068.05 L2335.66 2064.71 L2365.36 2064.71 L2365.36 2062.98 L2394.93 2062.98 L2394.93 2056.05 L2424.63 2056.05 L2424.63 2049.24 L2454.21 2049.24 L2454.21 2047.51 L2483.91 2047.51 L2483.91 2044.04 L2513.49 2044.04 L2513.49 2044.04 L2543.19 2044.04 L2543.19 2040.58 L2572.76 2040.58 L2572.76 2038.84 L2602.34 2038.84 L2602.34 2035.50 L2632.04 2035.50 L2632.04 2032.04 L2661.61 2032.04 L2661.61 2023.38 L2691.32 2023.38 L2691.32 2023.38 L2720.89 2023.38 L2720.89 2021.77 L2750.59 2021.77 L2750.59 2021.77 L2780.17 2021.77 L2780.17 2016.57" stroke-linejoin="round" style="fill:none;stroke:#1A476F;stroke-width:8.64"/>
	<path d=" M824.17 2172.62 L824.17 2172.62 L824.17 2172.62 L824.17 2172.62 L824.17 2172.62 L853.88 2172.62 L853.88 2172.62 L913.15 2172.62 L913.15 2172.62 L942.73 2172.62 L942.73 2172.62 L972.43 2172.62 L972.43 2172.62 L1002.00 2172.62 L1002.00 2172.62 L1031.70 2172.62 L1031.70 2172.62 L1061.28 2172.62 L1061.28 2172.62 L1090.98 2172.62 L1090.98 2172.62 L1120.56 2172.62 L1120.56 2172.62 L1150.26 2172.62 L1150.26 2172.62 L1179.83 2172.62 L1179.83 2172.62 L1209.53 2172.62 L1209.53 2172.62 L1239.11 2172.62 L1239.11 2172.62 L1268.81 2172.62 L1268.81 2172.62 L1298.38 2172.62 L1298.38 2172.62 L1328.09 2172.62 L1328.09 2172.62 L1357.66 2172.62 L1357.66 2167.67 L1387.36 2167.67 L1387.36 2167.67 L1416.94 2167.67 L1416.94 2167.67 L1446.64 2167.67 L1446.64 2167.67 L1476.21 2167.67 L1476.21 2167.67 L1505.91 2167.67 L1505.91 2167.67 L1535.49 2167.67 L1535.49 2165.20 L1565.19 2165.20 L1565.19 2162.72 L1594.77 2162.72 L1594.77 2160.25 L1624.34 2160.25 L1624.34 2157.77 L1654.04 2157.77 L1654.04 2152.82 L1683.62 2152.82 L1683.62 2145.40 L1713.32 2145.40 L1713.32 2142.92 L1742.89 2142.92 L1742.89 2137.85 L1772.60 2137.85 L1772.60 2130.42 L1802.17 2130.42 L1802.17 2125.47 L1831.87 2125.47 L1831.87 2120.52 L1861.45 2120.52 L1861.45 2110.62 L1891.15 2110.62 L1891.15 2105.67 L1920.72 2105.67 L1920.72 2103.20 L1950.42 2103.20 L1950.42 2095.65 L1980.00 2095.65 L1980.00 2085.75 L2009.70 2085.75 L2009.70 2073.37 L2039.28 2073.37 L2039.28 2068.42 L2068.98 2068.42 L2068.98 2060.87 L2098.55 2060.87 L2098.55 2058.40 L2128.25 2058.40 L2128.25 2055.92 L2157.83 2055.92 L2157.83 2048.50 L2187.53 2048.50 L2187.53 2043.55 L2217.11 2043.55 L2217.11 2033.52 L2246.80 2033.52 L2246.80 2028.57 L2276.38 2028.57 L2276.38 2021.15 L2306.08 2021.15 L2306.08 2016.20 L2335.66 2016.20 L2335.66 2006.17 L2365.36 2006.17 L2365.36 2001.22 L2394.93 2001.22 L2394.93 1996.27 L2424.63 1996.27 L2424.63 1993.80 L2454.21 1993.80 L2454.21 1993.80 L2483.91 1993.80 L2483.91 1988.85 L2513.49 1988.85 L2513.49 1986.25 L2543.19 1986.25 L2543.19 1986.25 L2572.76 1986.25 L2572.76 1983.77 L2602.34 1983.77 L2602.34 1981.30 L2632.04 1981.30 L2632.04 1978.82 L2661.61 1978.82 L2661.61 1971.40 L2691.32 1971.40 L2691.32 1963.85 L2720.89 1963.85 L2720.89 1963.85 L2750.59 1963.85 L2750.59 1958.90 L2780.17 1958.90 L2780.17 1951.47" stroke-linejoin="round" style="fill:none;stroke:#90353B;stroke-width:8.64"/>
	<path d=" M824.17 2172.62 L824.17 2172.62 L824.17 2172.62 L824.17 2172.62 L824.17 2172.62 L853.88 2172.62 L853.88 2172.62 L883.45 2172.62 L883.45 2172.62 L913.15 2172.62 L913.15 2172.62 L942.73 2172.62 L942.73 2172.62 L972.43 2172.62 L972.43 2172.62 L1002.00 2172.62 L1002.00 2172.62 L1031.70 2172.62 L1031.70 2172.62 L1061.28 2172.62 L1061.28 2172.62 L1090.98 2172.62 L1090.98 2172.62 L1120.56 2172.62 L1120.56 2172.62 L1150.26 2172.62 L1150.26 2172.62 L1179.83 2172.62 L1179.83 2172.62 L1209.53 2172.62 L1209.53 2172.62 L1239.11 2172.62 L1239.11 2172.62 L1268.81 2172.62 L1268.81 2170.64 L1298.38 2170.64 L1298.38 2169.65 L1328.09 2169.65 L1328.09 2169.65 L1357.66 2169.65 L1357.66 2169.65 L1387.36 2169.65 L1387.36 2169.65 L1416.94 2169.65 L1416.94 2168.66 L1446.64 2168.66 L1446.64 2167.67 L1476.21 2167.67 L1476.21 2165.69 L1505.91 2165.69 L1505.91 2162.85 L1535.49 2162.85 L1535.49 2162.85 L1565.19 2162.85 L1565.19 2155.92 L1594.77 2155.92 L1594.77 2151.96 L1624.34 2151.96 L1624.34 2148.99 L1654.04 2148.99 L1654.04 2142.06 L1683.62 2142.06 L1683.62 2137.23 L1713.32 2137.23 L1713.32 2129.31 L1742.89 2129.31 L1742.89 2123.37 L1772.60 2123.37 L1772.60 2112.60 L1802.17 2112.60 L1802.17 2107.65 L1831.87 2107.65 L1831.87 2096.76 L1861.45 2096.76 L1861.45 2092.80 L1891.15 2092.80 L1891.15 2084.02 L1920.72 2084.02 L1920.72 2077.08 L1950.42 2077.08 L1950.42 2065.20 L1980.00 2065.20 L1980.00 2054.31 L2009.70 2054.31 L2009.70 2043.55 L2039.28 2043.55 L2039.28 2036.62 L2068.98 2036.62 L2068.98 2031.67 L2098.55 2031.67 L2098.55 2023.75 L2128.25 2023.75 L2128.25 2019.79 L2157.83 2019.79 L2157.83 2013.85 L2187.53 2013.85 L2187.53 2002.96 L2217.11 2002.96 L2217.11 2000.98 L2246.80 2000.98 L2246.80 1997.02 L2276.38 1997.02 L2276.38 1993.18 L2306.08 1993.18 L2306.08 1983.28 L2335.66 1983.28 L2335.66 1982.29 L2365.36 1982.29 L2365.36 1976.35 L2394.93 1976.35 L2394.93 1972.39 L2424.63 1972.39 L2424.63 1969.42 L2454.21 1969.42 L2454.21 1964.47 L2483.91 1964.47 L2483.91 1962.49 L2513.49 1962.49 L2513.49 1957.54 L2543.19 1957.54 L2543.19 1956.55 L2572.76 1956.55 L2572.76 1951.60 L2602.34 1951.60 L2602.34 1947.64 L2632.04 1947.64 L2632.04 1941.70 L2661.61 1941.70 L2661.61 1939.72 L2691.32 1939.72 L2691.32 1936.75 L2720.89 1936.75 L2720.89 1931.80 L2750.59 1931.80 L2750.59 1929.82 L2780.17 1929.82 L2780.17 1926.85" stroke-linejoin="round" style="fill:none;stroke:#55752F;stroke-width:8.64"/>
	<line x1="760.94" y1="2235.86" x2="760.94" y2="630.90" style="stroke:#000000;stroke-width:5.76"/>
	<line x1="760.94" y1="2172.62" x2="720.97" y2="2172.62" style="stroke:#000000;stroke-width:5.76"/>
	<text x="700.92" y="2200.63" style="font-family:'Helvetica';font-size:79.94px;fill:#000000" text-anchor="end">0.000</text>
	<line x1="760.94" y1="1802.97" x2="720.97" y2="1802.97" style="stroke:#000000;stroke-width:5.76"/>
	<text x="700.92" y="1830.98" style="font-family:'Helvetica';font-size:79.94px;fill:#000000" text-anchor="end">0.005</text>
	<line x1="760.94" y1="1433.44" x2="720.97" y2="1433.44" style="stroke:#000000;stroke-width:5.76"/>
	<text x="700.92" y="1461.45" style="font-family:'Helvetica';font-size:79.94px;fill:#000000" text-anchor="end">0.010</text>
	<line x1="760.94" y1="1063.79" x2="720.97" y2="1063.79" style="stroke:#000000;stroke-width:5.76"/>
	<text x="700.92" y="1091.80" style="font-family:'Helvetica';font-size:79.94px;fill:#000000" text-anchor="end">0.015</text>
	<line x1="760.94" y1="694.26" x2="720.97" y2="694.26" style="stroke:#000000;stroke-width:5.76"/>
	<text x="700.92" y="722.27" style="font-family:'Helvetica';font-size:79.94px;fill:#000000" text-anchor="end">0.020</text>
	<text x="824.30" y="2747.83" style="font-family:'Helvetica';font-size:60.02px;fill:#000000" text-anchor="middle">75362</text>
	<text x="1417.06" y="2747.83" style="font-family:'Helvetica';font-size:60.02px;fill:#000000" text-anchor="middle">75141</text>
	<text x="2009.70" y="2747.83" style="font-family:'Helvetica';font-size:60.02px;fill:#000000" text-anchor="middle">74767</text>
	<text x="2602.46" y="2747.83" style="font-family:'Helvetica';font-size:60.02px;fill:#000000" text-anchor="middle">74423</text>
	<text x="3195.22" y="2747.83" style="font-family:'Helvetica';font-size:60.02px;fill:#000000" text-anchor="middle">0</text>
	<text x="3787.86" y="2747.83" style="font-family:'Helvetica';font-size:60.02px;fill:#000000" text-anchor="middle">0</text>
	<text x="676.05" y="2747.83" style="font-family:'Helvetica';font-size:60.02px;fill:#000000" text-anchor="end">ICS Triple Combination</text>
	<text x="824.30" y="2674.44" style="font-family:'Helvetica';font-size:60.02px;fill:#000000" text-anchor="middle">29887</text>
	<text x="1417.06" y="2674.44" style="font-family:'Helvetica';font-size:60.02px;fill:#000000" text-anchor="middle">29822</text>
	<text x="2009.70" y="2674.44" style="font-family:'Helvetica';font-size:60.02px;fill:#000000" text-anchor="middle">29724</text>
	<text x="2602.46" y="2674.44" style="font-family:'Helvetica';font-size:60.02px;fill:#000000" text-anchor="middle">29605</text>
	<text x="3195.22" y="2674.44" style="font-family:'Helvetica';font-size:60.02px;fill:#000000" text-anchor="middle">0</text>
	<text x="3787.86" y="2674.44" style="font-family:'Helvetica';font-size:60.02px;fill:#000000" text-anchor="middle">0</text>
	<text x="676.05" y="2674.44" style="font-family:'Helvetica';font-size:60.02px;fill:#000000" text-anchor="end">ICS Dual Combination</text>
	<text x="824.30" y="2601.18" style="font-family:'Helvetica';font-size:60.02px;fill:#000000" text-anchor="middle">43308</text>
	<text x="1417.06" y="2601.18" style="font-family:'Helvetica';font-size:60.02px;fill:#000000" text-anchor="middle">43222</text>
	<text x="2009.70" y="2601.18" style="font-family:'Helvetica';font-size:60.02px;fill:#000000" text-anchor="middle">43088</text>
	<text x="2602.46" y="2601.18" style="font-family:'Helvetica';font-size:60.02px;fill:#000000" text-anchor="middle">42942</text>
	<text x="3195.22" y="2601.18" style="font-family:'Helvetica';font-size:60.02px;fill:#000000" text-anchor="middle">0</text>
	<text x="3787.86" y="2601.18" style="font-family:'Helvetica';font-size:60.02px;fill:#000000" text-anchor="middle">0</text>
	<text x="676.05" y="2601.18" style="font-family:'Helvetica';font-size:60.02px;fill:#000000" text-anchor="end">LABA/LAMA Combination</text>
	<text x="676.05" y="2527.80" style="font-family:'Helvetica';font-size:60.02px;fill:#000000" text-anchor="end">Number at risk</text>
	<line x1="760.94" y1="2235.86" x2="3851.22" y2="2235.86" style="stroke:#000000;stroke-width:5.76"/>
	<line x1="824.30" y1="2235.86" x2="824.30" y2="2275.96" style="stroke:#000000;stroke-width:5.76"/>
	<text x="824.30" y="2351.78" style="font-family:'Helvetica';font-size:79.94px;fill:#000000" text-anchor="middle">0</text>
	<line x1="1417.06" y1="2235.86" x2="1417.06" y2="2275.96" style="stroke:#000000;stroke-width:5.76"/>
	<text x="1417.06" y="2351.78" style="font-family:'Helvetica';font-size:79.94px;fill:#000000" text-anchor="middle">20</text>
	<line x1="2009.70" y1="2235.86" x2="2009.70" y2="2275.96" style="stroke:#000000;stroke-width:5.76"/>
	<text x="2009.70" y="2351.78" style="font-family:'Helvetica';font-size:79.94px;fill:#000000" text-anchor="middle">40</text>
	<line x1="2602.46" y1="2235.86" x2="2602.46" y2="2275.96" style="stroke:#000000;stroke-width:5.76"/>
	<text x="2602.46" y="2351.78" style="font-family:'Helvetica';font-size:79.94px;fill:#000000" text-anchor="middle">60</text>
	<line x1="3195.22" y1="2235.86" x2="3195.22" y2="2275.96" style="stroke:#000000;stroke-width:5.76"/>
	<text x="3195.22" y="2351.78" style="font-family:'Helvetica';font-size:79.94px;fill:#000000" text-anchor="middle">80</text>
	<line x1="3787.86" y1="2235.86" x2="3787.86" y2="2275.96" style="stroke:#000000;stroke-width:5.76"/>
	<text x="3787.86" y="2351.78" style="font-family:'Helvetica';font-size:79.94px;fill:#000000" text-anchor="middle">100</text>
	<text x="2306.08" y="2441.87" style="font-family:'Helvetica';font-size:79.94px;fill:#000000" text-anchor="middle">Days since 1 Mar 2020</text>
	<rect x="1154.84" y="269.91" width="2302.62" height="326.46" style="fill:#FFFFFF"/>
	<rect x="1157.71" y="272.79" width="2296.86" height="320.70" style="fill:none;stroke:#EAF2F3;stroke-width:5.76"/>
	<line x1="1198.02" y1="363.09" x2="1572.37" y2="363.09" style="stroke:#1A476F;stroke-width:8.64"/>
	<line x1="2428.59" y1="363.09" x2="2802.94" y2="363.09" style="stroke:#90353B;stroke-width:8.64"/>
	<line x1="1198.02" y1="503.06" x2="1572.37" y2="503.06" style="stroke:#55752F;stroke-width:8.64"/>
	<text x="1632.39" y="384.13" style="font-family:'Helvetica';font-size:60.02px;fill:#000000">LABA/LAMA Combination</text>
	<text x="2862.96" y="384.13" style="font-family:'Helvetica';font-size:60.02px;fill:#000000">ICS Dual Combination</text>
	<text x="1632.39" y="524.10" style="font-family:'Helvetica';font-size:60.02px;fill:#000000">ICS Triple Combination</text>
	<text x="778.26" y="187.99" style="font-family:'Helvetica';font-size:99.99px;fill:#1E2D53">Time to COVID-19 Death in ONS, COPD - Sensitivity Exposure Definition population</text>
</svg>
