<?xml version="1.0" encoding="UTF-8" standalone="no"?>
<!-- This is a Stata 16.1 generated SVG file (http://www.stata.com) -->

<svg version="1.1" width="5.50in" height="4.00in" viewBox="0 0 3960 2880" xmlns="http://www.w3.org/2000/svg" xmlns:xlink="http://www.w3.org/1999/xlink">
	<desc>Stata Graph - Graph</desc>
	<rect x="0" y="0" width="3960" height="2880" style="fill:#EAF2F3;stroke:none"/>
	<rect x="0.00" y="0.00" width="3959.88" height="2880.00" style="fill:#FFFFFF"/>
	<rect x="2.88" y="2.88" width="3954.12" height="2874.24" style="fill:none;stroke:#EAF2F3;stroke-width:5.76"/>
	<rect x="763.66" y="630.90" width="3080.88" height="1604.96" style="fill:#FFFFFF"/>
	<rect x="766.54" y="633.78" width="3075.12" height="1599.20" style="fill:none;stroke:#FFFFFF;stroke-width:5.76"/>
	<line x1="763.66" y1="2172.62" x2="3844.54" y2="2172.62" style="stroke:#EAF2F3;stroke-width:8.64"/>
	<line x1="763.66" y1="1802.97" x2="3844.54" y2="1802.97" style="stroke:#EAF2F3;stroke-width:8.64"/>
	<line x1="763.66" y1="1433.44" x2="3844.54" y2="1433.44" style="stroke:#EAF2F3;stroke-width:8.64"/>
	<line x1="763.66" y1="1063.79" x2="3844.54" y2="1063.79" style="stroke:#EAF2F3;stroke-width:8.64"/>
	<path d=" M827.02 2172.62 L827.02 2172.62 L827.02 2172.62 L827.02 2172.62 L827.02 2172.62 L856.47 2172.62 L856.47 2172.62 L886.05 2172.62 L886.05 2172.62 L915.63 2172.62 L915.63 2172.62 L945.20 2172.62 L945.20 2172.62 L974.65 2172.62 L974.65 2172.62 L1004.23 2172.62 L1004.23 2172.62 L1033.81 2172.62 L1033.81 2172.62 L1063.38 2172.62 L1063.38 2172.62 L1092.84 2172.62 L1092.84 2172.62 L1122.41 2172.62 L1122.41 2172.62 L1151.99 2172.62 L1151.99 2172.62 L1181.44 2172.62 L1181.44 2172.62 L1211.02 2172.62 L1211.02 2172.62 L1240.59 2172.62 L1240.59 2172.62 L1270.17 2172.62 L1270.17 2172.62 L1299.62 2172.62 L1299.62 2172.62 L1329.20 2172.62 L1329.20 2172.62 L1358.78 2172.62 L1358.78 2172.62 L1388.23 2172.62 L1388.23 2172.62 L1417.80 2172.62 L1417.80 2172.62 L1447.38 2172.62 L1447.38 2172.62 L1476.96 2172.62 L1476.96 2172.62 L1506.41 2172.62 L1506.41 2172.62 L1535.98 2172.62 L1535.98 2172.62 L1565.56 2172.62 L1565.56 2170.89 L1595.14 2170.89 L1595.14 2169.16 L1624.59 2169.16 L1624.59 2165.82 L1654.17 2165.82 L1654.17 2162.35 L1683.74 2162.35 L1683.74 2158.89 L1713.19 2158.89 L1713.19 2153.81 L1742.77 2153.81 L1742.77 2150.35 L1772.35 2150.35 L1772.35 2148.61 L1801.92 2148.61 L1801.92 2145.27 L1831.38 2145.27 L1831.38 2141.81 L1860.95 2141.81 L1860.95 2133.27 L1890.53 2133.27 L1890.53 2133.27 L1919.98 2133.27 L1919.98 2131.54 L1949.56 2131.54 L1949.56 2117.80 L1979.13 2117.80 L1979.13 2114.33 L2008.71 2114.33 L2008.71 2109.26 L2038.16 2109.26 L2038.16 2107.53 L2067.74 2107.53 L2067.74 2097.26 L2097.32 2097.26 L2097.32 2093.79 L2126.77 2093.79 L2126.77 2088.72 L2156.34 2088.72 L2156.34 2080.06 L2185.92 2080.06 L2185.92 2078.32 L2215.50 2078.32 L2215.50 2073.25 L2244.95 2073.25 L2244.95 2069.78 L2274.53 2069.78 L2274.53 2069.78 L2304.10 2069.78 L2304.10 2068.05 L2333.68 2068.05 L2333.68 2064.71 L2363.13 2064.71 L2363.13 2062.98 L2392.71 2062.98 L2392.71 2056.05 L2422.28 2056.05 L2422.28 2049.24 L2451.74 2049.24 L2451.74 2047.51 L2481.31 2047.51 L2481.31 2044.04 L2510.89 2044.04 L2510.89 2044.04 L2540.46 2044.04 L2540.46 2040.58 L2569.92 2040.58 L2569.92 2038.84 L2599.49 2038.84 L2599.49 2035.50 L2629.07 2035.50 L2629.07 2032.04 L2658.52 2032.04 L2658.52 2023.38 L2688.10 2023.38 L2688.10 2023.38 L2717.67 2023.38 L2717.67 2021.77 L2747.25 2021.77 L2747.25 2021.77 L2776.70 2021.77 L2776.70 2016.57" stroke-linejoin="round" style="fill:none;stroke:#1A476F;stroke-width:8.64"/>
	<path d=" M827.02 2172.62 L827.02 2172.62 L827.02 2172.62 L827.02 2172.62 L827.02 2172.62 L856.47 2172.62 L856.47 2172.62 L915.63 2172.62 L915.63 2172.62 L945.20 2172.62 L945.20 2172.62 L974.65 2172.62 L974.65 2172.62 L1004.23 2172.62 L1004.23 2172.62 L1033.81 2172.62 L1033.81 2172.62 L1063.38 2172.62 L1063.38 2172.62 L1092.84 2172.62 L1092.84 2172.62 L1122.41 2172.62 L1122.41 2172.62 L1151.99 2172.62 L1151.99 2172.62 L1181.44 2172.62 L1181.44 2172.62 L1211.02 2172.62 L1211.02 2172.62 L1240.59 2172.62 L1240.59 2172.62 L1270.17 2172.62 L1270.17 2172.62 L1299.62 2172.62 L1299.62 2172.62 L1329.20 2172.62 L1329.20 2172.62 L1358.78 2172.62 L1358.78 2167.67 L1388.23 2167.67 L1388.23 2167.67 L1417.80 2167.67 L1417.80 2167.67 L1447.38 2167.67 L1447.38 2167.67 L1476.96 2167.67 L1476.96 2167.67 L1506.41 2167.67 L1506.41 2167.67 L1535.98 2167.67 L1535.98 2165.20 L1565.56 2165.20 L1565.56 2162.72 L1595.14 2162.72 L1595.14 2160.25 L1624.59 2160.25 L1624.59 2157.77 L1654.17 2157.77 L1654.17 2152.82 L1683.74 2152.82 L1683.74 2145.40 L1713.19 2145.40 L1713.19 2142.92 L1742.77 2142.92 L1742.77 2137.85 L1772.35 2137.85 L1772.35 2130.42 L1801.92 2130.42 L1801.92 2125.47 L1831.38 2125.47 L1831.38 2120.52 L1860.95 2120.52 L1860.95 2110.62 L1890.53 2110.62 L1890.53 2105.67 L1919.98 2105.67 L1919.98 2103.20 L1949.56 2103.20 L1949.56 2095.65 L1979.13 2095.65 L1979.13 2085.75 L2008.71 2085.75 L2008.71 2073.37 L2038.16 2073.37 L2038.16 2068.42 L2067.74 2068.42 L2067.74 2060.87 L2097.32 2060.87 L2097.32 2058.40 L2126.77 2058.40 L2126.77 2055.92 L2156.34 2055.92 L2156.34 2048.50 L2185.92 2048.50 L2185.92 2043.55 L2215.50 2043.55 L2215.50 2033.52 L2244.95 2033.52 L2244.95 2028.57 L2274.53 2028.57 L2274.53 2021.15 L2304.10 2021.15 L2304.10 2016.20 L2333.68 2016.20 L2333.68 2006.17 L2363.13 2006.17 L2363.13 2001.22 L2392.71 2001.22 L2392.71 1996.27 L2422.28 1996.27 L2422.28 1993.80 L2451.74 1993.80 L2451.74 1993.80 L2481.31 1993.80 L2481.31 1988.85 L2510.89 1988.85 L2510.89 1986.25 L2540.46 1986.25 L2540.46 1986.25 L2569.92 1986.25 L2569.92 1983.77 L2599.49 1983.77 L2599.49 1981.30 L2629.07 1981.30 L2629.07 1978.82 L2658.52 1978.82 L2658.52 1971.40 L2688.10 1971.40 L2688.10 1963.85 L2717.67 1963.85 L2717.67 1963.85 L2747.25 1963.85 L2747.25 1958.90 L2776.70 1958.90 L2776.70 1951.47" stroke-linejoin="round" style="fill:none;stroke:#90353B;stroke-width:8.64"/>
	<path d=" M827.02 2172.62 L827.02 2172.62 L827.02 2172.62 L827.02 2172.62 L827.02 2172.62 L856.47 2172.62 L856.47 2172.62 L886.05 2172.62 L886.05 2172.62 L915.63 2172.62 L915.63 2172.62 L945.20 2172.62 L945.20 2172.62 L974.65 2172.62 L974.65 2172.62 L1004.23 2172.62 L1004.23 2172.62 L1033.81 2172.62 L1033.81 2172.62 L1063.38 2172.62 L1063.38 2172.62 L1092.84 2172.62 L1092.84 2172.62 L1122.41 2172.62 L1122.41 2172.62 L1151.99 2172.62 L1151.99 2172.62 L1181.44 2172.62 L1181.44 2172.62 L1211.02 2172.62 L1211.02 2172.62 L1240.59 2172.62 L1240.59 2172.62 L1270.17 2172.62 L1270.17 2170.64 L1299.62 2170.64 L1299.62 2169.65 L1329.20 2169.65 L1329.20 2169.65 L1358.78 2169.65 L1358.78 2169.65 L1388.23 2169.65 L1388.23 2169.65 L1417.80 2169.65 L1417.80 2168.66 L1447.38 2168.66 L1447.38 2167.67 L1476.96 2167.67 L1476.96 2165.69 L1506.41 2165.69 L1506.41 2162.85 L1535.98 2162.85 L1535.98 2162.85 L1565.56 2162.85 L1565.56 2155.92 L1595.14 2155.92 L1595.14 2151.96 L1624.59 2151.96 L1624.59 2148.99 L1654.17 2148.99 L1654.17 2142.06 L1683.74 2142.06 L1683.74 2137.23 L1713.19 2137.23 L1713.19 2129.31 L1742.77 2129.31 L1742.77 2123.37 L1772.35 2123.37 L1772.35 2112.60 L1801.92 2112.60 L1801.92 2107.65 L1831.38 2107.65 L1831.38 2096.76 L1860.95 2096.76 L1860.95 2092.80 L1890.53 2092.80 L1890.53 2084.02 L1919.98 2084.02 L1919.98 2077.08 L1949.56 2077.08 L1949.56 2065.20 L1979.13 2065.20 L1979.13 2054.31 L2008.71 2054.31 L2008.71 2043.55 L2038.16 2043.55 L2038.16 2036.62 L2067.74 2036.62 L2067.74 2031.67 L2097.32 2031.67 L2097.32 2023.75 L2126.77 2023.75 L2126.77 2019.79 L2156.34 2019.79 L2156.34 2013.85 L2185.92 2013.85 L2185.92 2002.96 L2215.50 2002.96 L2215.50 2000.98 L2244.95 2000.98 L2244.95 1997.02 L2274.53 1997.02 L2274.53 1993.18 L2304.10 1993.18 L2304.10 1983.28 L2333.68 1983.28 L2333.68 1982.29 L2363.13 1982.29 L2363.13 1976.35 L2392.71 1976.35 L2392.71 1972.39 L2422.28 1972.39 L2422.28 1969.42 L2451.74 1969.42 L2451.74 1964.47 L2481.31 1964.47 L2481.31 1962.49 L2510.89 1962.49 L2510.89 1957.54 L2540.46 1957.54 L2540.46 1956.55 L2569.92 1956.55 L2569.92 1951.60 L2599.49 1951.60 L2599.49 1947.64 L2629.07 1947.64 L2629.07 1941.70 L2658.52 1941.70 L2658.52 1939.72 L2688.10 1939.72 L2688.10 1936.75 L2717.67 1936.75 L2717.67 1931.80 L2747.25 1931.80 L2747.25 1929.82 L2776.70 1929.82 L2776.70 1926.85" stroke-linejoin="round" style="fill:none;stroke:#55752F;stroke-width:8.64"/>
	<line x1="763.66" y1="2235.86" x2="763.66" y2="630.90" style="stroke:#000000;stroke-width:5.76"/>
	<line x1="763.66" y1="2172.62" x2="723.69" y2="2172.62" style="stroke:#000000;stroke-width:5.76"/>
	<text x="703.64" y="2200.63" style="font-family:'Helvetica';font-size:79.94px;fill:#000000" text-anchor="end">0.000</text>
	<line x1="763.66" y1="1802.97" x2="723.69" y2="1802.97" style="stroke:#000000;stroke-width:5.76"/>
	<text x="703.64" y="1830.98" style="font-family:'Helvetica';font-size:79.94px;fill:#000000" text-anchor="end">0.005</text>
	<line x1="763.66" y1="1433.44" x2="723.69" y2="1433.44" style="stroke:#000000;stroke-width:5.76"/>
	<text x="703.64" y="1461.45" style="font-family:'Helvetica';font-size:79.94px;fill:#000000" text-anchor="end">0.010</text>
	<line x1="763.66" y1="1063.79" x2="723.69" y2="1063.79" style="stroke:#000000;stroke-width:5.76"/>
	<text x="703.64" y="1091.80" style="font-family:'Helvetica';font-size:79.94px;fill:#000000" text-anchor="end">0.015</text>
	<line x1="763.66" y1="694.26" x2="723.69" y2="694.26" style="stroke:#000000;stroke-width:5.76"/>
	<text x="703.64" y="722.27" style="font-family:'Helvetica';font-size:79.94px;fill:#000000" text-anchor="end">0.020</text>
	<text x="827.02" y="2747.83" style="font-family:'Helvetica';font-size:60.02px;fill:#000000" text-anchor="middle">75362</text>
	<text x="1417.93" y="2747.83" style="font-family:'Helvetica';font-size:60.02px;fill:#000000" text-anchor="middle">75141</text>
	<text x="2008.71" y="2747.83" style="font-family:'Helvetica';font-size:60.02px;fill:#000000" text-anchor="middle">74767</text>
	<text x="2599.62" y="2747.83" style="font-family:'Helvetica';font-size:60.02px;fill:#000000" text-anchor="middle">74423</text>
	<text x="3190.40" y="2747.83" style="font-family:'Helvetica';font-size:60.02px;fill:#000000" text-anchor="middle">0</text>
	<text x="3781.18" y="2747.83" style="font-family:'Helvetica';font-size:60.02px;fill:#000000" text-anchor="middle">0</text>
	<text x="679.39" y="2747.83" style="font-family:'Helvetica';font-size:60.02px;fill:#000000" text-anchor="end">ICS Triple Combination</text>
	<text x="827.02" y="2674.44" style="font-family:'Helvetica';font-size:60.02px;fill:#000000" text-anchor="middle">29887</text>
	<text x="1417.93" y="2674.44" style="font-family:'Helvetica';font-size:60.02px;fill:#000000" text-anchor="middle">29822</text>
	<text x="2008.71" y="2674.44" style="font-family:'Helvetica';font-size:60.02px;fill:#000000" text-anchor="middle">29724</text>
	<text x="2599.62" y="2674.44" style="font-family:'Helvetica';font-size:60.02px;fill:#000000" text-anchor="middle">29605</text>
	<text x="3190.40" y="2674.44" style="font-family:'Helvetica';font-size:60.02px;fill:#000000" text-anchor="middle">0</text>
	<text x="3781.18" y="2674.44" style="font-family:'Helvetica';font-size:60.02px;fill:#000000" text-anchor="middle">0</text>
	<text x="679.39" y="2674.44" style="font-family:'Helvetica';font-size:60.02px;fill:#000000" text-anchor="end">ICS Dual Combination</text>
	<text x="827.02" y="2601.18" style="font-family:'Helvetica';font-size:60.02px;fill:#000000" text-anchor="middle">43308</text>
	<text x="1417.93" y="2601.18" style="font-family:'Helvetica';font-size:60.02px;fill:#000000" text-anchor="middle">43222</text>
	<text x="2008.71" y="2601.18" style="font-family:'Helvetica';font-size:60.02px;fill:#000000" text-anchor="middle">43088</text>
	<text x="2599.62" y="2601.18" style="font-family:'Helvetica';font-size:60.02px;fill:#000000" text-anchor="middle">42942</text>
	<text x="3190.40" y="2601.18" style="font-family:'Helvetica';font-size:60.02px;fill:#000000" text-anchor="middle">0</text>
	<text x="3781.18" y="2601.18" style="font-family:'Helvetica';font-size:60.02px;fill:#000000" text-anchor="middle">0</text>
	<text x="679.39" y="2601.18" style="font-family:'Helvetica';font-size:60.02px;fill:#000000" text-anchor="end">LABA/LAMA Combination</text>
	<text x="679.39" y="2527.80" style="font-family:'Helvetica';font-size:60.02px;fill:#000000" text-anchor="end">Number at risk</text>
	<line x1="763.66" y1="2235.86" x2="3844.54" y2="2235.86" style="stroke:#000000;stroke-width:5.76"/>
	<line x1="827.02" y1="2235.86" x2="827.02" y2="2275.96" style="stroke:#000000;stroke-width:5.76"/>
	<text x="827.02" y="2351.78" style="font-family:'Helvetica';font-size:79.94px;fill:#000000" text-anchor="middle">0</text>
	<line x1="1417.93" y1="2235.86" x2="1417.93" y2="2275.96" style="stroke:#000000;stroke-width:5.76"/>
	<text x="1417.93" y="2351.78" style="font-family:'Helvetica';font-size:79.94px;fill:#000000" text-anchor="middle">20</text>
	<line x1="2008.71" y1="2235.86" x2="2008.71" y2="2275.96" style="stroke:#000000;stroke-width:5.76"/>
	<text x="2008.71" y="2351.78" style="font-family:'Helvetica';font-size:79.94px;fill:#000000" text-anchor="middle">40</text>
	<line x1="2599.62" y1="2235.86" x2="2599.62" y2="2275.96" style="stroke:#000000;stroke-width:5.76"/>
	<text x="2599.62" y="2351.78" style="font-family:'Helvetica';font-size:79.94px;fill:#000000" text-anchor="middle">60</text>
	<line x1="3190.40" y1="2235.86" x2="3190.40" y2="2275.96" style="stroke:#000000;stroke-width:5.76"/>
	<text x="3190.40" y="2351.78" style="font-family:'Helvetica';font-size:79.94px;fill:#000000" text-anchor="middle">80</text>
	<line x1="3781.18" y1="2235.86" x2="3781.18" y2="2275.96" style="stroke:#000000;stroke-width:5.76"/>
	<text x="3781.18" y="2351.78" style="font-family:'Helvetica';font-size:79.94px;fill:#000000" text-anchor="middle">100</text>
	<text x="2304.10" y="2441.87" style="font-family:'Helvetica';font-size:79.94px;fill:#000000" text-anchor="middle">Days since 1 Mar 2020</text>
	<rect x="1096.80" y="269.91" width="2414.61" height="326.46" style="fill:#FFFFFF"/>
	<rect x="1099.68" y="272.79" width="2408.85" height="320.70" style="fill:none;stroke:#EAF2F3;stroke-width:5.76"/>
	<line x1="1139.98" y1="363.09" x2="1514.45" y2="363.09" style="stroke:#1A476F;stroke-width:8.64"/>
	<line x1="2421.42" y1="363.09" x2="2795.76" y2="363.09" style="stroke:#90353B;stroke-width:8.64"/>
	<line x1="1139.98" y1="503.06" x2="1514.45" y2="503.06" style="stroke:#55752F;stroke-width:8.64"/>
	<text x="1574.47" y="384.13" style="font-family:'Helvetica';font-size:60.02px;fill:#000000">LABA/LAMA Combination</text>
	<text x="2855.78" y="384.13" style="font-family:'Helvetica';font-size:60.02px;fill:#000000">ICS Dual Combination</text>
	<text x="1574.47" y="524.10" style="font-family:'Helvetica';font-size:60.02px;fill:#000000">ICS Triple Combination</text>
	<text x="780.99" y="187.99" style="font-family:'Helvetica';font-size:99.99px;fill:#1E2D53">Time to COVID-19 Death in ONS, COPD - Sensitivity Exposure Definition population</text>
</svg>
