<?xml version="1.0" encoding="UTF-8" standalone="no"?>
<!-- This is a Stata 16.1 generated SVG file (http://www.stata.com) -->

<svg version="1.1" width="5.50in" height="4.00in" viewBox="0 0 3960 2880" xmlns="http://www.w3.org/2000/svg" xmlns:xlink="http://www.w3.org/1999/xlink">
	<desc>Stata Graph - Graph</desc>
	<rect x="0" y="0" width="3960" height="2880" style="fill:#EAF2F3;stroke:none"/>
	<rect x="0.00" y="0.00" width="3959.88" height="2880.00" style="fill:#FFFFFF"/>
	<rect x="2.88" y="2.88" width="3954.12" height="2874.24" style="fill:none;stroke:#EAF2F3;stroke-width:5.76"/>
	<rect x="424.09" y="235.38" width="3434.93" height="2038.35" style="fill:#FFFFFF"/>
	<rect x="426.97" y="238.26" width="3429.17" height="2032.59" style="fill:none;stroke:#FFFFFF;stroke-width:5.76"/>
	<line x1="424.09" y1="2210.37" x2="3859.02" y2="2210.37" style="stroke:#EAF2F3;stroke-width:8.64"/>
	<line x1="424.09" y1="1828.09" x2="3859.02" y2="1828.09" style="stroke:#EAF2F3;stroke-width:8.64"/>
	<line x1="424.09" y1="1445.69" x2="3859.02" y2="1445.69" style="stroke:#EAF2F3;stroke-width:8.64"/>
	<line x1="424.09" y1="1063.42" x2="3859.02" y2="1063.42" style="stroke:#EAF2F3;stroke-width:8.64"/>
	<line x1="424.09" y1="681.02" x2="3859.02" y2="681.02" style="stroke:#EAF2F3;stroke-width:8.64"/>
	<line x1="424.09" y1="298.74" x2="3859.02" y2="298.74" style="stroke:#EAF2F3;stroke-width:8.64"/>
	<path d=" M487.33 2210.49 L487.33 2210.49 L487.33 2210.49 L520.37 2210.49 L520.37 2210.49 L553.53 2210.49 L553.53 2210.49 L586.58 2210.49 L586.58 2210.49 L619.62 2210.49 L619.62 2210.49 L652.78 2210.49 L652.78 2210.49 L685.82 2210.49 L685.82 2210.49 L718.99 2210.49 L718.99 2210.49 L752.03 2210.49 L752.03 2210.49 L785.07 2210.49 L785.07 2210.49 L818.24 2210.49 L818.24 2210.49 L851.28 2210.49 L851.28 2210.49 L884.32 2210.49 L884.32 2210.49 L917.48 2210.49 L917.48 2210.49 L950.52 2210.49 L950.52 2210.49 L983.57 2210.49 L983.57 2210.49 L1016.73 2210.49 L1016.73 2210.49 L1049.77 2210.49 L1049.77 2202.20 L1082.81 2202.20 L1082.81 2202.20 L1115.98 2202.20 L1115.98 2202.20 L1149.02 2202.20 L1149.02 2202.20 L1182.06 2202.20 L1182.06 2193.91 L1215.22 2193.91 L1215.22 2193.91 L1248.27 2193.91 L1248.27 2193.91 L1281.31 2193.91 L1281.31 2193.91 L1314.47 2193.91 L1314.47 2177.45 L1347.51 2177.45 L1347.51 2177.45 L1380.56 2177.45 L1380.56 2160.99 L1413.72 2160.99 L1413.72 2152.70 L1446.76 2152.70 L1446.76 2119.66 L1479.80 2119.66 L1479.80 2111.36 L1512.97 2111.36 L1512.97 2103.20 L1546.01 2103.20 L1546.01 2086.61 L1579.05 2086.61 L1579.05 2070.15 L1612.21 2070.15 L1612.21 2045.40 L1645.26 2045.40 L1645.26 2004.07 L1678.30 2004.07 L1678.30 2004.07 L1711.46 2004.07 L1711.46 1995.78 L1744.50 1995.78 L1744.50 1937.99 L1777.55 1937.99 L1777.55 1921.40 L1810.71 1921.40 L1810.71 1913.11 L1843.75 1913.11 L1843.75 1888.36 L1876.79 1888.36 L1876.79 1855.32 L1909.96 1855.32 L1909.96 1838.73 L1943.00 1838.73 L1943.00 1813.98 L1976.04 1813.98 L1976.04 1797.40 L2009.20 1797.40 L2009.20 1780.82 L2042.25 1780.82 L2042.25 1756.07 L2075.29 1756.07 L2075.29 1739.48 L2108.45 1739.48 L2108.45 1739.48 L2141.49 1739.48 L2141.49 1731.19 L2174.53 1731.19 L2174.53 1722.90 L2207.70 1722.90 L2207.70 1722.90 L2240.74 1722.90 L2240.74 1706.44 L2273.78 1706.44 L2273.78 1689.86 L2306.95 1689.86 L2306.95 1681.57" stroke-linejoin="round" style="fill:none;stroke:#1A476F;stroke-width:8.64"/>
	<path d=" M487.33 2210.49 L487.33 2210.49 L487.33 2210.49 L520.37 2210.49 L520.37 2210.49 L553.53 2210.49 L553.53 2210.49 L586.58 2210.49 L586.58 2210.49 L619.62 2210.49 L619.62 2210.49 L652.78 2210.49 L652.78 2210.49 L685.82 2210.49 L685.82 2210.49 L718.99 2210.49 L718.99 2210.49 L752.03 2210.49 L752.03 2210.49 L785.07 2210.49 L785.07 2210.49 L818.24 2210.49 L818.24 2210.49 L851.28 2210.49 L851.28 2210.49 L884.32 2210.49 L884.32 2210.49 L917.48 2210.49 L917.48 2210.49 L950.52 2210.49 L950.52 2210.49 L983.57 2210.49 L983.57 2204.06 L1016.73 2204.06 L1016.73 2204.06 L1049.77 2204.06 L1049.77 2204.06 L1082.81 2204.06 L1082.81 2200.96 L1115.98 2200.96 L1115.98 2200.96 L1149.02 2200.96 L1149.02 2200.96 L1182.06 2200.96 L1182.06 2197.74 L1215.22 2197.74 L1215.22 2191.43 L1248.27 2191.43 L1248.27 2185.00 L1281.31 2185.00 L1281.31 2181.90 L1314.47 2181.90 L1314.47 2150.10 L1347.51 2150.10 L1347.51 2131.04 L1380.56 2131.04 L1380.56 2111.98 L1413.72 2111.98 L1413.72 2080.18 L1446.76 2080.18 L1446.76 2048.37 L1479.80 2048.37 L1479.80 2016.69 L1512.97 2016.69 L1512.97 1997.51 L1546.01 1997.51 L1546.01 1956.18 L1579.05 1956.18 L1579.05 1924.37 L1612.21 1924.37 L1612.21 1867.20 L1645.26 1867.20 L1645.26 1844.92 L1678.30 1844.92 L1678.30 1816.21 L1711.46 1816.21 L1711.46 1793.94 L1744.50 1793.94 L1744.50 1755.82 L1777.55 1755.82 L1777.55 1717.58 L1810.71 1717.58 L1810.71 1673.03 L1843.75 1673.03 L1843.75 1653.85 L1876.79 1653.85 L1876.79 1625.26 L1909.96 1625.26 L1909.96 1599.77 L1943.00 1599.77 L1943.00 1587.02 L1976.04 1587.02 L1976.04 1574.27 L2009.20 1574.27 L2009.20 1539.13 L2042.25 1539.13 L2042.25 1510.54 L2075.29 1510.54 L2075.29 1478.61 L2108.45 1478.61 L2108.45 1462.65 L2141.49 1462.65 L2141.49 1433.94 L2174.53 1433.94 L2174.53 1430.72 L2207.70 1430.72 L2207.70 1421.19 L2240.74 1421.19 L2240.74 1405.23 L2273.78 1405.23 L2273.78 1395.57 L2306.95 1395.57 L2306.95 1386.04" stroke-linejoin="round" style="fill:none;stroke:#90353B;stroke-width:8.64"/>
	<line x1="424.09" y1="2273.73" x2="424.09" y2="235.38" style="stroke:#000000;stroke-width:5.76"/>
	<line x1="424.09" y1="2210.37" x2="384.00" y2="2210.37" style="stroke:#000000;stroke-width:5.76"/>
	<text x="364.07" y="2238.38" style="font-family:'Helvetica';font-size:79.94px;fill:#000000" text-anchor="end">0.000</text>
	<line x1="424.09" y1="1828.09" x2="384.00" y2="1828.09" style="stroke:#000000;stroke-width:5.76"/>
	<text x="364.07" y="1856.10" style="font-family:'Helvetica';font-size:79.94px;fill:#000000" text-anchor="end">0.001</text>
	<line x1="424.09" y1="1445.69" x2="384.00" y2="1445.69" style="stroke:#000000;stroke-width:5.76"/>
	<text x="364.07" y="1473.70" style="font-family:'Helvetica';font-size:79.94px;fill:#000000" text-anchor="end">0.002</text>
	<line x1="424.09" y1="1063.42" x2="384.00" y2="1063.42" style="stroke:#000000;stroke-width:5.76"/>
	<text x="364.07" y="1091.43" style="font-family:'Helvetica';font-size:79.94px;fill:#000000" text-anchor="end">0.003</text>
	<line x1="424.09" y1="681.02" x2="384.00" y2="681.02" style="stroke:#000000;stroke-width:5.76"/>
	<text x="364.07" y="709.03" style="font-family:'Helvetica';font-size:79.94px;fill:#000000" text-anchor="end">0.004</text>
	<line x1="424.09" y1="298.74" x2="384.00" y2="298.74" style="stroke:#000000;stroke-width:5.76"/>
	<text x="364.07" y="326.75" style="font-family:'Helvetica';font-size:79.94px;fill:#000000" text-anchor="end">0.005</text>
	<line x1="424.09" y1="2273.73" x2="3859.02" y2="2273.73" style="stroke:#000000;stroke-width:5.76"/>
	<line x1="487.45" y1="2273.73" x2="487.45" y2="2313.70" style="stroke:#000000;stroke-width:5.76"/>
	<text x="487.45" y="2389.65" style="font-family:'Helvetica';font-size:79.94px;fill:#000000" text-anchor="middle">0</text>
	<line x1="1149.02" y1="2273.73" x2="1149.02" y2="2313.70" style="stroke:#000000;stroke-width:5.76"/>
	<text x="1149.02" y="2389.65" style="font-family:'Helvetica';font-size:79.94px;fill:#000000" text-anchor="middle">20</text>
	<line x1="1810.71" y1="2273.73" x2="1810.71" y2="2313.70" style="stroke:#000000;stroke-width:5.76"/>
	<text x="1810.71" y="2389.65" style="font-family:'Helvetica';font-size:79.94px;fill:#000000" text-anchor="middle">40</text>
	<line x1="2472.40" y1="2273.73" x2="2472.40" y2="2313.70" style="stroke:#000000;stroke-width:5.76"/>
	<text x="2472.40" y="2389.65" style="font-family:'Helvetica';font-size:79.94px;fill:#000000" text-anchor="middle">60</text>
	<line x1="3134.09" y1="2273.73" x2="3134.09" y2="2313.70" style="stroke:#000000;stroke-width:5.76"/>
	<text x="3134.09" y="2389.65" style="font-family:'Helvetica';font-size:79.94px;fill:#000000" text-anchor="middle">80</text>
	<line x1="3795.66" y1="2273.73" x2="3795.66" y2="2313.70" style="stroke:#000000;stroke-width:5.76"/>
	<text x="3795.66" y="2389.65" style="font-family:'Helvetica';font-size:79.94px;fill:#000000" text-anchor="middle">100</text>
	<text x="2141.62" y="2479.62" style="font-family:'Helvetica';font-size:79.94px;fill:#000000" text-anchor="middle">Days since 1 Mar 2020</text>
	<rect x="810.19" y="2558.24" width="2662.73" height="186.37" style="fill:#FFFFFF"/>
	<rect x="813.07" y="2561.12" width="2656.97" height="180.61" style="fill:none;stroke:#EAF2F3;stroke-width:5.76"/>
	<line x1="853.38" y1="2651.43" x2="1227.85" y2="2651.43" style="stroke:#90353B;stroke-width:8.64"/>
	<line x1="2052.89" y1="2651.43" x2="2427.36" y2="2651.43" style="stroke:#1A476F;stroke-width:8.64"/>
	<text x="1287.87" y="2679.44" style="font-family:'Helvetica';font-size:79.94px;fill:#000000">ICS Combination</text>
	<text x="2487.38" y="2679.44" style="font-family:'Helvetica';font-size:79.94px;fill:#000000">LABA/LAMA Combination</text>
	<text x="2141.62" y="187.99" style="font-family:'Helvetica';font-size:99.99px;fill:#1E2D53" text-anchor="middle">Time to Hospital COVID-19 death, by COPD combination treatment</text>
</svg>
