<?xml version="1.0" encoding="UTF-8" standalone="no"?>
<!-- This is a Stata 16.1 generated SVG file (http://www.stata.com) -->

<svg version="1.1" width="5.50in" height="4.00in" viewBox="0 0 3960 2880" xmlns="http://www.w3.org/2000/svg" xmlns:xlink="http://www.w3.org/1999/xlink">
	<desc>Stata Graph - Graph</desc>
	<rect x="0" y="0" width="3960" height="2880" style="fill:#EAF2F3;stroke:none"/>
	<rect x="0.00" y="0.00" width="3959.88" height="2880.00" style="fill:#FFFFFF"/>
	<rect x="2.88" y="2.88" width="3954.12" height="2874.24" style="fill:none;stroke:#EAF2F3;stroke-width:5.76"/>
	<rect x="801.28" y="630.90" width="3041.90" height="1604.96" style="fill:#FFFFFF"/>
	<rect x="804.16" y="633.78" width="3036.14" height="1599.20" style="fill:none;stroke:#FFFFFF;stroke-width:5.76"/>
	<line x1="801.28" y1="2172.62" x2="3843.18" y2="2172.62" style="stroke:#EAF2F3;stroke-width:8.64"/>
	<line x1="801.28" y1="1802.97" x2="3843.18" y2="1802.97" style="stroke:#EAF2F3;stroke-width:8.64"/>
	<line x1="801.28" y1="1433.44" x2="3843.18" y2="1433.44" style="stroke:#EAF2F3;stroke-width:8.64"/>
	<line x1="801.28" y1="1063.79" x2="3843.18" y2="1063.79" style="stroke:#EAF2F3;stroke-width:8.64"/>
	<path d=" M864.64 2172.62 L864.64 2172.62 L864.64 2172.62 L864.64 2172.62 L864.64 2172.62 L893.72 2172.62 L893.72 2172.62 L922.93 2172.62 L922.93 2172.62 L952.01 2172.62 L952.01 2172.62 L981.21 2172.62 L981.21 2172.62 L1010.29 2172.62 L1010.29 2172.62 L1039.50 2172.62 L1039.50 2172.62 L1068.70 2172.62 L1068.70 2172.62 L1097.79 2172.62 L1097.79 2172.62 L1126.99 2172.62 L1126.99 2172.62 L1156.07 2172.62 L1156.07 2172.62 L1185.28 2172.62 L1185.28 2172.62 L1214.36 2172.62 L1214.36 2172.62 L1243.56 2172.62 L1243.56 2172.62 L1272.77 2172.62 L1272.77 2172.62 L1301.85 2172.62 L1301.85 2172.62 L1331.06 2172.62 L1331.06 2172.62 L1360.14 2172.62 L1360.14 2172.62 L1389.34 2172.62 L1389.34 2172.62 L1418.42 2172.62 L1418.42 2172.62 L1447.63 2172.62 L1447.63 2172.62 L1476.83 2172.62 L1476.83 2172.62 L1505.91 2172.62 L1505.91 2172.62 L1535.12 2172.62 L1535.12 2172.62 L1564.20 2172.62 L1564.20 2172.62 L1593.40 2172.62 L1593.40 2170.89 L1622.49 2170.89 L1622.49 2169.16 L1651.69 2169.16 L1651.69 2165.82 L1680.90 2165.82 L1680.90 2162.35 L1709.98 2162.35 L1709.98 2158.89 L1739.18 2158.89 L1739.18 2153.81 L1768.26 2153.81 L1768.26 2150.35 L1797.47 2150.35 L1797.47 2148.61 L1826.55 2148.61 L1826.55 2145.15 L1855.76 2145.15 L1855.76 2141.81 L1884.96 2141.81 L1884.96 2133.27 L1914.04 2133.27 L1914.04 2133.27 L1943.25 2133.27 L1943.25 2131.54 L1972.33 2131.54 L1972.33 2117.80 L2001.53 2117.80 L2001.53 2114.33 L2030.61 2114.33 L2030.61 2109.26 L2059.82 2109.26 L2059.82 2107.53 L2089.02 2107.53 L2089.02 2097.13 L2118.11 2097.13 L2118.11 2093.79 L2147.31 2093.79 L2147.31 2088.59 L2176.39 2088.59 L2176.39 2080.06 L2205.60 2080.06 L2205.60 2078.32 L2234.80 2078.32 L2234.80 2073.12 L2263.88 2073.12 L2263.88 2069.78 L2293.09 2069.78 L2293.09 2069.78 L2322.17 2069.78 L2322.17 2068.05 L2351.37 2068.05 L2351.37 2064.59 L2380.45 2064.59 L2380.45 2062.85 L2409.66 2062.85 L2409.66 2056.05 L2438.86 2056.05 L2438.86 2049.12 L2467.95 2049.12 L2467.95 2047.38 L2497.15 2047.38 L2497.15 2043.92 L2526.23 2043.92 L2526.23 2043.92 L2555.44 2043.92 L2555.44 2040.58 L2584.52 2040.58 L2584.52 2038.84 L2613.72 2038.84 L2613.72 2035.38 L2642.93 2035.38 L2642.93 2031.91 L2672.01 2031.91 L2672.01 2023.38" stroke-linejoin="round" style="fill:none;stroke:#1A476F;stroke-width:8.64"/>
	<path d=" M864.64 2172.62 L864.64 2172.62 L864.64 2172.62 L864.64 2172.62 L864.64 2172.62 L893.72 2172.62 L893.72 2172.62 L952.01 2172.62 L952.01 2172.62 L981.21 2172.62 L981.21 2172.62 L1010.29 2172.62 L1010.29 2172.62 L1039.50 2172.62 L1039.50 2172.62 L1068.70 2172.62 L1068.70 2172.62 L1097.79 2172.62 L1097.79 2172.62 L1126.99 2172.62 L1126.99 2172.62 L1156.07 2172.62 L1156.07 2172.62 L1185.28 2172.62 L1185.28 2172.62 L1214.36 2172.62 L1214.36 2172.62 L1243.56 2172.62 L1243.56 2172.62 L1272.77 2172.62 L1272.77 2172.62 L1301.85 2172.62 L1301.85 2172.62 L1331.06 2172.62 L1331.06 2172.62 L1360.14 2172.62 L1360.14 2172.62 L1389.34 2172.62 L1389.34 2167.92 L1418.42 2167.92 L1418.42 2167.92 L1447.63 2167.92 L1447.63 2167.92 L1476.83 2167.92 L1476.83 2167.92 L1505.91 2167.92 L1505.91 2167.92 L1535.12 2167.92 L1535.12 2167.92 L1564.20 2167.92 L1564.20 2165.57 L1593.40 2165.57 L1593.40 2163.09 L1622.49 2163.09 L1622.49 2160.74 L1651.69 2160.74 L1651.69 2158.39 L1680.90 2158.39 L1680.90 2153.69 L1709.98 2153.69 L1709.98 2146.51 L1739.18 2146.51 L1739.18 2144.16 L1768.26 2144.16 L1768.26 2139.33 L1797.47 2139.33 L1797.47 2132.28 L1826.55 2132.28 L1826.55 2127.45 L1855.76 2127.45 L1855.76 2122.75 L1884.96 2122.75 L1884.96 2113.22 L1914.04 2113.22 L1914.04 2108.52 L1943.25 2108.52 L1943.25 2106.17 L1972.33 2106.17 L1972.33 2098.99 L2001.53 2098.99 L2001.53 2089.46 L2030.61 2089.46 L2030.61 2077.58 L2059.82 2077.58 L2059.82 2072.88 L2089.02 2072.88 L2089.02 2065.70 L2118.11 2065.70 L2118.11 2063.35 L2147.31 2063.35 L2147.31 2061.00 L2176.39 2061.00 L2176.39 2053.82 L2205.60 2053.82 L2205.60 2046.64 L2234.80 2046.64 L2234.80 2037.11 L2263.88 2037.11 L2263.88 2032.41 L2293.09 2032.41 L2293.09 2025.23 L2322.17 2025.23 L2322.17 2020.53 L2351.37 2020.53 L2351.37 2011.00 L2380.45 2011.00 L2380.45 2006.17 L2409.66 2006.17 L2409.66 2001.47 L2438.86 2001.47 L2438.86 1999.12 L2467.95 1999.12 L2467.95 1999.12 L2497.15 1999.12 L2497.15 1994.29 L2526.23 1994.29 L2526.23 1991.94 L2555.44 1991.94 L2555.44 1991.94 L2584.52 1991.94 L2584.52 1989.59 L2613.72 1989.59 L2613.72 1987.12 L2642.93 1987.12 L2642.93 1984.76 L2672.01 1984.76 L2672.01 1977.59" stroke-linejoin="round" style="fill:none;stroke:#90353B;stroke-width:8.64"/>
	<path d=" M864.64 2172.62 L864.64 2172.62 L864.64 2172.62 L864.64 2172.62 L864.64 2172.62 L893.72 2172.62 L893.72 2172.62 L922.93 2172.62 L922.93 2172.62 L952.01 2172.62 L952.01 2172.62 L981.21 2172.62 L981.21 2172.62 L1010.29 2172.62 L1010.29 2172.62 L1039.50 2172.62 L1039.50 2172.62 L1068.70 2172.62 L1068.70 2172.62 L1097.79 2172.62 L1097.79 2172.62 L1126.99 2172.62 L1126.99 2172.62 L1156.07 2172.62 L1156.07 2172.62 L1185.28 2172.62 L1185.28 2172.62 L1214.36 2172.62 L1214.36 2172.62 L1243.56 2172.62 L1243.56 2172.62 L1272.77 2172.62 L1272.77 2172.62 L1301.85 2172.62 L1301.85 2170.64 L1331.06 2170.64 L1331.06 2169.65 L1360.14 2169.65 L1360.14 2169.65 L1389.34 2169.65 L1389.34 2169.65 L1418.42 2169.65 L1418.42 2169.65 L1447.63 2169.65 L1447.63 2168.66 L1476.83 2168.66 L1476.83 2167.67 L1505.91 2167.67 L1505.91 2165.69 L1535.12 2165.69 L1535.12 2162.85 L1564.20 2162.85 L1564.20 2162.85 L1593.40 2162.85 L1593.40 2155.92 L1622.49 2155.92 L1622.49 2151.96 L1651.69 2151.96 L1651.69 2148.99 L1680.90 2148.99 L1680.90 2142.06 L1709.98 2142.06 L1709.98 2137.23 L1739.18 2137.23 L1739.18 2129.31 L1768.26 2129.31 L1768.26 2123.37 L1797.47 2123.37 L1797.47 2112.60 L1826.55 2112.60 L1826.55 2107.65 L1855.76 2107.65 L1855.76 2096.76 L1884.96 2096.76 L1884.96 2092.80 L1914.04 2092.80 L1914.04 2083.89 L1943.25 2083.89 L1943.25 2077.08 L1972.33 2077.08 L1972.33 2065.20 L2001.53 2065.20 L2001.53 2054.31 L2030.61 2054.31 L2030.61 2043.55 L2059.82 2043.55 L2059.82 2036.62 L2089.02 2036.62 L2089.02 2031.67 L2118.11 2031.67 L2118.11 2023.75 L2147.31 2023.75 L2147.31 2019.79 L2176.39 2019.79 L2176.39 2013.85 L2205.60 2013.85 L2205.60 2002.96 L2234.80 2002.96 L2234.80 2000.98 L2263.88 2000.98 L2263.88 1997.02 L2293.09 1997.02 L2293.09 1993.06 L2322.17 1993.06 L2322.17 1983.28 L2351.37 1983.28 L2351.37 1982.29 L2380.45 1982.29 L2380.45 1976.35 L2409.66 1976.35 L2409.66 1972.39 L2438.86 1972.39 L2438.86 1969.42 L2467.95 1969.42 L2467.95 1964.47 L2497.15 1964.47 L2497.15 1962.49 L2526.23 1962.49 L2526.23 1957.54 L2555.44 1957.54 L2555.44 1956.55 L2584.52 1956.55 L2584.52 1952.59 L2613.72 1952.59 L2613.72 1949.62 L2642.93 1949.62 L2642.93 1944.67 L2672.01 1944.67 L2672.01 1942.69" stroke-linejoin="round" style="fill:none;stroke:#55752F;stroke-width:8.64"/>
	<line x1="801.28" y1="2235.86" x2="801.28" y2="630.90" style="stroke:#000000;stroke-width:5.76"/>
	<line x1="801.28" y1="2172.62" x2="761.31" y2="2172.62" style="stroke:#000000;stroke-width:5.76"/>
	<text x="741.26" y="2200.63" style="font-family:'Helvetica';font-size:79.94px;fill:#000000" text-anchor="end">0.000</text>
	<line x1="801.28" y1="1802.97" x2="761.31" y2="1802.97" style="stroke:#000000;stroke-width:5.76"/>
	<text x="741.26" y="1830.98" style="font-family:'Helvetica';font-size:79.94px;fill:#000000" text-anchor="end">0.005</text>
	<line x1="801.28" y1="1433.44" x2="761.31" y2="1433.44" style="stroke:#000000;stroke-width:5.76"/>
	<text x="741.26" y="1461.45" style="font-family:'Helvetica';font-size:79.94px;fill:#000000" text-anchor="end">0.010</text>
	<line x1="801.28" y1="1063.79" x2="761.31" y2="1063.79" style="stroke:#000000;stroke-width:5.76"/>
	<text x="741.26" y="1091.80" style="font-family:'Helvetica';font-size:79.94px;fill:#000000" text-anchor="end">0.015</text>
	<line x1="801.28" y1="694.26" x2="761.31" y2="694.26" style="stroke:#000000;stroke-width:5.76"/>
	<text x="741.26" y="722.27" style="font-family:'Helvetica';font-size:79.94px;fill:#000000" text-anchor="end">0.020</text>
	<text x="864.64" y="2747.83" style="font-family:'Helvetica';font-size:60.02px;fill:#000000" text-anchor="middle">75354</text>
	<text x="1447.75" y="2747.83" style="font-family:'Helvetica';font-size:60.02px;fill:#000000" text-anchor="middle">75135</text>
	<text x="2030.74" y="2747.83" style="font-family:'Helvetica';font-size:60.02px;fill:#000000" text-anchor="middle">74761</text>
	<text x="2613.72" y="2747.83" style="font-family:'Helvetica';font-size:60.02px;fill:#000000" text-anchor="middle">74429</text>
	<text x="3196.83" y="2747.83" style="font-family:'Helvetica';font-size:60.02px;fill:#000000" text-anchor="middle">0</text>
	<text x="3779.82" y="2747.83" style="font-family:'Helvetica';font-size:60.02px;fill:#000000" text-anchor="middle">0</text>
	<text x="718.86" y="2747.83" style="font-family:'Helvetica';font-size:60.02px;fill:#000000" text-anchor="end">ICS Triple Combination</text>
	<text x="864.64" y="2674.44" style="font-family:'Helvetica';font-size:60.02px;fill:#000000" text-anchor="middle">31230</text>
	<text x="1447.75" y="2674.44" style="font-family:'Helvetica';font-size:60.02px;fill:#000000" text-anchor="middle">31161</text>
	<text x="2030.74" y="2674.44" style="font-family:'Helvetica';font-size:60.02px;fill:#000000" text-anchor="middle">31058</text>
	<text x="2613.72" y="2674.44" style="font-family:'Helvetica';font-size:60.02px;fill:#000000" text-anchor="middle">30942</text>
	<text x="3196.83" y="2674.44" style="font-family:'Helvetica';font-size:60.02px;fill:#000000" text-anchor="middle">0</text>
	<text x="3779.82" y="2674.44" style="font-family:'Helvetica';font-size:60.02px;fill:#000000" text-anchor="middle">0</text>
	<text x="718.86" y="2674.44" style="font-family:'Helvetica';font-size:60.02px;fill:#000000" text-anchor="end">ICS Dual Combination</text>
	<text x="864.64" y="2601.18" style="font-family:'Helvetica';font-size:60.02px;fill:#000000" text-anchor="middle">43276</text>
	<text x="1447.75" y="2601.18" style="font-family:'Helvetica';font-size:60.02px;fill:#000000" text-anchor="middle">43191</text>
	<text x="2030.74" y="2601.18" style="font-family:'Helvetica';font-size:60.02px;fill:#000000" text-anchor="middle">43059</text>
	<text x="2613.72" y="2601.18" style="font-family:'Helvetica';font-size:60.02px;fill:#000000" text-anchor="middle">42917</text>
	<text x="3196.83" y="2601.18" style="font-family:'Helvetica';font-size:60.02px;fill:#000000" text-anchor="middle">0</text>
	<text x="3779.82" y="2601.18" style="font-family:'Helvetica';font-size:60.02px;fill:#000000" text-anchor="middle">0</text>
	<text x="718.86" y="2601.18" style="font-family:'Helvetica';font-size:60.02px;fill:#000000" text-anchor="end">LABA/LAMA Combination</text>
	<text x="718.86" y="2527.80" style="font-family:'Helvetica';font-size:60.02px;fill:#000000" text-anchor="end">Number at risk</text>
	<line x1="801.28" y1="2235.86" x2="3843.18" y2="2235.86" style="stroke:#000000;stroke-width:5.76"/>
	<line x1="864.64" y1="2235.86" x2="864.64" y2="2275.96" style="stroke:#000000;stroke-width:5.76"/>
	<text x="864.64" y="2351.78" style="font-family:'Helvetica';font-size:79.94px;fill:#000000" text-anchor="middle">0</text>
	<line x1="1447.75" y1="2235.86" x2="1447.75" y2="2275.96" style="stroke:#000000;stroke-width:5.76"/>
	<text x="1447.75" y="2351.78" style="font-family:'Helvetica';font-size:79.94px;fill:#000000" text-anchor="middle">20</text>
	<line x1="2030.74" y1="2235.86" x2="2030.74" y2="2275.96" style="stroke:#000000;stroke-width:5.76"/>
	<text x="2030.74" y="2351.78" style="font-family:'Helvetica';font-size:79.94px;fill:#000000" text-anchor="middle">40</text>
	<line x1="2613.72" y1="2235.86" x2="2613.72" y2="2275.96" style="stroke:#000000;stroke-width:5.76"/>
	<text x="2613.72" y="2351.78" style="font-family:'Helvetica';font-size:79.94px;fill:#000000" text-anchor="middle">60</text>
	<line x1="3196.83" y1="2235.86" x2="3196.83" y2="2275.96" style="stroke:#000000;stroke-width:5.76"/>
	<text x="3196.83" y="2351.78" style="font-family:'Helvetica';font-size:79.94px;fill:#000000" text-anchor="middle">80</text>
	<line x1="3779.82" y1="2235.86" x2="3779.82" y2="2275.96" style="stroke:#000000;stroke-width:5.76"/>
	<text x="3779.82" y="2351.78" style="font-family:'Helvetica';font-size:79.94px;fill:#000000" text-anchor="middle">100</text>
	<text x="2322.29" y="2441.87" style="font-family:'Helvetica';font-size:79.94px;fill:#000000" text-anchor="middle">Days since 1 Mar 2020</text>
	<rect x="1114.99" y="269.91" width="2414.61" height="326.46" style="fill:#FFFFFF"/>
	<rect x="1117.87" y="272.79" width="2408.85" height="320.70" style="fill:none;stroke:#EAF2F3;stroke-width:5.76"/>
	<line x1="1158.18" y1="363.09" x2="1532.52" y2="363.09" style="stroke:#1A476F;stroke-width:8.64"/>
	<line x1="2439.48" y1="363.09" x2="2813.95" y2="363.09" style="stroke:#90353B;stroke-width:8.64"/>
	<line x1="1158.18" y1="503.06" x2="1532.52" y2="503.06" style="stroke:#55752F;stroke-width:8.64"/>
	<text x="1592.54" y="384.13" style="font-family:'Helvetica';font-size:60.02px;fill:#000000">LABA/LAMA Combination</text>
	<text x="2873.85" y="384.13" style="font-family:'Helvetica';font-size:60.02px;fill:#000000">ICS Dual Combination</text>
	<text x="1592.54" y="524.10" style="font-family:'Helvetica';font-size:60.02px;fill:#000000">ICS Triple Combination</text>
	<text x="818.61" y="187.99" style="font-family:'Helvetica';font-size:99.99px;fill:#1E2D53">Time to COVID-19 death, COPD - Sensitivity Exposure Definition population</text>
</svg>
