<?xml version="1.0" encoding="UTF-8" standalone="no"?>
<!-- This is a Stata 16.1 generated SVG file (http://www.stata.com) -->

<svg version="1.1" width="5.50in" height="4.00in" viewBox="0 0 3960 2880" xmlns="http://www.w3.org/2000/svg" xmlns:xlink="http://www.w3.org/1999/xlink">
	<desc>Stata Graph - Graph</desc>
	<rect x="0" y="0" width="3960" height="2880" style="fill:#EAF2F3;stroke:none"/>
	<rect x="0.00" y="0.00" width="3959.88" height="2880.00" style="fill:#FFFFFF"/>
	<rect x="2.88" y="2.88" width="3954.12" height="2874.24" style="fill:none;stroke:#EAF2F3;stroke-width:5.76"/>
	<rect x="902.51" y="490.93" width="2938.32" height="1818.32" style="fill:#FFFFFF"/>
	<rect x="905.39" y="493.81" width="2932.56" height="1812.56" style="fill:none;stroke:#FFFFFF;stroke-width:5.76"/>
	<line x1="902.51" y1="2245.89" x2="3840.83" y2="2245.89" style="stroke:#EAF2F3;stroke-width:8.64"/>
	<line x1="902.51" y1="1400.03" x2="3840.83" y2="1400.03" style="stroke:#EAF2F3;stroke-width:8.64"/>
	<path d=" M965.75 2246.01 L965.75 2246.01 L965.75 2246.01 L993.84 2246.01 L993.84 2246.01 L1022.05 2246.01 L1022.05 2246.01 L1050.14 2246.01 L1050.14 2246.01 L1078.23 2246.01 L1078.23 2246.01 L1106.33 2246.01 L1106.33 2246.01 L1134.42 2246.01 L1134.42 2246.01 L1162.63 2246.01 L1162.63 2246.01 L1190.72 2246.01 L1190.72 2246.01 L1218.81 2246.01 L1218.81 2246.01 L1246.90 2246.01 L1246.90 2246.01 L1275.00 2246.01 L1275.00 2246.01 L1303.21 2246.01 L1303.21 2246.01 L1331.30 2246.01 L1331.30 2246.01 L1359.39 2246.01 L1359.39 2246.01 L1387.48 2246.01 L1387.48 2246.01 L1415.58 2246.01 L1415.58 2246.01 L1443.79 2246.01 L1443.79 2246.01 L1471.88 2246.01 L1471.88 2246.01 L1499.97 2246.01 L1499.97 2246.01 L1528.07 2246.01 L1528.07 2246.01 L1556.16 2246.01 L1556.16 2246.01 L1584.37 2246.01 L1584.37 2246.01 L1612.46 2246.01 L1612.46 2246.01 L1640.55 2246.01 L1640.55 2246.01 L1668.64 2246.01 L1668.64 2242.05 L1696.74 2242.05 L1696.74 2238.09 L1724.95 2238.09 L1724.95 2230.29 L1753.04 2230.29 L1753.04 2222.50 L1781.13 2222.50 L1781.13 2214.58 L1809.22 2214.58 L1809.22 2202.82 L1837.32 2202.82 L1837.32 2195.02 L1865.53 2195.02 L1865.53 2191.06 L1893.62 2191.06 L1893.62 2183.27 L1921.71 2183.27 L1921.71 2175.47 L1949.81 2175.47 L1949.81 2155.79 L1977.90 2155.79 L1977.90 2155.79 L2006.11 2155.79 L2006.11 2151.96 L2034.20 2151.96 L2034.20 2120.52 L2062.29 2120.52 L2062.29 2112.73 L2090.39 2112.73 L2090.39 2100.97 L2118.48 2100.97 L2118.48 2097.01 L2146.69 2097.01 L2146.69 2073.50 L2174.78 2073.50 L2174.78 2065.58 L2202.87 2065.58 L2202.87 2053.82 L2230.97 2053.82 L2230.97 2034.14 L2259.06 2034.14 L2259.06 2030.31 L2287.27 2030.31 L2287.27 2018.55 L2315.36 2018.55 L2315.36 2010.63 L2343.45 2010.63 L2343.45 2010.63 L2371.55 2010.63 L2371.55 2006.67 L2399.64 2006.67 L2399.64 1998.87 L2427.85 1998.87 L2427.85 1994.91 L2455.94 1994.91 L2455.94 1979.20 L2484.03 1979.20 L2484.03 1963.48 L2512.13 1963.48 L2512.13 1959.52 L2540.22 1959.52 L2540.22 1951.72 L2568.43 1951.72 L2568.43 1951.72 L2596.52 1951.72 L2596.52 1943.80 L2624.61 1943.80 L2624.61 1939.84 L2652.70 1939.84 L2652.70 1932.05 L2680.80 1932.05 L2680.80 1924.13 L2709.01 1924.13 L2709.01 1904.45 L2737.10 1904.45 L2737.10 1904.45 L2765.19 1904.45 L2765.19 1900.61 L2793.28 1900.61 L2793.28 1900.61 L2821.38 1900.61 L2821.38 1888.73" stroke-linejoin="round" style="fill:none;stroke:#1A476F;stroke-width:8.64"/>
	<path d=" M965.75 2246.01 L965.75 2246.01 L965.75 2246.01 L993.84 2246.01 L993.84 2246.01 L1022.05 2246.01 L1022.05 2246.01 L1050.14 2246.01 L1050.14 2246.01 L1078.23 2246.01 L1078.23 2246.01 L1106.33 2246.01 L1106.33 2246.01 L1134.42 2246.01 L1134.42 2246.01 L1162.63 2246.01 L1162.63 2246.01 L1190.72 2246.01 L1190.72 2246.01 L1218.81 2246.01 L1218.81 2246.01 L1246.90 2246.01 L1246.90 2246.01 L1275.00 2246.01 L1275.00 2246.01 L1303.21 2246.01 L1303.21 2246.01 L1331.30 2246.01 L1331.30 2246.01 L1359.39 2246.01 L1359.39 2246.01 L1387.48 2246.01 L1387.48 2242.79 L1415.58 2242.79 L1415.58 2241.18 L1443.79 2241.18 L1443.79 2241.18 L1471.88 2241.18 L1471.88 2237.84 L1499.97 2237.84 L1499.97 2237.84 L1528.07 2237.84 L1528.07 2236.23 L1556.16 2236.23 L1556.16 2234.62 L1584.37 2234.62 L1584.37 2231.41 L1612.46 2231.41 L1612.46 2226.58 L1640.55 2226.58 L1640.55 2224.97 L1668.64 2224.97 L1668.64 2212.10 L1696.74 2212.10 L1696.74 2204.06 L1724.95 2204.06 L1724.95 2197.62 L1753.04 2197.62 L1753.04 2183.02 L1781.13 2183.02 L1781.13 2170.15 L1809.22 2170.15 L1809.22 2155.67 L1837.32 2155.67 L1837.32 2142.67 L1865.53 2142.67 L1865.53 2120.15 L1893.62 2120.15 L1893.62 2108.77 L1921.71 2108.77 L1921.71 2087.85 L1949.81 2087.85 L1949.81 2074.86 L1977.90 2074.86 L1977.90 2057.16 L2006.11 2057.16 L2006.11 2044.17 L2034.20 2044.17 L2034.20 2019.91 L2062.29 2019.91 L2062.29 1995.78 L2090.39 1995.78 L2090.39 1969.91 L2118.48 1969.91 L2118.48 1955.31 L2146.69 1955.31 L2146.69 1942.32 L2174.78 1942.32 L2174.78 1927.84 L2202.87 1927.84 L2202.87 1919.67 L2230.97 1919.67 L2230.97 1905.19 L2259.06 1905.19 L2259.06 1884.15 L2287.27 1884.15 L2287.27 1874.38 L2315.36 1874.38 L2315.36 1864.72 L2343.45 1864.72 L2343.45 1853.34 L2371.55 1853.34 L2371.55 1833.91 L2399.64 1833.91 L2399.64 1825.86 L2427.85 1825.86 L2427.85 1812.87 L2455.94 1812.87 L2455.94 1803.22 L2484.03 1803.22 L2484.03 1796.66 L2512.13 1796.66 L2512.13 1788.61 L2540.22 1788.61 L2540.22 1782.06 L2568.43 1782.06 L2568.43 1772.40 L2596.52 1772.40 L2596.52 1770.79 L2624.61 1770.79 L2624.61 1761.02 L2652.70 1761.02 L2652.70 1752.97 L2680.80 1752.97 L2680.80 1741.59 L2709.01 1741.59 L2709.01 1733.42 L2737.10 1733.42 L2737.10 1723.77 L2765.19 1723.77 L2765.19 1715.60 L2793.28 1715.60 L2793.28 1709.16 L2821.38 1709.16 L2821.38 1699.39" stroke-linejoin="round" style="fill:none;stroke:#90353B;stroke-width:8.64"/>
	<line x1="902.51" y1="2309.25" x2="902.51" y2="490.93" style="stroke:#000000;stroke-width:5.76"/>
	<line x1="902.51" y1="2245.89" x2="862.54" y2="2245.89" style="stroke:#000000;stroke-width:5.76"/>
	<text x="842.49" y="2273.90" style="font-family:'Helvetica';font-size:79.94px;fill:#000000" text-anchor="end">0.000</text>
	<line x1="902.51" y1="1400.03" x2="862.54" y2="1400.03" style="stroke:#000000;stroke-width:5.76"/>
	<text x="842.49" y="1428.04" style="font-family:'Helvetica';font-size:79.94px;fill:#000000" text-anchor="end">0.005</text>
	<line x1="902.51" y1="554.29" x2="862.54" y2="554.29" style="stroke:#000000;stroke-width:5.76"/>
	<text x="842.49" y="582.31" style="font-family:'Helvetica';font-size:79.94px;fill:#000000" text-anchor="end">0.010</text>
	<text x="965.87" y="2747.83" style="font-family:'Helvetica';font-size:60.02px;fill:#000000" text-anchor="middle">105249</text>
	<text x="1528.19" y="2747.83" style="font-family:'Helvetica';font-size:60.02px;fill:#000000" text-anchor="middle">104963</text>
	<text x="2090.51" y="2747.83" style="font-family:'Helvetica';font-size:60.02px;fill:#000000" text-anchor="middle">104491</text>
	<text x="2652.83" y="2747.83" style="font-family:'Helvetica';font-size:60.02px;fill:#000000" text-anchor="middle">104028</text>
	<text x="3215.15" y="2747.83" style="font-family:'Helvetica';font-size:60.02px;fill:#000000" text-anchor="middle">0</text>
	<text x="3777.47" y="2747.83" style="font-family:'Helvetica';font-size:60.02px;fill:#000000" text-anchor="middle">0</text>
	<text x="825.29" y="2747.83" style="font-family:'Helvetica';font-size:60.02px;fill:#000000" text-anchor="end">ICS Combination</text>
	<text x="965.87" y="2674.44" style="font-family:'Helvetica';font-size:60.02px;fill:#000000" text-anchor="middle">43308</text>
	<text x="1528.19" y="2674.44" style="font-family:'Helvetica';font-size:60.02px;fill:#000000" text-anchor="middle">43222</text>
	<text x="2090.51" y="2674.44" style="font-family:'Helvetica';font-size:60.02px;fill:#000000" text-anchor="middle">43088</text>
	<text x="2652.83" y="2674.44" style="font-family:'Helvetica';font-size:60.02px;fill:#000000" text-anchor="middle">42942</text>
	<text x="3215.15" y="2674.44" style="font-family:'Helvetica';font-size:60.02px;fill:#000000" text-anchor="middle">0</text>
	<text x="3777.47" y="2674.44" style="font-family:'Helvetica';font-size:60.02px;fill:#000000" text-anchor="middle">0</text>
	<text x="825.29" y="2674.44" style="font-family:'Helvetica';font-size:60.02px;fill:#000000" text-anchor="end">LABA/LAMA Combination</text>
	<text x="825.29" y="2601.18" style="font-family:'Helvetica';font-size:60.02px;fill:#000000" text-anchor="end">Number at risk</text>
	<line x1="902.51" y1="2309.25" x2="3840.83" y2="2309.25" style="stroke:#000000;stroke-width:5.76"/>
	<line x1="965.87" y1="2309.25" x2="965.87" y2="2349.22" style="stroke:#000000;stroke-width:5.76"/>
	<text x="965.87" y="2425.17" style="font-family:'Helvetica';font-size:79.94px;fill:#000000" text-anchor="middle">0</text>
	<line x1="1528.19" y1="2309.25" x2="1528.19" y2="2349.22" style="stroke:#000000;stroke-width:5.76"/>
	<text x="1528.19" y="2425.17" style="font-family:'Helvetica';font-size:79.94px;fill:#000000" text-anchor="middle">20</text>
	<line x1="2090.51" y1="2309.25" x2="2090.51" y2="2349.22" style="stroke:#000000;stroke-width:5.76"/>
	<text x="2090.51" y="2425.17" style="font-family:'Helvetica';font-size:79.94px;fill:#000000" text-anchor="middle">40</text>
	<line x1="2652.83" y1="2309.25" x2="2652.83" y2="2349.22" style="stroke:#000000;stroke-width:5.76"/>
	<text x="2652.83" y="2425.17" style="font-family:'Helvetica';font-size:79.94px;fill:#000000" text-anchor="middle">60</text>
	<line x1="3215.15" y1="2309.25" x2="3215.15" y2="2349.22" style="stroke:#000000;stroke-width:5.76"/>
	<text x="3215.15" y="2425.17" style="font-family:'Helvetica';font-size:79.94px;fill:#000000" text-anchor="middle">80</text>
	<line x1="3777.47" y1="2309.25" x2="3777.47" y2="2349.22" style="stroke:#000000;stroke-width:5.76"/>
	<text x="3777.47" y="2425.17" style="font-family:'Helvetica';font-size:79.94px;fill:#000000" text-anchor="middle">100</text>
	<text x="2371.67" y="2515.14" style="font-family:'Helvetica';font-size:79.94px;fill:#000000" text-anchor="middle">Days since 1 Mar 2020</text>
	<rect x="1236.14" y="269.91" width="2271.06" height="186.37" style="fill:#FFFFFF"/>
	<rect x="1239.02" y="272.79" width="2265.30" height="180.61" style="fill:none;stroke:#EAF2F3;stroke-width:5.76"/>
	<line x1="1279.33" y1="363.09" x2="1653.67" y2="363.09" style="stroke:#90353B;stroke-width:8.64"/>
	<line x1="2322.66" y1="363.09" x2="2697.01" y2="363.09" style="stroke:#1A476F;stroke-width:8.64"/>
	<text x="1713.69" y="384.13" style="font-family:'Helvetica';font-size:60.02px;fill:#000000">ICS Combination</text>
	<text x="2757.03" y="384.13" style="font-family:'Helvetica';font-size:60.02px;fill:#000000">LABA/LAMA Combination</text>
	<text x="1177.36" y="187.99" style="font-family:'Helvetica';font-size:99.99px;fill:#1E2D53">Time to COVID-19 Death in ONS, COPD population</text>
</svg>
