<?xml version="1.0" encoding="UTF-8" standalone="no"?>
<!-- This is a Stata 16.1 generated SVG file (http://www.stata.com) -->

<svg version="1.1" width="5.50in" height="4.00in" viewBox="0 0 3960 2880" xmlns="http://www.w3.org/2000/svg" xmlns:xlink="http://www.w3.org/1999/xlink">
	<desc>Stata Graph - Graph</desc>
	<rect x="0" y="0" width="3960" height="2880" style="fill:#EAF2F3;stroke:none"/>
	<rect x="0.00" y="0.00" width="3959.88" height="2880.00" style="fill:#FFFFFF"/>
	<rect x="2.88" y="2.88" width="3954.12" height="2874.24" style="fill:none;stroke:#EAF2F3;stroke-width:5.76"/>
	<rect x="902.51" y="490.93" width="2938.32" height="1818.32" style="fill:#FFFFFF"/>
	<rect x="905.39" y="493.81" width="2932.56" height="1812.56" style="fill:none;stroke:#FFFFFF;stroke-width:5.76"/>
	<line x1="902.51" y1="2245.89" x2="3840.83" y2="2245.89" style="stroke:#EAF2F3;stroke-width:8.64"/>
	<line x1="902.51" y1="1823.02" x2="3840.83" y2="1823.02" style="stroke:#EAF2F3;stroke-width:8.64"/>
	<line x1="902.51" y1="1400.03" x2="3840.83" y2="1400.03" style="stroke:#EAF2F3;stroke-width:8.64"/>
	<line x1="902.51" y1="977.16" x2="3840.83" y2="977.16" style="stroke:#EAF2F3;stroke-width:8.64"/>
	<path d=" M965.75 2246.01 L965.75 2246.01 L965.75 2246.01 L993.84 2246.01 L993.84 2246.01 L1022.05 2246.01 L1022.05 2246.01 L1050.14 2246.01 L1050.14 2246.01 L1078.23 2246.01 L1078.23 2246.01 L1106.33 2246.01 L1106.33 2246.01 L1134.42 2246.01 L1134.42 2246.01 L1162.63 2246.01 L1162.63 2246.01 L1190.72 2246.01 L1190.72 2246.01 L1218.81 2246.01 L1218.81 2246.01 L1246.90 2246.01 L1246.90 2246.01 L1275.00 2246.01 L1275.00 2246.01 L1303.21 2246.01 L1303.21 2246.01 L1331.30 2246.01 L1331.30 2246.01 L1359.39 2246.01 L1359.39 2246.01 L1387.48 2246.01 L1387.48 2246.01 L1415.58 2246.01 L1415.58 2246.01 L1443.79 2246.01 L1443.79 2246.01 L1471.88 2246.01 L1471.88 2246.01 L1499.97 2246.01 L1499.97 2246.01 L1528.07 2246.01 L1528.07 2246.01 L1556.16 2246.01 L1556.16 2246.01 L1584.37 2246.01 L1584.37 2246.01 L1612.46 2246.01 L1612.46 2246.01 L1640.55 2246.01 L1640.55 2246.01 L1668.64 2246.01 L1668.64 2242.05 L1696.74 2242.05 L1696.74 2242.05 L1724.95 2242.05 L1724.95 2238.09 L1753.04 2238.09 L1753.04 2236.11 L1781.13 2236.11 L1781.13 2230.29 L1809.22 2230.29 L1809.22 2228.31 L1837.32 2228.31 L1837.32 2226.33 L1865.53 2226.33 L1865.53 2222.50 L1893.62 2222.50 L1893.62 2220.52 L1921.71 2220.52 L1921.71 2216.56 L1949.81 2216.56 L1949.81 2206.78 L1977.90 2206.78 L1977.90 2206.78 L2006.11 2206.78 L2006.11 2204.80 L2034.20 2204.80 L2034.20 2191.06 L2062.29 2191.06 L2062.29 2187.10 L2090.39 2187.10 L2090.39 2185.12 L2118.48 2185.12 L2118.48 2181.29 L2146.69 2181.29 L2146.69 2173.37 L2174.78 2173.37 L2174.78 2169.41 L2202.87 2169.41 L2202.87 2163.59 L2230.97 2163.59 L2230.97 2159.63 L2259.06 2159.63 L2259.06 2157.65 L2287.27 2157.65 L2287.27 2151.83 L2315.36 2151.83 L2315.36 2147.87 L2343.45 2147.87 L2343.45 2147.87 L2371.55 2147.87 L2371.55 2145.89 L2399.64 2145.89 L2399.64 2145.89 L2427.85 2145.89 L2427.85 2145.89 L2455.94 2145.89 L2455.94 2141.93 L2484.03 2141.93 L2484.03 2137.97 L2512.13 2137.97 L2512.13 2136.12" stroke-linejoin="round" style="fill:none;stroke:#1A476F;stroke-width:8.64"/>
	<path d=" M965.75 2246.01 L965.75 2246.01 L965.75 2246.01 L993.84 2246.01 L993.84 2246.01 L1022.05 2246.01 L1022.05 2246.01 L1050.14 2246.01 L1050.14 2246.01 L1078.23 2246.01 L1078.23 2246.01 L1106.33 2246.01 L1106.33 2246.01 L1134.42 2246.01 L1134.42 2246.01 L1162.63 2246.01 L1162.63 2246.01 L1190.72 2246.01 L1190.72 2246.01 L1218.81 2246.01 L1218.81 2246.01 L1246.90 2246.01 L1246.90 2246.01 L1275.00 2246.01 L1275.00 2246.01 L1303.21 2246.01 L1303.21 2246.01 L1331.30 2246.01 L1331.30 2246.01 L1359.39 2246.01 L1359.39 2246.01 L1387.48 2246.01 L1387.48 2244.40 L1415.58 2244.40 L1415.58 2244.40 L1443.79 2244.40 L1443.79 2244.40 L1471.88 2244.40 L1471.88 2243.53 L1499.97 2243.53 L1499.97 2243.53 L1528.07 2243.53 L1528.07 2243.53 L1556.16 2243.53 L1556.16 2242.79 L1584.37 2242.79 L1584.37 2241.18 L1612.46 2241.18 L1612.46 2239.45 L1640.55 2239.45 L1640.55 2238.71 L1668.64 2238.71 L1668.64 2232.27 L1696.74 2232.27 L1696.74 2228.19 L1724.95 2228.19 L1724.95 2224.97 L1753.04 2224.97 L1753.04 2217.79 L1781.13 2217.79 L1781.13 2210.49 L1809.22 2210.49 L1809.22 2204.80 L1837.32 2204.80 L1837.32 2200.84 L1865.53 2200.84 L1865.53 2191.93 L1893.62 2191.93 L1893.62 2186.24 L1921.71 2186.24 L1921.71 2174.97 L1949.81 2174.97 L1949.81 2170.15 L1977.90 2170.15 L1977.90 2162.85 L2006.11 2162.85 L2006.11 2157.15 L2034.20 2157.15 L2034.20 2148.37 L2062.29 2148.37 L2062.29 2138.59 L2090.39 2138.59 L2090.39 2128.94 L2118.48 2128.94 L2118.48 2125.72 L2146.69 2125.72 L2146.69 2120.77 L2174.78 2120.77 L2174.78 2115.94 L2202.87 2115.94 L2202.87 2112.73 L2230.97 2112.73 L2230.97 2109.51 L2259.06 2109.51 L2259.06 2102.21 L2287.27 2102.21 L2287.27 2098.99 L2315.36 2098.99 L2315.36 2092.55 L2343.45 2092.55 L2343.45 2090.95 L2371.55 2090.95 L2371.55 2083.64 L2399.64 2083.64 L2399.64 2082.78 L2427.85 2082.78 L2427.85 2081.17 L2455.94 2081.17 L2455.94 2077.08 L2484.03 2077.08 L2484.03 2075.48 L2512.13 2075.48 L2512.13 2073.12" stroke-linejoin="round" style="fill:none;stroke:#90353B;stroke-width:8.64"/>
	<line x1="902.51" y1="2309.25" x2="902.51" y2="490.93" style="stroke:#000000;stroke-width:5.76"/>
	<line x1="902.51" y1="2245.89" x2="862.54" y2="2245.89" style="stroke:#000000;stroke-width:5.76"/>
	<text x="842.49" y="2273.90" style="font-family:'Helvetica';font-size:79.94px;fill:#000000" text-anchor="end">0.000</text>
	<line x1="902.51" y1="1823.02" x2="862.54" y2="1823.02" style="stroke:#000000;stroke-width:5.76"/>
	<text x="842.49" y="1851.03" style="font-family:'Helvetica';font-size:79.94px;fill:#000000" text-anchor="end">0.005</text>
	<line x1="902.51" y1="1400.03" x2="862.54" y2="1400.03" style="stroke:#000000;stroke-width:5.76"/>
	<text x="842.49" y="1428.04" style="font-family:'Helvetica';font-size:79.94px;fill:#000000" text-anchor="end">0.010</text>
	<line x1="902.51" y1="977.16" x2="862.54" y2="977.16" style="stroke:#000000;stroke-width:5.76"/>
	<text x="842.49" y="1005.17" style="font-family:'Helvetica';font-size:79.94px;fill:#000000" text-anchor="end">0.015</text>
	<line x1="902.51" y1="554.29" x2="862.54" y2="554.29" style="stroke:#000000;stroke-width:5.76"/>
	<text x="842.49" y="582.31" style="font-family:'Helvetica';font-size:79.94px;fill:#000000" text-anchor="end">0.020</text>
	<text x="965.87" y="2747.83" style="font-family:'Helvetica';font-size:60.02px;fill:#000000" text-anchor="middle">105271</text>
	<text x="1528.19" y="2747.83" style="font-family:'Helvetica';font-size:60.02px;fill:#000000" text-anchor="middle">104987</text>
	<text x="2090.51" y="2747.83" style="font-family:'Helvetica';font-size:60.02px;fill:#000000" text-anchor="middle">104518</text>
	<text x="2652.83" y="2747.83" style="font-family:'Helvetica';font-size:60.02px;fill:#000000" text-anchor="middle">0</text>
	<text x="3215.15" y="2747.83" style="font-family:'Helvetica';font-size:60.02px;fill:#000000" text-anchor="middle">0</text>
	<text x="3777.47" y="2747.83" style="font-family:'Helvetica';font-size:60.02px;fill:#000000" text-anchor="middle">0</text>
	<text x="825.29" y="2747.83" style="font-family:'Helvetica';font-size:60.02px;fill:#000000" text-anchor="end">ICS Combination</text>
	<text x="965.87" y="2674.44" style="font-family:'Helvetica';font-size:60.02px;fill:#000000" text-anchor="middle">43287</text>
	<text x="1528.19" y="2674.44" style="font-family:'Helvetica';font-size:60.02px;fill:#000000" text-anchor="middle">43202</text>
	<text x="2090.51" y="2674.44" style="font-family:'Helvetica';font-size:60.02px;fill:#000000" text-anchor="middle">43069</text>
	<text x="2652.83" y="2674.44" style="font-family:'Helvetica';font-size:60.02px;fill:#000000" text-anchor="middle">0</text>
	<text x="3215.15" y="2674.44" style="font-family:'Helvetica';font-size:60.02px;fill:#000000" text-anchor="middle">0</text>
	<text x="3777.47" y="2674.44" style="font-family:'Helvetica';font-size:60.02px;fill:#000000" text-anchor="middle">0</text>
	<text x="825.29" y="2674.44" style="font-family:'Helvetica';font-size:60.02px;fill:#000000" text-anchor="end">LABA/LAMA Combination</text>
	<text x="825.29" y="2601.18" style="font-family:'Helvetica';font-size:60.02px;fill:#000000" text-anchor="end">Number at risk</text>
	<line x1="902.51" y1="2309.25" x2="3840.83" y2="2309.25" style="stroke:#000000;stroke-width:5.76"/>
	<line x1="965.87" y1="2309.25" x2="965.87" y2="2349.22" style="stroke:#000000;stroke-width:5.76"/>
	<text x="965.87" y="2425.17" style="font-family:'Helvetica';font-size:79.94px;fill:#000000" text-anchor="middle">0</text>
	<line x1="1528.19" y1="2309.25" x2="1528.19" y2="2349.22" style="stroke:#000000;stroke-width:5.76"/>
	<text x="1528.19" y="2425.17" style="font-family:'Helvetica';font-size:79.94px;fill:#000000" text-anchor="middle">20</text>
	<line x1="2090.51" y1="2309.25" x2="2090.51" y2="2349.22" style="stroke:#000000;stroke-width:5.76"/>
	<text x="2090.51" y="2425.17" style="font-family:'Helvetica';font-size:79.94px;fill:#000000" text-anchor="middle">40</text>
	<line x1="2652.83" y1="2309.25" x2="2652.83" y2="2349.22" style="stroke:#000000;stroke-width:5.76"/>
	<text x="2652.83" y="2425.17" style="font-family:'Helvetica';font-size:79.94px;fill:#000000" text-anchor="middle">60</text>
	<line x1="3215.15" y1="2309.25" x2="3215.15" y2="2349.22" style="stroke:#000000;stroke-width:5.76"/>
	<text x="3215.15" y="2425.17" style="font-family:'Helvetica';font-size:79.94px;fill:#000000" text-anchor="middle">80</text>
	<line x1="3777.47" y1="2309.25" x2="3777.47" y2="2349.22" style="stroke:#000000;stroke-width:5.76"/>
	<text x="3777.47" y="2425.17" style="font-family:'Helvetica';font-size:79.94px;fill:#000000" text-anchor="middle">100</text>
	<text x="2371.67" y="2515.14" style="font-family:'Helvetica';font-size:79.94px;fill:#000000" text-anchor="middle">Days since 1 Mar 2020</text>
	<rect x="1236.14" y="269.91" width="2271.06" height="186.37" style="fill:#FFFFFF"/>
	<rect x="1239.02" y="272.79" width="2265.30" height="180.61" style="fill:none;stroke:#EAF2F3;stroke-width:5.76"/>
	<line x1="1279.33" y1="363.09" x2="1653.67" y2="363.09" style="stroke:#90353B;stroke-width:8.64"/>
	<line x1="2322.66" y1="363.09" x2="2697.01" y2="363.09" style="stroke:#1A476F;stroke-width:8.64"/>
	<text x="1713.69" y="384.13" style="font-family:'Helvetica';font-size:60.02px;fill:#000000">ICS Combination</text>
	<text x="2757.03" y="384.13" style="font-family:'Helvetica';font-size:60.02px;fill:#000000">LABA/LAMA Combination</text>
	<text x="1165.60" y="187.99" style="font-family:'Helvetica';font-size:99.99px;fill:#1E2D53">Time to Hospital COVID-19 death, COPD population</text>
</svg>
