<?xml version="1.0" encoding="UTF-8" standalone="no"?>
<!-- This is a Stata 16.1 generated SVG file (http://www.stata.com) -->

<svg version="1.1" width="5.50in" height="4.00in" viewBox="0 0 3960 2880" xmlns="http://www.w3.org/2000/svg" xmlns:xlink="http://www.w3.org/1999/xlink">
	<desc>Stata Graph - Graph</desc>
	<rect x="0" y="0" width="3960" height="2880" style="fill:#EAF2F3;stroke:none"/>
	<rect x="0.00" y="0.00" width="3959.88" height="2880.00" style="fill:#FFFFFF"/>
	<rect x="2.88" y="2.88" width="3954.12" height="2874.24" style="fill:none;stroke:#EAF2F3;stroke-width:5.76"/>
	<rect x="902.51" y="490.93" width="2938.32" height="1818.32" style="fill:#FFFFFF"/>
	<rect x="905.39" y="493.81" width="2932.56" height="1812.56" style="fill:none;stroke:#FFFFFF;stroke-width:5.76"/>
	<line x1="902.51" y1="2245.89" x2="3840.83" y2="2245.89" style="stroke:#EAF2F3;stroke-width:8.64"/>
	<line x1="902.51" y1="1823.02" x2="3840.83" y2="1823.02" style="stroke:#EAF2F3;stroke-width:8.64"/>
	<line x1="902.51" y1="1400.03" x2="3840.83" y2="1400.03" style="stroke:#EAF2F3;stroke-width:8.64"/>
	<line x1="902.51" y1="977.16" x2="3840.83" y2="977.16" style="stroke:#EAF2F3;stroke-width:8.64"/>
	<path d=" M965.75 2246.01 L965.75 2246.01 L965.75 2246.01 L993.84 2246.01 L993.84 2246.01 L1022.05 2246.01 L1022.05 2246.01 L1050.14 2246.01 L1050.14 2246.01 L1078.23 2246.01 L1078.23 2246.01 L1106.33 2246.01 L1106.33 2246.01 L1134.42 2246.01 L1134.42 2246.01 L1162.63 2246.01 L1162.63 2246.01 L1190.72 2246.01 L1190.72 2246.01 L1218.81 2246.01 L1218.81 2246.01 L1246.90 2246.01 L1246.90 2246.01 L1275.00 2246.01 L1275.00 2246.01 L1303.21 2246.01 L1303.21 2246.01 L1331.30 2246.01 L1331.30 2246.01 L1359.39 2246.01 L1359.39 2246.01 L1387.48 2246.01 L1387.48 2246.01 L1415.58 2246.01 L1415.58 2246.01 L1443.79 2246.01 L1443.79 2246.01 L1471.88 2246.01 L1471.88 2246.01 L1499.97 2246.01 L1499.97 2246.01 L1528.07 2246.01 L1528.07 2246.01 L1556.16 2246.01 L1556.16 2246.01 L1584.37 2246.01 L1584.37 2246.01 L1612.46 2246.01 L1612.46 2246.01 L1640.55 2246.01 L1640.55 2246.01 L1668.64 2246.01 L1668.64 2244.03 L1696.74 2244.03 L1696.74 2242.05 L1724.95 2242.05 L1724.95 2238.09 L1753.04 2238.09 L1753.04 2234.25 L1781.13 2234.25 L1781.13 2230.29 L1809.22 2230.29 L1809.22 2224.35 L1837.32 2224.35 L1837.32 2220.52 L1865.53 2220.52 L1865.53 2218.54 L1893.62 2218.54 L1893.62 2214.58 L1921.71 2214.58 L1921.71 2210.62 L1949.81 2210.62 L1949.81 2200.84 L1977.90 2200.84 L1977.90 2200.84 L2006.11 2200.84 L2006.11 2198.86 L2034.20 2198.86 L2034.20 2183.14 L2062.29 2183.14 L2062.29 2179.31 L2090.39 2179.31 L2090.39 2173.37 L2118.48 2173.37 L2118.48 2171.39 L2146.69 2171.39 L2146.69 2159.63 L2174.78 2159.63 L2174.78 2155.67 L2202.87 2155.67 L2202.87 2149.85 L2230.97 2149.85 L2230.97 2139.95 L2259.06 2139.95 L2259.06 2138.10 L2287.27 2138.10 L2287.27 2132.16 L2315.36 2132.16 L2315.36 2128.20 L2343.45 2128.20 L2343.45 2128.20 L2371.55 2128.20 L2371.55 2126.22 L2399.64 2126.22 L2399.64 2122.38 L2427.85 2122.38 L2427.85 2120.40 L2455.94 2120.40 L2455.94 2112.48 L2484.03 2112.48 L2484.03 2104.68 L2512.13 2104.68 L2512.13 2102.70 L2540.22 2102.70 L2540.22 2098.74 L2568.43 2098.74 L2568.43 2098.74 L2596.52 2098.74 L2596.52 2094.78 L2624.61 2094.78 L2624.61 2092.80 L2652.70 2092.80 L2652.70 2088.84 L2680.80 2088.84 L2680.80 2085.01 L2709.01 2085.01 L2709.01 2075.10" stroke-linejoin="round" style="fill:none;stroke:#1A476F;stroke-width:8.64"/>
	<path d=" M965.75 2246.01 L965.75 2246.01 L965.75 2246.01 L993.84 2246.01 L993.84 2246.01 L1022.05 2246.01 L1022.05 2246.01 L1050.14 2246.01 L1050.14 2246.01 L1078.23 2246.01 L1078.23 2246.01 L1106.33 2246.01 L1106.33 2246.01 L1134.42 2246.01 L1134.42 2246.01 L1162.63 2246.01 L1162.63 2246.01 L1190.72 2246.01 L1190.72 2246.01 L1218.81 2246.01 L1218.81 2246.01 L1246.90 2246.01 L1246.90 2246.01 L1275.00 2246.01 L1275.00 2246.01 L1303.21 2246.01 L1303.21 2246.01 L1331.30 2246.01 L1331.30 2246.01 L1359.39 2246.01 L1359.39 2246.01 L1387.48 2246.01 L1387.48 2244.40 L1415.58 2244.40 L1415.58 2243.53 L1443.79 2243.53 L1443.79 2243.53 L1471.88 2243.53 L1471.88 2241.93 L1499.97 2241.93 L1499.97 2241.93 L1528.07 2241.93 L1528.07 2241.18 L1556.16 2241.18 L1556.16 2240.32 L1584.37 2240.32 L1584.37 2238.71 L1612.46 2238.71 L1612.46 2236.23 L1640.55 2236.23 L1640.55 2235.49 L1668.64 2235.49 L1668.64 2229.05 L1696.74 2229.05 L1696.74 2224.97 L1724.95 2224.97 L1724.95 2221.75 L1753.04 2221.75 L1753.04 2214.45 L1781.13 2214.45 L1781.13 2208.02 L1809.22 2208.02 L1809.22 2200.84 L1837.32 2200.84 L1837.32 2194.28 L1865.53 2194.28 L1865.53 2183.02 L1893.62 2183.02 L1893.62 2177.33 L1921.71 2177.33 L1921.71 2166.93 L1949.81 2166.93 L1949.81 2160.37 L1977.90 2160.37 L1977.90 2151.58 L2006.11 2151.58 L2006.11 2145.03 L2034.20 2145.03 L2034.20 2132.90 L2062.29 2132.90 L2062.29 2120.77 L2090.39 2120.77 L2090.39 2107.90 L2118.48 2107.90 L2118.48 2100.60 L2146.69 2100.60 L2146.69 2094.16 L2174.78 2094.16 L2174.78 2086.86 L2202.87 2086.86 L2202.87 2082.78 L2230.97 2082.78 L2230.97 2075.48 L2259.06 2075.48 L2259.06 2064.96 L2287.27 2064.96 L2287.27 2060.13 L2315.36 2060.13 L2315.36 2055.30 L2343.45 2055.30 L2343.45 2049.61 L2371.55 2049.61 L2371.55 2039.96 L2399.64 2039.96 L2399.64 2035.87 L2427.85 2035.87 L2427.85 2029.44 L2455.94 2029.44 L2455.94 2024.49 L2484.03 2024.49 L2484.03 2021.27 L2512.13 2021.27 L2512.13 2017.19 L2540.22 2017.19 L2540.22 2013.97 L2568.43 2013.97 L2568.43 2009.14 L2596.52 2009.14 L2596.52 2008.28 L2624.61 2008.28 L2624.61 2004.32 L2652.70 2004.32 L2652.70 2000.98 L2680.80 2000.98 L2680.80 1996.15 L2709.01 1996.15 L2709.01 1992.07" stroke-linejoin="round" style="fill:none;stroke:#90353B;stroke-width:8.64"/>
	<line x1="902.51" y1="2309.25" x2="902.51" y2="490.93" style="stroke:#000000;stroke-width:5.76"/>
	<line x1="902.51" y1="2245.89" x2="862.54" y2="2245.89" style="stroke:#000000;stroke-width:5.76"/>
	<text x="842.49" y="2273.90" style="font-family:'Helvetica';font-size:79.94px;fill:#000000" text-anchor="end">0.000</text>
	<line x1="902.51" y1="1823.02" x2="862.54" y2="1823.02" style="stroke:#000000;stroke-width:5.76"/>
	<text x="842.49" y="1851.03" style="font-family:'Helvetica';font-size:79.94px;fill:#000000" text-anchor="end">0.005</text>
	<line x1="902.51" y1="1400.03" x2="862.54" y2="1400.03" style="stroke:#000000;stroke-width:5.76"/>
	<text x="842.49" y="1428.04" style="font-family:'Helvetica';font-size:79.94px;fill:#000000" text-anchor="end">0.010</text>
	<line x1="902.51" y1="977.16" x2="862.54" y2="977.16" style="stroke:#000000;stroke-width:5.76"/>
	<text x="842.49" y="1005.17" style="font-family:'Helvetica';font-size:79.94px;fill:#000000" text-anchor="end">0.015</text>
	<line x1="902.51" y1="554.29" x2="862.54" y2="554.29" style="stroke:#000000;stroke-width:5.76"/>
	<text x="842.49" y="582.31" style="font-family:'Helvetica';font-size:79.94px;fill:#000000" text-anchor="end">0.020</text>
	<text x="965.87" y="2747.83" style="font-family:'Helvetica';font-size:60.02px;fill:#000000" text-anchor="middle">105231</text>
	<text x="1528.19" y="2747.83" style="font-family:'Helvetica';font-size:60.02px;fill:#000000" text-anchor="middle">104946</text>
	<text x="2090.51" y="2747.83" style="font-family:'Helvetica';font-size:60.02px;fill:#000000" text-anchor="middle">104475</text>
	<text x="2652.83" y="2747.83" style="font-family:'Helvetica';font-size:60.02px;fill:#000000" text-anchor="middle">104028</text>
	<text x="3215.15" y="2747.83" style="font-family:'Helvetica';font-size:60.02px;fill:#000000" text-anchor="middle">0</text>
	<text x="3777.47" y="2747.83" style="font-family:'Helvetica';font-size:60.02px;fill:#000000" text-anchor="middle">0</text>
	<text x="825.29" y="2747.83" style="font-family:'Helvetica';font-size:60.02px;fill:#000000" text-anchor="end">ICS Combination</text>
	<text x="965.87" y="2674.44" style="font-family:'Helvetica';font-size:60.02px;fill:#000000" text-anchor="middle">43276</text>
	<text x="1528.19" y="2674.44" style="font-family:'Helvetica';font-size:60.02px;fill:#000000" text-anchor="middle">43191</text>
	<text x="2090.51" y="2674.44" style="font-family:'Helvetica';font-size:60.02px;fill:#000000" text-anchor="middle">43059</text>
	<text x="2652.83" y="2674.44" style="font-family:'Helvetica';font-size:60.02px;fill:#000000" text-anchor="middle">42917</text>
	<text x="3215.15" y="2674.44" style="font-family:'Helvetica';font-size:60.02px;fill:#000000" text-anchor="middle">0</text>
	<text x="3777.47" y="2674.44" style="font-family:'Helvetica';font-size:60.02px;fill:#000000" text-anchor="middle">0</text>
	<text x="825.29" y="2674.44" style="font-family:'Helvetica';font-size:60.02px;fill:#000000" text-anchor="end">LABA/LAMA Combination</text>
	<text x="825.29" y="2601.18" style="font-family:'Helvetica';font-size:60.02px;fill:#000000" text-anchor="end">Number at risk</text>
	<line x1="902.51" y1="2309.25" x2="3840.83" y2="2309.25" style="stroke:#000000;stroke-width:5.76"/>
	<line x1="965.87" y1="2309.25" x2="965.87" y2="2349.22" style="stroke:#000000;stroke-width:5.76"/>
	<text x="965.87" y="2425.17" style="font-family:'Helvetica';font-size:79.94px;fill:#000000" text-anchor="middle">0</text>
	<line x1="1528.19" y1="2309.25" x2="1528.19" y2="2349.22" style="stroke:#000000;stroke-width:5.76"/>
	<text x="1528.19" y="2425.17" style="font-family:'Helvetica';font-size:79.94px;fill:#000000" text-anchor="middle">20</text>
	<line x1="2090.51" y1="2309.25" x2="2090.51" y2="2349.22" style="stroke:#000000;stroke-width:5.76"/>
	<text x="2090.51" y="2425.17" style="font-family:'Helvetica';font-size:79.94px;fill:#000000" text-anchor="middle">40</text>
	<line x1="2652.83" y1="2309.25" x2="2652.83" y2="2349.22" style="stroke:#000000;stroke-width:5.76"/>
	<text x="2652.83" y="2425.17" style="font-family:'Helvetica';font-size:79.94px;fill:#000000" text-anchor="middle">60</text>
	<line x1="3215.15" y1="2309.25" x2="3215.15" y2="2349.22" style="stroke:#000000;stroke-width:5.76"/>
	<text x="3215.15" y="2425.17" style="font-family:'Helvetica';font-size:79.94px;fill:#000000" text-anchor="middle">80</text>
	<line x1="3777.47" y1="2309.25" x2="3777.47" y2="2349.22" style="stroke:#000000;stroke-width:5.76"/>
	<text x="3777.47" y="2425.17" style="font-family:'Helvetica';font-size:79.94px;fill:#000000" text-anchor="middle">100</text>
	<text x="2371.67" y="2515.14" style="font-family:'Helvetica';font-size:79.94px;fill:#000000" text-anchor="middle">Days since 1 Mar 2020</text>
	<rect x="1236.14" y="269.91" width="2271.06" height="186.37" style="fill:#FFFFFF"/>
	<rect x="1239.02" y="272.79" width="2265.30" height="180.61" style="fill:none;stroke:#EAF2F3;stroke-width:5.76"/>
	<line x1="1279.33" y1="363.09" x2="1653.67" y2="363.09" style="stroke:#90353B;stroke-width:8.64"/>
	<line x1="2322.66" y1="363.09" x2="2697.01" y2="363.09" style="stroke:#1A476F;stroke-width:8.64"/>
	<text x="1713.69" y="384.13" style="font-family:'Helvetica';font-size:60.02px;fill:#000000">ICS Combination</text>
	<text x="2757.03" y="384.13" style="font-family:'Helvetica';font-size:60.02px;fill:#000000">LABA/LAMA Combination</text>
	<text x="1622.12" y="187.99" style="font-family:'Helvetica';font-size:99.99px;fill:#1E2D53">Time to death, COPD population</text>
</svg>
