<?xml version="1.0" encoding="UTF-8" standalone="no"?>
<!-- This is a Stata 16.1 generated SVG file (http://www.stata.com) -->

<svg version="1.1" width="5.50in" height="4.00in" viewBox="0 0 3960 2880" xmlns="http://www.w3.org/2000/svg" xmlns:xlink="http://www.w3.org/1999/xlink">
	<desc>Stata Graph - Graph</desc>
	<rect x="0" y="0" width="3960" height="2880" style="fill:#EAF2F3;stroke:none"/>
	<rect x="0.00" y="0.00" width="3959.88" height="2880.00" style="fill:#FFFFFF"/>
	<rect x="2.88" y="2.88" width="3954.12" height="2874.24" style="fill:none;stroke:#EAF2F3;stroke-width:5.76"/>
	<rect x="388.33" y="258.27" width="1683.50" height="2118.79" style="fill:#FFFFFF"/>
	<rect x="390.78" y="260.72" width="1678.60" height="2113.89" style="fill:none;stroke:#FFFFFF;stroke-width:4.90"/>
	<line x1="388.33" y1="2377.06" x2="2071.82" y2="2377.06" style="stroke:#EAF2F3;stroke-width:7.34"/>
	<line x1="388.33" y1="1860.89" x2="2071.82" y2="1860.89" style="stroke:#EAF2F3;stroke-width:7.34"/>
	<line x1="388.33" y1="1344.59" x2="2071.82" y2="1344.59" style="stroke:#EAF2F3;stroke-width:7.34"/>
	<line x1="388.33" y1="828.28" x2="2071.82" y2="828.28" style="stroke:#EAF2F3;stroke-width:7.34"/>
	<line x1="388.33" y1="312.11" x2="2071.82" y2="312.11" style="stroke:#EAF2F3;stroke-width:7.34"/>
	<rect x="2141.00" y="258.27" width="1683.49" height="2118.79" style="fill:#FFFFFF"/>
	<rect x="2143.45" y="260.72" width="1678.60" height="2113.89" style="fill:none;stroke:#FFFFFF;stroke-width:4.90"/>
	<line x1="2141.00" y1="2377.06" x2="3824.49" y2="2377.06" style="stroke:#EAF2F3;stroke-width:7.34"/>
	<line x1="2141.00" y1="1860.89" x2="3824.49" y2="1860.89" style="stroke:#EAF2F3;stroke-width:7.34"/>
	<line x1="2141.00" y1="1344.59" x2="3824.49" y2="1344.59" style="stroke:#EAF2F3;stroke-width:7.34"/>
	<line x1="2141.00" y1="828.28" x2="3824.49" y2="828.28" style="stroke:#EAF2F3;stroke-width:7.34"/>
	<line x1="2141.00" y1="312.11" x2="3824.49" y2="312.11" style="stroke:#EAF2F3;stroke-width:7.34"/>
	<rect x="453.17" y="2375.21" width="20.79" height="1.86" style="fill:#7B92A8"/>
	<rect x="456.84" y="2373.39" width="13.45" height="5.49" style="fill:none;stroke:#7B92A8;stroke-width:7.34"/>
	<rect x="473.96" y="2376.45" width="20.91" height="0.62" style="fill:#7B92A8"/>
	<rect x="477.63" y="2373.39" width="13.57" height="6.73" style="fill:none;stroke:#7B92A8;stroke-width:7.34"/>
	<rect x="494.88" y="2373.23" width="20.91" height="3.84" style="fill:#7B92A8"/>
	<rect x="498.55" y="2373.39" width="13.57" height="3.51" style="fill:none;stroke:#7B92A8;stroke-width:7.34"/>
	<rect x="515.79" y="2371.25" width="20.79" height="5.82" style="fill:#7B92A8"/>
	<rect x="519.46" y="2373.39" width="13.45" height="1.53" style="fill:none;stroke:#7B92A8;stroke-width:7.34"/>
	<rect x="536.58" y="2367.78" width="20.91" height="9.28" style="fill:#7B92A8"/>
	<rect x="540.25" y="2371.45" width="13.57" height="1.94" style="fill:none;stroke:#7B92A8;stroke-width:7.34"/>
	<rect x="557.49" y="2362.96" width="20.79" height="14.11" style="fill:#7B92A8"/>
	<rect x="561.17" y="2366.63" width="13.45" height="6.76" style="fill:none;stroke:#7B92A8;stroke-width:7.34"/>
	<rect x="578.28" y="2351.94" width="20.91" height="25.12" style="fill:#7B92A8"/>
	<rect x="581.96" y="2355.61" width="13.57" height="17.78" style="fill:none;stroke:#7B92A8;stroke-width:7.34"/>
	<rect x="599.20" y="2326.82" width="20.91" height="50.24" style="fill:#7B92A8"/>
	<rect x="602.87" y="2330.49" width="13.57" height="42.90" style="fill:none;stroke:#7B92A8;stroke-width:7.34"/>
	<rect x="620.11" y="2312.22" width="20.79" height="64.85" style="fill:#7B92A8"/>
	<rect x="623.78" y="2315.89" width="13.45" height="57.50" style="fill:none;stroke:#7B92A8;stroke-width:7.34"/>
	<rect x="640.90" y="2270.39" width="20.91" height="106.68" style="fill:#7B92A8"/>
	<rect x="644.57" y="2274.06" width="13.57" height="99.33" style="fill:none;stroke:#7B92A8;stroke-width:7.34"/>
	<rect x="661.82" y="2223.98" width="20.79" height="153.08" style="fill:#7B92A8"/>
	<rect x="665.49" y="2227.65" width="13.45" height="145.74" style="fill:none;stroke:#7B92A8;stroke-width:7.34"/>
	<rect x="682.61" y="2150.22" width="20.91" height="226.84" style="fill:#7B92A8"/>
	<rect x="686.28" y="2153.90" width="13.57" height="219.50" style="fill:none;stroke:#7B92A8;stroke-width:7.34"/>
	<rect x="703.52" y="2098.12" width="20.91" height="278.94" style="fill:#7B92A8"/>
	<rect x="707.19" y="2101.79" width="13.57" height="271.60" style="fill:none;stroke:#7B92A8;stroke-width:7.34"/>
	<rect x="724.43" y="2007.29" width="20.79" height="369.78" style="fill:#7B92A8"/>
	<rect x="728.10" y="2010.96" width="13.45" height="362.43" style="fill:none;stroke:#7B92A8;stroke-width:7.34"/>
	<rect x="745.22" y="1986.00" width="20.91" height="391.06" style="fill:#7B92A8"/>
	<rect x="748.89" y="1989.67" width="13.57" height="383.72" style="fill:none;stroke:#7B92A8;stroke-width:7.34"/>
	<rect x="766.14" y="1947.14" width="20.79" height="429.92" style="fill:#7B92A8"/>
	<rect x="769.81" y="1950.82" width="13.45" height="422.58" style="fill:none;stroke:#7B92A8;stroke-width:7.34"/>
	<rect x="786.93" y="1798.27" width="20.91" height="578.80" style="fill:#7B92A8"/>
	<rect x="790.60" y="1801.94" width="13.57" height="571.45" style="fill:none;stroke:#7B92A8;stroke-width:7.34"/>
	<rect x="807.84" y="1860.27" width="20.91" height="516.80" style="fill:#7B92A8"/>
	<rect x="811.51" y="1863.94" width="13.57" height="509.45" style="fill:none;stroke:#7B92A8;stroke-width:7.34"/>
	<rect x="828.75" y="1753.96" width="20.79" height="623.10" style="fill:#7B92A8"/>
	<rect x="832.43" y="1757.64" width="13.45" height="615.76" style="fill:none;stroke:#7B92A8;stroke-width:7.34"/>
	<rect x="849.54" y="1614.49" width="20.91" height="762.57" style="fill:#7B92A8"/>
	<rect x="853.22" y="1618.16" width="13.57" height="755.23" style="fill:none;stroke:#7B92A8;stroke-width:7.34"/>
	<rect x="870.46" y="1527.00" width="20.91" height="850.07" style="fill:#7B92A8"/>
	<rect x="874.13" y="1530.67" width="13.57" height="842.72" style="fill:none;stroke:#7B92A8;stroke-width:7.34"/>
	<rect x="891.37" y="1246.57" width="20.79" height="1130.49" style="fill:#7B92A8"/>
	<rect x="895.04" y="1250.24" width="13.45" height="1123.15" style="fill:none;stroke:#7B92A8;stroke-width:7.34"/>
	<rect x="912.16" y="1193.48" width="20.91" height="1183.58" style="fill:#7B92A8"/>
	<rect x="915.83" y="1197.15" width="13.57" height="1176.24" style="fill:none;stroke:#7B92A8;stroke-width:7.34"/>
	<rect x="933.08" y="871.72" width="20.79" height="1505.34" style="fill:#7B92A8"/>
	<rect x="936.75" y="875.39" width="13.45" height="1498.00" style="fill:none;stroke:#7B92A8;stroke-width:7.34"/>
	<rect x="953.87" y="976.67" width="20.91" height="1400.40" style="fill:#7B92A8"/>
	<rect x="957.54" y="980.34" width="13.57" height="1393.05" style="fill:none;stroke:#7B92A8;stroke-width:7.34"/>
	<rect x="974.78" y="806.01" width="20.91" height="1571.06" style="fill:#7B92A8"/>
	<rect x="978.45" y="809.68" width="13.57" height="1563.71" style="fill:none;stroke:#7B92A8;stroke-width:7.34"/>
	<rect x="995.69" y="877.29" width="20.79" height="1499.77" style="fill:#7B92A8"/>
	<rect x="999.36" y="880.96" width="13.45" height="1492.43" style="fill:none;stroke:#7B92A8;stroke-width:7.34"/>
	<rect x="1016.48" y="921.72" width="20.91" height="1455.35" style="fill:#7B92A8"/>
	<rect x="1020.15" y="925.39" width="13.57" height="1448.00" style="fill:none;stroke:#7B92A8;stroke-width:7.34"/>
	<rect x="1037.40" y="1112.67" width="20.79" height="1264.39" style="fill:#7B92A8"/>
	<rect x="1041.07" y="1116.34" width="13.45" height="1257.05" style="fill:none;stroke:#7B92A8;stroke-width:7.34"/>
	<rect x="1058.19" y="1130.00" width="20.91" height="1247.07" style="fill:#7B92A8"/>
	<rect x="1061.86" y="1133.67" width="13.57" height="1239.72" style="fill:none;stroke:#7B92A8;stroke-width:7.34"/>
	<rect x="1079.10" y="831.75" width="20.91" height="1545.31" style="fill:#7B92A8"/>
	<rect x="1082.77" y="835.42" width="13.57" height="1537.97" style="fill:none;stroke:#7B92A8;stroke-width:7.34"/>
	<rect x="1100.01" y="831.63" width="20.79" height="1545.44" style="fill:#7B92A8"/>
	<rect x="1103.69" y="835.30" width="13.45" height="1538.09" style="fill:none;stroke:#7B92A8;stroke-width:7.34"/>
	<rect x="1120.80" y="492.54" width="20.91" height="1884.52" style="fill:#7B92A8"/>
	<rect x="1124.48" y="496.21" width="13.57" height="1877.18" style="fill:none;stroke:#7B92A8;stroke-width:7.34"/>
	<rect x="1141.72" y="660.47" width="20.79" height="1716.59" style="fill:#7B92A8"/>
	<rect x="1145.39" y="664.15" width="13.45" height="1709.25" style="fill:none;stroke:#7B92A8;stroke-width:7.34"/>
	<rect x="1162.51" y="528.43" width="20.91" height="1848.64" style="fill:#7B92A8"/>
	<rect x="1166.18" y="532.10" width="13.57" height="1841.29" style="fill:none;stroke:#7B92A8;stroke-width:7.34"/>
	<rect x="1183.42" y="870.61" width="20.91" height="1506.46" style="fill:#7B92A8"/>
	<rect x="1187.09" y="874.28" width="13.57" height="1499.11" style="fill:none;stroke:#7B92A8;stroke-width:7.34"/>
	<rect x="1204.34" y="1262.29" width="20.79" height="1114.77" style="fill:#7B92A8"/>
	<rect x="1208.01" y="1265.96" width="13.45" height="1107.43" style="fill:none;stroke:#7B92A8;stroke-width:7.34"/>
	<rect x="1225.13" y="1454.48" width="20.91" height="922.59" style="fill:#7B92A8"/>
	<rect x="1228.80" y="1458.15" width="13.57" height="915.24" style="fill:none;stroke:#7B92A8;stroke-width:7.34"/>
	<rect x="1246.04" y="1707.56" width="20.79" height="669.51" style="fill:#7B92A8"/>
	<rect x="1249.71" y="1711.23" width="13.45" height="662.16" style="fill:none;stroke:#7B92A8;stroke-width:7.34"/>
	<rect x="1266.83" y="1743.69" width="20.91" height="633.37" style="fill:#7B92A8"/>
	<rect x="1270.50" y="1747.36" width="13.57" height="626.03" style="fill:none;stroke:#7B92A8;stroke-width:7.34"/>
	<rect x="1287.74" y="1901.11" width="20.91" height="475.96" style="fill:#7B92A8"/>
	<rect x="1291.41" y="1904.78" width="13.57" height="468.61" style="fill:none;stroke:#7B92A8;stroke-width:7.34"/>
	<rect x="1308.66" y="1903.83" width="20.79" height="473.23" style="fill:#7B92A8"/>
	<rect x="1312.33" y="1907.50" width="13.45" height="465.89" style="fill:none;stroke:#7B92A8;stroke-width:7.34"/>
	<rect x="1329.45" y="1948.13" width="20.91" height="428.93" style="fill:#7B92A8"/>
	<rect x="1333.12" y="1951.81" width="13.57" height="421.59" style="fill:none;stroke:#7B92A8;stroke-width:7.34"/>
	<rect x="1350.36" y="1915.21" width="20.79" height="461.85" style="fill:#7B92A8"/>
	<rect x="1354.03" y="1918.89" width="13.45" height="454.51" style="fill:none;stroke:#7B92A8;stroke-width:7.34"/>
	<rect x="1371.15" y="1891.45" width="20.91" height="485.61" style="fill:#7B92A8"/>
	<rect x="1374.82" y="1895.13" width="13.57" height="478.27" style="fill:none;stroke:#7B92A8;stroke-width:7.34"/>
	<rect x="1392.06" y="1825.99" width="20.91" height="551.08" style="fill:#7B92A8"/>
	<rect x="1395.74" y="1829.66" width="13.57" height="543.73" style="fill:none;stroke:#7B92A8;stroke-width:7.34"/>
	<rect x="1412.98" y="1802.48" width="20.79" height="574.59" style="fill:#7B92A8"/>
	<rect x="1416.65" y="1806.15" width="13.45" height="567.25" style="fill:none;stroke:#7B92A8;stroke-width:7.34"/>
	<rect x="1433.77" y="1742.08" width="20.91" height="634.98" style="fill:#7B92A8"/>
	<rect x="1437.44" y="1745.76" width="13.57" height="627.64" style="fill:none;stroke:#7B92A8;stroke-width:7.34"/>
	<rect x="1454.68" y="1971.40" width="20.79" height="405.67" style="fill:#7B92A8"/>
	<rect x="1458.35" y="1975.07" width="13.45" height="398.32" style="fill:none;stroke:#7B92A8;stroke-width:7.34"/>
	<rect x="1475.47" y="2036.99" width="20.91" height="340.08" style="fill:#7B92A8"/>
	<rect x="1479.14" y="2040.66" width="13.57" height="332.73" style="fill:none;stroke:#7B92A8;stroke-width:7.34"/>
	<rect x="1496.38" y="2181.04" width="20.91" height="196.03" style="fill:#7B92A8"/>
	<rect x="1500.06" y="2184.71" width="13.57" height="188.68" style="fill:none;stroke:#7B92A8;stroke-width:7.34"/>
	<rect x="1517.30" y="2202.20" width="20.79" height="174.86" style="fill:#7B92A8"/>
	<rect x="1520.97" y="2205.87" width="13.45" height="167.52" style="fill:none;stroke:#7B92A8;stroke-width:7.34"/>
	<rect x="1538.09" y="2173.12" width="20.91" height="203.95" style="fill:#7B92A8"/>
	<rect x="1541.76" y="2176.79" width="13.57" height="196.60" style="fill:none;stroke:#7B92A8;stroke-width:7.34"/>
	<rect x="1559.00" y="2102.21" width="20.91" height="274.86" style="fill:#7B92A8"/>
	<rect x="1562.67" y="2105.88" width="13.57" height="267.51" style="fill:none;stroke:#7B92A8;stroke-width:7.34"/>
	<rect x="1579.92" y="1954.07" width="20.79" height="422.99" style="fill:#7B92A8"/>
	<rect x="1583.59" y="1957.75" width="13.45" height="415.65" style="fill:none;stroke:#7B92A8;stroke-width:7.34"/>
	<rect x="1600.71" y="1923.63" width="20.91" height="453.43" style="fill:#7B92A8"/>
	<rect x="1604.38" y="1927.30" width="13.57" height="446.09" style="fill:none;stroke:#7B92A8;stroke-width:7.34"/>
	<rect x="1621.62" y="1800.37" width="20.79" height="576.69" style="fill:#7B92A8"/>
	<rect x="1625.29" y="1804.04" width="13.45" height="569.35" style="fill:none;stroke:#7B92A8;stroke-width:7.34"/>
	<rect x="1642.41" y="1694.07" width="20.91" height="683.00" style="fill:#7B92A8"/>
	<rect x="1646.08" y="1697.74" width="13.57" height="675.65" style="fill:none;stroke:#7B92A8;stroke-width:7.34"/>
	<rect x="1663.32" y="1795.30" width="20.91" height="581.77" style="fill:#7B92A8"/>
	<rect x="1667.00" y="1798.97" width="13.57" height="574.42" style="fill:none;stroke:#7B92A8;stroke-width:7.34"/>
	<rect x="1684.24" y="1716.34" width="20.79" height="660.72" style="fill:#7B92A8"/>
	<rect x="1687.91" y="1720.01" width="13.45" height="653.38" style="fill:none;stroke:#7B92A8;stroke-width:7.34"/>
	<rect x="1705.03" y="1475.52" width="20.91" height="901.55" style="fill:#7B92A8"/>
	<rect x="1708.70" y="1479.19" width="13.57" height="894.20" style="fill:none;stroke:#7B92A8;stroke-width:7.34"/>
	<rect x="1725.94" y="1392.35" width="20.79" height="984.71" style="fill:#7B92A8"/>
	<rect x="1729.61" y="1396.03" width="13.45" height="977.37" style="fill:none;stroke:#7B92A8;stroke-width:7.34"/>
	<rect x="1746.73" y="1365.13" width="20.91" height="1011.94" style="fill:#7B92A8"/>
	<rect x="1750.40" y="1368.80" width="13.57" height="1004.59" style="fill:none;stroke:#7B92A8;stroke-width:7.34"/>
	<rect x="1767.64" y="1438.64" width="20.91" height="938.43" style="fill:#7B92A8"/>
	<rect x="1771.32" y="1442.31" width="13.57" height="931.08" style="fill:none;stroke:#7B92A8;stroke-width:7.34"/>
	<rect x="1788.56" y="1783.05" width="20.79" height="594.02" style="fill:#7B92A8"/>
	<rect x="1792.23" y="1786.72" width="13.45" height="586.67" style="fill:none;stroke:#7B92A8;stroke-width:7.34"/>
	<rect x="1809.35" y="2043.67" width="20.91" height="333.39" style="fill:#7B92A8"/>
	<rect x="1813.02" y="2047.34" width="13.57" height="326.05" style="fill:none;stroke:#7B92A8;stroke-width:7.34"/>
	<rect x="1830.26" y="2134.01" width="20.79" height="243.05" style="fill:#7B92A8"/>
	<rect x="1833.93" y="2137.68" width="13.45" height="235.71" style="fill:none;stroke:#7B92A8;stroke-width:7.34"/>
	<rect x="1851.05" y="2076.84" width="20.91" height="300.23" style="fill:#7B92A8"/>
	<rect x="1854.72" y="2080.51" width="13.57" height="292.88" style="fill:none;stroke:#7B92A8;stroke-width:7.34"/>
	<rect x="1871.97" y="2090.08" width="20.91" height="286.99" style="fill:#7B92A8"/>
	<rect x="1875.64" y="2093.75" width="13.57" height="279.64" style="fill:none;stroke:#7B92A8;stroke-width:7.34"/>
	<rect x="1892.88" y="1963.85" width="20.79" height="413.21" style="fill:#7B92A8"/>
	<rect x="1896.55" y="1967.52" width="13.45" height="405.87" style="fill:none;stroke:#7B92A8;stroke-width:7.34"/>
	<rect x="1913.67" y="2078.45" width="20.91" height="298.62" style="fill:#7B92A8"/>
	<rect x="1917.34" y="2082.12" width="13.57" height="291.27" style="fill:none;stroke:#7B92A8;stroke-width:7.34"/>
	<rect x="1934.58" y="2223.73" width="20.79" height="153.33" style="fill:#7B92A8"/>
	<rect x="1938.26" y="2227.41" width="13.45" height="145.99" style="fill:none;stroke:#7B92A8;stroke-width:7.34"/>
	<rect x="1955.37" y="2367.41" width="20.91" height="9.65" style="fill:#7B92A8"/>
	<rect x="1959.05" y="2371.08" width="13.57" height="2.31" style="fill:none;stroke:#7B92A8;stroke-width:7.34"/>
	<rect x="2205.84" y="2375.83" width="20.79" height="1.24" style="fill:#7B92A8"/>
	<rect x="2209.52" y="2373.39" width="13.45" height="6.11" style="fill:none;stroke:#7B92A8;stroke-width:7.34"/>
	<rect x="2226.63" y="2375.21" width="20.91" height="1.86" style="fill:#7B92A8"/>
	<rect x="2230.31" y="2373.39" width="13.57" height="5.49" style="fill:none;stroke:#7B92A8;stroke-width:7.34"/>
	<rect x="2247.55" y="2374.09" width="20.79" height="2.97" style="fill:#7B92A8"/>
	<rect x="2251.22" y="2373.39" width="13.45" height="4.37" style="fill:none;stroke:#7B92A8;stroke-width:7.34"/>
	<rect x="2268.34" y="2369.89" width="20.91" height="7.18" style="fill:#7B92A8"/>
	<rect x="2272.01" y="2373.39" width="13.57" height="0.17" style="fill:none;stroke:#7B92A8;stroke-width:7.34"/>
	<rect x="2289.25" y="2363.45" width="20.91" height="13.61" style="fill:#7B92A8"/>
	<rect x="2292.92" y="2367.12" width="13.57" height="6.27" style="fill:none;stroke:#7B92A8;stroke-width:7.34"/>
	<rect x="2310.16" y="2359.99" width="20.79" height="17.08" style="fill:#7B92A8"/>
	<rect x="2313.84" y="2363.66" width="13.45" height="9.73" style="fill:none;stroke:#7B92A8;stroke-width:7.34"/>
	<rect x="2330.95" y="2342.78" width="20.91" height="34.28" style="fill:#7B92A8"/>
	<rect x="2334.63" y="2346.46" width="13.57" height="26.94" style="fill:none;stroke:#7B92A8;stroke-width:7.34"/>
	<rect x="2351.87" y="2321.75" width="20.79" height="55.32" style="fill:#7B92A8"/>
	<rect x="2355.54" y="2325.42" width="13.45" height="47.97" style="fill:none;stroke:#7B92A8;stroke-width:7.34"/>
	<rect x="2372.66" y="2299.47" width="20.91" height="77.59" style="fill:#7B92A8"/>
	<rect x="2376.33" y="2303.14" width="13.57" height="70.25" style="fill:none;stroke:#7B92A8;stroke-width:7.34"/>
	<rect x="2393.57" y="2260.12" width="20.91" height="116.95" style="fill:#7B92A8"/>
	<rect x="2397.24" y="2263.79" width="13.57" height="109.60" style="fill:none;stroke:#7B92A8;stroke-width:7.34"/>
	<rect x="2414.49" y="2219.28" width="20.79" height="157.79" style="fill:#7B92A8"/>
	<rect x="2418.16" y="2222.95" width="13.45" height="150.44" style="fill:none;stroke:#7B92A8;stroke-width:7.34"/>
	<rect x="2435.28" y="2139.46" width="20.91" height="237.61" style="fill:#7B92A8"/>
	<rect x="2438.95" y="2143.13" width="13.57" height="230.26" style="fill:none;stroke:#7B92A8;stroke-width:7.34"/>
	<rect x="2456.19" y="2097.88" width="20.79" height="279.19" style="fill:#7B92A8"/>
	<rect x="2459.86" y="2101.55" width="13.45" height="271.84" style="fill:none;stroke:#7B92A8;stroke-width:7.34"/>
	<rect x="2476.98" y="2003.95" width="20.91" height="373.12" style="fill:#7B92A8"/>
	<rect x="2480.65" y="2007.62" width="13.57" height="365.77" style="fill:none;stroke:#7B92A8;stroke-width:7.34"/>
	<rect x="2497.89" y="1987.36" width="20.91" height="389.70" style="fill:#7B92A8"/>
	<rect x="2501.57" y="1991.04" width="13.57" height="382.36" style="fill:none;stroke:#7B92A8;stroke-width:7.34"/>
	<rect x="2518.81" y="1965.46" width="20.79" height="411.61" style="fill:#7B92A8"/>
	<rect x="2522.48" y="1969.13" width="13.45" height="404.26" style="fill:none;stroke:#7B92A8;stroke-width:7.34"/>
	<rect x="2539.60" y="1834.77" width="20.91" height="542.29" style="fill:#7B92A8"/>
	<rect x="2543.27" y="1838.45" width="13.57" height="534.95" style="fill:none;stroke:#7B92A8;stroke-width:7.34"/>
	<rect x="2560.51" y="1815.10" width="20.91" height="561.97" style="fill:#7B92A8"/>
	<rect x="2564.18" y="1818.77" width="13.57" height="554.62" style="fill:none;stroke:#7B92A8;stroke-width:7.34"/>
	<rect x="2581.43" y="1750.50" width="20.79" height="626.57" style="fill:#7B92A8"/>
	<rect x="2585.10" y="1754.17" width="13.45" height="619.22" style="fill:none;stroke:#7B92A8;stroke-width:7.34"/>
	<rect x="2602.22" y="1651.74" width="20.91" height="725.32" style="fill:#7B92A8"/>
	<rect x="2605.89" y="1655.41" width="13.57" height="717.98" style="fill:none;stroke:#7B92A8;stroke-width:7.34"/>
	<rect x="2623.13" y="1517.59" width="20.79" height="859.47" style="fill:#7B92A8"/>
	<rect x="2626.80" y="1521.27" width="13.45" height="852.13" style="fill:none;stroke:#7B92A8;stroke-width:7.34"/>
	<rect x="2643.92" y="1283.08" width="20.91" height="1093.98" style="fill:#7B92A8"/>
	<rect x="2647.59" y="1286.75" width="13.57" height="1086.64" style="fill:none;stroke:#7B92A8;stroke-width:7.34"/>
	<rect x="2664.83" y="1154.13" width="20.91" height="1222.94" style="fill:#7B92A8"/>
	<rect x="2668.50" y="1157.80" width="13.57" height="1215.59" style="fill:none;stroke:#7B92A8;stroke-width:7.34"/>
	<rect x="2685.75" y="933.35" width="20.79" height="1443.71" style="fill:#7B92A8"/>
	<rect x="2689.42" y="937.02" width="13.45" height="1436.37" style="fill:none;stroke:#7B92A8;stroke-width:7.34"/>
	<rect x="2706.54" y="914.91" width="20.91" height="1462.15" style="fill:#7B92A8"/>
	<rect x="2710.21" y="918.58" width="13.57" height="1454.81" style="fill:none;stroke:#7B92A8;stroke-width:7.34"/>
	<rect x="2727.45" y="834.10" width="20.79" height="1542.96" style="fill:#7B92A8"/>
	<rect x="2731.12" y="837.77" width="13.45" height="1535.62" style="fill:none;stroke:#7B92A8;stroke-width:7.34"/>
	<rect x="2748.24" y="863.31" width="20.91" height="1513.76" style="fill:#7B92A8"/>
	<rect x="2751.91" y="866.98" width="13.57" height="1506.41" style="fill:none;stroke:#7B92A8;stroke-width:7.34"/>
	<rect x="2769.15" y="1001.05" width="20.91" height="1376.02" style="fill:#7B92A8"/>
	<rect x="2772.83" y="1004.72" width="13.57" height="1368.68" style="fill:none;stroke:#7B92A8;stroke-width:7.34"/>
	<rect x="2790.07" y="1060.69" width="20.79" height="1316.37" style="fill:#7B92A8"/>
	<rect x="2793.74" y="1064.37" width="13.45" height="1309.03" style="fill:none;stroke:#7B92A8;stroke-width:7.34"/>
	<rect x="2810.86" y="1106.73" width="20.91" height="1270.33" style="fill:#7B92A8"/>
	<rect x="2814.53" y="1110.40" width="13.57" height="1262.99" style="fill:none;stroke:#7B92A8;stroke-width:7.34"/>
	<rect x="2831.77" y="895.24" width="20.79" height="1481.83" style="fill:#7B92A8"/>
	<rect x="2835.44" y="898.91" width="13.45" height="1474.49" style="fill:none;stroke:#7B92A8;stroke-width:7.34"/>
	<rect x="2852.56" y="874.82" width="20.91" height="1502.25" style="fill:#7B92A8"/>
	<rect x="2856.23" y="878.49" width="13.57" height="1494.90" style="fill:none;stroke:#7B92A8;stroke-width:7.34"/>
	<rect x="2873.47" y="508.88" width="20.91" height="1868.19" style="fill:#7B92A8"/>
	<rect x="2877.15" y="512.55" width="13.57" height="1860.84" style="fill:none;stroke:#7B92A8;stroke-width:7.34"/>
	<rect x="2894.39" y="596.86" width="20.79" height="1780.20" style="fill:#7B92A8"/>
	<rect x="2898.06" y="600.54" width="13.45" height="1772.86" style="fill:none;stroke:#7B92A8;stroke-width:7.34"/>
	<rect x="2915.18" y="528.18" width="20.91" height="1848.88" style="fill:#7B92A8"/>
	<rect x="2918.85" y="531.85" width="13.57" height="1841.54" style="fill:none;stroke:#7B92A8;stroke-width:7.34"/>
	<rect x="2936.09" y="803.16" width="20.79" height="1573.90" style="fill:#7B92A8"/>
	<rect x="2939.76" y="806.83" width="13.45" height="1566.56" style="fill:none;stroke:#7B92A8;stroke-width:7.34"/>
	<rect x="2956.88" y="1246.70" width="20.91" height="1130.37" style="fill:#7B92A8"/>
	<rect x="2960.55" y="1250.37" width="13.57" height="1123.02" style="fill:none;stroke:#7B92A8;stroke-width:7.34"/>
	<rect x="2977.80" y="1509.92" width="20.91" height="867.14" style="fill:#7B92A8"/>
	<rect x="2981.47" y="1513.59" width="13.57" height="859.80" style="fill:none;stroke:#7B92A8;stroke-width:7.34"/>
	<rect x="2998.71" y="1707.93" width="20.79" height="669.14" style="fill:#7B92A8"/>
	<rect x="3002.38" y="1711.60" width="13.45" height="661.79" style="fill:none;stroke:#7B92A8;stroke-width:7.34"/>
	<rect x="3019.50" y="1768.32" width="20.91" height="608.75" style="fill:#7B92A8"/>
	<rect x="3023.17" y="1771.99" width="13.57" height="601.40" style="fill:none;stroke:#7B92A8;stroke-width:7.34"/>
	<rect x="3040.41" y="1878.21" width="20.79" height="498.85" style="fill:#7B92A8"/>
	<rect x="3044.09" y="1881.88" width="13.45" height="491.51" style="fill:none;stroke:#7B92A8;stroke-width:7.34"/>
	<rect x="3061.20" y="1931.80" width="20.91" height="445.27" style="fill:#7B92A8"/>
	<rect x="3064.88" y="1935.47" width="13.57" height="437.92" style="fill:none;stroke:#7B92A8;stroke-width:7.34"/>
	<rect x="3082.12" y="1929.57" width="20.91" height="447.49" style="fill:#7B92A8"/>
	<rect x="3085.79" y="1933.24" width="13.57" height="440.15" style="fill:none;stroke:#7B92A8;stroke-width:7.34"/>
	<rect x="3103.03" y="1914.10" width="20.79" height="462.96" style="fill:#7B92A8"/>
	<rect x="3106.70" y="1917.77" width="13.45" height="455.62" style="fill:none;stroke:#7B92A8;stroke-width:7.34"/>
	<rect x="3123.82" y="1887.62" width="20.91" height="489.45" style="fill:#7B92A8"/>
	<rect x="3127.49" y="1891.29" width="13.57" height="482.10" style="fill:none;stroke:#7B92A8;stroke-width:7.34"/>
	<rect x="3144.74" y="1792.95" width="20.79" height="584.12" style="fill:#7B92A8"/>
	<rect x="3148.41" y="1796.62" width="13.45" height="576.77" style="fill:none;stroke:#7B92A8;stroke-width:7.34"/>
	<rect x="3165.53" y="1797.28" width="20.91" height="579.79" style="fill:#7B92A8"/>
	<rect x="3169.20" y="1800.95" width="13.57" height="572.44" style="fill:none;stroke:#7B92A8;stroke-width:7.34"/>
	<rect x="3186.44" y="1791.71" width="20.91" height="585.36" style="fill:#7B92A8"/>
	<rect x="3190.11" y="1795.38" width="13.57" height="578.01" style="fill:none;stroke:#7B92A8;stroke-width:7.34"/>
	<rect x="3207.35" y="1952.22" width="20.79" height="424.85" style="fill:#7B92A8"/>
	<rect x="3211.02" y="1955.89" width="13.45" height="417.50" style="fill:none;stroke:#7B92A8;stroke-width:7.34"/>
	<rect x="3228.14" y="2065.33" width="20.91" height="311.74" style="fill:#7B92A8"/>
	<rect x="3231.81" y="2069.00" width="13.57" height="304.39" style="fill:none;stroke:#7B92A8;stroke-width:7.34"/>
	<rect x="3249.06" y="2173.61" width="20.91" height="203.45" style="fill:#7B92A8"/>
	<rect x="3252.73" y="2177.28" width="13.57" height="196.11" style="fill:none;stroke:#7B92A8;stroke-width:7.34"/>
	<rect x="3269.85" y="2186.61" width="20.91" height="190.46" style="fill:#7B92A8"/>
	<rect x="3273.52" y="2190.28" width="13.57" height="183.11" style="fill:none;stroke:#7B92A8;stroke-width:7.34"/>
	<rect x="3290.76" y="2165.82" width="20.91" height="211.25" style="fill:#7B92A8"/>
	<rect x="3294.43" y="2169.49" width="13.57" height="203.90" style="fill:none;stroke:#7B92A8;stroke-width:7.34"/>
	<rect x="3311.67" y="2086.86" width="20.79" height="290.20" style="fill:#7B92A8"/>
	<rect x="3315.35" y="2090.53" width="13.45" height="282.86" style="fill:none;stroke:#7B92A8;stroke-width:7.34"/>
	<rect x="3332.46" y="1985.38" width="20.91" height="391.68" style="fill:#7B92A8"/>
	<rect x="3336.14" y="1989.06" width="13.57" height="384.34" style="fill:none;stroke:#7B92A8;stroke-width:7.34"/>
	<rect x="3353.38" y="1859.15" width="20.91" height="517.91" style="fill:#7B92A8"/>
	<rect x="3357.05" y="1862.83" width="13.57" height="510.57" style="fill:none;stroke:#7B92A8;stroke-width:7.34"/>
	<rect x="3374.29" y="1792.57" width="20.79" height="584.49" style="fill:#7B92A8"/>
	<rect x="3377.96" y="1796.25" width="13.45" height="577.15" style="fill:none;stroke:#7B92A8;stroke-width:7.34"/>
	<rect x="3395.08" y="1766.46" width="20.91" height="610.60" style="fill:#7B92A8"/>
	<rect x="3398.75" y="1770.13" width="13.57" height="603.26" style="fill:none;stroke:#7B92A8;stroke-width:7.34"/>
	<rect x="3415.99" y="1768.20" width="20.79" height="608.87" style="fill:#7B92A8"/>
	<rect x="3419.67" y="1771.87" width="13.45" height="601.53" style="fill:none;stroke:#7B92A8;stroke-width:7.34"/>
	<rect x="3436.78" y="1760.03" width="20.91" height="617.04" style="fill:#7B92A8"/>
	<rect x="3440.46" y="1763.70" width="13.57" height="609.69" style="fill:none;stroke:#7B92A8;stroke-width:7.34"/>
	<rect x="3457.70" y="1528.98" width="20.91" height="848.09" style="fill:#7B92A8"/>
	<rect x="3461.37" y="1532.65" width="13.57" height="840.74" style="fill:none;stroke:#7B92A8;stroke-width:7.34"/>
	<rect x="3478.61" y="1352.63" width="20.79" height="1024.43" style="fill:#7B92A8"/>
	<rect x="3482.28" y="1356.30" width="13.45" height="1017.09" style="fill:none;stroke:#7B92A8;stroke-width:7.34"/>
	<rect x="3499.40" y="1326.77" width="20.91" height="1050.30" style="fill:#7B92A8"/>
	<rect x="3503.07" y="1330.44" width="13.57" height="1042.96" style="fill:none;stroke:#7B92A8;stroke-width:7.34"/>
	<rect x="3520.32" y="1463.27" width="20.79" height="913.80" style="fill:#7B92A8"/>
	<rect x="3523.99" y="1466.94" width="13.45" height="906.45" style="fill:none;stroke:#7B92A8;stroke-width:7.34"/>
	<rect x="3541.11" y="1776.61" width="20.91" height="600.45" style="fill:#7B92A8"/>
	<rect x="3544.78" y="1780.28" width="13.57" height="593.11" style="fill:none;stroke:#7B92A8;stroke-width:7.34"/>
	<rect x="3562.02" y="2055.30" width="20.91" height="321.76" style="fill:#7B92A8"/>
	<rect x="3565.69" y="2058.98" width="13.57" height="314.42" style="fill:none;stroke:#7B92A8;stroke-width:7.34"/>
	<rect x="3582.93" y="2122.26" width="20.79" height="254.81" style="fill:#7B92A8"/>
	<rect x="3586.61" y="2125.93" width="13.45" height="247.47" style="fill:none;stroke:#7B92A8;stroke-width:7.34"/>
	<rect x="3603.72" y="2114.46" width="20.91" height="262.61" style="fill:#7B92A8"/>
	<rect x="3607.40" y="2118.13" width="13.57" height="255.26" style="fill:none;stroke:#7B92A8;stroke-width:7.34"/>
	<rect x="3624.64" y="2035.63" width="20.79" height="341.44" style="fill:#7B92A8"/>
	<rect x="3628.31" y="2039.30" width="13.45" height="334.09" style="fill:none;stroke:#7B92A8;stroke-width:7.34"/>
	<rect x="3645.43" y="1972.76" width="20.91" height="404.30" style="fill:#7B92A8"/>
	<rect x="3649.10" y="1976.43" width="13.57" height="396.96" style="fill:none;stroke:#7B92A8;stroke-width:7.34"/>
	<rect x="3666.34" y="2041.32" width="20.91" height="335.74" style="fill:#7B92A8"/>
	<rect x="3670.01" y="2044.99" width="13.57" height="328.40" style="fill:none;stroke:#7B92A8;stroke-width:7.34"/>
	<rect x="3687.26" y="2243.66" width="20.79" height="133.41" style="fill:#7B92A8"/>
	<rect x="3690.93" y="2247.33" width="13.45" height="126.06" style="fill:none;stroke:#7B92A8;stroke-width:7.34"/>
	<rect x="3708.05" y="2353.43" width="20.91" height="23.64" style="fill:#7B92A8"/>
	<rect x="3711.72" y="2357.10" width="13.57" height="16.29" style="fill:none;stroke:#7B92A8;stroke-width:7.34"/>
	<rect x="3728.96" y="2376.07" width="20.79" height="0.99" style="fill:#7B92A8"/>
	<rect x="3732.63" y="2373.39" width="13.45" height="6.35" style="fill:none;stroke:#7B92A8;stroke-width:7.34"/>
	<rect x="3749.75" y="2376.82" width="20.91" height="0.25" style="fill:#7B92A8"/>
	<rect x="3753.42" y="2373.39" width="13.57" height="7.10" style="fill:none;stroke:#7B92A8;stroke-width:7.34"/>
	<line x1="388.33" y1="2377.06" x2="388.33" y2="258.27" style="stroke:#000000;stroke-width:4.90"/>
	<line x1="388.33" y1="2377.06" x2="354.30" y2="2377.06" style="stroke:#000000;stroke-width:4.90"/>
	<text x="311.78" y="2377.06" style="font-family:'Helvetica';font-size:85.02px;fill:#000000" transform="rotate(-90 311.78,2377.06)" text-anchor="middle">0</text>
	<line x1="388.33" y1="1860.89" x2="354.30" y2="1860.89" style="stroke:#000000;stroke-width:4.90"/>
	<text x="311.78" y="1860.89" style="font-family:'Helvetica';font-size:85.02px;fill:#000000" transform="rotate(-90 311.78,1860.89)" text-anchor="middle">2</text>
	<line x1="388.33" y1="1344.59" x2="354.30" y2="1344.59" style="stroke:#000000;stroke-width:4.90"/>
	<text x="311.78" y="1344.59" style="font-family:'Helvetica';font-size:85.02px;fill:#000000" transform="rotate(-90 311.78,1344.59)" text-anchor="middle">4</text>
	<line x1="388.33" y1="828.28" x2="354.30" y2="828.28" style="stroke:#000000;stroke-width:4.90"/>
	<text x="311.78" y="828.28" style="font-family:'Helvetica';font-size:85.02px;fill:#000000" transform="rotate(-90 311.78,828.28)" text-anchor="middle">6</text>
	<line x1="388.33" y1="312.11" x2="354.30" y2="312.11" style="stroke:#000000;stroke-width:4.90"/>
	<text x="311.78" y="312.11" style="font-family:'Helvetica';font-size:85.02px;fill:#000000" transform="rotate(-90 311.78,312.11)" text-anchor="middle">8</text>
	<line x1="388.33" y1="2377.06" x2="2071.82" y2="2377.06" style="stroke:#000000;stroke-width:4.90"/>
	<line x1="442.16" y1="2377.06" x2="442.16" y2="2411.10" style="stroke:#000000;stroke-width:4.90"/>
	<text x="442.16" y="2487.50" style="font-family:'Helvetica';font-size:85.02px;fill:#000000" text-anchor="middle">.5</text>
	<line x1="819.23" y1="2377.06" x2="819.23" y2="2411.10" style="stroke:#000000;stroke-width:4.90"/>
	<text x="819.23" y="2487.50" style="font-family:'Helvetica';font-size:85.02px;fill:#000000" text-anchor="middle">.6</text>
	<line x1="1196.17" y1="2377.06" x2="1196.17" y2="2411.10" style="stroke:#000000;stroke-width:4.90"/>
	<text x="1196.17" y="2487.50" style="font-family:'Helvetica';font-size:85.02px;fill:#000000" text-anchor="middle">.7</text>
	<line x1="1573.23" y1="2377.06" x2="1573.23" y2="2411.10" style="stroke:#000000;stroke-width:4.90"/>
	<text x="1573.23" y="2487.50" style="font-family:'Helvetica';font-size:85.02px;fill:#000000" text-anchor="middle">.8</text>
	<line x1="1950.18" y1="2377.06" x2="1950.18" y2="2411.10" style="stroke:#000000;stroke-width:4.90"/>
	<text x="1950.18" y="2487.50" style="font-family:'Helvetica';font-size:85.02px;fill:#000000" text-anchor="middle">.9</text>
	<line x1="2141.00" y1="2377.06" x2="3824.49" y2="2377.06" style="stroke:#000000;stroke-width:4.90"/>
	<line x1="2194.83" y1="2377.06" x2="2194.83" y2="2411.10" style="stroke:#000000;stroke-width:4.90"/>
	<text x="2194.83" y="2487.50" style="font-family:'Helvetica';font-size:85.02px;fill:#000000" text-anchor="middle">.5</text>
	<line x1="2571.90" y1="2377.06" x2="2571.90" y2="2411.10" style="stroke:#000000;stroke-width:4.90"/>
	<text x="2571.90" y="2487.50" style="font-family:'Helvetica';font-size:85.02px;fill:#000000" text-anchor="middle">.6</text>
	<line x1="2948.84" y1="2377.06" x2="2948.84" y2="2411.10" style="stroke:#000000;stroke-width:4.90"/>
	<text x="2948.84" y="2487.50" style="font-family:'Helvetica';font-size:85.02px;fill:#000000" text-anchor="middle">.7</text>
	<line x1="3325.91" y1="2377.06" x2="3325.91" y2="2411.10" style="stroke:#000000;stroke-width:4.90"/>
	<text x="3325.91" y="2487.50" style="font-family:'Helvetica';font-size:85.02px;fill:#000000" text-anchor="middle">.8</text>
	<line x1="3702.85" y1="2377.06" x2="3702.85" y2="2411.10" style="stroke:#000000;stroke-width:4.90"/>
	<text x="3702.85" y="2487.50" style="font-family:'Helvetica';font-size:85.02px;fill:#000000" text-anchor="middle">.9</text>
	<rect x="388.33" y="135.39" width="1683.50" height="122.89" style="fill:#D9E6EB"/>
	<rect x="390.78" y="137.83" width="1678.60" height="117.99" style="fill:none;stroke:#D9E6EB;stroke-width:4.90"/>
	<text x="1230.08" y="215.42" style="font-family:'Helvetica';font-size:93.56px;fill:#000000" text-anchor="middle">LABA/LAMA Combination</text>
	<rect x="2141.00" y="135.39" width="1683.49" height="122.89" style="fill:#D9E6EB"/>
	<rect x="2143.45" y="137.83" width="1678.60" height="117.99" style="fill:none;stroke:#D9E6EB;stroke-width:4.90"/>
	<text x="2982.75" y="215.42" style="font-family:'Helvetica';font-size:93.56px;fill:#000000" text-anchor="middle">ICS Combination</text>
	<text x="170.79" y="1332.71" style="font-family:'Helvetica';font-size:99.99px;fill:#000000" transform="rotate(-90 170.79,1332.71)" text-anchor="middle">Density</text>
	<text x="2029.99" y="2634.61" style="font-family:'Helvetica';font-size:99.99px;fill:#000000" text-anchor="middle">Pr(exposure)</text>
	<text x="218.05" y="2737.89" style="font-family:'Helvetica';font-size:79.94px;fill:#000000">Graphs by COPD Treatment Exposure</text>
</svg>
