<?xml version="1.0" encoding="UTF-8" standalone="no"?>
<!-- This is a Stata 16.1 generated SVG file (http://www.stata.com) -->

<svg version="1.1" width="5.50in" height="4.00in" viewBox="0 0 3960 2880" xmlns="http://www.w3.org/2000/svg" xmlns:xlink="http://www.w3.org/1999/xlink">
	<desc>Stata Graph - Graph</desc>
	<rect x="0" y="0" width="3960" height="2880" style="fill:#EAF2F3;stroke:none"/>
	<rect x="0.00" y="0.00" width="3959.88" height="2880.00" style="fill:#FFFFFF"/>
	<rect x="2.88" y="2.88" width="3954.12" height="2874.24" style="fill:none;stroke:#EAF2F3;stroke-width:5.76"/>
	<rect x="388.33" y="258.27" width="1683.50" height="2118.79" style="fill:#FFFFFF"/>
	<rect x="390.78" y="260.72" width="1678.60" height="2113.89" style="fill:none;stroke:#FFFFFF;stroke-width:4.90"/>
	<line x1="388.33" y1="2377.06" x2="2071.82" y2="2377.06" style="stroke:#EAF2F3;stroke-width:7.34"/>
	<line x1="388.33" y1="1860.89" x2="2071.82" y2="1860.89" style="stroke:#EAF2F3;stroke-width:7.34"/>
	<line x1="388.33" y1="1344.59" x2="2071.82" y2="1344.59" style="stroke:#EAF2F3;stroke-width:7.34"/>
	<line x1="388.33" y1="828.28" x2="2071.82" y2="828.28" style="stroke:#EAF2F3;stroke-width:7.34"/>
	<line x1="388.33" y1="312.11" x2="2071.82" y2="312.11" style="stroke:#EAF2F3;stroke-width:7.34"/>
	<rect x="2141.00" y="258.27" width="1683.49" height="2118.79" style="fill:#FFFFFF"/>
	<rect x="2143.45" y="260.72" width="1678.60" height="2113.89" style="fill:none;stroke:#FFFFFF;stroke-width:4.90"/>
	<line x1="2141.00" y1="2377.06" x2="3824.49" y2="2377.06" style="stroke:#EAF2F3;stroke-width:7.34"/>
	<line x1="2141.00" y1="1860.89" x2="3824.49" y2="1860.89" style="stroke:#EAF2F3;stroke-width:7.34"/>
	<line x1="2141.00" y1="1344.59" x2="3824.49" y2="1344.59" style="stroke:#EAF2F3;stroke-width:7.34"/>
	<line x1="2141.00" y1="828.28" x2="3824.49" y2="828.28" style="stroke:#EAF2F3;stroke-width:7.34"/>
	<line x1="2141.00" y1="312.11" x2="3824.49" y2="312.11" style="stroke:#EAF2F3;stroke-width:7.34"/>
	<rect x="453.17" y="2375.83" width="21.16" height="1.24" style="fill:#7B92A8"/>
	<rect x="456.84" y="2373.39" width="13.82" height="6.11" style="fill:none;stroke:#7B92A8;stroke-width:7.34"/>
	<rect x="474.33" y="2376.69" width="21.16" height="0.37" style="fill:#7B92A8"/>
	<rect x="478.01" y="2373.39" width="13.82" height="6.97" style="fill:none;stroke:#7B92A8;stroke-width:7.34"/>
	<rect x="495.50" y="2373.35" width="21.04" height="3.71" style="fill:#7B92A8"/>
	<rect x="499.17" y="2373.39" width="13.69" height="3.63" style="fill:none;stroke:#7B92A8;stroke-width:7.34"/>
	<rect x="516.53" y="2371.87" width="21.16" height="5.20" style="fill:#7B92A8"/>
	<rect x="520.20" y="2373.39" width="13.82" height="2.15" style="fill:none;stroke:#7B92A8;stroke-width:7.34"/>
	<rect x="537.69" y="2372.24" width="21.16" height="4.83" style="fill:#7B92A8"/>
	<rect x="541.37" y="2373.39" width="13.82" height="2.52" style="fill:none;stroke:#7B92A8;stroke-width:7.34"/>
	<rect x="558.86" y="2365.56" width="21.16" height="11.51" style="fill:#7B92A8"/>
	<rect x="562.53" y="2369.23" width="13.82" height="4.17" style="fill:none;stroke:#7B92A8;stroke-width:7.34"/>
	<rect x="580.02" y="2354.05" width="21.16" height="23.02" style="fill:#7B92A8"/>
	<rect x="583.69" y="2357.72" width="13.82" height="15.67" style="fill:none;stroke:#7B92A8;stroke-width:7.34"/>
	<rect x="601.18" y="2339.32" width="21.16" height="37.74" style="fill:#7B92A8"/>
	<rect x="604.85" y="2342.99" width="13.82" height="30.40" style="fill:none;stroke:#7B92A8;stroke-width:7.34"/>
	<rect x="622.34" y="2323.48" width="21.16" height="53.59" style="fill:#7B92A8"/>
	<rect x="626.01" y="2327.15" width="13.82" height="46.24" style="fill:none;stroke:#7B92A8;stroke-width:7.34"/>
	<rect x="643.50" y="2292.17" width="21.16" height="84.90" style="fill:#7B92A8"/>
	<rect x="647.17" y="2295.84" width="13.82" height="77.55" style="fill:none;stroke:#7B92A8;stroke-width:7.34"/>
	<rect x="664.66" y="2242.42" width="21.16" height="134.64" style="fill:#7B92A8"/>
	<rect x="668.33" y="2246.09" width="13.82" height="127.30" style="fill:none;stroke:#7B92A8;stroke-width:7.34"/>
	<rect x="685.82" y="2189.95" width="21.04" height="187.12" style="fill:#7B92A8"/>
	<rect x="689.49" y="2193.62" width="13.69" height="179.77" style="fill:none;stroke:#7B92A8;stroke-width:7.34"/>
	<rect x="706.86" y="2146.88" width="21.16" height="230.18" style="fill:#7B92A8"/>
	<rect x="710.53" y="2150.55" width="13.82" height="222.84" style="fill:none;stroke:#7B92A8;stroke-width:7.34"/>
	<rect x="728.02" y="2066.44" width="21.16" height="310.62" style="fill:#7B92A8"/>
	<rect x="731.69" y="2070.11" width="13.82" height="303.28" style="fill:none;stroke:#7B92A8;stroke-width:7.34"/>
	<rect x="749.18" y="2033.28" width="21.16" height="343.79" style="fill:#7B92A8"/>
	<rect x="752.85" y="2036.95" width="13.82" height="336.44" style="fill:none;stroke:#7B92A8;stroke-width:7.34"/>
	<rect x="770.34" y="1996.27" width="21.16" height="380.79" style="fill:#7B92A8"/>
	<rect x="774.02" y="1999.95" width="13.82" height="373.45" style="fill:none;stroke:#7B92A8;stroke-width:7.34"/>
	<rect x="791.50" y="1877.10" width="21.16" height="499.97" style="fill:#7B92A8"/>
	<rect x="795.18" y="1880.77" width="13.82" height="492.62" style="fill:none;stroke:#7B92A8;stroke-width:7.34"/>
	<rect x="812.67" y="1965.21" width="21.16" height="411.85" style="fill:#7B92A8"/>
	<rect x="816.34" y="1968.88" width="13.82" height="404.51" style="fill:none;stroke:#7B92A8;stroke-width:7.34"/>
	<rect x="833.83" y="1806.19" width="21.16" height="570.88" style="fill:#7B92A8"/>
	<rect x="837.50" y="1809.86" width="13.82" height="563.53" style="fill:none;stroke:#7B92A8;stroke-width:7.34"/>
	<rect x="854.99" y="1705.82" width="21.04" height="671.24" style="fill:#7B92A8"/>
	<rect x="858.66" y="1709.50" width="13.69" height="663.90" style="fill:none;stroke:#7B92A8;stroke-width:7.34"/>
	<rect x="876.03" y="1561.65" width="21.16" height="815.41" style="fill:#7B92A8"/>
	<rect x="879.70" y="1565.32" width="13.82" height="808.07" style="fill:none;stroke:#7B92A8;stroke-width:7.34"/>
	<rect x="897.19" y="1366.12" width="21.16" height="1010.95" style="fill:#7B92A8"/>
	<rect x="900.86" y="1369.79" width="13.82" height="1003.60" style="fill:none;stroke:#7B92A8;stroke-width:7.34"/>
	<rect x="918.35" y="1259.44" width="21.16" height="1117.62" style="fill:#7B92A8"/>
	<rect x="922.02" y="1263.11" width="13.82" height="1110.28" style="fill:none;stroke:#7B92A8;stroke-width:7.34"/>
	<rect x="939.51" y="1018.49" width="21.16" height="1358.57" style="fill:#7B92A8"/>
	<rect x="943.18" y="1022.17" width="13.82" height="1351.23" style="fill:none;stroke:#7B92A8;stroke-width:7.34"/>
	<rect x="960.67" y="1041.88" width="21.16" height="1335.18" style="fill:#7B92A8"/>
	<rect x="964.34" y="1045.56" width="13.82" height="1327.84" style="fill:none;stroke:#7B92A8;stroke-width:7.34"/>
	<rect x="981.83" y="962.43" width="21.16" height="1414.63" style="fill:#7B92A8"/>
	<rect x="985.50" y="966.11" width="13.82" height="1407.29" style="fill:none;stroke:#7B92A8;stroke-width:7.34"/>
	<rect x="1002.99" y="1054.88" width="21.16" height="1322.19" style="fill:#7B92A8"/>
	<rect x="1006.67" y="1058.55" width="13.82" height="1314.84" style="fill:none;stroke:#7B92A8;stroke-width:7.34"/>
	<rect x="1024.15" y="1095.59" width="21.16" height="1281.47" style="fill:#7B92A8"/>
	<rect x="1027.83" y="1099.26" width="13.82" height="1274.13" style="fill:none;stroke:#7B92A8;stroke-width:7.34"/>
	<rect x="1045.32" y="1231.72" width="21.04" height="1145.34" style="fill:#7B92A8"/>
	<rect x="1048.99" y="1235.39" width="13.69" height="1138.00" style="fill:none;stroke:#7B92A8;stroke-width:7.34"/>
	<rect x="1066.35" y="1069.23" width="21.16" height="1307.83" style="fill:#7B92A8"/>
	<rect x="1070.03" y="1072.91" width="13.82" height="1300.49" style="fill:none;stroke:#7B92A8;stroke-width:7.34"/>
	<rect x="1087.52" y="824.20" width="21.16" height="1552.86" style="fill:#7B92A8"/>
	<rect x="1091.19" y="827.87" width="13.82" height="1545.52" style="fill:none;stroke:#7B92A8;stroke-width:7.34"/>
	<rect x="1108.68" y="828.16" width="21.16" height="1548.90" style="fill:#7B92A8"/>
	<rect x="1112.35" y="831.83" width="13.82" height="1541.56" style="fill:none;stroke:#7B92A8;stroke-width:7.34"/>
	<rect x="1129.84" y="565.80" width="21.16" height="1811.26" style="fill:#7B92A8"/>
	<rect x="1133.51" y="569.47" width="13.82" height="1803.92" style="fill:none;stroke:#7B92A8;stroke-width:7.34"/>
	<rect x="1151.00" y="861.82" width="21.16" height="1515.24" style="fill:#7B92A8"/>
	<rect x="1154.67" y="865.49" width="13.82" height="1507.90" style="fill:none;stroke:#7B92A8;stroke-width:7.34"/>
	<rect x="1172.16" y="440.32" width="21.16" height="1936.75" style="fill:#7B92A8"/>
	<rect x="1175.83" y="443.99" width="13.82" height="1929.40" style="fill:none;stroke:#7B92A8;stroke-width:7.34"/>
	<rect x="1193.32" y="1209.45" width="21.16" height="1167.62" style="fill:#7B92A8"/>
	<rect x="1196.99" y="1213.12" width="13.82" height="1160.27" style="fill:none;stroke:#7B92A8;stroke-width:7.34"/>
	<rect x="1214.48" y="1300.28" width="21.16" height="1076.78" style="fill:#7B92A8"/>
	<rect x="1218.15" y="1303.95" width="13.82" height="1069.44" style="fill:none;stroke:#7B92A8;stroke-width:7.34"/>
	<rect x="1235.64" y="1565.98" width="21.04" height="811.08" style="fill:#7B92A8"/>
	<rect x="1239.32" y="1569.65" width="13.69" height="803.74" style="fill:none;stroke:#7B92A8;stroke-width:7.34"/>
	<rect x="1256.68" y="1719.19" width="21.16" height="657.88" style="fill:#7B92A8"/>
	<rect x="1260.35" y="1722.86" width="13.82" height="650.53" style="fill:none;stroke:#7B92A8;stroke-width:7.34"/>
	<rect x="1277.84" y="1825.37" width="21.16" height="551.69" style="fill:#7B92A8"/>
	<rect x="1281.51" y="1829.04" width="13.82" height="544.35" style="fill:none;stroke:#7B92A8;stroke-width:7.34"/>
	<rect x="1299.00" y="1903.83" width="21.16" height="473.23" style="fill:#7B92A8"/>
	<rect x="1302.68" y="1907.50" width="13.82" height="465.89" style="fill:none;stroke:#7B92A8;stroke-width:7.34"/>
	<rect x="1320.16" y="1883.91" width="21.16" height="493.16" style="fill:#7B92A8"/>
	<rect x="1323.84" y="1887.58" width="13.82" height="485.82" style="fill:none;stroke:#7B92A8;stroke-width:7.34"/>
	<rect x="1341.33" y="1930.19" width="21.16" height="446.88" style="fill:#7B92A8"/>
	<rect x="1345.00" y="1933.86" width="13.82" height="439.53" style="fill:none;stroke:#7B92A8;stroke-width:7.34"/>
	<rect x="1362.49" y="1865.47" width="21.16" height="511.60" style="fill:#7B92A8"/>
	<rect x="1366.16" y="1869.14" width="13.82" height="504.25" style="fill:none;stroke:#7B92A8;stroke-width:7.34"/>
	<rect x="1383.65" y="1881.93" width="21.16" height="495.14" style="fill:#7B92A8"/>
	<rect x="1387.32" y="1885.60" width="13.82" height="487.80" style="fill:none;stroke:#7B92A8;stroke-width:7.34"/>
	<rect x="1404.81" y="1711.14" width="21.04" height="665.92" style="fill:#7B92A8"/>
	<rect x="1408.48" y="1714.82" width="13.69" height="658.58" style="fill:none;stroke:#7B92A8;stroke-width:7.34"/>
	<rect x="1425.85" y="1774.14" width="21.16" height="602.93" style="fill:#7B92A8"/>
	<rect x="1429.52" y="1777.81" width="13.82" height="595.59" style="fill:none;stroke:#7B92A8;stroke-width:7.34"/>
	<rect x="1447.01" y="1758.17" width="21.16" height="618.89" style="fill:#7B92A8"/>
	<rect x="1450.68" y="1761.84" width="13.82" height="611.55" style="fill:none;stroke:#7B92A8;stroke-width:7.34"/>
	<rect x="1468.17" y="1984.89" width="21.16" height="392.18" style="fill:#7B92A8"/>
	<rect x="1471.84" y="1988.56" width="13.82" height="384.83" style="fill:none;stroke:#7B92A8;stroke-width:7.34"/>
	<rect x="1489.33" y="2154.80" width="21.16" height="222.26" style="fill:#7B92A8"/>
	<rect x="1493.00" y="2158.47" width="13.82" height="214.92" style="fill:none;stroke:#7B92A8;stroke-width:7.34"/>
	<rect x="1510.49" y="2185.74" width="21.16" height="191.32" style="fill:#7B92A8"/>
	<rect x="1514.16" y="2189.41" width="13.82" height="183.98" style="fill:none;stroke:#7B92A8;stroke-width:7.34"/>
	<rect x="1531.65" y="2174.23" width="21.16" height="202.83" style="fill:#7B92A8"/>
	<rect x="1535.33" y="2177.90" width="13.82" height="195.49" style="fill:none;stroke:#7B92A8;stroke-width:7.34"/>
	<rect x="1552.82" y="2058.52" width="21.16" height="318.54" style="fill:#7B92A8"/>
	<rect x="1556.49" y="2062.19" width="13.82" height="311.20" style="fill:none;stroke:#7B92A8;stroke-width:7.34"/>
	<rect x="1573.98" y="1965.95" width="21.16" height="411.11" style="fill:#7B92A8"/>
	<rect x="1577.65" y="1969.63" width="13.82" height="403.77" style="fill:none;stroke:#7B92A8;stroke-width:7.34"/>
	<rect x="1595.14" y="1876.36" width="21.04" height="500.71" style="fill:#7B92A8"/>
	<rect x="1598.81" y="1880.03" width="13.69" height="493.36" style="fill:none;stroke:#7B92A8;stroke-width:7.34"/>
	<rect x="1616.17" y="1708.17" width="21.16" height="668.89" style="fill:#7B92A8"/>
	<rect x="1619.85" y="1711.85" width="13.82" height="661.55" style="fill:none;stroke:#7B92A8;stroke-width:7.34"/>
	<rect x="1637.34" y="1631.82" width="21.16" height="745.25" style="fill:#7B92A8"/>
	<rect x="1641.01" y="1635.49" width="13.82" height="737.90" style="fill:none;stroke:#7B92A8;stroke-width:7.34"/>
	<rect x="1658.50" y="1675.87" width="21.16" height="701.19" style="fill:#7B92A8"/>
	<rect x="1662.17" y="1679.55" width="13.82" height="693.85" style="fill:none;stroke:#7B92A8;stroke-width:7.34"/>
	<rect x="1679.66" y="1643.33" width="21.16" height="733.74" style="fill:#7B92A8"/>
	<rect x="1683.33" y="1647.00" width="13.82" height="726.39" style="fill:none;stroke:#7B92A8;stroke-width:7.34"/>
	<rect x="1700.82" y="1298.18" width="21.16" height="1078.89" style="fill:#7B92A8"/>
	<rect x="1704.49" y="1301.85" width="13.82" height="1071.54" style="fill:none;stroke:#7B92A8;stroke-width:7.34"/>
	<rect x="1721.98" y="1269.84" width="21.16" height="1107.23" style="fill:#7B92A8"/>
	<rect x="1725.65" y="1273.51" width="13.82" height="1099.88" style="fill:none;stroke:#7B92A8;stroke-width:7.34"/>
	<rect x="1743.14" y="1231.85" width="21.16" height="1145.22" style="fill:#7B92A8"/>
	<rect x="1746.81" y="1235.52" width="13.82" height="1137.87" style="fill:none;stroke:#7B92A8;stroke-width:7.34"/>
	<rect x="1764.30" y="1130.99" width="21.04" height="1246.08" style="fill:#7B92A8"/>
	<rect x="1767.98" y="1134.66" width="13.69" height="1238.73" style="fill:none;stroke:#7B92A8;stroke-width:7.34"/>
	<rect x="1785.34" y="1654.71" width="21.16" height="722.35" style="fill:#7B92A8"/>
	<rect x="1789.01" y="1658.38" width="13.82" height="715.01" style="fill:none;stroke:#7B92A8;stroke-width:7.34"/>
	<rect x="1806.50" y="1911.50" width="21.16" height="465.56" style="fill:#7B92A8"/>
	<rect x="1810.17" y="1915.17" width="13.82" height="458.22" style="fill:none;stroke:#7B92A8;stroke-width:7.34"/>
	<rect x="1827.66" y="2069.16" width="21.16" height="307.90" style="fill:#7B92A8"/>
	<rect x="1831.34" y="2072.84" width="13.82" height="300.56" style="fill:none;stroke:#7B92A8;stroke-width:7.34"/>
	<rect x="1848.83" y="2031.17" width="21.16" height="345.89" style="fill:#7B92A8"/>
	<rect x="1852.50" y="2034.84" width="13.82" height="338.55" style="fill:none;stroke:#7B92A8;stroke-width:7.34"/>
	<rect x="1869.99" y="1990.33" width="21.16" height="386.73" style="fill:#7B92A8"/>
	<rect x="1873.66" y="1994.01" width="13.82" height="379.39" style="fill:none;stroke:#7B92A8;stroke-width:7.34"/>
	<rect x="1891.15" y="1884.77" width="21.16" height="492.29" style="fill:#7B92A8"/>
	<rect x="1894.82" y="1888.44" width="13.82" height="484.95" style="fill:none;stroke:#7B92A8;stroke-width:7.34"/>
	<rect x="1912.31" y="1985.14" width="21.16" height="391.93" style="fill:#7B92A8"/>
	<rect x="1915.98" y="1988.81" width="13.82" height="384.58" style="fill:none;stroke:#7B92A8;stroke-width:7.34"/>
	<rect x="1933.47" y="2174.11" width="21.16" height="202.96" style="fill:#7B92A8"/>
	<rect x="1937.14" y="2177.78" width="13.82" height="195.61" style="fill:none;stroke:#7B92A8;stroke-width:7.34"/>
	<rect x="1954.63" y="2364.94" width="21.04" height="12.13" style="fill:#7B92A8"/>
	<rect x="1958.30" y="2368.61" width="13.69" height="4.78" style="fill:none;stroke:#7B92A8;stroke-width:7.34"/>
	<rect x="2205.84" y="2376.20" width="21.04" height="0.87" style="fill:#7B92A8"/>
	<rect x="2209.52" y="2373.39" width="13.69" height="6.48" style="fill:none;stroke:#7B92A8;stroke-width:7.34"/>
	<rect x="2226.88" y="2375.83" width="21.16" height="1.24" style="fill:#7B92A8"/>
	<rect x="2230.55" y="2373.39" width="13.82" height="6.11" style="fill:none;stroke:#7B92A8;stroke-width:7.34"/>
	<rect x="2248.04" y="2374.47" width="21.16" height="2.60" style="fill:#7B92A8"/>
	<rect x="2251.71" y="2373.39" width="13.82" height="4.74" style="fill:none;stroke:#7B92A8;stroke-width:7.34"/>
	<rect x="2269.20" y="2372.24" width="21.16" height="4.83" style="fill:#7B92A8"/>
	<rect x="2272.88" y="2373.39" width="13.82" height="2.52" style="fill:none;stroke:#7B92A8;stroke-width:7.34"/>
	<rect x="2290.36" y="2366.67" width="21.16" height="10.40" style="fill:#7B92A8"/>
	<rect x="2294.04" y="2370.34" width="13.82" height="3.05" style="fill:none;stroke:#7B92A8;stroke-width:7.34"/>
	<rect x="2311.53" y="2363.95" width="21.16" height="13.12" style="fill:#7B92A8"/>
	<rect x="2315.20" y="2367.62" width="13.82" height="5.77" style="fill:none;stroke:#7B92A8;stroke-width:7.34"/>
	<rect x="2332.69" y="2348.23" width="21.16" height="28.83" style="fill:#7B92A8"/>
	<rect x="2336.36" y="2351.90" width="13.82" height="21.49" style="fill:none;stroke:#7B92A8;stroke-width:7.34"/>
	<rect x="2353.85" y="2334.74" width="21.16" height="42.32" style="fill:#7B92A8"/>
	<rect x="2357.52" y="2338.41" width="13.82" height="34.98" style="fill:none;stroke:#7B92A8;stroke-width:7.34"/>
	<rect x="2375.01" y="2313.33" width="21.16" height="63.73" style="fill:#7B92A8"/>
	<rect x="2378.68" y="2317.00" width="13.82" height="56.39" style="fill:none;stroke:#7B92A8;stroke-width:7.34"/>
	<rect x="2396.17" y="2279.17" width="21.04" height="97.89" style="fill:#7B92A8"/>
	<rect x="2399.84" y="2282.85" width="13.69" height="90.55" style="fill:none;stroke:#7B92A8;stroke-width:7.34"/>
	<rect x="2417.21" y="2247.74" width="21.16" height="129.32" style="fill:#7B92A8"/>
	<rect x="2420.88" y="2251.41" width="13.82" height="121.98" style="fill:none;stroke:#7B92A8;stroke-width:7.34"/>
	<rect x="2438.37" y="2179.92" width="21.16" height="197.14" style="fill:#7B92A8"/>
	<rect x="2442.04" y="2183.60" width="13.82" height="189.80" style="fill:none;stroke:#7B92A8;stroke-width:7.34"/>
	<rect x="2459.53" y="2147.62" width="21.16" height="229.44" style="fill:#7B92A8"/>
	<rect x="2463.20" y="2151.30" width="13.82" height="222.10" style="fill:none;stroke:#7B92A8;stroke-width:7.34"/>
	<rect x="2480.69" y="2061.86" width="21.16" height="315.20" style="fill:#7B92A8"/>
	<rect x="2484.36" y="2065.54" width="13.82" height="307.86" style="fill:none;stroke:#7B92A8;stroke-width:7.34"/>
	<rect x="2501.85" y="2033.89" width="21.16" height="343.17" style="fill:#7B92A8"/>
	<rect x="2505.53" y="2037.57" width="13.82" height="335.83" style="fill:none;stroke:#7B92A8;stroke-width:7.34"/>
	<rect x="2523.01" y="2017.31" width="21.16" height="359.75" style="fill:#7B92A8"/>
	<rect x="2526.69" y="2020.98" width="13.82" height="352.41" style="fill:none;stroke:#7B92A8;stroke-width:7.34"/>
	<rect x="2544.18" y="1903.71" width="21.16" height="473.36" style="fill:#7B92A8"/>
	<rect x="2547.85" y="1907.38" width="13.82" height="466.01" style="fill:none;stroke:#7B92A8;stroke-width:7.34"/>
	<rect x="2565.34" y="1924.25" width="21.16" height="452.82" style="fill:#7B92A8"/>
	<rect x="2569.01" y="1927.92" width="13.82" height="445.47" style="fill:none;stroke:#7B92A8;stroke-width:7.34"/>
	<rect x="2586.50" y="1798.76" width="21.04" height="578.30" style="fill:#7B92A8"/>
	<rect x="2590.17" y="1802.43" width="13.69" height="570.96" style="fill:none;stroke:#7B92A8;stroke-width:7.34"/>
	<rect x="2607.54" y="1738.00" width="21.16" height="639.06" style="fill:#7B92A8"/>
	<rect x="2611.21" y="1741.67" width="13.82" height="631.72" style="fill:none;stroke:#7B92A8;stroke-width:7.34"/>
	<rect x="2628.70" y="1551.25" width="21.16" height="825.81" style="fill:#7B92A8"/>
	<rect x="2632.37" y="1554.93" width="13.82" height="818.47" style="fill:none;stroke:#7B92A8;stroke-width:7.34"/>
	<rect x="2649.86" y="1391.36" width="21.16" height="985.70" style="fill:#7B92A8"/>
	<rect x="2653.53" y="1395.04" width="13.82" height="978.36" style="fill:none;stroke:#7B92A8;stroke-width:7.34"/>
	<rect x="2671.02" y="1251.89" width="21.16" height="1125.17" style="fill:#7B92A8"/>
	<rect x="2674.69" y="1255.57" width="13.82" height="1117.83" style="fill:none;stroke:#7B92A8;stroke-width:7.34"/>
	<rect x="2692.18" y="1024.06" width="21.16" height="1353.00" style="fill:#7B92A8"/>
	<rect x="2695.85" y="1027.74" width="13.82" height="1345.66" style="fill:none;stroke:#7B92A8;stroke-width:7.34"/>
	<rect x="2713.34" y="1044.24" width="21.16" height="1332.83" style="fill:#7B92A8"/>
	<rect x="2717.01" y="1047.91" width="13.82" height="1325.49" style="fill:none;stroke:#7B92A8;stroke-width:7.34"/>
	<rect x="2734.50" y="910.83" width="21.16" height="1466.24" style="fill:#7B92A8"/>
	<rect x="2738.18" y="914.50" width="13.82" height="1458.89" style="fill:none;stroke:#7B92A8;stroke-width:7.34"/>
	<rect x="2755.66" y="1111.06" width="21.04" height="1266.00" style="fill:#7B92A8"/>
	<rect x="2759.34" y="1114.73" width="13.69" height="1258.66" style="fill:none;stroke:#7B92A8;stroke-width:7.34"/>
	<rect x="2776.70" y="1138.66" width="21.16" height="1238.40" style="fill:#7B92A8"/>
	<rect x="2780.37" y="1142.33" width="13.82" height="1231.06" style="fill:none;stroke:#7B92A8;stroke-width:7.34"/>
	<rect x="2797.86" y="1206.35" width="21.16" height="1170.71" style="fill:#7B92A8"/>
	<rect x="2801.54" y="1210.02" width="13.82" height="1163.37" style="fill:none;stroke:#7B92A8;stroke-width:7.34"/>
	<rect x="2819.03" y="1048.20" width="21.16" height="1328.87" style="fill:#7B92A8"/>
	<rect x="2822.70" y="1051.87" width="13.82" height="1321.53" style="fill:none;stroke:#7B92A8;stroke-width:7.34"/>
	<rect x="2840.19" y="909.10" width="21.16" height="1467.97" style="fill:#7B92A8"/>
	<rect x="2843.86" y="912.77" width="13.82" height="1460.62" style="fill:none;stroke:#7B92A8;stroke-width:7.34"/>
	<rect x="2861.35" y="815.17" width="21.16" height="1561.90" style="fill:#7B92A8"/>
	<rect x="2865.02" y="818.84" width="13.82" height="1554.55" style="fill:none;stroke:#7B92A8;stroke-width:7.34"/>
	<rect x="2882.51" y="592.16" width="21.16" height="1784.90" style="fill:#7B92A8"/>
	<rect x="2886.18" y="595.83" width="13.82" height="1777.56" style="fill:none;stroke:#7B92A8;stroke-width:7.34"/>
	<rect x="2903.67" y="784.97" width="21.16" height="1592.09" style="fill:#7B92A8"/>
	<rect x="2907.34" y="788.64" width="13.82" height="1584.75" style="fill:none;stroke:#7B92A8;stroke-width:7.34"/>
	<rect x="2924.83" y="444.40" width="21.16" height="1932.66" style="fill:#7B92A8"/>
	<rect x="2928.50" y="448.07" width="13.82" height="1925.32" style="fill:none;stroke:#7B92A8;stroke-width:7.34"/>
	<rect x="2945.99" y="1165.27" width="21.04" height="1211.80" style="fill:#7B92A8"/>
	<rect x="2949.66" y="1168.94" width="13.69" height="1204.45" style="fill:none;stroke:#7B92A8;stroke-width:7.34"/>
	<rect x="2967.03" y="1330.97" width="21.16" height="1046.09" style="fill:#7B92A8"/>
	<rect x="2970.70" y="1334.64" width="13.82" height="1038.75" style="fill:none;stroke:#7B92A8;stroke-width:7.34"/>
	<rect x="2988.19" y="1577.49" width="21.16" height="799.57" style="fill:#7B92A8"/>
	<rect x="2991.86" y="1581.16" width="13.82" height="792.23" style="fill:none;stroke:#7B92A8;stroke-width:7.34"/>
	<rect x="3009.35" y="1733.17" width="21.16" height="643.89" style="fill:#7B92A8"/>
	<rect x="3013.02" y="1736.84" width="13.82" height="636.55" style="fill:none;stroke:#7B92A8;stroke-width:7.34"/>
	<rect x="3030.51" y="1817.57" width="21.16" height="559.49" style="fill:#7B92A8"/>
	<rect x="3034.19" y="1821.24" width="13.82" height="552.15" style="fill:none;stroke:#7B92A8;stroke-width:7.34"/>
	<rect x="3051.68" y="1910.26" width="21.16" height="466.80" style="fill:#7B92A8"/>
	<rect x="3055.35" y="1913.94" width="13.82" height="459.46" style="fill:none;stroke:#7B92A8;stroke-width:7.34"/>
	<rect x="3072.84" y="1908.04" width="21.16" height="469.03" style="fill:#7B92A8"/>
	<rect x="3076.51" y="1911.71" width="13.82" height="461.68" style="fill:none;stroke:#7B92A8;stroke-width:7.34"/>
	<rect x="3094.00" y="1918.93" width="21.16" height="458.14" style="fill:#7B92A8"/>
	<rect x="3097.67" y="1922.60" width="13.82" height="450.79" style="fill:none;stroke:#7B92A8;stroke-width:7.34"/>
	<rect x="3115.16" y="1863.49" width="21.16" height="513.58" style="fill:#7B92A8"/>
	<rect x="3118.83" y="1867.16" width="13.82" height="506.23" style="fill:none;stroke:#7B92A8;stroke-width:7.34"/>
	<rect x="3136.32" y="1825.00" width="21.04" height="552.07" style="fill:#7B92A8"/>
	<rect x="3139.99" y="1828.67" width="13.69" height="544.72" style="fill:none;stroke:#7B92A8;stroke-width:7.34"/>
	<rect x="3157.36" y="1714.86" width="21.16" height="662.21" style="fill:#7B92A8"/>
	<rect x="3161.03" y="1718.53" width="13.82" height="654.86" style="fill:none;stroke:#7B92A8;stroke-width:7.34"/>
	<rect x="3178.52" y="1765.97" width="21.16" height="611.10" style="fill:#7B92A8"/>
	<rect x="3182.19" y="1769.64" width="13.82" height="603.75" style="fill:none;stroke:#7B92A8;stroke-width:7.34"/>
	<rect x="3199.68" y="1808.79" width="21.16" height="568.28" style="fill:#7B92A8"/>
	<rect x="3203.35" y="1812.46" width="13.82" height="560.93" style="fill:none;stroke:#7B92A8;stroke-width:7.34"/>
	<rect x="3220.84" y="2017.81" width="21.16" height="359.26" style="fill:#7B92A8"/>
	<rect x="3224.51" y="2021.48" width="13.82" height="351.91" style="fill:none;stroke:#7B92A8;stroke-width:7.34"/>
	<rect x="3242.00" y="2121.39" width="21.16" height="255.68" style="fill:#7B92A8"/>
	<rect x="3245.67" y="2125.06" width="13.82" height="248.33" style="fill:none;stroke:#7B92A8;stroke-width:7.34"/>
	<rect x="3263.16" y="2161.11" width="21.16" height="215.95" style="fill:#7B92A8"/>
	<rect x="3266.84" y="2164.79" width="13.82" height="208.61" style="fill:none;stroke:#7B92A8;stroke-width:7.34"/>
	<rect x="3284.32" y="2177.33" width="21.16" height="199.74" style="fill:#7B92A8"/>
	<rect x="3288.00" y="2181.00" width="13.82" height="192.39" style="fill:none;stroke:#7B92A8;stroke-width:7.34"/>
	<rect x="3305.49" y="2068.05" width="21.04" height="309.01" style="fill:#7B92A8"/>
	<rect x="3309.16" y="2071.72" width="13.69" height="301.67" style="fill:none;stroke:#7B92A8;stroke-width:7.34"/>
	<rect x="3326.52" y="1951.72" width="21.16" height="425.34" style="fill:#7B92A8"/>
	<rect x="3330.20" y="1955.39" width="13.82" height="418.00" style="fill:none;stroke:#7B92A8;stroke-width:7.34"/>
	<rect x="3347.68" y="1828.96" width="21.16" height="548.11" style="fill:#7B92A8"/>
	<rect x="3351.36" y="1832.63" width="13.82" height="540.76" style="fill:none;stroke:#7B92A8;stroke-width:7.34"/>
	<rect x="3368.85" y="1719.56" width="21.16" height="657.50" style="fill:#7B92A8"/>
	<rect x="3372.52" y="1723.23" width="13.82" height="650.16" style="fill:none;stroke:#7B92A8;stroke-width:7.34"/>
	<rect x="3390.01" y="1664.12" width="21.16" height="712.95" style="fill:#7B92A8"/>
	<rect x="3393.68" y="1667.79" width="13.82" height="705.60" style="fill:none;stroke:#7B92A8;stroke-width:7.34"/>
	<rect x="3411.17" y="1688.99" width="21.16" height="688.07" style="fill:#7B92A8"/>
	<rect x="3414.84" y="1692.66" width="13.82" height="680.73" style="fill:none;stroke:#7B92A8;stroke-width:7.34"/>
	<rect x="3432.33" y="1649.27" width="21.16" height="727.80" style="fill:#7B92A8"/>
	<rect x="3436.00" y="1652.94" width="13.82" height="720.45" style="fill:none;stroke:#7B92A8;stroke-width:7.34"/>
	<rect x="3453.49" y="1434.18" width="21.16" height="942.88" style="fill:#7B92A8"/>
	<rect x="3457.16" y="1437.86" width="13.82" height="935.54" style="fill:none;stroke:#7B92A8;stroke-width:7.34"/>
	<rect x="3474.65" y="1190.64" width="21.16" height="1186.43" style="fill:#7B92A8"/>
	<rect x="3478.32" y="1194.31" width="13.82" height="1179.08" style="fill:none;stroke:#7B92A8;stroke-width:7.34"/>
	<rect x="3495.81" y="1160.07" width="21.04" height="1217.00" style="fill:#7B92A8"/>
	<rect x="3499.49" y="1163.74" width="13.69" height="1209.65" style="fill:none;stroke:#7B92A8;stroke-width:7.34"/>
	<rect x="3516.85" y="1162.17" width="21.16" height="1214.89" style="fill:#7B92A8"/>
	<rect x="3520.52" y="1165.84" width="13.82" height="1207.55" style="fill:none;stroke:#7B92A8;stroke-width:7.34"/>
	<rect x="3538.01" y="1641.84" width="21.16" height="735.22" style="fill:#7B92A8"/>
	<rect x="3541.68" y="1645.51" width="13.82" height="727.88" style="fill:none;stroke:#7B92A8;stroke-width:7.34"/>
	<rect x="3559.17" y="1947.39" width="21.16" height="429.67" style="fill:#7B92A8"/>
	<rect x="3562.85" y="1951.06" width="13.82" height="422.33" style="fill:none;stroke:#7B92A8;stroke-width:7.34"/>
	<rect x="3580.34" y="2049.74" width="21.16" height="327.33" style="fill:#7B92A8"/>
	<rect x="3584.01" y="2053.41" width="13.82" height="319.99" style="fill:none;stroke:#7B92A8;stroke-width:7.34"/>
	<rect x="3601.50" y="2071.14" width="21.16" height="305.92" style="fill:#7B92A8"/>
	<rect x="3605.17" y="2074.82" width="13.82" height="298.58" style="fill:none;stroke:#7B92A8;stroke-width:7.34"/>
	<rect x="3622.66" y="1953.08" width="21.16" height="423.98" style="fill:#7B92A8"/>
	<rect x="3626.33" y="1956.76" width="13.82" height="416.64" style="fill:none;stroke:#7B92A8;stroke-width:7.34"/>
	<rect x="3643.82" y="1871.28" width="21.16" height="505.78" style="fill:#7B92A8"/>
	<rect x="3647.49" y="1874.95" width="13.82" height="498.44" style="fill:none;stroke:#7B92A8;stroke-width:7.34"/>
	<rect x="3664.98" y="1943.93" width="21.04" height="433.14" style="fill:#7B92A8"/>
	<rect x="3668.65" y="1947.60" width="13.69" height="425.79" style="fill:none;stroke:#7B92A8;stroke-width:7.34"/>
	<rect x="3686.02" y="2201.33" width="21.16" height="175.73" style="fill:#7B92A8"/>
	<rect x="3689.69" y="2205.01" width="13.82" height="168.39" style="fill:none;stroke:#7B92A8;stroke-width:7.34"/>
	<rect x="3707.18" y="2346.50" width="21.16" height="30.57" style="fill:#7B92A8"/>
	<rect x="3710.85" y="2350.17" width="13.82" height="23.22" style="fill:none;stroke:#7B92A8;stroke-width:7.34"/>
	<rect x="3728.34" y="2375.83" width="21.16" height="1.24" style="fill:#7B92A8"/>
	<rect x="3732.01" y="2373.39" width="13.82" height="6.11" style="fill:none;stroke:#7B92A8;stroke-width:7.34"/>
	<rect x="3749.50" y="2376.69" width="21.16" height="0.37" style="fill:#7B92A8"/>
	<rect x="3753.17" y="2373.39" width="13.82" height="6.97" style="fill:none;stroke:#7B92A8;stroke-width:7.34"/>
	<line x1="388.33" y1="2377.06" x2="388.33" y2="258.27" style="stroke:#000000;stroke-width:4.90"/>
	<line x1="388.33" y1="2377.06" x2="354.30" y2="2377.06" style="stroke:#000000;stroke-width:4.90"/>
	<text x="311.78" y="2377.06" style="font-family:'Helvetica';font-size:85.02px;fill:#000000" transform="rotate(-90 311.78,2377.06)" text-anchor="middle">0</text>
	<line x1="388.33" y1="1860.89" x2="354.30" y2="1860.89" style="stroke:#000000;stroke-width:4.90"/>
	<text x="311.78" y="1860.89" style="font-family:'Helvetica';font-size:85.02px;fill:#000000" transform="rotate(-90 311.78,1860.89)" text-anchor="middle">2</text>
	<line x1="388.33" y1="1344.59" x2="354.30" y2="1344.59" style="stroke:#000000;stroke-width:4.90"/>
	<text x="311.78" y="1344.59" style="font-family:'Helvetica';font-size:85.02px;fill:#000000" transform="rotate(-90 311.78,1344.59)" text-anchor="middle">4</text>
	<line x1="388.33" y1="828.28" x2="354.30" y2="828.28" style="stroke:#000000;stroke-width:4.90"/>
	<text x="311.78" y="828.28" style="font-family:'Helvetica';font-size:85.02px;fill:#000000" transform="rotate(-90 311.78,828.28)" text-anchor="middle">6</text>
	<line x1="388.33" y1="312.11" x2="354.30" y2="312.11" style="stroke:#000000;stroke-width:4.90"/>
	<text x="311.78" y="312.11" style="font-family:'Helvetica';font-size:85.02px;fill:#000000" transform="rotate(-90 311.78,312.11)" text-anchor="middle">8</text>
	<line x1="388.33" y1="2377.06" x2="2071.82" y2="2377.06" style="stroke:#000000;stroke-width:4.90"/>
	<line x1="442.16" y1="2377.06" x2="442.16" y2="2411.10" style="stroke:#000000;stroke-width:4.90"/>
	<text x="442.16" y="2487.50" style="font-family:'Helvetica';font-size:85.02px;fill:#000000" text-anchor="middle">.5</text>
	<line x1="819.10" y1="2377.06" x2="819.10" y2="2411.10" style="stroke:#000000;stroke-width:4.90"/>
	<text x="819.10" y="2487.50" style="font-family:'Helvetica';font-size:85.02px;fill:#000000" text-anchor="middle">.6</text>
	<line x1="1196.04" y1="2377.06" x2="1196.04" y2="2411.10" style="stroke:#000000;stroke-width:4.90"/>
	<text x="1196.04" y="2487.50" style="font-family:'Helvetica';font-size:85.02px;fill:#000000" text-anchor="middle">.7</text>
	<line x1="1572.99" y1="2377.06" x2="1572.99" y2="2411.10" style="stroke:#000000;stroke-width:4.90"/>
	<text x="1572.99" y="2487.50" style="font-family:'Helvetica';font-size:85.02px;fill:#000000" text-anchor="middle">.8</text>
	<line x1="1949.93" y1="2377.06" x2="1949.93" y2="2411.10" style="stroke:#000000;stroke-width:4.90"/>
	<text x="1949.93" y="2487.50" style="font-family:'Helvetica';font-size:85.02px;fill:#000000" text-anchor="middle">.9</text>
	<line x1="2141.00" y1="2377.06" x2="3824.49" y2="2377.06" style="stroke:#000000;stroke-width:4.90"/>
	<line x1="2194.83" y1="2377.06" x2="2194.83" y2="2411.10" style="stroke:#000000;stroke-width:4.90"/>
	<text x="2194.83" y="2487.50" style="font-family:'Helvetica';font-size:85.02px;fill:#000000" text-anchor="middle">.5</text>
	<line x1="2571.77" y1="2377.06" x2="2571.77" y2="2411.10" style="stroke:#000000;stroke-width:4.90"/>
	<text x="2571.77" y="2487.50" style="font-family:'Helvetica';font-size:85.02px;fill:#000000" text-anchor="middle">.6</text>
	<line x1="2948.72" y1="2377.06" x2="2948.72" y2="2411.10" style="stroke:#000000;stroke-width:4.90"/>
	<text x="2948.72" y="2487.50" style="font-family:'Helvetica';font-size:85.02px;fill:#000000" text-anchor="middle">.7</text>
	<line x1="3325.66" y1="2377.06" x2="3325.66" y2="2411.10" style="stroke:#000000;stroke-width:4.90"/>
	<text x="3325.66" y="2487.50" style="font-family:'Helvetica';font-size:85.02px;fill:#000000" text-anchor="middle">.8</text>
	<line x1="3702.60" y1="2377.06" x2="3702.60" y2="2411.10" style="stroke:#000000;stroke-width:4.90"/>
	<text x="3702.60" y="2487.50" style="font-family:'Helvetica';font-size:85.02px;fill:#000000" text-anchor="middle">.9</text>
	<rect x="388.33" y="135.39" width="1683.50" height="122.89" style="fill:#D9E6EB"/>
	<rect x="390.78" y="137.83" width="1678.60" height="117.99" style="fill:none;stroke:#D9E6EB;stroke-width:4.90"/>
	<text x="1230.08" y="215.42" style="font-family:'Helvetica';font-size:93.56px;fill:#000000" text-anchor="middle">LABA/LAMA Combination</text>
	<rect x="2141.00" y="135.39" width="1683.49" height="122.89" style="fill:#D9E6EB"/>
	<rect x="2143.45" y="137.83" width="1678.60" height="117.99" style="fill:none;stroke:#D9E6EB;stroke-width:4.90"/>
	<text x="2982.75" y="215.42" style="font-family:'Helvetica';font-size:93.56px;fill:#000000" text-anchor="middle">ICS Combination</text>
	<text x="170.79" y="1332.71" style="font-family:'Helvetica';font-size:99.99px;fill:#000000" transform="rotate(-90 170.79,1332.71)" text-anchor="middle">Density</text>
	<text x="2029.99" y="2634.61" style="font-family:'Helvetica';font-size:99.99px;fill:#000000" text-anchor="middle">Pr(exposure)</text>
	<text x="218.05" y="2737.89" style="font-family:'Helvetica';font-size:79.94px;fill:#000000">Graphs by COPD Treatment Exposure</text>
</svg>
