<?xml version="1.0" encoding="UTF-8" standalone="no"?>
<!-- This is a Stata 16.1 generated SVG file (http://www.stata.com) -->

<svg version="1.1" width="5.50in" height="4.00in" viewBox="0 0 3960 2880" xmlns="http://www.w3.org/2000/svg" xmlns:xlink="http://www.w3.org/1999/xlink">
	<desc>Stata Graph - Graph</desc>
	<rect x="0" y="0" width="3960" height="2880" style="fill:#EAF2F3;stroke:none"/>
	<rect x="0.00" y="0.00" width="3959.88" height="2880.00" style="fill:#FFFFFF"/>
	<rect x="2.88" y="2.88" width="3954.12" height="2874.24" style="fill:none;stroke:#EAF2F3;stroke-width:5.76"/>
	<rect x="390.80" y="100.86" width="3468.22" height="2132.77" style="fill:#FFFFFF"/>
	<rect x="393.68" y="103.74" width="3462.46" height="2127.01" style="fill:none;stroke:#FFFFFF;stroke-width:5.76"/>
	<line x1="390.80" y1="2170.27" x2="3859.02" y2="2170.27" style="stroke:#EAF2F3;stroke-width:8.64"/>
	<line x1="390.80" y1="1668.82" x2="3859.02" y2="1668.82" style="stroke:#EAF2F3;stroke-width:8.64"/>
	<line x1="390.80" y1="1167.25" x2="3859.02" y2="1167.25" style="stroke:#EAF2F3;stroke-width:8.64"/>
	<line x1="390.80" y1="665.67" x2="3859.02" y2="665.67" style="stroke:#EAF2F3;stroke-width:8.64"/>
	<line x1="390.80" y1="164.22" x2="3859.02" y2="164.22" style="stroke:#EAF2F3;stroke-width:8.64"/>
	<path d=" M477.68 2169.28 L488.44 2169.16 L499.33 2168.91 L510.10 2168.42 L520.99 2167.92 L531.75 2167.43 L542.64 2166.81 L553.41 2166.19 L564.30 2165.57 L575.19 2165.07 L585.96 2164.33 L596.85 2163.59 L607.61 2162.85 L618.50 2162.10 L629.27 2161.11 L640.16 2159.75 L651.05 2158.51 L661.82 2157.03 L672.71 2155.42 L683.47 2153.44 L694.36 2150.84 L705.13 2147.87 L716.02 2144.78 L726.91 2141.07 L737.67 2136.86 L748.56 2132.28 L759.33 2127.21 L770.22 2122.13 L780.99 2116.44 L791.88 2110.37 L802.77 2103.57 L813.53 2095.77 L824.42 2087.85 L835.19 2079.68 L846.08 2070.53 L856.85 2060.38 L867.74 2049.24 L878.63 2037.36 L889.39 2024.61 L900.28 2010.88 L911.05 1995.53 L921.94 1978.08 L932.70 1960.26 L943.59 1942.32 L954.48 1924.00 L965.25 1905.31 L976.14 1885.64 L986.91 1865.47 L997.80 1844.30 L1008.56 1822.40 L1019.45 1800.99 L1030.22 1779.33 L1041.11 1758.17 L1052.00 1737.38 L1062.77 1717.83 L1073.65 1700.38 L1084.42 1683.55 L1095.31 1665.73 L1106.08 1647.16 L1116.97 1627.24 L1127.86 1607.32 L1138.62 1587.02 L1149.51 1565.24 L1160.28 1547.05 L1171.17 1531.83 L1181.94 1518.95 L1192.83 1507.57 L1203.72 1495.81 L1214.48 1482.20 L1225.37 1466.98 L1236.14 1451.76 L1247.03 1435.30 L1257.80 1416.98 L1268.68 1396.93 L1279.58 1377.38 L1290.34 1359.06 L1301.23 1341.62 L1312.00 1319.96 L1322.89 1293.10 L1333.65 1259.57 L1344.54 1222.07 L1355.43 1180.74 L1366.20 1135.19 L1377.09 1090.02 L1387.86 1046.83 L1398.75 1003.77 L1409.51 960.83 L1420.40 917.51 L1431.29 870.61 L1442.06 821.48 L1452.95 770.12 L1463.71 721.49 L1474.61 675.82 L1485.37 633.62 L1496.26 595.26 L1507.03 559.61 L1517.92 529.17 L1528.81 500.58 L1539.57 475.09 L1550.46 449.85 L1561.23 427.45 L1572.12 409.87 L1582.89 397.00 L1593.78 390.07 L1604.67 389.21 L1615.43 392.92 L1626.32 400.22 L1637.09 412.47 L1647.98 428.93 L1658.74 447.25 L1669.63 464.82 L1680.53 484.87 L1691.29 511.47 L1702.18 541.79 L1712.95 571.50 L1723.84 597.11 L1734.60 619.51 L1745.49 637.21 L1756.38 647.98 L1767.15 650.57 L1778.04 647.48 L1788.81 640.80 L1799.70 633.99 L1810.46 624.83 L1821.35 611.22 L1832.24 590.18 L1843.01 561.22 L1853.90 527.19 L1864.66 493.65 L1875.56 461.48 L1886.32 432.02 L1897.21 407.77 L1908.10 391.68 L1918.87 383.39 L1929.76 371.01 L1940.52 358.02 L1951.41 347.75 L1962.18 345.64 L1973.07 345.52 L1983.84 353.19 L1994.73 370.89 L2005.62 397.50 L2016.38 435.12 L2027.27 481.28 L2038.04 531.77 L2048.93 587.09 L2059.70 647.11 L2070.59 706.14 L2081.47 767.15 L2092.24 831.38 L2103.13 899.20 L2113.90 972.83 L2124.79 1048.07 L2135.55 1125.67 L2146.44 1194.47 L2157.33 1254.25 L2168.10 1307.46 L2178.99 1355.72 L2189.76 1397.68 L2200.65 1437.65 L2211.41 1477.50 L2222.30 1516.85 L2233.19 1554.60 L2243.96 1587.64 L2254.85 1615.24 L2265.61 1638.38 L2276.51 1660.41 L2287.27 1680.08 L2298.16 1696.79 L2309.05 1712.51 L2319.82 1726.00 L2330.71 1738.25 L2341.47 1750.62 L2352.36 1760.28 L2363.13 1766.59 L2374.02 1770.30 L2384.91 1773.15 L2395.68 1774.75 L2406.57 1775.99 L2417.33 1776.49 L2428.22 1775.13 L2438.99 1771.66 L2449.88 1767.33 L2460.77 1761.88 L2471.53 1756.07 L2482.43 1751.12 L2493.19 1746.66 L2504.08 1741.34 L2514.85 1735.65 L2525.74 1729.96 L2536.50 1724.51 L2547.39 1720.67 L2558.28 1720.43 L2569.05 1723.64 L2579.94 1729.46 L2590.71 1735.77 L2601.60 1744.06 L2612.36 1757.06 L2623.25 1773.52 L2634.14 1792.82 L2644.91 1813.61 L2655.80 1834.53 L2666.57 1856.06 L2677.45 1877.59 L2688.22 1899.13 L2699.11 1921.16 L2710.00 1943.43 L2720.77 1965.34 L2731.66 1983.53 L2742.42 1997.63 L2753.31 2007.66 L2764.08 2014.34 L2774.97 2018.67 L2785.86 2022.76 L2796.63 2025.48 L2807.52 2024.49 L2818.28 2020.16 L2829.17 2013.85 L2839.94 2005.31 L2850.83 1995.28 L2861.72 1985.63 L2872.49 1975.24 L2883.38 1964.10 L2894.14 1951.23 L2905.03 1937.61 L2915.80 1924.00 L2926.69 1911.38 L2937.58 1899.00 L2948.34 1886.63 L2959.23 1874.25 L2970.00 1861.75 L2980.89 1851.11 L2991.66 1841.33 L3002.55 1832.67 L3013.31 1826.36 L3024.20 1821.16 L3035.09 1817.08 L3045.86 1813.37 L3056.75 1810.15 L3067.51 1806.44 L3078.41 1802.48 L3089.17 1798.27 L3100.06 1793.19 L3110.95 1787.38 L3121.72 1781.19 L3132.61 1773.27 L3143.37 1764.36 L3154.26 1755.32 L3165.03 1745.18 L3175.92 1734.04 L3186.81 1723.52 L3197.58 1712.26 L3208.47 1702.11 L3219.23 1691.84 L3230.12 1683.30 L3240.89 1678.97 L3251.78 1678.35 L3262.67 1681.69 L3273.43 1689.74 L3284.32 1700.87 L3295.09 1714.98 L3305.98 1731.81 L3316.75 1750.50 L3327.64 1772.53 L3338.53 1797.90 L3349.29 1824.38 L3360.18 1850.99 L3370.95 1877.96 L3381.84 1903.95 L3392.61 1928.95 L3403.50 1953.70 L3414.39 1976.10 L3425.15 1995.04 L3436.04 2010.13 L3446.81 2021.02 L3457.70 2030.18 L3468.47 2038.23 L3479.36 2044.17 L3490.12 2047.51 L3501.01 2048.87 L3511.90 2048.62 L3522.67 2048.13 L3533.56 2046.64 L3544.32 2044.91 L3555.21 2044.29 L3565.98 2043.67 L3576.87 2044.41 L3587.76 2046.64 L3598.53 2050.35 L3609.42 2055.18 L3620.18 2061.24 L3631.07 2068.55 L3641.84 2076.59 L3652.73 2085.38 L3663.62 2094.53 L3674.39 2103.94 L3685.28 2113.96 L3696.04 2123.99 L3706.93 2133.15 L3717.70 2140.94" stroke-linejoin="round" style="fill:none;stroke:#1A476F;stroke-width:8.64"/>
	<path d=" M505.15 2169.41 L516.16 2169.16 L527.17 2168.91 L538.19 2168.66 L549.20 2168.29 L560.22 2167.92 L571.23 2167.55 L582.12 2167.05 L593.13 2166.56 L604.15 2165.94 L615.16 2165.32 L626.17 2164.58 L637.19 2163.84 L648.20 2162.85 L659.22 2161.86 L670.23 2160.62 L681.24 2159.26 L692.26 2157.65 L703.27 2155.92 L714.28 2153.94 L725.30 2151.71 L736.31 2149.23 L747.20 2146.76 L758.22 2144.04 L769.23 2141.07 L780.24 2137.72 L791.26 2133.89 L802.27 2129.93 L813.28 2125.72 L824.30 2121.14 L835.31 2116.07 L846.33 2110.50 L857.34 2104.31 L868.35 2097.75 L879.37 2090.57 L890.38 2082.78 L901.27 2074.61 L912.28 2066.07 L923.30 2057.28 L934.31 2048.37 L945.33 2039.09 L956.34 2029.07 L967.35 2018.18 L978.37 2006.79 L989.38 1995.41 L1000.39 1983.77 L1011.41 1971.89 L1022.42 1959.77 L1033.44 1948.26 L1044.45 1937.37 L1055.34 1926.60 L1066.35 1915.34 L1077.37 1903.46 L1088.38 1891.33 L1099.39 1879.70 L1110.41 1867.82 L1121.42 1855.69 L1132.44 1843.31 L1143.45 1831.56 L1154.46 1820.30 L1165.48 1809.28 L1176.49 1797.52 L1187.51 1785.40 L1198.52 1773.15 L1209.41 1761.02 L1220.42 1748.89 L1231.44 1736.64 L1242.45 1723.15 L1253.46 1708.79 L1264.48 1693.94 L1275.49 1678.10 L1286.51 1660.53 L1297.52 1640.61 L1308.53 1619.20 L1319.55 1596.80 L1330.56 1573.90 L1341.57 1549.77 L1352.59 1524.40 L1363.60 1496.93 L1374.49 1467.47 L1385.51 1436.91 L1396.52 1405.10 L1407.53 1370.82 L1418.55 1334.81 L1429.56 1297.93 L1440.57 1261.42 L1451.59 1226.03 L1462.60 1190.39 L1473.62 1155.24 L1484.63 1121.21 L1495.64 1088.29 L1506.66 1056.36 L1517.67 1024.68 L1528.56 994.73 L1539.57 968.62 L1550.59 946.72 L1561.60 927.66 L1572.62 911.32 L1583.63 897.34 L1594.64 886.33 L1605.66 878.16 L1616.67 873.45 L1627.68 870.98 L1638.70 871.97 L1649.71 875.93 L1660.72 882.86 L1671.74 892.39 L1682.63 901.92 L1693.64 909.22 L1704.66 915.16 L1715.67 919.24 L1726.68 922.21 L1737.70 924.19 L1748.71 924.07 L1759.72 922.83 L1770.74 921.22 L1781.75 916.64 L1792.77 907.36 L1803.78 891.65 L1814.79 870.61 L1825.81 848.33 L1836.70 823.58 L1847.71 796.97 L1858.72 770.37 L1869.74 744.13 L1880.75 718.39 L1891.77 692.90 L1902.78 664.06 L1913.79 634.98 L1924.81 608.00 L1935.82 584.49 L1946.84 567.41 L1957.85 556.27 L1968.86 551.57 L1979.88 553.18 L1990.89 559.61 L2001.78 570.75 L2012.79 588.20 L2023.81 612.46 L2034.82 642.41 L2045.84 678.67 L2056.85 721.49 L2067.86 770.00 L2078.88 822.22 L2089.89 876.30 L2100.90 930.63 L2111.92 985.95 L2122.93 1041.76 L2133.95 1098.07 L2144.96 1154.87 L2155.85 1211.18 L2166.86 1268.23 L2177.88 1321.57 L2188.89 1368.35 L2199.90 1411.17 L2210.92 1450.15 L2221.93 1483.69 L2232.95 1513.76 L2243.96 1541.60 L2254.97 1567.84 L2265.99 1592.34 L2277.00 1613.50 L2288.01 1631.08 L2299.03 1646.05 L2309.92 1659.79 L2320.93 1670.43 L2331.95 1677.98 L2342.96 1683.92 L2353.97 1688.99 L2364.99 1693.94 L2376.00 1697.41 L2387.01 1697.53 L2398.03 1695.06 L2409.04 1690.85 L2420.05 1685.16 L2431.07 1677.24 L2442.08 1668.82 L2453.10 1660.90 L2463.99 1653.23 L2475.00 1644.44 L2486.01 1635.16 L2497.03 1626.62 L2508.04 1618.70 L2519.05 1611.65 L2530.07 1606.82 L2541.08 1604.59 L2552.10 1605.46 L2563.11 1608.80 L2574.12 1614.25 L2585.14 1621.92 L2596.15 1631.94 L2607.16 1644.44 L2618.18 1659.66 L2629.07 1677.11 L2640.08 1696.54 L2651.10 1717.70 L2662.11 1740.35 L2673.12 1763.12 L2684.14 1785.40 L2695.15 1807.05 L2706.16 1827.60 L2717.18 1846.53 L2728.19 1864.10 L2739.21 1880.07 L2750.22 1894.30 L2761.23 1904.82 L2772.25 1911.25 L2783.14 1913.98 L2794.15 1913.23 L2805.16 1909.27 L2816.18 1903.46 L2827.19 1895.17 L2838.21 1883.53 L2849.22 1868.68 L2860.23 1850.74 L2871.25 1830.57 L2882.26 1809.28 L2893.28 1787.01 L2904.29 1764.36 L2915.30 1740.85 L2926.32 1716.59 L2937.21 1692.46 L2948.22 1670.06 L2959.23 1648.90 L2970.25 1628.23 L2981.26 1608.43 L2992.28 1589.87 L3003.29 1572.05 L3014.30 1555.71 L3025.32 1541.35 L3036.33 1527.87 L3047.34 1513.88 L3058.36 1498.66 L3069.37 1483.31 L3080.39 1467.84 L3091.28 1452.25 L3102.29 1434.43 L3113.30 1412.90 L3124.32 1388.77 L3135.33 1362.78 L3146.34 1335.18 L3157.36 1307.46 L3168.37 1277.51 L3179.39 1246.57 L3190.40 1215.39 L3201.41 1186.43 L3212.43 1161.68 L3223.44 1141.13 L3234.45 1126.53 L3245.47 1117.37 L3256.36 1113.41 L3267.37 1116.75 L3278.39 1127.15 L3289.40 1143.86 L3300.41 1167.99 L3311.43 1199.05 L3322.44 1235.06 L3333.45 1275.78 L3344.47 1320.08 L3355.48 1367.73 L3366.49 1418.34 L3377.51 1470.44 L3388.52 1520.94 L3399.54 1568.21 L3410.43 1612.02 L3421.44 1652.24 L3432.45 1689.36 L3443.47 1721.79 L3454.48 1746.04 L3465.49 1763.12 L3476.51 1774.63 L3487.52 1782.06 L3498.54 1786.02 L3509.55 1786.26 L3520.56 1785.15 L3531.58 1783.05 L3542.59 1780.69 L3553.61 1780.69 L3564.49 1782.43 L3575.51 1786.63 L3586.52 1793.19 L3597.54 1801.98 L3608.55 1813.98 L3619.56 1828.96 L3630.58 1846.53 L3641.59 1866.46 L3652.61 1888.36 L3663.62 1912.37 L3674.63 1937.74 L3685.65 1963.73 L3696.66 1989.22 L3707.67 2014.71 L3718.56 2039.96 L3729.58 2063.47 L3740.59 2084.63 L3751.61 2103.44 L3762.62 2120.52 L3773.63 2134.63 L3784.65 2145.40 L3795.66 2153.44" stroke-linejoin="round" style="fill:none;stroke:#90353B;stroke-width:8.64"/>
	<line x1="390.80" y1="2233.63" x2="390.80" y2="100.86" style="stroke:#000000;stroke-width:5.76"/>
	<line x1="390.80" y1="2170.27" x2="350.83" y2="2170.27" style="stroke:#000000;stroke-width:5.76"/>
	<text x="300.72" y="2170.27" style="font-family:'Helvetica';font-size:99.99px;fill:#000000" transform="rotate(-90 300.72,2170.27)" text-anchor="middle">0</text>
	<line x1="390.80" y1="1668.82" x2="350.83" y2="1668.82" style="stroke:#000000;stroke-width:5.76"/>
	<text x="300.72" y="1668.82" style="font-family:'Helvetica';font-size:99.99px;fill:#000000" transform="rotate(-90 300.72,1668.82)" text-anchor="middle">2</text>
	<line x1="390.80" y1="1167.25" x2="350.83" y2="1167.25" style="stroke:#000000;stroke-width:5.76"/>
	<text x="300.72" y="1167.25" style="font-family:'Helvetica';font-size:99.99px;fill:#000000" transform="rotate(-90 300.72,1167.25)" text-anchor="middle">4</text>
	<line x1="390.80" y1="665.67" x2="350.83" y2="665.67" style="stroke:#000000;stroke-width:5.76"/>
	<text x="300.72" y="665.67" style="font-family:'Helvetica';font-size:99.99px;fill:#000000" transform="rotate(-90 300.72,665.67)" text-anchor="middle">6</text>
	<line x1="390.80" y1="164.22" x2="350.83" y2="164.22" style="stroke:#000000;stroke-width:5.76"/>
	<text x="300.72" y="164.22" style="font-family:'Helvetica';font-size:99.99px;fill:#000000" transform="rotate(-90 300.72,164.22)" text-anchor="middle">8</text>
	<text x="190.71" y="1167.25" style="font-family:'Helvetica';font-size:99.99px;fill:#000000" transform="rotate(-90 190.71,1167.25)" text-anchor="middle">kdensity pscore</text>
	<line x1="390.80" y1="2233.63" x2="3859.02" y2="2233.63" style="stroke:#000000;stroke-width:5.76"/>
	<line x1="454.16" y1="2233.63" x2="454.16" y2="2273.73" style="stroke:#000000;stroke-width:5.76"/>
	<text x="454.16" y="2363.59" style="font-family:'Helvetica';font-size:99.99px;fill:#000000" text-anchor="middle">.5</text>
	<line x1="1264.35" y1="2233.63" x2="1264.35" y2="2273.73" style="stroke:#000000;stroke-width:5.76"/>
	<text x="1264.35" y="2363.59" style="font-family:'Helvetica';font-size:99.99px;fill:#000000" text-anchor="middle">.6</text>
	<line x1="2074.55" y1="2233.63" x2="2074.55" y2="2273.73" style="stroke:#000000;stroke-width:5.76"/>
	<text x="2074.55" y="2363.59" style="font-family:'Helvetica';font-size:99.99px;fill:#000000" text-anchor="middle">.7</text>
	<line x1="2884.74" y1="2233.63" x2="2884.74" y2="2273.73" style="stroke:#000000;stroke-width:5.76"/>
	<text x="2884.74" y="2363.59" style="font-family:'Helvetica';font-size:99.99px;fill:#000000" text-anchor="middle">.8</text>
	<line x1="3694.93" y1="2233.63" x2="3694.93" y2="2273.73" style="stroke:#000000;stroke-width:5.76"/>
	<text x="3694.93" y="2363.59" style="font-family:'Helvetica';font-size:99.99px;fill:#000000" text-anchor="middle">.9</text>
	<text x="2124.91" y="2473.60" style="font-family:'Helvetica';font-size:99.99px;fill:#000000" text-anchor="middle">x</text>
	<rect x="567.27" y="2558.24" width="3115.28" height="186.37" style="fill:#FFFFFF"/>
	<rect x="570.15" y="2561.12" width="3109.52" height="180.61" style="fill:none;stroke:#EAF2F3;stroke-width:5.76"/>
	<line x1="610.58" y1="2651.43" x2="984.93" y2="2651.43" style="stroke:#90353B;stroke-width:8.64"/>
	<line x1="2038.66" y1="2651.43" x2="2413.00" y2="2651.43" style="stroke:#1A476F;stroke-width:8.64"/>
	<text x="1044.94" y="2679.44" style="font-family:'Helvetica';font-size:79.94px;fill:#000000">Pscore - ICS Combination</text>
	<text x="2473.02" y="2679.44" style="font-family:'Helvetica';font-size:79.94px;fill:#000000">Pscore - LABA/LAMA Combination</text>
</svg>
