<?xml version="1.0" encoding="UTF-8" standalone="no"?>
<!-- This is a Stata 16.1 generated SVG file (http://www.stata.com) -->

<svg version="1.1" width="5.50in" height="4.00in" viewBox="0 0 3960 2880" xmlns="http://www.w3.org/2000/svg" xmlns:xlink="http://www.w3.org/1999/xlink">
	<desc>Stata Graph - Graph</desc>
	<rect x="0" y="0" width="3960" height="2880" style="fill:#EAF2F3;stroke:none"/>
	<rect x="0.00" y="0.00" width="3959.88" height="2880.00" style="fill:#FFFFFF"/>
	<rect x="2.88" y="2.88" width="3954.12" height="2874.24" style="fill:none;stroke:#EAF2F3;stroke-width:5.76"/>
	<rect x="390.80" y="100.86" width="3468.22" height="2132.77" style="fill:#FFFFFF"/>
	<rect x="393.68" y="103.74" width="3462.46" height="2127.01" style="fill:none;stroke:#FFFFFF;stroke-width:5.76"/>
	<line x1="390.80" y1="2170.27" x2="3859.02" y2="2170.27" style="stroke:#EAF2F3;stroke-width:8.64"/>
	<line x1="390.80" y1="1668.82" x2="3859.02" y2="1668.82" style="stroke:#EAF2F3;stroke-width:8.64"/>
	<line x1="390.80" y1="1167.25" x2="3859.02" y2="1167.25" style="stroke:#EAF2F3;stroke-width:8.64"/>
	<line x1="390.80" y1="665.67" x2="3859.02" y2="665.67" style="stroke:#EAF2F3;stroke-width:8.64"/>
	<line x1="390.80" y1="164.22" x2="3859.02" y2="164.22" style="stroke:#EAF2F3;stroke-width:8.64"/>
	<path d=" M477.68 2169.53 L488.44 2169.28 L499.33 2169.28 L510.10 2169.28 L520.99 2169.28 L531.75 2169.41 L542.64 2169.41 L553.41 2169.16 L564.30 2168.54 L575.19 2167.55 L585.96 2166.56 L596.85 2165.82 L607.61 2165.20 L618.50 2164.46 L629.27 2164.21 L640.16 2163.84 L651.05 2163.84 L661.82 2163.59 L672.71 2163.47 L683.47 2162.48 L694.36 2160.87 L705.13 2159.38 L716.02 2157.65 L726.91 2155.17 L737.67 2152.95 L748.56 2149.60 L759.33 2144.65 L770.22 2140.82 L780.99 2136.98 L791.88 2132.65 L802.77 2128.20 L813.53 2123.25 L824.42 2119.28 L835.19 2116.07 L846.08 2112.11 L856.85 2106.17 L867.74 2097.50 L878.63 2089.58 L889.39 2081.79 L900.28 2072.75 L911.05 2062.36 L921.94 2050.11 L932.70 2037.73 L943.59 2025.97 L954.48 2012.24 L965.25 1997.26 L976.14 1978.70 L986.91 1960.51 L997.80 1945.66 L1008.56 1932.54 L1019.45 1919.79 L1030.22 1906.55 L1041.11 1893.93 L1052.00 1879.45 L1062.77 1860.64 L1073.65 1843.07 L1084.42 1824.26 L1095.31 1806.81 L1106.08 1792.08 L1116.97 1779.70 L1127.86 1773.39 L1138.62 1772.40 L1149.51 1766.34 L1160.28 1751.74 L1171.17 1729.46 L1181.94 1707.43 L1192.83 1684.29 L1203.72 1658.92 L1214.48 1636.77 L1225.37 1627.24 L1236.14 1631.45 L1247.03 1642.46 L1257.80 1648.65 L1268.68 1645.93 L1279.58 1634.91 L1290.34 1615.73 L1301.23 1591.85 L1312.00 1554.60 L1322.89 1516.60 L1333.65 1484.68 L1344.54 1461.90 L1355.43 1445.45 L1366.20 1422.92 L1377.09 1390.00 L1387.86 1346.57 L1398.75 1299.66 L1409.51 1246.57 L1420.40 1189.89 L1431.29 1139.03 L1442.06 1097.08 L1452.95 1069.11 L1463.71 1046.34 L1474.61 1021.34 L1485.37 989.04 L1496.26 943.99 L1507.03 887.32 L1517.92 827.29 L1528.81 783.61 L1539.57 758.36 L1550.46 749.95 L1561.23 740.79 L1572.12 734.97 L1582.89 732.87 L1593.78 726.81 L1604.67 710.72 L1615.43 684.98 L1626.32 670.25 L1637.09 672.97 L1647.98 689.19 L1658.74 712.95 L1669.63 730.15 L1680.53 750.44 L1691.29 765.29 L1702.18 788.93 L1712.95 812.57 L1723.84 832.00 L1734.60 856.38 L1745.49 889.91 L1756.38 925.68 L1767.15 949.56 L1778.04 954.27 L1788.81 933.60 L1799.70 910.09 L1810.46 869.25 L1821.35 815.04 L1832.24 749.45 L1843.01 690.05 L1853.90 659.86 L1864.66 647.11 L1875.56 635.97 L1886.32 614.44 L1897.21 587.95 L1908.10 548.48 L1918.87 505.16 L1929.76 458.63 L1940.52 420.02 L1951.41 408.02 L1962.18 420.76 L1973.07 464.20 L1983.84 490.44 L1994.73 490.81 L2005.62 468.16 L2016.38 454.05 L2027.27 437.35 L2038.04 448.48 L2048.93 496.75 L2059.70 583.99 L2070.59 703.66 L2081.47 837.44 L2092.24 930.63 L2103.13 997.46 L2113.90 1062.67 L2124.79 1118.73 L2135.55 1153.14 L2146.44 1190.14 L2157.33 1243.85 L2168.10 1310.68 L2178.99 1381.46 L2189.76 1439.38 L2200.65 1469.08 L2211.41 1497.67 L2222.30 1534.30 L2233.19 1553.73 L2243.96 1568.21 L2254.85 1588.38 L2265.61 1611.52 L2276.51 1642.59 L2287.27 1674.76 L2298.16 1697.53 L2309.05 1710.15 L2319.82 1721.17 L2330.71 1723.89 L2341.47 1718.69 L2352.36 1721.29 L2363.13 1729.09 L2374.02 1738.25 L2384.91 1740.35 L2395.68 1743.57 L2406.57 1743.07 L2417.33 1739.48 L2428.22 1730.82 L2438.99 1715.10 L2449.88 1705.58 L2460.77 1705.08 L2471.53 1708.05 L2482.43 1701.12 L2493.19 1683.05 L2504.08 1664.49 L2514.85 1640.85 L2525.74 1622.54 L2536.50 1606.82 L2547.39 1601.99 L2558.28 1610.41 L2569.05 1614.00 L2579.94 1612.51 L2590.71 1606.20 L2601.60 1597.41 L2612.36 1600.01 L2623.25 1617.83 L2634.14 1648.65 L2644.91 1682.93 L2655.80 1726.99 L2666.57 1775.74 L2677.45 1818.07 L2688.22 1848.39 L2699.11 1871.16 L2710.00 1893.68 L2720.77 1919.67 L2731.66 1952.22 L2742.42 1979.07 L2753.31 1991.32 L2764.08 1995.53 L2774.97 2000.61 L2785.86 1999.49 L2796.63 1997.63 L2807.52 1990.58 L2818.28 1980.06 L2829.17 1963.85 L2839.94 1947.27 L2850.83 1933.53 L2861.72 1916.70 L2872.49 1898.51 L2883.38 1874.99 L2894.14 1849.75 L2905.03 1823.39 L2915.80 1802.35 L2926.69 1782.92 L2937.58 1759.53 L2948.34 1733.79 L2959.23 1706.57 L2970.00 1683.05 L2980.89 1666.47 L2991.66 1649.02 L3002.55 1627.12 L3013.31 1600.39 L3024.20 1580.09 L3035.09 1569.45 L3045.86 1569.20 L3056.75 1563.38 L3067.51 1556.45 L3078.41 1558.06 L3089.17 1564.00 L3100.06 1571.55 L3110.95 1575.14 L3121.72 1563.26 L3132.61 1535.04 L3143.37 1499.77 L3154.26 1457.45 L3165.03 1413.27 L3175.92 1384.19 L3186.81 1352.26 L3197.58 1311.67 L3208.47 1278.75 L3219.23 1253.87 L3230.12 1235.31 L3240.89 1223.43 L3251.78 1212.05 L3262.67 1190.26 L3273.43 1178.26 L3284.32 1174.80 L3295.09 1187.54 L3305.98 1214.52 L3316.75 1255.98 L3327.64 1308.94 L3338.53 1377.38 L3349.29 1459.31 L3360.18 1539.75 L3370.95 1615.11 L3381.84 1670.55 L3392.61 1716.22 L3403.50 1760.40 L3414.39 1807.30 L3425.15 1848.64 L3436.04 1884.40 L3446.81 1902.22 L3457.70 1912.37 L3468.47 1918.18 L3479.36 1914.10 L3490.12 1908.66 L3501.01 1895.91 L3511.90 1881.80 L3522.67 1878.09 L3533.56 1877.47 L3544.32 1870.04 L3555.21 1850.12 L3565.98 1836.63 L3576.87 1825.12 L3587.76 1816.34 L3598.53 1808.04 L3609.42 1806.93 L3620.18 1820.54 L3631.07 1845.91 L3641.84 1879.45 L3652.73 1913.23 L3663.62 1952.84 L3674.39 1994.66 L3685.28 2038.47 L3696.04 2077.08 L3706.93 2105.80 L3717.70 2135.13" stroke-linejoin="round" style="fill:none;stroke:#1A476F;stroke-width:8.64"/>
	<path d=" M505.15 2169.16 L516.16 2168.79 L527.17 2168.66 L538.19 2168.54 L549.20 2168.54 L560.22 2168.42 L571.23 2168.04 L582.12 2167.43 L593.13 2166.44 L604.15 2165.45 L615.16 2164.58 L626.17 2163.47 L637.19 2162.60 L648.20 2161.61 L659.22 2160.62 L670.23 2159.63 L681.24 2158.39 L692.26 2156.78 L703.27 2155.30 L714.28 2153.44 L725.30 2150.84 L736.31 2148.74 L747.20 2145.64 L758.22 2141.68 L769.23 2137.60 L780.24 2133.27 L791.26 2127.95 L802.27 2122.75 L813.28 2116.44 L824.30 2109.76 L835.31 2105.05 L846.33 2099.98 L857.34 2094.16 L868.35 2087.11 L879.37 2078.94 L890.38 2070.15 L901.27 2062.36 L912.28 2053.08 L923.30 2041.44 L934.31 2028.94 L945.33 2015.21 L956.34 2000.36 L967.35 1984.64 L978.37 1967.07 L989.38 1948.50 L1000.39 1932.79 L1011.41 1920.66 L1022.42 1911.38 L1033.44 1902.47 L1044.45 1890.34 L1055.34 1872.15 L1066.35 1852.60 L1077.37 1835.64 L1088.38 1818.19 L1099.39 1801.11 L1110.41 1784.90 L1121.42 1776.98 L1132.44 1776.86 L1143.45 1779.21 L1154.46 1773.64 L1165.48 1755.57 L1176.49 1735.65 L1187.51 1717.21 L1198.52 1696.17 L1209.41 1670.18 L1220.42 1645.06 L1231.44 1632.07 L1242.45 1630.58 L1253.46 1633.30 L1264.48 1628.60 L1275.49 1614.74 L1286.51 1600.51 L1297.52 1584.67 L1308.53 1562.64 L1319.55 1537.77 L1330.56 1508.93 L1341.57 1486.28 L1352.59 1465.99 L1363.60 1444.58 L1374.49 1410.05 L1385.51 1364.51 L1396.52 1312.53 L1407.53 1259.20 L1418.55 1210.07 L1429.56 1163.16 L1440.57 1122.57 L1451.59 1089.16 L1462.60 1056.61 L1473.62 1024.68 L1484.63 993.50 L1495.64 950.68 L1506.66 899.07 L1517.67 843.14 L1528.56 793.88 L1539.57 760.72 L1550.59 744.26 L1561.60 725.45 L1572.62 714.43 L1583.63 714.80 L1594.64 716.53 L1605.66 699.83 L1616.67 675.20 L1627.68 660.85 L1638.70 666.54 L1649.71 684.98 L1660.72 710.47 L1671.74 741.53 L1682.63 783.61 L1693.64 817.64 L1704.66 850.56 L1715.67 856.75 L1726.68 859.22 L1737.70 874.82 L1748.71 902.17 L1759.72 925.56 L1770.74 933.72 L1781.75 928.28 L1792.77 908.48 L1803.78 880.39 L1814.79 841.53 L1825.81 794.62 L1836.70 743.39 L1847.71 711.46 L1858.72 705.40 L1869.74 705.77 L1880.75 687.21 L1891.77 652.31 L1902.78 598.10 L1913.79 544.15 L1924.81 489.57 L1935.82 439.70 L1946.84 402.70 L1957.85 395.02 L1968.86 420.14 L1979.88 457.89 L1990.89 457.89 L2001.78 442.92 L2012.79 431.90 L2023.81 421.63 L2034.82 425.96 L2045.84 451.33 L2056.85 523.48 L2067.86 628.17 L2078.88 755.39 L2089.89 864.30 L2100.90 948.33 L2111.92 1037.06 L2122.93 1114.28 L2133.95 1166.01 L2144.96 1205.24 L2155.85 1261.42 L2166.86 1331.10 L2177.88 1400.03 L2188.89 1448.91 L2199.90 1478.73 L2210.92 1512.02 L2221.93 1549.65 L2232.95 1572.91 L2243.96 1581.95 L2254.97 1594.69 L2265.99 1617.59 L2277.00 1645.68 L2288.01 1671.30 L2299.03 1689.24 L2309.92 1705.33 L2320.93 1721.17 L2331.95 1730.20 L2342.96 1730.95 L2353.97 1731.07 L2364.99 1738.12 L2376.00 1744.31 L2387.01 1742.21 L2398.03 1739.36 L2409.04 1734.66 L2420.05 1728.97 L2431.07 1719.56 L2442.08 1707.31 L2453.10 1698.03 L2463.99 1694.44 L2475.00 1690.85 L2486.01 1676.49 L2497.03 1655.83 L2508.04 1636.15 L2519.05 1615.73 L2530.07 1599.77 L2541.08 1592.22 L2552.10 1595.43 L2563.11 1601.99 L2574.12 1608.55 L2585.14 1614.62 L2596.15 1616.97 L2607.16 1624.64 L2618.18 1638.01 L2629.07 1661.40 L2640.08 1696.29 L2651.10 1736.76 L2662.11 1777.11 L2673.12 1812.25 L2684.14 1840.84 L2695.15 1866.46 L2706.16 1890.59 L2717.18 1911.13 L2728.19 1932.42 L2739.21 1951.35 L2750.22 1967.32 L2761.23 1977.83 L2772.25 1986.50 L2783.14 1989.71 L2794.15 1988.48 L2805.16 1985.01 L2816.18 1978.58 L2827.19 1967.56 L2838.21 1951.97 L2849.22 1934.89 L2860.23 1914.97 L2871.25 1892.32 L2882.26 1868.06 L2893.28 1846.16 L2904.29 1826.11 L2915.30 1803.47 L2926.32 1774.75 L2937.21 1745.05 L2948.22 1715.72 L2959.23 1687.01 L2970.25 1662.88 L2981.26 1640.73 L2992.28 1623.28 L3003.29 1611.03 L3014.30 1603.11 L3025.32 1597.04 L3036.33 1597.91 L3047.34 1601.13 L3058.36 1595.43 L3069.37 1589.62 L3080.39 1585.78 L3091.28 1579.22 L3102.29 1574.27 L3113.30 1570.44 L3124.32 1560.04 L3135.33 1541.35 L3146.34 1518.46 L3157.36 1493.09 L3168.37 1462.03 L3179.39 1429.60 L3190.40 1385.80 L3201.41 1329.12 L3212.43 1278.50 L3223.44 1238.28 L3234.45 1204.13 L3245.47 1178.63 L3256.36 1152.02 L3267.37 1131.98 L3278.39 1129.38 L3289.40 1147.45 L3300.41 1181.23 L3311.43 1225.66 L3322.44 1279.86 L3333.45 1348.67 L3344.47 1428.61 L3355.48 1516.97 L3366.49 1597.66 L3377.51 1662.39 L3388.52 1715.35 L3399.54 1762.63 L3410.43 1807.80 L3421.44 1842.94 L3432.45 1873.14 L3443.47 1891.08 L3454.48 1901.60 L3465.49 1914.97 L3476.51 1922.76 L3487.52 1924.25 L3498.54 1915.83 L3509.55 1899.25 L3520.56 1884.77 L3531.58 1869.05 L3542.59 1848.64 L3553.61 1826.11 L3564.49 1809.41 L3575.51 1800.00 L3586.52 1792.70 L3597.54 1789.60 L3608.55 1793.19 L3619.56 1810.15 L3630.58 1837.87 L3641.59 1872.27 L3652.61 1909.65 L3663.62 1953.58 L3674.63 2000.61 L3685.65 2042.06 L3696.66 2076.47 L3707.67 2104.43 L3718.56 2128.32 L3729.58 2144.41 L3740.59 2155.54 L3751.61 2161.24 L3762.62 2166.06 L3773.63 2168.42 L3784.65 2169.41 L3795.66 2169.65" stroke-linejoin="round" style="fill:none;stroke:#90353B;stroke-width:8.64"/>
	<line x1="390.80" y1="2233.63" x2="390.80" y2="100.86" style="stroke:#000000;stroke-width:5.76"/>
	<line x1="390.80" y1="2170.27" x2="350.83" y2="2170.27" style="stroke:#000000;stroke-width:5.76"/>
	<text x="300.72" y="2170.27" style="font-family:'Helvetica';font-size:99.99px;fill:#000000" transform="rotate(-90 300.72,2170.27)" text-anchor="middle">0</text>
	<line x1="390.80" y1="1668.82" x2="350.83" y2="1668.82" style="stroke:#000000;stroke-width:5.76"/>
	<text x="300.72" y="1668.82" style="font-family:'Helvetica';font-size:99.99px;fill:#000000" transform="rotate(-90 300.72,1668.82)" text-anchor="middle">2</text>
	<line x1="390.80" y1="1167.25" x2="350.83" y2="1167.25" style="stroke:#000000;stroke-width:5.76"/>
	<text x="300.72" y="1167.25" style="font-family:'Helvetica';font-size:99.99px;fill:#000000" transform="rotate(-90 300.72,1167.25)" text-anchor="middle">4</text>
	<line x1="390.80" y1="665.67" x2="350.83" y2="665.67" style="stroke:#000000;stroke-width:5.76"/>
	<text x="300.72" y="665.67" style="font-family:'Helvetica';font-size:99.99px;fill:#000000" transform="rotate(-90 300.72,665.67)" text-anchor="middle">6</text>
	<line x1="390.80" y1="164.22" x2="350.83" y2="164.22" style="stroke:#000000;stroke-width:5.76"/>
	<text x="300.72" y="164.22" style="font-family:'Helvetica';font-size:99.99px;fill:#000000" transform="rotate(-90 300.72,164.22)" text-anchor="middle">8</text>
	<text x="190.71" y="1167.25" style="font-family:'Helvetica';font-size:99.99px;fill:#000000" transform="rotate(-90 190.71,1167.25)" text-anchor="middle">kdensity pscore</text>
	<line x1="390.80" y1="2233.63" x2="3859.02" y2="2233.63" style="stroke:#000000;stroke-width:5.76"/>
	<line x1="454.16" y1="2233.63" x2="454.16" y2="2273.73" style="stroke:#000000;stroke-width:5.76"/>
	<text x="454.16" y="2363.59" style="font-family:'Helvetica';font-size:99.99px;fill:#000000" text-anchor="middle">.5</text>
	<line x1="1264.35" y1="2233.63" x2="1264.35" y2="2273.73" style="stroke:#000000;stroke-width:5.76"/>
	<text x="1264.35" y="2363.59" style="font-family:'Helvetica';font-size:99.99px;fill:#000000" text-anchor="middle">.6</text>
	<line x1="2074.55" y1="2233.63" x2="2074.55" y2="2273.73" style="stroke:#000000;stroke-width:5.76"/>
	<text x="2074.55" y="2363.59" style="font-family:'Helvetica';font-size:99.99px;fill:#000000" text-anchor="middle">.7</text>
	<line x1="2884.74" y1="2233.63" x2="2884.74" y2="2273.73" style="stroke:#000000;stroke-width:5.76"/>
	<text x="2884.74" y="2363.59" style="font-family:'Helvetica';font-size:99.99px;fill:#000000" text-anchor="middle">.8</text>
	<line x1="3694.93" y1="2233.63" x2="3694.93" y2="2273.73" style="stroke:#000000;stroke-width:5.76"/>
	<text x="3694.93" y="2363.59" style="font-family:'Helvetica';font-size:99.99px;fill:#000000" text-anchor="middle">.9</text>
	<text x="2124.91" y="2473.60" style="font-family:'Helvetica';font-size:99.99px;fill:#000000" text-anchor="middle">x</text>
	<rect x="567.27" y="2558.24" width="3115.28" height="186.37" style="fill:#FFFFFF"/>
	<rect x="570.15" y="2561.12" width="3109.52" height="180.61" style="fill:none;stroke:#EAF2F3;stroke-width:5.76"/>
	<line x1="610.58" y1="2651.43" x2="984.93" y2="2651.43" style="stroke:#90353B;stroke-width:8.64"/>
	<line x1="2038.66" y1="2651.43" x2="2413.00" y2="2651.43" style="stroke:#1A476F;stroke-width:8.64"/>
	<text x="1044.94" y="2679.44" style="font-family:'Helvetica';font-size:79.94px;fill:#000000">Pscore - ICS Combination</text>
	<text x="2473.02" y="2679.44" style="font-family:'Helvetica';font-size:79.94px;fill:#000000">Pscore - LABA/LAMA Combination</text>
</svg>
