<?xml version="1.0" encoding="UTF-8" standalone="no"?>
<!-- This is a Stata 16.1 generated SVG file (http://www.stata.com) -->

<svg version="1.1" width="5.50in" height="4.00in" viewBox="0 0 3960 2880" xmlns="http://www.w3.org/2000/svg" xmlns:xlink="http://www.w3.org/1999/xlink">
	<desc>Stata Graph - Graph</desc>
	<rect x="0" y="0" width="3960" height="2880" style="fill:#EAF2F3;stroke:none"/>
	<rect x="0.00" y="0.00" width="3959.88" height="2880.00" style="fill:#FFFFFF"/>
	<rect x="2.88" y="2.88" width="3954.12" height="2874.24" style="fill:none;stroke:#EAF2F3;stroke-width:5.76"/>
	<rect x="388.33" y="258.27" width="1683.50" height="2118.79" style="fill:#FFFFFF"/>
	<rect x="390.78" y="260.72" width="1678.60" height="2113.89" style="fill:none;stroke:#FFFFFF;stroke-width:4.90"/>
	<line x1="388.33" y1="2377.06" x2="2071.82" y2="2377.06" style="stroke:#EAF2F3;stroke-width:7.34"/>
	<line x1="388.33" y1="1860.89" x2="2071.82" y2="1860.89" style="stroke:#EAF2F3;stroke-width:7.34"/>
	<line x1="388.33" y1="1344.59" x2="2071.82" y2="1344.59" style="stroke:#EAF2F3;stroke-width:7.34"/>
	<line x1="388.33" y1="828.28" x2="2071.82" y2="828.28" style="stroke:#EAF2F3;stroke-width:7.34"/>
	<line x1="388.33" y1="312.11" x2="2071.82" y2="312.11" style="stroke:#EAF2F3;stroke-width:7.34"/>
	<rect x="2141.00" y="258.27" width="1683.49" height="2118.79" style="fill:#FFFFFF"/>
	<rect x="2143.45" y="260.72" width="1678.60" height="2113.89" style="fill:none;stroke:#FFFFFF;stroke-width:4.90"/>
	<line x1="2141.00" y1="2377.06" x2="3824.49" y2="2377.06" style="stroke:#EAF2F3;stroke-width:7.34"/>
	<line x1="2141.00" y1="1860.89" x2="3824.49" y2="1860.89" style="stroke:#EAF2F3;stroke-width:7.34"/>
	<line x1="2141.00" y1="1344.59" x2="3824.49" y2="1344.59" style="stroke:#EAF2F3;stroke-width:7.34"/>
	<line x1="2141.00" y1="828.28" x2="3824.49" y2="828.28" style="stroke:#EAF2F3;stroke-width:7.34"/>
	<line x1="2141.00" y1="312.11" x2="3824.49" y2="312.11" style="stroke:#EAF2F3;stroke-width:7.34"/>
	<rect x="456.88" y="2374.84" width="29.45" height="2.23" style="fill:#7B92A8"/>
	<rect x="460.56" y="2373.39" width="22.11" height="5.12" style="fill:none;stroke:#7B92A8;stroke-width:7.34"/>
	<rect x="486.34" y="2375.58" width="29.45" height="1.49" style="fill:#7B92A8"/>
	<rect x="490.01" y="2373.39" width="22.11" height="5.86" style="fill:none;stroke:#7B92A8;stroke-width:7.34"/>
	<rect x="515.79" y="2367.16" width="29.45" height="9.90" style="fill:#7B92A8"/>
	<rect x="519.46" y="2370.84" width="22.11" height="2.56" style="fill:none;stroke:#7B92A8;stroke-width:7.34"/>
	<rect x="545.24" y="2364.81" width="29.45" height="12.25" style="fill:#7B92A8"/>
	<rect x="548.91" y="2368.48" width="22.11" height="4.91" style="fill:none;stroke:#7B92A8;stroke-width:7.34"/>
	<rect x="574.70" y="2345.75" width="29.45" height="31.31" style="fill:#7B92A8"/>
	<rect x="578.37" y="2349.43" width="22.11" height="23.97" style="fill:none;stroke:#7B92A8;stroke-width:7.34"/>
	<rect x="604.15" y="2309.00" width="29.45" height="68.06" style="fill:#7B92A8"/>
	<rect x="607.82" y="2312.67" width="22.11" height="60.72" style="fill:none;stroke:#7B92A8;stroke-width:7.34"/>
	<rect x="633.60" y="2266.80" width="29.45" height="110.26" style="fill:#7B92A8"/>
	<rect x="637.27" y="2270.47" width="22.11" height="102.92" style="fill:none;stroke:#7B92A8;stroke-width:7.34"/>
	<rect x="663.05" y="2173.37" width="29.45" height="203.70" style="fill:#7B92A8"/>
	<rect x="666.72" y="2177.04" width="22.11" height="196.36" style="fill:none;stroke:#7B92A8;stroke-width:7.34"/>
	<rect x="692.50" y="2034.02" width="29.45" height="343.05" style="fill:#7B92A8"/>
	<rect x="696.18" y="2037.69" width="22.11" height="335.70" style="fill:none;stroke:#7B92A8;stroke-width:7.34"/>
	<rect x="721.96" y="1942.94" width="29.45" height="434.13" style="fill:#7B92A8"/>
	<rect x="725.63" y="1946.61" width="22.11" height="426.78" style="fill:none;stroke:#7B92A8;stroke-width:7.34"/>
	<rect x="751.41" y="1795.92" width="29.58" height="581.15" style="fill:#7B92A8"/>
	<rect x="755.08" y="1799.59" width="22.23" height="573.80" style="fill:none;stroke:#7B92A8;stroke-width:7.34"/>
	<rect x="780.99" y="1704.71" width="29.45" height="672.35" style="fill:#7B92A8"/>
	<rect x="784.66" y="1708.38" width="22.11" height="665.01" style="fill:none;stroke:#7B92A8;stroke-width:7.34"/>
	<rect x="810.44" y="1622.04" width="29.45" height="755.02" style="fill:#7B92A8"/>
	<rect x="814.11" y="1625.71" width="22.11" height="747.68" style="fill:none;stroke:#7B92A8;stroke-width:7.34"/>
	<rect x="839.89" y="1542.34" width="29.45" height="834.72" style="fill:#7B92A8"/>
	<rect x="843.56" y="1546.02" width="22.11" height="827.38" style="fill:none;stroke:#7B92A8;stroke-width:7.34"/>
	<rect x="869.34" y="1350.90" width="29.45" height="1026.17" style="fill:#7B92A8"/>
	<rect x="873.02" y="1354.57" width="22.11" height="1018.82" style="fill:none;stroke:#7B92A8;stroke-width:7.34"/>
	<rect x="898.80" y="936.69" width="29.45" height="1440.37" style="fill:#7B92A8"/>
	<rect x="902.47" y="940.36" width="22.11" height="1433.03" style="fill:none;stroke:#7B92A8;stroke-width:7.34"/>
	<rect x="928.25" y="778.16" width="29.45" height="1598.90" style="fill:#7B92A8"/>
	<rect x="931.92" y="781.84" width="22.11" height="1591.56" style="fill:none;stroke:#7B92A8;stroke-width:7.34"/>
	<rect x="957.70" y="538.45" width="29.45" height="1838.61" style="fill:#7B92A8"/>
	<rect x="961.37" y="542.12" width="22.11" height="1831.27" style="fill:none;stroke:#7B92A8;stroke-width:7.34"/>
	<rect x="987.15" y="468.04" width="29.45" height="1909.03" style="fill:#7B92A8"/>
	<rect x="990.83" y="471.71" width="22.11" height="1901.68" style="fill:none;stroke:#7B92A8;stroke-width:7.34"/>
	<rect x="1016.61" y="651.81" width="29.45" height="1725.25" style="fill:#7B92A8"/>
	<rect x="1020.28" y="655.48" width="22.11" height="1717.91" style="fill:none;stroke:#7B92A8;stroke-width:7.34"/>
	<rect x="1046.06" y="857.00" width="29.45" height="1520.07" style="fill:#7B92A8"/>
	<rect x="1049.73" y="860.67" width="22.11" height="1512.72" style="fill:none;stroke:#7B92A8;stroke-width:7.34"/>
	<rect x="1075.51" y="876.92" width="29.45" height="1500.14" style="fill:#7B92A8"/>
	<rect x="1079.18" y="880.59" width="22.11" height="1492.80" style="fill:none;stroke:#7B92A8;stroke-width:7.34"/>
	<rect x="1104.96" y="607.38" width="29.45" height="1769.68" style="fill:#7B92A8"/>
	<rect x="1108.64" y="611.06" width="22.11" height="1762.34" style="fill:none;stroke:#7B92A8;stroke-width:7.34"/>
	<rect x="1134.42" y="389.08" width="29.45" height="1987.98" style="fill:#7B92A8"/>
	<rect x="1138.09" y="392.75" width="22.11" height="1980.64" style="fill:none;stroke:#7B92A8;stroke-width:7.34"/>
	<rect x="1163.87" y="517.79" width="29.45" height="1859.28" style="fill:#7B92A8"/>
	<rect x="1167.54" y="521.46" width="22.11" height="1851.93" style="fill:none;stroke:#7B92A8;stroke-width:7.34"/>
	<rect x="1193.32" y="795.74" width="29.45" height="1581.33" style="fill:#7B92A8"/>
	<rect x="1196.99" y="799.41" width="22.11" height="1573.98" style="fill:none;stroke:#7B92A8;stroke-width:7.34"/>
	<rect x="1222.77" y="1291.25" width="29.45" height="1085.82" style="fill:#7B92A8"/>
	<rect x="1226.45" y="1294.92" width="22.11" height="1078.47" style="fill:none;stroke:#7B92A8;stroke-width:7.34"/>
	<rect x="1252.23" y="1661.15" width="29.45" height="715.92" style="fill:#7B92A8"/>
	<rect x="1255.90" y="1664.82" width="22.11" height="708.57" style="fill:none;stroke:#7B92A8;stroke-width:7.34"/>
	<rect x="1281.68" y="1775.99" width="29.45" height="601.07" style="fill:#7B92A8"/>
	<rect x="1285.35" y="1779.66" width="22.11" height="593.73" style="fill:none;stroke:#7B92A8;stroke-width:7.34"/>
	<rect x="1311.13" y="1956.67" width="29.45" height="420.39" style="fill:#7B92A8"/>
	<rect x="1314.80" y="1960.34" width="22.11" height="413.05" style="fill:none;stroke:#7B92A8;stroke-width:7.34"/>
	<rect x="1340.58" y="1987.36" width="29.45" height="389.70" style="fill:#7B92A8"/>
	<rect x="1344.26" y="1991.04" width="22.11" height="382.36" style="fill:none;stroke:#7B92A8;stroke-width:7.34"/>
	<rect x="1370.04" y="1952.84" width="29.45" height="424.23" style="fill:#7B92A8"/>
	<rect x="1373.71" y="1956.51" width="22.11" height="416.88" style="fill:none;stroke:#7B92A8;stroke-width:7.34"/>
	<rect x="1399.49" y="1939.10" width="29.45" height="437.96" style="fill:#7B92A8"/>
	<rect x="1403.16" y="1942.77" width="22.11" height="430.62" style="fill:none;stroke:#7B92A8;stroke-width:7.34"/>
	<rect x="1428.94" y="1926.85" width="29.45" height="450.22" style="fill:#7B92A8"/>
	<rect x="1432.61" y="1930.52" width="22.11" height="442.87" style="fill:none;stroke:#7B92A8;stroke-width:7.34"/>
	<rect x="1458.39" y="1928.33" width="29.45" height="448.73" style="fill:#7B92A8"/>
	<rect x="1462.07" y="1932.00" width="22.11" height="441.39" style="fill:none;stroke:#7B92A8;stroke-width:7.34"/>
	<rect x="1487.85" y="2126.71" width="29.45" height="250.35" style="fill:#7B92A8"/>
	<rect x="1491.52" y="2130.38" width="22.11" height="243.01" style="fill:none;stroke:#7B92A8;stroke-width:7.34"/>
	<rect x="1517.30" y="2252.32" width="29.45" height="124.74" style="fill:#7B92A8"/>
	<rect x="1520.97" y="2255.99" width="22.11" height="117.40" style="fill:none;stroke:#7B92A8;stroke-width:7.34"/>
	<rect x="1546.75" y="2233.14" width="29.45" height="143.93" style="fill:#7B92A8"/>
	<rect x="1550.42" y="2236.81" width="22.11" height="136.58" style="fill:none;stroke:#7B92A8;stroke-width:7.34"/>
	<rect x="1576.20" y="2173.37" width="29.45" height="203.70" style="fill:#7B92A8"/>
	<rect x="1579.88" y="2177.04" width="22.11" height="196.36" style="fill:none;stroke:#7B92A8;stroke-width:7.34"/>
	<rect x="1605.66" y="2081.54" width="29.45" height="295.52" style="fill:#7B92A8"/>
	<rect x="1609.33" y="2085.21" width="22.11" height="288.18" style="fill:none;stroke:#7B92A8;stroke-width:7.34"/>
	<rect x="1635.11" y="2007.29" width="29.45" height="369.78" style="fill:#7B92A8"/>
	<rect x="1638.78" y="2010.96" width="22.11" height="362.43" style="fill:none;stroke:#7B92A8;stroke-width:7.34"/>
	<rect x="1664.56" y="1990.33" width="29.45" height="386.73" style="fill:#7B92A8"/>
	<rect x="1668.23" y="1994.01" width="22.11" height="379.39" style="fill:none;stroke:#7B92A8;stroke-width:7.34"/>
	<rect x="1694.01" y="1998.01" width="29.45" height="379.06" style="fill:#7B92A8"/>
	<rect x="1697.69" y="2001.68" width="22.11" height="371.71" style="fill:none;stroke:#7B92A8;stroke-width:7.34"/>
	<rect x="1723.47" y="1887.00" width="29.45" height="490.07" style="fill:#7B92A8"/>
	<rect x="1727.14" y="1890.67" width="22.11" height="482.72" style="fill:none;stroke:#7B92A8;stroke-width:7.34"/>
	<rect x="1752.92" y="1851.73" width="29.45" height="525.34" style="fill:#7B92A8"/>
	<rect x="1756.59" y="1855.40" width="22.11" height="517.99" style="fill:none;stroke:#7B92A8;stroke-width:7.34"/>
	<rect x="1782.37" y="1914.60" width="29.45" height="462.47" style="fill:#7B92A8"/>
	<rect x="1786.04" y="1918.27" width="22.11" height="455.12" style="fill:none;stroke:#7B92A8;stroke-width:7.34"/>
	<rect x="1811.82" y="2147.38" width="29.45" height="229.69" style="fill:#7B92A8"/>
	<rect x="1815.50" y="2151.05" width="22.11" height="222.34" style="fill:none;stroke:#7B92A8;stroke-width:7.34"/>
	<rect x="1841.28" y="2266.06" width="29.45" height="111.01" style="fill:#7B92A8"/>
	<rect x="1844.95" y="2269.73" width="22.11" height="103.66" style="fill:none;stroke:#7B92A8;stroke-width:7.34"/>
	<rect x="1870.73" y="2249.97" width="29.45" height="127.10" style="fill:#7B92A8"/>
	<rect x="1874.40" y="2253.64" width="22.11" height="119.75" style="fill:none;stroke:#7B92A8;stroke-width:7.34"/>
	<rect x="1900.18" y="2238.46" width="29.45" height="138.60" style="fill:#7B92A8"/>
	<rect x="1903.85" y="2242.13" width="22.11" height="131.26" style="fill:none;stroke:#7B92A8;stroke-width:7.34"/>
	<rect x="1929.63" y="2264.57" width="29.45" height="112.49" style="fill:#7B92A8"/>
	<rect x="1933.31" y="2268.24" width="22.11" height="105.15" style="fill:none;stroke:#7B92A8;stroke-width:7.34"/>
	<rect x="1959.09" y="2355.65" width="29.45" height="21.41" style="fill:#7B92A8"/>
	<rect x="1962.76" y="2359.33" width="22.11" height="14.07" style="fill:none;stroke:#7B92A8;stroke-width:7.34"/>
	<rect x="2209.56" y="2376.45" width="29.45" height="0.62" style="fill:#7B92A8"/>
	<rect x="2213.23" y="2373.39" width="22.11" height="6.73" style="fill:none;stroke:#7B92A8;stroke-width:7.34"/>
	<rect x="2239.01" y="2375.83" width="29.45" height="1.24" style="fill:#7B92A8"/>
	<rect x="2242.68" y="2373.39" width="22.11" height="6.11" style="fill:none;stroke:#7B92A8;stroke-width:7.34"/>
	<rect x="2268.46" y="2372.36" width="29.45" height="4.70" style="fill:#7B92A8"/>
	<rect x="2272.13" y="2373.39" width="22.11" height="2.64" style="fill:none;stroke:#7B92A8;stroke-width:7.34"/>
	<rect x="2297.91" y="2368.03" width="29.45" height="9.03" style="fill:#7B92A8"/>
	<rect x="2301.59" y="2371.70" width="22.11" height="1.69" style="fill:none;stroke:#7B92A8;stroke-width:7.34"/>
	<rect x="2327.37" y="2359.49" width="29.45" height="17.57" style="fill:#7B92A8"/>
	<rect x="2331.04" y="2363.16" width="22.11" height="10.23" style="fill:none;stroke:#7B92A8;stroke-width:7.34"/>
	<rect x="2356.82" y="2338.33" width="29.45" height="38.73" style="fill:#7B92A8"/>
	<rect x="2360.49" y="2342.00" width="22.11" height="31.39" style="fill:none;stroke:#7B92A8;stroke-width:7.34"/>
	<rect x="2386.27" y="2311.60" width="29.45" height="65.47" style="fill:#7B92A8"/>
	<rect x="2389.94" y="2315.27" width="22.11" height="58.12" style="fill:none;stroke:#7B92A8;stroke-width:7.34"/>
	<rect x="2415.72" y="2266.18" width="29.45" height="110.88" style="fill:#7B92A8"/>
	<rect x="2419.40" y="2269.85" width="22.11" height="103.54" style="fill:none;stroke:#7B92A8;stroke-width:7.34"/>
	<rect x="2445.18" y="2186.48" width="29.45" height="190.58" style="fill:#7B92A8"/>
	<rect x="2448.85" y="2190.16" width="22.11" height="183.24" style="fill:none;stroke:#7B92A8;stroke-width:7.34"/>
	<rect x="2474.63" y="2136.98" width="29.45" height="240.08" style="fill:#7B92A8"/>
	<rect x="2478.30" y="2140.65" width="22.11" height="232.74" style="fill:none;stroke:#7B92A8;stroke-width:7.34"/>
	<rect x="2504.08" y="2037.11" width="29.45" height="339.95" style="fill:#7B92A8"/>
	<rect x="2507.75" y="2040.78" width="22.11" height="332.61" style="fill:none;stroke:#7B92A8;stroke-width:7.34"/>
	<rect x="2533.53" y="1998.62" width="29.45" height="378.44" style="fill:#7B92A8"/>
	<rect x="2537.21" y="2002.30" width="22.11" height="371.10" style="fill:none;stroke:#7B92A8;stroke-width:7.34"/>
	<rect x="2562.99" y="1905.69" width="29.45" height="471.38" style="fill:#7B92A8"/>
	<rect x="2566.66" y="1909.36" width="22.11" height="464.03" style="fill:none;stroke:#7B92A8;stroke-width:7.34"/>
	<rect x="2592.44" y="1837.37" width="29.45" height="539.69" style="fill:#7B92A8"/>
	<rect x="2596.11" y="1841.05" width="22.11" height="532.35" style="fill:none;stroke:#7B92A8;stroke-width:7.34"/>
	<rect x="2621.89" y="1722.04" width="29.45" height="655.03" style="fill:#7B92A8"/>
	<rect x="2625.56" y="1725.71" width="22.11" height="647.69" style="fill:none;stroke:#7B92A8;stroke-width:7.34"/>
	<rect x="2651.34" y="1443.47" width="29.45" height="933.60" style="fill:#7B92A8"/>
	<rect x="2655.02" y="1447.14" width="22.11" height="926.26" style="fill:none;stroke:#7B92A8;stroke-width:7.34"/>
	<rect x="2680.80" y="1253.13" width="29.45" height="1123.93" style="fill:#7B92A8"/>
	<rect x="2684.47" y="1256.80" width="22.11" height="1116.59" style="fill:none;stroke:#7B92A8;stroke-width:7.34"/>
	<rect x="2710.25" y="1025.67" width="29.45" height="1351.39" style="fill:#7B92A8"/>
	<rect x="2713.92" y="1029.34" width="22.11" height="1344.05" style="fill:none;stroke:#7B92A8;stroke-width:7.34"/>
	<rect x="2739.70" y="940.16" width="29.45" height="1436.91" style="fill:#7B92A8"/>
	<rect x="2743.37" y="943.83" width="22.11" height="1429.56" style="fill:none;stroke:#7B92A8;stroke-width:7.34"/>
	<rect x="2769.15" y="1100.30" width="29.45" height="1276.77" style="fill:#7B92A8"/>
	<rect x="2772.83" y="1103.97" width="22.11" height="1269.42" style="fill:none;stroke:#7B92A8;stroke-width:7.34"/>
	<rect x="2798.61" y="1151.28" width="29.45" height="1225.78" style="fill:#7B92A8"/>
	<rect x="2802.28" y="1154.95" width="22.11" height="1218.44" style="fill:none;stroke:#7B92A8;stroke-width:7.34"/>
	<rect x="2828.06" y="1108.46" width="29.58" height="1268.60" style="fill:#7B92A8"/>
	<rect x="2831.73" y="1112.14" width="22.23" height="1261.26" style="fill:none;stroke:#7B92A8;stroke-width:7.34"/>
	<rect x="2857.64" y="939.29" width="29.45" height="1437.77" style="fill:#7B92A8"/>
	<rect x="2861.31" y="942.96" width="22.11" height="1430.43" style="fill:none;stroke:#7B92A8;stroke-width:7.34"/>
	<rect x="2887.09" y="609.36" width="29.45" height="1767.70" style="fill:#7B92A8"/>
	<rect x="2890.76" y="613.04" width="22.11" height="1760.36" style="fill:none;stroke:#7B92A8;stroke-width:7.34"/>
	<rect x="2916.54" y="640.18" width="29.45" height="1736.89" style="fill:#7B92A8"/>
	<rect x="2920.21" y="643.85" width="22.11" height="1729.54" style="fill:none;stroke:#7B92A8;stroke-width:7.34"/>
	<rect x="2945.99" y="813.19" width="29.45" height="1563.88" style="fill:#7B92A8"/>
	<rect x="2949.66" y="816.86" width="22.11" height="1556.53" style="fill:none;stroke:#7B92A8;stroke-width:7.34"/>
	<rect x="2975.45" y="1318.35" width="29.45" height="1058.71" style="fill:#7B92A8"/>
	<rect x="2979.12" y="1322.02" width="22.11" height="1051.37" style="fill:none;stroke:#7B92A8;stroke-width:7.34"/>
	<rect x="3004.90" y="1649.27" width="29.45" height="727.80" style="fill:#7B92A8"/>
	<rect x="3008.57" y="1652.94" width="22.11" height="720.45" style="fill:none;stroke:#7B92A8;stroke-width:7.34"/>
	<rect x="3034.35" y="1755.08" width="29.45" height="621.99" style="fill:#7B92A8"/>
	<rect x="3038.02" y="1758.75" width="22.11" height="614.64" style="fill:none;stroke:#7B92A8;stroke-width:7.34"/>
	<rect x="3063.80" y="1906.30" width="29.45" height="470.76" style="fill:#7B92A8"/>
	<rect x="3067.47" y="1909.98" width="22.11" height="463.42" style="fill:none;stroke:#7B92A8;stroke-width:7.34"/>
	<rect x="3093.26" y="1925.86" width="29.45" height="451.21" style="fill:#7B92A8"/>
	<rect x="3096.93" y="1929.53" width="22.11" height="443.86" style="fill:none;stroke:#7B92A8;stroke-width:7.34"/>
	<rect x="3122.71" y="1861.26" width="29.45" height="515.81" style="fill:#7B92A8"/>
	<rect x="3126.38" y="1864.93" width="22.11" height="508.46" style="fill:none;stroke:#7B92A8;stroke-width:7.34"/>
	<rect x="3152.16" y="1788.12" width="29.45" height="588.94" style="fill:#7B92A8"/>
	<rect x="3155.83" y="1791.79" width="22.11" height="581.60" style="fill:none;stroke:#7B92A8;stroke-width:7.34"/>
	<rect x="3181.61" y="1773.02" width="29.45" height="604.04" style="fill:#7B92A8"/>
	<rect x="3185.28" y="1776.69" width="22.11" height="596.70" style="fill:none;stroke:#7B92A8;stroke-width:7.34"/>
	<rect x="3211.07" y="1809.90" width="29.45" height="567.16" style="fill:#7B92A8"/>
	<rect x="3214.74" y="1813.57" width="22.11" height="559.82" style="fill:none;stroke:#7B92A8;stroke-width:7.34"/>
	<rect x="3240.52" y="2031.79" width="29.45" height="345.27" style="fill:#7B92A8"/>
	<rect x="3244.19" y="2035.46" width="22.11" height="337.93" style="fill:none;stroke:#7B92A8;stroke-width:7.34"/>
	<rect x="3269.97" y="2160.00" width="29.45" height="217.06" style="fill:#7B92A8"/>
	<rect x="3273.64" y="2163.67" width="22.11" height="209.72" style="fill:none;stroke:#7B92A8;stroke-width:7.34"/>
	<rect x="3299.42" y="2157.77" width="29.45" height="219.29" style="fill:#7B92A8"/>
	<rect x="3303.09" y="2161.44" width="22.11" height="211.95" style="fill:none;stroke:#7B92A8;stroke-width:7.34"/>
	<rect x="3328.88" y="2017.93" width="29.45" height="359.13" style="fill:#7B92A8"/>
	<rect x="3332.55" y="2021.60" width="22.11" height="351.79" style="fill:none;stroke:#7B92A8;stroke-width:7.34"/>
	<rect x="3358.33" y="1849.01" width="29.45" height="528.06" style="fill:#7B92A8"/>
	<rect x="3362.00" y="1852.68" width="22.11" height="520.71" style="fill:none;stroke:#7B92A8;stroke-width:7.34"/>
	<rect x="3387.78" y="1708.79" width="29.45" height="668.27" style="fill:#7B92A8"/>
	<rect x="3391.45" y="1712.47" width="22.11" height="660.93" style="fill:none;stroke:#7B92A8;stroke-width:7.34"/>
	<rect x="3417.23" y="1675.01" width="29.45" height="702.06" style="fill:#7B92A8"/>
	<rect x="3420.90" y="1678.68" width="22.11" height="694.71" style="fill:none;stroke:#7B92A8;stroke-width:7.34"/>
	<rect x="3446.68" y="1635.65" width="29.45" height="741.41" style="fill:#7B92A8"/>
	<rect x="3450.36" y="1639.33" width="22.11" height="734.07" style="fill:none;stroke:#7B92A8;stroke-width:7.34"/>
	<rect x="3476.14" y="1368.10" width="29.45" height="1008.97" style="fill:#7B92A8"/>
	<rect x="3479.81" y="1371.77" width="22.11" height="1001.62" style="fill:none;stroke:#7B92A8;stroke-width:7.34"/>
	<rect x="3505.59" y="1102.52" width="29.45" height="1274.54" style="fill:#7B92A8"/>
	<rect x="3509.26" y="1106.20" width="22.11" height="1267.20" style="fill:none;stroke:#7B92A8;stroke-width:7.34"/>
	<rect x="3535.04" y="1275.78" width="29.45" height="1101.29" style="fill:#7B92A8"/>
	<rect x="3538.71" y="1279.45" width="22.11" height="1093.94" style="fill:none;stroke:#7B92A8;stroke-width:7.34"/>
	<rect x="3564.49" y="1823.51" width="29.45" height="553.55" style="fill:#7B92A8"/>
	<rect x="3568.17" y="1827.19" width="22.11" height="546.21" style="fill:none;stroke:#7B92A8;stroke-width:7.34"/>
	<rect x="3593.95" y="2046.52" width="29.45" height="330.55" style="fill:#7B92A8"/>
	<rect x="3597.62" y="2050.19" width="22.11" height="323.20" style="fill:none;stroke:#7B92A8;stroke-width:7.34"/>
	<rect x="3623.40" y="2015.70" width="29.45" height="361.36" style="fill:#7B92A8"/>
	<rect x="3627.07" y="2019.37" width="22.11" height="354.02" style="fill:none;stroke:#7B92A8;stroke-width:7.34"/>
	<rect x="3652.85" y="1904.82" width="29.45" height="472.24" style="fill:#7B92A8"/>
	<rect x="3656.52" y="1908.49" width="22.11" height="464.90" style="fill:none;stroke:#7B92A8;stroke-width:7.34"/>
	<rect x="3682.30" y="1974.74" width="29.45" height="402.32" style="fill:#7B92A8"/>
	<rect x="3685.98" y="1978.41" width="22.11" height="394.98" style="fill:none;stroke:#7B92A8;stroke-width:7.34"/>
	<rect x="3711.76" y="2295.14" width="29.45" height="81.93" style="fill:#7B92A8"/>
	<rect x="3715.43" y="2298.81" width="22.11" height="74.58" style="fill:none;stroke:#7B92A8;stroke-width:7.34"/>
	<rect x="3741.21" y="2374.96" width="29.45" height="2.10" style="fill:#7B92A8"/>
	<rect x="3744.88" y="2373.39" width="22.11" height="5.24" style="fill:none;stroke:#7B92A8;stroke-width:7.34"/>
	<line x1="388.33" y1="2377.06" x2="388.33" y2="258.27" style="stroke:#000000;stroke-width:4.90"/>
	<line x1="388.33" y1="2377.06" x2="354.30" y2="2377.06" style="stroke:#000000;stroke-width:4.90"/>
	<text x="311.78" y="2377.06" style="font-family:'Helvetica';font-size:85.02px;fill:#000000" transform="rotate(-90 311.78,2377.06)" text-anchor="middle">0</text>
	<line x1="388.33" y1="1860.89" x2="354.30" y2="1860.89" style="stroke:#000000;stroke-width:4.90"/>
	<text x="311.78" y="1860.89" style="font-family:'Helvetica';font-size:85.02px;fill:#000000" transform="rotate(-90 311.78,1860.89)" text-anchor="middle">2</text>
	<line x1="388.33" y1="1344.59" x2="354.30" y2="1344.59" style="stroke:#000000;stroke-width:4.90"/>
	<text x="311.78" y="1344.59" style="font-family:'Helvetica';font-size:85.02px;fill:#000000" transform="rotate(-90 311.78,1344.59)" text-anchor="middle">4</text>
	<line x1="388.33" y1="828.28" x2="354.30" y2="828.28" style="stroke:#000000;stroke-width:4.90"/>
	<text x="311.78" y="828.28" style="font-family:'Helvetica';font-size:85.02px;fill:#000000" transform="rotate(-90 311.78,828.28)" text-anchor="middle">6</text>
	<line x1="388.33" y1="312.11" x2="354.30" y2="312.11" style="stroke:#000000;stroke-width:4.90"/>
	<text x="311.78" y="312.11" style="font-family:'Helvetica';font-size:85.02px;fill:#000000" transform="rotate(-90 311.78,312.11)" text-anchor="middle">8</text>
	<line x1="388.33" y1="2377.06" x2="2071.82" y2="2377.06" style="stroke:#000000;stroke-width:4.90"/>
	<line x1="455.15" y1="2377.06" x2="455.15" y2="2411.10" style="stroke:#000000;stroke-width:4.90"/>
	<text x="455.15" y="2487.50" style="font-family:'Helvetica';font-size:85.02px;fill:#000000" text-anchor="middle">.5</text>
	<line x1="833.58" y1="2377.06" x2="833.58" y2="2411.10" style="stroke:#000000;stroke-width:4.90"/>
	<text x="833.58" y="2487.50" style="font-family:'Helvetica';font-size:85.02px;fill:#000000" text-anchor="middle">.6</text>
	<line x1="1212.01" y1="2377.06" x2="1212.01" y2="2411.10" style="stroke:#000000;stroke-width:4.90"/>
	<text x="1212.01" y="2487.50" style="font-family:'Helvetica';font-size:85.02px;fill:#000000" text-anchor="middle">.7</text>
	<line x1="1590.43" y1="2377.06" x2="1590.43" y2="2411.10" style="stroke:#000000;stroke-width:4.90"/>
	<text x="1590.43" y="2487.50" style="font-family:'Helvetica';font-size:85.02px;fill:#000000" text-anchor="middle">.8</text>
	<line x1="1968.86" y1="2377.06" x2="1968.86" y2="2411.10" style="stroke:#000000;stroke-width:4.90"/>
	<text x="1968.86" y="2487.50" style="font-family:'Helvetica';font-size:85.02px;fill:#000000" text-anchor="middle">.9</text>
	<line x1="2141.00" y1="2377.06" x2="3824.49" y2="2377.06" style="stroke:#000000;stroke-width:4.90"/>
	<line x1="2207.70" y1="2377.06" x2="2207.70" y2="2411.10" style="stroke:#000000;stroke-width:4.90"/>
	<text x="2207.70" y="2487.50" style="font-family:'Helvetica';font-size:85.02px;fill:#000000" text-anchor="middle">.5</text>
	<line x1="2586.13" y1="2377.06" x2="2586.13" y2="2411.10" style="stroke:#000000;stroke-width:4.90"/>
	<text x="2586.13" y="2487.50" style="font-family:'Helvetica';font-size:85.02px;fill:#000000" text-anchor="middle">.6</text>
	<line x1="2964.68" y1="2377.06" x2="2964.68" y2="2411.10" style="stroke:#000000;stroke-width:4.90"/>
	<text x="2964.68" y="2487.50" style="font-family:'Helvetica';font-size:85.02px;fill:#000000" text-anchor="middle">.7</text>
	<line x1="3343.11" y1="2377.06" x2="3343.11" y2="2411.10" style="stroke:#000000;stroke-width:4.90"/>
	<text x="3343.11" y="2487.50" style="font-family:'Helvetica';font-size:85.02px;fill:#000000" text-anchor="middle">.8</text>
	<line x1="3721.53" y1="2377.06" x2="3721.53" y2="2411.10" style="stroke:#000000;stroke-width:4.90"/>
	<text x="3721.53" y="2487.50" style="font-family:'Helvetica';font-size:85.02px;fill:#000000" text-anchor="middle">.9</text>
	<rect x="388.33" y="135.39" width="1683.50" height="122.89" style="fill:#D9E6EB"/>
	<rect x="390.78" y="137.83" width="1678.60" height="117.99" style="fill:none;stroke:#D9E6EB;stroke-width:4.90"/>
	<text x="1230.08" y="215.42" style="font-family:'Helvetica';font-size:93.56px;fill:#000000" text-anchor="middle">LABA/LAMA Combination</text>
	<rect x="2141.00" y="135.39" width="1683.49" height="122.89" style="fill:#D9E6EB"/>
	<rect x="2143.45" y="137.83" width="1678.60" height="117.99" style="fill:none;stroke:#D9E6EB;stroke-width:4.90"/>
	<text x="2982.75" y="215.42" style="font-family:'Helvetica';font-size:93.56px;fill:#000000" text-anchor="middle">ICS Combination</text>
	<text x="170.79" y="1332.71" style="font-family:'Helvetica';font-size:99.99px;fill:#000000" transform="rotate(-90 170.79,1332.71)" text-anchor="middle">Density</text>
	<text x="2029.99" y="2634.61" style="font-family:'Helvetica';font-size:99.99px;fill:#000000" text-anchor="middle">Pr(exposure)</text>
	<text x="218.05" y="2737.89" style="font-family:'Helvetica';font-size:79.94px;fill:#000000">Graphs by COPD Treatment Exposure</text>
</svg>
