<?xml version="1.0" encoding="UTF-8" standalone="no"?>
<!-- This is a Stata 16.1 generated SVG file (http://www.stata.com) -->

<svg version="1.1" width="5.50in" height="4.00in" viewBox="0 0 3960 2880" xmlns="http://www.w3.org/2000/svg" xmlns:xlink="http://www.w3.org/1999/xlink">
	<desc>Stata Graph - Graph</desc>
	<rect x="0" y="0" width="3960" height="2880" style="fill:#EAF2F3;stroke:none"/>
	<rect x="0.00" y="0.00" width="3959.88" height="2880.00" style="fill:#FFFFFF"/>
	<rect x="2.88" y="2.88" width="3954.12" height="2874.24" style="fill:none;stroke:#EAF2F3;stroke-width:5.76"/>
	<rect x="390.80" y="100.86" width="3468.22" height="2132.77" style="fill:#FFFFFF"/>
	<rect x="393.68" y="103.74" width="3462.46" height="2127.01" style="fill:none;stroke:#FFFFFF;stroke-width:5.76"/>
	<line x1="390.80" y1="2170.27" x2="3859.02" y2="2170.27" style="stroke:#EAF2F3;stroke-width:8.64"/>
	<line x1="390.80" y1="1668.82" x2="3859.02" y2="1668.82" style="stroke:#EAF2F3;stroke-width:8.64"/>
	<line x1="390.80" y1="1167.25" x2="3859.02" y2="1167.25" style="stroke:#EAF2F3;stroke-width:8.64"/>
	<line x1="390.80" y1="665.67" x2="3859.02" y2="665.67" style="stroke:#EAF2F3;stroke-width:8.64"/>
	<path d=" M477.68 2169.78 L488.44 2169.65 L499.33 2169.65 L510.10 2169.65 L520.99 2169.65 L531.75 2169.65 L542.64 2169.65 L553.41 2169.41 L564.30 2168.91 L575.19 2168.29 L585.96 2167.67 L596.85 2167.18 L607.61 2166.56 L618.50 2166.19 L629.27 2165.82 L640.16 2165.57 L651.05 2165.32 L661.82 2165.32 L672.71 2165.20 L683.47 2164.21 L694.36 2163.09 L705.13 2161.98 L716.02 2160.62 L726.91 2158.89 L737.67 2157.15 L748.56 2154.06 L759.33 2150.72 L770.22 2147.75 L780.99 2144.78 L791.88 2141.68 L802.77 2137.85 L813.53 2134.26 L824.42 2131.29 L835.19 2127.95 L846.08 2124.61 L856.85 2119.78 L867.74 2113.22 L878.63 2107.28 L889.39 2100.97 L900.28 2093.54 L911.05 2085.25 L921.94 2075.10 L932.70 2065.33 L943.59 2055.30 L954.48 2044.29 L965.25 2032.29 L976.14 2016.82 L986.91 2002.96 L997.80 1991.32 L1008.56 1979.94 L1019.45 1969.42 L1030.22 1958.28 L1041.11 1945.66 L1052.00 1932.17 L1062.77 1916.95 L1073.65 1903.83 L1084.42 1889.60 L1095.31 1874.87 L1106.08 1861.01 L1116.97 1851.11 L1127.86 1845.54 L1138.62 1841.21 L1149.51 1833.29 L1160.28 1820.54 L1171.17 1801.61 L1181.94 1782.43 L1192.83 1764.61 L1203.72 1743.94 L1214.48 1729.46 L1225.37 1720.67 L1236.14 1719.19 L1247.03 1723.40 L1257.80 1725.13 L1268.68 1720.06 L1279.58 1709.41 L1290.34 1695.18 L1301.23 1674.14 L1312.00 1643.33 L1322.89 1611.52 L1333.65 1583.93 L1344.54 1562.52 L1355.43 1544.70 L1366.20 1520.69 L1377.09 1489.25 L1387.86 1449.78 L1398.75 1406.71 L1409.51 1362.41 L1420.40 1316.62 L1431.29 1272.19 L1442.06 1235.93 L1452.95 1203.51 L1463.71 1176.65 L1474.61 1150.91 L1485.37 1118.12 L1496.26 1074.68 L1507.03 1024.19 L1517.92 979.26 L1528.81 942.26 L1539.57 917.76 L1550.46 900.19 L1561.23 885.34 L1572.12 874.44 L1582.89 865.66 L1593.78 858.60 L1604.67 846.60 L1615.43 828.41 L1626.32 813.93 L1637.09 811.08 L1647.98 819.75 L1658.74 834.97 L1669.63 848.58 L1680.53 860.71 L1691.29 875.93 L1702.18 897.34 L1712.95 916.15 L1723.84 932.24 L1734.60 952.04 L1745.49 980.38 L1756.38 1005.50 L1767.15 1021.09 L1778.04 1018.74 L1788.81 1006.37 L1799.70 977.78 L1810.46 936.69 L1821.35 886.33 L1832.24 829.89 L1843.01 776.56 L1853.90 743.88 L1864.66 725.57 L1875.56 708.00 L1886.32 683.00 L1897.21 641.05 L1908.10 606.27 L1918.87 566.67 L1929.76 530.04 L1940.52 500.34 L1951.41 481.40 L1962.18 487.34 L1973.07 513.83 L1983.84 518.03 L1994.73 511.97 L2005.62 502.07 L2016.38 491.67 L2027.27 487.59 L2038.04 502.32 L2048.93 549.47 L2059.70 627.43 L2070.59 720.87 L2081.47 834.10 L2092.24 925.18 L2103.13 998.20 L2113.90 1067.50 L2124.79 1123.44 L2135.55 1158.95 L2146.44 1199.05 L2157.33 1246.45 L2168.10 1308.20 L2178.99 1373.05 L2189.76 1425.15 L2200.65 1460.67 L2211.41 1486.90 L2222.30 1517.84 L2233.19 1542.10 L2243.96 1561.16 L2254.85 1581.57 L2265.61 1603.73 L2276.51 1628.48 L2287.27 1657.06 L2298.16 1681.32 L2309.05 1693.94 L2319.82 1702.11 L2330.71 1706.32 L2341.47 1705.82 L2352.36 1709.54 L2363.13 1715.35 L2374.02 1719.06 L2384.91 1719.44 L2395.68 1722.78 L2406.57 1720.30 L2417.33 1716.84 L2428.22 1707.18 L2438.99 1694.93 L2449.88 1685.40 L2460.77 1681.20 L2471.53 1678.60 L2482.43 1669.32 L2493.19 1648.28 L2504.08 1627.36 L2514.85 1606.33 L2525.74 1589.00 L2536.50 1577.61 L2547.39 1572.17 L2558.28 1569.69 L2569.05 1566.11 L2579.94 1562.02 L2590.71 1556.08 L2601.60 1555.59 L2612.36 1565.61 L2623.25 1586.15 L2634.14 1612.39 L2644.91 1641.22 L2655.80 1680.83 L2666.57 1734.41 L2677.45 1779.58 L2688.22 1816.21 L2699.11 1847.03 L2710.00 1870.17 L2720.77 1895.17 L2731.66 1924.13 L2742.42 1953.83 L2753.31 1969.42 L2764.08 1975.11 L2774.97 1979.57 L2785.86 1980.68 L2796.63 1976.23 L2807.52 1967.93 L2818.28 1954.82 L2829.17 1935.39 L2839.94 1920.66 L2850.83 1904.45 L2861.72 1886.13 L2872.49 1862.25 L2883.38 1834.28 L2894.14 1803.47 L2905.03 1777.11 L2915.80 1753.96 L2926.69 1732.80 L2937.58 1704.83 L2948.34 1669.81 L2959.23 1637.51 L2970.00 1612.14 L2980.89 1595.19 L2991.66 1574.64 L3002.55 1548.04 L3013.31 1513.88 L3024.20 1488.26 L3035.09 1477.50 L3045.86 1476.75 L3056.75 1469.70 L3067.51 1464.63 L3078.41 1459.18 L3089.17 1459.80 L3100.06 1465.00 L3110.95 1468.71 L3121.72 1453.98 L3132.61 1419.21 L3143.37 1374.91 L3154.26 1326.77 L3165.03 1284.69 L3175.92 1247.19 L3186.81 1205.49 L3197.58 1155.86 L3208.47 1113.04 L3219.23 1080.50 L3230.12 1060.08 L3240.89 1050.30 L3251.78 1028.89 L3262.67 1004.63 L3273.43 979.51 L3284.32 976.91 L3295.09 999.56 L3305.98 1034.95 L3316.75 1083.71 L3327.64 1145.22 L3338.53 1213.53 L3349.29 1302.88 L3360.18 1399.66 L3370.95 1485.91 L3381.84 1562.02 L3392.61 1617.59 L3403.50 1669.44 L3414.39 1724.88 L3425.15 1773.52 L3436.04 1812.13 L3446.81 1836.38 L3457.70 1848.14 L3468.47 1856.68 L3479.36 1852.22 L3490.12 1843.69 L3501.01 1831.31 L3511.90 1816.58 L3522.67 1810.40 L3533.56 1805.32 L3544.32 1789.23 L3555.21 1770.05 L3565.98 1752.23 L3576.87 1740.10 L3587.76 1729.96 L3598.53 1721.54 L3609.42 1726.12 L3620.18 1737.13 L3631.07 1763.37 L3641.84 1803.96 L3652.73 1851.36 L3663.62 1897.52 L3674.39 1948.75 L3685.28 2000.11 L3696.04 2048.75 L3706.93 2086.00 L3717.70 2117.68" stroke-linejoin="round" style="fill:none;stroke:#1A476F;stroke-width:8.64"/>
	<path d=" M505.15 2169.53 L516.16 2169.28 L527.17 2169.16 L538.19 2169.03 L549.20 2169.03 L560.22 2168.91 L571.23 2168.66 L582.12 2168.04 L593.13 2167.43 L604.15 2166.93 L615.16 2166.19 L626.17 2165.32 L637.19 2164.70 L648.20 2163.84 L659.22 2162.97 L670.23 2162.35 L681.24 2161.24 L692.26 2160.25 L703.27 2158.89 L714.28 2157.28 L725.30 2155.67 L736.31 2153.81 L747.20 2151.34 L758.22 2148.49 L769.23 2145.27 L780.24 2141.81 L791.26 2137.97 L802.27 2133.27 L813.28 2128.69 L824.30 2124.11 L835.31 2120.03 L846.33 2115.82 L857.34 2110.99 L868.35 2104.81 L879.37 2098.37 L890.38 2091.81 L901.27 2085.62 L912.28 2077.95 L923.30 2068.67 L934.31 2057.78 L945.33 2046.52 L956.34 2034.64 L967.35 2022.51 L978.37 2008.40 L989.38 1993.92 L1000.39 1981.05 L1011.41 1970.90 L1022.42 1962.37 L1033.44 1953.83 L1044.45 1941.70 L1055.34 1925.86 L1066.35 1911.63 L1077.37 1898.26 L1088.38 1883.91 L1099.39 1869.55 L1110.41 1856.68 L1121.42 1849.38 L1132.44 1847.15 L1143.45 1845.29 L1154.46 1838.24 L1165.48 1823.64 L1176.49 1806.93 L1187.51 1791.83 L1198.52 1773.27 L1209.41 1753.22 L1220.42 1732.93 L1231.44 1721.42 L1242.45 1717.08 L1253.46 1715.72 L1264.48 1708.17 L1275.49 1697.28 L1286.51 1681.94 L1297.52 1667.95 L1308.53 1650.51 L1319.55 1629.59 L1330.56 1604.10 L1341.57 1581.82 L1352.59 1561.65 L1363.60 1539.37 L1374.49 1506.95 L1385.51 1465.62 L1396.52 1421.44 L1407.53 1376.27 L1418.55 1332.09 L1429.56 1292.36 L1440.57 1256.47 L1451.59 1219.10 L1462.60 1185.07 L1473.62 1155.49 L1484.63 1126.90 L1495.64 1084.21 L1506.66 1036.81 L1517.67 988.42 L1528.56 947.46 L1539.57 916.52 L1550.59 894.37 L1561.60 876.18 L1572.62 863.55 L1583.63 852.42 L1594.64 848.09 L1605.66 830.76 L1616.67 814.55 L1627.68 805.76 L1638.70 808.61 L1649.71 818.51 L1660.72 836.58 L1671.74 861.70 L1682.63 888.55 L1693.64 918.75 L1704.66 946.22 L1715.67 955.13 L1726.68 957.24 L1737.70 970.73 L1748.71 992.38 L1759.72 1006.86 L1770.74 1006.86 L1781.75 995.72 L1792.77 977.41 L1803.78 948.82 L1814.79 917.76 L1825.81 874.32 L1836.70 826.80 L1847.71 796.11 L1858.72 782.87 L1869.74 772.22 L1880.75 745.74 L1891.77 704.65 L1902.78 656.51 L1913.79 607.38 L1924.81 556.52 L1935.82 512.46 L1946.84 480.91 L1957.85 465.44 L1968.86 480.04 L1979.88 492.79 L1990.89 486.23 L2001.78 481.65 L2012.79 471.38 L2023.81 467.05 L2034.82 472.99 L2045.84 507.27 L2056.85 573.10 L2067.86 659.48 L2078.88 760.34 L2089.89 865.78 L2100.90 954.14 L2111.92 1039.90 L2122.93 1114.90 L2133.95 1165.14 L2144.96 1213.41 L2155.85 1264.02 L2166.86 1327.14 L2177.88 1390.99 L2188.89 1436.91 L2199.90 1471.43 L2210.92 1501.26 L2221.93 1534.55 L2232.95 1559.92 L2243.96 1575.14 L2254.97 1588.63 L2265.99 1607.56 L2277.00 1630.95 L2288.01 1655.83 L2299.03 1676.37 L2309.92 1690.73 L2320.93 1703.10 L2331.95 1712.13 L2342.96 1715.72 L2353.97 1718.07 L2364.99 1722.78 L2376.00 1725.50 L2387.01 1722.41 L2398.03 1717.46 L2409.04 1712.26 L2420.05 1705.33 L2431.07 1697.16 L2442.08 1686.39 L2453.10 1676.37 L2463.99 1668.08 L2475.00 1658.18 L2486.01 1642.09 L2497.03 1622.29 L2508.04 1601.13 L2519.05 1580.71 L2530.07 1567.10 L2541.08 1560.29 L2552.10 1558.68 L2563.11 1557.94 L2574.12 1561.53 L2585.14 1568.70 L2596.15 1574.52 L2607.16 1583.68 L2618.18 1602.37 L2629.07 1627.49 L2640.08 1659.17 L2651.10 1695.30 L2662.11 1737.75 L2673.12 1775.87 L2684.14 1807.18 L2695.15 1837.99 L2706.16 1864.85 L2717.18 1886.50 L2728.19 1905.81 L2739.21 1924.87 L2750.22 1942.44 L2761.23 1956.18 L2772.25 1964.47 L2783.14 1969.17 L2794.15 1967.56 L2805.16 1961.38 L2816.18 1951.72 L2827.19 1939.97 L2838.21 1925.73 L2849.22 1906.43 L2860.23 1881.93 L2871.25 1855.07 L2882.26 1828.59 L2893.28 1803.71 L2904.29 1779.58 L2915.30 1752.48 L2926.32 1720.30 L2937.21 1685.53 L2948.22 1648.77 L2959.23 1618.82 L2970.25 1592.84 L2981.26 1568.21 L2992.28 1545.93 L3003.29 1528.11 L3014.30 1515.61 L3025.32 1509.67 L3036.33 1511.03 L3047.34 1511.78 L3058.36 1504.48 L3069.37 1494.95 L3080.39 1487.52 L3091.28 1479.72 L3102.29 1476.01 L3113.30 1471.06 L3124.32 1454.36 L3135.33 1427.01 L3146.34 1397.92 L3157.36 1367.98 L3168.37 1335.06 L3179.39 1294.84 L3190.40 1241.00 L3201.41 1172.94 L3212.43 1111.19 L3223.44 1063.42 L3234.45 1027.40 L3245.47 996.96 L3256.36 959.96 L3267.37 933.23 L3278.39 925.80 L3289.40 948.94 L3300.41 995.72 L3311.43 1044.48 L3322.44 1107.97 L3333.45 1182.10 L3344.47 1269.59 L3355.48 1376.39 L3366.49 1470.81 L3377.51 1551.38 L3388.52 1615.24 L3399.54 1668.20 L3410.43 1722.28 L3421.44 1767.21 L3432.45 1801.86 L3443.47 1826.73 L3454.48 1838.86 L3465.49 1852.22 L3476.51 1862.25 L3487.52 1861.75 L3498.54 1850.99 L3509.55 1833.78 L3520.56 1815.72 L3531.58 1794.68 L3542.59 1768.94 L3553.61 1743.94 L3564.49 1724.02 L3575.51 1708.79 L3586.52 1698.89 L3597.54 1697.53 L3608.55 1705.33 L3619.56 1723.40 L3630.58 1756.07 L3641.59 1798.27 L3652.61 1845.67 L3663.62 1896.40 L3674.63 1951.35 L3685.65 2004.19 L3696.66 2048.37 L3707.67 2083.64 L3718.56 2112.11 L3729.58 2134.51 L3740.59 2148.99 L3751.61 2157.90 L3762.62 2163.22 L3773.63 2167.30 L3784.65 2168.91 L3795.66 2169.41" stroke-linejoin="round" style="fill:none;stroke:#90353B;stroke-width:8.64"/>
	<line x1="390.80" y1="2233.63" x2="390.80" y2="100.86" style="stroke:#000000;stroke-width:5.76"/>
	<line x1="390.80" y1="2170.27" x2="350.83" y2="2170.27" style="stroke:#000000;stroke-width:5.76"/>
	<text x="300.72" y="2170.27" style="font-family:'Helvetica';font-size:99.99px;fill:#000000" transform="rotate(-90 300.72,2170.27)" text-anchor="middle">0</text>
	<line x1="390.80" y1="1668.82" x2="350.83" y2="1668.82" style="stroke:#000000;stroke-width:5.76"/>
	<text x="300.72" y="1668.82" style="font-family:'Helvetica';font-size:99.99px;fill:#000000" transform="rotate(-90 300.72,1668.82)" text-anchor="middle">2</text>
	<line x1="390.80" y1="1167.25" x2="350.83" y2="1167.25" style="stroke:#000000;stroke-width:5.76"/>
	<text x="300.72" y="1167.25" style="font-family:'Helvetica';font-size:99.99px;fill:#000000" transform="rotate(-90 300.72,1167.25)" text-anchor="middle">4</text>
	<line x1="390.80" y1="665.67" x2="350.83" y2="665.67" style="stroke:#000000;stroke-width:5.76"/>
	<text x="300.72" y="665.67" style="font-family:'Helvetica';font-size:99.99px;fill:#000000" transform="rotate(-90 300.72,665.67)" text-anchor="middle">6</text>
	<line x1="390.80" y1="164.22" x2="350.83" y2="164.22" style="stroke:#000000;stroke-width:5.76"/>
	<text x="300.72" y="164.22" style="font-family:'Helvetica';font-size:99.99px;fill:#000000" transform="rotate(-90 300.72,164.22)" text-anchor="middle">8</text>
	<text x="190.71" y="1167.25" style="font-family:'Helvetica';font-size:99.99px;fill:#000000" transform="rotate(-90 190.71,1167.25)" text-anchor="middle">kdensity pscore</text>
	<line x1="390.80" y1="2233.63" x2="3859.02" y2="2233.63" style="stroke:#000000;stroke-width:5.76"/>
	<line x1="454.16" y1="2233.63" x2="454.16" y2="2273.73" style="stroke:#000000;stroke-width:5.76"/>
	<text x="454.16" y="2363.59" style="font-family:'Helvetica';font-size:99.99px;fill:#000000" text-anchor="middle">.5</text>
	<line x1="1264.35" y1="2233.63" x2="1264.35" y2="2273.73" style="stroke:#000000;stroke-width:5.76"/>
	<text x="1264.35" y="2363.59" style="font-family:'Helvetica';font-size:99.99px;fill:#000000" text-anchor="middle">.6</text>
	<line x1="2074.55" y1="2233.63" x2="2074.55" y2="2273.73" style="stroke:#000000;stroke-width:5.76"/>
	<text x="2074.55" y="2363.59" style="font-family:'Helvetica';font-size:99.99px;fill:#000000" text-anchor="middle">.7</text>
	<line x1="2884.74" y1="2233.63" x2="2884.74" y2="2273.73" style="stroke:#000000;stroke-width:5.76"/>
	<text x="2884.74" y="2363.59" style="font-family:'Helvetica';font-size:99.99px;fill:#000000" text-anchor="middle">.8</text>
	<line x1="3694.93" y1="2233.63" x2="3694.93" y2="2273.73" style="stroke:#000000;stroke-width:5.76"/>
	<text x="3694.93" y="2363.59" style="font-family:'Helvetica';font-size:99.99px;fill:#000000" text-anchor="middle">.9</text>
	<text x="2124.91" y="2473.60" style="font-family:'Helvetica';font-size:99.99px;fill:#000000" text-anchor="middle">x</text>
	<rect x="567.27" y="2558.24" width="3115.28" height="186.37" style="fill:#FFFFFF"/>
	<rect x="570.15" y="2561.12" width="3109.52" height="180.61" style="fill:none;stroke:#EAF2F3;stroke-width:5.76"/>
	<line x1="610.58" y1="2651.43" x2="984.93" y2="2651.43" style="stroke:#90353B;stroke-width:8.64"/>
	<line x1="2038.66" y1="2651.43" x2="2413.00" y2="2651.43" style="stroke:#1A476F;stroke-width:8.64"/>
	<text x="1044.94" y="2679.44" style="font-family:'Helvetica';font-size:79.94px;fill:#000000">Pscore - ICS Combination</text>
	<text x="2473.02" y="2679.44" style="font-family:'Helvetica';font-size:79.94px;fill:#000000">Pscore - LABA/LAMA Combination</text>
</svg>
