<?xml version="1.0" encoding="UTF-8" standalone="no"?>
<!-- This is a Stata 16.1 generated SVG file (http://www.stata.com) -->

<svg version="1.1" width="5.50in" height="4.00in" viewBox="0 0 3960 2880" xmlns="http://www.w3.org/2000/svg" xmlns:xlink="http://www.w3.org/1999/xlink">
	<desc>Stata Graph - Graph</desc>
	<rect x="0" y="0" width="3960" height="2880" style="fill:#FFFFFF;stroke:none"/>
	<rect x="0.00" y="0.00" width="3959.88" height="2880.00" style="fill:#FFFFFF"/>
	<rect x="2.88" y="2.88" width="3954.12" height="2874.24" style="fill:none;stroke:#FFFFFF;stroke-width:5.76"/>
	<rect x="1125.54" y="103.74" width="2180.41" height="2201.02" style="fill:none;stroke:#000000;stroke-width:5.76"/>
	<path d=" M1361.62 224.98 L1363.97 303.20 L1366.32 375.22 L1368.80 441.80 L1371.15 503.43 L1373.63 560.73 L1375.98 614.19 L1378.45 664.06 L1380.80 710.72 L1383.15 754.53 L1385.63 795.61 L1387.98 834.35 L1390.45 870.86 L1392.81 905.38 L1395.28 938.05 L1397.63 969.12 L1400.11 998.45 L1402.46 1026.41 L1404.81 1052.90 L1407.29 1078.27 L1409.64 1102.40 L1412.11 1125.42 L1414.46 1147.45 L1416.94 1168.61 L1419.29 1188.78 L1421.76 1208.09 L1424.12 1226.65 L1426.47 1244.47 L1428.94 1261.67 L1431.29 1278.13 L1433.77 1293.97 L1436.12 1309.19 L1438.59 1323.92 L1440.94 1338.15 L1443.42 1351.89 L1445.77 1365.13 L1448.12 1377.88 L1450.60 1390.25 L1452.95 1402.13 L1455.42 1413.76 L1457.78 1424.90 L1460.25 1435.79 L1462.60 1446.31 L1464.95 1456.58 L1467.43 1466.48 L1469.78 1476.01 L1472.25 1485.42 L1474.61 1494.45 L1477.08 1503.24 L1479.43 1511.78 L1481.91 1520.19 L1484.26 1528.24 L1486.61 1536.16 L1489.08 1543.83 L1491.43 1551.38 L1493.91 1558.68 L1496.26 1565.73 L1498.74 1572.66 L1501.09 1579.47 L1503.56 1586.03 L1505.91 1592.46 L1508.27 1598.78 L1510.74 1604.96 L1513.09 1610.90 L1515.57 1616.84 L1517.92 1622.54 L1520.39 1628.11 L1522.74 1633.55 L1525.22 1639.00 L1527.57 1644.19 L1529.92 1649.39 L1532.40 1654.34 L1534.75 1659.29 L1537.22 1664.12 L1539.57 1668.82 L1542.05 1673.40 L1544.40 1677.98 L1546.88 1682.31 L1549.23 1686.77 L1551.58 1690.97 L1554.05 1695.18 L1556.40 1699.26 L1558.88 1703.22 L1561.23 1707.18 L1563.70 1711.14 L1566.06 1714.86 L1568.41 1718.57 L1570.88 1722.28 L1573.23 1725.87 L1575.71 1729.46 L1578.06 1732.93 L1580.54 1736.27 L1582.89 1739.61 L1585.36 1742.95 L1587.71 1746.17 L1590.06 1749.38 L1592.54 1752.48 L1594.89 1755.57 L1597.37 1758.54 L1599.72 1761.51 L1602.19 1764.48 L1604.54 1767.33 L1607.02 1770.18 L1609.37 1773.02 L1611.72 1775.74 L1614.19 1778.47 L1616.55 1781.07 L1619.02 1783.79 L1621.37 1786.26 L1623.85 1788.86 L1626.20 1791.34 L1628.67 1793.81 L1631.03 1796.29 L1633.38 1798.64 L1635.85 1800.99 L1638.20 1803.34 L1640.68 1805.57 L1643.03 1807.92 L1645.50 1810.15 L1647.86 1812.25 L1650.33 1814.48 L1652.68 1816.58 L1655.03 1818.69 L1657.51 1820.79 L1659.86 1822.77 L1662.33 1824.87 L1664.68 1826.85 L1667.16 1828.83 L1669.51 1830.81 L1671.86 1832.67 L1674.34 1834.53 L1676.69 1836.38 L1679.16 1838.24 L1681.52 1840.10 L1683.99 1841.83 L1686.34 1843.69 L1688.82 1845.42 L1691.17 1847.15 L1693.52 1848.88 L1695.99 1850.49 L1698.35 1852.22 L1700.82 1853.83 L1703.17 1855.44 L1705.65 1857.05 L1708.00 1858.66 L1710.47 1860.27 L1712.82 1861.75 L1715.17 1863.36 L1717.65 1864.85 L1720.00 1866.33 L1722.48 1867.82 L1724.83 1869.30 L1727.30 1870.66 L1729.65 1872.15 L1732.13 1873.51 L1734.48 1874.99 L1736.83 1876.36 L1739.31 1877.72 L1741.66 1879.08 L1744.13 1880.32 L1746.48 1881.68 L1748.96 1883.04 L1751.31 1884.28 L1753.66 1885.51 L1756.14 1886.88 L1758.49 1888.11 L1760.96 1889.35 L1763.31 1890.59 L1765.79 1891.70 L1768.14 1892.94 L1770.62 1894.18 L1772.97 1895.29 L1775.32 1896.53 L1777.79 1897.64 L1780.14 1898.76 L1782.62 1899.87 L1784.97 1900.98 L1787.44 1902.10 L1789.80 1903.21 L1792.27 1904.32 L1794.62 1905.44 L1796.97 1906.43 L1799.45 1907.54 L1801.80 1908.53 L1804.28 1909.52 L1806.63 1910.64 L1809.10 1911.63 L1811.45 1912.62 L1813.93 1913.61 L1816.28 1914.60 L1818.63 1915.59 L1821.11 1916.58 L1823.46 1917.44 L1825.93 1918.43 L1828.28 1919.42 L1830.76 1920.29 L1833.11 1921.28 L1835.58 1922.15 L1837.93 1923.01 L1840.29 1923.88 L1842.76 1924.87 L1845.11 1925.73 L1847.59 1926.60 L1849.94 1927.47 L1852.41 1928.33 L1854.77 1929.20 L1857.12 1929.94 L1859.59 1930.81 L1861.94 1931.67 L1864.42 1932.54 L1866.77 1933.28 L1869.24 1934.15 L1871.60 1934.89 L1874.07 1935.76 L1876.42 1936.50 L1878.77 1937.24 L1881.25 1937.99 L1883.60 1938.85 L1886.07 1939.59 L1888.42 1940.34 L1890.90 1941.08 L1893.25 1941.82 L1895.73 1942.56 L1898.08 1943.31 L1900.43 1944.05 L1902.90 1944.67 L1905.26 1945.41 L1907.73 1946.15 L1910.08 1946.90 L1912.56 1947.51 L1914.91 1948.26 L1917.38 1948.88 L1919.73 1949.62 L1922.09 1950.24 L1924.56 1950.98 L1926.91 1951.60 L1929.39 1952.22 L1931.74 1952.96 L1934.21 1953.58 L1936.56 1954.20 L1938.91 1954.82 L1941.39 1955.43 L1943.74 1956.05 L1946.22 1956.80 L1948.57 1957.41 L1951.04 1958.03 L1953.39 1958.53 L1955.87 1959.15 L1958.22 1959.77 L1960.57 1960.39 L1963.05 1961.00 L1965.40 1961.62 L1967.87 1962.12 L1970.22 1962.74 L1972.70 1963.36 L1975.05 1963.85 L1977.53 1964.47 L1979.88 1964.96 L1982.23 1965.58 L1984.70 1966.08 L1987.05 1966.70 L1989.53 1967.19 L1991.88 1967.81 L1994.36 1968.31 L1996.71 1968.80 L1999.18 1969.42 L2001.53 1969.91 L2003.88 1970.41 L2006.36 1970.90 L2008.71 1971.52 L2011.18 1972.02 L2013.54 1972.51 L2016.01 1973.01 L2018.36 1973.50 L2020.84 1974.00 L2023.19 1974.49 L2025.54 1974.99 L2028.02 1975.48 L2030.37 1975.98 L2032.84 1976.47 L2035.19 1976.97 L2037.67 1977.46 L2040.02 1977.96 L2042.37 1978.33 L2044.85 1978.82 L2047.20 1979.32 L2049.67 1979.81 L2052.02 1980.19 L2054.50 1980.68 L2056.85 1981.18 L2059.32 1981.55 L2061.68 1982.04 L2064.03 1982.54 L2066.50 1982.91 L2068.85 1983.40 L2071.33 1983.77 L2073.68 1984.27 L2076.15 1984.64 L2078.51 1985.14 L2080.98 1985.51 L2083.33 1986.00 L2085.68 1986.37 L2088.16 1986.74 L2090.51 1987.24 L2092.98 1987.61 L2095.34 1987.98 L2097.81 1988.48 L2100.16 1988.85 L2102.64 1989.22 L2104.99 1989.71 L2107.34 1990.09 L2109.81 1990.46 L2112.16 1990.83 L2114.64 1991.20 L2116.99 1991.57 L2119.47 1992.07 L2121.82 1992.44 L2124.17 1992.81 L2126.64 1993.18 L2128.99 1993.55 L2131.47 1993.92 L2133.82 1994.29 L2136.30 1994.66 L2138.65 1995.04 L2141.12 1995.41 L2143.47 1995.78 L2145.82 1996.15 L2148.30 1996.52 L2150.65 1996.89 L2153.13 1997.14 L2155.48 1997.51 L2157.95 1997.88 L2160.30 1998.25 L2162.78 1998.62 L2165.13 1999.00 L2167.48 1999.24 L2169.96 1999.61 L2172.31 1999.99 L2174.78 2000.36 L2177.13 2000.61 L2179.61 2000.98 L2181.96 2001.35 L2184.43 2001.60 L2186.79 2001.97 L2189.14 2002.34 L2191.61 2002.59 L2193.96 2002.96 L2196.44 2003.33 L2198.79 2003.58 L2201.26 2003.95 L2203.62 2004.19 L2206.09 2004.57 L2208.44 2004.81 L2210.79 2005.18 L2213.27 2005.43 L2215.62 2005.80 L2218.09 2006.05 L2220.45 2006.42 L2222.92 2006.67 L2225.27 2007.04 L2227.62 2007.29 L2230.10 2007.66 L2232.45 2007.91 L2234.93 2008.28 L2237.28 2008.53 L2239.75 2008.77 L2242.10 2009.14 L2244.58 2009.39 L2246.93 2009.64 L2249.28 2010.01 L2251.76 2010.26 L2254.11 2010.51 L2256.58 2010.88 L2258.93 2011.12 L2261.41 2011.37 L2263.76 2011.62 L2266.23 2011.99 L2268.59 2012.24 L2270.94 2012.49 L2273.41 2012.73 L2275.76 2012.98 L2278.24 2013.35 L2280.59 2013.60 L2283.06 2013.85 L2285.41 2014.09 L2287.89 2014.34 L2290.24 2014.59 L2292.59 2014.96 L2295.07 2015.21 L2297.42 2015.46 L2299.89 2015.70 L2302.24 2015.95 L2304.72 2016.20 L2307.07 2016.45 L2309.55 2016.69 L2311.90 2016.94 L2314.25 2017.19 L2316.72 2017.44 L2319.07 2017.68 L2321.55 2017.93 L2323.90 2018.18 L2326.38 2018.43 L2328.73 2018.67 L2331.08 2018.92 L2333.55 2019.17 L2335.91 2019.42 L2338.38 2019.66 L2340.73 2019.91 L2343.21 2020.16 L2345.56 2020.41 L2348.03 2020.65 L2350.38 2020.90 L2352.74 2021.02 L2355.21 2021.27 L2357.56 2021.52 L2360.04 2021.77 L2362.39 2022.01 L2364.86 2022.26 L2367.21 2022.51 L2369.69 2022.63 L2372.04 2022.88 L2374.39 2023.13 L2376.87 2023.38 L2379.22 2023.62 L2381.69 2023.75 L2384.04 2023.99 L2386.52 2024.24 L2388.87 2024.49 L2391.34 2024.61 L2393.70 2024.86 L2396.05 2025.11 L2398.52 2025.36 L2400.87 2025.48 L2403.35 2025.73 L2405.70 2025.97 L2408.18 2026.22 L2410.53 2026.35 L2412.88 2026.59 L2415.35 2026.84 L2417.70 2026.96 L2420.18 2027.21 L2422.53 2027.46 L2425.01 2027.58 L2427.36 2027.83 L2429.83 2028.08 L2432.18 2028.20 L2434.53 2028.45 L2437.01 2028.57 L2439.36 2028.82 L2441.84 2029.07 L2444.19 2029.19 L2446.66 2029.44 L2449.01 2029.56 L2451.49 2029.81 L2453.84 2029.93 L2456.19 2030.18 L2458.66 2030.43 L2461.02 2030.55 L2463.49 2030.80 L2465.84 2030.92 L2468.32 2031.17 L2470.67 2031.30 L2473.14 2031.54 L2475.49 2031.67 L2477.85 2031.91 L2480.32 2032.04 L2482.67 2032.29 L2485.15 2032.41 L2487.50 2032.66 L2489.97 2032.78 L2492.32 2033.03 L2494.80 2033.15 L2497.15 2033.40 L2499.50 2033.52 L2501.98 2033.77 L2504.33 2033.89 L2506.80 2034.02 L2509.16 2034.27 L2511.63 2034.39 L2513.98 2034.64 L2516.33 2034.76 L2518.81 2034.88 L2521.16 2035.13 L2523.63 2035.26 L2525.99 2035.50 L2528.46 2035.63 L2530.81 2035.75 L2533.29 2036.00 L2535.64 2036.12 L2537.99 2036.37 L2540.46 2036.49 L2542.82 2036.62 L2545.29 2036.86 L2547.64 2036.99 L2550.12 2037.11 L2552.47 2037.36 L2554.94 2037.48 L2557.29 2037.61 L2559.64 2037.85 L2562.12 2037.98 L2564.47 2038.10 L2566.95 2038.23 L2569.30 2038.47 L2571.77 2038.60 L2574.12 2038.72 L2576.60 2038.97 L2578.95 2039.09 L2581.30 2039.22 L2583.78 2039.34 L2586.13 2039.59 L2588.60 2039.71 L2590.95 2039.83 L2593.43 2039.96 L2595.78 2040.21 L2598.13 2040.33 L2600.61 2040.45 L2602.96 2040.58 L2605.43 2040.83 L2607.78 2040.95 L2610.26 2041.07 L2612.61 2041.20 L2615.09 2041.32 L2617.44 2041.57 L2619.79 2041.69 L2622.26 2041.82 L2624.61 2041.94 L2627.09 2042.06 L2629.44 2042.31 L2631.91 2042.43 L2634.27 2042.56 L2636.74 2042.68 L2639.09 2042.81 L2641.44 2042.93 L2643.92 2043.18 L2646.27 2043.30 L2648.74 2043.42 L2651.10 2043.55 L2653.57 2043.67 L2655.92 2043.80 L2658.40 2043.92 L2660.75 2044.17 L2663.10 2044.29 L2665.57 2044.41 L2667.93 2044.54 L2670.40 2044.66 L2672.75 2044.79 L2675.23 2044.91 L2677.58 2045.03 L2680.05 2045.16 L2682.41 2045.40 L2684.76 2045.53 L2687.23 2045.65 L2689.58 2045.78 L2692.06 2045.90 L2694.41 2046.02 L2696.88 2046.15 L2699.24 2046.27 L2701.59 2046.39 L2704.06 2046.52 L2706.41 2046.64 L2708.89 2046.77 L2711.24 2046.89 L2713.71 2047.01 L2716.07 2047.14 L2718.54 2047.26 L2720.89 2047.38 L2723.24 2047.51 L2725.72 2047.76 L2728.07 2047.88 L2730.54 2048.00 L2732.89 2048.13 L2735.37 2048.25 L2737.72 2048.37 L2740.20 2048.50 L2742.55 2048.62 L2744.90 2048.75 L2747.37 2048.87 L2749.72 2048.99 L2752.20 2049.12 L2754.55 2049.24 L2757.03 2049.36 L2759.38 2049.36 L2761.85 2049.49 L2764.20 2049.61 L2766.55 2049.74 L2769.03 2049.86 L2771.38 2049.98 L2773.86 2050.11 L2776.21 2050.23 L2778.68 2050.35 L2781.03 2050.48 L2783.39 2050.60 L2785.86 2050.73 L2788.21 2050.85 L2790.69 2050.97 L2793.04 2051.10 L2795.51 2051.22 L2797.86 2051.34 L2800.34 2051.47 L2802.69 2051.59 L2805.04 2051.59 L2807.52 2051.72 L2809.87 2051.84 L2812.34 2051.96 L2814.69 2052.09 L2817.17 2052.21 L2819.52 2052.33 L2821.99 2052.46 L2824.35 2052.58 L2826.70 2052.71 L2829.17 2052.83 L2831.52 2052.83 L2834.00 2052.95 L2836.35 2053.08 L2838.82 2053.20 L2841.18 2053.32 L2843.65 2053.45 L2846.00 2053.57 L2848.35 2053.70 L2850.83 2053.70 L2853.18 2053.82 L2855.66 2053.94 L2858.01 2054.07 L2860.48 2054.19 L2862.83 2054.31 L2865.31 2054.44 L2867.66 2054.44 L2870.01 2054.56 L2872.49 2054.69 L2874.84 2054.81 L2877.31 2054.93 L2879.66 2055.06 L2882.14 2055.06 L2884.49 2055.18 L2886.84 2055.30 L2889.32 2055.43 L2891.67 2055.55 L2894.14 2055.68 L2896.49 2055.68 L2898.97 2055.80 L2901.32 2055.92 L2903.79 2056.05 L2906.14 2056.17 L2908.50 2056.17 L2910.97 2056.29 L2913.32 2056.42 L2915.80 2056.54 L2918.15 2056.67 L2920.62 2056.67 L2922.97 2056.79 L2925.45 2056.91 L2927.80 2057.04 L2930.15 2057.16 L2932.63 2057.16 L2934.98 2057.28 L2937.45 2057.41 L2939.80 2057.53 L2942.28 2057.53 L2944.63 2057.66 L2947.11 2057.78 L2949.46 2057.90 L2951.81 2057.90 L2954.28 2058.03 L2956.64 2058.15 L2959.11 2058.27 L2961.46 2058.27 L2963.94 2058.40 L2966.29 2058.52 L2968.76 2058.65 L2971.11 2058.65 L2973.47 2058.77 L2975.94 2058.89 L2978.29 2059.02 L2980.77 2059.02 L2983.12 2059.14 L2985.59 2059.26 L2987.94 2059.39 L2990.30 2059.39 L2992.77 2059.51 L2995.12 2059.64 L2997.60 2059.76 L2999.95 2059.76 L3002.42 2059.88 L3004.77 2060.01 L3007.25 2060.01 L3009.60 2060.13 L3011.95 2060.25 L3014.43 2060.38 L3016.78 2060.38 L3019.25 2060.50 L3021.60 2060.63 L3024.08 2060.63 L3026.43 2060.75 L3028.91 2060.87 L3031.26 2060.87 L3033.61 2061.00 L3036.08 2061.12 L3038.43 2061.24 L3040.91 2061.24 L3043.26 2061.37 L3045.74 2061.49 L3048.09 2061.49 L3050.56 2061.62 L3052.91 2061.74 L3055.26 2061.74 L3057.74 2061.86 L3060.09 2061.99 L3062.57 2061.99 L3064.92 2062.11 L3067.39 2062.23 L3069.74 2062.23 L3072.09 2062.36 L3074.57 2062.48 L3076.92 2062.48 L3079.39 2062.61 L3081.75 2062.73 L3084.22 2062.73 L3086.57 2062.85 L3089.05 2062.98 L3091.40 2062.98 L3093.75 2063.10 L3096.22 2063.10 L3098.58 2063.22 L3101.05 2063.35 L3103.40 2063.35 L3105.88 2063.47 L3108.23 2063.60 L3110.70 2063.60 L3113.05 2063.72 L3115.41 2063.84 L3117.88 2063.84 L3120.23 2063.97 L3122.71 2063.97 L3125.06 2064.09 L3127.53 2064.21 L3129.89 2064.21 L3132.36 2064.34 L3134.71 2064.46 L3137.06 2064.46 L3139.54 2064.59 L3141.89 2064.59 L3144.36 2064.71 L3146.72 2064.83 L3149.19 2064.83 L3151.54 2064.96 L3154.02 2064.96 L3156.37 2065.08 L3158.72 2065.20 L3161.19 2065.20 L3163.55 2065.33 L3166.02 2065.33 L3168.37 2065.45 L3170.85 2065.58 L3173.20 2065.58 L3175.55 2065.70 L3178.02 2065.70 L3180.38 2065.82 L3182.85 2065.95 L3185.20 2065.95 L3187.68 2066.07 L3190.03 2066.07 L3192.50 2066.19 L3194.85 2066.19 L3197.20 2066.32 L3199.68 2066.44 L3202.03 2066.44 L3204.51 2066.57 L3206.86 2066.57 L3209.33 2066.69 L3211.68 2066.69 L3214.16 2066.81 L3216.51 2066.94" stroke-linejoin="round" style="fill:none;stroke:#006000;stroke-width:8.64"/>
	<path d=" M1185.90 332.40 L1188.37 589.32 L1190.72 785.71 L1193.20 940.78 L1195.55 1066.39 L1197.90 1170.09 L1200.38 1257.22 L1202.73 1331.34 L1205.20 1395.32 L1207.55 1451.14 L1210.03 1500.02 L1212.38 1543.46 L1214.85 1582.07 L1217.20 1616.84 L1219.56 1648.15 L1222.03 1676.62 L1224.38 1702.48 L1226.86 1726.12 L1229.21 1747.90 L1231.68 1767.95 L1234.04 1786.51 L1236.51 1803.71 L1238.86 1819.68 L1241.21 1834.53 L1243.69 1848.51 L1246.04 1861.51 L1248.51 1873.76 L1250.87 1885.27 L1253.34 1896.03 L1255.69 1906.30 L1258.17 1915.96 L1260.52 1925.12 L1262.87 1933.78 L1265.34 1941.95 L1267.69 1949.87 L1270.17 1957.29 L1272.52 1964.35 L1275.00 1971.15 L1277.35 1977.59 L1279.70 1983.77 L1282.17 1989.71 L1284.53 1995.41 L1287.00 2000.85 L1289.35 2006.05 L1291.83 2011.12 L1294.18 2015.83 L1296.65 2020.53 L1299.00 2024.98 L1301.36 2029.32 L1303.83 2033.40 L1306.18 2037.36 L1308.66 2041.20 L1311.01 2045.03 L1313.48 2048.62 L1315.83 2052.09 L1318.31 2055.43 L1320.66 2058.65 L1323.01 2061.86 L1325.49 2064.83 L1327.84 2067.80 L1330.31 2070.77 L1332.66 2073.50 L1335.14 2076.22 L1337.49 2078.82 L1339.96 2081.42 L1342.32 2083.89 L1344.67 2086.37 L1347.14 2088.72 L1349.49 2090.95 L1351.97 2093.17 L1354.32 2095.40 L1356.80 2097.50 L1359.15 2099.48 L1361.62 2101.59 L1363.97 2103.44 L1366.32 2105.42 L1368.80 2107.28 L1371.15 2109.01 L1373.63 2110.87 L1375.98 2112.60 L1378.45 2114.33 L1380.80 2115.94 L1383.15 2117.55 L1385.63 2119.16 L1387.98 2120.65 L1390.45 2122.13 L1392.81 2123.62 L1395.28 2125.10 L1397.63 2126.59 L1400.11 2127.95 L1402.46 2129.31 L1404.81 2130.67 L1407.29 2131.91 L1409.64 2133.15 L1412.11 2134.38 L1414.46 2135.62 L1416.94 2136.86 L1419.29 2138.10 L1421.76 2139.21 L1424.12 2140.32 L1426.47 2141.44 L1428.94 2142.55 L1431.29 2143.66 L1433.77 2144.65 L1436.12 2145.77 L1438.59 2146.76 L1440.94 2147.75 L1443.42 2148.74 L1445.77 2149.73 L1448.12 2150.59 L1450.60 2151.58 L1452.95 2152.45 L1455.42 2153.32 L1457.78 2154.31 L1460.25 2155.17 L1462.60 2156.04 L1464.95 2156.78 L1467.43 2157.65 L1469.78 2158.51 L1472.25 2159.26 L1474.61 2160.00 L1477.08 2160.87 L1479.43 2161.61 L1481.91 2162.35 L1484.26 2163.09 L1486.61 2163.84 L1489.08 2164.58 L1491.43 2165.20 L1493.91 2165.94 L1496.26 2166.68 L1498.74 2167.30 L1501.09 2167.92 L1503.56 2168.66 L1505.91 2169.28 L1508.27 2169.90 L1510.74 2170.52 L1513.09 2171.14 L1515.57 2171.76 L1517.92 2172.38 L1520.39 2172.99 L1522.74 2173.61 L1525.22 2174.11 L1527.57 2174.73 L1529.92 2175.35 L1532.40 2175.84 L1534.75 2176.34 L1537.22 2176.95 L1539.57 2177.45 L1542.05 2177.94 L1544.40 2178.56 L1546.88 2179.06 L1549.23 2179.55 L1551.58 2180.05 L1554.05 2180.54 L1556.40 2181.04 L1558.88 2181.53 L1561.23 2182.03 L1563.70 2182.40 L1566.06 2182.89 L1568.41 2183.39 L1570.88 2183.88 L1573.23 2184.26 L1575.71 2184.75 L1578.06 2185.12 L1580.54 2185.62 L1582.89 2185.99 L1585.36 2186.48 L1587.71 2186.85 L1590.06 2187.35 L1592.54 2187.72 L1594.89 2188.09 L1597.37 2188.46 L1599.72 2188.83 L1602.19 2189.33 L1604.54 2189.70 L1607.02 2190.07 L1609.37 2190.44 L1611.72 2190.81 L1614.19 2191.19 L1616.55 2191.56 L1619.02 2191.93 L1621.37 2192.30 L1623.85 2192.67 L1626.20 2192.92 L1628.67 2193.29 L1631.03 2193.66 L1633.38 2194.03 L1635.85 2194.28 L1638.20 2194.65 L1640.68 2195.02 L1643.03 2195.27 L1645.50 2195.64 L1647.86 2196.01 L1650.33 2196.26 L1652.68 2196.63 L1655.03 2196.88 L1657.51 2197.25 L1659.86 2197.50 L1662.33 2197.87 L1664.68 2198.12 L1667.16 2198.36 L1669.51 2198.73 L1671.86 2198.98 L1674.34 2199.23 L1676.69 2199.60 L1679.16 2199.85 L1681.52 2200.10 L1683.99 2200.34 L1686.34 2200.72 L1688.82 2200.96 L1691.17 2201.21 L1693.52 2201.46 L1695.99 2201.71 L1698.35 2201.95 L1700.82 2202.20 L1703.17 2202.57 L1705.65 2202.82 L1708.00 2203.07 L1710.47 2203.31 L1712.82 2203.56 L1715.17 2203.81 L1717.65 2204.06 L1720.00 2204.30 L1722.48 2204.43 L1724.83 2204.68 L1727.30 2204.92 L1729.65 2205.17 L1732.13 2205.42 L1734.48 2205.67 L1736.83 2205.91 L1739.31 2206.16 L1741.66 2206.28 L1744.13 2206.53 L1746.48 2206.78 L1748.96 2207.03 L1751.31 2207.15 L1753.66 2207.40 L1756.14 2207.65 L1758.49 2207.89 L1760.96 2208.02 L1763.31 2208.26 L1765.79 2208.51 L1768.14 2208.64 L1770.62 2208.88 L1772.97 2209.01 L1775.32 2209.25 L1777.79 2209.50 L1780.14 2209.63 L1782.62 2209.87 L1784.97 2210.00 L1787.44 2210.24 L1789.80 2210.37 L1792.27 2210.62 L1794.62 2210.74 L1796.97 2210.99 L1799.45 2211.11 L1801.80 2211.36 L1804.28 2211.48 L1806.63 2211.73 L1809.10 2211.85 L1811.45 2212.10 L1813.93 2212.22 L1816.28 2212.47 L1818.63 2212.60 L1821.11 2212.72 L1823.46 2212.97 L1825.93 2213.09 L1828.28 2213.21 L1830.76 2213.46 L1833.11 2213.59 L1835.58 2213.71 L1837.93 2213.96 L1840.29 2214.08 L1842.76 2214.20 L1845.11 2214.45 L1847.59 2214.58 L1849.94 2214.70 L1852.41 2214.82 L1854.77 2215.07 L1857.12 2215.19 L1859.59 2215.32 L1861.94 2215.44 L1864.42 2215.69 L1866.77 2215.81 L1869.24 2215.94 L1871.60 2216.06 L1874.07 2216.18 L1876.42 2216.43 L1878.77 2216.56 L1881.25 2216.68 L1883.60 2216.80 L1886.07 2216.93 L1888.42 2217.05 L1890.90 2217.30 L1893.25 2217.42 L1895.73 2217.55 L1898.08 2217.67 L1900.43 2217.79 L1902.90 2217.92 L1905.26 2218.04 L1907.73 2218.16 L1910.08 2218.29 L1912.56 2218.41 L1914.91 2218.54 L1917.38 2218.78 L1919.73 2218.91 L1922.09 2219.03 L1924.56 2219.15 L1926.91 2219.28 L1929.39 2219.40 L1931.74 2219.53 L1934.21 2219.65 L1936.56 2219.77 L1938.91 2219.90 L1941.39 2220.02 L1943.74 2220.14 L1946.22 2220.27 L1948.57 2220.39 L1951.04 2220.52 L1953.39 2220.64 L1955.87 2220.64 L1958.22 2220.76 L1960.57 2220.89 L1963.05 2221.01 L1965.40 2221.13 L1967.87 2221.26 L1970.22 2221.38 L1972.70 2221.51 L1975.05 2221.63 L1977.53 2221.75 L1979.88 2221.88 L1982.23 2222.00 L1984.70 2222.00 L1987.05 2222.12 L1989.53 2222.25 L1991.88 2222.37 L1994.36 2222.50 L1996.71 2222.62 L1999.18 2222.74 L2001.53 2222.87 L2003.88 2222.87 L2006.36 2222.99 L2008.71 2223.11 L2011.18 2223.24 L2013.54 2223.36 L2016.01 2223.49 L2018.36 2223.49 L2020.84 2223.61 L2023.19 2223.73 L2025.54 2223.86 L2028.02 2223.98 L2030.37 2223.98 L2032.84 2224.10 L2035.19 2224.23 L2037.67 2224.35 L2040.02 2224.35 L2042.37 2224.48 L2044.85 2224.60 L2047.20 2224.72 L2049.67 2224.85 L2052.02 2224.85 L2054.50 2224.97 L2056.85 2225.09 L2059.32 2225.22 L2061.68 2225.22 L2064.03 2225.34 L2066.50 2225.47 L2068.85 2225.47 L2071.33 2225.59 L2073.68 2225.71 L2076.15 2225.84 L2078.51 2225.84 L2080.98 2225.96 L2083.33 2226.08 L2085.68 2226.08 L2088.16 2226.21 L2090.51 2226.33 L2092.98 2226.46 L2095.34 2226.46 L2097.81 2226.58 L2100.16 2226.70 L2102.64 2226.70 L2104.99 2226.83 L2107.34 2226.95 L2109.81 2226.95 L2112.16 2227.07 L2114.64 2227.20 L2116.99 2227.20 L2119.47 2227.32 L2121.82 2227.45 L2124.17 2227.45 L2126.64 2227.57 L2128.99 2227.57 L2131.47 2227.69 L2133.82 2227.82 L2136.30 2227.82 L2138.65 2227.94 L2141.12 2228.06 L2143.47 2228.06 L2145.82 2228.19 L2148.30 2228.19 L2150.65 2228.31 L2153.13 2228.44 L2155.48 2228.44 L2157.95 2228.56 L2160.30 2228.68 L2162.78 2228.68 L2165.13 2228.81 L2167.48 2228.81 L2169.96 2228.93 L2172.31 2228.93 L2174.78 2229.05 L2177.13 2229.18 L2179.61 2229.18 L2181.96 2229.30 L2184.43 2229.30 L2186.79 2229.43 L2189.14 2229.43 L2191.61 2229.55 L2193.96 2229.67 L2196.44 2229.67 L2198.79 2229.80 L2201.26 2229.80 L2203.62 2229.92 L2206.09 2229.92 L2208.44 2230.04 L2210.79 2230.04 L2213.27 2230.17 L2215.62 2230.29 L2218.09 2230.29 L2220.45 2230.42 L2222.92 2230.42 L2225.27 2230.54 L2227.62 2230.54 L2230.10 2230.66 L2232.45 2230.66 L2234.93 2230.79 L2237.28 2230.79 L2239.75 2230.91 L2242.10 2230.91 L2244.58 2231.03 L2246.93 2231.03 L2249.28 2231.16 L2251.76 2231.16 L2254.11 2231.28 L2256.58 2231.28 L2258.93 2231.41 L2261.41 2231.41 L2263.76 2231.53 L2266.23 2231.53 L2268.59 2231.65 L2270.94 2231.65 L2273.41 2231.78 L2275.76 2231.78 L2278.24 2231.90 L2280.59 2231.90 L2283.06 2232.02 L2285.41 2232.02 L2287.89 2232.15 L2290.24 2232.15 L2292.59 2232.15 L2295.07 2232.27 L2297.42 2232.27 L2299.89 2232.40 L2302.24 2232.40 L2304.72 2232.52 L2307.07 2232.52 L2309.55 2232.64 L2311.90 2232.64 L2314.25 2232.77 L2316.72 2232.77 L2319.07 2232.77 L2321.55 2232.89 L2323.90 2232.89 L2326.38 2233.01 L2328.73 2233.01 L2331.08 2233.14 L2333.55 2233.14 L2335.91 2233.26 L2338.38 2233.26 L2340.73 2233.26 L2343.21 2233.39 L2345.56 2233.39 L2348.03 2233.51 L2350.38 2233.51 L2352.74 2233.63 L2355.21 2233.63 L2357.56 2233.63 L2360.04 2233.76 L2362.39 2233.76 L2364.86 2233.88 L2367.21 2233.88 L2369.69 2233.88 L2372.04 2234.00 L2374.39 2234.00 L2376.87 2234.13 L2379.22 2234.13 L2381.69 2234.13 L2384.04 2234.25 L2386.52 2234.25 L2388.87 2234.38 L2391.34 2234.38 L2393.70 2234.38 L2396.05 2234.50 L2398.52 2234.50 L2400.87 2234.62 L2403.35 2234.62 L2405.70 2234.62 L2408.18 2234.75 L2410.53 2234.75 L2412.88 2234.75 L2415.35 2234.87 L2417.70 2234.87 L2420.18 2234.99 L2422.53 2234.99 L2425.01 2234.99 L2427.36 2235.12 L2429.83 2235.12 L2432.18 2235.12 L2434.53 2235.24 L2437.01 2235.24 L2439.36 2235.37 L2441.84 2235.37 L2444.19 2235.37 L2446.66 2235.49 L2449.01 2235.49 L2451.49 2235.49 L2453.84 2235.61 L2456.19 2235.61 L2458.66 2235.61 L2461.02 2235.74 L2463.49 2235.74 L2465.84 2235.86 L2468.32 2235.86 L2470.67 2235.86 L2473.14 2235.98 L2475.49 2235.98 L2477.85 2235.98 L2480.32 2236.11 L2482.67 2236.11 L2485.15 2236.11 L2487.50 2236.23 L2489.97 2236.23 L2492.32 2236.23 L2494.80 2236.36 L2497.15 2236.36 L2499.50 2236.36 L2501.98 2236.48 L2504.33 2236.48 L2506.80 2236.48 L2509.16 2236.60 L2511.63 2236.60 L2513.98 2236.60 L2516.33 2236.73 L2518.81 2236.73 L2521.16 2236.73 L2523.63 2236.85 L2525.99 2236.85 L2528.46 2236.85 L2530.81 2236.85 L2533.29 2236.97 L2535.64 2236.97 L2537.99 2236.97 L2540.46 2237.10 L2542.82 2237.10 L2545.29 2237.10 L2547.64 2237.22 L2550.12 2237.22 L2552.47 2237.22 L2554.94 2237.35 L2557.29 2237.35 L2559.64 2237.35 L2562.12 2237.35 L2564.47 2237.47 L2566.95 2237.47 L2569.30 2237.47 L2571.77 2237.59 L2574.12 2237.59 L2576.60 2237.59 L2578.95 2237.72 L2581.30 2237.72 L2583.78 2237.72 L2586.13 2237.72 L2588.60 2237.84 L2590.95 2237.84 L2593.43 2237.84 L2595.78 2237.96 L2598.13 2237.96 L2600.61 2237.96 L2602.96 2237.96 L2605.43 2238.09 L2607.78 2238.09 L2610.26 2238.09 L2612.61 2238.21 L2615.09 2238.21 L2617.44 2238.21 L2619.79 2238.21 L2622.26 2238.34 L2624.61 2238.34 L2627.09 2238.34 L2629.44 2238.46 L2631.91 2238.46 L2634.27 2238.46 L2636.74 2238.46 L2639.09 2238.58 L2641.44 2238.58 L2643.92 2238.58 L2646.27 2238.58 L2648.74 2238.71 L2651.10 2238.71 L2653.57 2238.71 L2655.92 2238.83 L2658.40 2238.83 L2660.75 2238.83 L2663.10 2238.83 L2665.57 2238.95 L2667.93 2238.95 L2670.40 2238.95 L2672.75 2238.95 L2675.23 2239.08 L2677.58 2239.08 L2680.05 2239.08 L2682.41 2239.08 L2684.76 2239.20 L2687.23 2239.20 L2689.58 2239.20 L2692.06 2239.20 L2694.41 2239.33 L2696.88 2239.33 L2699.24 2239.33 L2701.59 2239.33 L2704.06 2239.45 L2706.41 2239.45 L2708.89 2239.45 L2711.24 2239.45 L2713.71 2239.57 L2716.07 2239.57 L2718.54 2239.57 L2720.89 2239.57 L2723.24 2239.70 L2725.72 2239.70 L2728.07 2239.70 L2730.54 2239.70 L2732.89 2239.82 L2735.37 2239.82 L2737.72 2239.82 L2740.20 2239.82 L2742.55 2239.94 L2744.90 2239.94 L2747.37 2239.94 L2749.72 2239.94 L2752.20 2240.07 L2754.55 2240.07 L2757.03 2240.07 L2759.38 2240.07 L2761.85 2240.07 L2764.20 2240.19 L2766.55 2240.19 L2769.03 2240.19 L2771.38 2240.19 L2773.86 2240.32 L2776.21 2240.32 L2778.68 2240.32 L2781.03 2240.32 L2783.39 2240.32 L2785.86 2240.44 L2788.21 2240.44 L2790.69 2240.44 L2793.04 2240.44 L2795.51 2240.56 L2797.86 2240.56 L2800.34 2240.56 L2802.69 2240.56 L2805.04 2240.56 L2807.52 2240.69 L2809.87 2240.69 L2812.34 2240.69 L2814.69 2240.69 L2817.17 2240.81 L2819.52 2240.81 L2821.99 2240.81 L2824.35 2240.81 L2826.70 2240.81 L2829.17 2240.94 L2831.52 2240.94 L2834.00 2240.94 L2836.35 2240.94 L2838.82 2241.06 L2841.18 2241.06 L2843.65 2241.06 L2846.00 2241.06 L2848.35 2241.06 L2850.83 2241.18 L2853.18 2241.18 L2855.66 2241.18 L2858.01 2241.18 L2860.48 2241.18 L2862.83 2241.31 L2865.31 2241.31 L2867.66 2241.31 L2870.01 2241.31 L2872.49 2241.31 L2874.84 2241.43 L2877.31 2241.43 L2879.66 2241.43 L2882.14 2241.43 L2884.49 2241.43 L2886.84 2241.55 L2889.32 2241.55 L2891.67 2241.55 L2894.14 2241.55 L2896.49 2241.55 L2898.97 2241.68 L2901.32 2241.68 L2903.79 2241.68 L2906.14 2241.68 L2908.50 2241.68 L2910.97 2241.80 L2913.32 2241.80 L2915.80 2241.80 L2918.15 2241.80 L2920.62 2241.80 L2922.97 2241.93 L2925.45 2241.93 L2927.80 2241.93 L2930.15 2241.93 L2932.63 2241.93 L2934.98 2241.93 L2937.45 2242.05 L2939.80 2242.05 L2942.28 2242.05 L2944.63 2242.05 L2947.11 2242.05 L2949.46 2242.17 L2951.81 2242.17 L2954.28 2242.17 L2956.64 2242.17 L2959.11 2242.17 L2961.46 2242.17 L2963.94 2242.30 L2966.29 2242.30 L2968.76 2242.30 L2971.11 2242.30 L2973.47 2242.30 L2975.94 2242.42 L2978.29 2242.42 L2980.77 2242.42 L2983.12 2242.42 L2985.59 2242.42 L2987.94 2242.42 L2990.30 2242.54 L2992.77 2242.54 L2995.12 2242.54 L2997.60 2242.54 L2999.95 2242.54 L3002.42 2242.67 L3004.77 2242.67 L3007.25 2242.67 L3009.60 2242.67 L3011.95 2242.67 L3014.43 2242.67 L3016.78 2242.79 L3019.25 2242.79 L3021.60 2242.79 L3024.08 2242.79 L3026.43 2242.79 L3028.91 2242.79 L3031.26 2242.92 L3033.61 2242.92 L3036.08 2242.92 L3038.43 2242.92 L3040.91 2242.92 L3043.26 2242.92 L3045.74 2243.04 L3048.09 2243.04 L3050.56 2243.04 L3052.91 2243.04 L3055.26 2243.04 L3057.74 2243.04 L3060.09 2243.16 L3062.57 2243.16 L3064.92 2243.16 L3067.39 2243.16 L3069.74 2243.16 L3072.09 2243.16 L3074.57 2243.29 L3076.92 2243.29 L3079.39 2243.29 L3081.75 2243.29 L3084.22 2243.29 L3086.57 2243.29 L3089.05 2243.41 L3091.40 2243.41 L3093.75 2243.41 L3096.22 2243.41 L3098.58 2243.41 L3101.05 2243.41 L3103.40 2243.41 L3105.88 2243.53 L3108.23 2243.53 L3110.70 2243.53 L3113.05 2243.53 L3115.41 2243.53 L3117.88 2243.53 L3120.23 2243.66 L3122.71 2243.66 L3125.06 2243.66 L3127.53 2243.66 L3129.89 2243.66 L3132.36 2243.66 L3134.71 2243.66 L3137.06 2243.78 L3139.54 2243.78 L3141.89 2243.78 L3144.36 2243.78 L3146.72 2243.78 L3149.19 2243.78 L3151.54 2243.91 L3154.02 2243.91 L3156.37 2243.91 L3158.72 2243.91 L3161.19 2243.91 L3163.55 2243.91 L3166.02 2243.91 L3168.37 2244.03 L3170.85 2244.03 L3173.20 2244.03 L3175.55 2244.03 L3178.02 2244.03 L3180.38 2244.03 L3182.85 2244.03 L3185.20 2244.15 L3187.68 2244.15 L3190.03 2244.15 L3192.50 2244.15 L3194.85 2244.15 L3197.20 2244.15 L3199.68 2244.15 L3202.03 2244.28 L3204.51 2244.28 L3206.86 2244.28 L3209.33 2244.28 L3211.68 2244.28 L3214.16 2244.28 L3216.51 2244.28" stroke-linejoin="round" style="fill:none;stroke:#FF4500;stroke-width:8.64"/>
	<circle cx="1342.32" cy="2085.38" r="26.35" style="fill:#1A476F"/>
	<circle cx="1342.32" cy="2085.38" r="22.03" style="fill:none;stroke:#1A476F;stroke-width:8.64"/>
	<text x="1413.35" y="2044.41" style="font-family:'Helvetica';font-size:79.94px;fill:#1A476f">E-value (CI): (2.09, 2.09)</text>
	<circle cx="1631.03" cy="1793.94" r="26.35" style="fill:#90353B"/>
	<circle cx="1631.03" cy="1793.94" r="22.03" style="fill:none;stroke:#90353B;stroke-width:8.64"/>
	<text x="1702.06" y="1752.97" style="font-family:'Helvetica';font-size:79.94px;fill:#90353b">E-value: (3.29, 3.29)</text>
	<line x1="1122.66" y1="2307.64" x2="1122.66" y2="100.86" style="stroke:#000000;stroke-width:5.76"/>
	<line x1="1122.66" y1="2107.16" x2="1082.69" y2="2107.16" style="stroke:#000000;stroke-width:5.76"/>
	<text x="1032.58" y="2107.16" style="font-family:'Helvetica';font-size:99.99px;fill:#000000" transform="rotate(-90 1032.58,2107.16)" text-anchor="middle">2</text>
	<line x1="1122.66" y1="1621.42" x2="1082.69" y2="1621.42" style="stroke:#000000;stroke-width:5.76"/>
	<text x="1032.58" y="1621.42" style="font-family:'Helvetica';font-size:99.99px;fill:#000000" transform="rotate(-90 1032.58,1621.42)" text-anchor="middle">4</text>
	<line x1="1122.66" y1="1135.69" x2="1082.69" y2="1135.69" style="stroke:#000000;stroke-width:5.76"/>
	<text x="1032.58" y="1135.69" style="font-family:'Helvetica';font-size:99.99px;fill:#000000" transform="rotate(-90 1032.58,1135.69)" text-anchor="middle">6</text>
	<line x1="1122.66" y1="649.96" x2="1082.69" y2="649.96" style="stroke:#000000;stroke-width:5.76"/>
	<text x="1032.58" y="649.96" style="font-family:'Helvetica';font-size:99.99px;fill:#000000" transform="rotate(-90 1032.58,649.96)" text-anchor="middle">8</text>
	<line x1="1122.66" y1="164.22" x2="1082.69" y2="164.22" style="stroke:#000000;stroke-width:5.76"/>
	<text x="1032.58" y="164.22" style="font-family:'Helvetica';font-size:99.99px;fill:#000000" transform="rotate(-90 1032.58,164.22)" text-anchor="middle">10</text>
	<text x="827.85" y="1204.25" style="font-family:'Helvetica';font-size:79.94px;fill:#000000" transform="rotate(-90 827.85,1204.25)" text-anchor="middle">Risk ratio for confounder-outcome relationship</text>
	<line x1="1122.66" y1="2307.64" x2="3308.83" y2="2307.64" style="stroke:#000000;stroke-width:5.76"/>
	<line x1="1320.78" y1="2307.64" x2="1320.78" y2="2347.61" style="stroke:#000000;stroke-width:5.76"/>
	<text x="1320.78" y="2437.59" style="font-family:'Helvetica';font-size:99.99px;fill:#000000" text-anchor="middle">2</text>
	<line x1="1801.92" y1="2307.64" x2="1801.92" y2="2347.61" style="stroke:#000000;stroke-width:5.76"/>
	<text x="1801.92" y="2437.59" style="font-family:'Helvetica';font-size:99.99px;fill:#000000" text-anchor="middle">4</text>
	<line x1="2283.06" y1="2307.64" x2="2283.06" y2="2347.61" style="stroke:#000000;stroke-width:5.76"/>
	<text x="2283.06" y="2437.59" style="font-family:'Helvetica';font-size:99.99px;fill:#000000" text-anchor="middle">6</text>
	<line x1="2764.20" y1="2307.64" x2="2764.20" y2="2347.61" style="stroke:#000000;stroke-width:5.76"/>
	<text x="2764.20" y="2437.59" style="font-family:'Helvetica';font-size:99.99px;fill:#000000" text-anchor="middle">8</text>
	<line x1="3245.47" y1="2307.64" x2="3245.47" y2="2347.61" style="stroke:#000000;stroke-width:5.76"/>
	<text x="3245.47" y="2437.59" style="font-family:'Helvetica';font-size:99.99px;fill:#000000" text-anchor="middle">10</text>
	<text x="2215.74" y="2634.31" style="font-family:'Helvetica';font-size:79.94px;fill:#000000" text-anchor="middle">Risk ratio for exposure-confounder relationship</text>
</svg>
