<?xml version="1.0" encoding="UTF-8" standalone="no"?>
<!-- This is a Stata 16.1 generated SVG file (http://www.stata.com) -->

<svg version="1.1" width="5.50in" height="4.00in" viewBox="0 0 3960 2880" xmlns="http://www.w3.org/2000/svg" xmlns:xlink="http://www.w3.org/1999/xlink">
	<desc>Stata Graph - Graph</desc>
	<rect x="0" y="0" width="3960" height="2880" style="fill:#FFFFFF;stroke:none"/>
	<rect x="0.00" y="0.00" width="3959.88" height="2880.00" style="fill:#FFFFFF"/>
	<rect x="2.88" y="2.88" width="3954.12" height="2874.24" style="fill:none;stroke:#FFFFFF;stroke-width:5.76"/>
	<rect x="1125.54" y="103.74" width="2180.41" height="2201.02" style="fill:none;stroke:#000000;stroke-width:5.76"/>
	<path d=" M1376.97 164.22 L1380.80 324.85 L1384.64 460.74 L1388.47 577.31 L1392.31 678.29 L1396.02 766.53 L1399.86 844.50 L1403.70 913.80 L1407.53 975.80 L1411.37 1031.61 L1415.20 1082.10 L1419.04 1128.02 L1422.88 1169.97 L1426.59 1208.33 L1430.43 1243.60 L1434.26 1276.27 L1438.10 1306.47 L1441.93 1334.56 L1445.77 1360.67 L1449.61 1385.05 L1453.44 1407.82 L1457.16 1429.23 L1460.99 1449.28 L1464.83 1468.22 L1468.66 1486.04 L1472.50 1502.87 L1476.34 1518.71 L1480.17 1533.81 L1484.01 1548.16 L1487.72 1561.65 L1491.56 1574.64 L1495.39 1586.90 L1499.23 1598.65 L1503.07 1609.91 L1506.90 1620.56 L1510.74 1630.83 L1514.58 1640.61 L1518.29 1650.01 L1522.13 1659.04 L1525.96 1667.71 L1529.80 1676.00 L1533.63 1684.04 L1537.47 1691.72 L1541.31 1699.14 L1545.14 1706.32 L1548.86 1713.12 L1552.69 1719.81 L1556.53 1726.24 L1560.36 1732.43 L1564.20 1738.37 L1568.04 1744.19 L1571.87 1749.76 L1575.71 1755.20 L1579.42 1760.52 L1583.26 1765.60 L1587.09 1770.55 L1590.93 1775.37 L1594.77 1779.95 L1598.60 1784.53 L1602.44 1788.86 L1606.28 1793.19 L1609.99 1797.28 L1613.82 1801.36 L1617.66 1805.20 L1621.50 1809.03 L1625.33 1812.75 L1629.17 1816.46 L1633.01 1819.92 L1636.84 1823.39 L1640.55 1826.73 L1644.39 1830.07 L1648.23 1833.17 L1652.06 1836.38 L1655.90 1839.35 L1659.73 1842.32 L1663.57 1845.29 L1667.41 1848.02 L1671.12 1850.86 L1674.96 1853.59 L1678.79 1856.18 L1682.63 1858.78 L1686.46 1861.26 L1690.30 1863.86 L1694.14 1866.21 L1697.97 1868.56 L1701.69 1870.91 L1705.52 1873.14 L1709.36 1875.49 L1713.19 1877.59 L1717.03 1879.70 L1720.87 1881.80 L1724.70 1883.91 L1728.54 1885.89 L1732.25 1887.87 L1736.09 1889.85 L1739.92 1891.70 L1743.76 1893.68 L1747.60 1895.41 L1751.43 1897.27 L1755.27 1899.00 L1759.11 1900.74 L1762.94 1902.47 L1766.65 1904.20 L1770.49 1905.81 L1774.33 1907.42 L1778.16 1909.03 L1782.00 1910.51 L1785.84 1912.12 L1789.67 1913.61 L1793.51 1915.09 L1797.22 1916.58 L1801.06 1917.94 L1804.89 1919.42 L1808.73 1920.78 L1812.57 1922.15 L1816.40 1923.51 L1820.24 1924.87 L1824.08 1926.11 L1827.79 1927.47 L1831.62 1928.70 L1835.46 1929.94 L1839.30 1931.18 L1843.13 1932.42 L1846.97 1933.53 L1850.81 1934.77 L1854.64 1935.88 L1858.35 1937.00 L1862.19 1938.11 L1866.03 1939.22 L1869.86 1940.34 L1873.70 1941.45 L1877.54 1942.44 L1881.37 1943.55 L1885.21 1944.54 L1888.92 1945.53 L1892.76 1946.52 L1896.59 1947.51 L1900.43 1948.50 L1904.27 1949.49 L1908.10 1950.48 L1911.94 1951.35 L1915.77 1952.34 L1919.49 1953.21 L1923.32 1954.07 L1927.16 1954.94 L1930.99 1955.93 L1934.83 1956.80 L1938.67 1957.54 L1942.50 1958.40 L1946.34 1959.27 L1950.05 1960.14 L1953.89 1960.88 L1957.72 1961.75 L1961.56 1962.49 L1965.40 1963.23 L1969.23 1964.10 L1973.07 1964.84 L1976.91 1965.58 L1980.62 1966.33 L1984.45 1967.07 L1988.29 1967.81 L1992.13 1968.55 L1995.96 1969.17 L1999.80 1969.91 L2003.64 1970.66 L2007.47 1971.28 L2011.18 1972.02 L2015.02 1972.64 L2018.86 1973.38 L2022.69 1974.00 L2026.53 1974.62 L2030.37 1975.24 L2034.20 1975.98 L2038.04 1976.60 L2041.75 1977.22 L2045.59 1977.83 L2049.42 1978.45 L2053.26 1978.95 L2057.10 1979.57 L2060.93 1980.19 L2064.77 1980.80 L2068.61 1981.30 L2072.32 1981.92 L2076.15 1982.54 L2079.99 1983.03 L2083.83 1983.65 L2087.66 1984.15 L2091.50 1984.64 L2095.34 1985.26 L2099.17 1985.75 L2102.88 1986.25 L2106.72 1986.87 L2110.56 1987.36 L2114.39 1987.86 L2118.23 1988.35 L2122.07 1988.85 L2125.90 1989.34 L2129.74 1989.84 L2133.45 1990.33 L2137.29 1990.83 L2141.12 1991.32 L2144.96 1991.82 L2148.80 1992.19 L2152.63 1992.68 L2156.47 1993.18 L2160.30 1993.67 L2164.02 1994.05 L2167.85 1994.54 L2171.69 1994.91 L2175.53 1995.41 L2179.36 1995.90 L2183.20 1996.27 L2187.03 1996.77 L2190.87 1997.14 L2194.58 1997.51 L2198.42 1998.01 L2202.26 1998.38 L2206.09 1998.75 L2209.93 1999.24 L2213.76 1999.61 L2217.60 1999.99 L2221.44 2000.36 L2225.15 2000.73 L2228.99 2001.22 L2232.82 2001.60 L2236.66 2001.97 L2240.49 2002.34 L2244.33 2002.71 L2248.17 2003.08 L2252.00 2003.45 L2255.72 2003.82 L2259.55 2004.19 L2263.39 2004.57 L2267.22 2004.94 L2271.06 2005.18 L2274.90 2005.56 L2278.73 2005.93 L2282.57 2006.30 L2286.28 2006.67 L2290.12 2006.92 L2293.95 2007.29 L2297.79 2007.66 L2301.63 2008.03 L2305.46 2008.28 L2309.30 2008.65 L2313.14 2009.02 L2316.85 2009.27 L2320.68 2009.64 L2324.52 2009.89 L2328.36 2010.26 L2332.19 2010.51 L2336.03 2010.88 L2339.86 2011.12 L2343.70 2011.50 L2347.41 2011.74 L2351.25 2012.11 L2355.09 2012.36 L2358.92 2012.73 L2362.76 2012.98 L2366.59 2013.23 L2370.43 2013.60 L2374.27 2013.85 L2377.98 2014.09 L2381.82 2014.47 L2385.65 2014.71 L2389.49 2014.96 L2393.32 2015.21 L2397.16 2015.58 L2401.00 2015.83 L2404.83 2016.07 L2408.67 2016.32 L2412.38 2016.57 L2416.22 2016.82 L2420.05 2017.19 L2423.89 2017.44 L2427.73 2017.68 L2431.56 2017.93 L2435.40 2018.18 L2439.24 2018.43 L2442.95 2018.67 L2446.78 2018.92 L2450.62 2019.17 L2454.46 2019.42 L2458.29 2019.66 L2462.13 2019.91 L2465.97 2020.16 L2469.80 2020.41 L2473.51 2020.65 L2477.35 2020.90 L2481.19 2021.15 L2485.02 2021.40 L2488.86 2021.52 L2492.70 2021.77 L2496.53 2022.01 L2500.37 2022.26 L2504.08 2022.51 L2507.92 2022.76 L2511.75 2023.00 L2515.59 2023.13 L2519.43 2023.38 L2523.26 2023.62 L2527.10 2023.87 L2530.93 2023.99 L2534.65 2024.24 L2538.48 2024.49 L2542.32 2024.74 L2546.16 2024.86 L2549.99 2025.11 L2553.83 2025.36 L2557.66 2025.48 L2561.50 2025.73 L2565.21 2025.97 L2569.05 2026.10 L2572.89 2026.35 L2576.72 2026.59 L2580.56 2026.72 L2584.39 2026.96 L2588.23 2027.09 L2592.07 2027.34 L2595.78 2027.58 L2599.62 2027.71 L2603.45 2027.95 L2607.29 2028.08 L2611.13 2028.33 L2614.96 2028.45 L2618.80 2028.70 L2622.63 2028.82 L2626.35 2029.07 L2630.18 2029.19 L2634.02 2029.44 L2637.86 2029.56 L2641.69 2029.81 L2645.53 2029.93 L2649.36 2030.18 L2653.20 2030.31 L2656.91 2030.55 L2660.75 2030.68 L2664.59 2030.80 L2668.42 2031.05 L2672.26 2031.17 L2676.09 2031.42 L2679.93 2031.54 L2683.77 2031.67 L2687.48 2031.91 L2691.32 2032.04 L2695.15 2032.29 L2698.99 2032.41 L2702.82 2032.53 L2706.66 2032.78 L2710.50 2032.90 L2714.33 2033.03 L2718.05 2033.28 L2721.88 2033.40 L2725.72 2033.52 L2729.55 2033.65 L2733.39 2033.89 L2737.23 2034.02 L2741.06 2034.14 L2744.90 2034.39 L2748.61 2034.51 L2752.45 2034.64 L2756.28 2034.76 L2760.12 2034.88 L2763.96 2035.13 L2767.79 2035.26 L2771.63 2035.38 L2775.47 2035.50 L2779.18 2035.75 L2783.01 2035.87 L2786.85 2036.00 L2790.69 2036.12 L2794.52 2036.25 L2798.36 2036.37 L2802.20 2036.62 L2806.03 2036.74 L2809.74 2036.86 L2813.58 2036.99 L2817.42 2037.11 L2821.25 2037.24 L2825.09 2037.48 L2828.93 2037.61 L2832.76 2037.73 L2836.60 2037.85 L2840.31 2037.98 L2844.15 2038.10 L2847.98 2038.23 L2851.82 2038.35 L2855.66 2038.47 L2859.49 2038.60 L2863.33 2038.72 L2867.16 2038.97 L2870.88 2039.09 L2874.71 2039.22 L2878.55 2039.34 L2882.39 2039.46 L2886.22 2039.59 L2890.06 2039.71 L2893.89 2039.83 L2897.73 2039.96 L2901.44 2040.08 L2905.28 2040.21 L2909.11 2040.33 L2912.95 2040.45 L2916.79 2040.58 L2920.62 2040.70 L2924.46 2040.83 L2928.30 2040.95 L2932.01 2041.07 L2935.84 2041.20 L2939.68 2041.32 L2943.52 2041.44 L2947.35 2041.57 L2951.19 2041.69 L2955.03 2041.82 L2958.86 2041.94 L2962.57 2042.06 L2966.41 2042.19 L2970.25 2042.31 L2974.08 2042.31 L2977.92 2042.43 L2981.76 2042.56 L2985.59 2042.68 L2989.43 2042.81 L2993.14 2042.93 L2996.98 2043.05 L3000.81 2043.18 L3004.65 2043.30 L3008.49 2043.42 L3012.32 2043.55 L3016.16 2043.55 L3019.99 2043.67 L3023.71 2043.80 L3027.54 2043.92 L3031.38 2044.04 L3035.22 2044.17 L3039.05 2044.29 L3042.89 2044.41 L3046.72 2044.41 L3050.56 2044.54 L3054.27 2044.66 L3058.11 2044.79 L3061.95 2044.91 L3065.78 2045.03 L3069.62 2045.03 L3073.45 2045.16 L3077.29 2045.28 L3081.13 2045.40 L3084.96 2045.53 L3088.68 2045.65 L3092.51 2045.65 L3096.35 2045.78 L3100.18 2045.90 L3104.02 2046.02 L3107.86 2046.15 L3111.69 2046.15 L3115.53 2046.27 L3119.24 2046.39 L3123.08 2046.52 L3126.91 2046.64 L3130.75 2046.64 L3134.59 2046.77 L3138.42 2046.89 L3142.26 2047.01 L3146.10 2047.01 L3149.81 2047.14 L3153.64 2047.26 L3157.48 2047.38 L3161.32 2047.38 L3165.15 2047.51 L3168.99 2047.63 L3172.83 2047.76 L3176.66 2047.76 L3180.38 2047.88 L3184.21 2048.00 L3188.05 2048.13 L3191.88 2048.13 L3195.72 2048.25 L3199.56 2048.37 L3203.39 2048.37 L3207.23 2048.50 L3210.94 2048.62 L3214.78 2048.75 L3218.61 2048.75 L3222.45 2048.87 L3226.29 2048.99 L3230.12 2048.99 L3233.96 2049.12 L3237.80 2049.24 L3241.51 2049.24 L3245.34 2049.36" stroke-linejoin="round" style="fill:none;stroke:#006000;stroke-width:8.64"/>
	<path d=" M1235.64 771.11 L1239.48 1129.63 L1243.19 1344.71 L1247.03 1488.14 L1250.87 1590.61 L1254.70 1667.46 L1258.54 1727.11 L1262.37 1775.00 L1266.21 1814.11 L1270.05 1846.66 L1273.76 1874.25 L1277.60 1897.89 L1281.43 1918.43 L1285.27 1936.25 L1289.10 1952.09 L1292.94 1966.20 L1296.78 1978.82 L1300.61 1990.09 L1304.33 2000.36 L1308.16 2009.64 L1312.00 2018.18 L1315.83 2025.97 L1319.67 2033.15 L1323.51 2039.71 L1327.34 2045.90 L1331.18 2051.59 L1334.89 2056.91 L1338.73 2061.86 L1342.56 2066.44 L1346.40 2070.77 L1350.24 2074.86 L1354.07 2078.69 L1357.91 2082.28 L1361.74 2085.75 L1365.46 2088.97 L1369.29 2091.94 L1373.13 2094.91 L1376.97 2097.63 L1380.80 2100.23 L1384.64 2102.83 L1388.47 2105.18 L1392.31 2107.40 L1396.02 2109.63 L1399.86 2111.74 L1403.70 2113.72 L1407.53 2115.57 L1411.37 2117.43 L1415.20 2119.16 L1419.04 2120.89 L1422.88 2122.50 L1426.59 2123.99 L1430.43 2125.60 L1434.26 2126.96 L1438.10 2128.44 L1441.93 2129.68 L1445.77 2131.04 L1449.61 2132.28 L1453.44 2133.52 L1457.16 2134.63 L1460.99 2135.87 L1464.83 2136.98 L1468.66 2137.97 L1472.50 2139.09 L1476.34 2140.08 L1480.17 2140.94 L1484.01 2141.93 L1487.72 2142.92 L1491.56 2143.79 L1495.39 2144.65 L1499.23 2145.52 L1503.07 2146.26 L1506.90 2147.13 L1510.74 2147.87 L1514.58 2148.61 L1518.29 2149.36 L1522.13 2150.10 L1525.96 2150.72 L1529.80 2151.46 L1533.63 2152.08 L1537.47 2152.70 L1541.31 2153.44 L1545.14 2153.94 L1548.86 2154.55 L1552.69 2155.17 L1556.53 2155.79 L1560.36 2156.29 L1564.20 2156.91 L1568.04 2157.40 L1571.87 2157.90 L1575.71 2158.39 L1579.42 2159.01 L1583.26 2159.50 L1587.09 2159.88 L1590.93 2160.37 L1594.77 2160.87 L1598.60 2161.36 L1602.44 2161.73 L1606.28 2162.23 L1609.99 2162.60 L1613.82 2163.09 L1617.66 2163.47 L1621.50 2163.84 L1625.33 2164.21 L1629.17 2164.58 L1633.01 2164.95 L1636.84 2165.32 L1640.55 2165.69 L1644.39 2166.06 L1648.23 2166.44 L1652.06 2166.81 L1655.90 2167.18 L1659.73 2167.43 L1663.57 2167.80 L1667.41 2168.17 L1671.12 2168.42 L1674.96 2168.79 L1678.79 2169.03 L1682.63 2169.41 L1686.46 2169.65 L1690.30 2169.90 L1694.14 2170.27 L1697.97 2170.52 L1701.69 2170.77 L1705.52 2171.01 L1709.36 2171.39 L1713.19 2171.63 L1717.03 2171.88 L1720.87 2172.13 L1724.70 2172.38 L1728.54 2172.62 L1732.25 2172.87 L1736.09 2173.12 L1739.92 2173.37 L1743.76 2173.61 L1747.60 2173.86 L1751.43 2173.98 L1755.27 2174.23 L1759.11 2174.48 L1762.94 2174.73 L1766.65 2174.97 L1770.49 2175.10 L1774.33 2175.35 L1778.16 2175.59 L1782.00 2175.72 L1785.84 2175.96 L1789.67 2176.09 L1793.51 2176.34 L1797.22 2176.58 L1801.06 2176.71 L1804.89 2176.95 L1808.73 2177.08 L1812.57 2177.33 L1816.40 2177.45 L1820.24 2177.70 L1824.08 2177.82 L1827.79 2177.94 L1831.62 2178.19 L1835.46 2178.32 L1839.30 2178.44 L1843.13 2178.69 L1846.97 2178.81 L1850.81 2178.93 L1854.64 2179.18 L1858.35 2179.31 L1862.19 2179.43 L1866.03 2179.55 L1869.86 2179.80 L1873.70 2179.92 L1877.54 2180.05 L1881.37 2180.17 L1885.21 2180.30 L1888.92 2180.54 L1892.76 2180.67 L1896.59 2180.79 L1900.43 2180.91 L1904.27 2181.04 L1908.10 2181.16 L1911.94 2181.29 L1915.77 2181.41 L1919.49 2181.53 L1923.32 2181.66 L1927.16 2181.78 L1930.99 2181.90 L1934.83 2182.03 L1938.67 2182.15 L1942.50 2182.28 L1946.34 2182.40 L1950.05 2182.52 L1953.89 2182.65 L1957.72 2182.77 L1961.56 2182.89 L1965.40 2183.02 L1969.23 2183.14 L1973.07 2183.27 L1976.91 2183.39 L1980.62 2183.51 L1984.45 2183.64 L1988.29 2183.76 L1992.13 2183.76 L1995.96 2183.88 L1999.80 2184.01 L2003.64 2184.13 L2007.47 2184.26 L2011.18 2184.38 L2015.02 2184.38 L2018.86 2184.50 L2022.69 2184.63 L2026.53 2184.75 L2030.37 2184.87 L2034.20 2184.87 L2038.04 2185.00 L2041.75 2185.12 L2045.59 2185.25 L2049.42 2185.25 L2053.26 2185.37 L2057.10 2185.49 L2060.93 2185.62 L2064.77 2185.62 L2068.61 2185.74 L2072.32 2185.86 L2076.15 2185.86 L2079.99 2185.99 L2083.83 2186.11 L2087.66 2186.24 L2091.50 2186.24 L2095.34 2186.36 L2099.17 2186.48 L2102.88 2186.48 L2106.72 2186.61 L2110.56 2186.73 L2114.39 2186.73 L2118.23 2186.85 L2122.07 2186.85 L2125.90 2186.98 L2129.74 2187.10 L2133.45 2187.10 L2137.29 2187.23 L2141.12 2187.35 L2144.96 2187.35 L2148.80 2187.47 L2152.63 2187.47 L2156.47 2187.60 L2160.30 2187.60 L2164.02 2187.72 L2167.85 2187.84 L2171.69 2187.84 L2175.53 2187.97 L2179.36 2187.97 L2183.20 2188.09 L2187.03 2188.09 L2190.87 2188.22 L2194.58 2188.34 L2198.42 2188.34 L2202.26 2188.46 L2206.09 2188.46 L2209.93 2188.59 L2213.76 2188.59 L2217.60 2188.71 L2221.44 2188.71 L2225.15 2188.83 L2228.99 2188.83 L2232.82 2188.96 L2236.66 2188.96 L2240.49 2189.08 L2244.33 2189.08 L2248.17 2189.21 L2252.00 2189.21 L2255.72 2189.33 L2259.55 2189.33 L2263.39 2189.45 L2267.22 2189.45 L2271.06 2189.45 L2274.90 2189.58 L2278.73 2189.58 L2282.57 2189.70 L2286.28 2189.70 L2290.12 2189.82 L2293.95 2189.82 L2297.79 2189.95 L2301.63 2189.95 L2305.46 2190.07 L2309.30 2190.07 L2313.14 2190.07 L2316.85 2190.20 L2320.68 2190.20 L2324.52 2190.32 L2328.36 2190.32 L2332.19 2190.32 L2336.03 2190.44 L2339.86 2190.44 L2343.70 2190.57 L2347.41 2190.57 L2351.25 2190.69 L2355.09 2190.69 L2358.92 2190.69 L2362.76 2190.81 L2366.59 2190.81 L2370.43 2190.81 L2374.27 2190.94 L2377.98 2190.94 L2381.82 2191.06 L2385.65 2191.06 L2389.49 2191.06 L2393.32 2191.19 L2397.16 2191.19 L2401.00 2191.31 L2404.83 2191.31 L2408.67 2191.31 L2412.38 2191.43 L2416.22 2191.43 L2420.05 2191.43 L2423.89 2191.56 L2427.73 2191.56 L2431.56 2191.56 L2435.40 2191.68 L2439.24 2191.68 L2442.95 2191.68 L2446.78 2191.80 L2450.62 2191.80 L2454.46 2191.80 L2458.29 2191.93 L2462.13 2191.93 L2465.97 2191.93 L2469.80 2192.05 L2473.51 2192.05 L2477.35 2192.05 L2481.19 2192.18 L2485.02 2192.18 L2488.86 2192.18 L2492.70 2192.30 L2496.53 2192.30 L2500.37 2192.30 L2504.08 2192.42 L2507.92 2192.42 L2511.75 2192.42 L2515.59 2192.55 L2519.43 2192.55 L2523.26 2192.55 L2527.10 2192.55 L2530.93 2192.67 L2534.65 2192.67 L2538.48 2192.67 L2542.32 2192.79 L2546.16 2192.79 L2549.99 2192.79 L2553.83 2192.79 L2557.66 2192.92 L2561.50 2192.92 L2565.21 2192.92 L2569.05 2193.04 L2572.89 2193.04 L2576.72 2193.04 L2580.56 2193.04 L2584.39 2193.17 L2588.23 2193.17 L2592.07 2193.17 L2595.78 2193.29 L2599.62 2193.29 L2603.45 2193.29 L2607.29 2193.29 L2611.13 2193.41 L2614.96 2193.41 L2618.80 2193.41 L2622.63 2193.41 L2626.35 2193.54 L2630.18 2193.54 L2634.02 2193.54 L2637.86 2193.54 L2641.69 2193.66 L2645.53 2193.66 L2649.36 2193.66 L2653.20 2193.66 L2656.91 2193.78 L2660.75 2193.78 L2664.59 2193.78 L2668.42 2193.78 L2672.26 2193.91 L2676.09 2193.91 L2679.93 2193.91 L2683.77 2193.91 L2687.48 2194.03 L2691.32 2194.03 L2695.15 2194.03 L2698.99 2194.03 L2702.82 2194.16 L2706.66 2194.16 L2710.50 2194.16 L2714.33 2194.16 L2718.05 2194.16 L2721.88 2194.28 L2725.72 2194.28 L2729.55 2194.28 L2733.39 2194.28 L2737.23 2194.40 L2741.06 2194.40 L2744.90 2194.40 L2748.61 2194.40 L2752.45 2194.40 L2756.28 2194.53 L2760.12 2194.53 L2763.96 2194.53 L2767.79 2194.53 L2771.63 2194.65 L2775.47 2194.65 L2779.18 2194.65 L2783.01 2194.65 L2786.85 2194.65 L2790.69 2194.77 L2794.52 2194.77 L2798.36 2194.77 L2802.20 2194.77 L2806.03 2194.77 L2809.74 2194.90 L2813.58 2194.90 L2817.42 2194.90 L2821.25 2194.90 L2825.09 2194.90 L2828.93 2195.02 L2832.76 2195.02 L2836.60 2195.02 L2840.31 2195.02 L2844.15 2195.02 L2847.98 2195.15 L2851.82 2195.15 L2855.66 2195.15 L2859.49 2195.15 L2863.33 2195.15 L2867.16 2195.27 L2870.88 2195.27 L2874.71 2195.27 L2878.55 2195.27 L2882.39 2195.27 L2886.22 2195.27 L2890.06 2195.39 L2893.89 2195.39 L2897.73 2195.39 L2901.44 2195.39 L2905.28 2195.39 L2909.11 2195.52 L2912.95 2195.52 L2916.79 2195.52 L2920.62 2195.52 L2924.46 2195.52 L2928.30 2195.52 L2932.01 2195.64 L2935.84 2195.64 L2939.68 2195.64 L2943.52 2195.64 L2947.35 2195.64 L2951.19 2195.64 L2955.03 2195.76 L2958.86 2195.76 L2962.57 2195.76 L2966.41 2195.76 L2970.25 2195.76 L2974.08 2195.76 L2977.92 2195.89 L2981.76 2195.89 L2985.59 2195.89 L2989.43 2195.89 L2993.14 2195.89 L2996.98 2195.89 L3000.81 2196.01 L3004.65 2196.01 L3008.49 2196.01 L3012.32 2196.01 L3016.16 2196.01 L3019.99 2196.01 L3023.71 2196.14 L3027.54 2196.14 L3031.38 2196.14 L3035.22 2196.14 L3039.05 2196.14 L3042.89 2196.14 L3046.72 2196.14 L3050.56 2196.26 L3054.27 2196.26 L3058.11 2196.26 L3061.95 2196.26 L3065.78 2196.26 L3069.62 2196.26 L3073.45 2196.38 L3077.29 2196.38 L3081.13 2196.38 L3084.96 2196.38 L3088.68 2196.38 L3092.51 2196.38 L3096.35 2196.38 L3100.18 2196.51 L3104.02 2196.51 L3107.86 2196.51 L3111.69 2196.51 L3115.53 2196.51 L3119.24 2196.51 L3123.08 2196.51 L3126.91 2196.63 L3130.75 2196.63 L3134.59 2196.63 L3138.42 2196.63 L3142.26 2196.63 L3146.10 2196.63 L3149.81 2196.63 L3153.64 2196.75 L3157.48 2196.75 L3161.32 2196.75 L3165.15 2196.75 L3168.99 2196.75 L3172.83 2196.75 L3176.66 2196.75 L3180.38 2196.75 L3184.21 2196.88 L3188.05 2196.88 L3191.88 2196.88 L3195.72 2196.88 L3199.56 2196.88 L3203.39 2196.88 L3207.23 2196.88 L3210.94 2197.00 L3214.78 2197.00 L3218.61 2197.00 L3222.45 2197.00 L3226.29 2197.00 L3230.12 2197.00 L3233.96 2197.00 L3237.80 2197.00 L3241.51 2197.13 L3245.34 2197.13" stroke-linejoin="round" style="fill:none;stroke:#FF4500;stroke-width:8.64"/>
	<circle cx="1350.24" cy="2076.09" r="26.35" style="fill:#1A476F"/>
	<circle cx="1350.24" cy="2076.09" r="22.03" style="fill:none;stroke:#1A476F;stroke-width:8.64"/>
	<text x="1421.27" y="2035.13" style="font-family:'Helvetica';font-size:79.94px;fill:#1A476f">E-value (CI): (1.43, 1.43)</text>
	<circle cx="1617.78" cy="1802.35" r="26.35" style="fill:#90353B"/>
	<circle cx="1617.78" cy="1802.35" r="22.03" style="fill:none;stroke:#90353B;stroke-width:8.64"/>
	<text x="1688.82" y="1761.39" style="font-family:'Helvetica';font-size:79.94px;fill:#90353b">E-value: (2.13, 2.13)</text>
	<line x1="1122.66" y1="2307.64" x2="1122.66" y2="100.86" style="stroke:#000000;stroke-width:5.76"/>
	<line x1="1122.66" y1="2244.28" x2="1082.69" y2="2244.28" style="stroke:#000000;stroke-width:5.76"/>
	<text x="1032.58" y="2244.28" style="font-family:'Helvetica';font-size:99.99px;fill:#000000" transform="rotate(-90 1032.58,2244.28)" text-anchor="middle">1</text>
	<line x1="1122.66" y1="1853.09" x2="1082.69" y2="1853.09" style="stroke:#000000;stroke-width:5.76"/>
	<text x="1032.58" y="1853.09" style="font-family:'Helvetica';font-size:99.99px;fill:#000000" transform="rotate(-90 1032.58,1853.09)" text-anchor="middle">2</text>
	<line x1="1122.66" y1="1462.03" x2="1082.69" y2="1462.03" style="stroke:#000000;stroke-width:5.76"/>
	<text x="1032.58" y="1462.03" style="font-family:'Helvetica';font-size:99.99px;fill:#000000" transform="rotate(-90 1032.58,1462.03)" text-anchor="middle">3</text>
	<line x1="1122.66" y1="1070.84" x2="1082.69" y2="1070.84" style="stroke:#000000;stroke-width:5.76"/>
	<text x="1032.58" y="1070.84" style="font-family:'Helvetica';font-size:99.99px;fill:#000000" transform="rotate(-90 1032.58,1070.84)" text-anchor="middle">4</text>
	<line x1="1122.66" y1="679.78" x2="1082.69" y2="679.78" style="stroke:#000000;stroke-width:5.76"/>
	<text x="1032.58" y="679.78" style="font-family:'Helvetica';font-size:99.99px;fill:#000000" transform="rotate(-90 1032.58,679.78)" text-anchor="middle">5</text>
	<line x1="1122.66" y1="288.59" x2="1082.69" y2="288.59" style="stroke:#000000;stroke-width:5.76"/>
	<text x="1032.58" y="288.59" style="font-family:'Helvetica';font-size:99.99px;fill:#000000" transform="rotate(-90 1032.58,288.59)" text-anchor="middle">6</text>
	<text x="827.85" y="1204.25" style="font-family:'Helvetica';font-size:79.94px;fill:#000000" transform="rotate(-90 827.85,1204.25)" text-anchor="middle">Risk ratio for confounder-outcome relationship</text>
	<line x1="1122.66" y1="2307.64" x2="3308.83" y2="2307.64" style="stroke:#000000;stroke-width:5.76"/>
	<line x1="1186.02" y1="2307.64" x2="1186.02" y2="2347.61" style="stroke:#000000;stroke-width:5.76"/>
	<text x="1186.02" y="2437.59" style="font-family:'Helvetica';font-size:99.99px;fill:#000000" text-anchor="middle">1</text>
	<line x1="1568.04" y1="2307.64" x2="1568.04" y2="2347.61" style="stroke:#000000;stroke-width:5.76"/>
	<text x="1568.04" y="2437.59" style="font-family:'Helvetica';font-size:99.99px;fill:#000000" text-anchor="middle">2</text>
	<line x1="1950.18" y1="2307.64" x2="1950.18" y2="2347.61" style="stroke:#000000;stroke-width:5.76"/>
	<text x="1950.18" y="2437.59" style="font-family:'Helvetica';font-size:99.99px;fill:#000000" text-anchor="middle">3</text>
	<line x1="2332.19" y1="2307.64" x2="2332.19" y2="2347.61" style="stroke:#000000;stroke-width:5.76"/>
	<text x="2332.19" y="2437.59" style="font-family:'Helvetica';font-size:99.99px;fill:#000000" text-anchor="middle">4</text>
	<line x1="2714.33" y1="2307.64" x2="2714.33" y2="2347.61" style="stroke:#000000;stroke-width:5.76"/>
	<text x="2714.33" y="2437.59" style="font-family:'Helvetica';font-size:99.99px;fill:#000000" text-anchor="middle">5</text>
	<line x1="3096.47" y1="2307.64" x2="3096.47" y2="2347.61" style="stroke:#000000;stroke-width:5.76"/>
	<text x="3096.47" y="2437.59" style="font-family:'Helvetica';font-size:99.99px;fill:#000000" text-anchor="middle">6</text>
	<text x="2215.74" y="2634.31" style="font-family:'Helvetica';font-size:79.94px;fill:#000000" text-anchor="middle">Risk ratio for exposure-confounder relationship</text>
</svg>
