<?xml version="1.0" encoding="UTF-8" standalone="no"?>
<!-- This is a Stata 16.1 generated SVG file (http://www.stata.com) -->

<svg version="1.1" width="5.50in" height="4.00in" viewBox="0 0 3960 2880" xmlns="http://www.w3.org/2000/svg" xmlns:xlink="http://www.w3.org/1999/xlink">
	<desc>Stata Graph - Graph</desc>
	<rect x="0" y="0" width="3960" height="2880" style="fill:#FFFFFF;stroke:none"/>
	<rect x="0.00" y="0.00" width="3959.88" height="2880.00" style="fill:#FFFFFF"/>
	<rect x="2.88" y="2.88" width="3954.12" height="2874.24" style="fill:none;stroke:#FFFFFF;stroke-width:5.76"/>
	<rect x="1125.54" y="103.74" width="2180.41" height="2201.02" style="fill:none;stroke:#000000;stroke-width:5.76"/>
	<path d=" M1623.60 363.59 L1626.20 455.91 L1628.67 537.46 L1631.27 609.86 L1633.87 674.71 L1636.47 732.99 L1639.07 785.84 L1641.54 833.73 L1644.14 877.54 L1646.74 917.76 L1649.34 954.64 L1651.94 988.79 L1654.41 1020.35 L1657.01 1049.68 L1659.61 1076.91 L1662.21 1102.40 L1664.81 1126.28 L1667.28 1148.56 L1669.88 1169.60 L1672.48 1189.40 L1675.08 1207.96 L1677.68 1225.53 L1680.15 1242.24 L1682.75 1257.96 L1685.35 1272.93 L1687.95 1287.16 L1690.55 1300.65 L1693.02 1313.52 L1695.62 1325.78 L1698.22 1337.53 L1700.82 1348.67 L1703.42 1359.44 L1705.89 1369.71 L1708.49 1379.48 L1711.09 1388.89 L1713.69 1398.05 L1716.29 1406.71 L1718.76 1415.00 L1721.36 1423.05 L1723.96 1430.84 L1726.56 1438.27 L1729.16 1445.45 L1731.63 1452.38 L1734.23 1459.18 L1736.83 1465.62 L1739.43 1471.93 L1742.03 1477.87 L1744.50 1483.81 L1747.10 1489.50 L1749.70 1494.95 L1752.30 1500.27 L1754.90 1505.47 L1757.37 1510.42 L1759.97 1515.37 L1762.57 1520.07 L1765.17 1524.65 L1767.77 1529.10 L1770.24 1533.43 L1772.84 1537.64 L1775.44 1541.73 L1778.04 1545.81 L1780.64 1549.65 L1783.11 1553.48 L1785.71 1557.07 L1788.31 1560.78 L1790.91 1564.25 L1793.51 1567.71 L1795.98 1570.93 L1798.58 1574.27 L1801.18 1577.37 L1803.78 1580.58 L1806.38 1583.55 L1808.85 1586.52 L1811.45 1589.37 L1814.05 1592.22 L1816.65 1595.06 L1819.25 1597.79 L1821.72 1600.39 L1824.32 1602.98 L1826.92 1605.46 L1829.52 1607.93 L1832.12 1610.41 L1834.72 1612.76 L1837.19 1615.11 L1839.79 1617.46 L1842.39 1619.69 L1844.99 1621.79 L1847.59 1624.02 L1850.06 1626.13 L1852.66 1628.23 L1855.26 1630.21 L1857.86 1632.19 L1860.46 1634.17 L1862.93 1636.03 L1865.53 1638.01 L1868.13 1639.74 L1870.73 1641.60 L1873.33 1643.45 L1875.80 1645.18 L1878.40 1646.92 L1881.00 1648.53 L1883.60 1650.26 L1886.20 1651.87 L1888.67 1653.48 L1891.27 1655.08 L1893.87 1656.57 L1896.47 1658.18 L1899.07 1659.66 L1901.54 1661.15 L1904.14 1662.51 L1906.74 1663.99 L1909.34 1665.36 L1911.94 1666.72 L1914.41 1668.08 L1917.01 1669.44 L1919.61 1670.80 L1922.21 1672.16 L1924.81 1673.40 L1927.28 1674.64 L1929.88 1675.87 L1932.48 1677.11 L1935.08 1678.35 L1937.68 1679.46 L1940.15 1680.70 L1942.75 1681.82 L1945.35 1682.93 L1947.95 1684.04 L1950.55 1685.16 L1953.02 1686.27 L1955.62 1687.38 L1958.22 1688.50 L1960.82 1689.49 L1963.42 1690.48 L1965.89 1691.59 L1968.49 1692.58 L1971.09 1693.57 L1973.69 1694.56 L1976.29 1695.43 L1978.76 1696.42 L1981.36 1697.41 L1983.96 1698.27 L1986.56 1699.26 L1989.16 1700.13 L1991.63 1701.00 L1994.23 1701.86 L1996.83 1702.73 L1999.43 1703.60 L2002.03 1704.46 L2004.50 1705.33 L2007.10 1706.19 L2009.70 1706.94 L2012.30 1707.80 L2014.90 1708.55 L2017.37 1709.41 L2019.97 1710.15 L2022.57 1710.90 L2025.17 1711.64 L2027.77 1712.38 L2030.24 1713.12 L2032.84 1713.87 L2035.44 1714.61 L2038.04 1715.35 L2040.64 1716.09 L2043.24 1716.84 L2045.71 1717.46 L2048.31 1718.20 L2050.91 1718.82 L2053.51 1719.56 L2056.11 1720.18 L2058.58 1720.80 L2061.18 1721.54 L2063.78 1722.16 L2066.38 1722.78 L2068.98 1723.40 L2071.45 1724.02 L2074.05 1724.63 L2076.65 1725.25 L2079.25 1725.87 L2081.85 1726.49 L2084.32 1727.11 L2086.92 1727.60 L2089.52 1728.22 L2092.12 1728.84 L2094.72 1729.34 L2097.19 1729.96 L2099.79 1730.45 L2102.39 1731.07 L2104.99 1731.56 L2107.59 1732.06 L2110.06 1732.68 L2112.66 1733.17 L2115.26 1733.67 L2117.86 1734.29 L2120.46 1734.78 L2122.93 1735.28 L2125.53 1735.77 L2128.13 1736.27 L2130.73 1736.76 L2133.33 1737.26 L2135.80 1737.75 L2138.40 1738.25 L2141.00 1738.74 L2143.60 1739.11 L2146.20 1739.61 L2148.67 1740.10 L2151.27 1740.60 L2153.87 1740.97 L2156.47 1741.46 L2159.07 1741.96 L2161.54 1742.33 L2164.14 1742.83 L2166.74 1743.20 L2169.34 1743.69 L2171.94 1744.06 L2174.41 1744.56 L2177.01 1744.93 L2179.61 1745.30 L2182.21 1745.80 L2184.81 1746.17 L2187.28 1746.54 L2189.88 1747.03 L2192.48 1747.40 L2195.08 1747.78 L2197.68 1748.15 L2200.15 1748.52 L2202.75 1748.89 L2205.35 1749.38 L2207.95 1749.76 L2210.55 1750.13 L2213.02 1750.50 L2215.62 1750.87 L2218.22 1751.24 L2220.82 1751.61 L2223.42 1751.98 L2225.89 1752.23 L2228.49 1752.60 L2231.09 1752.97 L2233.69 1753.34 L2236.29 1753.72 L2238.89 1754.09 L2241.36 1754.33 L2243.96 1754.71 L2246.56 1755.08 L2249.16 1755.45 L2251.76 1755.70 L2254.23 1756.07 L2256.83 1756.44 L2259.43 1756.69 L2262.03 1757.06 L2264.63 1757.30 L2267.10 1757.68 L2269.70 1757.92 L2272.30 1758.29 L2274.90 1758.54 L2277.49 1758.91 L2279.97 1759.16 L2282.57 1759.53 L2285.17 1759.78 L2287.77 1760.15 L2290.36 1760.40 L2292.84 1760.65 L2295.44 1761.02 L2298.04 1761.27 L2300.64 1761.64 L2303.24 1761.88 L2305.71 1762.13 L2308.31 1762.38 L2310.91 1762.75 L2313.51 1763.00 L2316.11 1763.25 L2318.58 1763.49 L2321.18 1763.86 L2323.78 1764.11 L2326.38 1764.36 L2328.97 1764.61 L2331.45 1764.85 L2334.05 1765.10 L2336.65 1765.35 L2339.25 1765.60 L2341.84 1765.97 L2344.32 1766.22 L2346.92 1766.46 L2349.52 1766.71 L2352.12 1766.96 L2354.72 1767.21 L2357.19 1767.45 L2359.79 1767.70 L2362.39 1767.95 L2364.99 1768.20 L2367.59 1768.44 L2370.06 1768.69 L2372.66 1768.81 L2375.26 1769.06 L2377.86 1769.31 L2380.45 1769.56 L2382.93 1769.80 L2385.53 1770.05 L2388.13 1770.30 L2390.73 1770.55 L2393.32 1770.67 L2395.80 1770.92 L2398.40 1771.17 L2401.00 1771.41 L2403.60 1771.66 L2406.20 1771.78 L2408.67 1772.03 L2411.27 1772.28 L2413.87 1772.53 L2416.47 1772.65 L2419.07 1772.90 L2421.54 1773.15 L2424.14 1773.27 L2426.74 1773.52 L2429.34 1773.76 L2431.93 1773.89 L2434.41 1774.14 L2437.01 1774.38 L2439.61 1774.51 L2442.21 1774.75 L2444.80 1775.00 L2447.40 1775.13 L2449.88 1775.37 L2452.48 1775.50 L2455.08 1775.74 L2457.68 1775.87 L2460.27 1776.12 L2462.75 1776.36 L2465.35 1776.49 L2467.95 1776.73 L2470.55 1776.86 L2473.14 1777.11 L2475.62 1777.23 L2478.22 1777.48 L2480.82 1777.60 L2483.41 1777.85 L2486.01 1777.97 L2488.49 1778.22 L2491.09 1778.34 L2493.69 1778.47 L2496.28 1778.71 L2498.88 1778.84 L2501.36 1779.09 L2503.96 1779.21 L2506.56 1779.33 L2509.16 1779.58 L2511.75 1779.70 L2514.23 1779.95 L2516.83 1780.08 L2519.43 1780.20 L2522.03 1780.45 L2524.62 1780.57 L2527.10 1780.69 L2529.70 1780.94 L2532.30 1781.07 L2534.89 1781.19 L2537.49 1781.44 L2539.97 1781.56 L2542.57 1781.68 L2545.17 1781.93 L2547.76 1782.06 L2550.36 1782.18 L2552.84 1782.30 L2555.44 1782.55 L2558.04 1782.67 L2560.64 1782.80 L2563.23 1782.92 L2565.71 1783.17 L2568.31 1783.29 L2570.91 1783.42 L2573.51 1783.54 L2576.10 1783.79 L2578.58 1783.91 L2581.18 1784.04 L2583.78 1784.16 L2586.38 1784.28 L2588.97 1784.53 L2591.45 1784.65 L2594.05 1784.78 L2596.65 1784.90 L2599.24 1785.03 L2601.84 1785.15 L2604.32 1785.27 L2606.92 1785.52 L2609.52 1785.64 L2612.11 1785.77 L2614.71 1785.89 L2617.19 1786.02 L2619.79 1786.14 L2622.39 1786.26 L2624.99 1786.39 L2627.58 1786.63 L2630.06 1786.76 L2632.66 1786.88 L2635.26 1787.01 L2637.86 1787.13 L2640.45 1787.25 L2642.93 1787.38 L2645.53 1787.50 L2648.13 1787.62 L2650.72 1787.75 L2653.32 1787.87 L2655.92 1788.00 L2658.40 1788.12 L2661.00 1788.24 L2663.59 1788.37 L2666.19 1788.49 L2668.79 1788.61 L2671.27 1788.74 L2673.87 1788.86 L2676.47 1788.99 L2679.06 1789.11 L2681.66 1789.23 L2684.14 1789.36 L2686.74 1789.48 L2689.34 1789.60 L2691.93 1789.73 L2694.53 1789.85 L2697.01 1789.98 L2699.61 1790.10 L2702.20 1790.22 L2704.80 1790.35 L2707.40 1790.47 L2709.88 1790.59 L2712.48 1790.72 L2715.07 1790.84 L2717.67 1790.97 L2720.27 1791.09 L2722.75 1791.21 L2725.35 1791.21 L2727.95 1791.34 L2730.54 1791.46 L2733.14 1791.58 L2735.62 1791.71 L2738.22 1791.83 L2740.82 1791.96 L2743.41 1792.08 L2746.01 1792.20 L2748.49 1792.33 L2751.09 1792.33 L2753.68 1792.45 L2756.28 1792.57 L2758.88 1792.70 L2761.36 1792.82 L2763.96 1792.95 L2766.55 1793.07 L2769.15 1793.07 L2771.75 1793.19 L2774.23 1793.32 L2776.83 1793.44 L2779.43 1793.56 L2782.02 1793.69 L2784.62 1793.69 L2787.10 1793.81 L2789.70 1793.94 L2792.30 1794.06 L2794.89 1794.18 L2797.49 1794.31 L2799.97 1794.31 L2802.57 1794.43 L2805.16 1794.55 L2807.76 1794.68 L2810.36 1794.80 L2812.84 1794.80 L2815.44 1794.93 L2818.03 1795.05 L2820.63 1795.17 L2823.23 1795.17 L2825.71 1795.30 L2828.31 1795.42 L2830.91 1795.54 L2833.50 1795.54 L2836.10 1795.67 L2838.58 1795.79 L2841.18 1795.92 L2843.78 1796.04 L2846.37 1796.04 L2848.97 1796.16 L2851.45 1796.29 L2854.05 1796.29 L2856.64 1796.41 L2859.24 1796.53 L2861.84 1796.66 L2864.44 1796.66 L2866.92 1796.78 L2869.51 1796.91 L2872.11 1797.03 L2874.71 1797.03 L2877.31 1797.15 L2879.79 1797.28 L2882.39 1797.28 L2884.98 1797.40 L2887.58 1797.52 L2890.18 1797.65 L2892.66 1797.65 L2895.26 1797.77 L2897.85 1797.90 L2900.45 1797.90 L2903.05 1798.02 L2905.53 1798.14 L2908.13 1798.14 L2910.72 1798.27 L2913.32 1798.39 L2915.92 1798.39 L2918.40 1798.51 L2920.99 1798.64 L2923.59 1798.64 L2926.19 1798.76 L2928.79 1798.89 L2931.27 1798.89 L2933.86 1799.01 L2936.46 1799.13 L2939.06 1799.13 L2941.66 1799.26 L2944.14 1799.38 L2946.74 1799.38 L2949.33 1799.50 L2951.93 1799.50 L2954.53 1799.63 L2957.01 1799.75 L2959.61 1799.75 L2962.20 1799.88 L2964.80 1800.00 L2967.40 1800.00 L2969.88 1800.12 L2972.47 1800.12 L2975.07 1800.25 L2977.67 1800.37 L2980.27 1800.37 L2982.75 1800.50 L2985.34 1800.62 L2987.94 1800.62 L2990.54 1800.74 L2993.14 1800.74 L2995.62 1800.87 L2998.22 1800.99 L3000.81 1800.99 L3003.41 1801.11 L3006.01 1801.11 L3008.49 1801.24 L3011.09 1801.24 L3013.68 1801.36 L3016.28 1801.49 L3018.88 1801.49 L3021.36 1801.61 L3023.95 1801.61 L3026.55 1801.73 L3029.15 1801.86 L3031.75 1801.86 L3034.23 1801.98 L3036.82 1801.98 L3039.42 1802.10 L3042.02 1802.10 L3044.62 1802.23 L3047.10 1802.23 L3049.70 1802.35 L3052.29 1802.48 L3054.89 1802.48 L3057.49 1802.60 L3060.09 1802.60 L3062.57 1802.72 L3065.16 1802.72 L3067.76 1802.85 L3070.36 1802.85 L3072.96 1802.97 L3075.43 1802.97 L3078.03 1803.09 L3080.63 1803.22 L3083.23 1803.22 L3085.83 1803.34 L3088.30 1803.34 L3090.90 1803.47 L3093.50 1803.47" stroke-linejoin="round" style="fill:none;stroke:#006000;stroke-width:8.64"/>
	<path d=" M1474.23 528.18 L1476.83 1004.88 L1479.43 1243.23 L1482.03 1386.29 L1484.51 1481.58 L1487.10 1549.77 L1489.70 1600.76 L1492.30 1640.48 L1494.90 1672.29 L1497.38 1698.27 L1499.97 1719.93 L1502.57 1738.25 L1505.17 1753.96 L1507.77 1767.70 L1510.24 1779.58 L1512.84 1790.10 L1515.44 1799.38 L1518.04 1807.80 L1520.64 1815.35 L1523.12 1822.15 L1525.71 1828.34 L1528.31 1833.91 L1530.91 1839.11 L1533.51 1843.93 L1535.98 1848.26 L1538.58 1852.35 L1541.18 1856.18 L1543.78 1859.65 L1546.38 1862.99 L1548.86 1866.08 L1551.45 1868.93 L1554.05 1871.65 L1556.65 1874.25 L1559.25 1876.60 L1561.72 1878.83 L1564.32 1881.06 L1566.92 1883.04 L1569.52 1885.02 L1572.12 1886.75 L1574.60 1888.61 L1577.19 1890.22 L1579.79 1891.83 L1582.39 1893.31 L1584.99 1894.80 L1587.46 1896.16 L1590.06 1897.52 L1592.66 1898.76 L1595.26 1899.99 L1597.86 1901.11 L1600.34 1902.22 L1602.93 1903.33 L1605.53 1904.32 L1608.13 1905.31 L1610.73 1906.30 L1613.20 1907.29 L1615.80 1908.16 L1618.40 1909.03 L1621.00 1909.89 L1623.60 1910.64 L1626.20 1911.38 L1628.67 1912.24 L1631.27 1912.86 L1633.87 1913.61 L1636.47 1914.35 L1639.07 1914.97 L1641.54 1915.59 L1644.14 1916.20 L1646.74 1916.82 L1649.34 1917.44 L1651.94 1918.06 L1654.41 1918.56 L1657.01 1919.17 L1659.61 1919.67 L1662.21 1920.17 L1664.81 1920.66 L1667.28 1921.16 L1669.88 1921.65 L1672.48 1922.15 L1675.08 1922.52 L1677.68 1923.01 L1680.15 1923.38 L1682.75 1923.88 L1685.35 1924.25 L1687.95 1924.62 L1690.55 1925.12 L1693.02 1925.49 L1695.62 1925.86 L1698.22 1926.23 L1700.82 1926.48 L1703.42 1926.85 L1705.89 1927.22 L1708.49 1927.59 L1711.09 1927.84 L1713.69 1928.21 L1716.29 1928.58 L1718.76 1928.83 L1721.36 1929.08 L1723.96 1929.45 L1726.56 1929.69 L1729.16 1929.94 L1731.63 1930.31 L1734.23 1930.56 L1736.83 1930.81 L1739.43 1931.06 L1742.03 1931.30 L1744.50 1931.55 L1747.10 1931.80 L1749.70 1932.05 L1752.30 1932.29 L1754.90 1932.54 L1757.37 1932.79 L1759.97 1933.04 L1762.57 1933.28 L1765.17 1933.41 L1767.77 1933.65 L1770.24 1933.90 L1772.84 1934.03 L1775.44 1934.27 L1778.04 1934.52 L1780.64 1934.64 L1783.11 1934.89 L1785.71 1935.02 L1788.31 1935.26 L1790.91 1935.39 L1793.51 1935.63 L1795.98 1935.76 L1798.58 1936.01 L1801.18 1936.13 L1803.78 1936.25 L1806.38 1936.50 L1808.85 1936.62 L1811.45 1936.87 L1814.05 1937.00 L1816.65 1937.12 L1819.25 1937.24 L1821.72 1937.49 L1824.32 1937.61 L1826.92 1937.74 L1829.52 1937.86 L1832.12 1937.99 L1834.72 1938.23 L1837.19 1938.36 L1839.79 1938.48 L1842.39 1938.60 L1844.99 1938.73 L1847.59 1938.85 L1850.06 1938.98 L1852.66 1939.10 L1855.26 1939.22 L1857.86 1939.35 L1860.46 1939.47 L1862.93 1939.59 L1865.53 1939.72 L1868.13 1939.84 L1870.73 1939.97 L1873.33 1940.09 L1875.80 1940.21 L1878.40 1940.34 L1881.00 1940.46 L1883.60 1940.58 L1886.20 1940.71 L1888.67 1940.71 L1891.27 1940.83 L1893.87 1940.96 L1896.47 1941.08 L1899.07 1941.20 L1901.54 1941.33 L1904.14 1941.45 L1906.74 1941.45 L1909.34 1941.57 L1911.94 1941.70 L1914.41 1941.82 L1917.01 1941.82 L1919.61 1941.95 L1922.21 1942.07 L1924.81 1942.19 L1927.28 1942.19 L1929.88 1942.32 L1932.48 1942.44 L1935.08 1942.56 L1937.68 1942.56 L1940.15 1942.69 L1942.75 1942.81 L1945.35 1942.81 L1947.95 1942.94 L1950.55 1943.06 L1953.02 1943.06 L1955.62 1943.18 L1958.22 1943.31 L1960.82 1943.31 L1963.42 1943.43 L1965.89 1943.55 L1968.49 1943.55 L1971.09 1943.68 L1973.69 1943.68 L1976.29 1943.80 L1978.76 1943.93 L1981.36 1943.93 L1983.96 1944.05 L1986.56 1944.05 L1989.16 1944.17 L1991.63 1944.17 L1994.23 1944.30 L1996.83 1944.42 L1999.43 1944.42 L2002.03 1944.54 L2004.50 1944.54 L2007.10 1944.67 L2009.70 1944.67 L2012.30 1944.79 L2014.90 1944.79 L2017.37 1944.92 L2019.97 1944.92 L2022.57 1945.04 L2025.17 1945.04 L2027.77 1945.16 L2030.24 1945.16 L2032.84 1945.29 L2035.44 1945.29 L2038.04 1945.41 L2040.64 1945.41 L2043.24 1945.53 L2045.71 1945.53 L2048.31 1945.66 L2050.91 1945.66 L2053.51 1945.66 L2056.11 1945.78 L2058.58 1945.78 L2061.18 1945.91 L2063.78 1945.91 L2066.38 1946.03 L2068.98 1946.03 L2071.45 1946.15 L2074.05 1946.15 L2076.65 1946.15 L2079.25 1946.28 L2081.85 1946.28 L2084.32 1946.40 L2086.92 1946.40 L2089.52 1946.40 L2092.12 1946.52 L2094.72 1946.52 L2097.19 1946.65 L2099.79 1946.65 L2102.39 1946.65 L2104.99 1946.77 L2107.59 1946.77 L2110.06 1946.77 L2112.66 1946.90 L2115.26 1946.90 L2117.86 1947.02 L2120.46 1947.02 L2122.93 1947.02 L2125.53 1947.14 L2128.13 1947.14 L2130.73 1947.14 L2133.33 1947.27 L2135.80 1947.27 L2138.40 1947.27 L2141.00 1947.39 L2143.60 1947.39 L2146.20 1947.39 L2148.67 1947.51 L2151.27 1947.51 L2153.87 1947.51 L2156.47 1947.64 L2159.07 1947.64 L2161.54 1947.64 L2164.14 1947.76 L2166.74 1947.76 L2169.34 1947.76 L2171.94 1947.89 L2174.41 1947.89 L2177.01 1947.89 L2179.61 1948.01 L2182.21 1948.01 L2184.81 1948.01 L2187.28 1948.01 L2189.88 1948.13 L2192.48 1948.13 L2195.08 1948.13 L2197.68 1948.26 L2200.15 1948.26 L2202.75 1948.26 L2205.35 1948.26 L2207.95 1948.38 L2210.55 1948.38 L2213.02 1948.38 L2215.62 1948.50 L2218.22 1948.50 L2220.82 1948.50 L2223.42 1948.50 L2225.89 1948.63 L2228.49 1948.63 L2231.09 1948.63 L2233.69 1948.63 L2236.29 1948.75 L2238.89 1948.75 L2241.36 1948.75 L2243.96 1948.75 L2246.56 1948.88 L2249.16 1948.88 L2251.76 1948.88 L2254.23 1949.00 L2256.83 1949.00 L2259.43 1949.00 L2262.03 1949.00 L2264.63 1949.00 L2267.10 1949.12 L2269.70 1949.12 L2272.30 1949.12 L2274.90 1949.12 L2277.49 1949.25 L2279.97 1949.25 L2282.57 1949.25 L2285.17 1949.25 L2287.77 1949.37 L2290.36 1949.37 L2292.84 1949.37 L2295.44 1949.37 L2298.04 1949.49 L2300.64 1949.49 L2303.24 1949.49 L2305.71 1949.49 L2308.31 1949.49 L2310.91 1949.62 L2313.51 1949.62 L2316.11 1949.62 L2318.58 1949.62 L2321.18 1949.62 L2323.78 1949.74 L2326.38 1949.74 L2328.97 1949.74 L2331.45 1949.74 L2334.05 1949.74 L2336.65 1949.87 L2339.25 1949.87 L2341.84 1949.87 L2344.32 1949.87 L2346.92 1949.99 L2349.52 1949.99 L2352.12 1949.99 L2354.72 1949.99 L2357.19 1949.99 L2359.79 1949.99 L2362.39 1950.11 L2364.99 1950.11 L2367.59 1950.11 L2370.06 1950.11 L2372.66 1950.11 L2375.26 1950.24 L2377.86 1950.24 L2380.45 1950.24 L2382.93 1950.24 L2385.53 1950.24 L2388.13 1950.36 L2390.73 1950.36 L2393.32 1950.36 L2395.80 1950.36 L2398.40 1950.36 L2401.00 1950.36 L2403.60 1950.48 L2406.20 1950.48 L2408.67 1950.48 L2411.27 1950.48 L2413.87 1950.48 L2416.47 1950.48 L2419.07 1950.61 L2421.54 1950.61 L2424.14 1950.61 L2426.74 1950.61 L2429.34 1950.61 L2431.93 1950.61 L2434.41 1950.73 L2437.01 1950.73 L2439.61 1950.73 L2442.21 1950.73 L2444.80 1950.73 L2447.40 1950.73 L2449.88 1950.86 L2452.48 1950.86 L2455.08 1950.86 L2457.68 1950.86 L2460.27 1950.86 L2462.75 1950.86 L2465.35 1950.98 L2467.95 1950.98 L2470.55 1950.98 L2473.14 1950.98 L2475.62 1950.98 L2478.22 1950.98 L2480.82 1950.98 L2483.41 1951.10 L2486.01 1951.10 L2488.49 1951.10 L2491.09 1951.10 L2493.69 1951.10 L2496.28 1951.10 L2498.88 1951.10 L2501.36 1951.23 L2503.96 1951.23 L2506.56 1951.23 L2509.16 1951.23 L2511.75 1951.23 L2514.23 1951.23 L2516.83 1951.23 L2519.43 1951.35 L2522.03 1951.35 L2524.62 1951.35 L2527.10 1951.35 L2529.70 1951.35 L2532.30 1951.35 L2534.89 1951.35 L2537.49 1951.47 L2539.97 1951.47 L2542.57 1951.47 L2545.17 1951.47 L2547.76 1951.47 L2550.36 1951.47 L2552.84 1951.47 L2555.44 1951.60 L2558.04 1951.60 L2560.64 1951.60 L2563.23 1951.60 L2565.71 1951.60 L2568.31 1951.60 L2570.91 1951.60 L2573.51 1951.60 L2576.10 1951.72 L2578.58 1951.72 L2581.18 1951.72 L2583.78 1951.72 L2586.38 1951.72 L2588.97 1951.72 L2591.45 1951.72 L2594.05 1951.72 L2596.65 1951.85 L2599.24 1951.85 L2601.84 1951.85 L2604.32 1951.85 L2606.92 1951.85 L2609.52 1951.85 L2612.11 1951.85 L2614.71 1951.85 L2617.19 1951.85 L2619.79 1951.97 L2622.39 1951.97 L2624.99 1951.97 L2627.58 1951.97 L2630.06 1951.97 L2632.66 1951.97 L2635.26 1951.97 L2637.86 1951.97 L2640.45 1951.97 L2642.93 1952.09 L2645.53 1952.09 L2648.13 1952.09 L2650.72 1952.09 L2653.32 1952.09 L2655.92 1952.09 L2658.40 1952.09 L2661.00 1952.09 L2663.59 1952.09 L2666.19 1952.22 L2668.79 1952.22 L2671.27 1952.22 L2673.87 1952.22 L2676.47 1952.22 L2679.06 1952.22 L2681.66 1952.22 L2684.14 1952.22 L2686.74 1952.22 L2689.34 1952.34 L2691.93 1952.34 L2694.53 1952.34 L2697.01 1952.34 L2699.61 1952.34 L2702.20 1952.34 L2704.80 1952.34 L2707.40 1952.34 L2709.88 1952.34 L2712.48 1952.34 L2715.07 1952.46 L2717.67 1952.46 L2720.27 1952.46 L2722.75 1952.46 L2725.35 1952.46 L2727.95 1952.46 L2730.54 1952.46 L2733.14 1952.46 L2735.62 1952.46 L2738.22 1952.46 L2740.82 1952.46 L2743.41 1952.59 L2746.01 1952.59 L2748.49 1952.59 L2751.09 1952.59 L2753.68 1952.59 L2756.28 1952.59 L2758.88 1952.59 L2761.36 1952.59 L2763.96 1952.59 L2766.55 1952.59 L2769.15 1952.71 L2771.75 1952.71 L2774.23 1952.71 L2776.83 1952.71 L2779.43 1952.71 L2782.02 1952.71 L2784.62 1952.71 L2787.10 1952.71 L2789.70 1952.71 L2792.30 1952.71 L2794.89 1952.71 L2797.49 1952.71 L2799.97 1952.84 L2802.57 1952.84 L2805.16 1952.84 L2807.76 1952.84 L2810.36 1952.84 L2812.84 1952.84 L2815.44 1952.84 L2818.03 1952.84 L2820.63 1952.84 L2823.23 1952.84 L2825.71 1952.84 L2828.31 1952.96 L2830.91 1952.96 L2833.50 1952.96 L2836.10 1952.96 L2838.58 1952.96 L2841.18 1952.96 L2843.78 1952.96 L2846.37 1952.96 L2848.97 1952.96 L2851.45 1952.96 L2854.05 1952.96 L2856.64 1952.96 L2859.24 1952.96 L2861.84 1953.08 L2864.44 1953.08 L2866.92 1953.08 L2869.51 1953.08 L2872.11 1953.08 L2874.71 1953.08 L2877.31 1953.08 L2879.79 1953.08 L2882.39 1953.08 L2884.98 1953.08 L2887.58 1953.08 L2890.18 1953.08 L2892.66 1953.08 L2895.26 1953.21 L2897.85 1953.21 L2900.45 1953.21 L2903.05 1953.21 L2905.53 1953.21 L2908.13 1953.21 L2910.72 1953.21 L2913.32 1953.21 L2915.92 1953.21 L2918.40 1953.21 L2920.99 1953.21 L2923.59 1953.21 L2926.19 1953.21 L2928.79 1953.33 L2931.27 1953.33 L2933.86 1953.33 L2936.46 1953.33 L2939.06 1953.33 L2941.66 1953.33 L2944.14 1953.33 L2946.74 1953.33 L2949.33 1953.33 L2951.93 1953.33 L2954.53 1953.33 L2957.01 1953.33 L2959.61 1953.33 L2962.20 1953.33 L2964.80 1953.33 L2967.40 1953.45 L2969.88 1953.45 L2972.47 1953.45 L2975.07 1953.45 L2977.67 1953.45 L2980.27 1953.45 L2982.75 1953.45 L2985.34 1953.45 L2987.94 1953.45 L2990.54 1953.45 L2993.14 1953.45 L2995.62 1953.45 L2998.22 1953.45 L3000.81 1953.45 L3003.41 1953.58 L3006.01 1953.58 L3008.49 1953.58 L3011.09 1953.58 L3013.68 1953.58 L3016.28 1953.58 L3018.88 1953.58 L3021.36 1953.58 L3023.95 1953.58 L3026.55 1953.58 L3029.15 1953.58 L3031.75 1953.58 L3034.23 1953.58 L3036.82 1953.58 L3039.42 1953.58 L3042.02 1953.58 L3044.62 1953.70 L3047.10 1953.70 L3049.70 1953.70 L3052.29 1953.70 L3054.89 1953.70 L3057.49 1953.70 L3060.09 1953.70 L3062.57 1953.70 L3065.16 1953.70 L3067.76 1953.70 L3070.36 1953.70 L3072.96 1953.70 L3075.43 1953.70 L3078.03 1953.70 L3080.63 1953.70 L3083.23 1953.70 L3085.83 1953.70 L3088.30 1953.83 L3090.90 1953.83 L3093.50 1953.83" stroke-linejoin="round" style="fill:none;stroke:#FF4500;stroke-width:8.64"/>
	<circle cx="1554.18" cy="1872.40" r="26.35" style="fill:#1A476F"/>
	<circle cx="1554.18" cy="1872.40" r="22.03" style="fill:none;stroke:#1A476F;stroke-width:8.64"/>
	<text x="1625.21" y="1831.43" style="font-family:'Helvetica';font-size:79.94px;fill:#1A476f">E-value (CI): (1.43, 1.43)</text>
	<circle cx="1821.85" cy="1601.99" r="26.35" style="fill:#90353B"/>
	<circle cx="1821.85" cy="1601.99" r="22.03" style="fill:none;stroke:#90353B;stroke-width:8.64"/>
	<text x="1892.88" y="1561.03" style="font-family:'Helvetica';font-size:79.94px;fill:#90353b">E-value: (2.47, 2.47)</text>
	<line x1="1122.66" y1="2307.64" x2="1122.66" y2="100.86" style="stroke:#000000;stroke-width:5.76"/>
	<line x1="1122.66" y1="2244.28" x2="1082.69" y2="2244.28" style="stroke:#000000;stroke-width:5.76"/>
	<text x="1032.58" y="2244.28" style="font-family:'Helvetica';font-size:99.99px;fill:#000000" transform="rotate(-90 1032.58,2244.28)" text-anchor="middle">0</text>
	<line x1="1122.66" y1="1724.26" x2="1082.69" y2="1724.26" style="stroke:#000000;stroke-width:5.76"/>
	<text x="1032.58" y="1724.26" style="font-family:'Helvetica';font-size:99.99px;fill:#000000" transform="rotate(-90 1032.58,1724.26)" text-anchor="middle">2</text>
	<line x1="1122.66" y1="1204.25" x2="1082.69" y2="1204.25" style="stroke:#000000;stroke-width:5.76"/>
	<text x="1032.58" y="1204.25" style="font-family:'Helvetica';font-size:99.99px;fill:#000000" transform="rotate(-90 1032.58,1204.25)" text-anchor="middle">4</text>
	<line x1="1122.66" y1="684.24" x2="1082.69" y2="684.24" style="stroke:#000000;stroke-width:5.76"/>
	<text x="1032.58" y="684.24" style="font-family:'Helvetica';font-size:99.99px;fill:#000000" transform="rotate(-90 1032.58,684.24)" text-anchor="middle">6</text>
	<line x1="1122.66" y1="164.22" x2="1082.69" y2="164.22" style="stroke:#000000;stroke-width:5.76"/>
	<text x="1032.58" y="164.22" style="font-family:'Helvetica';font-size:99.99px;fill:#000000" transform="rotate(-90 1032.58,164.22)" text-anchor="middle">8</text>
	<text x="827.85" y="1204.25" style="font-family:'Helvetica';font-size:79.94px;fill:#000000" transform="rotate(-90 827.85,1204.25)" text-anchor="middle">Risk ratio for confounder-outcome relationship</text>
	<line x1="1122.66" y1="2307.64" x2="3308.83" y2="2307.64" style="stroke:#000000;stroke-width:5.76"/>
	<line x1="1186.02" y1="2307.64" x2="1186.02" y2="2347.61" style="stroke:#000000;stroke-width:5.76"/>
	<text x="1186.02" y="2437.59" style="font-family:'Helvetica';font-size:99.99px;fill:#000000" text-anchor="middle">0</text>
	<line x1="1700.82" y1="2307.64" x2="1700.82" y2="2347.61" style="stroke:#000000;stroke-width:5.76"/>
	<text x="1700.82" y="2437.59" style="font-family:'Helvetica';font-size:99.99px;fill:#000000" text-anchor="middle">2</text>
	<line x1="2215.74" y1="2307.64" x2="2215.74" y2="2347.61" style="stroke:#000000;stroke-width:5.76"/>
	<text x="2215.74" y="2437.59" style="font-family:'Helvetica';font-size:99.99px;fill:#000000" text-anchor="middle">4</text>
	<line x1="2730.54" y1="2307.64" x2="2730.54" y2="2347.61" style="stroke:#000000;stroke-width:5.76"/>
	<text x="2730.54" y="2437.59" style="font-family:'Helvetica';font-size:99.99px;fill:#000000" text-anchor="middle">6</text>
	<line x1="3245.47" y1="2307.64" x2="3245.47" y2="2347.61" style="stroke:#000000;stroke-width:5.76"/>
	<text x="3245.47" y="2437.59" style="font-family:'Helvetica';font-size:99.99px;fill:#000000" text-anchor="middle">8</text>
	<text x="2215.74" y="2634.31" style="font-family:'Helvetica';font-size:79.94px;fill:#000000" text-anchor="middle">Risk ratio for exposure-confounder relationship</text>
</svg>
