<?xml version="1.0" encoding="UTF-8" standalone="no"?>
<!-- This is a Stata 16.1 generated SVG file (http://www.stata.com) -->

<svg version="1.1" width="5.50in" height="4.00in" viewBox="0 0 3960 2880" xmlns="http://www.w3.org/2000/svg" xmlns:xlink="http://www.w3.org/1999/xlink">
	<desc>Stata Graph - Graph</desc>
	<rect x="0" y="0" width="3960" height="2880" style="fill:#FFFFFF;stroke:none"/>
	<rect x="0.00" y="0.00" width="3959.88" height="2880.00" style="fill:#FFFFFF"/>
	<rect x="2.88" y="2.88" width="3954.12" height="2874.24" style="fill:none;stroke:#FFFFFF;stroke-width:5.76"/>
	<rect x="1125.54" y="103.74" width="2180.41" height="2201.02" style="fill:none;stroke:#000000;stroke-width:5.76"/>
	<path d=" M1283.78 511.60 L1288.86 788.31 L1294.05 985.82 L1299.25 1134.08 L1304.33 1249.30 L1309.52 1341.62 L1314.60 1416.98 L1319.79 1479.85 L1324.99 1533.06 L1330.07 1578.73 L1335.26 1618.21 L1340.34 1652.86 L1345.53 1683.30 L1350.73 1710.40 L1355.81 1734.66 L1361.00 1756.56 L1366.08 1776.36 L1371.27 1794.31 L1376.47 1810.64 L1381.55 1825.74 L1386.74 1839.60 L1391.82 1852.35 L1397.01 1864.10 L1402.21 1875.12 L1407.29 1885.39 L1412.48 1894.92 L1417.56 1903.83 L1422.75 1912.12 L1427.95 1920.04 L1433.03 1927.47 L1438.22 1934.40 L1443.42 1940.96 L1448.49 1947.27 L1453.69 1953.08 L1458.77 1958.78 L1463.96 1964.10 L1469.16 1969.05 L1474.23 1973.87 L1479.43 1978.45 L1484.51 1982.91 L1489.70 1987.12 L1494.90 1991.08 L1499.97 1994.91 L1505.17 1998.62 L1510.24 2002.09 L1515.44 2005.56 L1520.64 2008.77 L1525.71 2011.87 L1530.91 2014.96 L1535.98 2017.81 L1541.18 2020.65 L1546.38 2023.38 L1551.45 2025.97 L1556.65 2028.45 L1561.72 2030.80 L1566.92 2033.15 L1572.12 2035.50 L1577.19 2037.61 L1582.39 2039.83 L1587.46 2041.82 L1592.66 2043.80 L1597.86 2045.78 L1602.93 2047.63 L1608.13 2049.49 L1613.20 2051.22 L1618.40 2052.95 L1623.60 2054.69 L1628.67 2056.29 L1633.87 2057.78 L1639.07 2059.39 L1644.14 2060.87 L1649.34 2062.36 L1654.41 2063.72 L1659.61 2065.08 L1664.81 2066.44 L1669.88 2067.80 L1675.08 2069.04 L1680.15 2070.28 L1685.35 2071.52 L1690.55 2072.75 L1695.62 2073.87 L1700.82 2074.98 L1705.89 2076.09 L1711.09 2077.21 L1716.29 2078.32 L1721.36 2079.31 L1726.56 2080.30 L1731.63 2081.29 L1736.83 2082.28 L1742.03 2083.27 L1747.10 2084.14 L1752.30 2085.13 L1757.37 2086.00 L1762.57 2086.86 L1767.77 2087.73 L1772.84 2088.47 L1778.04 2089.34 L1783.11 2090.20 L1788.31 2090.95 L1793.51 2091.69 L1798.58 2092.43 L1803.78 2093.17 L1808.85 2093.92 L1814.05 2094.66 L1819.25 2095.40 L1824.32 2096.02 L1829.52 2096.76 L1834.72 2097.38 L1839.79 2098.12 L1844.99 2098.74 L1850.06 2099.36 L1855.26 2099.98 L1860.46 2100.60 L1865.53 2101.22 L1870.73 2101.84 L1875.80 2102.33 L1881.00 2102.95 L1886.20 2103.44 L1891.27 2104.06 L1896.47 2104.56 L1901.54 2105.18 L1906.74 2105.67 L1911.94 2106.17 L1917.01 2106.66 L1922.21 2107.16 L1927.28 2107.65 L1932.48 2108.15 L1937.68 2108.64 L1942.75 2109.14 L1947.95 2109.63 L1953.02 2110.00 L1958.22 2110.50 L1963.42 2110.99 L1968.49 2111.36 L1973.69 2111.86 L1978.76 2112.23 L1983.96 2112.73 L1989.16 2113.10 L1994.23 2113.47 L1999.43 2113.84 L2004.50 2114.33 L2009.70 2114.71 L2014.90 2115.08 L2019.97 2115.45 L2025.17 2115.82 L2030.24 2116.19 L2035.44 2116.56 L2040.64 2116.93 L2045.71 2117.30 L2050.91 2117.68 L2056.11 2117.92 L2061.18 2118.29 L2066.38 2118.67 L2071.45 2119.04 L2076.65 2119.28 L2081.85 2119.66 L2086.92 2120.03 L2092.12 2120.28 L2097.19 2120.65 L2102.39 2120.89 L2107.59 2121.27 L2112.66 2121.51 L2117.86 2121.88 L2122.93 2122.13 L2128.13 2122.38 L2133.33 2122.75 L2138.40 2123.00 L2143.60 2123.25 L2148.67 2123.49 L2153.87 2123.86 L2159.07 2124.11 L2164.14 2124.36 L2169.34 2124.61 L2174.41 2124.85 L2179.61 2125.10 L2184.81 2125.47 L2189.88 2125.72 L2195.08 2125.97 L2200.15 2126.22 L2205.35 2126.46 L2210.55 2126.71 L2215.62 2126.96 L2220.82 2127.21 L2225.89 2127.33 L2231.09 2127.58 L2236.29 2127.82 L2241.36 2128.07 L2246.56 2128.32 L2251.76 2128.57 L2256.83 2128.69 L2262.03 2128.94 L2267.10 2129.19 L2272.30 2129.43 L2277.49 2129.56 L2282.57 2129.80 L2287.77 2130.05 L2292.84 2130.18 L2298.04 2130.42 L2303.24 2130.67 L2308.31 2130.79 L2313.51 2131.04 L2318.58 2131.29 L2323.78 2131.41 L2328.97 2131.66 L2334.05 2131.78 L2339.25 2132.03 L2344.32 2132.16 L2349.52 2132.40 L2354.72 2132.53 L2359.79 2132.77 L2364.99 2132.90 L2370.06 2133.15 L2375.26 2133.27 L2380.45 2133.52 L2385.53 2133.64 L2390.73 2133.76 L2395.80 2134.01 L2401.00 2134.14 L2406.20 2134.26 L2411.27 2134.51 L2416.47 2134.63 L2421.54 2134.75 L2426.74 2135.00 L2431.93 2135.13 L2437.01 2135.25 L2442.21 2135.50 L2447.40 2135.62 L2452.48 2135.74 L2457.68 2135.87 L2462.75 2136.12 L2467.95 2136.24 L2473.14 2136.36 L2478.22 2136.49 L2483.41 2136.61 L2488.49 2136.86 L2493.69 2136.98 L2498.88 2137.11 L2503.96 2137.23 L2509.16 2137.35 L2514.23 2137.48 L2519.43 2137.60 L2524.62 2137.85 L2529.70 2137.97 L2534.89 2138.10 L2539.97 2138.22 L2545.17 2138.34 L2550.36 2138.47 L2555.44 2138.59 L2560.64 2138.71 L2565.71 2138.84 L2570.91 2138.96 L2576.10 2139.09 L2581.18 2139.21 L2586.38 2139.33 L2591.45 2139.46 L2596.65 2139.58 L2601.84 2139.70 L2606.92 2139.83 L2612.11 2139.95 L2617.19 2140.08 L2622.39 2140.20 L2627.58 2140.32 L2632.66 2140.45 L2637.86 2140.57 L2642.93 2140.69 L2648.13 2140.82 L2653.32 2140.94 L2658.40 2141.07 L2663.59 2141.07 L2668.79 2141.19 L2673.87 2141.31 L2679.06 2141.44 L2684.14 2141.56 L2689.34 2141.68 L2694.53 2141.81 L2699.61 2141.93 L2704.80 2141.93 L2709.88 2142.06 L2715.07 2142.18 L2720.27 2142.30 L2725.35 2142.43 L2730.54 2142.55 L2735.62 2142.55 L2740.82 2142.67 L2746.01 2142.80 L2751.09 2142.92 L2756.28 2143.05 L2761.36 2143.05 L2766.55 2143.17 L2771.75 2143.29 L2776.83 2143.42 L2782.02 2143.54 L2787.10 2143.54 L2792.30 2143.66 L2797.49 2143.79 L2802.57 2143.91 L2807.76 2143.91 L2812.84 2144.04 L2818.03 2144.16 L2823.23 2144.28 L2828.31 2144.28 L2833.50 2144.41 L2838.58 2144.53 L2843.78 2144.53 L2848.97 2144.65 L2854.05 2144.78 L2859.24 2144.78 L2864.44 2144.90 L2869.51 2145.03 L2874.71 2145.15 L2879.79 2145.15 L2884.98 2145.27 L2890.18 2145.40 L2895.26 2145.40 L2900.45 2145.52 L2905.53 2145.64 L2910.72 2145.64 L2915.92 2145.77 L2920.99 2145.89 L2926.19 2145.89 L2931.27 2146.02 L2936.46 2146.02 L2941.66 2146.14 L2946.74 2146.26 L2951.93 2146.26 L2957.01 2146.39 L2962.20 2146.51 L2967.40 2146.51 L2972.47 2146.63 L2977.67 2146.63 L2982.75 2146.76 L2987.94 2146.88 L2993.14 2146.88 L2998.22 2147.01 L3003.41 2147.01 L3008.49 2147.13 L3013.68 2147.13 L3018.88 2147.25 L3023.95 2147.38 L3029.15 2147.38 L3034.23 2147.50 L3039.42 2147.50 L3044.62 2147.62 L3049.70 2147.62" stroke-linejoin="round" style="fill:none;stroke:#006000;stroke-width:8.64"/>
	<circle cx="1463.96" cy="1963.48" r="26.35" style="fill:#FF4500"/>
	<circle cx="1463.96" cy="1963.48" r="22.03" style="fill:none;stroke:#FF4500;stroke-width:8.64"/>
	<text x="1534.99" y="1922.52" style="font-family:'Helvetica';font-size:79.94px;fill:#FF4500">E-value: (1.54, 1.54)</text>
	<line x1="1122.66" y1="2307.64" x2="1122.66" y2="100.86" style="stroke:#000000;stroke-width:5.76"/>
	<line x1="1122.66" y1="2244.28" x2="1082.69" y2="2244.28" style="stroke:#000000;stroke-width:5.76"/>
	<text x="1032.58" y="2244.28" style="font-family:'Helvetica';font-size:99.99px;fill:#000000" transform="rotate(-90 1032.58,2244.28)" text-anchor="middle">1</text>
	<line x1="1122.66" y1="1724.26" x2="1082.69" y2="1724.26" style="stroke:#000000;stroke-width:5.76"/>
	<text x="1032.58" y="1724.26" style="font-family:'Helvetica';font-size:99.99px;fill:#000000" transform="rotate(-90 1032.58,1724.26)" text-anchor="middle">2</text>
	<line x1="1122.66" y1="1204.25" x2="1082.69" y2="1204.25" style="stroke:#000000;stroke-width:5.76"/>
	<text x="1032.58" y="1204.25" style="font-family:'Helvetica';font-size:99.99px;fill:#000000" transform="rotate(-90 1032.58,1204.25)" text-anchor="middle">3</text>
	<line x1="1122.66" y1="684.24" x2="1082.69" y2="684.24" style="stroke:#000000;stroke-width:5.76"/>
	<text x="1032.58" y="684.24" style="font-family:'Helvetica';font-size:99.99px;fill:#000000" transform="rotate(-90 1032.58,684.24)" text-anchor="middle">4</text>
	<line x1="1122.66" y1="164.22" x2="1082.69" y2="164.22" style="stroke:#000000;stroke-width:5.76"/>
	<text x="1032.58" y="164.22" style="font-family:'Helvetica';font-size:99.99px;fill:#000000" transform="rotate(-90 1032.58,164.22)" text-anchor="middle">5</text>
	<text x="827.85" y="1204.25" style="font-family:'Helvetica';font-size:79.94px;fill:#000000" transform="rotate(-90 827.85,1204.25)" text-anchor="middle">Risk ratio for confounder-outcome relationship</text>
	<line x1="1122.66" y1="2307.64" x2="3308.83" y2="2307.64" style="stroke:#000000;stroke-width:5.76"/>
	<line x1="1186.02" y1="2307.64" x2="1186.02" y2="2347.61" style="stroke:#000000;stroke-width:5.76"/>
	<text x="1186.02" y="2437.59" style="font-family:'Helvetica';font-size:99.99px;fill:#000000" text-anchor="middle">1</text>
	<line x1="1700.82" y1="2307.64" x2="1700.82" y2="2347.61" style="stroke:#000000;stroke-width:5.76"/>
	<text x="1700.82" y="2437.59" style="font-family:'Helvetica';font-size:99.99px;fill:#000000" text-anchor="middle">2</text>
	<line x1="2215.74" y1="2307.64" x2="2215.74" y2="2347.61" style="stroke:#000000;stroke-width:5.76"/>
	<text x="2215.74" y="2437.59" style="font-family:'Helvetica';font-size:99.99px;fill:#000000" text-anchor="middle">3</text>
	<line x1="2730.54" y1="2307.64" x2="2730.54" y2="2347.61" style="stroke:#000000;stroke-width:5.76"/>
	<text x="2730.54" y="2437.59" style="font-family:'Helvetica';font-size:99.99px;fill:#000000" text-anchor="middle">4</text>
	<line x1="3245.47" y1="2307.64" x2="3245.47" y2="2347.61" style="stroke:#000000;stroke-width:5.76"/>
	<text x="3245.47" y="2437.59" style="font-family:'Helvetica';font-size:99.99px;fill:#000000" text-anchor="middle">5</text>
	<text x="2215.74" y="2634.31" style="font-family:'Helvetica';font-size:79.94px;fill:#000000" text-anchor="middle">Risk ratio for exposure-confounder relationship</text>
</svg>
