<?xml version="1.0" encoding="UTF-8" standalone="no"?>
<!-- This is a Stata 16.1 generated SVG file (http://www.stata.com) -->

<svg version="1.1" width="5.50in" height="4.00in" viewBox="0 0 3960 2880" xmlns="http://www.w3.org/2000/svg" xmlns:xlink="http://www.w3.org/1999/xlink">
	<desc>Stata Graph - Graph</desc>
	<rect x="0" y="0" width="3960" height="2880" style="fill:#FFFFFF;stroke:none"/>
	<rect x="0.00" y="0.00" width="3959.88" height="2880.00" style="fill:#FFFFFF"/>
	<rect x="2.88" y="2.88" width="3954.12" height="2874.24" style="fill:none;stroke:#FFFFFF;stroke-width:5.76"/>
	<rect x="1125.54" y="103.74" width="2180.41" height="2201.02" style="fill:none;stroke:#000000;stroke-width:5.76"/>
	<path d=" M1351.97 164.22 L1354.94 267.56 L1357.79 360.62 L1360.76 444.77 L1363.60 521.25 L1366.57 591.17 L1369.42 655.28 L1372.39 714.18 L1375.23 768.51 L1378.20 818.88 L1381.05 865.66 L1384.02 909.22 L1386.87 949.81 L1389.84 987.80 L1392.81 1023.44 L1395.65 1056.98 L1398.62 1088.42 L1401.47 1118.12 L1404.44 1146.21 L1407.29 1172.69 L1410.26 1197.94 L1413.10 1221.70 L1416.07 1244.35 L1418.92 1266.00 L1421.89 1286.55 L1424.73 1306.10 L1427.70 1324.79 L1430.67 1342.61 L1433.52 1359.68 L1436.49 1376.02 L1439.34 1391.74 L1442.31 1406.71 L1445.15 1421.19 L1448.12 1435.05 L1450.97 1448.42 L1453.94 1461.16 L1456.79 1473.54 L1459.76 1485.42 L1462.60 1496.93 L1465.57 1507.94 L1468.54 1518.71 L1471.39 1528.98 L1474.36 1539.00 L1477.20 1548.66 L1480.17 1558.06 L1483.02 1567.10 L1485.99 1575.88 L1488.84 1584.30 L1491.81 1592.59 L1494.65 1600.51 L1497.62 1608.31 L1500.47 1615.85 L1503.44 1623.16 L1506.41 1630.33 L1509.26 1637.14 L1512.22 1643.95 L1515.07 1650.51 L1518.04 1656.82 L1520.89 1663.00 L1523.86 1669.07 L1526.70 1675.01 L1529.67 1680.70 L1532.52 1686.27 L1535.49 1691.72 L1538.34 1697.04 L1541.31 1702.23 L1544.28 1707.31 L1547.12 1712.26 L1550.09 1717.08 L1552.94 1721.91 L1555.91 1726.49 L1558.76 1730.95 L1561.72 1735.40 L1564.57 1739.73 L1567.54 1743.94 L1570.39 1748.02 L1573.36 1752.11 L1576.20 1756.07 L1579.17 1759.90 L1582.14 1763.74 L1584.99 1767.45 L1587.96 1771.17 L1590.81 1774.63 L1593.78 1778.22 L1596.62 1781.56 L1599.59 1785.03 L1602.44 1788.24 L1605.41 1791.46 L1608.26 1794.68 L1611.22 1797.77 L1614.07 1800.87 L1617.04 1803.84 L1620.01 1806.81 L1622.86 1809.65 L1625.83 1812.50 L1628.67 1815.35 L1631.64 1818.07 L1634.49 1820.79 L1637.46 1823.39 L1640.31 1825.99 L1643.28 1828.59 L1646.12 1831.06 L1649.09 1833.54 L1651.94 1836.01 L1654.91 1838.49 L1657.88 1840.84 L1660.72 1843.07 L1663.69 1845.42 L1666.54 1847.65 L1669.51 1849.87 L1672.36 1851.98 L1675.33 1854.20 L1678.17 1856.31 L1681.14 1858.29 L1683.99 1860.39 L1686.96 1862.37 L1689.93 1864.35 L1692.78 1866.33 L1695.75 1868.31 L1698.59 1870.17 L1701.56 1872.02 L1704.41 1873.88 L1707.38 1875.74 L1710.22 1877.47 L1713.19 1879.20 L1716.04 1880.94 L1719.01 1882.67 L1721.86 1884.40 L1724.83 1886.01 L1727.80 1887.74 L1730.64 1889.35 L1733.61 1890.96 L1736.46 1892.57 L1739.43 1894.05 L1742.28 1895.66 L1745.25 1897.15 L1748.09 1898.63 L1751.06 1900.12 L1753.91 1901.60 L1756.88 1903.09 L1759.72 1904.45 L1762.69 1905.81 L1765.66 1907.29 L1768.51 1908.66 L1771.48 1910.02 L1774.33 1911.25 L1777.30 1912.62 L1780.14 1913.98 L1783.11 1915.21 L1785.96 1916.45 L1788.93 1917.81 L1791.78 1919.05 L1794.75 1920.29 L1797.59 1921.40 L1800.56 1922.64 L1803.53 1923.88 L1806.38 1924.99 L1809.35 1926.23 L1812.19 1927.34 L1815.16 1928.46 L1818.01 1929.57 L1820.98 1930.68 L1823.83 1931.80 L1826.80 1932.91 L1829.64 1933.90 L1832.61 1935.02 L1835.46 1936.01 L1838.43 1937.12 L1841.40 1938.11 L1844.25 1939.10 L1847.22 1940.21 L1850.06 1941.20 L1853.03 1942.19 L1855.88 1943.06 L1858.85 1944.05 L1861.69 1945.04 L1864.66 1946.03 L1867.51 1946.90 L1870.48 1947.89 L1873.33 1948.75 L1876.30 1949.62 L1879.27 1950.61 L1882.11 1951.47 L1885.08 1952.34 L1887.93 1953.21 L1890.90 1954.07 L1893.75 1954.94 L1896.72 1955.81 L1899.56 1956.55 L1902.53 1957.41 L1905.38 1958.28 L1908.35 1959.02 L1911.19 1959.89 L1914.16 1960.63 L1917.13 1961.50 L1919.98 1962.24 L1922.95 1962.98 L1925.80 1963.73 L1928.77 1964.47 L1931.61 1965.34 L1934.58 1966.08 L1937.43 1966.82 L1940.40 1967.56 L1943.25 1968.18 L1946.22 1968.92 L1949.06 1969.67 L1952.03 1970.41 L1955.00 1971.03 L1957.85 1971.77 L1960.82 1972.51 L1963.66 1973.13 L1966.63 1973.87 L1969.48 1974.49 L1972.45 1975.11 L1975.30 1975.85 L1978.27 1976.47 L1981.11 1977.09 L1984.08 1977.71 L1986.93 1978.45 L1989.90 1979.07 L1992.87 1979.69 L1995.72 1980.31 L1998.69 1980.93 L2001.53 1981.55 L2004.50 1982.17 L2007.35 1982.66 L2010.32 1983.28 L2013.16 1983.90 L2016.13 1984.52 L2018.98 1985.01 L2021.95 1985.63 L2024.80 1986.25 L2027.77 1986.74 L2030.74 1987.36 L2033.58 1987.86 L2036.55 1988.48 L2039.40 1988.97 L2042.37 1989.59 L2045.22 1990.09 L2048.19 1990.58 L2051.03 1991.20 L2054.00 1991.69 L2056.85 1992.19 L2059.82 1992.81 L2062.66 1993.30 L2065.64 1993.80 L2068.61 1994.29 L2071.45 1994.79 L2074.42 1995.28 L2077.27 1995.78 L2080.24 1996.27 L2083.08 1996.77 L2086.05 1997.26 L2088.90 1997.76 L2091.87 1998.25 L2094.72 1998.75 L2097.69 1999.12 L2100.53 1999.61 L2103.50 2000.11 L2106.47 2000.61 L2109.32 2000.98 L2112.29 2001.47 L2115.14 2001.97 L2118.11 2002.34 L2120.95 2002.83 L2123.92 2003.33 L2126.77 2003.70 L2129.74 2004.19 L2132.58 2004.57 L2135.55 2005.06 L2138.40 2005.43 L2141.37 2005.93 L2144.34 2006.30 L2147.19 2006.67 L2150.16 2007.16 L2153.00 2007.54 L2155.97 2007.91 L2158.82 2008.40 L2161.79 2008.77 L2164.64 2009.14 L2167.61 2009.52 L2170.45 2010.01 L2173.42 2010.38 L2176.39 2010.75 L2179.24 2011.12 L2182.21 2011.50 L2185.05 2011.87 L2188.02 2012.24 L2190.87 2012.61 L2193.84 2013.10 L2196.69 2013.48 L2199.66 2013.85 L2202.50 2014.22 L2205.47 2014.47 L2208.32 2014.84 L2211.29 2015.21 L2214.26 2015.58 L2217.11 2015.95 L2220.07 2016.32 L2222.92 2016.69 L2225.89 2017.06 L2228.74 2017.44 L2231.71 2017.68 L2234.55 2018.05 L2237.52 2018.43 L2240.37 2018.80 L2243.34 2019.04 L2246.19 2019.42 L2249.16 2019.79 L2252.13 2020.03 L2254.97 2020.41 L2257.94 2020.78 L2260.79 2021.02 L2263.76 2021.40 L2266.61 2021.77 L2269.57 2022.01 L2272.42 2022.39 L2275.39 2022.63 L2278.24 2023.00 L2281.21 2023.25 L2284.05 2023.62 L2287.02 2023.87 L2289.99 2024.24 L2292.84 2024.49 L2295.81 2024.86 L2298.66 2025.11 L2301.63 2025.48 L2304.47 2025.73 L2307.44 2025.97 L2310.29 2026.35 L2313.26 2026.59 L2316.11 2026.84 L2319.07 2027.21 L2321.92 2027.46 L2324.89 2027.71 L2327.86 2028.08 L2330.71 2028.33 L2333.68 2028.57 L2336.52 2028.94 L2339.49 2029.19 L2342.34 2029.44 L2345.31 2029.69 L2348.16 2029.93 L2351.13 2030.31 L2353.97 2030.55 L2356.94 2030.80 L2359.79 2031.05 L2362.76 2031.30 L2365.73 2031.67 L2368.57 2031.91 L2371.55 2032.16 L2374.39 2032.41 L2377.36 2032.66 L2380.21 2032.90 L2383.18 2033.15 L2386.02 2033.40 L2388.99 2033.65 L2391.84 2033.89 L2394.81 2034.14 L2397.66 2034.39 L2400.63 2034.64 L2403.60 2034.88 L2406.44 2035.13 L2409.41 2035.38 L2412.26 2035.63 L2415.23 2035.87 L2418.07 2036.12 L2421.05 2036.37 L2423.89 2036.62 L2426.86 2036.86 L2429.71 2037.11 L2432.68 2037.36 L2435.52 2037.61 L2438.49 2037.73 L2441.46 2037.98 L2444.31 2038.23 L2447.28 2038.47 L2450.13 2038.72 L2453.10 2038.97 L2455.94 2039.09 L2458.91 2039.34 L2461.76 2039.59 L2464.73 2039.83 L2467.57 2040.08 L2470.55 2040.21 L2473.39 2040.45 L2476.36 2040.70 L2479.33 2040.95 L2482.18 2041.07 L2485.15 2041.32 L2487.99 2041.57 L2490.96 2041.82 L2493.81 2041.94 L2496.78 2042.19 L2499.63 2042.43 L2502.60 2042.56 L2505.44 2042.81 L2508.41 2043.05 L2511.26 2043.18 L2514.23 2043.42 L2517.20 2043.67 L2520.05 2043.80 L2523.01 2044.04 L2525.86 2044.17 L2528.83 2044.41 L2531.68 2044.66 L2534.65 2044.79 L2537.49 2045.03 L2540.46 2045.16 L2543.31 2045.40 L2546.28 2045.65 L2549.13 2045.78 L2552.10 2046.02 L2555.07 2046.15 L2557.91 2046.39 L2560.88 2046.52 L2563.73 2046.77 L2566.70 2046.89 L2569.55 2047.14 L2572.51 2047.26 L2575.36 2047.51 L2578.33 2047.63 L2581.18 2047.88 L2584.15 2048.00 L2586.99 2048.25 L2589.96 2048.37 L2592.93 2048.62 L2595.78 2048.75 L2598.75 2048.87 L2601.60 2049.12 L2604.57 2049.24 L2607.41 2049.49 L2610.38 2049.61 L2613.23 2049.86 L2616.20 2049.98 L2619.05 2050.11 L2622.01 2050.35 L2624.86 2050.48 L2627.83 2050.73 L2630.80 2050.85 L2633.65 2050.97 L2636.62 2051.22 L2639.46 2051.34 L2642.43 2051.47 L2645.28 2051.72 L2648.25 2051.84 L2651.10 2051.96 L2654.07 2052.21 L2656.91 2052.33 L2659.88 2052.46 L2662.85 2052.71 L2665.70 2052.83 L2668.67 2052.95 L2671.51 2053.08 L2674.49 2053.32 L2677.33 2053.45 L2680.30 2053.57 L2683.15 2053.82 L2686.12 2053.94 L2688.96 2054.07 L2691.93 2054.19 L2694.78 2054.44 L2697.75 2054.56 L2700.72 2054.69 L2703.57 2054.81 L2706.54 2055.06 L2709.38 2055.18 L2712.35 2055.30 L2715.20 2055.43 L2718.17 2055.55 L2721.01 2055.80 L2723.99 2055.92 L2726.83 2056.05 L2729.80 2056.17 L2732.65 2056.29 L2735.62 2056.54 L2738.59 2056.67 L2741.43 2056.79 L2744.40 2056.91 L2747.25 2057.04 L2750.22 2057.16 L2753.07 2057.41 L2756.04 2057.53 L2758.88 2057.66 L2761.85 2057.78 L2764.70 2057.90 L2767.67 2058.03 L2770.51 2058.15 L2773.49 2058.27 L2776.45 2058.52 L2779.30 2058.65 L2782.27 2058.77 L2785.12 2058.89 L2788.09 2059.02 L2790.93 2059.14 L2793.90 2059.26 L2796.75 2059.39 L2799.72 2059.51 L2802.57 2059.64 L2805.54 2059.76 L2808.38 2060.01 L2811.35 2060.13 L2814.32 2060.25 L2817.17 2060.38 L2820.14 2060.50 L2822.99 2060.63 L2825.95 2060.75 L2828.80 2060.87 L2831.77 2061.00 L2834.62 2061.12 L2837.59 2061.24 L2840.43 2061.37 L2843.40 2061.49 L2846.25 2061.62 L2849.22 2061.74 L2852.19 2061.86 L2855.04 2061.99 L2858.01 2062.11 L2860.85 2062.23 L2863.82 2062.36 L2866.67 2062.48 L2869.64 2062.61 L2872.49 2062.73 L2875.45 2062.85 L2878.30 2062.98 L2881.27 2063.10 L2884.12 2063.22 L2887.09 2063.35 L2890.06 2063.47 L2892.90 2063.60 L2895.87 2063.72 L2898.72 2063.84 L2901.69 2063.97 L2904.54 2064.09 L2907.51 2064.09 L2910.35 2064.21 L2913.32 2064.34 L2916.17 2064.46 L2919.14 2064.59 L2921.99 2064.71 L2924.95 2064.83 L2927.93 2064.96 L2930.77 2065.08 L2933.74 2065.20 L2936.59 2065.33 L2939.56 2065.45 L2942.40 2065.58 L2945.37 2065.58 L2948.22 2065.70 L2951.19 2065.82 L2954.04 2065.95 L2957.01 2066.07 L2959.85 2066.19 L2962.82 2066.32 L2965.79 2066.44 L2968.64 2066.44 L2971.61 2066.57 L2974.45 2066.69 L2977.43 2066.81 L2980.27 2066.94 L2983.24 2067.06 L2986.09 2067.18 L2989.06 2067.18 L2991.90 2067.31 L2994.87 2067.43 L2997.72 2067.56 L3000.69 2067.68 L3003.66 2067.80 L3006.51 2067.93 L3009.48 2067.93 L3012.32 2068.05 L3015.29 2068.17 L3018.14 2068.30 L3021.11 2068.42 L3023.95 2068.42 L3026.93 2068.55 L3029.77 2068.67 L3032.74 2068.79 L3035.59 2068.92 L3038.56 2068.92 L3041.53 2069.04 L3044.37 2069.16 L3047.34 2069.29 L3050.19 2069.41 L3053.16 2069.41 L3056.01 2069.54 L3058.98 2069.66 L3061.82 2069.78 L3064.79 2069.91 L3067.64 2069.91 L3070.61 2070.03 L3073.45 2070.15 L3076.43 2070.28 L3079.39 2070.28 L3082.24 2070.40 L3085.21 2070.53 L3088.06 2070.65 L3091.03 2070.77 L3093.87 2070.77 L3096.84 2070.90 L3099.69 2071.02 L3102.66 2071.14 L3105.51 2071.14 L3108.48 2071.27 L3111.32 2071.39 L3114.29 2071.39 L3117.26 2071.52 L3120.11 2071.64 L3123.08 2071.76 L3125.93 2071.76 L3128.89 2071.89 L3131.74 2072.01 L3134.71 2072.13 L3137.56 2072.13 L3140.53 2072.26 L3143.37 2072.38 L3146.34 2072.38 L3149.31 2072.51 L3152.16 2072.63 L3155.13 2072.75 L3157.98 2072.75 L3160.95 2072.88 L3163.79 2073.00 L3166.76 2073.00 L3169.61 2073.12 L3172.58 2073.25 L3175.43 2073.25 L3178.39 2073.37 L3181.24 2073.50 L3184.21 2073.50 L3187.18 2073.62 L3190.03 2073.74 L3193.00 2073.87 L3195.84 2073.87 L3198.81 2073.99 L3201.66 2074.11 L3204.63 2074.11 L3207.48 2074.24 L3210.45 2074.36 L3213.29 2074.36 L3216.26 2074.49 L3219.11 2074.61 L3222.08 2074.61 L3225.05 2074.73 L3227.89 2074.73 L3230.86 2074.86 L3233.71 2074.98 L3236.68 2074.98 L3239.53 2075.10 L3242.50 2075.23 L3245.34 2075.23" stroke-linejoin="round" style="fill:none;stroke:#006000;stroke-width:8.64"/>
	<path d=" M1185.90 185.51 L1188.87 546.00 L1191.71 799.57 L1194.68 987.80 L1197.53 1132.97 L1200.50 1248.43 L1203.47 1342.36 L1206.32 1420.32 L1209.29 1486.04 L1212.13 1542.10 L1215.10 1590.73 L1217.95 1633.06 L1220.92 1670.43 L1223.76 1703.47 L1226.73 1733.05 L1229.58 1759.66 L1232.55 1783.66 L1235.40 1805.57 L1238.37 1825.37 L1241.34 1843.69 L1244.18 1860.39 L1247.15 1875.86 L1250.00 1890.09 L1252.97 1903.33 L1255.82 1915.71 L1258.79 1927.22 L1261.63 1937.99 L1264.60 1948.13 L1267.45 1957.54 L1270.42 1966.45 L1273.26 1974.86 L1276.23 1982.78 L1279.20 1990.21 L1282.05 1997.39 L1285.02 2004.07 L1287.87 2010.51 L1290.84 2016.57 L1293.68 2022.39 L1296.65 2027.83 L1299.50 2033.15 L1302.47 2038.10 L1305.32 2042.93 L1308.29 2047.63 L1311.13 2051.96 L1314.10 2056.17 L1317.07 2060.25 L1319.92 2064.21 L1322.89 2067.93 L1325.73 2071.52 L1328.70 2074.98 L1331.55 2078.32 L1334.52 2081.54 L1337.37 2084.63 L1340.34 2087.73 L1343.18 2090.57 L1346.15 2093.42 L1349.00 2096.14 L1351.97 2098.74 L1354.94 2101.22 L1357.79 2103.69 L1360.76 2106.17 L1363.60 2108.39 L1366.57 2110.62 L1369.42 2112.85 L1372.39 2114.95 L1375.23 2117.06 L1378.20 2119.04 L1381.05 2120.89 L1384.02 2122.87 L1386.87 2124.73 L1389.84 2126.46 L1392.81 2128.20 L1395.65 2129.93 L1398.62 2131.54 L1401.47 2133.15 L1404.44 2134.75 L1407.29 2136.24 L1410.26 2137.72 L1413.10 2139.21 L1416.07 2140.57 L1418.92 2142.06 L1421.89 2143.29 L1424.73 2144.65 L1427.70 2146.02 L1430.67 2147.25 L1433.52 2148.49 L1436.49 2149.73 L1439.34 2150.84 L1442.31 2151.96 L1445.15 2153.19 L1448.12 2154.31 L1450.97 2155.30 L1453.94 2156.41 L1456.79 2157.40 L1459.76 2158.51 L1462.60 2159.50 L1465.57 2160.50 L1468.54 2161.36 L1471.39 2162.35 L1474.36 2163.22 L1477.20 2164.21 L1480.17 2165.07 L1483.02 2165.94 L1485.99 2166.81 L1488.84 2167.67 L1491.81 2168.42 L1494.65 2169.28 L1497.62 2170.02 L1500.47 2170.89 L1503.44 2171.63 L1506.41 2172.38 L1509.26 2173.12 L1512.22 2173.86 L1515.07 2174.60 L1518.04 2175.22 L1520.89 2175.96 L1523.86 2176.58 L1526.70 2177.33 L1529.67 2177.94 L1532.52 2178.56 L1535.49 2179.31 L1538.34 2179.92 L1541.31 2180.54 L1544.28 2181.04 L1547.12 2181.66 L1550.09 2182.28 L1552.94 2182.89 L1555.91 2183.39 L1558.76 2184.01 L1561.72 2184.50 L1564.57 2185.12 L1567.54 2185.62 L1570.39 2186.11 L1573.36 2186.73 L1576.20 2187.23 L1579.17 2187.72 L1582.14 2188.22 L1584.99 2188.71 L1587.96 2189.21 L1590.81 2189.70 L1593.78 2190.20 L1596.62 2190.57 L1599.59 2191.06 L1602.44 2191.56 L1605.41 2191.93 L1608.26 2192.42 L1611.22 2192.79 L1614.07 2193.29 L1617.04 2193.66 L1620.01 2194.16 L1622.86 2194.53 L1625.83 2194.90 L1628.67 2195.39 L1631.64 2195.76 L1634.49 2196.14 L1637.46 2196.51 L1640.31 2196.88 L1643.28 2197.25 L1646.12 2197.62 L1649.09 2197.99 L1651.94 2198.36 L1654.91 2198.73 L1657.88 2199.11 L1660.72 2199.48 L1663.69 2199.85 L1666.54 2200.22 L1669.51 2200.47 L1672.36 2200.84 L1675.33 2201.21 L1678.17 2201.46 L1681.14 2201.83 L1683.99 2202.20 L1686.96 2202.45 L1689.93 2202.82 L1692.78 2203.07 L1695.75 2203.44 L1698.59 2203.69 L1701.56 2203.93 L1704.41 2204.30 L1707.38 2204.55 L1710.22 2204.92 L1713.19 2205.17 L1716.04 2205.42 L1719.01 2205.67 L1721.86 2206.04 L1724.83 2206.28 L1727.80 2206.53 L1730.64 2206.78 L1733.61 2207.03 L1736.46 2207.40 L1739.43 2207.65 L1742.28 2207.89 L1745.25 2208.14 L1748.09 2208.39 L1751.06 2208.64 L1753.91 2208.88 L1756.88 2209.13 L1759.72 2209.38 L1762.69 2209.63 L1765.66 2209.87 L1768.51 2210.12 L1771.48 2210.37 L1774.33 2210.49 L1777.30 2210.74 L1780.14 2210.99 L1783.11 2211.23 L1785.96 2211.48 L1788.93 2211.73 L1791.78 2211.85 L1794.75 2212.10 L1797.59 2212.35 L1800.56 2212.47 L1803.53 2212.72 L1806.38 2212.97 L1809.35 2213.21 L1812.19 2213.34 L1815.16 2213.59 L1818.01 2213.71 L1820.98 2213.96 L1823.83 2214.20 L1826.80 2214.33 L1829.64 2214.58 L1832.61 2214.70 L1835.46 2214.95 L1838.43 2215.07 L1841.40 2215.32 L1844.25 2215.44 L1847.22 2215.69 L1850.06 2215.81 L1853.03 2216.06 L1855.88 2216.18 L1858.85 2216.43 L1861.69 2216.56 L1864.66 2216.80 L1867.51 2216.93 L1870.48 2217.05 L1873.33 2217.30 L1876.30 2217.42 L1879.27 2217.55 L1882.11 2217.79 L1885.08 2217.92 L1887.93 2218.04 L1890.90 2218.29 L1893.75 2218.41 L1896.72 2218.54 L1899.56 2218.78 L1902.53 2218.91 L1905.38 2219.03 L1908.35 2219.15 L1911.19 2219.40 L1914.16 2219.53 L1917.13 2219.65 L1919.98 2219.77 L1922.95 2220.02 L1925.80 2220.14 L1928.77 2220.27 L1931.61 2220.39 L1934.58 2220.52 L1937.43 2220.64 L1940.40 2220.89 L1943.25 2221.01 L1946.22 2221.13 L1949.06 2221.26 L1952.03 2221.38 L1955.00 2221.51 L1957.85 2221.63 L1960.82 2221.75 L1963.66 2221.88 L1966.63 2222.12 L1969.48 2222.25 L1972.45 2222.37 L1975.30 2222.50 L1978.27 2222.62 L1981.11 2222.74 L1984.08 2222.87 L1986.93 2222.99 L1989.90 2223.11 L1992.87 2223.24 L1995.72 2223.36 L1998.69 2223.49 L2001.53 2223.61 L2004.50 2223.73 L2007.35 2223.86 L2010.32 2223.98 L2013.16 2224.10 L2016.13 2224.23 L2018.98 2224.35 L2021.95 2224.48 L2024.80 2224.48 L2027.77 2224.60 L2030.74 2224.72 L2033.58 2224.85 L2036.55 2224.97 L2039.40 2225.09 L2042.37 2225.22 L2045.22 2225.34 L2048.19 2225.47 L2051.03 2225.59 L2054.00 2225.59 L2056.85 2225.71 L2059.82 2225.84 L2062.66 2225.96 L2065.64 2226.08 L2068.61 2226.21 L2071.45 2226.33 L2074.42 2226.33 L2077.27 2226.46 L2080.24 2226.58 L2083.08 2226.70 L2086.05 2226.83 L2088.90 2226.83 L2091.87 2226.95 L2094.72 2227.07 L2097.69 2227.20 L2100.53 2227.32 L2103.50 2227.32 L2106.47 2227.45 L2109.32 2227.57 L2112.29 2227.69 L2115.14 2227.69 L2118.11 2227.82 L2120.95 2227.94 L2123.92 2228.06 L2126.77 2228.06 L2129.74 2228.19 L2132.58 2228.31 L2135.55 2228.44 L2138.40 2228.44 L2141.37 2228.56 L2144.34 2228.68 L2147.19 2228.81 L2150.16 2228.81 L2153.00 2228.93 L2155.97 2229.05 L2158.82 2229.05 L2161.79 2229.18 L2164.64 2229.30 L2167.61 2229.30 L2170.45 2229.43 L2173.42 2229.55 L2176.39 2229.55 L2179.24 2229.67 L2182.21 2229.80 L2185.05 2229.80 L2188.02 2229.92 L2190.87 2230.04 L2193.84 2230.04 L2196.69 2230.17 L2199.66 2230.29 L2202.50 2230.29 L2205.47 2230.42 L2208.32 2230.54 L2211.29 2230.54 L2214.26 2230.66 L2217.11 2230.66 L2220.07 2230.79 L2222.92 2230.91 L2225.89 2230.91 L2228.74 2231.03 L2231.71 2231.16 L2234.55 2231.16 L2237.52 2231.28 L2240.37 2231.28 L2243.34 2231.41 L2246.19 2231.41 L2249.16 2231.53 L2252.13 2231.65 L2254.97 2231.65 L2257.94 2231.78 L2260.79 2231.78 L2263.76 2231.90 L2266.61 2231.90 L2269.57 2232.02 L2272.42 2232.15 L2275.39 2232.15 L2278.24 2232.27 L2281.21 2232.27 L2284.05 2232.40 L2287.02 2232.40 L2289.99 2232.52 L2292.84 2232.52 L2295.81 2232.64 L2298.66 2232.77 L2301.63 2232.77 L2304.47 2232.89 L2307.44 2232.89 L2310.29 2233.01 L2313.26 2233.01 L2316.11 2233.14 L2319.07 2233.14 L2321.92 2233.26 L2324.89 2233.26 L2327.86 2233.39 L2330.71 2233.39 L2333.68 2233.51 L2336.52 2233.51 L2339.49 2233.63 L2342.34 2233.63 L2345.31 2233.76 L2348.16 2233.76 L2351.13 2233.88 L2353.97 2233.88 L2356.94 2234.00 L2359.79 2234.00 L2362.76 2234.13 L2365.73 2234.13 L2368.57 2234.25 L2371.55 2234.25 L2374.39 2234.25 L2377.36 2234.38 L2380.21 2234.38 L2383.18 2234.50 L2386.02 2234.50 L2388.99 2234.62 L2391.84 2234.62 L2394.81 2234.75 L2397.66 2234.75 L2400.63 2234.87 L2403.60 2234.87 L2406.44 2234.87 L2409.41 2234.99 L2412.26 2234.99 L2415.23 2235.12 L2418.07 2235.12 L2421.05 2235.24 L2423.89 2235.24 L2426.86 2235.37 L2429.71 2235.37 L2432.68 2235.37 L2435.52 2235.49 L2438.49 2235.49 L2441.46 2235.61 L2444.31 2235.61 L2447.28 2235.61 L2450.13 2235.74 L2453.10 2235.74 L2455.94 2235.86 L2458.91 2235.86 L2461.76 2235.98 L2464.73 2235.98 L2467.57 2235.98 L2470.55 2236.11 L2473.39 2236.11 L2476.36 2236.23 L2479.33 2236.23 L2482.18 2236.23 L2485.15 2236.36 L2487.99 2236.36 L2490.96 2236.36 L2493.81 2236.48 L2496.78 2236.48 L2499.63 2236.60 L2502.60 2236.60 L2505.44 2236.60 L2508.41 2236.73 L2511.26 2236.73 L2514.23 2236.85 L2517.20 2236.85 L2520.05 2236.85 L2523.01 2236.97 L2525.86 2236.97 L2528.83 2236.97 L2531.68 2237.10 L2534.65 2237.10 L2537.49 2237.10 L2540.46 2237.22 L2543.31 2237.22 L2546.28 2237.35 L2549.13 2237.35 L2552.10 2237.35 L2555.07 2237.47 L2557.91 2237.47 L2560.88 2237.47 L2563.73 2237.59 L2566.70 2237.59 L2569.55 2237.59 L2572.51 2237.72 L2575.36 2237.72 L2578.33 2237.72 L2581.18 2237.84 L2584.15 2237.84 L2586.99 2237.84 L2589.96 2237.96 L2592.93 2237.96 L2595.78 2237.96 L2598.75 2238.09 L2601.60 2238.09 L2604.57 2238.09 L2607.41 2238.21 L2610.38 2238.21 L2613.23 2238.21 L2616.20 2238.34 L2619.05 2238.34 L2622.01 2238.34 L2624.86 2238.46 L2627.83 2238.46 L2630.80 2238.46 L2633.65 2238.58 L2636.62 2238.58 L2639.46 2238.58 L2642.43 2238.71 L2645.28 2238.71 L2648.25 2238.71 L2651.10 2238.83 L2654.07 2238.83 L2656.91 2238.83 L2659.88 2238.83 L2662.85 2238.95 L2665.70 2238.95 L2668.67 2238.95 L2671.51 2239.08 L2674.49 2239.08 L2677.33 2239.08 L2680.30 2239.20 L2683.15 2239.20 L2686.12 2239.20 L2688.96 2239.20 L2691.93 2239.33 L2694.78 2239.33 L2697.75 2239.33 L2700.72 2239.45 L2703.57 2239.45 L2706.54 2239.45 L2709.38 2239.45 L2712.35 2239.57 L2715.20 2239.57 L2718.17 2239.57 L2721.01 2239.70 L2723.99 2239.70 L2726.83 2239.70 L2729.80 2239.70 L2732.65 2239.82 L2735.62 2239.82 L2738.59 2239.82 L2741.43 2239.94 L2744.40 2239.94 L2747.25 2239.94 L2750.22 2239.94 L2753.07 2240.07 L2756.04 2240.07 L2758.88 2240.07 L2761.85 2240.07 L2764.70 2240.19 L2767.67 2240.19 L2770.51 2240.19 L2773.49 2240.32 L2776.45 2240.32 L2779.30 2240.32 L2782.27 2240.32 L2785.12 2240.44 L2788.09 2240.44 L2790.93 2240.44 L2793.90 2240.44 L2796.75 2240.56 L2799.72 2240.56 L2802.57 2240.56 L2805.54 2240.56 L2808.38 2240.69 L2811.35 2240.69 L2814.32 2240.69 L2817.17 2240.69 L2820.14 2240.81 L2822.99 2240.81 L2825.95 2240.81 L2828.80 2240.81 L2831.77 2240.94 L2834.62 2240.94 L2837.59 2240.94 L2840.43 2240.94 L2843.40 2241.06 L2846.25 2241.06 L2849.22 2241.06 L2852.19 2241.06 L2855.04 2241.18 L2858.01 2241.18 L2860.85 2241.18 L2863.82 2241.18 L2866.67 2241.18 L2869.64 2241.31 L2872.49 2241.31 L2875.45 2241.31 L2878.30 2241.31 L2881.27 2241.43 L2884.12 2241.43 L2887.09 2241.43 L2890.06 2241.43 L2892.90 2241.55 L2895.87 2241.55 L2898.72 2241.55 L2901.69 2241.55 L2904.54 2241.55 L2907.51 2241.68 L2910.35 2241.68 L2913.32 2241.68 L2916.17 2241.68 L2919.14 2241.80 L2921.99 2241.80 L2924.95 2241.80 L2927.93 2241.80 L2930.77 2241.80 L2933.74 2241.93 L2936.59 2241.93 L2939.56 2241.93 L2942.40 2241.93 L2945.37 2242.05 L2948.22 2242.05 L2951.19 2242.05 L2954.04 2242.05 L2957.01 2242.05 L2959.85 2242.17 L2962.82 2242.17 L2965.79 2242.17 L2968.64 2242.17 L2971.61 2242.17 L2974.45 2242.30 L2977.43 2242.30 L2980.27 2242.30 L2983.24 2242.30 L2986.09 2242.30 L2989.06 2242.42 L2991.90 2242.42 L2994.87 2242.42 L2997.72 2242.42 L3000.69 2242.42 L3003.66 2242.54 L3006.51 2242.54 L3009.48 2242.54 L3012.32 2242.54 L3015.29 2242.54 L3018.14 2242.67 L3021.11 2242.67 L3023.95 2242.67 L3026.93 2242.67 L3029.77 2242.67 L3032.74 2242.79 L3035.59 2242.79 L3038.56 2242.79 L3041.53 2242.79 L3044.37 2242.79 L3047.34 2242.92 L3050.19 2242.92 L3053.16 2242.92 L3056.01 2242.92 L3058.98 2242.92 L3061.82 2243.04 L3064.79 2243.04 L3067.64 2243.04 L3070.61 2243.04 L3073.45 2243.04 L3076.43 2243.16 L3079.39 2243.16 L3082.24 2243.16 L3085.21 2243.16 L3088.06 2243.16 L3091.03 2243.16 L3093.87 2243.29 L3096.84 2243.29 L3099.69 2243.29 L3102.66 2243.29 L3105.51 2243.29 L3108.48 2243.41 L3111.32 2243.41 L3114.29 2243.41 L3117.26 2243.41 L3120.11 2243.41 L3123.08 2243.41 L3125.93 2243.53 L3128.89 2243.53 L3131.74 2243.53 L3134.71 2243.53 L3137.56 2243.53 L3140.53 2243.53 L3143.37 2243.66 L3146.34 2243.66 L3149.31 2243.66 L3152.16 2243.66 L3155.13 2243.66 L3157.98 2243.78 L3160.95 2243.78 L3163.79 2243.78 L3166.76 2243.78 L3169.61 2243.78 L3172.58 2243.78 L3175.43 2243.91 L3178.39 2243.91 L3181.24 2243.91 L3184.21 2243.91 L3187.18 2243.91 L3190.03 2243.91 L3193.00 2244.03 L3195.84 2244.03 L3198.81 2244.03 L3201.66 2244.03 L3204.63 2244.03 L3207.48 2244.03 L3210.45 2244.15 L3213.29 2244.15 L3216.26 2244.15 L3219.11 2244.15 L3222.08 2244.15 L3225.05 2244.15 L3227.89 2244.15 L3230.86 2244.28 L3233.71 2244.28 L3236.68 2244.28 L3239.53 2244.28 L3242.50 2244.28 L3245.34 2244.28" stroke-linejoin="round" style="fill:none;stroke:#FF4500;stroke-width:8.64"/>
	<circle cx="1340.34" cy="2086.49" r="26.35" style="fill:#1A476F"/>
	<circle cx="1340.34" cy="2086.49" r="22.03" style="fill:none;stroke:#1A476F;stroke-width:8.64"/>
	<text x="1411.37" y="2045.53" style="font-family:'Helvetica';font-size:79.94px;fill:#1A476f">E-value (CI): (1.84, 1.84)</text>
	<circle cx="1617.16" cy="1804.33" r="26.35" style="fill:#90353B"/>
	<circle cx="1617.16" cy="1804.33" r="22.03" style="fill:none;stroke:#90353B;stroke-width:8.64"/>
	<text x="1688.20" y="1763.37" style="font-family:'Helvetica';font-size:79.94px;fill:#90353b">E-value: (2.79, 2.79)</text>
	<line x1="1122.66" y1="2307.64" x2="1122.66" y2="100.86" style="stroke:#000000;stroke-width:5.76"/>
	<line x1="1122.66" y1="2038.97" x2="1082.69" y2="2038.97" style="stroke:#000000;stroke-width:5.76"/>
	<text x="1032.58" y="2038.97" style="font-family:'Helvetica';font-size:99.99px;fill:#000000" transform="rotate(-90 1032.58,2038.97)" text-anchor="middle">2</text>
	<line x1="1122.66" y1="1444.83" x2="1082.69" y2="1444.83" style="stroke:#000000;stroke-width:5.76"/>
	<text x="1032.58" y="1444.83" style="font-family:'Helvetica';font-size:99.99px;fill:#000000" transform="rotate(-90 1032.58,1444.83)" text-anchor="middle">4</text>
	<line x1="1122.66" y1="850.68" x2="1082.69" y2="850.68" style="stroke:#000000;stroke-width:5.76"/>
	<text x="1032.58" y="850.68" style="font-family:'Helvetica';font-size:99.99px;fill:#000000" transform="rotate(-90 1032.58,850.68)" text-anchor="middle">6</text>
	<line x1="1122.66" y1="256.54" x2="1082.69" y2="256.54" style="stroke:#000000;stroke-width:5.76"/>
	<text x="1032.58" y="256.54" style="font-family:'Helvetica';font-size:99.99px;fill:#000000" transform="rotate(-90 1032.58,256.54)" text-anchor="middle">8</text>
	<text x="827.85" y="1204.25" style="font-family:'Helvetica';font-size:79.94px;fill:#000000" transform="rotate(-90 827.85,1204.25)" text-anchor="middle">Risk ratio for confounder-outcome relationship</text>
	<line x1="1122.66" y1="2307.64" x2="3308.83" y2="2307.64" style="stroke:#000000;stroke-width:5.76"/>
	<line x1="1386.99" y1="2307.64" x2="1386.99" y2="2347.61" style="stroke:#000000;stroke-width:5.76"/>
	<text x="1386.99" y="2437.59" style="font-family:'Helvetica';font-size:99.99px;fill:#000000" text-anchor="middle">2</text>
	<line x1="1969.61" y1="2307.64" x2="1969.61" y2="2347.61" style="stroke:#000000;stroke-width:5.76"/>
	<text x="1969.61" y="2437.59" style="font-family:'Helvetica';font-size:99.99px;fill:#000000" text-anchor="middle">4</text>
	<line x1="2552.22" y1="2307.64" x2="2552.22" y2="2347.61" style="stroke:#000000;stroke-width:5.76"/>
	<text x="2552.22" y="2437.59" style="font-family:'Helvetica';font-size:99.99px;fill:#000000" text-anchor="middle">6</text>
	<line x1="3134.71" y1="2307.64" x2="3134.71" y2="2347.61" style="stroke:#000000;stroke-width:5.76"/>
	<text x="3134.71" y="2437.59" style="font-family:'Helvetica';font-size:99.99px;fill:#000000" text-anchor="middle">8</text>
	<text x="2215.74" y="2634.31" style="font-family:'Helvetica';font-size:79.94px;fill:#000000" text-anchor="middle">Risk ratio for exposure-confounder relationship</text>
</svg>
