<?xml version="1.0" encoding="UTF-8" standalone="no"?>
<!-- This is a Stata 16.1 generated SVG file (http://www.stata.com) -->

<svg version="1.1" width="5.50in" height="4.00in" viewBox="0 0 3960 2880" xmlns="http://www.w3.org/2000/svg" xmlns:xlink="http://www.w3.org/1999/xlink">
	<desc>Stata Graph - Graph</desc>
	<rect x="0" y="0" width="3960" height="2880" style="fill:#FFFFFF;stroke:none"/>
	<rect x="0.00" y="0.00" width="3959.88" height="2880.00" style="fill:#FFFFFF"/>
	<rect x="2.88" y="2.88" width="3954.12" height="2874.24" style="fill:none;stroke:#FFFFFF;stroke-width:5.76"/>
	<rect x="1125.54" y="103.74" width="2180.41" height="2201.02" style="fill:none;stroke:#000000;stroke-width:5.76"/>
	<path d=" M1584.99 164.22 L1587.46 305.92 L1590.06 427.94 L1592.66 534.37 L1595.26 627.80 L1597.86 710.59 L1600.34 784.48 L1602.93 850.68 L1605.53 910.46 L1608.13 964.79 L1610.73 1014.16 L1613.20 1059.33 L1615.80 1100.91 L1618.40 1139.15 L1621.00 1174.55 L1623.60 1207.34 L1626.20 1237.79 L1628.67 1266.25 L1631.27 1292.86 L1633.87 1317.73 L1636.47 1341.00 L1639.07 1363.03 L1641.54 1383.69 L1644.14 1403.25 L1646.74 1421.68 L1649.34 1439.13 L1651.94 1455.72 L1654.41 1471.43 L1657.01 1486.41 L1659.61 1500.52 L1662.21 1514.13 L1664.81 1527.00 L1667.28 1539.37 L1669.88 1551.25 L1672.48 1562.52 L1675.08 1573.28 L1677.68 1583.68 L1680.15 1593.70 L1682.75 1603.23 L1685.35 1612.39 L1687.95 1621.30 L1690.55 1629.71 L1693.02 1638.01 L1695.62 1645.93 L1698.22 1653.48 L1700.82 1660.90 L1703.42 1667.95 L1705.89 1674.88 L1708.49 1681.44 L1711.09 1687.88 L1713.69 1694.07 L1716.29 1700.13 L1718.76 1705.95 L1721.36 1711.64 L1723.96 1717.08 L1726.56 1722.41 L1729.16 1727.60 L1731.63 1732.68 L1734.23 1737.50 L1736.83 1742.21 L1739.43 1746.91 L1742.03 1751.36 L1744.50 1755.70 L1747.10 1759.90 L1749.70 1764.11 L1752.30 1768.20 L1754.90 1772.03 L1757.37 1775.87 L1759.97 1779.58 L1762.57 1783.29 L1765.17 1786.88 L1767.77 1790.35 L1770.24 1793.69 L1772.84 1797.03 L1775.44 1800.25 L1778.04 1803.34 L1780.64 1806.44 L1783.11 1809.53 L1785.71 1812.50 L1788.31 1815.35 L1790.91 1818.19 L1793.51 1820.91 L1795.98 1823.64 L1798.58 1826.24 L1801.18 1828.83 L1803.78 1831.43 L1806.38 1833.91 L1808.85 1836.38 L1811.45 1838.73 L1814.05 1841.09 L1816.65 1843.31 L1819.25 1845.67 L1821.72 1847.77 L1824.32 1850.00 L1826.92 1852.10 L1829.52 1854.20 L1832.12 1856.31 L1834.72 1858.29 L1837.19 1860.27 L1839.79 1862.25 L1842.39 1864.10 L1844.99 1865.96 L1847.59 1867.82 L1850.06 1869.67 L1852.66 1871.41 L1855.26 1873.14 L1857.86 1874.87 L1860.46 1876.60 L1862.93 1878.21 L1865.53 1879.82 L1868.13 1881.43 L1870.73 1883.04 L1873.33 1884.52 L1875.80 1886.13 L1878.40 1887.62 L1881.00 1889.10 L1883.60 1890.59 L1886.20 1891.95 L1888.67 1893.43 L1891.27 1894.80 L1893.87 1896.16 L1896.47 1897.52 L1899.07 1898.88 L1901.54 1900.12 L1904.14 1901.48 L1906.74 1902.72 L1909.34 1903.95 L1911.94 1905.19 L1914.41 1906.43 L1917.01 1907.67 L1919.61 1908.78 L1922.21 1910.02 L1924.81 1911.13 L1927.28 1912.24 L1929.88 1913.36 L1932.48 1914.47 L1935.08 1915.59 L1937.68 1916.70 L1940.15 1917.69 L1942.75 1918.80 L1945.35 1919.79 L1947.95 1920.91 L1950.55 1921.90 L1953.02 1922.89 L1955.62 1923.88 L1958.22 1924.74 L1960.82 1925.73 L1963.42 1926.72 L1965.89 1927.59 L1968.49 1928.58 L1971.09 1929.45 L1973.69 1930.44 L1976.29 1931.30 L1978.76 1932.17 L1981.36 1933.04 L1983.96 1933.90 L1986.56 1934.77 L1989.16 1935.51 L1991.63 1936.38 L1994.23 1937.24 L1996.83 1937.99 L1999.43 1938.85 L2002.03 1939.59 L2004.50 1940.34 L2007.10 1941.20 L2009.70 1941.95 L2012.30 1942.69 L2014.90 1943.43 L2017.37 1944.17 L2019.97 1944.92 L2022.57 1945.66 L2025.17 1946.28 L2027.77 1947.02 L2030.24 1947.76 L2032.84 1948.38 L2035.44 1949.12 L2038.04 1949.74 L2040.64 1950.48 L2043.24 1951.10 L2045.71 1951.72 L2048.31 1952.34 L2050.91 1953.08 L2053.51 1953.70 L2056.11 1954.32 L2058.58 1954.94 L2061.18 1955.56 L2063.78 1956.18 L2066.38 1956.80 L2068.98 1957.41 L2071.45 1957.91 L2074.05 1958.53 L2076.65 1959.15 L2079.25 1959.64 L2081.85 1960.26 L2084.32 1960.88 L2086.92 1961.38 L2089.52 1961.87 L2092.12 1962.49 L2094.72 1962.98 L2097.19 1963.60 L2099.79 1964.10 L2102.39 1964.59 L2104.99 1965.09 L2107.59 1965.71 L2110.06 1966.20 L2112.66 1966.70 L2115.26 1967.19 L2117.86 1967.69 L2120.46 1968.18 L2122.93 1968.68 L2125.53 1969.17 L2128.13 1969.67 L2130.73 1970.16 L2133.33 1970.53 L2135.80 1971.03 L2138.40 1971.52 L2141.00 1972.02 L2143.60 1972.39 L2146.20 1972.88 L2148.67 1973.38 L2151.27 1973.75 L2153.87 1974.25 L2156.47 1974.62 L2159.07 1975.11 L2161.54 1975.48 L2164.14 1975.98 L2166.74 1976.35 L2169.34 1976.72 L2171.94 1977.22 L2174.41 1977.59 L2177.01 1977.96 L2179.61 1978.45 L2182.21 1978.82 L2184.81 1979.20 L2187.28 1979.57 L2189.88 1979.94 L2192.48 1980.43 L2195.08 1980.80 L2197.68 1981.18 L2200.15 1981.55 L2202.75 1981.92 L2205.35 1982.29 L2207.95 1982.66 L2210.55 1983.03 L2213.02 1983.40 L2215.62 1983.77 L2218.22 1984.15 L2220.82 1984.52 L2223.42 1984.76 L2225.89 1985.14 L2228.49 1985.51 L2231.09 1985.88 L2233.69 1986.25 L2236.29 1986.50 L2238.89 1986.87 L2241.36 1987.24 L2243.96 1987.61 L2246.56 1987.86 L2249.16 1988.23 L2251.76 1988.48 L2254.23 1988.85 L2256.83 1989.22 L2259.43 1989.47 L2262.03 1989.84 L2264.63 1990.09 L2267.10 1990.46 L2269.70 1990.70 L2272.30 1991.08 L2274.90 1991.32 L2277.49 1991.69 L2279.97 1991.94 L2282.57 1992.31 L2285.17 1992.56 L2287.77 1992.81 L2290.36 1993.18 L2292.84 1993.43 L2295.44 1993.67 L2298.04 1994.05 L2300.64 1994.29 L2303.24 1994.54 L2305.71 1994.91 L2308.31 1995.16 L2310.91 1995.41 L2313.51 1995.65 L2316.11 1995.90 L2318.58 1996.27 L2321.18 1996.52 L2323.78 1996.77 L2326.38 1997.02 L2328.97 1997.26 L2331.45 1997.51 L2334.05 1997.76 L2336.65 1998.13 L2339.25 1998.38 L2341.84 1998.62 L2344.32 1998.87 L2346.92 1999.12 L2349.52 1999.37 L2352.12 1999.61 L2354.72 1999.86 L2357.19 2000.11 L2359.79 2000.36 L2362.39 2000.61 L2364.99 2000.85 L2367.59 2001.10 L2370.06 2001.35 L2372.66 2001.47 L2375.26 2001.72 L2377.86 2001.97 L2380.45 2002.21 L2382.93 2002.46 L2385.53 2002.71 L2388.13 2002.96 L2390.73 2003.08 L2393.32 2003.33 L2395.80 2003.58 L2398.40 2003.82 L2401.00 2004.07 L2403.60 2004.19 L2406.20 2004.44 L2408.67 2004.69 L2411.27 2004.94 L2413.87 2005.06 L2416.47 2005.31 L2419.07 2005.56 L2421.54 2005.80 L2424.14 2005.93 L2426.74 2006.17 L2429.34 2006.42 L2431.93 2006.55 L2434.41 2006.79 L2437.01 2007.04 L2439.61 2007.16 L2442.21 2007.41 L2444.80 2007.54 L2447.40 2007.78 L2449.88 2008.03 L2452.48 2008.15 L2455.08 2008.40 L2457.68 2008.53 L2460.27 2008.77 L2462.75 2008.90 L2465.35 2009.14 L2467.95 2009.39 L2470.55 2009.52 L2473.14 2009.76 L2475.62 2009.89 L2478.22 2010.13 L2480.82 2010.26 L2483.41 2010.51 L2486.01 2010.63 L2488.49 2010.88 L2491.09 2011.00 L2493.69 2011.12 L2496.28 2011.37 L2498.88 2011.50 L2501.36 2011.74 L2503.96 2011.87 L2506.56 2012.11 L2509.16 2012.24 L2511.75 2012.36 L2514.23 2012.61 L2516.83 2012.73 L2519.43 2012.98 L2522.03 2013.10 L2524.62 2013.23 L2527.10 2013.48 L2529.70 2013.60 L2532.30 2013.72 L2534.89 2013.97 L2537.49 2014.09 L2539.97 2014.22 L2542.57 2014.47 L2545.17 2014.59 L2547.76 2014.71 L2550.36 2014.84 L2552.84 2015.08 L2555.44 2015.21 L2558.04 2015.33 L2560.64 2015.58 L2563.23 2015.70 L2565.71 2015.83 L2568.31 2015.95 L2570.91 2016.20 L2573.51 2016.32 L2576.10 2016.45 L2578.58 2016.57 L2581.18 2016.69 L2583.78 2016.94 L2586.38 2017.06 L2588.97 2017.19 L2591.45 2017.31 L2594.05 2017.44 L2596.65 2017.68 L2599.24 2017.81 L2601.84 2017.93 L2604.32 2018.05 L2606.92 2018.18 L2609.52 2018.30 L2612.11 2018.55 L2614.71 2018.67 L2617.19 2018.80 L2619.79 2018.92 L2622.39 2019.04 L2624.99 2019.17 L2627.58 2019.29 L2630.06 2019.42 L2632.66 2019.54 L2635.26 2019.79 L2637.86 2019.91 L2640.45 2020.03 L2642.93 2020.16 L2645.53 2020.28 L2648.13 2020.41 L2650.72 2020.53 L2653.32 2020.65 L2655.92 2020.78 L2658.40 2020.90 L2661.00 2021.02 L2663.59 2021.15 L2666.19 2021.27 L2668.79 2021.40 L2671.27 2021.52 L2673.87 2021.64 L2676.47 2021.77 L2679.06 2021.89 L2681.66 2022.01 L2684.14 2022.14 L2686.74 2022.26 L2689.34 2022.39 L2691.93 2022.51 L2694.53 2022.63 L2697.01 2022.76 L2699.61 2022.88 L2702.20 2023.00 L2704.80 2023.13 L2707.40 2023.25 L2709.88 2023.38 L2712.48 2023.50 L2715.07 2023.62 L2717.67 2023.75 L2720.27 2023.87 L2722.75 2023.99 L2725.35 2024.12 L2727.95 2024.24 L2730.54 2024.37 L2733.14 2024.49 L2735.62 2024.61 L2738.22 2024.61 L2740.82 2024.74 L2743.41 2024.86 L2746.01 2024.98 L2748.49 2025.11 L2751.09 2025.23 L2753.68 2025.36 L2756.28 2025.48 L2758.88 2025.60 L2761.36 2025.73 L2763.96 2025.73 L2766.55 2025.85 L2769.15 2025.97 L2771.75 2026.10 L2774.23 2026.22 L2776.83 2026.35 L2779.43 2026.47 L2782.02 2026.47 L2784.62 2026.59 L2787.10 2026.72 L2789.70 2026.84 L2792.30 2026.96 L2794.89 2027.09 L2797.49 2027.09 L2799.97 2027.21 L2802.57 2027.34 L2805.16 2027.46 L2807.76 2027.58 L2810.36 2027.71 L2812.84 2027.71 L2815.44 2027.83 L2818.03 2027.95 L2820.63 2028.08 L2823.23 2028.20 L2825.71 2028.20 L2828.31 2028.33 L2830.91 2028.45 L2833.50 2028.57 L2836.10 2028.57 L2838.58 2028.70 L2841.18 2028.82 L2843.78 2028.94 L2846.37 2029.07 L2848.97 2029.07 L2851.45 2029.19 L2854.05 2029.32 L2856.64 2029.44 L2859.24 2029.44 L2861.84 2029.56 L2864.44 2029.69 L2866.92 2029.81 L2869.51 2029.81 L2872.11 2029.93 L2874.71 2030.06 L2877.31 2030.06 L2879.79 2030.18 L2882.39 2030.31 L2884.98 2030.43 L2887.58 2030.43" stroke-linejoin="round" style="fill:none;stroke:#006000;stroke-width:8.64"/>
	<path d=" M1463.96 721.86 L1466.56 1266.50 L1469.16 1520.69 L1471.63 1667.83 L1474.23 1763.86 L1476.83 1831.31 L1479.43 1881.43 L1482.03 1920.17 L1484.51 1950.86 L1487.10 1975.85 L1489.70 1996.64 L1492.30 2014.09 L1494.90 2029.07 L1497.38 2041.94 L1499.97 2053.20 L1502.57 2063.22 L1505.17 2072.01 L1507.77 2079.81 L1510.24 2086.99 L1512.84 2093.30 L1515.44 2099.11 L1518.04 2104.43 L1520.64 2109.26 L1523.12 2113.72 L1525.71 2117.92 L1528.31 2121.64 L1530.91 2125.23 L1533.51 2128.44 L1535.98 2131.54 L1538.58 2134.38 L1541.18 2137.11 L1543.78 2139.58 L1546.38 2142.06 L1548.86 2144.28 L1551.45 2146.39 L1554.05 2148.37 L1556.65 2150.22 L1559.25 2152.08 L1561.72 2153.69 L1564.32 2155.30 L1566.92 2156.91 L1569.52 2158.39 L1572.12 2159.75 L1574.60 2161.11 L1577.19 2162.35 L1579.79 2163.59 L1582.39 2164.83 L1584.99 2165.94 L1587.46 2166.93 L1590.06 2168.04 L1592.66 2169.03 L1595.26 2170.02 L1597.86 2170.89 L1600.34 2171.76 L1602.93 2172.62 L1605.53 2173.49 L1608.13 2174.23 L1610.73 2175.10 L1613.20 2175.84 L1615.80 2176.46 L1618.40 2177.20 L1621.00 2177.94 L1623.60 2178.56 L1626.20 2179.18 L1628.67 2179.80 L1631.27 2180.42 L1633.87 2180.91 L1636.47 2181.53 L1639.07 2182.03 L1641.54 2182.65 L1644.14 2183.14 L1646.74 2183.64 L1649.34 2184.13 L1651.94 2184.63 L1654.41 2185.00 L1657.01 2185.49 L1659.61 2185.99 L1662.21 2186.36 L1664.81 2186.85 L1667.28 2187.23 L1669.88 2187.60 L1672.48 2187.97 L1675.08 2188.34 L1677.68 2188.71 L1680.15 2189.08 L1682.75 2189.45 L1685.35 2189.82 L1687.95 2190.07 L1690.55 2190.44 L1693.02 2190.81 L1695.62 2191.06 L1698.22 2191.43 L1700.82 2191.68 L1703.42 2192.05 L1705.89 2192.30 L1708.49 2192.55 L1711.09 2192.79 L1713.69 2193.17 L1716.29 2193.41 L1718.76 2193.66 L1721.36 2193.91 L1723.96 2194.16 L1726.56 2194.40 L1729.16 2194.65 L1731.63 2194.90 L1734.23 2195.15 L1736.83 2195.39 L1739.43 2195.52 L1742.03 2195.76 L1744.50 2196.01 L1747.10 2196.26 L1749.70 2196.38 L1752.30 2196.63 L1754.90 2196.88 L1757.37 2197.00 L1759.97 2197.25 L1762.57 2197.37 L1765.17 2197.62 L1767.77 2197.74 L1770.24 2197.99 L1772.84 2198.12 L1775.44 2198.36 L1778.04 2198.49 L1780.64 2198.61 L1783.11 2198.86 L1785.71 2198.98 L1788.31 2199.11 L1790.91 2199.35 L1793.51 2199.48 L1795.98 2199.60 L1798.58 2199.72 L1801.18 2199.97 L1803.78 2200.10 L1806.38 2200.22 L1808.85 2200.34 L1811.45 2200.47 L1814.05 2200.59 L1816.65 2200.72 L1819.25 2200.96 L1821.72 2201.09 L1824.32 2201.21 L1826.92 2201.33 L1829.52 2201.46 L1832.12 2201.58 L1834.72 2201.71 L1837.19 2201.83 L1839.79 2201.95 L1842.39 2202.08 L1844.99 2202.20 L1847.59 2202.32 L1850.06 2202.45 L1852.66 2202.45 L1855.26 2202.57 L1857.86 2202.70 L1860.46 2202.82 L1862.93 2202.94 L1865.53 2203.07 L1868.13 2203.19 L1870.73 2203.31 L1873.33 2203.31 L1875.80 2203.44 L1878.40 2203.56 L1881.00 2203.69 L1883.60 2203.81 L1886.20 2203.81 L1888.67 2203.93 L1891.27 2204.06 L1893.87 2204.18 L1896.47 2204.18 L1899.07 2204.30 L1901.54 2204.43 L1904.14 2204.43 L1906.74 2204.55 L1909.34 2204.68 L1911.94 2204.80 L1914.41 2204.80 L1917.01 2204.92 L1919.61 2205.05 L1922.21 2205.05 L1924.81 2205.17 L1927.28 2205.29 L1929.88 2205.29 L1932.48 2205.42 L1935.08 2205.42 L1937.68 2205.54 L1940.15 2205.67 L1942.75 2205.67 L1945.35 2205.79 L1947.95 2205.79 L1950.55 2205.91 L1953.02 2206.04 L1955.62 2206.04 L1958.22 2206.16 L1960.82 2206.16 L1963.42 2206.28 L1965.89 2206.28 L1968.49 2206.41 L1971.09 2206.53 L1973.69 2206.53 L1976.29 2206.66 L1978.76 2206.66 L1981.36 2206.78 L1983.96 2206.78 L1986.56 2206.90 L1989.16 2206.90 L1991.63 2207.03 L1994.23 2207.03 L1996.83 2207.15 L1999.43 2207.15 L2002.03 2207.27 L2004.50 2207.27 L2007.10 2207.40 L2009.70 2207.40 L2012.30 2207.40 L2014.90 2207.52 L2017.37 2207.52 L2019.97 2207.65 L2022.57 2207.65 L2025.17 2207.77 L2027.77 2207.77 L2030.24 2207.89 L2032.84 2207.89 L2035.44 2207.89 L2038.04 2208.02 L2040.64 2208.02 L2043.24 2208.14 L2045.71 2208.14 L2048.31 2208.26 L2050.91 2208.26 L2053.51 2208.26 L2056.11 2208.39 L2058.58 2208.39 L2061.18 2208.39 L2063.78 2208.51 L2066.38 2208.51 L2068.98 2208.64 L2071.45 2208.64 L2074.05 2208.64 L2076.65 2208.76 L2079.25 2208.76 L2081.85 2208.76 L2084.32 2208.88 L2086.92 2208.88 L2089.52 2209.01 L2092.12 2209.01 L2094.72 2209.01 L2097.19 2209.13 L2099.79 2209.13 L2102.39 2209.13 L2104.99 2209.25 L2107.59 2209.25 L2110.06 2209.25 L2112.66 2209.38 L2115.26 2209.38 L2117.86 2209.38 L2120.46 2209.50 L2122.93 2209.50 L2125.53 2209.50 L2128.13 2209.63 L2130.73 2209.63 L2133.33 2209.63 L2135.80 2209.63 L2138.40 2209.75 L2141.00 2209.75 L2143.60 2209.75 L2146.20 2209.87 L2148.67 2209.87 L2151.27 2209.87 L2153.87 2210.00 L2156.47 2210.00 L2159.07 2210.00 L2161.54 2210.00 L2164.14 2210.12 L2166.74 2210.12 L2169.34 2210.12 L2171.94 2210.24 L2174.41 2210.24 L2177.01 2210.24 L2179.61 2210.24 L2182.21 2210.37 L2184.81 2210.37 L2187.28 2210.37 L2189.88 2210.37 L2192.48 2210.49 L2195.08 2210.49 L2197.68 2210.49 L2200.15 2210.49 L2202.75 2210.62 L2205.35 2210.62 L2207.95 2210.62 L2210.55 2210.74 L2213.02 2210.74 L2215.62 2210.74 L2218.22 2210.74 L2220.82 2210.74 L2223.42 2210.86 L2225.89 2210.86 L2228.49 2210.86 L2231.09 2210.86 L2233.69 2210.99 L2236.29 2210.99 L2238.89 2210.99 L2241.36 2210.99 L2243.96 2211.11 L2246.56 2211.11 L2249.16 2211.11 L2251.76 2211.11 L2254.23 2211.11 L2256.83 2211.23 L2259.43 2211.23 L2262.03 2211.23 L2264.63 2211.23 L2267.10 2211.36 L2269.70 2211.36 L2272.30 2211.36 L2274.90 2211.36 L2277.49 2211.36 L2279.97 2211.48 L2282.57 2211.48 L2285.17 2211.48 L2287.77 2211.48 L2290.36 2211.48 L2292.84 2211.61 L2295.44 2211.61 L2298.04 2211.61 L2300.64 2211.61 L2303.24 2211.61 L2305.71 2211.73 L2308.31 2211.73 L2310.91 2211.73 L2313.51 2211.73 L2316.11 2211.73 L2318.58 2211.85 L2321.18 2211.85 L2323.78 2211.85 L2326.38 2211.85 L2328.97 2211.85 L2331.45 2211.98 L2334.05 2211.98 L2336.65 2211.98 L2339.25 2211.98 L2341.84 2211.98 L2344.32 2211.98 L2346.92 2212.10 L2349.52 2212.10 L2352.12 2212.10 L2354.72 2212.10 L2357.19 2212.10 L2359.79 2212.22 L2362.39 2212.22 L2364.99 2212.22 L2367.59 2212.22 L2370.06 2212.22 L2372.66 2212.22 L2375.26 2212.35 L2377.86 2212.35 L2380.45 2212.35 L2382.93 2212.35 L2385.53 2212.35 L2388.13 2212.35 L2390.73 2212.47 L2393.32 2212.47 L2395.80 2212.47 L2398.40 2212.47 L2401.00 2212.47 L2403.60 2212.47 L2406.20 2212.60 L2408.67 2212.60 L2411.27 2212.60 L2413.87 2212.60 L2416.47 2212.60 L2419.07 2212.60 L2421.54 2212.60 L2424.14 2212.72 L2426.74 2212.72 L2429.34 2212.72 L2431.93 2212.72 L2434.41 2212.72 L2437.01 2212.72 L2439.61 2212.72 L2442.21 2212.84 L2444.80 2212.84 L2447.40 2212.84 L2449.88 2212.84 L2452.48 2212.84 L2455.08 2212.84 L2457.68 2212.84 L2460.27 2212.97 L2462.75 2212.97 L2465.35 2212.97 L2467.95 2212.97 L2470.55 2212.97 L2473.14 2212.97 L2475.62 2212.97 L2478.22 2213.09 L2480.82 2213.09 L2483.41 2213.09 L2486.01 2213.09 L2488.49 2213.09 L2491.09 2213.09 L2493.69 2213.09 L2496.28 2213.21 L2498.88 2213.21 L2501.36 2213.21 L2503.96 2213.21 L2506.56 2213.21 L2509.16 2213.21 L2511.75 2213.21 L2514.23 2213.21 L2516.83 2213.34 L2519.43 2213.34 L2522.03 2213.34 L2524.62 2213.34 L2527.10 2213.34 L2529.70 2213.34 L2532.30 2213.34 L2534.89 2213.34 L2537.49 2213.46 L2539.97 2213.46 L2542.57 2213.46 L2545.17 2213.46 L2547.76 2213.46 L2550.36 2213.46 L2552.84 2213.46 L2555.44 2213.46 L2558.04 2213.46 L2560.64 2213.59 L2563.23 2213.59 L2565.71 2213.59 L2568.31 2213.59 L2570.91 2213.59 L2573.51 2213.59 L2576.10 2213.59 L2578.58 2213.59 L2581.18 2213.59 L2583.78 2213.71 L2586.38 2213.71 L2588.97 2213.71 L2591.45 2213.71 L2594.05 2213.71 L2596.65 2213.71 L2599.24 2213.71 L2601.84 2213.71 L2604.32 2213.71 L2606.92 2213.83 L2609.52 2213.83 L2612.11 2213.83 L2614.71 2213.83 L2617.19 2213.83 L2619.79 2213.83 L2622.39 2213.83 L2624.99 2213.83 L2627.58 2213.83 L2630.06 2213.96 L2632.66 2213.96 L2635.26 2213.96 L2637.86 2213.96 L2640.45 2213.96 L2642.93 2213.96 L2645.53 2213.96 L2648.13 2213.96 L2650.72 2213.96 L2653.32 2213.96 L2655.92 2214.08 L2658.40 2214.08 L2661.00 2214.08 L2663.59 2214.08 L2666.19 2214.08 L2668.79 2214.08 L2671.27 2214.08 L2673.87 2214.08 L2676.47 2214.08 L2679.06 2214.08 L2681.66 2214.08 L2684.14 2214.20 L2686.74 2214.20 L2689.34 2214.20 L2691.93 2214.20 L2694.53 2214.20 L2697.01 2214.20 L2699.61 2214.20 L2702.20 2214.20 L2704.80 2214.20 L2707.40 2214.20 L2709.88 2214.20 L2712.48 2214.33 L2715.07 2214.33 L2717.67 2214.33 L2720.27 2214.33 L2722.75 2214.33 L2725.35 2214.33 L2727.95 2214.33 L2730.54 2214.33 L2733.14 2214.33 L2735.62 2214.33 L2738.22 2214.33 L2740.82 2214.45 L2743.41 2214.45 L2746.01 2214.45 L2748.49 2214.45 L2751.09 2214.45 L2753.68 2214.45 L2756.28 2214.45 L2758.88 2214.45 L2761.36 2214.45 L2763.96 2214.45 L2766.55 2214.45 L2769.15 2214.45 L2771.75 2214.58 L2774.23 2214.58 L2776.83 2214.58 L2779.43 2214.58 L2782.02 2214.58 L2784.62 2214.58 L2787.10 2214.58 L2789.70 2214.58 L2792.30 2214.58 L2794.89 2214.58 L2797.49 2214.58 L2799.97 2214.58 L2802.57 2214.70 L2805.16 2214.70 L2807.76 2214.70 L2810.36 2214.70 L2812.84 2214.70 L2815.44 2214.70 L2818.03 2214.70 L2820.63 2214.70 L2823.23 2214.70 L2825.71 2214.70 L2828.31 2214.70 L2830.91 2214.70 L2833.50 2214.70 L2836.10 2214.70 L2838.58 2214.82 L2841.18 2214.82 L2843.78 2214.82 L2846.37 2214.82 L2848.97 2214.82 L2851.45 2214.82 L2854.05 2214.82 L2856.64 2214.82 L2859.24 2214.82 L2861.84 2214.82 L2864.44 2214.82 L2866.92 2214.82 L2869.51 2214.82 L2872.11 2214.95 L2874.71 2214.95 L2877.31 2214.95 L2879.79 2214.95 L2882.39 2214.95 L2884.98 2214.95 L2887.58 2214.95" stroke-linejoin="round" style="fill:none;stroke:#FF4500;stroke-width:8.64"/>
	<circle cx="1525.84" cy="2117.92" r="26.35" style="fill:#1A476F"/>
	<circle cx="1525.84" cy="2117.92" r="22.03" style="fill:none;stroke:#1A476F;stroke-width:8.64"/>
	<text x="1596.87" y="2076.96" style="font-family:'Helvetica';font-size:79.94px;fill:#1A476f">E-value (CI): (1.32, 1.32)</text>
	<circle cx="1752.30" cy="1770.67" r="26.35" style="fill:#90353B"/>
	<circle cx="1752.30" cy="1770.67" r="22.03" style="fill:none;stroke:#90353B;stroke-width:8.64"/>
	<text x="1823.33" y="1729.71" style="font-family:'Helvetica';font-size:79.94px;fill:#90353b">E-value: (2.2, 2.2)</text>
	<line x1="1122.66" y1="2307.64" x2="1122.66" y2="100.86" style="stroke:#000000;stroke-width:5.76"/>
	<line x1="1122.66" y1="2244.28" x2="1082.69" y2="2244.28" style="stroke:#000000;stroke-width:5.76"/>
	<text x="1032.58" y="2244.28" style="font-family:'Helvetica';font-size:99.99px;fill:#000000" transform="rotate(-90 1032.58,2244.28)" text-anchor="middle">1</text>
	<line x1="1122.66" y1="1849.50" x2="1082.69" y2="1849.50" style="stroke:#000000;stroke-width:5.76"/>
	<text x="1032.58" y="1849.50" style="font-family:'Helvetica';font-size:99.99px;fill:#000000" transform="rotate(-90 1032.58,1849.50)" text-anchor="middle">2</text>
	<line x1="1122.66" y1="1454.85" x2="1082.69" y2="1454.85" style="stroke:#000000;stroke-width:5.76"/>
	<text x="1032.58" y="1454.85" style="font-family:'Helvetica';font-size:99.99px;fill:#000000" transform="rotate(-90 1032.58,1454.85)" text-anchor="middle">3</text>
	<line x1="1122.66" y1="1060.20" x2="1082.69" y2="1060.20" style="stroke:#000000;stroke-width:5.76"/>
	<text x="1032.58" y="1060.20" style="font-family:'Helvetica';font-size:99.99px;fill:#000000" transform="rotate(-90 1032.58,1060.20)" text-anchor="middle">4</text>
	<line x1="1122.66" y1="665.42" x2="1082.69" y2="665.42" style="stroke:#000000;stroke-width:5.76"/>
	<text x="1032.58" y="665.42" style="font-family:'Helvetica';font-size:99.99px;fill:#000000" transform="rotate(-90 1032.58,665.42)" text-anchor="middle">5</text>
	<line x1="1122.66" y1="270.77" x2="1082.69" y2="270.77" style="stroke:#000000;stroke-width:5.76"/>
	<text x="1032.58" y="270.77" style="font-family:'Helvetica';font-size:99.99px;fill:#000000" transform="rotate(-90 1032.58,270.77)" text-anchor="middle">6</text>
	<text x="827.85" y="1204.25" style="font-family:'Helvetica';font-size:79.94px;fill:#000000" transform="rotate(-90 827.85,1204.25)" text-anchor="middle">Risk ratio for confounder-outcome relationship</text>
	<line x1="1122.66" y1="2307.64" x2="3308.83" y2="2307.64" style="stroke:#000000;stroke-width:5.76"/>
	<line x1="1186.02" y1="2307.64" x2="1186.02" y2="2347.61" style="stroke:#000000;stroke-width:5.76"/>
	<text x="1186.02" y="2437.59" style="font-family:'Helvetica';font-size:99.99px;fill:#000000" text-anchor="middle">0</text>
	<line x1="1700.82" y1="2307.64" x2="1700.82" y2="2347.61" style="stroke:#000000;stroke-width:5.76"/>
	<text x="1700.82" y="2437.59" style="font-family:'Helvetica';font-size:99.99px;fill:#000000" text-anchor="middle">2</text>
	<line x1="2215.74" y1="2307.64" x2="2215.74" y2="2347.61" style="stroke:#000000;stroke-width:5.76"/>
	<text x="2215.74" y="2437.59" style="font-family:'Helvetica';font-size:99.99px;fill:#000000" text-anchor="middle">4</text>
	<line x1="2730.54" y1="2307.64" x2="2730.54" y2="2347.61" style="stroke:#000000;stroke-width:5.76"/>
	<text x="2730.54" y="2437.59" style="font-family:'Helvetica';font-size:99.99px;fill:#000000" text-anchor="middle">6</text>
	<line x1="3245.47" y1="2307.64" x2="3245.47" y2="2347.61" style="stroke:#000000;stroke-width:5.76"/>
	<text x="3245.47" y="2437.59" style="font-family:'Helvetica';font-size:99.99px;fill:#000000" text-anchor="middle">8</text>
	<text x="2215.74" y="2634.31" style="font-family:'Helvetica';font-size:79.94px;fill:#000000" text-anchor="middle">Risk ratio for exposure-confounder relationship</text>
</svg>
