<?xml version="1.0" encoding="UTF-8" standalone="no"?>
<!-- This is a Stata 16.1 generated SVG file (http://www.stata.com) -->

<svg version="1.1" width="5.50in" height="4.00in" viewBox="0 0 3960 2880" xmlns="http://www.w3.org/2000/svg" xmlns:xlink="http://www.w3.org/1999/xlink">
	<desc>Stata Graph - Graph</desc>
	<rect x="0" y="0" width="3960" height="2880" style="fill:#FFFFFF;stroke:none"/>
	<rect x="0.00" y="0.00" width="3959.88" height="2880.00" style="fill:#FFFFFF"/>
	<rect x="2.88" y="2.88" width="3954.12" height="2874.24" style="fill:none;stroke:#FFFFFF;stroke-width:5.76"/>
	<rect x="1125.54" y="103.74" width="2180.41" height="2201.02" style="fill:none;stroke:#000000;stroke-width:5.76"/>
	<path d=" M1618.40 440.94 L1621.00 528.68 L1623.60 606.27 L1626.20 675.20 L1628.67 736.83 L1631.27 792.27 L1633.87 842.52 L1636.47 888.18 L1639.07 929.76 L1641.54 968.00 L1644.14 1003.15 L1646.74 1035.57 L1649.34 1065.64 L1651.94 1093.49 L1654.41 1119.48 L1657.01 1143.73 L1659.61 1166.38 L1662.21 1187.67 L1664.81 1207.59 L1667.28 1226.40 L1669.88 1244.10 L1672.48 1260.80 L1675.08 1276.64 L1677.68 1291.62 L1680.15 1305.85 L1682.75 1319.34 L1685.35 1332.21 L1687.95 1344.46 L1690.55 1356.22 L1693.02 1367.36 L1695.62 1378.00 L1698.22 1388.15 L1700.82 1397.92 L1703.42 1407.21 L1705.89 1416.24 L1708.49 1424.78 L1711.09 1433.07 L1713.69 1440.99 L1716.29 1448.66 L1718.76 1456.09 L1721.36 1463.14 L1723.96 1469.95 L1726.56 1476.63 L1729.16 1482.94 L1731.63 1489.13 L1734.23 1495.07 L1736.83 1500.89 L1739.43 1506.46 L1742.03 1511.78 L1744.50 1517.10 L1747.10 1522.17 L1749.70 1527.00 L1752.30 1531.83 L1754.90 1536.40 L1757.37 1540.98 L1759.97 1545.31 L1762.57 1549.52 L1765.17 1553.73 L1767.77 1557.69 L1770.24 1561.53 L1772.84 1565.36 L1775.44 1569.08 L1778.04 1572.66 L1780.64 1576.25 L1783.11 1579.59 L1785.71 1582.94 L1788.31 1586.15 L1790.91 1589.37 L1793.51 1592.46 L1795.98 1595.56 L1798.58 1598.40 L1801.18 1601.38 L1803.78 1604.10 L1806.38 1606.94 L1808.85 1609.67 L1811.45 1612.27 L1814.05 1614.86 L1816.65 1617.34 L1819.25 1619.81 L1821.72 1622.17 L1824.32 1624.52 L1826.92 1626.87 L1829.52 1629.10 L1832.12 1631.32 L1834.72 1633.55 L1837.19 1635.65 L1839.79 1637.76 L1842.39 1639.74 L1844.99 1641.84 L1847.59 1643.82 L1850.06 1645.68 L1852.66 1647.66 L1855.26 1649.52 L1857.86 1651.25 L1860.46 1653.10 L1862.93 1654.84 L1865.53 1656.57 L1868.13 1658.30 L1870.73 1659.91 L1873.33 1661.52 L1875.80 1663.13 L1878.40 1664.74 L1881.00 1666.35 L1883.60 1667.83 L1886.20 1669.32 L1888.67 1670.80 L1891.27 1672.29 L1893.87 1673.65 L1896.47 1675.13 L1899.07 1676.49 L1901.54 1677.85 L1904.14 1679.22 L1906.74 1680.45 L1909.34 1681.82 L1911.94 1683.05 L1914.41 1684.29 L1917.01 1685.53 L1919.61 1686.77 L1922.21 1688.00 L1924.81 1689.12 L1927.28 1690.35 L1929.88 1691.47 L1932.48 1692.58 L1935.08 1693.70 L1937.68 1694.81 L1940.15 1695.92 L1942.75 1696.91 L1945.35 1698.03 L1947.95 1699.02 L1950.55 1700.13 L1953.02 1701.12 L1955.62 1702.11 L1958.22 1703.10 L1960.82 1704.09 L1963.42 1704.96 L1965.89 1705.95 L1968.49 1706.94 L1971.09 1707.80 L1973.69 1708.67 L1976.29 1709.54 L1978.76 1710.53 L1981.36 1711.39 L1983.96 1712.26 L1986.56 1713.12 L1989.16 1713.87 L1991.63 1714.73 L1994.23 1715.60 L1996.83 1716.34 L1999.43 1717.21 L2002.03 1717.95 L2004.50 1718.69 L2007.10 1719.44 L2009.70 1720.30 L2012.30 1721.05 L2014.90 1721.79 L2017.37 1722.53 L2019.97 1723.15 L2022.57 1723.89 L2025.17 1724.63 L2027.77 1725.38 L2030.24 1726.00 L2032.84 1726.74 L2035.44 1727.36 L2038.04 1728.10 L2040.64 1728.72 L2043.24 1729.34 L2045.71 1730.08 L2048.31 1730.70 L2050.91 1731.32 L2053.51 1731.94 L2056.11 1732.55 L2058.58 1733.17 L2061.18 1733.79 L2063.78 1734.41 L2066.38 1734.91 L2068.98 1735.52 L2071.45 1736.14 L2074.05 1736.64 L2076.65 1737.26 L2079.25 1737.88 L2081.85 1738.37 L2084.32 1738.99 L2086.92 1739.48 L2089.52 1739.98 L2092.12 1740.60 L2094.72 1741.09 L2097.19 1741.59 L2099.79 1742.08 L2102.39 1742.70 L2104.99 1743.20 L2107.59 1743.69 L2110.06 1744.19 L2112.66 1744.68 L2115.26 1745.18 L2117.86 1745.67 L2120.46 1746.17 L2122.93 1746.54 L2125.53 1747.03 L2128.13 1747.53 L2130.73 1748.02 L2133.33 1748.39 L2135.80 1748.89 L2138.40 1749.38 L2141.00 1749.76 L2143.60 1750.25 L2146.20 1750.62 L2148.67 1751.12 L2151.27 1751.49 L2153.87 1751.98 L2156.47 1752.35 L2159.07 1752.85 L2161.54 1753.22 L2164.14 1753.59 L2166.74 1754.09 L2169.34 1754.46 L2171.94 1754.83 L2174.41 1755.20 L2177.01 1755.57 L2179.61 1756.07 L2182.21 1756.44 L2184.81 1756.81 L2187.28 1757.18 L2189.88 1757.55 L2192.48 1757.92 L2195.08 1758.29 L2197.68 1758.67 L2200.15 1759.04 L2202.75 1759.41 L2205.35 1759.78 L2207.95 1760.15 L2210.55 1760.40 L2213.02 1760.77 L2215.62 1761.14 L2218.22 1761.51 L2220.82 1761.88 L2223.42 1762.13 L2225.89 1762.50 L2228.49 1762.87 L2231.09 1763.12 L2233.69 1763.49 L2236.29 1763.86 L2238.89 1764.11 L2241.36 1764.48 L2243.96 1764.73 L2246.56 1765.10 L2249.16 1765.47 L2251.76 1765.72 L2254.23 1766.09 L2256.83 1766.34 L2259.43 1766.59 L2262.03 1766.96 L2264.63 1767.21 L2267.10 1767.58 L2269.70 1767.82 L2272.30 1768.07 L2274.90 1768.44 L2277.49 1768.69 L2279.97 1768.94 L2282.57 1769.31 L2285.17 1769.56 L2287.77 1769.80 L2290.36 1770.18 L2292.84 1770.42 L2295.44 1770.67 L2298.04 1770.92 L2300.64 1771.17 L2303.24 1771.54 L2305.71 1771.78 L2308.31 1772.03 L2310.91 1772.28 L2313.51 1772.53 L2316.11 1772.77 L2318.58 1773.02 L2321.18 1773.27 L2323.78 1773.52 L2326.38 1773.76 L2328.97 1774.01 L2331.45 1774.26 L2334.05 1774.51 L2336.65 1774.75 L2339.25 1775.00 L2341.84 1775.25 L2344.32 1775.50 L2346.92 1775.74 L2349.52 1775.99 L2352.12 1776.24 L2354.72 1776.49 L2357.19 1776.73 L2359.79 1776.98 L2362.39 1777.11 L2364.99 1777.35 L2367.59 1777.60 L2370.06 1777.85 L2372.66 1778.10 L2375.26 1778.22 L2377.86 1778.47 L2380.45 1778.71 L2382.93 1778.96 L2385.53 1779.09 L2388.13 1779.33 L2390.73 1779.58 L2393.32 1779.83 L2395.80 1779.95 L2398.40 1780.20 L2401.00 1780.45 L2403.60 1780.57 L2406.20 1780.82 L2408.67 1781.07 L2411.27 1781.19 L2413.87 1781.44 L2416.47 1781.68 L2419.07 1781.81 L2421.54 1782.06 L2424.14 1782.18 L2426.74 1782.43 L2429.34 1782.67 L2431.93 1782.80 L2434.41 1783.05 L2437.01 1783.17 L2439.61 1783.42 L2442.21 1783.54 L2444.80 1783.79 L2447.40 1783.91 L2449.88 1784.16 L2452.48 1784.28 L2455.08 1784.53 L2457.68 1784.65 L2460.27 1784.90 L2462.75 1785.03 L2465.35 1785.27 L2467.95 1785.40 L2470.55 1785.52 L2473.14 1785.77 L2475.62 1785.89 L2478.22 1786.14 L2480.82 1786.26 L2483.41 1786.39 L2486.01 1786.63 L2488.49 1786.76 L2491.09 1787.01 L2493.69 1787.13 L2496.28 1787.25 L2498.88 1787.50 L2501.36 1787.62 L2503.96 1787.75 L2506.56 1788.00 L2509.16 1788.12 L2511.75 1788.24 L2514.23 1788.37 L2516.83 1788.61 L2519.43 1788.74 L2522.03 1788.86 L2524.62 1789.11 L2527.10 1789.23 L2529.70 1789.36 L2532.30 1789.48 L2534.89 1789.73 L2537.49 1789.85 L2539.97 1789.98 L2542.57 1790.10 L2545.17 1790.22 L2547.76 1790.47 L2550.36 1790.59 L2552.84 1790.72 L2555.44 1790.84 L2558.04 1790.97 L2560.64 1791.21 L2563.23 1791.34 L2565.71 1791.46 L2568.31 1791.58 L2570.91 1791.71 L2573.51 1791.83 L2576.10 1792.08 L2578.58 1792.20 L2581.18 1792.33 L2583.78 1792.45 L2586.38 1792.57 L2588.97 1792.70 L2591.45 1792.82 L2594.05 1792.95 L2596.65 1793.07 L2599.24 1793.32 L2601.84 1793.44 L2604.32 1793.56 L2606.92 1793.69 L2609.52 1793.81 L2612.11 1793.94 L2614.71 1794.06 L2617.19 1794.18 L2619.79 1794.31 L2622.39 1794.43 L2624.99 1794.55 L2627.58 1794.68 L2630.06 1794.80 L2632.66 1794.93 L2635.26 1795.05 L2637.86 1795.17 L2640.45 1795.30 L2642.93 1795.42 L2645.53 1795.54 L2648.13 1795.67 L2650.72 1795.79 L2653.32 1795.92 L2655.92 1796.04 L2658.40 1796.16 L2661.00 1796.29 L2663.59 1796.41 L2666.19 1796.53 L2668.79 1796.66 L2671.27 1796.78 L2673.87 1796.91 L2676.47 1797.03 L2679.06 1797.15 L2681.66 1797.28 L2684.14 1797.40 L2686.74 1797.52 L2689.34 1797.65 L2691.93 1797.65 L2694.53 1797.77 L2697.01 1797.90 L2699.61 1798.02 L2702.20 1798.14 L2704.80 1798.27 L2707.40 1798.39 L2709.88 1798.51 L2712.48 1798.64 L2715.07 1798.64 L2717.67 1798.76 L2720.27 1798.89 L2722.75 1799.01 L2725.35 1799.13 L2727.95 1799.26 L2730.54 1799.38 L2733.14 1799.50 L2735.62 1799.50 L2738.22 1799.63 L2740.82 1799.75 L2743.41 1799.88 L2746.01 1800.00 L2748.49 1800.12 L2751.09 1800.12 L2753.68 1800.25 L2756.28 1800.37 L2758.88 1800.50 L2761.36 1800.62 L2763.96 1800.62 L2766.55 1800.74 L2769.15 1800.87 L2771.75 1800.99 L2774.23 1801.11 L2776.83 1801.11 L2779.43 1801.24 L2782.02 1801.36 L2784.62 1801.49 L2787.10 1801.61 L2789.70 1801.61 L2792.30 1801.73 L2794.89 1801.86 L2797.49 1801.98 L2799.97 1801.98 L2802.57 1802.10 L2805.16 1802.23 L2807.76 1802.35 L2810.36 1802.35 L2812.84 1802.48 L2815.44 1802.60 L2818.03 1802.72 L2820.63 1802.72 L2823.23 1802.85 L2825.71 1802.97 L2828.31 1803.09 L2830.91 1803.09 L2833.50 1803.22 L2836.10 1803.34 L2838.58 1803.34 L2841.18 1803.47 L2843.78 1803.59 L2846.37 1803.71 L2848.97 1803.71 L2851.45 1803.84 L2854.05 1803.96 L2856.64 1803.96 L2859.24 1804.08 L2861.84 1804.21 L2864.44 1804.21 L2866.92 1804.33 L2869.51 1804.46 L2872.11 1804.46 L2874.71 1804.58 L2877.31 1804.70 L2879.79 1804.70 L2882.39 1804.83 L2884.98 1804.95 L2887.58 1804.95 L2890.18 1805.07 L2892.66 1805.20 L2895.26 1805.20 L2897.85 1805.32 L2900.45 1805.45 L2903.05 1805.45 L2905.53 1805.57 L2908.13 1805.69 L2910.72 1805.69 L2913.32 1805.82 L2915.92 1805.94 L2918.40 1805.94 L2920.99 1806.06 L2923.59 1806.06 L2926.19 1806.19 L2928.79 1806.31 L2931.27 1806.31 L2933.86 1806.44 L2936.46 1806.56 L2939.06 1806.56 L2941.66 1806.68 L2944.14 1806.68 L2946.74 1806.81 L2949.33 1806.93 L2951.93 1806.93 L2954.53 1807.05 L2957.01 1807.05 L2959.61 1807.18 L2962.20 1807.30 L2964.80 1807.30 L2967.40 1807.43 L2969.88 1807.43 L2972.47 1807.55 L2975.07 1807.55 L2977.67 1807.67 L2980.27 1807.80 L2982.75 1807.80 L2985.34 1807.92 L2987.94 1807.92 L2990.54 1808.04 L2993.14 1808.04 L2995.62 1808.17 L2998.22 1808.29 L3000.81 1808.29 L3003.41 1808.42 L3006.01 1808.42 L3008.49 1808.54 L3011.09 1808.54 L3013.68 1808.66 L3016.28 1808.66 L3018.88 1808.79 L3021.36 1808.91 L3023.95 1808.91 L3026.55 1809.03 L3029.15 1809.03 L3031.75 1809.16 L3034.23 1809.16 L3036.82 1809.28 L3039.42 1809.28 L3042.02 1809.41 L3044.62 1809.41 L3047.10 1809.53 L3049.70 1809.53 L3052.29 1809.65 L3054.89 1809.65 L3057.49 1809.78 L3060.09 1809.90 L3062.57 1809.90 L3065.16 1810.02" stroke-linejoin="round" style="fill:none;stroke:#006000;stroke-width:8.64"/>
	<path d=" M1512.84 531.40 L1515.44 763.93 L1518.04 930.13 L1520.64 1054.75 L1523.12 1151.65 L1525.71 1229.25 L1528.31 1292.73 L1530.91 1345.58 L1533.51 1390.25 L1535.98 1428.61 L1538.58 1461.90 L1541.18 1490.99 L1543.78 1516.60 L1546.38 1539.37 L1548.86 1559.79 L1551.45 1578.23 L1554.05 1594.82 L1556.65 1609.91 L1559.25 1623.65 L1561.72 1636.27 L1564.32 1647.91 L1566.92 1658.67 L1569.52 1668.70 L1572.12 1677.85 L1574.60 1686.52 L1577.19 1694.44 L1579.79 1701.99 L1582.39 1709.04 L1584.99 1715.60 L1587.46 1721.91 L1590.06 1727.73 L1592.66 1733.30 L1595.26 1738.49 L1597.86 1743.44 L1600.34 1748.15 L1602.93 1752.60 L1605.53 1756.93 L1608.13 1760.89 L1610.73 1764.85 L1613.20 1768.57 L1615.80 1772.03 L1618.40 1775.37 L1621.00 1778.59 L1623.60 1781.68 L1626.20 1784.65 L1628.67 1787.50 L1631.27 1790.22 L1633.87 1792.95 L1636.47 1795.42 L1639.07 1797.90 L1641.54 1800.25 L1644.14 1802.48 L1646.74 1804.70 L1649.34 1806.81 L1651.94 1808.79 L1654.41 1810.77 L1657.01 1812.75 L1659.61 1814.60 L1662.21 1816.34 L1664.81 1818.07 L1667.28 1819.80 L1669.88 1821.41 L1672.48 1822.89 L1675.08 1824.50 L1677.68 1825.99 L1680.15 1827.47 L1682.75 1828.83 L1685.35 1830.20 L1687.95 1831.56 L1690.55 1832.79 L1693.02 1834.03 L1695.62 1835.27 L1698.22 1836.51 L1700.82 1837.62 L1703.42 1838.73 L1705.89 1839.85 L1708.49 1840.96 L1711.09 1841.95 L1713.69 1843.07 L1716.29 1844.06 L1718.76 1845.05 L1721.36 1845.91 L1723.96 1846.90 L1726.56 1847.77 L1729.16 1848.76 L1731.63 1849.63 L1734.23 1850.37 L1736.83 1851.23 L1739.43 1852.10 L1742.03 1852.84 L1744.50 1853.71 L1747.10 1854.45 L1749.70 1855.19 L1752.30 1855.94 L1754.90 1856.68 L1757.37 1857.30 L1759.97 1858.04 L1762.57 1858.66 L1765.17 1859.40 L1767.77 1860.02 L1770.24 1860.64 L1772.84 1861.26 L1775.44 1861.88 L1778.04 1862.50 L1780.64 1863.11 L1783.11 1863.61 L1785.71 1864.23 L1788.31 1864.85 L1790.91 1865.34 L1793.51 1865.84 L1795.98 1866.46 L1798.58 1866.95 L1801.18 1867.45 L1803.78 1867.94 L1806.38 1868.44 L1808.85 1868.93 L1811.45 1869.43 L1814.05 1869.92 L1816.65 1870.42 L1819.25 1870.79 L1821.72 1871.28 L1824.32 1871.78 L1826.92 1872.15 L1829.52 1872.64 L1832.12 1873.01 L1834.72 1873.39 L1837.19 1873.88 L1839.79 1874.25 L1842.39 1874.62 L1844.99 1874.99 L1847.59 1875.37 L1850.06 1875.86 L1852.66 1876.23 L1855.26 1876.60 L1857.86 1876.85 L1860.46 1877.22 L1862.93 1877.59 L1865.53 1877.96 L1868.13 1878.34 L1870.73 1878.71 L1873.33 1878.95 L1875.80 1879.33 L1878.40 1879.70 L1881.00 1879.94 L1883.60 1880.32 L1886.20 1880.56 L1888.67 1880.94 L1891.27 1881.18 L1893.87 1881.55 L1896.47 1881.80 L1899.07 1882.05 L1901.54 1882.42 L1904.14 1882.67 L1906.74 1882.92 L1909.34 1883.16 L1911.94 1883.53 L1914.41 1883.78 L1917.01 1884.03 L1919.61 1884.28 L1922.21 1884.52 L1924.81 1884.77 L1927.28 1885.02 L1929.88 1885.27 L1932.48 1885.51 L1935.08 1885.76 L1937.68 1886.01 L1940.15 1886.26 L1942.75 1886.50 L1945.35 1886.75 L1947.95 1887.00 L1950.55 1887.25 L1953.02 1887.49 L1955.62 1887.74 L1958.22 1887.87 L1960.82 1888.11 L1963.42 1888.36 L1965.89 1888.61 L1968.49 1888.73 L1971.09 1888.98 L1973.69 1889.23 L1976.29 1889.35 L1978.76 1889.60 L1981.36 1889.85 L1983.96 1889.97 L1986.56 1890.22 L1989.16 1890.34 L1991.63 1890.59 L1994.23 1890.71 L1996.83 1890.96 L1999.43 1891.08 L2002.03 1891.33 L2004.50 1891.45 L2007.10 1891.70 L2009.70 1891.83 L2012.30 1892.07 L2014.90 1892.20 L2017.37 1892.44 L2019.97 1892.57 L2022.57 1892.69 L2025.17 1892.94 L2027.77 1893.06 L2030.24 1893.19 L2032.84 1893.43 L2035.44 1893.56 L2038.04 1893.68 L2040.64 1893.93 L2043.24 1894.05 L2045.71 1894.18 L2048.31 1894.30 L2050.91 1894.55 L2053.51 1894.67 L2056.11 1894.80 L2058.58 1894.92 L2061.18 1895.04 L2063.78 1895.29 L2066.38 1895.41 L2068.98 1895.54 L2071.45 1895.66 L2074.05 1895.79 L2076.65 1895.91 L2079.25 1896.16 L2081.85 1896.28 L2084.32 1896.40 L2086.92 1896.53 L2089.52 1896.65 L2092.12 1896.78 L2094.72 1896.90 L2097.19 1897.02 L2099.79 1897.15 L2102.39 1897.27 L2104.99 1897.39 L2107.59 1897.52 L2110.06 1897.64 L2112.66 1897.77 L2115.26 1897.89 L2117.86 1898.01 L2120.46 1898.14 L2122.93 1898.26 L2125.53 1898.38 L2128.13 1898.51 L2130.73 1898.63 L2133.33 1898.76 L2135.80 1898.88 L2138.40 1899.00 L2141.00 1899.13 L2143.60 1899.25 L2146.20 1899.25 L2148.67 1899.37 L2151.27 1899.50 L2153.87 1899.62 L2156.47 1899.75 L2159.07 1899.87 L2161.54 1899.99 L2164.14 1900.12 L2166.74 1900.12 L2169.34 1900.24 L2171.94 1900.36 L2174.41 1900.49 L2177.01 1900.61 L2179.61 1900.74 L2182.21 1900.74 L2184.81 1900.86 L2187.28 1900.98 L2189.88 1901.11 L2192.48 1901.23 L2195.08 1901.23 L2197.68 1901.35 L2200.15 1901.48 L2202.75 1901.60 L2205.35 1901.60 L2207.95 1901.73 L2210.55 1901.85 L2213.02 1901.97 L2215.62 1901.97 L2218.22 1902.10 L2220.82 1902.22 L2223.42 1902.22 L2225.89 1902.34 L2228.49 1902.47 L2231.09 1902.59 L2233.69 1902.59 L2236.29 1902.72 L2238.89 1902.84 L2241.36 1902.84 L2243.96 1902.96 L2246.56 1903.09 L2249.16 1903.09 L2251.76 1903.21 L2254.23 1903.33 L2256.83 1903.33 L2259.43 1903.46 L2262.03 1903.58 L2264.63 1903.58 L2267.10 1903.71 L2269.70 1903.83 L2272.30 1903.83 L2274.90 1903.95 L2277.49 1903.95 L2279.97 1904.08 L2282.57 1904.20 L2285.17 1904.20 L2287.77 1904.32 L2290.36 1904.32 L2292.84 1904.45 L2295.44 1904.57 L2298.04 1904.57 L2300.64 1904.70 L2303.24 1904.70 L2305.71 1904.82 L2308.31 1904.94 L2310.91 1904.94 L2313.51 1905.07 L2316.11 1905.07 L2318.58 1905.19 L2321.18 1905.19 L2323.78 1905.31 L2326.38 1905.31 L2328.97 1905.44 L2331.45 1905.56 L2334.05 1905.56 L2336.65 1905.69 L2339.25 1905.69 L2341.84 1905.81 L2344.32 1905.81 L2346.92 1905.93 L2349.52 1905.93 L2352.12 1906.06 L2354.72 1906.06 L2357.19 1906.18 L2359.79 1906.18 L2362.39 1906.30 L2364.99 1906.30 L2367.59 1906.43 L2370.06 1906.43 L2372.66 1906.55 L2375.26 1906.55 L2377.86 1906.68 L2380.45 1906.68 L2382.93 1906.80 L2385.53 1906.80 L2388.13 1906.92 L2390.73 1906.92 L2393.32 1907.05 L2395.80 1907.05 L2398.40 1907.17 L2401.00 1907.17 L2403.60 1907.17 L2406.20 1907.29 L2408.67 1907.29 L2411.27 1907.42 L2413.87 1907.42 L2416.47 1907.54 L2419.07 1907.54 L2421.54 1907.67 L2424.14 1907.67 L2426.74 1907.79 L2429.34 1907.79 L2431.93 1907.79 L2434.41 1907.91 L2437.01 1907.91 L2439.61 1908.04 L2442.21 1908.04 L2444.80 1908.04 L2447.40 1908.16 L2449.88 1908.16 L2452.48 1908.28 L2455.08 1908.28 L2457.68 1908.41 L2460.27 1908.41 L2462.75 1908.41 L2465.35 1908.53 L2467.95 1908.53 L2470.55 1908.66 L2473.14 1908.66 L2475.62 1908.66 L2478.22 1908.78 L2480.82 1908.78 L2483.41 1908.90 L2486.01 1908.90 L2488.49 1908.90 L2491.09 1909.03 L2493.69 1909.03 L2496.28 1909.03 L2498.88 1909.15 L2501.36 1909.15 L2503.96 1909.27 L2506.56 1909.27 L2509.16 1909.27 L2511.75 1909.40 L2514.23 1909.40 L2516.83 1909.40 L2519.43 1909.52 L2522.03 1909.52 L2524.62 1909.52 L2527.10 1909.65 L2529.70 1909.65 L2532.30 1909.77 L2534.89 1909.77 L2537.49 1909.77 L2539.97 1909.89 L2542.57 1909.89 L2545.17 1909.89 L2547.76 1910.02 L2550.36 1910.02 L2552.84 1910.02 L2555.44 1910.14 L2558.04 1910.14 L2560.64 1910.14 L2563.23 1910.26 L2565.71 1910.26 L2568.31 1910.26 L2570.91 1910.39 L2573.51 1910.39 L2576.10 1910.39 L2578.58 1910.51 L2581.18 1910.51 L2583.78 1910.51 L2586.38 1910.64 L2588.97 1910.64 L2591.45 1910.64 L2594.05 1910.64 L2596.65 1910.76 L2599.24 1910.76 L2601.84 1910.76 L2604.32 1910.88 L2606.92 1910.88 L2609.52 1910.88 L2612.11 1911.01 L2614.71 1911.01 L2617.19 1911.01 L2619.79 1911.13 L2622.39 1911.13 L2624.99 1911.13 L2627.58 1911.13 L2630.06 1911.25 L2632.66 1911.25 L2635.26 1911.25 L2637.86 1911.38 L2640.45 1911.38 L2642.93 1911.38 L2645.53 1911.38 L2648.13 1911.50 L2650.72 1911.50 L2653.32 1911.50 L2655.92 1911.63 L2658.40 1911.63 L2661.00 1911.63 L2663.59 1911.63 L2666.19 1911.75 L2668.79 1911.75 L2671.27 1911.75 L2673.87 1911.75 L2676.47 1911.87 L2679.06 1911.87 L2681.66 1911.87 L2684.14 1912.00 L2686.74 1912.00 L2689.34 1912.00 L2691.93 1912.00 L2694.53 1912.12 L2697.01 1912.12 L2699.61 1912.12 L2702.20 1912.12 L2704.80 1912.24 L2707.40 1912.24 L2709.88 1912.24 L2712.48 1912.24 L2715.07 1912.37 L2717.67 1912.37 L2720.27 1912.37 L2722.75 1912.37 L2725.35 1912.49 L2727.95 1912.49 L2730.54 1912.49 L2733.14 1912.49 L2735.62 1912.62 L2738.22 1912.62 L2740.82 1912.62 L2743.41 1912.62 L2746.01 1912.74 L2748.49 1912.74 L2751.09 1912.74 L2753.68 1912.74 L2756.28 1912.86 L2758.88 1912.86 L2761.36 1912.86 L2763.96 1912.86 L2766.55 1912.99 L2769.15 1912.99 L2771.75 1912.99 L2774.23 1912.99 L2776.83 1912.99 L2779.43 1913.11 L2782.02 1913.11 L2784.62 1913.11 L2787.10 1913.11 L2789.70 1913.23 L2792.30 1913.23 L2794.89 1913.23 L2797.49 1913.23 L2799.97 1913.23 L2802.57 1913.36 L2805.16 1913.36 L2807.76 1913.36 L2810.36 1913.36 L2812.84 1913.48 L2815.44 1913.48 L2818.03 1913.48 L2820.63 1913.48 L2823.23 1913.48 L2825.71 1913.61 L2828.31 1913.61 L2830.91 1913.61 L2833.50 1913.61 L2836.10 1913.61 L2838.58 1913.73 L2841.18 1913.73 L2843.78 1913.73 L2846.37 1913.73 L2848.97 1913.85 L2851.45 1913.85 L2854.05 1913.85 L2856.64 1913.85 L2859.24 1913.85 L2861.84 1913.98 L2864.44 1913.98 L2866.92 1913.98 L2869.51 1913.98 L2872.11 1913.98 L2874.71 1914.10 L2877.31 1914.10 L2879.79 1914.10 L2882.39 1914.10 L2884.98 1914.10 L2887.58 1914.22 L2890.18 1914.22 L2892.66 1914.22 L2895.26 1914.22 L2897.85 1914.22 L2900.45 1914.22 L2903.05 1914.35 L2905.53 1914.35 L2908.13 1914.35 L2910.72 1914.35 L2913.32 1914.35 L2915.92 1914.47 L2918.40 1914.47 L2920.99 1914.47 L2923.59 1914.47 L2926.19 1914.47 L2928.79 1914.60 L2931.27 1914.60 L2933.86 1914.60 L2936.46 1914.60 L2939.06 1914.60 L2941.66 1914.60 L2944.14 1914.72 L2946.74 1914.72 L2949.33 1914.72 L2951.93 1914.72 L2954.53 1914.72 L2957.01 1914.84 L2959.61 1914.84 L2962.20 1914.84 L2964.80 1914.84 L2967.40 1914.84 L2969.88 1914.84 L2972.47 1914.97 L2975.07 1914.97 L2977.67 1914.97 L2980.27 1914.97 L2982.75 1914.97 L2985.34 1914.97 L2987.94 1915.09 L2990.54 1915.09 L2993.14 1915.09 L2995.62 1915.09 L2998.22 1915.09 L3000.81 1915.09 L3003.41 1915.21 L3006.01 1915.21 L3008.49 1915.21 L3011.09 1915.21 L3013.68 1915.21 L3016.28 1915.21 L3018.88 1915.34 L3021.36 1915.34 L3023.95 1915.34 L3026.55 1915.34 L3029.15 1915.34 L3031.75 1915.34 L3034.23 1915.46 L3036.82 1915.46 L3039.42 1915.46 L3042.02 1915.46 L3044.62 1915.46 L3047.10 1915.46 L3049.70 1915.46 L3052.29 1915.59 L3054.89 1915.59 L3057.49 1915.59 L3060.09 1915.59 L3062.57 1915.59 L3065.16 1915.59" stroke-linejoin="round" style="fill:none;stroke:#FF4500;stroke-width:8.64"/>
	<circle cx="1633.87" cy="1791.83" r="26.35" style="fill:#1A476F"/>
	<circle cx="1633.87" cy="1791.83" r="22.03" style="fill:none;stroke:#1A476F;stroke-width:8.64"/>
	<text x="1704.90" y="1750.87" style="font-family:'Helvetica';font-size:79.94px;fill:#1A476f">E-value (CI): (1.74, 1.74)</text>
	<circle cx="1811.58" cy="1612.39" r="26.35" style="fill:#90353B"/>
	<circle cx="1811.58" cy="1612.39" r="22.03" style="fill:none;stroke:#90353B;stroke-width:8.64"/>
	<text x="1882.61" y="1571.43" style="font-family:'Helvetica';font-size:79.94px;fill:#90353b">E-value: (2.43, 2.43)</text>
	<line x1="1122.66" y1="2307.64" x2="1122.66" y2="100.86" style="stroke:#000000;stroke-width:5.76"/>
	<line x1="1122.66" y1="2244.28" x2="1082.69" y2="2244.28" style="stroke:#000000;stroke-width:5.76"/>
	<text x="1032.58" y="2244.28" style="font-family:'Helvetica';font-size:99.99px;fill:#000000" transform="rotate(-90 1032.58,2244.28)" text-anchor="middle">0</text>
	<line x1="1122.66" y1="1724.26" x2="1082.69" y2="1724.26" style="stroke:#000000;stroke-width:5.76"/>
	<text x="1032.58" y="1724.26" style="font-family:'Helvetica';font-size:99.99px;fill:#000000" transform="rotate(-90 1032.58,1724.26)" text-anchor="middle">2</text>
	<line x1="1122.66" y1="1204.25" x2="1082.69" y2="1204.25" style="stroke:#000000;stroke-width:5.76"/>
	<text x="1032.58" y="1204.25" style="font-family:'Helvetica';font-size:99.99px;fill:#000000" transform="rotate(-90 1032.58,1204.25)" text-anchor="middle">4</text>
	<line x1="1122.66" y1="684.24" x2="1082.69" y2="684.24" style="stroke:#000000;stroke-width:5.76"/>
	<text x="1032.58" y="684.24" style="font-family:'Helvetica';font-size:99.99px;fill:#000000" transform="rotate(-90 1032.58,684.24)" text-anchor="middle">6</text>
	<line x1="1122.66" y1="164.22" x2="1082.69" y2="164.22" style="stroke:#000000;stroke-width:5.76"/>
	<text x="1032.58" y="164.22" style="font-family:'Helvetica';font-size:99.99px;fill:#000000" transform="rotate(-90 1032.58,164.22)" text-anchor="middle">8</text>
	<text x="827.85" y="1204.25" style="font-family:'Helvetica';font-size:79.94px;fill:#000000" transform="rotate(-90 827.85,1204.25)" text-anchor="middle">Risk ratio for confounder-outcome relationship</text>
	<line x1="1122.66" y1="2307.64" x2="3308.83" y2="2307.64" style="stroke:#000000;stroke-width:5.76"/>
	<line x1="1186.02" y1="2307.64" x2="1186.02" y2="2347.61" style="stroke:#000000;stroke-width:5.76"/>
	<text x="1186.02" y="2437.59" style="font-family:'Helvetica';font-size:99.99px;fill:#000000" text-anchor="middle">0</text>
	<line x1="1700.82" y1="2307.64" x2="1700.82" y2="2347.61" style="stroke:#000000;stroke-width:5.76"/>
	<text x="1700.82" y="2437.59" style="font-family:'Helvetica';font-size:99.99px;fill:#000000" text-anchor="middle">2</text>
	<line x1="2215.74" y1="2307.64" x2="2215.74" y2="2347.61" style="stroke:#000000;stroke-width:5.76"/>
	<text x="2215.74" y="2437.59" style="font-family:'Helvetica';font-size:99.99px;fill:#000000" text-anchor="middle">4</text>
	<line x1="2730.54" y1="2307.64" x2="2730.54" y2="2347.61" style="stroke:#000000;stroke-width:5.76"/>
	<text x="2730.54" y="2437.59" style="font-family:'Helvetica';font-size:99.99px;fill:#000000" text-anchor="middle">6</text>
	<line x1="3245.47" y1="2307.64" x2="3245.47" y2="2347.61" style="stroke:#000000;stroke-width:5.76"/>
	<text x="3245.47" y="2437.59" style="font-family:'Helvetica';font-size:99.99px;fill:#000000" text-anchor="middle">8</text>
	<text x="2215.74" y="2634.31" style="font-family:'Helvetica';font-size:79.94px;fill:#000000" text-anchor="middle">Risk ratio for exposure-confounder relationship</text>
</svg>
