<?xml version="1.0" encoding="UTF-8" standalone="no"?>
<!-- This is a Stata 16.1 generated SVG file (http://www.stata.com) -->

<svg version="1.1" width="5.50in" height="4.00in" viewBox="0 0 3960 2880" xmlns="http://www.w3.org/2000/svg" xmlns:xlink="http://www.w3.org/1999/xlink">
	<desc>Stata Graph - Graph</desc>
	<rect x="0" y="0" width="3960" height="2880" style="fill:#FFFFFF;stroke:none"/>
	<rect x="0.00" y="0.00" width="3959.88" height="2880.00" style="fill:#FFFFFF"/>
	<rect x="2.88" y="2.88" width="3954.12" height="2874.24" style="fill:none;stroke:#FFFFFF;stroke-width:5.76"/>
	<rect x="1125.54" y="103.74" width="2180.41" height="2201.02" style="fill:none;stroke:#000000;stroke-width:5.76"/>
	<path d=" M1301.60 164.22 L1303.95 262.61 L1306.31 351.83 L1308.78 432.89 L1311.13 507.14 L1313.61 575.08 L1315.96 637.83 L1318.43 695.62 L1320.78 749.33 L1323.26 799.08 L1325.61 845.61 L1328.09 888.92 L1330.44 929.52 L1332.91 967.51 L1335.26 1003.40 L1337.74 1037.06 L1340.09 1068.86 L1342.44 1098.81 L1344.91 1127.27 L1347.27 1154.13 L1349.74 1179.75 L1352.09 1204.00 L1354.57 1227.14 L1356.92 1249.17 L1359.39 1270.09 L1361.74 1290.13 L1364.22 1309.32 L1366.57 1327.63 L1369.05 1345.20 L1371.40 1362.04 L1373.75 1378.12 L1376.22 1393.72 L1378.58 1408.57 L1381.05 1422.92 L1383.40 1436.66 L1385.88 1450.02 L1388.23 1462.77 L1390.70 1475.15 L1393.05 1487.03 L1395.53 1498.54 L1397.88 1509.67 L1400.36 1520.44 L1402.71 1530.84 L1405.18 1540.86 L1407.53 1550.64 L1409.88 1560.04 L1412.36 1569.20 L1414.71 1578.11 L1417.18 1586.65 L1419.54 1595.06 L1422.01 1603.11 L1424.36 1611.03 L1426.84 1618.70 L1429.19 1626.13 L1431.66 1633.43 L1434.02 1640.48 L1436.49 1647.29 L1438.84 1653.97 L1441.19 1660.53 L1443.67 1666.84 L1446.02 1673.03 L1448.49 1679.09 L1450.85 1685.03 L1453.32 1690.73 L1455.67 1696.29 L1458.15 1701.74 L1460.50 1707.18 L1462.97 1712.38 L1465.32 1717.46 L1467.80 1722.41 L1470.15 1727.36 L1472.63 1732.06 L1474.98 1736.76 L1477.33 1741.22 L1479.80 1745.67 L1482.15 1750.13 L1484.63 1754.33 L1486.98 1758.54 L1489.45 1762.63 L1491.81 1766.71 L1494.28 1770.55 L1496.63 1774.51 L1499.11 1778.22 L1501.46 1781.93 L1503.93 1785.52 L1506.29 1789.11 L1508.64 1792.70 L1511.11 1796.04 L1513.46 1799.38 L1515.94 1802.72 L1518.29 1805.94 L1520.76 1809.16 L1523.12 1812.25 L1525.59 1815.35 L1527.94 1818.44 L1530.42 1821.41 L1532.77 1824.26 L1535.24 1827.10 L1537.59 1829.95 L1540.07 1832.67 L1542.42 1835.39 L1544.77 1838.12 L1547.25 1840.72 L1549.60 1843.31 L1552.07 1845.91 L1554.42 1848.39 L1556.90 1850.86 L1559.25 1853.21 L1561.72 1855.69 L1564.08 1858.04 L1566.55 1860.27 L1568.90 1862.62 L1571.38 1864.85 L1573.73 1867.07 L1576.08 1869.18 L1578.56 1871.41 L1580.91 1873.51 L1583.38 1875.61 L1585.73 1877.59 L1588.21 1879.70 L1590.56 1881.68 L1593.03 1883.66 L1595.38 1885.51 L1597.86 1887.49 L1600.21 1889.35 L1602.69 1891.21 L1605.04 1893.06 L1607.51 1894.80 L1609.86 1896.65 L1612.21 1898.38 L1614.69 1900.12 L1617.04 1901.85 L1619.52 1903.46 L1621.87 1905.19 L1624.34 1906.80 L1626.69 1908.41 L1629.17 1910.02 L1631.52 1911.63 L1633.99 1913.23 L1636.35 1914.72 L1638.82 1916.20 L1641.17 1917.69 L1643.52 1919.17 L1646.00 1920.66 L1648.35 1922.15 L1650.83 1923.63 L1653.18 1924.99 L1655.65 1926.35 L1658.00 1927.71 L1660.48 1929.08 L1662.83 1930.44 L1665.30 1931.80 L1667.65 1933.16 L1670.13 1934.40 L1672.48 1935.76 L1674.96 1937.00 L1677.31 1938.23 L1679.66 1939.47 L1682.13 1940.71 L1684.48 1941.95 L1686.96 1943.06 L1689.31 1944.30 L1691.79 1945.53 L1694.14 1946.65 L1696.61 1947.76 L1698.96 1948.88 L1701.44 1949.99 L1703.79 1951.10 L1706.27 1952.22 L1708.62 1953.33 L1710.97 1954.44 L1713.44 1955.43 L1715.79 1956.55 L1718.27 1957.54 L1720.62 1958.65 L1723.10 1959.64 L1725.45 1960.63 L1727.92 1961.62 L1730.27 1962.61 L1732.75 1963.60 L1735.10 1964.59 L1737.57 1965.58 L1739.92 1966.57 L1742.40 1967.44 L1744.75 1968.43 L1747.10 1969.30 L1749.58 1970.29 L1751.93 1971.15 L1754.40 1972.02 L1756.76 1972.88 L1759.23 1973.75 L1761.58 1974.62 L1764.06 1975.48 L1766.41 1976.35 L1768.88 1977.22 L1771.23 1978.08 L1773.71 1978.95 L1776.06 1979.69 L1778.54 1980.56 L1780.89 1981.30 L1783.24 1982.17 L1785.71 1982.91 L1788.06 1983.77 L1790.54 1984.52 L1792.89 1985.26 L1795.37 1986.13 L1797.72 1986.87 L1800.19 1987.61 L1802.54 1988.35 L1805.02 1989.10 L1807.37 1989.84 L1809.84 1990.58 L1812.19 1991.20 L1814.55 1991.94 L1817.02 1992.68 L1819.37 1993.43 L1821.85 1994.05 L1824.20 1994.79 L1826.67 1995.41 L1829.03 1996.15 L1831.50 1996.77 L1833.85 1997.51 L1836.33 1998.13 L1838.68 1998.75 L1841.15 1999.37 L1843.50 2000.11 L1845.98 2000.73 L1848.33 2001.35 L1850.68 2001.97 L1853.16 2002.59 L1855.51 2003.20 L1857.98 2003.82 L1860.33 2004.44 L1862.81 2005.06 L1865.16 2005.68 L1867.63 2006.30 L1869.99 2006.79 L1872.46 2007.41 L1874.81 2008.03 L1877.29 2008.65 L1879.64 2009.14 L1881.99 2009.76 L1884.46 2010.26 L1886.82 2010.88 L1889.29 2011.37 L1891.64 2011.99 L1894.12 2012.49 L1896.47 2013.10 L1898.94 2013.60 L1901.30 2014.09 L1903.77 2014.71 L1906.12 2015.21 L1908.60 2015.70 L1910.95 2016.20 L1913.42 2016.69 L1915.77 2017.31 L1918.13 2017.81 L1920.60 2018.30 L1922.95 2018.80 L1925.43 2019.29 L1927.78 2019.79 L1930.25 2020.28 L1932.60 2020.78 L1935.08 2021.27 L1937.43 2021.64 L1939.90 2022.14 L1942.26 2022.63 L1944.73 2023.13 L1947.08 2023.62 L1949.43 2023.99 L1951.91 2024.49 L1954.26 2024.98 L1956.73 2025.48 L1959.09 2025.85 L1961.56 2026.35 L1963.91 2026.72 L1966.39 2027.21 L1968.74 2027.58 L1971.21 2028.08 L1973.57 2028.45 L1976.04 2028.94 L1978.39 2029.32 L1980.87 2029.81 L1983.22 2030.18 L1985.57 2030.68 L1988.04 2031.05 L1990.39 2031.42 L1992.87 2031.91 L1995.22 2032.29 L1997.70 2032.66 L2000.05 2033.03 L2002.52 2033.52 L2004.87 2033.89 L2007.35 2034.27 L2009.70 2034.64 L2012.17 2035.01 L2014.53 2035.50 L2016.88 2035.87 L2019.35 2036.25 L2021.70 2036.62 L2024.18 2036.99 L2026.53 2037.36 L2029.01 2037.73 L2031.36 2038.10 L2033.83 2038.47 L2036.18 2038.84 L2038.66 2039.22 L2041.01 2039.59 L2043.48 2039.96 L2045.84 2040.21 L2048.31 2040.58 L2050.66 2040.95 L2053.01 2041.32 L2055.49 2041.69 L2057.84 2042.06 L2060.31 2042.31 L2062.66 2042.68 L2065.14 2043.05 L2067.49 2043.42 L2069.97 2043.67 L2072.32 2044.04 L2074.79 2044.41 L2077.14 2044.66 L2079.62 2045.03 L2081.97 2045.40 L2084.32 2045.65 L2086.80 2046.02 L2089.15 2046.39 L2091.62 2046.64 L2093.97 2047.01 L2096.45 2047.26 L2098.80 2047.63 L2101.28 2047.88 L2103.63 2048.25 L2106.10 2048.50 L2108.45 2048.87 L2110.93 2049.12 L2113.28 2049.49 L2115.75 2049.74 L2118.11 2050.11 L2120.46 2050.35 L2122.93 2050.60 L2125.28 2050.97 L2127.76 2051.22 L2130.11 2051.47 L2132.58 2051.84 L2134.93 2052.09 L2137.41 2052.33 L2139.76 2052.71 L2142.24 2052.95 L2144.59 2053.20 L2147.06 2053.57 L2149.41 2053.82 L2151.76 2054.07 L2154.24 2054.31 L2156.59 2054.69 L2159.07 2054.93 L2161.42 2055.18 L2163.89 2055.43 L2166.24 2055.68 L2168.72 2055.92 L2171.07 2056.29 L2173.55 2056.54 L2175.90 2056.79 L2178.37 2057.04 L2180.72 2057.28 L2183.20 2057.53 L2185.55 2057.78 L2187.90 2058.03 L2190.38 2058.27 L2192.73 2058.52 L2195.20 2058.89 L2197.55 2059.14 L2200.03 2059.39 L2202.38 2059.64 L2204.85 2059.88 L2207.20 2060.13 L2209.68 2060.38 L2212.03 2060.63 L2214.51 2060.75 L2216.86 2061.00 L2219.21 2061.24 L2221.68 2061.49 L2224.03 2061.74 L2226.51 2061.99 L2228.86 2062.23 L2231.34 2062.48 L2233.69 2062.73 L2236.16 2062.98 L2238.51 2063.22 L2240.99 2063.35 L2243.34 2063.60 L2245.82 2063.84 L2248.17 2064.09 L2250.64 2064.34 L2252.99 2064.59 L2255.34 2064.71 L2257.82 2064.96 L2260.17 2065.20 L2262.64 2065.45 L2265.00 2065.58 L2267.47 2065.82 L2269.82 2066.07 L2272.30 2066.32 L2274.65 2066.44 L2277.12 2066.69 L2279.47 2066.94 L2281.95 2067.18 L2284.30 2067.31 L2286.65 2067.56 L2289.13 2067.80 L2291.48 2067.93 L2293.95 2068.17 L2296.30 2068.42 L2298.78 2068.55 L2301.13 2068.79 L2303.61 2069.04 L2305.96 2069.16 L2308.43 2069.41 L2310.78 2069.66 L2313.26 2069.78 L2315.61 2070.03 L2318.09 2070.15 L2320.44 2070.40 L2322.79 2070.65 L2325.26 2070.77 L2327.61 2071.02 L2330.09 2071.14 L2332.44 2071.39 L2334.91 2071.52 L2337.27 2071.76 L2339.74 2071.89 L2342.09 2072.13 L2344.57 2072.26 L2346.92 2072.51 L2349.39 2072.63 L2351.74 2072.88 L2354.10 2073.00 L2356.57 2073.25 L2358.92 2073.37 L2361.40 2073.62 L2363.75 2073.74 L2366.22 2073.99 L2368.57 2074.11 L2371.05 2074.36 L2373.40 2074.49 L2375.88 2074.73 L2378.23 2074.86 L2380.70 2074.98 L2383.05 2075.23 L2385.53 2075.35 L2387.88 2075.60 L2390.23 2075.72 L2392.71 2075.85 L2395.06 2076.09 L2397.53 2076.22 L2399.88 2076.47 L2402.36 2076.59 L2404.71 2076.71 L2407.18 2076.96 L2409.54 2077.08 L2412.01 2077.21 L2414.36 2077.46 L2416.84 2077.58 L2419.19 2077.70 L2421.54 2077.95 L2424.01 2078.07 L2426.37 2078.20 L2428.84 2078.45 L2431.19 2078.57 L2433.67 2078.69 L2436.02 2078.94 L2438.49 2079.06 L2440.84 2079.19 L2443.32 2079.31 L2445.67 2079.56 L2448.15 2079.68 L2450.50 2079.81 L2452.97 2079.93 L2455.32 2080.18 L2457.68 2080.30 L2460.15 2080.43 L2462.50 2080.55 L2464.98 2080.80 L2467.33 2080.92 L2469.80 2081.05 L2472.15 2081.17 L2474.63 2081.42 L2476.98 2081.54 L2479.45 2081.66 L2481.81 2081.79 L2484.28 2081.91 L2486.63 2082.16 L2488.98 2082.28 L2491.46 2082.41 L2493.81 2082.53 L2496.28 2082.65 L2498.64 2082.78 L2501.11 2083.03 L2503.46 2083.15 L2505.94 2083.27 L2508.29 2083.40 L2510.76 2083.52 L2513.11 2083.64 L2515.59 2083.77 L2517.94 2084.02 L2520.42 2084.14 L2522.77 2084.26 L2525.12 2084.39 L2527.59 2084.51 L2529.95 2084.63 L2532.42 2084.76 L2534.77 2084.88 L2537.25 2085.01 L2539.60 2085.25 L2542.07 2085.38 L2544.42 2085.50 L2546.90 2085.62 L2549.25 2085.75 L2551.72 2085.87 L2554.08 2086.00 L2556.43 2086.12 L2558.90 2086.24 L2561.25 2086.37 L2563.73 2086.49 L2566.08 2086.61 L2568.55 2086.74 L2570.91 2086.86 L2573.38 2086.99 L2575.73 2087.11 L2578.21 2087.23 L2580.56 2087.48 L2583.03 2087.60 L2585.39 2087.73 L2587.86 2087.85 L2590.21 2087.98 L2592.56 2088.10 L2595.04 2088.22 L2597.39 2088.35 L2599.86 2088.47 L2602.22 2088.59 L2604.69 2088.72 L2607.04 2088.84 L2609.52 2088.97 L2611.87 2089.09 L2614.34 2089.09 L2616.69 2089.21 L2619.17 2089.34 L2621.52 2089.46 L2623.87 2089.58 L2626.35 2089.71 L2628.70 2089.83 L2631.17 2089.96 L2633.52 2090.08 L2636.00 2090.20 L2638.35 2090.33 L2640.82 2090.45 L2643.18 2090.57 L2645.65 2090.70 L2648.00 2090.82 L2650.48 2090.95 L2652.83 2091.07 L2655.30 2091.19 L2657.66 2091.19 L2660.01 2091.32 L2662.48 2091.44 L2664.83 2091.56 L2667.31 2091.69 L2669.66 2091.81 L2672.13 2091.94 L2674.49 2092.06 L2676.96 2092.18 L2679.31 2092.31 L2681.79 2092.31 L2684.14 2092.43 L2686.61 2092.55 L2688.96 2092.68 L2691.32 2092.80 L2693.79 2092.93 L2696.14 2093.05 L2698.62 2093.17 L2700.97 2093.17 L2703.44 2093.30 L2705.79 2093.42 L2708.27 2093.54 L2710.62 2093.67 L2713.09 2093.79 L2715.45 2093.92 L2717.92 2093.92 L2720.27 2094.04 L2722.75 2094.16 L2725.10 2094.29 L2727.45 2094.41 L2729.93 2094.53 L2732.28 2094.53 L2734.75 2094.66 L2737.10 2094.78 L2739.58 2094.91 L2741.93 2095.03 L2744.40 2095.03 L2746.76 2095.15 L2749.23 2095.28 L2751.58 2095.40 L2754.06 2095.52 L2756.41 2095.52 L2758.76 2095.65 L2761.23 2095.77 L2763.59 2095.90 L2766.06 2096.02 L2768.41 2096.02 L2770.89 2096.14 L2773.24 2096.27 L2775.71 2096.39 L2778.06 2096.51 L2780.54 2096.51 L2782.89 2096.64 L2785.36 2096.76 L2787.72 2096.89 L2790.19 2096.89 L2792.54 2097.01 L2794.89 2097.13 L2797.37 2097.26 L2799.72 2097.26 L2802.20 2097.38 L2804.55 2097.50 L2807.02 2097.63 L2809.37 2097.63 L2811.85 2097.75 L2814.20 2097.88 L2816.67 2098.00 L2819.03 2098.00 L2821.50 2098.12 L2823.85 2098.25 L2826.20 2098.37 L2828.68 2098.37 L2831.03 2098.49 L2833.50 2098.62 L2835.86 2098.74 L2838.33 2098.74 L2840.68 2098.87 L2843.16 2098.99 L2845.51 2098.99 L2847.98 2099.11 L2850.33 2099.24 L2852.81 2099.24 L2855.16 2099.36 L2857.64 2099.48 L2859.99 2099.61 L2862.34 2099.61 L2864.81 2099.73 L2867.16 2099.86 L2869.64 2099.86 L2871.99 2099.98 L2874.47 2100.10 L2876.82 2100.10 L2879.29 2100.23 L2881.64 2100.35 L2884.12 2100.35 L2886.47 2100.47 L2888.94 2100.60 L2891.30 2100.72 L2893.65 2100.72 L2896.12 2100.85 L2898.47 2100.97 L2900.95 2100.97 L2903.30 2101.09 L2905.77 2101.09 L2908.13 2101.22 L2910.60 2101.34" stroke-linejoin="round" style="fill:none;stroke:#006000;stroke-width:8.64"/>
	<path d=" M1185.90 207.41 L1188.37 449.47 L1190.72 640.67 L1193.20 795.49 L1195.55 923.33 L1198.02 1030.75 L1200.38 1122.20 L1202.85 1201.03 L1205.20 1269.71 L1207.55 1330.11 L1210.03 1383.57 L1212.38 1431.21 L1214.85 1474.03 L1217.20 1512.64 L1219.68 1547.67 L1222.03 1579.59 L1224.51 1608.80 L1226.86 1635.53 L1229.33 1660.28 L1231.68 1683.18 L1234.16 1704.34 L1236.51 1724.02 L1238.86 1742.33 L1241.34 1759.53 L1243.69 1775.62 L1246.16 1790.72 L1248.51 1804.83 L1250.99 1818.19 L1253.34 1830.81 L1255.82 1842.70 L1258.17 1853.96 L1260.64 1864.72 L1262.99 1874.87 L1265.47 1884.52 L1267.82 1893.68 L1270.29 1902.47 L1272.64 1910.76 L1275.00 1918.80 L1277.47 1926.35 L1279.82 1933.65 L1282.30 1940.71 L1284.65 1947.39 L1287.12 1953.83 L1289.47 1960.01 L1291.95 1965.95 L1294.30 1971.65 L1296.78 1977.09 L1299.13 1982.41 L1301.60 1987.49 L1303.95 1992.44 L1306.31 1997.14 L1308.78 2001.84 L1311.13 2006.17 L1313.61 2010.51 L1315.96 2014.71 L1318.43 2018.67 L1320.78 2022.51 L1323.26 2026.35 L1325.61 2029.93 L1328.09 2033.52 L1330.44 2036.99 L1332.91 2040.33 L1335.26 2043.55 L1337.74 2046.64 L1340.09 2049.74 L1342.44 2052.71 L1344.91 2055.68 L1347.27 2058.40 L1349.74 2061.24 L1352.09 2063.84 L1354.57 2066.44 L1356.92 2069.04 L1359.39 2071.52 L1361.74 2073.87 L1364.22 2076.22 L1366.57 2078.57 L1369.05 2080.80 L1371.40 2083.03 L1373.75 2085.13 L1376.22 2087.23 L1378.58 2089.21 L1381.05 2091.19 L1383.40 2093.17 L1385.88 2095.15 L1388.23 2097.01 L1390.70 2098.74 L1393.05 2100.60 L1395.53 2102.33 L1397.88 2104.06 L1400.36 2105.67 L1402.71 2107.28 L1405.18 2108.89 L1407.53 2110.50 L1409.88 2112.11 L1412.36 2113.59 L1414.71 2115.08 L1417.18 2116.56 L1419.54 2117.92 L1422.01 2119.28 L1424.36 2120.77 L1426.84 2122.01 L1429.19 2123.37 L1431.66 2124.73 L1434.02 2125.97 L1436.49 2127.21 L1438.84 2128.44 L1441.19 2129.68 L1443.67 2130.79 L1446.02 2132.03 L1448.49 2133.15 L1450.85 2134.26 L1453.32 2135.37 L1455.67 2136.49 L1458.15 2137.60 L1460.50 2138.59 L1462.97 2139.70 L1465.32 2140.69 L1467.80 2141.68 L1470.15 2142.67 L1472.63 2143.66 L1474.98 2144.53 L1477.33 2145.52 L1479.80 2146.51 L1482.15 2147.38 L1484.63 2148.24 L1486.98 2149.11 L1489.45 2149.98 L1491.81 2150.84 L1494.28 2151.71 L1496.63 2152.57 L1499.11 2153.44 L1501.46 2154.18 L1503.93 2155.05 L1506.29 2155.79 L1508.64 2156.53 L1511.11 2157.28 L1513.46 2158.14 L1515.94 2158.89 L1518.29 2159.63 L1520.76 2160.25 L1523.12 2160.99 L1525.59 2161.73 L1527.94 2162.35 L1530.42 2163.09 L1532.77 2163.71 L1535.24 2164.46 L1537.59 2165.07 L1540.07 2165.69 L1542.42 2166.44 L1544.77 2167.05 L1547.25 2167.67 L1549.60 2168.29 L1552.07 2168.91 L1554.42 2169.53 L1556.90 2170.02 L1559.25 2170.64 L1561.72 2171.26 L1564.08 2171.88 L1566.55 2172.38 L1568.90 2172.99 L1571.38 2173.49 L1573.73 2174.11 L1576.08 2174.60 L1578.56 2175.10 L1580.91 2175.72 L1583.38 2176.21 L1585.73 2176.71 L1588.21 2177.20 L1590.56 2177.70 L1593.03 2178.19 L1595.38 2178.69 L1597.86 2179.18 L1600.21 2179.68 L1602.69 2180.17 L1605.04 2180.67 L1607.51 2181.04 L1609.86 2181.53 L1612.21 2182.03 L1614.69 2182.40 L1617.04 2182.89 L1619.52 2183.39 L1621.87 2183.76 L1624.34 2184.26 L1626.69 2184.63 L1629.17 2185.00 L1631.52 2185.49 L1633.99 2185.86 L1636.35 2186.36 L1638.82 2186.73 L1641.17 2187.10 L1643.52 2187.47 L1646.00 2187.84 L1648.35 2188.34 L1650.83 2188.71 L1653.18 2189.08 L1655.65 2189.45 L1658.00 2189.82 L1660.48 2190.20 L1662.83 2190.57 L1665.30 2190.94 L1667.65 2191.31 L1670.13 2191.68 L1672.48 2191.93 L1674.96 2192.30 L1677.31 2192.67 L1679.66 2193.04 L1682.13 2193.41 L1684.48 2193.66 L1686.96 2194.03 L1689.31 2194.40 L1691.79 2194.65 L1694.14 2195.02 L1696.61 2195.39 L1698.96 2195.64 L1701.44 2196.01 L1703.79 2196.26 L1706.27 2196.63 L1708.62 2196.88 L1710.97 2197.25 L1713.44 2197.50 L1715.79 2197.87 L1718.27 2198.12 L1720.62 2198.36 L1723.10 2198.73 L1725.45 2198.98 L1727.92 2199.23 L1730.27 2199.60 L1732.75 2199.85 L1735.10 2200.10 L1737.57 2200.34 L1739.92 2200.72 L1742.40 2200.96 L1744.75 2201.21 L1747.10 2201.46 L1749.58 2201.71 L1751.93 2201.95 L1754.40 2202.32 L1756.76 2202.57 L1759.23 2202.82 L1761.58 2203.07 L1764.06 2203.31 L1766.41 2203.56 L1768.88 2203.81 L1771.23 2204.06 L1773.71 2204.30 L1776.06 2204.55 L1778.54 2204.80 L1780.89 2205.05 L1783.24 2205.29 L1785.71 2205.54 L1788.06 2205.67 L1790.54 2205.91 L1792.89 2206.16 L1795.37 2206.41 L1797.72 2206.66 L1800.19 2206.90 L1802.54 2207.03 L1805.02 2207.27 L1807.37 2207.52 L1809.84 2207.77 L1812.19 2208.02 L1814.55 2208.14 L1817.02 2208.39 L1819.37 2208.64 L1821.85 2208.76 L1824.20 2209.01 L1826.67 2209.25 L1829.03 2209.38 L1831.50 2209.63 L1833.85 2209.87 L1836.33 2210.00 L1838.68 2210.24 L1841.15 2210.49 L1843.50 2210.62 L1845.98 2210.86 L1848.33 2210.99 L1850.68 2211.23 L1853.16 2211.36 L1855.51 2211.61 L1857.98 2211.73 L1860.33 2211.98 L1862.81 2212.10 L1865.16 2212.35 L1867.63 2212.47 L1869.99 2212.72 L1872.46 2212.84 L1874.81 2213.09 L1877.29 2213.21 L1879.64 2213.46 L1881.99 2213.59 L1884.46 2213.83 L1886.82 2213.96 L1889.29 2214.08 L1891.64 2214.33 L1894.12 2214.45 L1896.47 2214.58 L1898.94 2214.82 L1901.30 2214.95 L1903.77 2215.19 L1906.12 2215.32 L1908.60 2215.44 L1910.95 2215.69 L1913.42 2215.81 L1915.77 2215.94 L1918.13 2216.06 L1920.60 2216.31 L1922.95 2216.43 L1925.43 2216.56 L1927.78 2216.68 L1930.25 2216.93 L1932.60 2217.05 L1935.08 2217.17 L1937.43 2217.30 L1939.90 2217.55 L1942.26 2217.67 L1944.73 2217.79 L1947.08 2217.92 L1949.43 2218.04 L1951.91 2218.29 L1954.26 2218.41 L1956.73 2218.54 L1959.09 2218.66 L1961.56 2218.78 L1963.91 2218.91 L1966.39 2219.15 L1968.74 2219.28 L1971.21 2219.40 L1973.57 2219.53 L1976.04 2219.65 L1978.39 2219.77 L1980.87 2219.90 L1983.22 2220.02 L1985.57 2220.14 L1988.04 2220.39 L1990.39 2220.52 L1992.87 2220.64 L1995.22 2220.76 L1997.70 2220.89 L2000.05 2221.01 L2002.52 2221.13 L2004.87 2221.26 L2007.35 2221.38 L2009.70 2221.51 L2012.17 2221.63 L2014.53 2221.75 L2016.88 2221.88 L2019.35 2222.00 L2021.70 2222.12 L2024.18 2222.25 L2026.53 2222.37 L2029.01 2222.50 L2031.36 2222.62 L2033.83 2222.74 L2036.18 2222.87 L2038.66 2222.99 L2041.01 2223.11 L2043.48 2223.24 L2045.84 2223.36 L2048.31 2223.49 L2050.66 2223.49 L2053.01 2223.61 L2055.49 2223.73 L2057.84 2223.86 L2060.31 2223.98 L2062.66 2224.10 L2065.14 2224.23 L2067.49 2224.35 L2069.97 2224.48 L2072.32 2224.60 L2074.79 2224.72 L2077.14 2224.72 L2079.62 2224.85 L2081.97 2224.97 L2084.32 2225.09 L2086.80 2225.22 L2089.15 2225.34 L2091.62 2225.47 L2093.97 2225.47 L2096.45 2225.59 L2098.80 2225.71 L2101.28 2225.84 L2103.63 2225.96 L2106.10 2226.08 L2108.45 2226.08 L2110.93 2226.21 L2113.28 2226.33 L2115.75 2226.46 L2118.11 2226.58 L2120.46 2226.58 L2122.93 2226.70 L2125.28 2226.83 L2127.76 2226.95 L2130.11 2227.07 L2132.58 2227.07 L2134.93 2227.20 L2137.41 2227.32 L2139.76 2227.45 L2142.24 2227.45 L2144.59 2227.57 L2147.06 2227.69 L2149.41 2227.82 L2151.76 2227.82 L2154.24 2227.94 L2156.59 2228.06 L2159.07 2228.19 L2161.42 2228.19 L2163.89 2228.31 L2166.24 2228.44 L2168.72 2228.56 L2171.07 2228.56 L2173.55 2228.68 L2175.90 2228.81 L2178.37 2228.81 L2180.72 2228.93 L2183.20 2229.05 L2185.55 2229.18 L2187.90 2229.18 L2190.38 2229.30 L2192.73 2229.43 L2195.20 2229.43 L2197.55 2229.55 L2200.03 2229.67 L2202.38 2229.67 L2204.85 2229.80 L2207.20 2229.92 L2209.68 2229.92 L2212.03 2230.04 L2214.51 2230.17 L2216.86 2230.17 L2219.21 2230.29 L2221.68 2230.42 L2224.03 2230.42 L2226.51 2230.54 L2228.86 2230.66 L2231.34 2230.66 L2233.69 2230.79 L2236.16 2230.91 L2238.51 2230.91 L2240.99 2231.03 L2243.34 2231.03 L2245.82 2231.16 L2248.17 2231.28 L2250.64 2231.28 L2252.99 2231.41 L2255.34 2231.53 L2257.82 2231.53 L2260.17 2231.65 L2262.64 2231.65 L2265.00 2231.78 L2267.47 2231.90 L2269.82 2231.90 L2272.30 2232.02 L2274.65 2232.02 L2277.12 2232.15 L2279.47 2232.27 L2281.95 2232.27 L2284.30 2232.40 L2286.65 2232.40 L2289.13 2232.52 L2291.48 2232.52 L2293.95 2232.64 L2296.30 2232.77 L2298.78 2232.77 L2301.13 2232.89 L2303.61 2232.89 L2305.96 2233.01 L2308.43 2233.01 L2310.78 2233.14 L2313.26 2233.26 L2315.61 2233.26 L2318.09 2233.39 L2320.44 2233.39 L2322.79 2233.51 L2325.26 2233.51 L2327.61 2233.63 L2330.09 2233.63 L2332.44 2233.76 L2334.91 2233.76 L2337.27 2233.88 L2339.74 2233.88 L2342.09 2234.00 L2344.57 2234.00 L2346.92 2234.13 L2349.39 2234.25 L2351.74 2234.25 L2354.10 2234.38 L2356.57 2234.38 L2358.92 2234.50 L2361.40 2234.50 L2363.75 2234.62 L2366.22 2234.62 L2368.57 2234.75 L2371.05 2234.75 L2373.40 2234.87 L2375.88 2234.87 L2378.23 2234.99 L2380.70 2234.99 L2383.05 2235.12 L2385.53 2235.12 L2387.88 2235.24 L2390.23 2235.24 L2392.71 2235.37 L2395.06 2235.37 L2397.53 2235.49 L2399.88 2235.49 L2402.36 2235.49 L2404.71 2235.61 L2407.18 2235.61 L2409.54 2235.74 L2412.01 2235.74 L2414.36 2235.86 L2416.84 2235.86 L2419.19 2235.98 L2421.54 2235.98 L2424.01 2236.11 L2426.37 2236.11 L2428.84 2236.23 L2431.19 2236.23 L2433.67 2236.23 L2436.02 2236.36 L2438.49 2236.36 L2440.84 2236.48 L2443.32 2236.48 L2445.67 2236.60 L2448.15 2236.60 L2450.50 2236.73 L2452.97 2236.73 L2455.32 2236.73 L2457.68 2236.85 L2460.15 2236.85 L2462.50 2236.97 L2464.98 2236.97 L2467.33 2237.10 L2469.80 2237.10 L2472.15 2237.10 L2474.63 2237.22 L2476.98 2237.22 L2479.45 2237.35 L2481.81 2237.35 L2484.28 2237.47 L2486.63 2237.47 L2488.98 2237.47 L2491.46 2237.59 L2493.81 2237.59 L2496.28 2237.72 L2498.64 2237.72 L2501.11 2237.72 L2503.46 2237.84 L2505.94 2237.84 L2508.29 2237.96 L2510.76 2237.96 L2513.11 2238.09 L2515.59 2238.09 L2517.94 2238.09 L2520.42 2238.21 L2522.77 2238.21 L2525.12 2238.21 L2527.59 2238.34 L2529.95 2238.34 L2532.42 2238.46 L2534.77 2238.46 L2537.25 2238.46 L2539.60 2238.58 L2542.07 2238.58 L2544.42 2238.71 L2546.90 2238.71 L2549.25 2238.71 L2551.72 2238.83 L2554.08 2238.83 L2556.43 2238.83 L2558.90 2238.95 L2561.25 2238.95 L2563.73 2239.08 L2566.08 2239.08 L2568.55 2239.08 L2570.91 2239.20 L2573.38 2239.20 L2575.73 2239.20 L2578.21 2239.33 L2580.56 2239.33 L2583.03 2239.45 L2585.39 2239.45 L2587.86 2239.45 L2590.21 2239.57 L2592.56 2239.57 L2595.04 2239.57 L2597.39 2239.70 L2599.86 2239.70 L2602.22 2239.70 L2604.69 2239.82 L2607.04 2239.82 L2609.52 2239.82 L2611.87 2239.94 L2614.34 2239.94 L2616.69 2239.94 L2619.17 2240.07 L2621.52 2240.07 L2623.87 2240.07 L2626.35 2240.19 L2628.70 2240.19 L2631.17 2240.32 L2633.52 2240.32 L2636.00 2240.32 L2638.35 2240.44 L2640.82 2240.44 L2643.18 2240.44 L2645.65 2240.56 L2648.00 2240.56 L2650.48 2240.56 L2652.83 2240.69 L2655.30 2240.69 L2657.66 2240.69 L2660.01 2240.69 L2662.48 2240.81 L2664.83 2240.81 L2667.31 2240.81 L2669.66 2240.94 L2672.13 2240.94 L2674.49 2240.94 L2676.96 2241.06 L2679.31 2241.06 L2681.79 2241.06 L2684.14 2241.18 L2686.61 2241.18 L2688.96 2241.18 L2691.32 2241.31 L2693.79 2241.31 L2696.14 2241.31 L2698.62 2241.43 L2700.97 2241.43 L2703.44 2241.43 L2705.79 2241.43 L2708.27 2241.55 L2710.62 2241.55 L2713.09 2241.55 L2715.45 2241.68 L2717.92 2241.68 L2720.27 2241.68 L2722.75 2241.80 L2725.10 2241.80 L2727.45 2241.80 L2729.93 2241.80 L2732.28 2241.93 L2734.75 2241.93 L2737.10 2241.93 L2739.58 2242.05 L2741.93 2242.05 L2744.40 2242.05 L2746.76 2242.17 L2749.23 2242.17 L2751.58 2242.17 L2754.06 2242.17 L2756.41 2242.30 L2758.76 2242.30 L2761.23 2242.30 L2763.59 2242.42 L2766.06 2242.42 L2768.41 2242.42 L2770.89 2242.42 L2773.24 2242.54 L2775.71 2242.54 L2778.06 2242.54 L2780.54 2242.67 L2782.89 2242.67 L2785.36 2242.67 L2787.72 2242.67 L2790.19 2242.79 L2792.54 2242.79 L2794.89 2242.79 L2797.37 2242.79 L2799.72 2242.92 L2802.20 2242.92 L2804.55 2242.92 L2807.02 2243.04 L2809.37 2243.04 L2811.85 2243.04 L2814.20 2243.04 L2816.67 2243.16 L2819.03 2243.16 L2821.50 2243.16 L2823.85 2243.16 L2826.20 2243.29 L2828.68 2243.29 L2831.03 2243.29 L2833.50 2243.29 L2835.86 2243.41 L2838.33 2243.41 L2840.68 2243.41 L2843.16 2243.41 L2845.51 2243.53 L2847.98 2243.53 L2850.33 2243.53 L2852.81 2243.66 L2855.16 2243.66 L2857.64 2243.66 L2859.99 2243.66 L2862.34 2243.78 L2864.81 2243.78 L2867.16 2243.78 L2869.64 2243.78 L2871.99 2243.91 L2874.47 2243.91 L2876.82 2243.91 L2879.29 2243.91 L2881.64 2244.03 L2884.12 2244.03 L2886.47 2244.03 L2888.94 2244.03 L2891.30 2244.15 L2893.65 2244.15 L2896.12 2244.15 L2898.47 2244.15 L2900.95 2244.15 L2903.30 2244.28 L2905.77 2244.28 L2908.13 2244.28 L2910.60 2244.28" stroke-linejoin="round" style="fill:none;stroke:#FF4500;stroke-width:8.64"/>
	<circle cx="1340.09" cy="2051.59" r="26.35" style="fill:#1A476F"/>
	<circle cx="1340.09" cy="2051.59" r="22.03" style="fill:none;stroke:#1A476F;stroke-width:8.64"/>
	<text x="1411.12" y="2010.63" style="font-family:'Helvetica';font-size:79.94px;fill:#1A476f">E-value (CI): (2.09, 2.09)</text>
	<circle cx="1528.07" cy="1818.07" r="26.35" style="fill:#90353B"/>
	<circle cx="1528.07" cy="1818.07" r="22.03" style="fill:none;stroke:#90353B;stroke-width:8.64"/>
	<text x="1599.10" y="1777.11" style="font-family:'Helvetica';font-size:79.94px;fill:#90353b">E-value: (2.87, 2.87)</text>
	<line x1="1122.66" y1="2307.64" x2="1122.66" y2="100.86" style="stroke:#000000;stroke-width:5.76"/>
	<line x1="1122.66" y1="2078.45" x2="1082.69" y2="2078.45" style="stroke:#000000;stroke-width:5.76"/>
	<text x="1032.58" y="2078.45" style="font-family:'Helvetica';font-size:99.99px;fill:#000000" transform="rotate(-90 1032.58,2078.45)" text-anchor="middle">2</text>
	<line x1="1122.66" y1="1479.72" x2="1082.69" y2="1479.72" style="stroke:#000000;stroke-width:5.76"/>
	<text x="1032.58" y="1479.72" style="font-family:'Helvetica';font-size:99.99px;fill:#000000" transform="rotate(-90 1032.58,1479.72)" text-anchor="middle">4</text>
	<line x1="1122.66" y1="880.88" x2="1082.69" y2="880.88" style="stroke:#000000;stroke-width:5.76"/>
	<text x="1032.58" y="880.88" style="font-family:'Helvetica';font-size:99.99px;fill:#000000" transform="rotate(-90 1032.58,880.88)" text-anchor="middle">6</text>
	<line x1="1122.66" y1="282.16" x2="1082.69" y2="282.16" style="stroke:#000000;stroke-width:5.76"/>
	<text x="1032.58" y="282.16" style="font-family:'Helvetica';font-size:99.99px;fill:#000000" transform="rotate(-90 1032.58,282.16)" text-anchor="middle">8</text>
	<text x="827.85" y="1204.25" style="font-family:'Helvetica';font-size:79.94px;fill:#000000" transform="rotate(-90 827.85,1204.25)" text-anchor="middle">Risk ratio for confounder-outcome relationship</text>
	<line x1="1122.66" y1="2307.64" x2="3308.83" y2="2307.64" style="stroke:#000000;stroke-width:5.76"/>
	<line x1="1318.43" y1="2307.64" x2="1318.43" y2="2347.61" style="stroke:#000000;stroke-width:5.76"/>
	<text x="1318.43" y="2437.59" style="font-family:'Helvetica';font-size:99.99px;fill:#000000" text-anchor="middle">2</text>
	<line x1="1800.19" y1="2307.64" x2="1800.19" y2="2347.61" style="stroke:#000000;stroke-width:5.76"/>
	<text x="1800.19" y="2437.59" style="font-family:'Helvetica';font-size:99.99px;fill:#000000" text-anchor="middle">4</text>
	<line x1="2281.95" y1="2307.64" x2="2281.95" y2="2347.61" style="stroke:#000000;stroke-width:5.76"/>
	<text x="2281.95" y="2437.59" style="font-family:'Helvetica';font-size:99.99px;fill:#000000" text-anchor="middle">6</text>
	<line x1="2763.71" y1="2307.64" x2="2763.71" y2="2347.61" style="stroke:#000000;stroke-width:5.76"/>
	<text x="2763.71" y="2437.59" style="font-family:'Helvetica';font-size:99.99px;fill:#000000" text-anchor="middle">8</text>
	<line x1="3245.47" y1="2307.64" x2="3245.47" y2="2347.61" style="stroke:#000000;stroke-width:5.76"/>
	<text x="3245.47" y="2437.59" style="font-family:'Helvetica';font-size:99.99px;fill:#000000" text-anchor="middle">10</text>
	<text x="2215.74" y="2634.31" style="font-family:'Helvetica';font-size:79.94px;fill:#000000" text-anchor="middle">Risk ratio for exposure-confounder relationship</text>
</svg>
