<?xml version="1.0" encoding="UTF-8" standalone="no"?>
<!-- This is a Stata 16.1 generated SVG file (http://www.stata.com) -->

<svg version="1.1" width="5.50in" height="4.00in" viewBox="0 0 3960 2880" xmlns="http://www.w3.org/2000/svg" xmlns:xlink="http://www.w3.org/1999/xlink">
	<desc>Stata Graph - Graph</desc>
	<rect x="0" y="0" width="3960" height="2880" style="fill:#FFFFFF;stroke:none"/>
	<rect x="0.00" y="0.00" width="3959.88" height="2880.00" style="fill:#FFFFFF"/>
	<rect x="2.88" y="2.88" width="3954.12" height="2874.24" style="fill:none;stroke:#FFFFFF;stroke-width:5.76"/>
	<rect x="1125.54" y="103.74" width="2180.41" height="2201.02" style="fill:none;stroke:#000000;stroke-width:5.76"/>
	<path d=" M1311.38 267.68 L1313.85 347.87 L1316.33 421.51 L1318.80 489.57 L1321.28 552.44 L1323.75 610.85 L1326.23 665.18 L1328.58 715.79 L1331.06 763.19 L1333.53 807.62 L1336.01 849.32 L1338.48 888.43 L1340.95 925.43 L1343.43 960.33 L1345.90 993.25 L1348.38 1024.56 L1350.73 1054.14 L1353.21 1082.23 L1355.68 1109.08 L1358.16 1134.45 L1360.63 1158.83 L1363.11 1181.97 L1365.58 1204.13 L1368.06 1225.29 L1370.41 1245.46 L1372.88 1264.89 L1375.36 1283.58 L1377.83 1301.40 L1380.31 1318.60 L1382.78 1335.06 L1385.26 1350.90 L1387.73 1366.24 L1390.21 1380.97 L1392.56 1395.20 L1395.03 1408.81 L1397.51 1422.06 L1399.98 1434.80 L1402.46 1447.18 L1404.93 1459.18 L1407.41 1470.69 L1409.88 1481.83 L1412.36 1492.72 L1414.71 1503.24 L1417.18 1513.39 L1419.66 1523.29 L1422.13 1532.82 L1424.61 1542.10 L1427.09 1551.13 L1429.56 1559.92 L1432.04 1568.46 L1434.39 1576.75 L1436.86 1584.92 L1439.34 1592.71 L1441.81 1600.39 L1444.29 1607.81 L1446.76 1615.11 L1449.24 1622.17 L1451.71 1629.10 L1454.19 1635.78 L1456.54 1642.34 L1459.01 1648.77 L1461.49 1655.08 L1463.96 1661.15 L1466.44 1667.09 L1468.91 1672.90 L1471.39 1678.60 L1473.86 1684.17 L1476.21 1689.61 L1478.69 1694.93 L1481.16 1700.13 L1483.64 1705.20 L1486.11 1710.28 L1488.59 1715.10 L1491.06 1719.93 L1493.54 1724.51 L1496.01 1729.09 L1498.37 1733.67 L1500.84 1738.00 L1503.32 1742.33 L1505.79 1746.54 L1508.27 1750.75 L1510.74 1754.83 L1513.21 1758.79 L1515.69 1762.63 L1518.04 1766.46 L1520.52 1770.30 L1522.99 1774.01 L1525.47 1777.60 L1527.94 1781.19 L1530.42 1784.65 L1532.89 1788.12 L1535.37 1791.46 L1537.84 1794.80 L1540.19 1798.02 L1542.67 1801.24 L1545.14 1804.46 L1547.62 1807.55 L1550.09 1810.64 L1552.57 1813.61 L1555.04 1816.58 L1557.52 1819.43 L1559.87 1822.28 L1562.34 1825.12 L1564.82 1827.84 L1567.29 1830.57 L1569.77 1833.29 L1572.24 1835.89 L1574.72 1838.49 L1577.19 1841.09 L1579.67 1843.56 L1582.02 1846.04 L1584.49 1848.51 L1586.97 1850.86 L1589.44 1853.21 L1591.92 1855.57 L1594.39 1857.92 L1596.87 1860.14 L1599.35 1862.37 L1601.70 1864.60 L1604.17 1866.70 L1606.65 1868.93 L1609.12 1871.03 L1611.60 1873.14 L1614.07 1875.12 L1616.55 1877.22 L1619.02 1879.20 L1621.50 1881.18 L1623.85 1883.04 L1626.32 1885.02 L1628.80 1886.88 L1631.27 1888.73 L1633.75 1890.59 L1636.22 1892.44 L1638.70 1894.18 L1641.17 1896.03 L1643.52 1897.77 L1646.00 1899.50 L1648.47 1901.23 L1650.95 1902.84 L1653.42 1904.57 L1655.90 1906.18 L1658.37 1907.79 L1660.85 1909.40 L1663.32 1911.01 L1665.67 1912.62 L1668.15 1914.10 L1670.63 1915.71 L1673.10 1917.19 L1675.58 1918.68 L1678.05 1920.17 L1680.53 1921.65 L1683.00 1923.01 L1685.47 1924.50 L1687.83 1925.86 L1690.30 1927.34 L1692.78 1928.70 L1695.25 1930.07 L1697.73 1931.43 L1700.20 1932.66 L1702.68 1934.03 L1705.15 1935.39 L1707.50 1936.62 L1709.98 1937.86 L1712.45 1939.22 L1714.93 1940.46 L1717.40 1941.70 L1719.88 1942.81 L1722.35 1944.05 L1724.83 1945.29 L1727.30 1946.40 L1729.65 1947.64 L1732.13 1948.75 L1734.60 1949.99 L1737.08 1951.10 L1739.55 1952.22 L1742.03 1953.33 L1744.50 1954.44 L1746.98 1955.56 L1749.33 1956.55 L1751.81 1957.66 L1754.28 1958.78 L1756.76 1959.77 L1759.23 1960.76 L1761.70 1961.87 L1764.18 1962.86 L1766.65 1963.85 L1769.13 1964.84 L1771.48 1965.83 L1773.96 1966.82 L1776.43 1967.81 L1778.91 1968.80 L1781.38 1969.67 L1783.86 1970.66 L1786.33 1971.65 L1788.81 1972.51 L1791.16 1973.50 L1793.63 1974.37 L1796.11 1975.24 L1798.58 1976.10 L1801.06 1977.09 L1803.53 1977.96 L1806.01 1978.82 L1808.48 1979.69 L1810.96 1980.56 L1813.31 1981.30 L1815.78 1982.17 L1818.26 1983.03 L1820.73 1983.90 L1823.21 1984.64 L1825.68 1985.51 L1828.16 1986.25 L1830.63 1987.12 L1832.98 1987.86 L1835.46 1988.60 L1837.93 1989.47 L1840.41 1990.21 L1842.88 1990.95 L1845.36 1991.69 L1847.84 1992.44 L1850.31 1993.18 L1852.79 1993.92 L1855.14 1994.66 L1857.61 1995.41 L1860.09 1996.15 L1862.56 1996.89 L1865.04 1997.51 L1867.51 1998.25 L1869.99 1999.00 L1872.46 1999.61 L1874.81 2000.36 L1877.29 2000.98 L1879.76 2001.72 L1882.24 2002.34 L1884.71 2002.96 L1887.19 2003.70 L1889.66 2004.32 L1892.14 2004.94 L1894.61 2005.68 L1896.96 2006.30 L1899.44 2006.92 L1901.91 2007.54 L1904.39 2008.15 L1906.86 2008.77 L1909.34 2009.39 L1911.81 2010.01 L1914.29 2010.63 L1916.76 2011.25 L1919.12 2011.87 L1921.59 2012.36 L1924.07 2012.98 L1926.54 2013.60 L1929.02 2014.22 L1931.49 2014.71 L1933.96 2015.33 L1936.44 2015.83 L1938.79 2016.45 L1941.27 2016.94 L1943.74 2017.56 L1946.22 2018.05 L1948.69 2018.67 L1951.17 2019.17 L1953.64 2019.79 L1956.12 2020.28 L1958.59 2020.78 L1960.94 2021.40 L1963.42 2021.89 L1965.89 2022.39 L1968.37 2022.88 L1970.84 2023.38 L1973.32 2023.87 L1975.79 2024.49 L1978.27 2024.98 L1980.62 2025.48 L1983.09 2025.97 L1985.57 2026.47 L1988.04 2026.96 L1990.52 2027.46 L1992.99 2027.83 L1995.47 2028.33 L1997.94 2028.82 L2000.42 2029.32 L2002.77 2029.81 L2005.24 2030.31 L2007.72 2030.68 L2010.19 2031.17 L2012.67 2031.67 L2015.14 2032.16 L2017.62 2032.53 L2020.10 2033.03 L2022.45 2033.40 L2024.92 2033.89 L2027.40 2034.39 L2029.87 2034.76 L2032.35 2035.26 L2034.82 2035.63 L2037.30 2036.12 L2039.77 2036.49 L2042.25 2036.99 L2044.60 2037.36 L2047.07 2037.73 L2049.55 2038.23 L2052.02 2038.60 L2054.50 2038.97 L2056.97 2039.46 L2059.45 2039.83 L2061.92 2040.21 L2064.27 2040.70 L2066.75 2041.07 L2069.22 2041.44 L2071.70 2041.82 L2074.17 2042.19 L2076.65 2042.56 L2079.12 2043.05 L2081.60 2043.42 L2084.07 2043.80 L2086.43 2044.17 L2088.90 2044.54 L2091.38 2044.91 L2093.85 2045.28 L2096.32 2045.65 L2098.80 2046.02 L2101.28 2046.39 L2103.75 2046.77 L2106.10 2047.14 L2108.58 2047.51 L2111.05 2047.88 L2113.53 2048.25 L2116.00 2048.50 L2118.48 2048.87 L2120.95 2049.24 L2123.43 2049.61 L2125.90 2049.98 L2128.25 2050.35 L2130.73 2050.60 L2133.20 2050.97 L2135.68 2051.34 L2138.15 2051.72 L2140.63 2051.96 L2143.10 2052.33 L2145.58 2052.71 L2147.93 2052.95 L2150.40 2053.32 L2152.88 2053.70 L2155.35 2053.94 L2157.83 2054.31 L2160.30 2054.56 L2162.78 2054.93 L2165.25 2055.30 L2167.73 2055.55 L2170.08 2055.92 L2172.55 2056.17 L2175.03 2056.54 L2177.51 2056.79 L2179.98 2057.16 L2182.45 2057.41 L2184.93 2057.78 L2187.41 2058.03 L2189.88 2058.40 L2192.23 2058.65 L2194.71 2058.89 L2197.18 2059.26 L2199.66 2059.51 L2202.13 2059.88 L2204.61 2060.13 L2207.08 2060.38 L2209.56 2060.75 L2211.91 2061.00 L2214.38 2061.24 L2216.86 2061.62 L2219.33 2061.86 L2221.81 2062.11 L2224.28 2062.36 L2226.76 2062.73 L2229.23 2062.98 L2231.71 2063.22 L2234.06 2063.47 L2236.53 2063.84 L2239.01 2064.09 L2241.48 2064.34 L2243.96 2064.59 L2246.43 2064.83 L2248.91 2065.08 L2251.38 2065.45 L2253.74 2065.70 L2256.21 2065.95 L2258.68 2066.19 L2261.16 2066.44 L2263.64 2066.69 L2266.11 2066.94 L2268.59 2067.18 L2271.06 2067.43 L2273.53 2067.68 L2275.89 2067.93 L2278.36 2068.17 L2280.84 2068.42 L2283.31 2068.67 L2285.79 2068.92 L2288.26 2069.16 L2290.74 2069.41 L2293.21 2069.66 L2295.56 2069.91 L2298.04 2070.15 L2300.51 2070.40 L2302.99 2070.65 L2305.46 2070.90 L2307.94 2071.14 L2310.41 2071.39 L2312.89 2071.64 L2315.36 2071.89 L2317.71 2072.13 L2320.19 2072.26 L2322.66 2072.51 L2325.14 2072.75 L2327.61 2073.00 L2330.09 2073.25 L2332.56 2073.50 L2335.04 2073.74 L2337.39 2073.87 L2339.86 2074.11 L2342.34 2074.36 L2344.82 2074.61 L2347.29 2074.86 L2349.76 2074.98 L2352.24 2075.23 L2354.72 2075.48 L2357.19 2075.72 L2359.54 2075.85 L2362.02 2076.09 L2364.49 2076.34 L2366.97 2076.59 L2369.44 2076.71 L2371.92 2076.96 L2374.39 2077.21 L2376.87 2077.33 L2379.22 2077.58 L2381.69 2077.83 L2384.17 2077.95 L2386.64 2078.20 L2389.12 2078.45 L2391.59 2078.57 L2394.07 2078.82 L2396.54 2079.06 L2399.02 2079.19 L2401.37 2079.44 L2403.84 2079.56 L2406.32 2079.81 L2408.79 2080.06 L2411.27 2080.18 L2413.74 2080.43 L2416.22 2080.55 L2418.69 2080.80 L2421.17 2081.05 L2423.52 2081.17 L2425.99 2081.42 L2428.47 2081.54 L2430.95 2081.79 L2433.42 2081.91 L2435.89 2082.16 L2438.37 2082.28 L2440.84 2082.53 L2443.20 2082.65 L2445.67 2082.90 L2448.15 2083.03 L2450.62 2083.27 L2453.10 2083.40 L2455.57 2083.64 L2458.05 2083.77 L2460.52 2084.02 L2463.00 2084.14 L2465.35 2084.39 L2467.82 2084.51 L2470.30 2084.63 L2472.77 2084.88 L2475.25 2085.01 L2477.72 2085.25 L2480.20 2085.38 L2482.67 2085.62 L2485.02 2085.75 L2487.50 2085.87 L2489.97 2086.12 L2492.45 2086.24 L2494.92 2086.49 L2497.40 2086.61 L2499.87 2086.74 L2502.35 2086.99 L2504.82 2087.11 L2507.18 2087.23 L2509.65 2087.48 L2512.13 2087.60 L2514.60 2087.73 L2517.07 2087.98 L2519.55 2088.10 L2522.03 2088.22 L2524.50 2088.47 L2526.85 2088.59 L2529.33 2088.72 L2531.80 2088.97 L2534.28 2089.09 L2536.75 2089.21 L2539.23 2089.46 L2541.70 2089.58 L2544.18 2089.71 L2546.65 2089.83 L2549.00 2090.08 L2551.48 2090.20 L2553.95 2090.33 L2556.43 2090.45 L2558.90 2090.70 L2561.38 2090.82 L2563.85 2090.95 L2566.33 2091.07 L2568.68 2091.32 L2571.15 2091.44 L2573.63 2091.56 L2576.10 2091.69 L2578.58 2091.81 L2581.05 2092.06 L2583.53 2092.18 L2586.00 2092.31 L2588.48 2092.43 L2590.83 2092.55 L2593.30 2092.80 L2595.78 2092.93 L2598.26 2093.05 L2600.73 2093.17 L2603.20 2093.30 L2605.68 2093.54 L2608.16 2093.67 L2610.51 2093.79 L2612.98 2093.92 L2615.46 2094.04 L2617.93 2094.16 L2620.41 2094.29 L2622.88 2094.53 L2625.36 2094.66 L2627.83 2094.78 L2630.31 2094.91 L2632.66 2095.03 L2635.13 2095.15 L2637.61 2095.28 L2640.08 2095.40 L2642.56 2095.65 L2645.03 2095.77 L2647.51 2095.90 L2649.98 2096.02 L2652.33 2096.14 L2654.81 2096.27 L2657.28 2096.39 L2659.76 2096.51 L2662.23 2096.64 L2664.71 2096.76 L2667.18 2096.89 L2669.66 2097.01 L2672.13 2097.13 L2674.49 2097.38 L2676.96 2097.50 L2679.43 2097.63 L2681.91 2097.75 L2684.39 2097.88 L2686.86 2098.00 L2689.34 2098.12 L2691.81 2098.25 L2694.28 2098.37 L2696.64 2098.49 L2699.11 2098.62 L2701.59 2098.74 L2704.06 2098.87 L2706.54 2098.99 L2709.01 2099.11 L2711.49 2099.24 L2713.96 2099.36 L2716.31 2099.48 L2718.79 2099.61 L2721.26 2099.73 L2723.74 2099.86 L2726.21 2099.98 L2728.69 2100.10 L2731.16 2100.23 L2733.64 2100.35 L2736.11 2100.47 L2738.46 2100.60 L2740.94 2100.72 L2743.41 2100.85 L2745.89 2100.97 L2748.36 2101.09 L2750.84 2101.09 L2753.31 2101.22 L2755.79 2101.34 L2758.14 2101.46 L2760.61 2101.59 L2763.09 2101.71 L2765.57 2101.84 L2768.04 2101.96 L2770.51 2102.08 L2772.99 2102.21 L2775.47 2102.33 L2777.94 2102.45 L2780.29 2102.58 L2782.77 2102.70 L2785.24 2102.70 L2787.72 2102.83 L2790.19 2102.95 L2792.67 2103.07 L2795.14 2103.20 L2797.62 2103.32 L2799.97 2103.44 L2802.44 2103.57 L2804.92 2103.69 L2807.39 2103.82 L2809.87 2103.82 L2812.34 2103.94 L2814.82 2104.06 L2817.29 2104.19 L2819.77 2104.31 L2822.12 2104.43 L2824.59 2104.56 L2827.07 2104.56 L2829.54 2104.68 L2832.02 2104.81 L2834.49 2104.93 L2836.97 2105.05 L2839.44 2105.18 L2841.80 2105.30 L2844.27 2105.30 L2846.74 2105.42 L2849.22 2105.55 L2851.70 2105.67 L2854.17 2105.80 L2856.64 2105.92 L2859.12 2105.92 L2861.59 2106.04 L2863.95 2106.17 L2866.42 2106.29 L2868.90 2106.41 L2871.37 2106.41 L2873.85 2106.54 L2876.32 2106.66 L2878.80 2106.79 L2881.27 2106.91 L2883.62 2107.03 L2886.10 2107.03 L2888.57 2107.16 L2891.05 2107.28 L2893.52 2107.40 L2896.00 2107.40 L2898.47 2107.53 L2900.95 2107.65 L2903.42 2107.78 L2905.77 2107.90 L2908.25 2107.90 L2910.72 2108.02 L2913.20 2108.15 L2915.67 2108.27 L2918.15 2108.27 L2920.62 2108.39 L2923.10 2108.52 L2925.57 2108.64 L2927.93 2108.77 L2930.40 2108.77 L2932.88 2108.89 L2935.35 2109.01 L2937.82 2109.14 L2940.30 2109.14 L2942.78 2109.26 L2945.25 2109.38 L2947.60 2109.51 L2950.08 2109.51 L2952.55 2109.63 L2955.03 2109.76 L2957.50 2109.76 L2959.98 2109.88 L2962.45 2110.00 L2964.93 2110.13 L2967.40 2110.13 L2969.75 2110.25 L2972.23 2110.37 L2974.70 2110.50 L2977.18 2110.50 L2979.65 2110.62 L2982.13 2110.75 L2984.60 2110.75 L2987.08 2110.87 L2989.43 2110.99 L2991.90 2111.12 L2994.38 2111.12 L2996.85 2111.24 L2999.33 2111.36 L3001.80 2111.36 L3004.28 2111.49 L3006.75 2111.61 L3009.23 2111.61 L3011.58 2111.74 L3014.05 2111.86 L3016.53 2111.86 L3019.01 2111.98 L3021.48 2112.11 L3023.95 2112.11 L3026.43 2112.23 L3028.91 2112.35 L3031.26 2112.48 L3033.73 2112.48 L3036.21 2112.60 L3038.68 2112.73 L3041.16 2112.73 L3043.63 2112.85 L3046.11 2112.97 L3048.58 2112.97 L3051.06 2113.10 L3053.41 2113.10 L3055.88 2113.22 L3058.36 2113.34 L3060.83 2113.34 L3063.31 2113.47 L3065.78 2113.59 L3068.26 2113.59 L3070.73 2113.72 L3073.08 2113.84 L3075.56 2113.84 L3078.03 2113.96 L3080.51 2114.09 L3082.98 2114.09 L3085.46 2114.21 L3087.93 2114.21 L3090.41 2114.33 L3092.88 2114.46 L3095.24 2114.46 L3097.71 2114.58 L3100.18 2114.71 L3102.66 2114.71 L3105.14 2114.83 L3107.61 2114.83 L3110.09 2114.95 L3112.56 2115.08 L3114.91 2115.08 L3117.39 2115.20 L3119.86 2115.32 L3122.34 2115.32 L3124.81 2115.45 L3127.29 2115.45 L3129.76 2115.57 L3132.24 2115.70 L3134.71 2115.70 L3137.06 2115.82 L3139.54 2115.82 L3142.01 2115.94 L3144.49 2116.07 L3146.96 2116.07 L3149.44 2116.19 L3151.91 2116.19 L3154.39 2116.31 L3156.86 2116.44 L3159.21 2116.44 L3161.69 2116.56 L3164.16 2116.56 L3166.64 2116.69 L3169.11 2116.69" stroke-linejoin="round" style="fill:none;stroke:#006000;stroke-width:8.64"/>
	<path d=" M1185.90 375.35 L1188.37 539.94 L1190.85 678.17 L1193.32 795.98 L1195.80 897.59 L1198.27 986.07 L1200.75 1063.79 L1203.10 1132.60 L1205.57 1194.10 L1208.05 1249.17 L1210.52 1298.92 L1213.00 1343.97 L1215.47 1385.05 L1217.95 1422.67 L1220.42 1457.20 L1222.90 1489.01 L1225.25 1518.46 L1227.72 1545.81 L1230.20 1571.06 L1232.67 1594.82 L1235.15 1616.84 L1237.62 1637.51 L1240.10 1656.94 L1242.57 1675.26 L1244.92 1692.46 L1247.40 1708.67 L1249.88 1724.02 L1252.35 1738.49 L1254.83 1752.35 L1257.30 1765.35 L1259.78 1777.85 L1262.25 1789.60 L1264.72 1800.87 L1267.08 1811.63 L1269.55 1821.90 L1272.03 1831.68 L1274.50 1841.09 L1276.98 1850.12 L1279.45 1858.78 L1281.93 1867.07 L1284.40 1874.99 L1286.75 1882.67 L1289.23 1889.97 L1291.70 1897.02 L1294.18 1903.95 L1296.65 1910.51 L1299.13 1916.82 L1301.60 1922.89 L1304.08 1928.83 L1306.55 1934.52 L1308.90 1940.09 L1311.38 1945.41 L1313.85 1950.61 L1316.33 1955.56 L1318.80 1960.51 L1321.28 1965.21 L1323.75 1969.67 L1326.23 1974.12 L1328.58 1978.45 L1331.06 1982.66 L1333.53 1986.74 L1336.01 1990.58 L1338.48 1994.42 L1340.95 1998.25 L1343.43 2001.84 L1345.90 2005.31 L1348.38 2008.77 L1350.73 2012.11 L1353.21 2015.46 L1355.68 2018.55 L1358.16 2021.77 L1360.63 2024.74 L1363.11 2027.71 L1365.58 2030.55 L1368.06 2033.40 L1370.41 2036.12 L1372.88 2038.84 L1375.36 2041.44 L1377.83 2044.04 L1380.31 2046.52 L1382.78 2048.99 L1385.26 2051.34 L1387.73 2053.70 L1390.21 2056.05 L1392.56 2058.27 L1395.03 2060.50 L1397.51 2062.61 L1399.98 2064.83 L1402.46 2066.81 L1404.93 2068.92 L1407.41 2070.90 L1409.88 2072.75 L1412.36 2074.73 L1414.71 2076.59 L1417.18 2078.45 L1419.66 2080.18 L1422.13 2082.04 L1424.61 2083.77 L1427.09 2085.50 L1429.56 2087.11 L1432.04 2088.72 L1434.39 2090.33 L1436.86 2091.94 L1439.34 2093.54 L1441.81 2095.03 L1444.29 2096.51 L1446.76 2098.00 L1449.24 2099.48 L1451.71 2100.97 L1454.19 2102.33 L1456.54 2103.69 L1459.01 2105.05 L1461.49 2106.41 L1463.96 2107.65 L1466.44 2109.01 L1468.91 2110.25 L1471.39 2111.49 L1473.86 2112.73 L1476.21 2113.96 L1478.69 2115.20 L1481.16 2116.31 L1483.64 2117.55 L1486.11 2118.67 L1488.59 2119.78 L1491.06 2120.89 L1493.54 2122.01 L1496.01 2123.00 L1498.37 2124.11 L1500.84 2125.10 L1503.32 2126.22 L1505.79 2127.21 L1508.27 2128.20 L1510.74 2129.19 L1513.21 2130.18 L1515.69 2131.04 L1518.04 2132.03 L1520.52 2133.02 L1522.99 2133.89 L1525.47 2134.75 L1527.94 2135.74 L1530.42 2136.61 L1532.89 2137.48 L1535.37 2138.34 L1537.84 2139.21 L1540.19 2139.95 L1542.67 2140.82 L1545.14 2141.68 L1547.62 2142.43 L1550.09 2143.29 L1552.57 2144.04 L1555.04 2144.78 L1557.52 2145.52 L1559.87 2146.39 L1562.34 2147.13 L1564.82 2147.87 L1567.29 2148.61 L1569.77 2149.23 L1572.24 2149.98 L1574.72 2150.72 L1577.19 2151.34 L1579.67 2152.08 L1582.02 2152.70 L1584.49 2153.44 L1586.97 2154.06 L1589.44 2154.80 L1591.92 2155.42 L1594.39 2156.04 L1596.87 2156.66 L1599.35 2157.28 L1601.70 2157.90 L1604.17 2158.51 L1606.65 2159.13 L1609.12 2159.75 L1611.60 2160.37 L1614.07 2160.87 L1616.55 2161.49 L1619.02 2162.10 L1621.50 2162.60 L1623.85 2163.22 L1626.32 2163.71 L1628.80 2164.33 L1631.27 2164.83 L1633.75 2165.45 L1636.22 2165.94 L1638.70 2166.44 L1641.17 2166.93 L1643.52 2167.55 L1646.00 2168.04 L1648.47 2168.54 L1650.95 2169.03 L1653.42 2169.53 L1655.90 2170.02 L1658.37 2170.52 L1660.85 2171.01 L1663.32 2171.51 L1665.67 2171.88 L1668.15 2172.38 L1670.63 2172.87 L1673.10 2173.37 L1675.58 2173.74 L1678.05 2174.23 L1680.53 2174.73 L1683.00 2175.10 L1685.47 2175.59 L1687.83 2175.96 L1690.30 2176.46 L1692.78 2176.83 L1695.25 2177.33 L1697.73 2177.70 L1700.20 2178.07 L1702.68 2178.56 L1705.15 2178.93 L1707.50 2179.31 L1709.98 2179.68 L1712.45 2180.17 L1714.93 2180.54 L1717.40 2180.91 L1719.88 2181.29 L1722.35 2181.66 L1724.83 2182.03 L1727.30 2182.40 L1729.65 2182.77 L1732.13 2183.14 L1734.60 2183.51 L1737.08 2183.88 L1739.55 2184.26 L1742.03 2184.63 L1744.50 2185.00 L1746.98 2185.37 L1749.33 2185.62 L1751.81 2185.99 L1754.28 2186.36 L1756.76 2186.73 L1759.23 2186.98 L1761.70 2187.35 L1764.18 2187.72 L1766.65 2187.97 L1769.13 2188.34 L1771.48 2188.71 L1773.96 2188.96 L1776.43 2189.33 L1778.91 2189.58 L1781.38 2189.95 L1783.86 2190.20 L1786.33 2190.57 L1788.81 2190.81 L1791.16 2191.19 L1793.63 2191.43 L1796.11 2191.80 L1798.58 2192.05 L1801.06 2192.42 L1803.53 2192.67 L1806.01 2192.92 L1808.48 2193.29 L1810.96 2193.54 L1813.31 2193.78 L1815.78 2194.03 L1818.26 2194.40 L1820.73 2194.65 L1823.21 2194.90 L1825.68 2195.15 L1828.16 2195.39 L1830.63 2195.76 L1832.98 2196.01 L1835.46 2196.26 L1837.93 2196.51 L1840.41 2196.75 L1842.88 2197.00 L1845.36 2197.25 L1847.84 2197.50 L1850.31 2197.74 L1852.79 2198.12 L1855.14 2198.36 L1857.61 2198.61 L1860.09 2198.86 L1862.56 2199.11 L1865.04 2199.23 L1867.51 2199.48 L1869.99 2199.72 L1872.46 2199.97 L1874.81 2200.22 L1877.29 2200.47 L1879.76 2200.72 L1882.24 2200.96 L1884.71 2201.21 L1887.19 2201.46 L1889.66 2201.58 L1892.14 2201.83 L1894.61 2202.08 L1896.96 2202.32 L1899.44 2202.57 L1901.91 2202.70 L1904.39 2202.94 L1906.86 2203.19 L1909.34 2203.44 L1911.81 2203.56 L1914.29 2203.81 L1916.76 2204.06 L1919.12 2204.18 L1921.59 2204.43 L1924.07 2204.68 L1926.54 2204.80 L1929.02 2205.05 L1931.49 2205.29 L1933.96 2205.42 L1936.44 2205.67 L1938.79 2205.91 L1941.27 2206.04 L1943.74 2206.28 L1946.22 2206.41 L1948.69 2206.66 L1951.17 2206.90 L1953.64 2207.03 L1956.12 2207.27 L1958.59 2207.40 L1960.94 2207.65 L1963.42 2207.77 L1965.89 2208.02 L1968.37 2208.14 L1970.84 2208.39 L1973.32 2208.51 L1975.79 2208.76 L1978.27 2208.88 L1980.62 2209.01 L1983.09 2209.25 L1985.57 2209.38 L1988.04 2209.63 L1990.52 2209.75 L1992.99 2210.00 L1995.47 2210.12 L1997.94 2210.24 L2000.42 2210.49 L2002.77 2210.62 L2005.24 2210.86 L2007.72 2210.99 L2010.19 2211.11 L2012.67 2211.36 L2015.14 2211.48 L2017.62 2211.61 L2020.10 2211.85 L2022.45 2211.98 L2024.92 2212.10 L2027.40 2212.22 L2029.87 2212.47 L2032.35 2212.60 L2034.82 2212.72 L2037.30 2212.97 L2039.77 2213.09 L2042.25 2213.21 L2044.60 2213.34 L2047.07 2213.59 L2049.55 2213.71 L2052.02 2213.83 L2054.50 2213.96 L2056.97 2214.08 L2059.45 2214.33 L2061.92 2214.45 L2064.27 2214.58 L2066.75 2214.70 L2069.22 2214.82 L2071.70 2215.07 L2074.17 2215.19 L2076.65 2215.32 L2079.12 2215.44 L2081.60 2215.57 L2084.07 2215.69 L2086.43 2215.94 L2088.90 2216.06 L2091.38 2216.18 L2093.85 2216.31 L2096.32 2216.43 L2098.80 2216.56 L2101.28 2216.68 L2103.75 2216.80 L2106.10 2216.93 L2108.58 2217.05 L2111.05 2217.30 L2113.53 2217.42 L2116.00 2217.55 L2118.48 2217.67 L2120.95 2217.79 L2123.43 2217.92 L2125.90 2218.04 L2128.25 2218.16 L2130.73 2218.29 L2133.20 2218.41 L2135.68 2218.54 L2138.15 2218.66 L2140.63 2218.78 L2143.10 2218.91 L2145.58 2219.03 L2147.93 2219.15 L2150.40 2219.28 L2152.88 2219.40 L2155.35 2219.53 L2157.83 2219.65 L2160.30 2219.77 L2162.78 2219.90 L2165.25 2220.02 L2167.73 2220.14 L2170.08 2220.27 L2172.55 2220.39 L2175.03 2220.52 L2177.51 2220.64 L2179.98 2220.76 L2182.45 2220.89 L2184.93 2220.89 L2187.41 2221.01 L2189.88 2221.13 L2192.23 2221.26 L2194.71 2221.38 L2197.18 2221.51 L2199.66 2221.63 L2202.13 2221.75 L2204.61 2221.88 L2207.08 2222.00 L2209.56 2222.12 L2211.91 2222.12 L2214.38 2222.25 L2216.86 2222.37 L2219.33 2222.50 L2221.81 2222.62 L2224.28 2222.74 L2226.76 2222.87 L2229.23 2222.87 L2231.71 2222.99 L2234.06 2223.11 L2236.53 2223.24 L2239.01 2223.36 L2241.48 2223.49 L2243.96 2223.49 L2246.43 2223.61 L2248.91 2223.73 L2251.38 2223.86 L2253.74 2223.98 L2256.21 2224.10 L2258.68 2224.10 L2261.16 2224.23 L2263.64 2224.35 L2266.11 2224.48 L2268.59 2224.60 L2271.06 2224.60 L2273.53 2224.72 L2275.89 2224.85 L2278.36 2224.97 L2280.84 2225.09 L2283.31 2225.09 L2285.79 2225.22 L2288.26 2225.34 L2290.74 2225.47 L2293.21 2225.47 L2295.56 2225.59 L2298.04 2225.71 L2300.51 2225.84 L2302.99 2225.84 L2305.46 2225.96 L2307.94 2226.08 L2310.41 2226.21 L2312.89 2226.21 L2315.36 2226.33 L2317.71 2226.46 L2320.19 2226.46 L2322.66 2226.58 L2325.14 2226.70 L2327.61 2226.83 L2330.09 2226.83 L2332.56 2226.95 L2335.04 2227.07 L2337.39 2227.07 L2339.86 2227.20 L2342.34 2227.32 L2344.82 2227.45 L2347.29 2227.45 L2349.76 2227.57 L2352.24 2227.69 L2354.72 2227.69 L2357.19 2227.82 L2359.54 2227.94 L2362.02 2227.94 L2364.49 2228.06 L2366.97 2228.19 L2369.44 2228.19 L2371.92 2228.31 L2374.39 2228.44 L2376.87 2228.44 L2379.22 2228.56 L2381.69 2228.68 L2384.17 2228.68 L2386.64 2228.81 L2389.12 2228.93 L2391.59 2228.93 L2394.07 2229.05 L2396.54 2229.05 L2399.02 2229.18 L2401.37 2229.30 L2403.84 2229.30 L2406.32 2229.43 L2408.79 2229.55 L2411.27 2229.55 L2413.74 2229.67 L2416.22 2229.80 L2418.69 2229.80 L2421.17 2229.92 L2423.52 2229.92 L2425.99 2230.04 L2428.47 2230.17 L2430.95 2230.17 L2433.42 2230.29 L2435.89 2230.29 L2438.37 2230.42 L2440.84 2230.54 L2443.20 2230.54 L2445.67 2230.66 L2448.15 2230.66 L2450.62 2230.79 L2453.10 2230.79 L2455.57 2230.91 L2458.05 2231.03 L2460.52 2231.03 L2463.00 2231.16 L2465.35 2231.16 L2467.82 2231.28 L2470.30 2231.41 L2472.77 2231.41 L2475.25 2231.53 L2477.72 2231.53 L2480.20 2231.65 L2482.67 2231.65 L2485.02 2231.78 L2487.50 2231.78 L2489.97 2231.90 L2492.45 2232.02 L2494.92 2232.02 L2497.40 2232.15 L2499.87 2232.15 L2502.35 2232.27 L2504.82 2232.27 L2507.18 2232.40 L2509.65 2232.40 L2512.13 2232.52 L2514.60 2232.52 L2517.07 2232.64 L2519.55 2232.64 L2522.03 2232.77 L2524.50 2232.77 L2526.85 2232.89 L2529.33 2233.01 L2531.80 2233.01 L2534.28 2233.14 L2536.75 2233.14 L2539.23 2233.26 L2541.70 2233.26 L2544.18 2233.39 L2546.65 2233.39 L2549.00 2233.51 L2551.48 2233.51 L2553.95 2233.63 L2556.43 2233.63 L2558.90 2233.76 L2561.38 2233.76 L2563.85 2233.88 L2566.33 2233.88 L2568.68 2234.00 L2571.15 2234.00 L2573.63 2234.13 L2576.10 2234.13 L2578.58 2234.25 L2581.05 2234.25 L2583.53 2234.25 L2586.00 2234.38 L2588.48 2234.38 L2590.83 2234.50 L2593.30 2234.50 L2595.78 2234.62 L2598.26 2234.62 L2600.73 2234.75 L2603.20 2234.75 L2605.68 2234.87 L2608.16 2234.87 L2610.51 2234.99 L2612.98 2234.99 L2615.46 2235.12 L2617.93 2235.12 L2620.41 2235.24 L2622.88 2235.24 L2625.36 2235.24 L2627.83 2235.37 L2630.31 2235.37 L2632.66 2235.49 L2635.13 2235.49 L2637.61 2235.61 L2640.08 2235.61 L2642.56 2235.74 L2645.03 2235.74 L2647.51 2235.74 L2649.98 2235.86 L2652.33 2235.86 L2654.81 2235.98 L2657.28 2235.98 L2659.76 2236.11 L2662.23 2236.11 L2664.71 2236.11 L2667.18 2236.23 L2669.66 2236.23 L2672.13 2236.36 L2674.49 2236.36 L2676.96 2236.48 L2679.43 2236.48 L2681.91 2236.48 L2684.39 2236.60 L2686.86 2236.60 L2689.34 2236.73 L2691.81 2236.73 L2694.28 2236.85 L2696.64 2236.85 L2699.11 2236.85 L2701.59 2236.97 L2704.06 2236.97 L2706.54 2237.10 L2709.01 2237.10 L2711.49 2237.10 L2713.96 2237.22 L2716.31 2237.22 L2718.79 2237.35 L2721.26 2237.35 L2723.74 2237.35 L2726.21 2237.47 L2728.69 2237.47 L2731.16 2237.59 L2733.64 2237.59 L2736.11 2237.59 L2738.46 2237.72 L2740.94 2237.72 L2743.41 2237.84 L2745.89 2237.84 L2748.36 2237.84 L2750.84 2237.96 L2753.31 2237.96 L2755.79 2237.96 L2758.14 2238.09 L2760.61 2238.09 L2763.09 2238.21 L2765.57 2238.21 L2768.04 2238.21 L2770.51 2238.34 L2772.99 2238.34 L2775.47 2238.34 L2777.94 2238.46 L2780.29 2238.46 L2782.77 2238.58 L2785.24 2238.58 L2787.72 2238.58 L2790.19 2238.71 L2792.67 2238.71 L2795.14 2238.71 L2797.62 2238.83 L2799.97 2238.83 L2802.44 2238.95 L2804.92 2238.95 L2807.39 2238.95 L2809.87 2239.08 L2812.34 2239.08 L2814.82 2239.08 L2817.29 2239.20 L2819.77 2239.20 L2822.12 2239.20 L2824.59 2239.33 L2827.07 2239.33 L2829.54 2239.33 L2832.02 2239.45 L2834.49 2239.45 L2836.97 2239.45 L2839.44 2239.57 L2841.80 2239.57 L2844.27 2239.57 L2846.74 2239.70 L2849.22 2239.70 L2851.70 2239.82 L2854.17 2239.82 L2856.64 2239.82 L2859.12 2239.94 L2861.59 2239.94 L2863.95 2239.94 L2866.42 2240.07 L2868.90 2240.07 L2871.37 2240.07 L2873.85 2240.19 L2876.32 2240.19 L2878.80 2240.19 L2881.27 2240.32 L2883.62 2240.32 L2886.10 2240.32 L2888.57 2240.44 L2891.05 2240.44 L2893.52 2240.44 L2896.00 2240.44 L2898.47 2240.56 L2900.95 2240.56 L2903.42 2240.56 L2905.77 2240.69 L2908.25 2240.69 L2910.72 2240.69 L2913.20 2240.81 L2915.67 2240.81 L2918.15 2240.81 L2920.62 2240.94 L2923.10 2240.94 L2925.57 2240.94 L2927.93 2241.06 L2930.40 2241.06 L2932.88 2241.06 L2935.35 2241.18 L2937.82 2241.18 L2940.30 2241.18 L2942.78 2241.18 L2945.25 2241.31 L2947.60 2241.31 L2950.08 2241.31 L2952.55 2241.43 L2955.03 2241.43 L2957.50 2241.43 L2959.98 2241.55 L2962.45 2241.55 L2964.93 2241.55 L2967.40 2241.55 L2969.75 2241.68 L2972.23 2241.68 L2974.70 2241.68 L2977.18 2241.80 L2979.65 2241.80 L2982.13 2241.80 L2984.60 2241.93 L2987.08 2241.93 L2989.43 2241.93 L2991.90 2241.93 L2994.38 2242.05 L2996.85 2242.05 L2999.33 2242.05 L3001.80 2242.17 L3004.28 2242.17 L3006.75 2242.17 L3009.23 2242.17 L3011.58 2242.30 L3014.05 2242.30 L3016.53 2242.30 L3019.01 2242.42 L3021.48 2242.42 L3023.95 2242.42 L3026.43 2242.42 L3028.91 2242.54 L3031.26 2242.54 L3033.73 2242.54 L3036.21 2242.67 L3038.68 2242.67 L3041.16 2242.67 L3043.63 2242.67 L3046.11 2242.79 L3048.58 2242.79 L3051.06 2242.79 L3053.41 2242.79 L3055.88 2242.92 L3058.36 2242.92 L3060.83 2242.92 L3063.31 2243.04 L3065.78 2243.04 L3068.26 2243.04 L3070.73 2243.04 L3073.08 2243.16 L3075.56 2243.16 L3078.03 2243.16 L3080.51 2243.16 L3082.98 2243.29 L3085.46 2243.29 L3087.93 2243.29 L3090.41 2243.29 L3092.88 2243.41 L3095.24 2243.41 L3097.71 2243.41 L3100.18 2243.41 L3102.66 2243.53 L3105.14 2243.53 L3107.61 2243.53 L3110.09 2243.53 L3112.56 2243.66 L3114.91 2243.66 L3117.39 2243.66 L3119.86 2243.66 L3122.34 2243.78 L3124.81 2243.78 L3127.29 2243.78 L3129.76 2243.91 L3132.24 2243.91 L3134.71 2243.91 L3137.06 2243.91 L3139.54 2244.03 L3142.01 2244.03 L3144.49 2244.03 L3146.96 2244.03 L3149.44 2244.03 L3151.91 2244.15 L3154.39 2244.15 L3156.86 2244.15 L3159.21 2244.15 L3161.69 2244.28 L3164.16 2244.28 L3166.64 2244.28 L3169.11 2244.28" stroke-linejoin="round" style="fill:none;stroke:#FF4500;stroke-width:8.64"/>
	<circle cx="1380.43" cy="2046.39" r="26.35" style="fill:#1A476F"/>
	<circle cx="1380.43" cy="2046.39" r="22.03" style="fill:none;stroke:#1A476F;stroke-width:8.64"/>
	<text x="1451.46" y="2005.43" style="font-family:'Helvetica';font-size:79.94px;fill:#1A476f">E-value (CI): (2.42, 2.42)</text>
	<circle cx="1579.67" cy="1845.29" r="26.35" style="fill:#90353B"/>
	<circle cx="1579.67" cy="1845.29" r="22.03" style="fill:none;stroke:#90353B;stroke-width:8.64"/>
	<text x="1650.70" y="1804.33" style="font-family:'Helvetica';font-size:79.94px;fill:#90353b">E-value: (3.23, 3.23)</text>
	<line x1="1122.66" y1="2307.64" x2="1122.66" y2="100.86" style="stroke:#000000;stroke-width:5.76"/>
	<line x1="1122.66" y1="2150.72" x2="1082.69" y2="2150.72" style="stroke:#000000;stroke-width:5.76"/>
	<text x="1032.58" y="2150.72" style="font-family:'Helvetica';font-size:99.99px;fill:#000000" transform="rotate(-90 1032.58,2150.72)" text-anchor="middle">2</text>
	<line x1="1122.66" y1="1654.09" x2="1082.69" y2="1654.09" style="stroke:#000000;stroke-width:5.76"/>
	<text x="1032.58" y="1654.09" style="font-family:'Helvetica';font-size:99.99px;fill:#000000" transform="rotate(-90 1032.58,1654.09)" text-anchor="middle">4</text>
	<line x1="1122.66" y1="1157.47" x2="1082.69" y2="1157.47" style="stroke:#000000;stroke-width:5.76"/>
	<text x="1032.58" y="1157.47" style="font-family:'Helvetica';font-size:99.99px;fill:#000000" transform="rotate(-90 1032.58,1157.47)" text-anchor="middle">6</text>
	<line x1="1122.66" y1="660.85" x2="1082.69" y2="660.85" style="stroke:#000000;stroke-width:5.76"/>
	<text x="1032.58" y="660.85" style="font-family:'Helvetica';font-size:99.99px;fill:#000000" transform="rotate(-90 1032.58,660.85)" text-anchor="middle">8</text>
	<line x1="1122.66" y1="164.22" x2="1082.69" y2="164.22" style="stroke:#000000;stroke-width:5.76"/>
	<text x="1032.58" y="164.22" style="font-family:'Helvetica';font-size:99.99px;fill:#000000" transform="rotate(-90 1032.58,164.22)" text-anchor="middle">10</text>
	<text x="827.85" y="1204.25" style="font-family:'Helvetica';font-size:79.94px;fill:#000000" transform="rotate(-90 827.85,1204.25)" text-anchor="middle">Risk ratio for confounder-outcome relationship</text>
	<line x1="1122.66" y1="2307.64" x2="3308.83" y2="2307.64" style="stroke:#000000;stroke-width:5.76"/>
	<line x1="1276.98" y1="2307.64" x2="1276.98" y2="2347.61" style="stroke:#000000;stroke-width:5.76"/>
	<text x="1276.98" y="2437.59" style="font-family:'Helvetica';font-size:99.99px;fill:#000000" text-anchor="middle">2</text>
	<line x1="1769.13" y1="2307.64" x2="1769.13" y2="2347.61" style="stroke:#000000;stroke-width:5.76"/>
	<text x="1769.13" y="2437.59" style="font-family:'Helvetica';font-size:99.99px;fill:#000000" text-anchor="middle">4</text>
	<line x1="2261.28" y1="2307.64" x2="2261.28" y2="2347.61" style="stroke:#000000;stroke-width:5.76"/>
	<text x="2261.28" y="2437.59" style="font-family:'Helvetica';font-size:99.99px;fill:#000000" text-anchor="middle">6</text>
	<line x1="2753.31" y1="2307.64" x2="2753.31" y2="2347.61" style="stroke:#000000;stroke-width:5.76"/>
	<text x="2753.31" y="2437.59" style="font-family:'Helvetica';font-size:99.99px;fill:#000000" text-anchor="middle">8</text>
	<line x1="3245.47" y1="2307.64" x2="3245.47" y2="2347.61" style="stroke:#000000;stroke-width:5.76"/>
	<text x="3245.47" y="2437.59" style="font-family:'Helvetica';font-size:99.99px;fill:#000000" text-anchor="middle">10</text>
	<text x="2215.74" y="2634.31" style="font-family:'Helvetica';font-size:79.94px;fill:#000000" text-anchor="middle">Risk ratio for exposure-confounder relationship</text>
</svg>
