<?xml version="1.0" encoding="UTF-8" standalone="no"?>
<!-- This is a Stata 16.1 generated SVG file (http://www.stata.com) -->

<svg version="1.1" width="5.50in" height="4.00in" viewBox="0 0 3960 2880" xmlns="http://www.w3.org/2000/svg" xmlns:xlink="http://www.w3.org/1999/xlink">
	<desc>Stata Graph - Graph</desc>
	<rect x="0" y="0" width="3960" height="2880" style="fill:#FFFFFF;stroke:none"/>
	<rect x="0.00" y="0.00" width="3959.88" height="2880.00" style="fill:#FFFFFF"/>
	<rect x="2.88" y="2.88" width="3954.12" height="2874.24" style="fill:none;stroke:#FFFFFF;stroke-width:5.76"/>
	<rect x="1125.54" y="103.74" width="2180.41" height="2201.02" style="fill:none;stroke:#000000;stroke-width:5.76"/>
	<path d=" M1372.76 242.93 L1376.72 397.25 L1380.80 527.81 L1384.76 639.68 L1388.72 736.71 L1392.68 821.48 L1396.64 896.47 L1400.60 962.93 L1404.56 1022.58 L1408.52 1076.16 L1412.61 1124.68 L1416.57 1168.73 L1420.53 1208.95 L1424.49 1245.83 L1428.45 1279.86 L1432.41 1311.17 L1436.37 1340.13 L1440.33 1367.11 L1444.41 1392.23 L1448.37 1415.62 L1452.33 1437.52 L1456.29 1458.07 L1460.25 1477.37 L1464.21 1495.44 L1468.17 1512.64 L1472.13 1528.73 L1476.21 1544.08 L1480.17 1558.56 L1484.13 1572.29 L1488.09 1585.41 L1492.05 1597.79 L1496.01 1609.54 L1499.97 1620.93 L1503.93 1631.69 L1508.02 1641.97 L1511.98 1651.74 L1515.94 1661.15 L1519.90 1670.18 L1523.86 1678.84 L1527.82 1687.14 L1531.78 1695.18 L1535.74 1702.85 L1539.82 1710.28 L1543.78 1717.33 L1547.74 1724.26 L1551.70 1730.82 L1555.66 1737.26 L1559.62 1743.44 L1563.58 1749.38 L1567.66 1755.08 L1571.63 1760.65 L1575.59 1766.09 L1579.55 1771.29 L1583.51 1776.36 L1587.46 1781.19 L1591.42 1785.89 L1595.38 1790.59 L1599.47 1795.05 L1603.43 1799.38 L1607.39 1803.59 L1611.35 1807.67 L1615.31 1811.63 L1619.27 1815.59 L1623.23 1819.31 L1627.19 1823.02 L1631.27 1826.61 L1635.23 1830.07 L1639.19 1833.41 L1643.15 1836.75 L1647.11 1839.97 L1651.07 1843.07 L1655.03 1846.16 L1658.99 1849.13 L1663.08 1852.10 L1667.04 1854.95 L1671.00 1857.67 L1674.96 1860.39 L1678.92 1863.11 L1682.88 1865.71 L1686.84 1868.19 L1690.80 1870.79 L1694.88 1873.14 L1698.84 1875.49 L1702.80 1877.84 L1706.76 1880.19 L1710.72 1882.42 L1714.68 1884.52 L1718.64 1886.75 L1722.60 1888.86 L1726.68 1890.84 L1730.64 1892.94 L1734.60 1894.92 L1738.56 1896.78 L1742.52 1898.76 L1746.48 1900.61 L1750.44 1902.47 L1754.40 1904.20 L1758.49 1905.93 L1762.45 1907.67 L1766.41 1909.40 L1770.37 1911.01 L1774.33 1912.74 L1778.29 1914.35 L1782.25 1915.83 L1786.33 1917.44 L1790.29 1918.93 L1794.25 1920.41 L1798.21 1921.90 L1802.17 1923.38 L1806.13 1924.87 L1810.09 1926.23 L1814.05 1927.59 L1818.13 1928.95 L1822.10 1930.31 L1826.06 1931.67 L1830.02 1932.91 L1833.97 1934.15 L1837.93 1935.39 L1841.89 1936.62 L1845.86 1937.86 L1849.94 1939.10 L1853.90 1940.21 L1857.86 1941.45 L1861.82 1942.56 L1865.78 1943.68 L1869.74 1944.79 L1873.70 1945.91 L1877.66 1947.02 L1881.74 1948.01 L1885.70 1949.12 L1889.66 1950.11 L1893.62 1951.10 L1897.58 1952.09 L1901.54 1953.08 L1905.50 1954.07 L1909.46 1955.06 L1913.55 1956.05 L1917.51 1956.92 L1921.47 1957.91 L1925.43 1958.78 L1929.39 1959.64 L1933.35 1960.51 L1937.31 1961.38 L1941.27 1962.24 L1945.35 1963.11 L1949.31 1963.97 L1953.27 1964.84 L1957.23 1965.71 L1961.19 1966.45 L1965.15 1967.32 L1969.11 1968.06 L1973.19 1968.80 L1977.15 1969.54 L1981.11 1970.41 L1985.07 1971.15 L1989.03 1971.89 L1992.99 1972.64 L1996.95 1973.38 L2000.91 1974.00 L2005.00 1974.74 L2008.96 1975.48 L2012.92 1976.10 L2016.88 1976.84 L2020.84 1977.46 L2024.80 1978.21 L2028.76 1978.82 L2032.72 1979.44 L2036.80 1980.19 L2040.76 1980.80 L2044.72 1981.42 L2048.68 1982.04 L2052.64 1982.66 L2056.60 1983.28 L2060.56 1983.90 L2064.52 1984.52 L2068.61 1985.01 L2072.57 1985.63 L2076.53 1986.25 L2080.49 1986.74 L2084.45 1987.36 L2088.41 1987.98 L2092.36 1988.48 L2096.32 1988.97 L2100.41 1989.59 L2104.37 1990.09 L2108.33 1990.58 L2112.29 1991.20 L2116.25 1991.69 L2120.21 1992.19 L2124.17 1992.68 L2128.13 1993.18 L2132.21 1993.67 L2136.17 1994.17 L2140.13 1994.66 L2144.09 1995.16 L2148.05 1995.65 L2152.01 1996.15 L2155.97 1996.64 L2159.93 1997.14 L2164.02 1997.51 L2167.98 1998.01 L2171.94 1998.50 L2175.90 1999.00 L2179.86 1999.37 L2183.82 1999.86 L2187.78 2000.23 L2191.86 2000.73 L2195.82 2001.10 L2199.78 2001.60 L2203.74 2001.97 L2207.70 2002.34 L2211.66 2002.83 L2215.62 2003.20 L2219.58 2003.58 L2223.66 2004.07 L2227.62 2004.44 L2231.58 2004.81 L2235.54 2005.18 L2239.50 2005.68 L2243.46 2006.05 L2247.42 2006.42 L2251.38 2006.79 L2255.47 2007.16 L2259.43 2007.54 L2263.39 2007.91 L2267.35 2008.28 L2271.31 2008.65 L2275.27 2009.02 L2279.23 2009.39 L2283.19 2009.64 L2287.27 2010.01 L2291.23 2010.38 L2295.19 2010.75 L2299.15 2011.12 L2303.11 2011.37 L2307.07 2011.74 L2311.03 2012.11 L2314.99 2012.49 L2319.07 2012.73 L2323.03 2013.10 L2326.99 2013.48 L2330.95 2013.72 L2334.91 2014.09 L2338.88 2014.34 L2342.84 2014.71 L2346.80 2014.96 L2350.88 2015.33 L2354.84 2015.58 L2358.80 2015.95 L2362.76 2016.20 L2366.72 2016.57 L2370.68 2016.82 L2374.64 2017.06 L2378.72 2017.44 L2382.68 2017.68 L2386.64 2017.93 L2390.60 2018.30 L2394.56 2018.55 L2398.52 2018.80 L2402.48 2019.17 L2406.44 2019.42 L2410.53 2019.66 L2414.49 2019.91 L2418.45 2020.28 L2422.41 2020.53 L2426.37 2020.78 L2430.33 2021.02 L2434.29 2021.27 L2438.25 2021.52 L2442.33 2021.77 L2446.29 2022.14 L2450.25 2022.39 L2454.21 2022.63 L2458.17 2022.88 L2462.13 2023.13 L2466.09 2023.38 L2470.05 2023.62 L2474.13 2023.87 L2478.09 2024.12 L2482.05 2024.37 L2486.01 2024.61 L2489.97 2024.86 L2493.93 2024.98 L2497.89 2025.23 L2501.85 2025.48 L2505.94 2025.73 L2509.90 2025.97 L2513.86 2026.22 L2517.82 2026.47 L2521.78 2026.72 L2525.74 2026.84 L2529.70 2027.09 L2533.66 2027.34 L2537.74 2027.58 L2541.70 2027.83 L2545.66 2027.95 L2549.62 2028.20 L2553.58 2028.45 L2557.54 2028.70 L2561.50 2028.82 L2565.46 2029.07 L2569.55 2029.32 L2573.51 2029.44 L2577.47 2029.69 L2581.43 2029.93 L2585.39 2030.06 L2589.34 2030.31 L2593.30 2030.55 L2597.39 2030.68 L2601.35 2030.92 L2605.31 2031.05 L2609.27 2031.30 L2613.23 2031.54 L2617.19 2031.67 L2621.15 2031.91 L2625.11 2032.04 L2629.19 2032.29 L2633.15 2032.41 L2637.11 2032.66 L2641.07 2032.78 L2645.03 2033.03 L2648.99 2033.15 L2652.95 2033.40 L2656.91 2033.52 L2661.00 2033.77 L2664.96 2033.89 L2668.92 2034.14 L2672.88 2034.27 L2676.84 2034.51 L2680.80 2034.64 L2684.76 2034.88 L2688.72 2035.01 L2692.80 2035.13 L2696.76 2035.38 L2700.72 2035.50 L2704.68 2035.75 L2708.64 2035.87 L2712.60 2036.00 L2716.56 2036.25 L2720.52 2036.37 L2724.60 2036.49 L2728.56 2036.74 L2732.52 2036.86 L2736.48 2036.99 L2740.44 2037.24 L2744.40 2037.36 L2748.36 2037.48 L2752.32 2037.61 L2756.41 2037.85 L2760.37 2037.98 L2764.33 2038.10 L2768.29 2038.35 L2772.25 2038.47 L2776.21 2038.60 L2780.17 2038.72 L2784.25 2038.97 L2788.21 2039.09 L2792.17 2039.22 L2796.13 2039.34 L2800.09 2039.46 L2804.05 2039.71 L2808.01 2039.83 L2811.97 2039.96 L2816.05 2040.08 L2820.01 2040.21 L2823.97 2040.33 L2827.93 2040.58 L2831.89 2040.70 L2835.86 2040.83 L2839.82 2040.95 L2843.78 2041.07 L2847.86 2041.20 L2851.82 2041.32 L2855.78 2041.57 L2859.74 2041.69 L2863.70 2041.82 L2867.66 2041.94 L2871.62 2042.06 L2875.58 2042.19 L2879.66 2042.31 L2883.62 2042.43 L2887.58 2042.56 L2891.54 2042.68 L2895.50 2042.81 L2899.46 2043.05 L2903.42 2043.18 L2907.38 2043.30 L2911.47 2043.42 L2915.43 2043.55 L2919.39 2043.67 L2923.35 2043.80 L2927.31 2043.92 L2931.27 2044.04 L2935.23 2044.17 L2939.19 2044.29 L2943.27 2044.41 L2947.23 2044.54 L2951.19 2044.66 L2955.15 2044.79 L2959.11 2044.91 L2963.07 2045.03 L2967.03 2045.16 L2970.99 2045.28 L2975.07 2045.40 L2979.03 2045.53 L2982.99 2045.65 L2986.95 2045.78 L2990.91 2045.78 L2994.87 2045.90 L2998.83 2046.02 L3002.92 2046.15 L3006.88 2046.27 L3010.84 2046.39 L3014.80 2046.52 L3018.76 2046.64 L3022.72 2046.77 L3026.68 2046.89 L3030.64 2047.01 L3034.72 2047.14 L3038.68 2047.14 L3042.64 2047.26 L3046.60 2047.38 L3050.56 2047.51 L3054.52 2047.63 L3058.48 2047.76 L3062.44 2047.88 L3066.53 2048.00 L3070.49 2048.00 L3074.45 2048.13 L3078.41 2048.25 L3082.36 2048.37 L3086.32 2048.50 L3090.28 2048.62 L3094.24 2048.75 L3098.33 2048.75 L3102.29 2048.87 L3106.25 2048.99 L3110.21 2049.12 L3114.17 2049.24 L3118.13 2049.24 L3122.09 2049.36 L3126.05 2049.49 L3130.13 2049.61 L3134.09 2049.74 L3138.05 2049.74 L3142.01 2049.86 L3145.97 2049.98 L3149.93 2050.11 L3153.89 2050.23 L3157.85 2050.23 L3161.94 2050.35 L3165.90 2050.48 L3169.86 2050.60 L3173.82 2050.73 L3177.78 2050.73 L3181.74 2050.85 L3185.70 2050.97 L3189.78 2051.10 L3193.74 2051.10 L3197.70 2051.22 L3201.66 2051.34 L3205.62 2051.47 L3209.58 2051.47 L3213.54 2051.59 L3217.50 2051.72 L3221.58 2051.72 L3225.54 2051.84 L3229.50 2051.96 L3233.46 2052.09 L3237.42 2052.09 L3241.38 2052.21 L3245.34 2052.33" stroke-linejoin="round" style="fill:none;stroke:#006000;stroke-width:8.64"/>
	<path d=" M1193.94 1820.05 L1197.90 2030.06 L1201.86 2100.10 L1205.82 2135.13 L1209.78 2156.16 L1213.74 2170.15 L1217.70 2180.17 L1221.66 2187.60 L1225.74 2193.54 L1229.70 2198.12 L1233.66 2201.95 L1237.62 2205.17 L1241.58 2207.89 L1245.54 2210.12 L1249.50 2212.10 L1253.46 2213.96 L1257.55 2215.44 L1261.51 2216.80 L1265.47 2218.04 L1269.43 2219.15 L1273.39 2220.14 L1277.35 2221.01 L1281.31 2221.88 L1285.27 2222.62 L1289.35 2223.36 L1293.31 2223.98 L1297.27 2224.60 L1301.23 2225.22 L1305.19 2225.71 L1309.15 2226.21 L1313.11 2226.58 L1317.07 2227.07 L1321.15 2227.45 L1325.12 2227.82 L1329.08 2228.19 L1333.04 2228.56 L1336.99 2228.81 L1340.95 2229.05 L1344.91 2229.43 L1348.88 2229.67 L1352.96 2229.92 L1356.92 2230.17 L1360.88 2230.42 L1364.84 2230.66 L1368.80 2230.79 L1372.76 2231.03 L1376.72 2231.28 L1380.80 2231.41 L1384.76 2231.65 L1388.72 2231.78 L1392.68 2231.90 L1396.64 2232.15 L1400.60 2232.27 L1404.56 2232.40 L1408.52 2232.52 L1412.61 2232.64 L1416.57 2232.77 L1420.53 2232.89 L1424.49 2233.01 L1428.45 2233.14 L1432.41 2233.26 L1436.37 2233.39 L1440.33 2233.51 L1444.41 2233.63 L1448.37 2233.76 L1452.33 2233.76 L1456.29 2233.88 L1460.25 2234.00 L1464.21 2234.13 L1468.17 2234.13 L1472.13 2234.25 L1476.21 2234.38 L1480.17 2234.38 L1484.13 2234.50 L1488.09 2234.62 L1492.05 2234.62 L1496.01 2234.75 L1499.97 2234.75 L1503.93 2234.87 L1508.02 2234.87 L1511.98 2234.99 L1515.94 2234.99 L1519.90 2235.12 L1523.86 2235.12 L1527.82 2235.24 L1531.78 2235.24 L1535.74 2235.37 L1539.82 2235.37 L1543.78 2235.49 L1547.74 2235.49 L1551.70 2235.61 L1555.66 2235.61 L1559.62 2235.61 L1563.58 2235.74 L1567.66 2235.74 L1571.63 2235.74 L1575.59 2235.86 L1579.55 2235.86 L1583.51 2235.98 L1587.46 2235.98 L1591.42 2235.98 L1595.38 2236.11 L1599.47 2236.11 L1603.43 2236.11 L1607.39 2236.11 L1611.35 2236.23 L1615.31 2236.23 L1619.27 2236.23 L1623.23 2236.36 L1627.19 2236.36 L1631.27 2236.36 L1635.23 2236.48 L1639.19 2236.48 L1643.15 2236.48 L1647.11 2236.48 L1651.07 2236.60 L1655.03 2236.60 L1658.99 2236.60 L1663.08 2236.60 L1667.04 2236.73 L1671.00 2236.73 L1674.96 2236.73 L1678.92 2236.73 L1682.88 2236.73 L1686.84 2236.85 L1690.80 2236.85 L1694.88 2236.85 L1698.84 2236.85 L1702.80 2236.97 L1706.76 2236.97 L1710.72 2236.97 L1714.68 2236.97 L1718.64 2236.97 L1722.60 2236.97 L1726.68 2237.10 L1730.64 2237.10 L1734.60 2237.10 L1738.56 2237.10 L1742.52 2237.10 L1746.48 2237.22 L1750.44 2237.22 L1754.40 2237.22 L1758.49 2237.22 L1762.45 2237.22 L1766.41 2237.22 L1770.37 2237.35 L1774.33 2237.35 L1778.29 2237.35 L1782.25 2237.35 L1786.33 2237.35 L1790.29 2237.35 L1794.25 2237.35 L1798.21 2237.47 L1802.17 2237.47 L1806.13 2237.47 L1810.09 2237.47 L1814.05 2237.47 L1818.13 2237.47 L1822.10 2237.47 L1826.06 2237.59 L1830.02 2237.59 L1833.97 2237.59 L1837.93 2237.59 L1841.89 2237.59 L1845.86 2237.59 L1849.94 2237.59 L1853.90 2237.59 L1857.86 2237.72 L1861.82 2237.72 L1865.78 2237.72 L1869.74 2237.72 L1873.70 2237.72 L1877.66 2237.72 L1881.74 2237.72 L1885.70 2237.72 L1889.66 2237.84 L1893.62 2237.84 L1897.58 2237.84 L1901.54 2237.84 L1905.50 2237.84 L1909.46 2237.84 L1913.55 2237.84 L1917.51 2237.84 L1921.47 2237.84 L1925.43 2237.84 L1929.39 2237.96 L1933.35 2237.96 L1937.31 2237.96 L1941.27 2237.96 L1945.35 2237.96 L1949.31 2237.96 L1953.27 2237.96 L1957.23 2237.96 L1961.19 2237.96 L1965.15 2237.96 L1969.11 2237.96 L1973.19 2238.09 L1977.15 2238.09 L1981.11 2238.09 L1985.07 2238.09 L1989.03 2238.09 L1992.99 2238.09 L1996.95 2238.09 L2000.91 2238.09 L2005.00 2238.09 L2008.96 2238.09 L2012.92 2238.09 L2016.88 2238.09 L2020.84 2238.21 L2024.80 2238.21 L2028.76 2238.21 L2032.72 2238.21 L2036.80 2238.21 L2040.76 2238.21 L2044.72 2238.21 L2048.68 2238.21 L2052.64 2238.21 L2056.60 2238.21 L2060.56 2238.21 L2064.52 2238.21 L2068.61 2238.21 L2072.57 2238.34 L2076.53 2238.34 L2080.49 2238.34 L2084.45 2238.34 L2088.41 2238.34 L2092.36 2238.34 L2096.32 2238.34 L2100.41 2238.34 L2104.37 2238.34 L2108.33 2238.34 L2112.29 2238.34 L2116.25 2238.34 L2120.21 2238.34 L2124.17 2238.34 L2128.13 2238.34 L2132.21 2238.34 L2136.17 2238.46 L2140.13 2238.46 L2144.09 2238.46 L2148.05 2238.46 L2152.01 2238.46 L2155.97 2238.46 L2159.93 2238.46 L2164.02 2238.46 L2167.98 2238.46 L2171.94 2238.46 L2175.90 2238.46 L2179.86 2238.46 L2183.82 2238.46 L2187.78 2238.46 L2191.86 2238.46 L2195.82 2238.46 L2199.78 2238.46 L2203.74 2238.58 L2207.70 2238.58 L2211.66 2238.58 L2215.62 2238.58 L2219.58 2238.58 L2223.66 2238.58 L2227.62 2238.58 L2231.58 2238.58 L2235.54 2238.58 L2239.50 2238.58 L2243.46 2238.58 L2247.42 2238.58 L2251.38 2238.58 L2255.47 2238.58 L2259.43 2238.58 L2263.39 2238.58 L2267.35 2238.58 L2271.31 2238.58 L2275.27 2238.58 L2279.23 2238.58 L2283.19 2238.58 L2287.27 2238.71 L2291.23 2238.71 L2295.19 2238.71 L2299.15 2238.71 L2303.11 2238.71 L2307.07 2238.71 L2311.03 2238.71 L2314.99 2238.71 L2319.07 2238.71 L2323.03 2238.71 L2326.99 2238.71 L2330.95 2238.71 L2334.91 2238.71 L2338.88 2238.71 L2342.84 2238.71 L2346.80 2238.71 L2350.88 2238.71 L2354.84 2238.71 L2358.80 2238.71 L2362.76 2238.71 L2366.72 2238.71 L2370.68 2238.71 L2374.64 2238.71 L2378.72 2238.71 L2382.68 2238.83 L2386.64 2238.83 L2390.60 2238.83 L2394.56 2238.83 L2398.52 2238.83 L2402.48 2238.83 L2406.44 2238.83 L2410.53 2238.83 L2414.49 2238.83 L2418.45 2238.83 L2422.41 2238.83 L2426.37 2238.83 L2430.33 2238.83 L2434.29 2238.83 L2438.25 2238.83 L2442.33 2238.83 L2446.29 2238.83 L2450.25 2238.83 L2454.21 2238.83 L2458.17 2238.83 L2462.13 2238.83 L2466.09 2238.83 L2470.05 2238.83 L2474.13 2238.83 L2478.09 2238.83 L2482.05 2238.83 L2486.01 2238.83 L2489.97 2238.83 L2493.93 2238.83 L2497.89 2238.95 L2501.85 2238.95 L2505.94 2238.95 L2509.90 2238.95 L2513.86 2238.95 L2517.82 2238.95 L2521.78 2238.95 L2525.74 2238.95 L2529.70 2238.95 L2533.66 2238.95 L2537.74 2238.95 L2541.70 2238.95 L2545.66 2238.95 L2549.62 2238.95 L2553.58 2238.95 L2557.54 2238.95 L2561.50 2238.95 L2565.46 2238.95 L2569.55 2238.95 L2573.51 2238.95 L2577.47 2238.95 L2581.43 2238.95 L2585.39 2238.95 L2589.34 2238.95 L2593.30 2238.95 L2597.39 2238.95 L2601.35 2238.95 L2605.31 2238.95 L2609.27 2238.95 L2613.23 2238.95 L2617.19 2238.95 L2621.15 2238.95 L2625.11 2238.95 L2629.19 2238.95 L2633.15 2238.95 L2637.11 2238.95 L2641.07 2239.08 L2645.03 2239.08 L2648.99 2239.08 L2652.95 2239.08 L2656.91 2239.08 L2661.00 2239.08 L2664.96 2239.08 L2668.92 2239.08 L2672.88 2239.08 L2676.84 2239.08 L2680.80 2239.08 L2684.76 2239.08 L2688.72 2239.08 L2692.80 2239.08 L2696.76 2239.08 L2700.72 2239.08 L2704.68 2239.08 L2708.64 2239.08 L2712.60 2239.08 L2716.56 2239.08 L2720.52 2239.08 L2724.60 2239.08 L2728.56 2239.08 L2732.52 2239.08 L2736.48 2239.08 L2740.44 2239.08 L2744.40 2239.08 L2748.36 2239.08 L2752.32 2239.08 L2756.41 2239.08 L2760.37 2239.08 L2764.33 2239.08 L2768.29 2239.08 L2772.25 2239.08 L2776.21 2239.08 L2780.17 2239.08 L2784.25 2239.08 L2788.21 2239.08 L2792.17 2239.08 L2796.13 2239.08 L2800.09 2239.08 L2804.05 2239.08 L2808.01 2239.08 L2811.97 2239.20 L2816.05 2239.20 L2820.01 2239.20 L2823.97 2239.20 L2827.93 2239.20 L2831.89 2239.20 L2835.86 2239.20 L2839.82 2239.20 L2843.78 2239.20 L2847.86 2239.20 L2851.82 2239.20 L2855.78 2239.20 L2859.74 2239.20 L2863.70 2239.20 L2867.66 2239.20 L2871.62 2239.20 L2875.58 2239.20 L2879.66 2239.20 L2883.62 2239.20 L2887.58 2239.20 L2891.54 2239.20 L2895.50 2239.20 L2899.46 2239.20 L2903.42 2239.20 L2907.38 2239.20 L2911.47 2239.20 L2915.43 2239.20 L2919.39 2239.20 L2923.35 2239.20 L2927.31 2239.20 L2931.27 2239.20 L2935.23 2239.20 L2939.19 2239.20 L2943.27 2239.20 L2947.23 2239.20 L2951.19 2239.20 L2955.15 2239.20 L2959.11 2239.20 L2963.07 2239.20 L2967.03 2239.20 L2970.99 2239.20 L2975.07 2239.20 L2979.03 2239.20 L2982.99 2239.20 L2986.95 2239.20 L2990.91 2239.20 L2994.87 2239.20 L2998.83 2239.20 L3002.92 2239.20 L3006.88 2239.20 L3010.84 2239.20 L3014.80 2239.20 L3018.76 2239.20 L3022.72 2239.20 L3026.68 2239.20 L3030.64 2239.20 L3034.72 2239.33 L3038.68 2239.33 L3042.64 2239.33 L3046.60 2239.33 L3050.56 2239.33 L3054.52 2239.33 L3058.48 2239.33 L3062.44 2239.33 L3066.53 2239.33 L3070.49 2239.33 L3074.45 2239.33 L3078.41 2239.33 L3082.36 2239.33 L3086.32 2239.33 L3090.28 2239.33 L3094.24 2239.33 L3098.33 2239.33 L3102.29 2239.33 L3106.25 2239.33 L3110.21 2239.33 L3114.17 2239.33 L3118.13 2239.33 L3122.09 2239.33 L3126.05 2239.33 L3130.13 2239.33 L3134.09 2239.33 L3138.05 2239.33 L3142.01 2239.33 L3145.97 2239.33 L3149.93 2239.33 L3153.89 2239.33 L3157.85 2239.33 L3161.94 2239.33 L3165.90 2239.33 L3169.86 2239.33 L3173.82 2239.33 L3177.78 2239.33 L3181.74 2239.33 L3185.70 2239.33 L3189.78 2239.33 L3193.74 2239.33 L3197.70 2239.33 L3201.66 2239.33 L3205.62 2239.33 L3209.58 2239.33 L3213.54 2239.33 L3217.50 2239.33 L3221.58 2239.33 L3225.54 2239.33 L3229.50 2239.33 L3233.46 2239.33 L3237.42 2239.33 L3241.38 2239.33 L3245.34 2239.33" stroke-linejoin="round" style="fill:none;stroke:#FF4500;stroke-width:8.64"/>
	<circle cx="1229.70" cy="2198.49" r="26.35" style="fill:#1A476F"/>
	<circle cx="1229.70" cy="2198.49" r="22.03" style="fill:none;stroke:#1A476F;stroke-width:8.64"/>
	<text x="1300.74" y="2157.52" style="font-family:'Helvetica';font-size:79.94px;fill:#1A476f">E-value (CI): (1.11, 1.11)</text>
	<circle cx="1607.39" cy="1803.34" r="26.35" style="fill:#90353B"/>
	<circle cx="1607.39" cy="1803.34" r="22.03" style="fill:none;stroke:#90353B;stroke-width:8.64"/>
	<text x="1678.42" y="1762.38" style="font-family:'Helvetica';font-size:79.94px;fill:#90353b">E-value: (2.06, 2.06)</text>
	<line x1="1122.66" y1="2307.64" x2="1122.66" y2="100.86" style="stroke:#000000;stroke-width:5.76"/>
	<line x1="1122.66" y1="2244.28" x2="1082.69" y2="2244.28" style="stroke:#000000;stroke-width:5.76"/>
	<text x="1032.58" y="2244.28" style="font-family:'Helvetica';font-size:99.99px;fill:#000000" transform="rotate(-90 1032.58,2244.28)" text-anchor="middle">1</text>
	<line x1="1122.66" y1="1828.22" x2="1082.69" y2="1828.22" style="stroke:#000000;stroke-width:5.76"/>
	<text x="1032.58" y="1828.22" style="font-family:'Helvetica';font-size:99.99px;fill:#000000" transform="rotate(-90 1032.58,1828.22)" text-anchor="middle">2</text>
	<line x1="1122.66" y1="1412.28" x2="1082.69" y2="1412.28" style="stroke:#000000;stroke-width:5.76"/>
	<text x="1032.58" y="1412.28" style="font-family:'Helvetica';font-size:99.99px;fill:#000000" transform="rotate(-90 1032.58,1412.28)" text-anchor="middle">3</text>
	<line x1="1122.66" y1="996.22" x2="1082.69" y2="996.22" style="stroke:#000000;stroke-width:5.76"/>
	<text x="1032.58" y="996.22" style="font-family:'Helvetica';font-size:99.99px;fill:#000000" transform="rotate(-90 1032.58,996.22)" text-anchor="middle">4</text>
	<line x1="1122.66" y1="580.16" x2="1082.69" y2="580.16" style="stroke:#000000;stroke-width:5.76"/>
	<text x="1032.58" y="580.16" style="font-family:'Helvetica';font-size:99.99px;fill:#000000" transform="rotate(-90 1032.58,580.16)" text-anchor="middle">5</text>
	<line x1="1122.66" y1="164.22" x2="1082.69" y2="164.22" style="stroke:#000000;stroke-width:5.76"/>
	<text x="1032.58" y="164.22" style="font-family:'Helvetica';font-size:99.99px;fill:#000000" transform="rotate(-90 1032.58,164.22)" text-anchor="middle">6</text>
	<text x="827.85" y="1204.25" style="font-family:'Helvetica';font-size:79.94px;fill:#000000" transform="rotate(-90 827.85,1204.25)" text-anchor="middle">Risk ratio for confounder-outcome relationship</text>
	<line x1="1122.66" y1="2307.64" x2="3308.83" y2="2307.64" style="stroke:#000000;stroke-width:5.76"/>
	<line x1="1186.02" y1="2307.64" x2="1186.02" y2="2347.61" style="stroke:#000000;stroke-width:5.76"/>
	<text x="1186.02" y="2437.59" style="font-family:'Helvetica';font-size:99.99px;fill:#000000" text-anchor="middle">1</text>
	<line x1="1583.63" y1="2307.64" x2="1583.63" y2="2347.61" style="stroke:#000000;stroke-width:5.76"/>
	<text x="1583.63" y="2437.59" style="font-family:'Helvetica';font-size:99.99px;fill:#000000" text-anchor="middle">2</text>
	<line x1="1981.11" y1="2307.64" x2="1981.11" y2="2347.61" style="stroke:#000000;stroke-width:5.76"/>
	<text x="1981.11" y="2437.59" style="font-family:'Helvetica';font-size:99.99px;fill:#000000" text-anchor="middle">3</text>
	<line x1="2378.72" y1="2307.64" x2="2378.72" y2="2347.61" style="stroke:#000000;stroke-width:5.76"/>
	<text x="2378.72" y="2437.59" style="font-family:'Helvetica';font-size:99.99px;fill:#000000" text-anchor="middle">4</text>
	<line x1="2776.33" y1="2307.64" x2="2776.33" y2="2347.61" style="stroke:#000000;stroke-width:5.76"/>
	<text x="2776.33" y="2437.59" style="font-family:'Helvetica';font-size:99.99px;fill:#000000" text-anchor="middle">5</text>
	<line x1="3173.82" y1="2307.64" x2="3173.82" y2="2347.61" style="stroke:#000000;stroke-width:5.76"/>
	<text x="3173.82" y="2437.59" style="font-family:'Helvetica';font-size:99.99px;fill:#000000" text-anchor="middle">6</text>
	<text x="2215.74" y="2634.31" style="font-family:'Helvetica';font-size:79.94px;fill:#000000" text-anchor="middle">Risk ratio for exposure-confounder relationship</text>
</svg>
