<?xml version="1.0" encoding="UTF-8" standalone="no"?>
<!-- This is a Stata 16.1 generated SVG file (http://www.stata.com) -->

<svg version="1.1" width="20.00in" height="15.00in" viewBox="0 0 14400 10800" xmlns="http://www.w3.org/2000/svg" xmlns:xlink="http://www.w3.org/1999/xlink">
	<desc>Stata Graph - Graph</desc>
	<rect x="0" y="0" width="14400" height="10800" style="fill:#EAF2F3;stroke:none"/>
	<rect x="0.00" y="0.00" width="14400.00" height="10800.00" style="fill:#FFFFFF"/>
	<rect x="10.80" y="10.80" width="14378.40" height="10778.40" style="fill:none;stroke:#FFFFFF;stroke-width:21.60"/>
	<rect x="490.50" y="378.00" width="13531.50" height="9040.50" style="fill:#FFFFFF"/>
	<rect x="501.30" y="388.80" width="13509.90" height="9018.90" style="fill:none;stroke:#FFFFFF;stroke-width:21.60"/>
	<line x1="9890.55" y1="9418.50" x2="9890.55" y2="378.00" style="stroke:#000000;stroke-width:16.20"/>
	<line x1="9890.55" y1="9418.50" x2="9890.55" y2="378.00" style="stroke:#000000;stroke-width:16.20"/>
	<circle cx="10055.25" cy="1140.30" r="44.10" style="fill:#000000"/>
	<circle cx="10055.25" cy="1140.30" r="27.90" style="fill:none;stroke:#000000;stroke-width:32.40"/>
	<circle cx="10485.90" cy="1489.95" r="44.10" style="fill:#000000"/>
	<circle cx="10485.90" cy="1489.95" r="27.90" style="fill:none;stroke:#000000;stroke-width:32.40"/>
	<circle cx="9899.55" cy="1839.60" r="44.10" style="fill:#000000"/>
	<circle cx="9899.55" cy="1839.60" r="27.90" style="fill:none;stroke:#000000;stroke-width:32.40"/>
	<circle cx="10169.55" cy="2189.25" r="44.10" style="fill:#000000"/>
	<circle cx="10169.55" cy="2189.25" r="27.90" style="fill:none;stroke:#000000;stroke-width:32.40"/>
	<circle cx="9954.45" cy="2538.45" r="44.10" style="fill:#000000"/>
	<circle cx="9954.45" cy="2538.45" r="27.90" style="fill:none;stroke:#000000;stroke-width:32.40"/>
	<circle cx="10142.10" cy="2888.10" r="44.10" style="fill:#000000"/>
	<circle cx="10142.10" cy="2888.10" r="27.90" style="fill:none;stroke:#000000;stroke-width:32.40"/>
	<circle cx="10352.70" cy="3237.75" r="44.10" style="fill:#000000"/>
	<circle cx="10352.70" cy="3237.75" r="27.90" style="fill:none;stroke:#000000;stroke-width:32.40"/>
	<circle cx="11104.20" cy="3587.40" r="44.10" style="fill:#000000"/>
	<circle cx="11104.20" cy="3587.40" r="27.90" style="fill:none;stroke:#000000;stroke-width:32.40"/>
	<circle cx="10119.15" cy="3937.05" r="44.10" style="fill:#000000"/>
	<circle cx="10119.15" cy="3937.05" r="27.90" style="fill:none;stroke:#000000;stroke-width:32.40"/>
	<circle cx="10632.15" cy="4286.70" r="44.10" style="fill:#000000"/>
	<circle cx="10632.15" cy="4286.70" r="27.90" style="fill:none;stroke:#000000;stroke-width:32.40"/>
	<circle cx="10188.00" cy="4636.35" r="44.10" style="fill:#000000"/>
	<circle cx="10188.00" cy="4636.35" r="27.90" style="fill:none;stroke:#000000;stroke-width:32.40"/>
	<circle cx="10577.25" cy="4986.00" r="44.10" style="fill:#000000"/>
	<circle cx="10577.25" cy="4986.00" r="27.90" style="fill:none;stroke:#000000;stroke-width:32.40"/>
	<circle cx="9885.60" cy="5335.65" r="44.10" style="fill:#000000"/>
	<circle cx="9885.60" cy="5335.65" r="27.90" style="fill:none;stroke:#000000;stroke-width:32.40"/>
	<circle cx="10036.80" cy="5685.30" r="44.10" style="fill:#000000"/>
	<circle cx="10036.80" cy="5685.30" r="27.90" style="fill:none;stroke:#000000;stroke-width:32.40"/>
	<circle cx="9775.80" cy="6034.50" r="44.10" style="fill:#000000"/>
	<circle cx="9775.80" cy="6034.50" r="27.90" style="fill:none;stroke:#000000;stroke-width:32.40"/>
	<circle cx="9858.15" cy="6384.15" r="44.10" style="fill:#000000"/>
	<circle cx="9858.15" cy="6384.15" r="27.90" style="fill:none;stroke:#000000;stroke-width:32.40"/>
	<circle cx="9812.25" cy="6733.80" r="44.10" style="fill:#000000"/>
	<circle cx="9812.25" cy="6733.80" r="27.90" style="fill:none;stroke:#000000;stroke-width:32.40"/>
	<circle cx="9862.65" cy="7083.45" r="44.10" style="fill:#000000"/>
	<circle cx="9862.65" cy="7083.45" r="27.90" style="fill:none;stroke:#000000;stroke-width:32.40"/>
	<circle cx="10050.75" cy="7433.10" r="44.10" style="fill:#000000"/>
	<circle cx="10050.75" cy="7433.10" r="27.90" style="fill:none;stroke:#000000;stroke-width:32.40"/>
	<circle cx="10476.45" cy="7782.75" r="44.10" style="fill:#000000"/>
	<circle cx="10476.45" cy="7782.75" r="27.90" style="fill:none;stroke:#000000;stroke-width:32.40"/>
	<circle cx="9904.05" cy="8132.40" r="44.10" style="fill:#000000"/>
	<circle cx="9904.05" cy="8132.40" r="27.90" style="fill:none;stroke:#000000;stroke-width:32.40"/>
	<circle cx="10174.05" cy="8482.05" r="44.10" style="fill:#000000"/>
	<circle cx="10174.05" cy="8482.05" r="27.90" style="fill:none;stroke:#000000;stroke-width:32.40"/>
	<circle cx="9963.45" cy="8831.70" r="44.10" style="fill:#000000"/>
	<circle cx="9963.45" cy="8831.70" r="27.90" style="fill:none;stroke:#000000;stroke-width:32.40"/>
	<circle cx="10142.10" cy="9181.35" r="44.10" style="fill:#000000"/>
	<circle cx="10142.10" cy="9181.35" r="27.90" style="fill:none;stroke:#000000;stroke-width:32.40"/>
	<line x1="9895.05" y1="1139.85" x2="10275.30" y2="1139.85" style="stroke:#000000;stroke-width:16.20"/>
	<line x1="10275.30" y1="1222.20" x2="10275.30" y2="1057.05" stroke-linecap="round" style="stroke:#000000;stroke-width:16.20"/>
	<line x1="9895.05" y1="1222.20" x2="9895.05" y2="1057.05" stroke-linecap="round" style="stroke:#000000;stroke-width:16.20"/>
	<line x1="10183.50" y1="1489.50" x2="10912.05" y2="1489.50" style="stroke:#000000;stroke-width:16.20"/>
	<line x1="10912.05" y1="1571.85" x2="10912.05" y2="1406.70" stroke-linecap="round" style="stroke:#000000;stroke-width:16.20"/>
	<line x1="10183.50" y1="1571.85" x2="10183.50" y2="1406.70" stroke-linecap="round" style="stroke:#000000;stroke-width:16.20"/>
	<line x1="9780.30" y1="1839.15" x2="10059.75" y2="1839.15" style="stroke:#000000;stroke-width:16.20"/>
	<line x1="10059.75" y1="1921.50" x2="10059.75" y2="1756.35" stroke-linecap="round" style="stroke:#000000;stroke-width:16.20"/>
	<line x1="9780.30" y1="1921.50" x2="9780.30" y2="1756.35" stroke-linecap="round" style="stroke:#000000;stroke-width:16.20"/>
	<line x1="9958.95" y1="2188.80" x2="10472.40" y2="2188.80" style="stroke:#000000;stroke-width:16.20"/>
	<line x1="10472.40" y1="2271.15" x2="10472.40" y2="2106.00" stroke-linecap="round" style="stroke:#000000;stroke-width:16.20"/>
	<line x1="9958.95" y1="2271.15" x2="9958.95" y2="2106.00" stroke-linecap="round" style="stroke:#000000;stroke-width:16.20"/>
	<line x1="9821.70" y1="2538.45" x2="10137.60" y2="2538.45" style="stroke:#000000;stroke-width:16.20"/>
	<line x1="10137.60" y1="2620.80" x2="10137.60" y2="2455.65" stroke-linecap="round" style="stroke:#000000;stroke-width:16.20"/>
	<line x1="9821.70" y1="2620.80" x2="9821.70" y2="2455.65" stroke-linecap="round" style="stroke:#000000;stroke-width:16.20"/>
	<line x1="9936.00" y1="2888.10" x2="10431.00" y2="2888.10" style="stroke:#000000;stroke-width:16.20"/>
	<line x1="10431.00" y1="2970.45" x2="10431.00" y2="2805.30" stroke-linecap="round" style="stroke:#000000;stroke-width:16.20"/>
	<line x1="9936.00" y1="2970.45" x2="9936.00" y2="2805.30" stroke-linecap="round" style="stroke:#000000;stroke-width:16.20"/>
	<line x1="10000.35" y1="3237.75" x2="10921.05" y2="3237.75" style="stroke:#000000;stroke-width:16.20"/>
	<line x1="10921.05" y1="3320.10" x2="10921.05" y2="3154.95" stroke-linecap="round" style="stroke:#000000;stroke-width:16.20"/>
	<line x1="10000.35" y1="3320.10" x2="10000.35" y2="3154.95" stroke-linecap="round" style="stroke:#000000;stroke-width:16.20"/>
	<line x1="10422.00" y1="3587.40" x2="12258.90" y2="3587.40" style="stroke:#000000;stroke-width:16.20"/>
	<line x1="12258.90" y1="3669.75" x2="12258.90" y2="3504.60" stroke-linecap="round" style="stroke:#000000;stroke-width:16.20"/>
	<line x1="10422.00" y1="3669.75" x2="10422.00" y2="3504.60" stroke-linecap="round" style="stroke:#000000;stroke-width:16.20"/>
	<line x1="9858.15" y1="3937.05" x2="10550.25" y2="3937.05" style="stroke:#000000;stroke-width:16.20"/>
	<line x1="10550.25" y1="4019.40" x2="10550.25" y2="3854.25" stroke-linecap="round" style="stroke:#000000;stroke-width:16.20"/>
	<line x1="9858.15" y1="4019.40" x2="9858.15" y2="3854.25" stroke-linecap="round" style="stroke:#000000;stroke-width:16.20"/>
	<line x1="10142.55" y1="4286.25" x2="11457.00" y2="4286.25" style="stroke:#000000;stroke-width:16.20"/>
	<line x1="11457.00" y1="4368.60" x2="11457.00" y2="4203.45" stroke-linecap="round" style="stroke:#000000;stroke-width:16.20"/>
	<line x1="10142.55" y1="4368.60" x2="10142.55" y2="4203.45" stroke-linecap="round" style="stroke:#000000;stroke-width:16.20"/>
	<line x1="9899.55" y1="4635.90" x2="10660.05" y2="4635.90" style="stroke:#000000;stroke-width:16.20"/>
	<line x1="10660.05" y1="4718.25" x2="10660.05" y2="4553.10" stroke-linecap="round" style="stroke:#000000;stroke-width:16.20"/>
	<line x1="9899.55" y1="4718.25" x2="9899.55" y2="4553.10" stroke-linecap="round" style="stroke:#000000;stroke-width:16.20"/>
	<line x1="10110.15" y1="4985.55" x2="11374.65" y2="4985.55" style="stroke:#000000;stroke-width:16.20"/>
	<line x1="11374.65" y1="5067.90" x2="11374.65" y2="4902.75" stroke-linecap="round" style="stroke:#000000;stroke-width:16.20"/>
	<line x1="10110.15" y1="5067.90" x2="10110.15" y2="4902.75" stroke-linecap="round" style="stroke:#000000;stroke-width:16.20"/>
	<line x1="9817.20" y1="5335.20" x2="9968.40" y2="5335.20" style="stroke:#000000;stroke-width:16.20"/>
	<line x1="9968.40" y1="5417.55" x2="9968.40" y2="5252.40" stroke-linecap="round" style="stroke:#000000;stroke-width:16.20"/>
	<line x1="9817.20" y1="5417.55" x2="9817.20" y2="5252.40" stroke-linecap="round" style="stroke:#000000;stroke-width:16.20"/>
	<line x1="9922.50" y1="5684.85" x2="10170.00" y2="5684.85" style="stroke:#000000;stroke-width:16.20"/>
	<line x1="10170.00" y1="5767.20" x2="10170.00" y2="5602.05" stroke-linecap="round" style="stroke:#000000;stroke-width:16.20"/>
	<line x1="9922.50" y1="5767.20" x2="9922.50" y2="5602.05" stroke-linecap="round" style="stroke:#000000;stroke-width:16.20"/>
	<line x1="9720.90" y1="6034.50" x2="9835.65" y2="6034.50" style="stroke:#000000;stroke-width:16.20"/>
	<line x1="9835.65" y1="6116.85" x2="9835.65" y2="5951.70" stroke-linecap="round" style="stroke:#000000;stroke-width:16.20"/>
	<line x1="9720.90" y1="6116.85" x2="9720.90" y2="5951.70" stroke-linecap="round" style="stroke:#000000;stroke-width:16.20"/>
	<line x1="9780.30" y1="6384.15" x2="9954.45" y2="6384.15" style="stroke:#000000;stroke-width:16.20"/>
	<line x1="9954.45" y1="6466.50" x2="9954.45" y2="6301.35" stroke-linecap="round" style="stroke:#000000;stroke-width:16.20"/>
	<line x1="9780.30" y1="6466.50" x2="9780.30" y2="6301.35" stroke-linecap="round" style="stroke:#000000;stroke-width:16.20"/>
	<line x1="9752.85" y1="6733.80" x2="9881.10" y2="6733.80" style="stroke:#000000;stroke-width:16.20"/>
	<line x1="9881.10" y1="6816.15" x2="9881.10" y2="6651.00" stroke-linecap="round" style="stroke:#000000;stroke-width:16.20"/>
	<line x1="9752.85" y1="6816.15" x2="9752.85" y2="6651.00" stroke-linecap="round" style="stroke:#000000;stroke-width:16.20"/>
	<line x1="9780.30" y1="7083.45" x2="9958.95" y2="7083.45" style="stroke:#000000;stroke-width:16.20"/>
	<line x1="9958.95" y1="7165.80" x2="9958.95" y2="7000.65" stroke-linecap="round" style="stroke:#000000;stroke-width:16.20"/>
	<line x1="9780.30" y1="7165.80" x2="9780.30" y2="7000.65" stroke-linecap="round" style="stroke:#000000;stroke-width:16.20"/>
	<line x1="9908.55" y1="7433.10" x2="10238.40" y2="7433.10" style="stroke:#000000;stroke-width:16.20"/>
	<line x1="10238.40" y1="7515.45" x2="10238.40" y2="7350.30" stroke-linecap="round" style="stroke:#000000;stroke-width:16.20"/>
	<line x1="9908.55" y1="7515.45" x2="9908.55" y2="7350.30" stroke-linecap="round" style="stroke:#000000;stroke-width:16.20"/>
	<line x1="10197.45" y1="7782.30" x2="10857.15" y2="7782.30" style="stroke:#000000;stroke-width:16.20"/>
	<line x1="10857.15" y1="7864.65" x2="10857.15" y2="7699.50" stroke-linecap="round" style="stroke:#000000;stroke-width:16.20"/>
	<line x1="10197.45" y1="7864.65" x2="10197.45" y2="7699.50" stroke-linecap="round" style="stroke:#000000;stroke-width:16.20"/>
	<line x1="9794.25" y1="8131.95" x2="10046.25" y2="8131.95" style="stroke:#000000;stroke-width:16.20"/>
	<line x1="10046.25" y1="8214.30" x2="10046.25" y2="8049.15" stroke-linecap="round" style="stroke:#000000;stroke-width:16.20"/>
	<line x1="9794.25" y1="8214.30" x2="9794.25" y2="8049.15" stroke-linecap="round" style="stroke:#000000;stroke-width:16.20"/>
	<line x1="9977.40" y1="8481.60" x2="10444.95" y2="8481.60" style="stroke:#000000;stroke-width:16.20"/>
	<line x1="10444.95" y1="8563.95" x2="10444.95" y2="8398.80" stroke-linecap="round" style="stroke:#000000;stroke-width:16.20"/>
	<line x1="9977.40" y1="8563.95" x2="9977.40" y2="8398.80" stroke-linecap="round" style="stroke:#000000;stroke-width:16.20"/>
	<line x1="9840.15" y1="8831.25" x2="10124.10" y2="8831.25" style="stroke:#000000;stroke-width:16.20"/>
	<line x1="10124.10" y1="8913.60" x2="10124.10" y2="8748.45" stroke-linecap="round" style="stroke:#000000;stroke-width:16.20"/>
	<line x1="9840.15" y1="8913.60" x2="9840.15" y2="8748.45" stroke-linecap="round" style="stroke:#000000;stroke-width:16.20"/>
	<line x1="9949.95" y1="9180.90" x2="10403.55" y2="9180.90" style="stroke:#000000;stroke-width:16.20"/>
	<line x1="10403.55" y1="9263.25" x2="10403.55" y2="9098.10" stroke-linecap="round" style="stroke:#000000;stroke-width:16.20"/>
	<line x1="9949.95" y1="9263.25" x2="9949.95" y2="9098.10" stroke-linecap="round" style="stroke:#000000;stroke-width:16.20"/>
	<circle cx="10055.25" cy="1140.30" r="44.10" style="fill:#000000"/>
	<circle cx="10055.25" cy="1140.30" r="27.90" style="fill:none;stroke:#000000;stroke-width:32.40"/>
	<circle cx="10485.90" cy="1489.95" r="44.10" style="fill:#000000"/>
	<circle cx="10485.90" cy="1489.95" r="27.90" style="fill:none;stroke:#000000;stroke-width:32.40"/>
	<circle cx="9899.55" cy="1839.60" r="44.10" style="fill:#000000"/>
	<circle cx="9899.55" cy="1839.60" r="27.90" style="fill:none;stroke:#000000;stroke-width:32.40"/>
	<circle cx="10169.55" cy="2189.25" r="44.10" style="fill:#000000"/>
	<circle cx="10169.55" cy="2189.25" r="27.90" style="fill:none;stroke:#000000;stroke-width:32.40"/>
	<circle cx="9954.45" cy="2538.45" r="44.10" style="fill:#000000"/>
	<circle cx="9954.45" cy="2538.45" r="27.90" style="fill:none;stroke:#000000;stroke-width:32.40"/>
	<circle cx="10142.10" cy="2888.10" r="44.10" style="fill:#000000"/>
	<circle cx="10142.10" cy="2888.10" r="27.90" style="fill:none;stroke:#000000;stroke-width:32.40"/>
	<circle cx="10352.70" cy="3237.75" r="44.10" style="fill:#000000"/>
	<circle cx="10352.70" cy="3237.75" r="27.90" style="fill:none;stroke:#000000;stroke-width:32.40"/>
	<circle cx="11104.20" cy="3587.40" r="44.10" style="fill:#000000"/>
	<circle cx="11104.20" cy="3587.40" r="27.90" style="fill:none;stroke:#000000;stroke-width:32.40"/>
	<circle cx="10119.15" cy="3937.05" r="44.10" style="fill:#000000"/>
	<circle cx="10119.15" cy="3937.05" r="27.90" style="fill:none;stroke:#000000;stroke-width:32.40"/>
	<circle cx="10632.15" cy="4286.70" r="44.10" style="fill:#000000"/>
	<circle cx="10632.15" cy="4286.70" r="27.90" style="fill:none;stroke:#000000;stroke-width:32.40"/>
	<circle cx="10188.00" cy="4636.35" r="44.10" style="fill:#000000"/>
	<circle cx="10188.00" cy="4636.35" r="27.90" style="fill:none;stroke:#000000;stroke-width:32.40"/>
	<circle cx="10577.25" cy="4986.00" r="44.10" style="fill:#000000"/>
	<circle cx="10577.25" cy="4986.00" r="27.90" style="fill:none;stroke:#000000;stroke-width:32.40"/>
	<circle cx="9885.60" cy="5335.65" r="44.10" style="fill:#000000"/>
	<circle cx="9885.60" cy="5335.65" r="27.90" style="fill:none;stroke:#000000;stroke-width:32.40"/>
	<circle cx="10036.80" cy="5685.30" r="44.10" style="fill:#000000"/>
	<circle cx="10036.80" cy="5685.30" r="27.90" style="fill:none;stroke:#000000;stroke-width:32.40"/>
	<circle cx="9775.80" cy="6034.50" r="44.10" style="fill:#000000"/>
	<circle cx="9775.80" cy="6034.50" r="27.90" style="fill:none;stroke:#000000;stroke-width:32.40"/>
	<circle cx="9858.15" cy="6384.15" r="44.10" style="fill:#000000"/>
	<circle cx="9858.15" cy="6384.15" r="27.90" style="fill:none;stroke:#000000;stroke-width:32.40"/>
	<circle cx="9812.25" cy="6733.80" r="44.10" style="fill:#000000"/>
	<circle cx="9812.25" cy="6733.80" r="27.90" style="fill:none;stroke:#000000;stroke-width:32.40"/>
	<circle cx="9862.65" cy="7083.45" r="44.10" style="fill:#000000"/>
	<circle cx="9862.65" cy="7083.45" r="27.90" style="fill:none;stroke:#000000;stroke-width:32.40"/>
	<circle cx="10050.75" cy="7433.10" r="44.10" style="fill:#000000"/>
	<circle cx="10050.75" cy="7433.10" r="27.90" style="fill:none;stroke:#000000;stroke-width:32.40"/>
	<circle cx="10476.45" cy="7782.75" r="44.10" style="fill:#000000"/>
	<circle cx="10476.45" cy="7782.75" r="27.90" style="fill:none;stroke:#000000;stroke-width:32.40"/>
	<circle cx="9904.05" cy="8132.40" r="44.10" style="fill:#000000"/>
	<circle cx="9904.05" cy="8132.40" r="27.90" style="fill:none;stroke:#000000;stroke-width:32.40"/>
	<circle cx="10174.05" cy="8482.05" r="44.10" style="fill:#000000"/>
	<circle cx="10174.05" cy="8482.05" r="27.90" style="fill:none;stroke:#000000;stroke-width:32.40"/>
	<circle cx="9963.45" cy="8831.70" r="44.10" style="fill:#000000"/>
	<circle cx="9963.45" cy="8831.70" r="27.90" style="fill:none;stroke:#000000;stroke-width:32.40"/>
	<circle cx="10142.10" cy="9181.35" r="44.10" style="fill:#000000"/>
	<circle cx="10142.10" cy="9181.35" r="27.90" style="fill:none;stroke:#000000;stroke-width:32.40"/>
	<line x1="9895.05" y1="1139.85" x2="10275.30" y2="1139.85" style="stroke:#000000;stroke-width:16.20"/>
	<line x1="10275.30" y1="1222.20" x2="10275.30" y2="1057.05" stroke-linecap="round" style="stroke:#000000;stroke-width:16.20"/>
	<line x1="9895.05" y1="1222.20" x2="9895.05" y2="1057.05" stroke-linecap="round" style="stroke:#000000;stroke-width:16.20"/>
	<line x1="10183.50" y1="1489.50" x2="10912.05" y2="1489.50" style="stroke:#000000;stroke-width:16.20"/>
	<line x1="10912.05" y1="1571.85" x2="10912.05" y2="1406.70" stroke-linecap="round" style="stroke:#000000;stroke-width:16.20"/>
	<line x1="10183.50" y1="1571.85" x2="10183.50" y2="1406.70" stroke-linecap="round" style="stroke:#000000;stroke-width:16.20"/>
	<line x1="9780.30" y1="1839.15" x2="10059.75" y2="1839.15" style="stroke:#000000;stroke-width:16.20"/>
	<line x1="10059.75" y1="1921.50" x2="10059.75" y2="1756.35" stroke-linecap="round" style="stroke:#000000;stroke-width:16.20"/>
	<line x1="9780.30" y1="1921.50" x2="9780.30" y2="1756.35" stroke-linecap="round" style="stroke:#000000;stroke-width:16.20"/>
	<line x1="9958.95" y1="2188.80" x2="10472.40" y2="2188.80" style="stroke:#000000;stroke-width:16.20"/>
	<line x1="10472.40" y1="2271.15" x2="10472.40" y2="2106.00" stroke-linecap="round" style="stroke:#000000;stroke-width:16.20"/>
	<line x1="9958.95" y1="2271.15" x2="9958.95" y2="2106.00" stroke-linecap="round" style="stroke:#000000;stroke-width:16.20"/>
	<line x1="9821.70" y1="2538.45" x2="10137.60" y2="2538.45" style="stroke:#000000;stroke-width:16.20"/>
	<line x1="10137.60" y1="2620.80" x2="10137.60" y2="2455.65" stroke-linecap="round" style="stroke:#000000;stroke-width:16.20"/>
	<line x1="9821.70" y1="2620.80" x2="9821.70" y2="2455.65" stroke-linecap="round" style="stroke:#000000;stroke-width:16.20"/>
	<line x1="9936.00" y1="2888.10" x2="10431.00" y2="2888.10" style="stroke:#000000;stroke-width:16.20"/>
	<line x1="10431.00" y1="2970.45" x2="10431.00" y2="2805.30" stroke-linecap="round" style="stroke:#000000;stroke-width:16.20"/>
	<line x1="9936.00" y1="2970.45" x2="9936.00" y2="2805.30" stroke-linecap="round" style="stroke:#000000;stroke-width:16.20"/>
	<line x1="10000.35" y1="3237.75" x2="10921.05" y2="3237.75" style="stroke:#000000;stroke-width:16.20"/>
	<line x1="10921.05" y1="3320.10" x2="10921.05" y2="3154.95" stroke-linecap="round" style="stroke:#000000;stroke-width:16.20"/>
	<line x1="10000.35" y1="3320.10" x2="10000.35" y2="3154.95" stroke-linecap="round" style="stroke:#000000;stroke-width:16.20"/>
	<line x1="10422.00" y1="3587.40" x2="12258.90" y2="3587.40" style="stroke:#000000;stroke-width:16.20"/>
	<line x1="12258.90" y1="3669.75" x2="12258.90" y2="3504.60" stroke-linecap="round" style="stroke:#000000;stroke-width:16.20"/>
	<line x1="10422.00" y1="3669.75" x2="10422.00" y2="3504.60" stroke-linecap="round" style="stroke:#000000;stroke-width:16.20"/>
	<line x1="9858.15" y1="3937.05" x2="10550.25" y2="3937.05" style="stroke:#000000;stroke-width:16.20"/>
	<line x1="10550.25" y1="4019.40" x2="10550.25" y2="3854.25" stroke-linecap="round" style="stroke:#000000;stroke-width:16.20"/>
	<line x1="9858.15" y1="4019.40" x2="9858.15" y2="3854.25" stroke-linecap="round" style="stroke:#000000;stroke-width:16.20"/>
	<line x1="10142.55" y1="4286.25" x2="11457.00" y2="4286.25" style="stroke:#000000;stroke-width:16.20"/>
	<line x1="11457.00" y1="4368.60" x2="11457.00" y2="4203.45" stroke-linecap="round" style="stroke:#000000;stroke-width:16.20"/>
	<line x1="10142.55" y1="4368.60" x2="10142.55" y2="4203.45" stroke-linecap="round" style="stroke:#000000;stroke-width:16.20"/>
	<line x1="9899.55" y1="4635.90" x2="10660.05" y2="4635.90" style="stroke:#000000;stroke-width:16.20"/>
	<line x1="10660.05" y1="4718.25" x2="10660.05" y2="4553.10" stroke-linecap="round" style="stroke:#000000;stroke-width:16.20"/>
	<line x1="9899.55" y1="4718.25" x2="9899.55" y2="4553.10" stroke-linecap="round" style="stroke:#000000;stroke-width:16.20"/>
	<line x1="10110.15" y1="4985.55" x2="11374.65" y2="4985.55" style="stroke:#000000;stroke-width:16.20"/>
	<line x1="11374.65" y1="5067.90" x2="11374.65" y2="4902.75" stroke-linecap="round" style="stroke:#000000;stroke-width:16.20"/>
	<line x1="10110.15" y1="5067.90" x2="10110.15" y2="4902.75" stroke-linecap="round" style="stroke:#000000;stroke-width:16.20"/>
	<line x1="9817.20" y1="5335.20" x2="9968.40" y2="5335.20" style="stroke:#000000;stroke-width:16.20"/>
	<line x1="9968.40" y1="5417.55" x2="9968.40" y2="5252.40" stroke-linecap="round" style="stroke:#000000;stroke-width:16.20"/>
	<line x1="9817.20" y1="5417.55" x2="9817.20" y2="5252.40" stroke-linecap="round" style="stroke:#000000;stroke-width:16.20"/>
	<line x1="9922.50" y1="5684.85" x2="10170.00" y2="5684.85" style="stroke:#000000;stroke-width:16.20"/>
	<line x1="10170.00" y1="5767.20" x2="10170.00" y2="5602.05" stroke-linecap="round" style="stroke:#000000;stroke-width:16.20"/>
	<line x1="9922.50" y1="5767.20" x2="9922.50" y2="5602.05" stroke-linecap="round" style="stroke:#000000;stroke-width:16.20"/>
	<line x1="9720.90" y1="6034.50" x2="9835.65" y2="6034.50" style="stroke:#000000;stroke-width:16.20"/>
	<line x1="9835.65" y1="6116.85" x2="9835.65" y2="5951.70" stroke-linecap="round" style="stroke:#000000;stroke-width:16.20"/>
	<line x1="9720.90" y1="6116.85" x2="9720.90" y2="5951.70" stroke-linecap="round" style="stroke:#000000;stroke-width:16.20"/>
	<line x1="9780.30" y1="6384.15" x2="9954.45" y2="6384.15" style="stroke:#000000;stroke-width:16.20"/>
	<line x1="9954.45" y1="6466.50" x2="9954.45" y2="6301.35" stroke-linecap="round" style="stroke:#000000;stroke-width:16.20"/>
	<line x1="9780.30" y1="6466.50" x2="9780.30" y2="6301.35" stroke-linecap="round" style="stroke:#000000;stroke-width:16.20"/>
	<line x1="9752.85" y1="6733.80" x2="9881.10" y2="6733.80" style="stroke:#000000;stroke-width:16.20"/>
	<line x1="9881.10" y1="6816.15" x2="9881.10" y2="6651.00" stroke-linecap="round" style="stroke:#000000;stroke-width:16.20"/>
	<line x1="9752.85" y1="6816.15" x2="9752.85" y2="6651.00" stroke-linecap="round" style="stroke:#000000;stroke-width:16.20"/>
	<line x1="9780.30" y1="7083.45" x2="9958.95" y2="7083.45" style="stroke:#000000;stroke-width:16.20"/>
	<line x1="9958.95" y1="7165.80" x2="9958.95" y2="7000.65" stroke-linecap="round" style="stroke:#000000;stroke-width:16.20"/>
	<line x1="9780.30" y1="7165.80" x2="9780.30" y2="7000.65" stroke-linecap="round" style="stroke:#000000;stroke-width:16.20"/>
	<line x1="9908.55" y1="7433.10" x2="10238.40" y2="7433.10" style="stroke:#000000;stroke-width:16.20"/>
	<line x1="10238.40" y1="7515.45" x2="10238.40" y2="7350.30" stroke-linecap="round" style="stroke:#000000;stroke-width:16.20"/>
	<line x1="9908.55" y1="7515.45" x2="9908.55" y2="7350.30" stroke-linecap="round" style="stroke:#000000;stroke-width:16.20"/>
	<line x1="10197.45" y1="7782.30" x2="10857.15" y2="7782.30" style="stroke:#000000;stroke-width:16.20"/>
	<line x1="10857.15" y1="7864.65" x2="10857.15" y2="7699.50" stroke-linecap="round" style="stroke:#000000;stroke-width:16.20"/>
	<line x1="10197.45" y1="7864.65" x2="10197.45" y2="7699.50" stroke-linecap="round" style="stroke:#000000;stroke-width:16.20"/>
	<line x1="9794.25" y1="8131.95" x2="10046.25" y2="8131.95" style="stroke:#000000;stroke-width:16.20"/>
	<line x1="10046.25" y1="8214.30" x2="10046.25" y2="8049.15" stroke-linecap="round" style="stroke:#000000;stroke-width:16.20"/>
	<line x1="9794.25" y1="8214.30" x2="9794.25" y2="8049.15" stroke-linecap="round" style="stroke:#000000;stroke-width:16.20"/>
	<line x1="9977.40" y1="8481.60" x2="10444.95" y2="8481.60" style="stroke:#000000;stroke-width:16.20"/>
	<line x1="10444.95" y1="8563.95" x2="10444.95" y2="8398.80" stroke-linecap="round" style="stroke:#000000;stroke-width:16.20"/>
	<line x1="9977.40" y1="8563.95" x2="9977.40" y2="8398.80" stroke-linecap="round" style="stroke:#000000;stroke-width:16.20"/>
	<line x1="9840.15" y1="8831.25" x2="10124.10" y2="8831.25" style="stroke:#000000;stroke-width:16.20"/>
	<line x1="10124.10" y1="8913.60" x2="10124.10" y2="8748.45" stroke-linecap="round" style="stroke:#000000;stroke-width:16.20"/>
	<line x1="9840.15" y1="8913.60" x2="9840.15" y2="8748.45" stroke-linecap="round" style="stroke:#000000;stroke-width:16.20"/>
	<line x1="9949.95" y1="9180.90" x2="10403.55" y2="9180.90" style="stroke:#000000;stroke-width:16.20"/>
	<line x1="10403.55" y1="9263.25" x2="10403.55" y2="9098.10" stroke-linecap="round" style="stroke:#000000;stroke-width:16.20"/>
	<line x1="9949.95" y1="9263.25" x2="9949.95" y2="9098.10" stroke-linecap="round" style="stroke:#000000;stroke-width:16.20"/>
	<text x="885.60" y="1218.71" style="font-family:'Helvetica';font-weight:bold;font-size:225.00px;fill:#000000">COVID-19 Death in ONS - Asthma</text>
	<text x="885.60" y="1568.36" style="font-family:'Helvetica';font-size:225.00px;fill:#000000"></text>
	<text x="885.60" y="1918.01" style="font-family:'Helvetica';font-size:225.00px;fill:#000000"></text>
	<text x="885.60" y="2267.66" style="font-family:'Helvetica';font-size:225.00px;fill:#000000"></text>
	<text x="885.60" y="2617.31" style="font-family:'Helvetica';font-size:225.00px;fill:#000000"></text>
	<text x="885.60" y="2966.96" style="font-family:'Helvetica';font-size:225.00px;fill:#000000"></text>
	<text x="885.60" y="3316.61" style="font-family:'Helvetica';font-weight:bold;font-size:225.00px;fill:#000000">COVID-19 Death in ONS - Asthma - ethnicity</text>
	<text x="885.60" y="3666.26" style="font-family:'Helvetica';font-size:225.00px;fill:#000000"></text>
	<text x="885.60" y="4015.91" style="font-family:'Helvetica';font-size:225.00px;fill:#000000"></text>
	<text x="885.60" y="4365.11" style="font-family:'Helvetica';font-size:225.00px;fill:#000000"></text>
	<text x="885.60" y="4714.76" style="font-family:'Helvetica';font-size:225.00px;fill:#000000"></text>
	<text x="885.60" y="5064.41" style="font-family:'Helvetica';font-size:225.00px;fill:#000000"></text>
	<text x="885.60" y="5414.06" style="font-family:'Helvetica';font-weight:bold;font-size:225.00px;fill:#000000">Non-COVID Death in ONS - Asthma</text>
	<text x="885.60" y="5763.71" style="font-family:'Helvetica';font-size:225.00px;fill:#000000"></text>
	<text x="885.60" y="6113.36" style="font-family:'Helvetica';font-size:225.00px;fill:#000000"></text>
	<text x="885.60" y="6463.01" style="font-family:'Helvetica';font-size:225.00px;fill:#000000"></text>
	<text x="885.60" y="6812.66" style="font-family:'Helvetica';font-size:225.00px;fill:#000000"></text>
	<text x="885.60" y="7162.31" style="font-family:'Helvetica';font-size:225.00px;fill:#000000"></text>
	<text x="885.60" y="7511.96" style="font-family:'Helvetica';font-weight:bold;font-size:225.00px;fill:#000000">COVID-19 Death in ONS - Asthma - Ever</text>
	<text x="885.60" y="7861.16" style="font-family:'Helvetica';font-size:225.00px;fill:#000000"></text>
	<text x="885.60" y="8210.81" style="font-family:'Helvetica';font-size:225.00px;fill:#000000"></text>
	<text x="885.60" y="8560.46" style="font-family:'Helvetica';font-size:225.00px;fill:#000000"></text>
	<text x="885.60" y="8910.11" style="font-family:'Helvetica';font-size:225.00px;fill:#000000"></text>
	<text x="885.60" y="9259.76" style="font-family:'Helvetica';font-size:225.00px;fill:#000000"></text>
	<text x="885.60" y="720.61" style="font-family:'Helvetica';font-size:299.70px;fill:#000000"></text>
	<text x="5237.55" y="1218.71" style="font-family:'Helvetica';font-size:225.00px;fill:#000000">Univariable</text>
	<text x="5237.55" y="1568.36" style="font-family:'Helvetica';font-size:225.00px;fill:#000000">Univariable</text>
	<text x="5237.55" y="1918.01" style="font-family:'Helvetica';font-size:225.00px;fill:#000000">Age/Sex adjusted</text>
	<text x="5237.55" y="2267.66" style="font-family:'Helvetica';font-size:225.00px;fill:#000000">Age/Sex adjusted</text>
	<text x="5237.55" y="2617.31" style="font-family:'Helvetica';font-size:225.00px;fill:#000000">Fully adjusted</text>
	<text x="5237.55" y="2966.96" style="font-family:'Helvetica';font-size:225.00px;fill:#000000">Fully adjusted</text>
	<text x="5237.55" y="3316.61" style="font-family:'Helvetica';font-size:225.00px;fill:#000000">Univariable</text>
	<text x="5237.55" y="3666.26" style="font-family:'Helvetica';font-size:225.00px;fill:#000000">Univariable</text>
	<text x="5237.55" y="4015.91" style="font-family:'Helvetica';font-size:225.00px;fill:#000000">Age/Sex adjusted</text>
	<text x="5237.55" y="4365.11" style="font-family:'Helvetica';font-size:225.00px;fill:#000000">Age/Sex adjusted</text>
	<text x="5237.55" y="4714.76" style="font-family:'Helvetica';font-size:225.00px;fill:#000000">Fully adjusted</text>
	<text x="5237.55" y="5064.41" style="font-family:'Helvetica';font-size:225.00px;fill:#000000">Fully adjusted</text>
	<text x="5237.55" y="5414.06" style="font-family:'Helvetica';font-size:225.00px;fill:#000000">Univariable</text>
	<text x="5237.55" y="5763.71" style="font-family:'Helvetica';font-size:225.00px;fill:#000000">Univariable</text>
	<text x="5237.55" y="6113.36" style="font-family:'Helvetica';font-size:225.00px;fill:#000000">Age/Sex adjusted</text>
	<text x="5237.55" y="6463.01" style="font-family:'Helvetica';font-size:225.00px;fill:#000000">Age/Sex adjusted</text>
	<text x="5237.55" y="6812.66" style="font-family:'Helvetica';font-size:225.00px;fill:#000000">Fully adjusted</text>
	<text x="5237.55" y="7162.31" style="font-family:'Helvetica';font-size:225.00px;fill:#000000">Fully adjusted</text>
	<text x="5237.55" y="7511.96" style="font-family:'Helvetica';font-size:225.00px;fill:#000000">Univariable</text>
	<text x="5237.55" y="7861.16" style="font-family:'Helvetica';font-size:225.00px;fill:#000000">Univariable</text>
	<text x="5237.55" y="8210.81" style="font-family:'Helvetica';font-size:225.00px;fill:#000000">Age/Sex adjusted</text>
	<text x="5237.55" y="8560.46" style="font-family:'Helvetica';font-size:225.00px;fill:#000000">Age/Sex adjusted</text>
	<text x="5237.55" y="8910.11" style="font-family:'Helvetica';font-size:225.00px;fill:#000000">Fully adjusted</text>
	<text x="5237.55" y="9259.76" style="font-family:'Helvetica';font-size:225.00px;fill:#000000">Fully adjusted</text>
	<text x="5237.55" y="720.61" style="font-family:'Helvetica';font-weight:bold;font-size:299.70px;fill:#000000">Analysis</text>
	<text x="7069.95" y="1218.71" style="font-family:'Helvetica';font-size:225.00px;fill:#000000">ICS (Low/Medium Dose)</text>
	<text x="7069.95" y="1568.36" style="font-family:'Helvetica';font-size:225.00px;fill:#000000">ICS (High Dose)</text>
	<text x="7069.95" y="1918.01" style="font-family:'Helvetica';font-size:225.00px;fill:#000000">ICS (Low/Medium Dose)</text>
	<text x="7069.95" y="2267.66" style="font-family:'Helvetica';font-size:225.00px;fill:#000000">ICS (High Dose)</text>
	<text x="7069.95" y="2617.31" style="font-family:'Helvetica';font-size:225.00px;fill:#000000">ICS (Low/Medium Dose)</text>
	<text x="7069.95" y="2966.96" style="font-family:'Helvetica';font-size:225.00px;fill:#000000">ICS (High Dose)</text>
	<text x="7069.95" y="3316.61" style="font-family:'Helvetica';font-size:225.00px;fill:#000000">ICS (Low/Medium Dose)</text>
	<text x="7069.95" y="3666.26" style="font-family:'Helvetica';font-size:225.00px;fill:#000000">ICS (High Dose)</text>
	<text x="7069.95" y="4015.91" style="font-family:'Helvetica';font-size:225.00px;fill:#000000">ICS (Low/Medium Dose)</text>
	<text x="7069.95" y="4365.11" style="font-family:'Helvetica';font-size:225.00px;fill:#000000">ICS (High Dose)</text>
	<text x="7069.95" y="4714.76" style="font-family:'Helvetica';font-size:225.00px;fill:#000000">ICS (Low/Medium Dose)</text>
	<text x="7069.95" y="5064.41" style="font-family:'Helvetica';font-size:225.00px;fill:#000000">ICS (High Dose)</text>
	<text x="7069.95" y="5414.06" style="font-family:'Helvetica';font-size:225.00px;fill:#000000">ICS (Low/Medium Dose)</text>
	<text x="7069.95" y="5763.71" style="font-family:'Helvetica';font-size:225.00px;fill:#000000">ICS (High Dose)</text>
	<text x="7069.95" y="6113.36" style="font-family:'Helvetica';font-size:225.00px;fill:#000000">ICS (Low/Medium Dose)</text>
	<text x="7069.95" y="6463.01" style="font-family:'Helvetica';font-size:225.00px;fill:#000000">ICS (High Dose)</text>
	<text x="7069.95" y="6812.66" style="font-family:'Helvetica';font-size:225.00px;fill:#000000">ICS (Low/Medium Dose)</text>
	<text x="7069.95" y="7162.31" style="font-family:'Helvetica';font-size:225.00px;fill:#000000">ICS (High Dose)</text>
	<text x="7069.95" y="7511.96" style="font-family:'Helvetica';font-size:225.00px;fill:#000000">ICS (Low/Medium Dose)</text>
	<text x="7069.95" y="7861.16" style="font-family:'Helvetica';font-size:225.00px;fill:#000000">ICS (High Dose)</text>
	<text x="7069.95" y="8210.81" style="font-family:'Helvetica';font-size:225.00px;fill:#000000">ICS (Low/Medium Dose)</text>
	<text x="7069.95" y="8560.46" style="font-family:'Helvetica';font-size:225.00px;fill:#000000">ICS (High Dose)</text>
	<text x="7069.95" y="8910.11" style="font-family:'Helvetica';font-size:225.00px;fill:#000000">ICS (Low/Medium Dose)</text>
	<text x="7069.95" y="9259.76" style="font-family:'Helvetica';font-size:225.00px;fill:#000000">ICS (High Dose)</text>
	<text x="7069.95" y="720.61" style="font-family:'Helvetica';font-weight:bold;font-size:299.70px;fill:#000000">Exposure</text>
	<text x="13188.60" y="1219.16" style="font-family:'Helvetica';font-size:225.00px;fill:#000000" text-anchor="middle">1.36 (1.01-1.84)</text>
	<text x="13188.60" y="1568.81" style="font-family:'Helvetica';font-size:225.00px;fill:#000000" text-anchor="middle">2.30 (1.64-3.23)</text>
	<text x="13188.60" y="1918.46" style="font-family:'Helvetica';font-size:225.00px;fill:#000000" text-anchor="middle">1.02 (0.76-1.37)</text>
	<text x="13188.60" y="2268.11" style="font-family:'Helvetica';font-size:225.00px;fill:#000000" text-anchor="middle">1.61 (1.15-2.27)</text>
	<text x="13188.60" y="2617.31" style="font-family:'Helvetica';font-size:225.00px;fill:#000000" text-anchor="middle">1.14 (0.85-1.54)</text>
	<text x="13188.60" y="2966.96" style="font-family:'Helvetica';font-size:225.00px;fill:#000000" text-anchor="middle">1.55 (1.10-2.18)</text>
	<text x="13188.60" y="3316.61" style="font-family:'Helvetica';font-size:225.00px;fill:#000000" text-anchor="middle">2.01 (1.24-3.25)</text>
	<text x="13188.60" y="3666.26" style="font-family:'Helvetica';font-size:225.00px;fill:#000000" text-anchor="middle">3.65 (2.16-6.17)</text>
	<text x="13188.60" y="4015.91" style="font-family:'Helvetica';font-size:225.00px;fill:#000000" text-anchor="middle">1.50 (0.93-2.44)</text>
	<text x="13188.60" y="4365.56" style="font-family:'Helvetica';font-size:225.00px;fill:#000000" text-anchor="middle">2.62 (1.55-4.42)</text>
	<text x="13188.60" y="4715.21" style="font-family:'Helvetica';font-size:225.00px;fill:#000000" text-anchor="middle">1.65 (1.02-2.68)</text>
	<text x="13188.60" y="5064.86" style="font-family:'Helvetica';font-size:225.00px;fill:#000000" text-anchor="middle">2.50 (1.48-4.24)</text>
	<text x="13188.60" y="5414.51" style="font-family:'Helvetica';font-size:225.00px;fill:#000000" text-anchor="middle">0.99 (0.84-1.17)</text>
	<text x="13188.60" y="5764.16" style="font-family:'Helvetica';font-size:225.00px;fill:#000000" text-anchor="middle">1.32 (1.07-1.61)</text>
	<text x="13188.60" y="6113.36" style="font-family:'Helvetica';font-size:225.00px;fill:#000000" text-anchor="middle">0.75 (0.63-0.88)</text>
	<text x="13188.60" y="6463.01" style="font-family:'Helvetica';font-size:225.00px;fill:#000000" text-anchor="middle">0.93 (0.76-1.14)</text>
	<text x="13188.60" y="6812.66" style="font-family:'Helvetica';font-size:225.00px;fill:#000000" text-anchor="middle">0.83 (0.70-0.98)</text>
	<text x="13188.60" y="7162.31" style="font-family:'Helvetica';font-size:225.00px;fill:#000000" text-anchor="middle">0.94 (0.76-1.15)</text>
	<text x="13188.60" y="7511.96" style="font-family:'Helvetica';font-size:225.00px;fill:#000000" text-anchor="middle">1.35 (1.04-1.76)</text>
	<text x="13188.60" y="7861.61" style="font-family:'Helvetica';font-size:225.00px;fill:#000000" text-anchor="middle">2.28 (1.67-3.11)</text>
	<text x="13188.60" y="8211.26" style="font-family:'Helvetica';font-size:225.00px;fill:#000000" text-anchor="middle">1.03 (0.79-1.34)</text>
	<text x="13188.60" y="8560.91" style="font-family:'Helvetica';font-size:225.00px;fill:#000000" text-anchor="middle">1.62 (1.19-2.21)</text>
	<text x="13188.60" y="8910.56" style="font-family:'Helvetica';font-size:225.00px;fill:#000000" text-anchor="middle">1.16 (0.89-1.51)</text>
	<text x="13188.60" y="9260.21" style="font-family:'Helvetica';font-size:225.00px;fill:#000000" text-anchor="middle">1.55 (1.13-2.12)</text>
	<text x="13188.60" y="720.61" style="font-family:'Helvetica';font-weight:bold;font-size:299.70px;fill:#000000" text-anchor="middle">HR (95% CI)</text>
	<line x1="490.50" y1="9418.50" x2="490.50" y2="378.00" style="stroke:#FFFFFF;stroke-width:21.60"/>
	<line x1="490.50" y1="9418.50" x2="14022.00" y2="9418.50" style="stroke:#000000;stroke-width:21.60"/>
	<line x1="9432.45" y1="9418.50" x2="9432.45" y2="9568.35" style="stroke:#000000;stroke-width:21.60"/>
	<text x="9432.45" y="9800.77" style="font-family:'Helvetica';font-size:225.00px;fill:#000000" text-anchor="middle">0</text>
	<line x1="9890.55" y1="9418.50" x2="9890.55" y2="9568.35" style="stroke:#000000;stroke-width:21.60"/>
	<text x="9890.55" y="9800.77" style="font-family:'Helvetica';font-size:225.00px;fill:#000000" text-anchor="middle">1</text>
	<line x1="10348.65" y1="9418.50" x2="10348.65" y2="9568.35" style="stroke:#000000;stroke-width:21.60"/>
	<text x="10348.65" y="9800.77" style="font-family:'Helvetica';font-size:225.00px;fill:#000000" text-anchor="middle">2</text>
	<line x1="10806.75" y1="9418.50" x2="10806.75" y2="9568.35" style="stroke:#000000;stroke-width:21.60"/>
	<text x="10806.75" y="9800.77" style="font-family:'Helvetica';font-size:225.00px;fill:#000000" text-anchor="middle">3</text>
	<line x1="11264.85" y1="9418.50" x2="11264.85" y2="9568.35" style="stroke:#000000;stroke-width:21.60"/>
	<text x="11264.85" y="9800.77" style="font-family:'Helvetica';font-size:225.00px;fill:#000000" text-anchor="middle">4</text>
	<line x1="11722.95" y1="9418.50" x2="11722.95" y2="9568.35" style="stroke:#000000;stroke-width:21.60"/>
	<text x="11722.95" y="9800.77" style="font-family:'Helvetica';font-size:225.00px;fill:#000000" text-anchor="middle">5</text>
	<line x1="12181.05" y1="9418.50" x2="12181.05" y2="9568.35" style="stroke:#000000;stroke-width:21.60"/>
	<text x="12181.05" y="9800.77" style="font-family:'Helvetica';font-size:225.00px;fill:#000000" text-anchor="middle">6</text>
	<text x="9416.25" y="10279.13" style="font-family:'Helvetica';font-size:225.00px;fill:#000000" text-anchor="middle">Hazard ratio (HR)</text>
</svg>
