<?xml version="1.0" encoding="UTF-8" standalone="no"?>
<!-- This is a Stata 16.1 generated SVG file (http://www.stata.com) -->

<svg version="1.1" width="20.00in" height="15.00in" viewBox="0 0 14400 10800" xmlns="http://www.w3.org/2000/svg" xmlns:xlink="http://www.w3.org/1999/xlink">
	<desc>Stata Graph - Graph</desc>
	<rect x="0" y="0" width="14400" height="10800" style="fill:#EAF2F3;stroke:none"/>
	<rect x="0.00" y="0.00" width="14400.00" height="10800.00" style="fill:#FFFFFF"/>
	<rect x="10.80" y="10.80" width="14378.40" height="10778.40" style="fill:none;stroke:#FFFFFF;stroke-width:21.60"/>
	<rect x="490.50" y="378.00" width="13531.50" height="9040.50" style="fill:#FFFFFF"/>
	<rect x="501.30" y="388.80" width="13509.90" height="9018.90" style="fill:none;stroke:#FFFFFF;stroke-width:21.60"/>
	<line x1="10269.45" y1="9418.50" x2="10269.45" y2="378.00" style="stroke:#000000;stroke-width:16.20"/>
	<line x1="10269.45" y1="9418.50" x2="10269.45" y2="378.00" style="stroke:#000000;stroke-width:16.20"/>
	<circle cx="10449.90" cy="1140.30" r="44.10" style="fill:#000000"/>
	<circle cx="10449.90" cy="1140.30" r="27.90" style="fill:none;stroke:#000000;stroke-width:32.40"/>
	<circle cx="10921.95" cy="1489.95" r="44.10" style="fill:#000000"/>
	<circle cx="10921.95" cy="1489.95" r="27.90" style="fill:none;stroke:#000000;stroke-width:32.40"/>
	<circle cx="10278.90" cy="1839.60" r="44.10" style="fill:#000000"/>
	<circle cx="10278.90" cy="1839.60" r="27.90" style="fill:none;stroke:#000000;stroke-width:32.40"/>
	<circle cx="10575.45" cy="2189.25" r="44.10" style="fill:#000000"/>
	<circle cx="10575.45" cy="2189.25" r="27.90" style="fill:none;stroke:#000000;stroke-width:32.40"/>
	<circle cx="10339.20" cy="2538.45" r="44.10" style="fill:#000000"/>
	<circle cx="10339.20" cy="2538.45" r="27.90" style="fill:none;stroke:#000000;stroke-width:32.40"/>
	<circle cx="10545.30" cy="2888.10" r="44.10" style="fill:#000000"/>
	<circle cx="10545.30" cy="2888.10" r="27.90" style="fill:none;stroke:#000000;stroke-width:32.40"/>
	<circle cx="10776.15" cy="3237.75" r="44.10" style="fill:#000000"/>
	<circle cx="10776.15" cy="3237.75" r="27.90" style="fill:none;stroke:#000000;stroke-width:32.40"/>
	<circle cx="11599.65" cy="3587.40" r="44.10" style="fill:#000000"/>
	<circle cx="11599.65" cy="3587.40" r="27.90" style="fill:none;stroke:#000000;stroke-width:32.40"/>
	<circle cx="10520.10" cy="3937.05" r="44.10" style="fill:#000000"/>
	<circle cx="10520.10" cy="3937.05" r="27.90" style="fill:none;stroke:#000000;stroke-width:32.40"/>
	<circle cx="11082.60" cy="4286.70" r="44.10" style="fill:#000000"/>
	<circle cx="11082.60" cy="4286.70" r="27.90" style="fill:none;stroke:#000000;stroke-width:32.40"/>
	<circle cx="10595.25" cy="4636.35" r="44.10" style="fill:#000000"/>
	<circle cx="10595.25" cy="4636.35" r="27.90" style="fill:none;stroke:#000000;stroke-width:32.40"/>
	<circle cx="11022.30" cy="4986.00" r="44.10" style="fill:#000000"/>
	<circle cx="11022.30" cy="4986.00" r="27.90" style="fill:none;stroke:#000000;stroke-width:32.40"/>
	<circle cx="10264.05" cy="5335.65" r="44.10" style="fill:#000000"/>
	<circle cx="10264.05" cy="5335.65" r="27.90" style="fill:none;stroke:#000000;stroke-width:32.40"/>
	<circle cx="10429.65" cy="5685.30" r="44.10" style="fill:#000000"/>
	<circle cx="10429.65" cy="5685.30" r="27.90" style="fill:none;stroke:#000000;stroke-width:32.40"/>
	<circle cx="10143.45" cy="6034.50" r="44.10" style="fill:#000000"/>
	<circle cx="10143.45" cy="6034.50" r="27.90" style="fill:none;stroke:#000000;stroke-width:32.40"/>
	<circle cx="10233.90" cy="6384.15" r="44.10" style="fill:#000000"/>
	<circle cx="10233.90" cy="6384.15" r="27.90" style="fill:none;stroke:#000000;stroke-width:32.40"/>
	<circle cx="10183.50" cy="6733.80" r="44.10" style="fill:#000000"/>
	<circle cx="10183.50" cy="6733.80" r="27.90" style="fill:none;stroke:#000000;stroke-width:32.40"/>
	<circle cx="10238.85" cy="7083.45" r="44.10" style="fill:#000000"/>
	<circle cx="10238.85" cy="7083.45" r="27.90" style="fill:none;stroke:#000000;stroke-width:32.40"/>
	<circle cx="10444.95" cy="7433.10" r="44.10" style="fill:#000000"/>
	<circle cx="10444.95" cy="7433.10" r="27.90" style="fill:none;stroke:#000000;stroke-width:32.40"/>
	<circle cx="10911.60" cy="7782.75" r="44.10" style="fill:#000000"/>
	<circle cx="10911.60" cy="7782.75" r="27.90" style="fill:none;stroke:#000000;stroke-width:32.40"/>
	<circle cx="10284.30" cy="8132.40" r="44.10" style="fill:#000000"/>
	<circle cx="10284.30" cy="8132.40" r="27.90" style="fill:none;stroke:#000000;stroke-width:32.40"/>
	<circle cx="10580.40" cy="8482.05" r="44.10" style="fill:#000000"/>
	<circle cx="10580.40" cy="8482.05" r="27.90" style="fill:none;stroke:#000000;stroke-width:32.40"/>
	<circle cx="10349.55" cy="8831.70" r="44.10" style="fill:#000000"/>
	<circle cx="10349.55" cy="8831.70" r="27.90" style="fill:none;stroke:#000000;stroke-width:32.40"/>
	<circle cx="10545.30" cy="9181.35" r="44.10" style="fill:#000000"/>
	<circle cx="10545.30" cy="9181.35" r="27.90" style="fill:none;stroke:#000000;stroke-width:32.40"/>
	<line x1="10274.40" y1="1139.85" x2="10691.10" y2="1139.85" style="stroke:#000000;stroke-width:16.20"/>
	<line x1="10691.10" y1="1222.20" x2="10691.10" y2="1057.05" stroke-linecap="round" style="stroke:#000000;stroke-width:16.20"/>
	<line x1="10274.40" y1="1222.20" x2="10274.40" y2="1057.05" stroke-linecap="round" style="stroke:#000000;stroke-width:16.20"/>
	<line x1="10590.75" y1="1489.50" x2="11389.05" y2="1489.50" style="stroke:#000000;stroke-width:16.20"/>
	<line x1="11389.05" y1="1571.85" x2="11389.05" y2="1406.70" stroke-linecap="round" style="stroke:#000000;stroke-width:16.20"/>
	<line x1="10590.75" y1="1571.85" x2="10590.75" y2="1406.70" stroke-linecap="round" style="stroke:#000000;stroke-width:16.20"/>
	<line x1="10148.85" y1="1839.15" x2="10454.85" y2="1839.15" style="stroke:#000000;stroke-width:16.20"/>
	<line x1="10454.85" y1="1921.50" x2="10454.85" y2="1756.35" stroke-linecap="round" style="stroke:#000000;stroke-width:16.20"/>
	<line x1="10148.85" y1="1921.50" x2="10148.85" y2="1756.35" stroke-linecap="round" style="stroke:#000000;stroke-width:16.20"/>
	<line x1="10344.60" y1="2188.80" x2="10907.10" y2="2188.80" style="stroke:#000000;stroke-width:16.20"/>
	<line x1="10907.10" y1="2271.15" x2="10907.10" y2="2106.00" stroke-linecap="round" style="stroke:#000000;stroke-width:16.20"/>
	<line x1="10344.60" y1="2271.15" x2="10344.60" y2="2106.00" stroke-linecap="round" style="stroke:#000000;stroke-width:16.20"/>
	<line x1="10193.85" y1="2538.45" x2="10540.35" y2="2538.45" style="stroke:#000000;stroke-width:16.20"/>
	<line x1="10540.35" y1="2620.80" x2="10540.35" y2="2455.65" stroke-linecap="round" style="stroke:#000000;stroke-width:16.20"/>
	<line x1="10193.85" y1="2620.80" x2="10193.85" y2="2455.65" stroke-linecap="round" style="stroke:#000000;stroke-width:16.20"/>
	<line x1="10319.40" y1="2888.10" x2="10861.65" y2="2888.10" style="stroke:#000000;stroke-width:16.20"/>
	<line x1="10861.65" y1="2970.45" x2="10861.65" y2="2805.30" stroke-linecap="round" style="stroke:#000000;stroke-width:16.20"/>
	<line x1="10319.40" y1="2970.45" x2="10319.40" y2="2805.30" stroke-linecap="round" style="stroke:#000000;stroke-width:16.20"/>
	<line x1="10389.60" y1="3237.75" x2="11398.95" y2="3237.75" style="stroke:#000000;stroke-width:16.20"/>
	<line x1="11398.95" y1="3320.10" x2="11398.95" y2="3154.95" stroke-linecap="round" style="stroke:#000000;stroke-width:16.20"/>
	<line x1="10389.60" y1="3320.10" x2="10389.60" y2="3154.95" stroke-linecap="round" style="stroke:#000000;stroke-width:16.20"/>
	<line x1="10851.75" y1="3587.40" x2="12865.50" y2="3587.40" style="stroke:#000000;stroke-width:16.20"/>
	<line x1="12865.50" y1="3669.75" x2="12865.50" y2="3504.60" stroke-linecap="round" style="stroke:#000000;stroke-width:16.20"/>
	<line x1="10851.75" y1="3669.75" x2="10851.75" y2="3504.60" stroke-linecap="round" style="stroke:#000000;stroke-width:16.20"/>
	<line x1="10233.90" y1="3937.05" x2="10992.15" y2="3937.05" style="stroke:#000000;stroke-width:16.20"/>
	<line x1="10992.15" y1="4019.40" x2="10992.15" y2="3854.25" stroke-linecap="round" style="stroke:#000000;stroke-width:16.20"/>
	<line x1="10233.90" y1="4019.40" x2="10233.90" y2="3854.25" stroke-linecap="round" style="stroke:#000000;stroke-width:16.20"/>
	<line x1="10545.30" y1="4286.25" x2="11986.65" y2="4286.25" style="stroke:#000000;stroke-width:16.20"/>
	<line x1="11986.65" y1="4368.60" x2="11986.65" y2="4203.45" stroke-linecap="round" style="stroke:#000000;stroke-width:16.20"/>
	<line x1="10545.30" y1="4368.60" x2="10545.30" y2="4203.45" stroke-linecap="round" style="stroke:#000000;stroke-width:16.20"/>
	<line x1="10279.35" y1="4635.90" x2="11112.75" y2="4635.90" style="stroke:#000000;stroke-width:16.20"/>
	<line x1="11112.75" y1="4718.25" x2="11112.75" y2="4553.10" stroke-linecap="round" style="stroke:#000000;stroke-width:16.20"/>
	<line x1="10279.35" y1="4718.25" x2="10279.35" y2="4553.10" stroke-linecap="round" style="stroke:#000000;stroke-width:16.20"/>
	<line x1="10510.20" y1="4985.55" x2="11896.20" y2="4985.55" style="stroke:#000000;stroke-width:16.20"/>
	<line x1="11896.20" y1="5067.90" x2="11896.20" y2="4902.75" stroke-linecap="round" style="stroke:#000000;stroke-width:16.20"/>
	<line x1="10510.20" y1="5067.90" x2="10510.20" y2="4902.75" stroke-linecap="round" style="stroke:#000000;stroke-width:16.20"/>
	<line x1="10188.90" y1="5335.20" x2="10354.50" y2="5335.20" style="stroke:#000000;stroke-width:16.20"/>
	<line x1="10354.50" y1="5417.55" x2="10354.50" y2="5252.40" stroke-linecap="round" style="stroke:#000000;stroke-width:16.20"/>
	<line x1="10188.90" y1="5417.55" x2="10188.90" y2="5252.40" stroke-linecap="round" style="stroke:#000000;stroke-width:16.20"/>
	<line x1="10304.55" y1="5684.85" x2="10575.45" y2="5684.85" style="stroke:#000000;stroke-width:16.20"/>
	<line x1="10575.45" y1="5767.20" x2="10575.45" y2="5602.05" stroke-linecap="round" style="stroke:#000000;stroke-width:16.20"/>
	<line x1="10304.55" y1="5767.20" x2="10304.55" y2="5602.05" stroke-linecap="round" style="stroke:#000000;stroke-width:16.20"/>
	<line x1="10083.60" y1="6034.50" x2="10209.15" y2="6034.50" style="stroke:#000000;stroke-width:16.20"/>
	<line x1="10209.15" y1="6116.85" x2="10209.15" y2="5951.70" stroke-linecap="round" style="stroke:#000000;stroke-width:16.20"/>
	<line x1="10083.60" y1="6116.85" x2="10083.60" y2="5951.70" stroke-linecap="round" style="stroke:#000000;stroke-width:16.20"/>
	<line x1="10148.85" y1="6384.15" x2="10339.65" y2="6384.15" style="stroke:#000000;stroke-width:16.20"/>
	<line x1="10339.65" y1="6466.50" x2="10339.65" y2="6301.35" stroke-linecap="round" style="stroke:#000000;stroke-width:16.20"/>
	<line x1="10148.85" y1="6466.50" x2="10148.85" y2="6301.35" stroke-linecap="round" style="stroke:#000000;stroke-width:16.20"/>
	<line x1="10118.70" y1="6733.80" x2="10259.10" y2="6733.80" style="stroke:#000000;stroke-width:16.20"/>
	<line x1="10259.10" y1="6816.15" x2="10259.10" y2="6651.00" stroke-linecap="round" style="stroke:#000000;stroke-width:16.20"/>
	<line x1="10118.70" y1="6816.15" x2="10118.70" y2="6651.00" stroke-linecap="round" style="stroke:#000000;stroke-width:16.20"/>
	<line x1="10148.85" y1="7083.45" x2="10344.60" y2="7083.45" style="stroke:#000000;stroke-width:16.20"/>
	<line x1="10344.60" y1="7165.80" x2="10344.60" y2="7000.65" stroke-linecap="round" style="stroke:#000000;stroke-width:16.20"/>
	<line x1="10148.85" y1="7165.80" x2="10148.85" y2="7000.65" stroke-linecap="round" style="stroke:#000000;stroke-width:16.20"/>
	<line x1="10289.25" y1="7433.10" x2="10651.05" y2="7433.10" style="stroke:#000000;stroke-width:16.20"/>
	<line x1="10651.05" y1="7515.45" x2="10651.05" y2="7350.30" stroke-linecap="round" style="stroke:#000000;stroke-width:16.20"/>
	<line x1="10289.25" y1="7515.45" x2="10289.25" y2="7350.30" stroke-linecap="round" style="stroke:#000000;stroke-width:16.20"/>
	<line x1="10605.60" y1="7782.30" x2="11328.75" y2="7782.30" style="stroke:#000000;stroke-width:16.20"/>
	<line x1="11328.75" y1="7864.65" x2="11328.75" y2="7699.50" stroke-linecap="round" style="stroke:#000000;stroke-width:16.20"/>
	<line x1="10605.60" y1="7864.65" x2="10605.60" y2="7699.50" stroke-linecap="round" style="stroke:#000000;stroke-width:16.20"/>
	<line x1="10163.70" y1="8131.95" x2="10440.00" y2="8131.95" style="stroke:#000000;stroke-width:16.20"/>
	<line x1="10440.00" y1="8214.30" x2="10440.00" y2="8049.15" stroke-linecap="round" style="stroke:#000000;stroke-width:16.20"/>
	<line x1="10163.70" y1="8214.30" x2="10163.70" y2="8049.15" stroke-linecap="round" style="stroke:#000000;stroke-width:16.20"/>
	<line x1="10364.85" y1="8481.60" x2="10876.95" y2="8481.60" style="stroke:#000000;stroke-width:16.20"/>
	<line x1="10876.95" y1="8563.95" x2="10876.95" y2="8398.80" stroke-linecap="round" style="stroke:#000000;stroke-width:16.20"/>
	<line x1="10364.85" y1="8563.95" x2="10364.85" y2="8398.80" stroke-linecap="round" style="stroke:#000000;stroke-width:16.20"/>
	<line x1="10214.10" y1="8831.25" x2="10525.50" y2="8831.25" style="stroke:#000000;stroke-width:16.20"/>
	<line x1="10525.50" y1="8913.60" x2="10525.50" y2="8748.45" stroke-linecap="round" style="stroke:#000000;stroke-width:16.20"/>
	<line x1="10214.10" y1="8913.60" x2="10214.10" y2="8748.45" stroke-linecap="round" style="stroke:#000000;stroke-width:16.20"/>
	<line x1="10334.70" y1="9180.90" x2="10831.50" y2="9180.90" style="stroke:#000000;stroke-width:16.20"/>
	<line x1="10831.50" y1="9263.25" x2="10831.50" y2="9098.10" stroke-linecap="round" style="stroke:#000000;stroke-width:16.20"/>
	<line x1="10334.70" y1="9263.25" x2="10334.70" y2="9098.10" stroke-linecap="round" style="stroke:#000000;stroke-width:16.20"/>
	<circle cx="10449.90" cy="1140.30" r="44.10" style="fill:#000000"/>
	<circle cx="10449.90" cy="1140.30" r="27.90" style="fill:none;stroke:#000000;stroke-width:32.40"/>
	<circle cx="10921.95" cy="1489.95" r="44.10" style="fill:#000000"/>
	<circle cx="10921.95" cy="1489.95" r="27.90" style="fill:none;stroke:#000000;stroke-width:32.40"/>
	<circle cx="10278.90" cy="1839.60" r="44.10" style="fill:#000000"/>
	<circle cx="10278.90" cy="1839.60" r="27.90" style="fill:none;stroke:#000000;stroke-width:32.40"/>
	<circle cx="10575.45" cy="2189.25" r="44.10" style="fill:#000000"/>
	<circle cx="10575.45" cy="2189.25" r="27.90" style="fill:none;stroke:#000000;stroke-width:32.40"/>
	<circle cx="10339.20" cy="2538.45" r="44.10" style="fill:#000000"/>
	<circle cx="10339.20" cy="2538.45" r="27.90" style="fill:none;stroke:#000000;stroke-width:32.40"/>
	<circle cx="10545.30" cy="2888.10" r="44.10" style="fill:#000000"/>
	<circle cx="10545.30" cy="2888.10" r="27.90" style="fill:none;stroke:#000000;stroke-width:32.40"/>
	<circle cx="10776.15" cy="3237.75" r="44.10" style="fill:#000000"/>
	<circle cx="10776.15" cy="3237.75" r="27.90" style="fill:none;stroke:#000000;stroke-width:32.40"/>
	<circle cx="11599.65" cy="3587.40" r="44.10" style="fill:#000000"/>
	<circle cx="11599.65" cy="3587.40" r="27.90" style="fill:none;stroke:#000000;stroke-width:32.40"/>
	<circle cx="10520.10" cy="3937.05" r="44.10" style="fill:#000000"/>
	<circle cx="10520.10" cy="3937.05" r="27.90" style="fill:none;stroke:#000000;stroke-width:32.40"/>
	<circle cx="11082.60" cy="4286.70" r="44.10" style="fill:#000000"/>
	<circle cx="11082.60" cy="4286.70" r="27.90" style="fill:none;stroke:#000000;stroke-width:32.40"/>
	<circle cx="10595.25" cy="4636.35" r="44.10" style="fill:#000000"/>
	<circle cx="10595.25" cy="4636.35" r="27.90" style="fill:none;stroke:#000000;stroke-width:32.40"/>
	<circle cx="11022.30" cy="4986.00" r="44.10" style="fill:#000000"/>
	<circle cx="11022.30" cy="4986.00" r="27.90" style="fill:none;stroke:#000000;stroke-width:32.40"/>
	<circle cx="10264.05" cy="5335.65" r="44.10" style="fill:#000000"/>
	<circle cx="10264.05" cy="5335.65" r="27.90" style="fill:none;stroke:#000000;stroke-width:32.40"/>
	<circle cx="10429.65" cy="5685.30" r="44.10" style="fill:#000000"/>
	<circle cx="10429.65" cy="5685.30" r="27.90" style="fill:none;stroke:#000000;stroke-width:32.40"/>
	<circle cx="10143.45" cy="6034.50" r="44.10" style="fill:#000000"/>
	<circle cx="10143.45" cy="6034.50" r="27.90" style="fill:none;stroke:#000000;stroke-width:32.40"/>
	<circle cx="10233.90" cy="6384.15" r="44.10" style="fill:#000000"/>
	<circle cx="10233.90" cy="6384.15" r="27.90" style="fill:none;stroke:#000000;stroke-width:32.40"/>
	<circle cx="10183.50" cy="6733.80" r="44.10" style="fill:#000000"/>
	<circle cx="10183.50" cy="6733.80" r="27.90" style="fill:none;stroke:#000000;stroke-width:32.40"/>
	<circle cx="10238.85" cy="7083.45" r="44.10" style="fill:#000000"/>
	<circle cx="10238.85" cy="7083.45" r="27.90" style="fill:none;stroke:#000000;stroke-width:32.40"/>
	<circle cx="10444.95" cy="7433.10" r="44.10" style="fill:#000000"/>
	<circle cx="10444.95" cy="7433.10" r="27.90" style="fill:none;stroke:#000000;stroke-width:32.40"/>
	<circle cx="10911.60" cy="7782.75" r="44.10" style="fill:#000000"/>
	<circle cx="10911.60" cy="7782.75" r="27.90" style="fill:none;stroke:#000000;stroke-width:32.40"/>
	<circle cx="10284.30" cy="8132.40" r="44.10" style="fill:#000000"/>
	<circle cx="10284.30" cy="8132.40" r="27.90" style="fill:none;stroke:#000000;stroke-width:32.40"/>
	<circle cx="10580.40" cy="8482.05" r="44.10" style="fill:#000000"/>
	<circle cx="10580.40" cy="8482.05" r="27.90" style="fill:none;stroke:#000000;stroke-width:32.40"/>
	<circle cx="10349.55" cy="8831.70" r="44.10" style="fill:#000000"/>
	<circle cx="10349.55" cy="8831.70" r="27.90" style="fill:none;stroke:#000000;stroke-width:32.40"/>
	<circle cx="10545.30" cy="9181.35" r="44.10" style="fill:#000000"/>
	<circle cx="10545.30" cy="9181.35" r="27.90" style="fill:none;stroke:#000000;stroke-width:32.40"/>
	<line x1="10274.40" y1="1139.85" x2="10691.10" y2="1139.85" style="stroke:#000000;stroke-width:16.20"/>
	<line x1="10691.10" y1="1222.20" x2="10691.10" y2="1057.05" stroke-linecap="round" style="stroke:#000000;stroke-width:16.20"/>
	<line x1="10274.40" y1="1222.20" x2="10274.40" y2="1057.05" stroke-linecap="round" style="stroke:#000000;stroke-width:16.20"/>
	<line x1="10590.75" y1="1489.50" x2="11389.05" y2="1489.50" style="stroke:#000000;stroke-width:16.20"/>
	<line x1="11389.05" y1="1571.85" x2="11389.05" y2="1406.70" stroke-linecap="round" style="stroke:#000000;stroke-width:16.20"/>
	<line x1="10590.75" y1="1571.85" x2="10590.75" y2="1406.70" stroke-linecap="round" style="stroke:#000000;stroke-width:16.20"/>
	<line x1="10148.85" y1="1839.15" x2="10454.85" y2="1839.15" style="stroke:#000000;stroke-width:16.20"/>
	<line x1="10454.85" y1="1921.50" x2="10454.85" y2="1756.35" stroke-linecap="round" style="stroke:#000000;stroke-width:16.20"/>
	<line x1="10148.85" y1="1921.50" x2="10148.85" y2="1756.35" stroke-linecap="round" style="stroke:#000000;stroke-width:16.20"/>
	<line x1="10344.60" y1="2188.80" x2="10907.10" y2="2188.80" style="stroke:#000000;stroke-width:16.20"/>
	<line x1="10907.10" y1="2271.15" x2="10907.10" y2="2106.00" stroke-linecap="round" style="stroke:#000000;stroke-width:16.20"/>
	<line x1="10344.60" y1="2271.15" x2="10344.60" y2="2106.00" stroke-linecap="round" style="stroke:#000000;stroke-width:16.20"/>
	<line x1="10193.85" y1="2538.45" x2="10540.35" y2="2538.45" style="stroke:#000000;stroke-width:16.20"/>
	<line x1="10540.35" y1="2620.80" x2="10540.35" y2="2455.65" stroke-linecap="round" style="stroke:#000000;stroke-width:16.20"/>
	<line x1="10193.85" y1="2620.80" x2="10193.85" y2="2455.65" stroke-linecap="round" style="stroke:#000000;stroke-width:16.20"/>
	<line x1="10319.40" y1="2888.10" x2="10861.65" y2="2888.10" style="stroke:#000000;stroke-width:16.20"/>
	<line x1="10861.65" y1="2970.45" x2="10861.65" y2="2805.30" stroke-linecap="round" style="stroke:#000000;stroke-width:16.20"/>
	<line x1="10319.40" y1="2970.45" x2="10319.40" y2="2805.30" stroke-linecap="round" style="stroke:#000000;stroke-width:16.20"/>
	<line x1="10389.60" y1="3237.75" x2="11398.95" y2="3237.75" style="stroke:#000000;stroke-width:16.20"/>
	<line x1="11398.95" y1="3320.10" x2="11398.95" y2="3154.95" stroke-linecap="round" style="stroke:#000000;stroke-width:16.20"/>
	<line x1="10389.60" y1="3320.10" x2="10389.60" y2="3154.95" stroke-linecap="round" style="stroke:#000000;stroke-width:16.20"/>
	<line x1="10851.75" y1="3587.40" x2="12865.50" y2="3587.40" style="stroke:#000000;stroke-width:16.20"/>
	<line x1="12865.50" y1="3669.75" x2="12865.50" y2="3504.60" stroke-linecap="round" style="stroke:#000000;stroke-width:16.20"/>
	<line x1="10851.75" y1="3669.75" x2="10851.75" y2="3504.60" stroke-linecap="round" style="stroke:#000000;stroke-width:16.20"/>
	<line x1="10233.90" y1="3937.05" x2="10992.15" y2="3937.05" style="stroke:#000000;stroke-width:16.20"/>
	<line x1="10992.15" y1="4019.40" x2="10992.15" y2="3854.25" stroke-linecap="round" style="stroke:#000000;stroke-width:16.20"/>
	<line x1="10233.90" y1="4019.40" x2="10233.90" y2="3854.25" stroke-linecap="round" style="stroke:#000000;stroke-width:16.20"/>
	<line x1="10545.30" y1="4286.25" x2="11986.65" y2="4286.25" style="stroke:#000000;stroke-width:16.20"/>
	<line x1="11986.65" y1="4368.60" x2="11986.65" y2="4203.45" stroke-linecap="round" style="stroke:#000000;stroke-width:16.20"/>
	<line x1="10545.30" y1="4368.60" x2="10545.30" y2="4203.45" stroke-linecap="round" style="stroke:#000000;stroke-width:16.20"/>
	<line x1="10279.35" y1="4635.90" x2="11112.75" y2="4635.90" style="stroke:#000000;stroke-width:16.20"/>
	<line x1="11112.75" y1="4718.25" x2="11112.75" y2="4553.10" stroke-linecap="round" style="stroke:#000000;stroke-width:16.20"/>
	<line x1="10279.35" y1="4718.25" x2="10279.35" y2="4553.10" stroke-linecap="round" style="stroke:#000000;stroke-width:16.20"/>
	<line x1="10510.20" y1="4985.55" x2="11896.20" y2="4985.55" style="stroke:#000000;stroke-width:16.20"/>
	<line x1="11896.20" y1="5067.90" x2="11896.20" y2="4902.75" stroke-linecap="round" style="stroke:#000000;stroke-width:16.20"/>
	<line x1="10510.20" y1="5067.90" x2="10510.20" y2="4902.75" stroke-linecap="round" style="stroke:#000000;stroke-width:16.20"/>
	<line x1="10188.90" y1="5335.20" x2="10354.50" y2="5335.20" style="stroke:#000000;stroke-width:16.20"/>
	<line x1="10354.50" y1="5417.55" x2="10354.50" y2="5252.40" stroke-linecap="round" style="stroke:#000000;stroke-width:16.20"/>
	<line x1="10188.90" y1="5417.55" x2="10188.90" y2="5252.40" stroke-linecap="round" style="stroke:#000000;stroke-width:16.20"/>
	<line x1="10304.55" y1="5684.85" x2="10575.45" y2="5684.85" style="stroke:#000000;stroke-width:16.20"/>
	<line x1="10575.45" y1="5767.20" x2="10575.45" y2="5602.05" stroke-linecap="round" style="stroke:#000000;stroke-width:16.20"/>
	<line x1="10304.55" y1="5767.20" x2="10304.55" y2="5602.05" stroke-linecap="round" style="stroke:#000000;stroke-width:16.20"/>
	<line x1="10083.60" y1="6034.50" x2="10209.15" y2="6034.50" style="stroke:#000000;stroke-width:16.20"/>
	<line x1="10209.15" y1="6116.85" x2="10209.15" y2="5951.70" stroke-linecap="round" style="stroke:#000000;stroke-width:16.20"/>
	<line x1="10083.60" y1="6116.85" x2="10083.60" y2="5951.70" stroke-linecap="round" style="stroke:#000000;stroke-width:16.20"/>
	<line x1="10148.85" y1="6384.15" x2="10339.65" y2="6384.15" style="stroke:#000000;stroke-width:16.20"/>
	<line x1="10339.65" y1="6466.50" x2="10339.65" y2="6301.35" stroke-linecap="round" style="stroke:#000000;stroke-width:16.20"/>
	<line x1="10148.85" y1="6466.50" x2="10148.85" y2="6301.35" stroke-linecap="round" style="stroke:#000000;stroke-width:16.20"/>
	<line x1="10118.70" y1="6733.80" x2="10259.10" y2="6733.80" style="stroke:#000000;stroke-width:16.20"/>
	<line x1="10259.10" y1="6816.15" x2="10259.10" y2="6651.00" stroke-linecap="round" style="stroke:#000000;stroke-width:16.20"/>
	<line x1="10118.70" y1="6816.15" x2="10118.70" y2="6651.00" stroke-linecap="round" style="stroke:#000000;stroke-width:16.20"/>
	<line x1="10148.85" y1="7083.45" x2="10344.60" y2="7083.45" style="stroke:#000000;stroke-width:16.20"/>
	<line x1="10344.60" y1="7165.80" x2="10344.60" y2="7000.65" stroke-linecap="round" style="stroke:#000000;stroke-width:16.20"/>
	<line x1="10148.85" y1="7165.80" x2="10148.85" y2="7000.65" stroke-linecap="round" style="stroke:#000000;stroke-width:16.20"/>
	<line x1="10289.25" y1="7433.10" x2="10651.05" y2="7433.10" style="stroke:#000000;stroke-width:16.20"/>
	<line x1="10651.05" y1="7515.45" x2="10651.05" y2="7350.30" stroke-linecap="round" style="stroke:#000000;stroke-width:16.20"/>
	<line x1="10289.25" y1="7515.45" x2="10289.25" y2="7350.30" stroke-linecap="round" style="stroke:#000000;stroke-width:16.20"/>
	<line x1="10605.60" y1="7782.30" x2="11328.75" y2="7782.30" style="stroke:#000000;stroke-width:16.20"/>
	<line x1="11328.75" y1="7864.65" x2="11328.75" y2="7699.50" stroke-linecap="round" style="stroke:#000000;stroke-width:16.20"/>
	<line x1="10605.60" y1="7864.65" x2="10605.60" y2="7699.50" stroke-linecap="round" style="stroke:#000000;stroke-width:16.20"/>
	<line x1="10163.70" y1="8131.95" x2="10440.00" y2="8131.95" style="stroke:#000000;stroke-width:16.20"/>
	<line x1="10440.00" y1="8214.30" x2="10440.00" y2="8049.15" stroke-linecap="round" style="stroke:#000000;stroke-width:16.20"/>
	<line x1="10163.70" y1="8214.30" x2="10163.70" y2="8049.15" stroke-linecap="round" style="stroke:#000000;stroke-width:16.20"/>
	<line x1="10364.85" y1="8481.60" x2="10876.95" y2="8481.60" style="stroke:#000000;stroke-width:16.20"/>
	<line x1="10876.95" y1="8563.95" x2="10876.95" y2="8398.80" stroke-linecap="round" style="stroke:#000000;stroke-width:16.20"/>
	<line x1="10364.85" y1="8563.95" x2="10364.85" y2="8398.80" stroke-linecap="round" style="stroke:#000000;stroke-width:16.20"/>
	<line x1="10214.10" y1="8831.25" x2="10525.50" y2="8831.25" style="stroke:#000000;stroke-width:16.20"/>
	<line x1="10525.50" y1="8913.60" x2="10525.50" y2="8748.45" stroke-linecap="round" style="stroke:#000000;stroke-width:16.20"/>
	<line x1="10214.10" y1="8913.60" x2="10214.10" y2="8748.45" stroke-linecap="round" style="stroke:#000000;stroke-width:16.20"/>
	<line x1="10334.70" y1="9180.90" x2="10831.50" y2="9180.90" style="stroke:#000000;stroke-width:16.20"/>
	<line x1="10831.50" y1="9263.25" x2="10831.50" y2="9098.10" stroke-linecap="round" style="stroke:#000000;stroke-width:16.20"/>
	<line x1="10334.70" y1="9263.25" x2="10334.70" y2="9098.10" stroke-linecap="round" style="stroke:#000000;stroke-width:16.20"/>
	<text x="885.60" y="1218.71" style="font-family:'Helvetica';font-weight:bold;font-size:225.00px;fill:#000000">COVID-19 Death in ONS - Asthma</text>
	<text x="885.60" y="1568.36" style="font-family:'Helvetica';font-size:225.00px;fill:#000000"></text>
	<text x="885.60" y="1918.01" style="font-family:'Helvetica';font-size:225.00px;fill:#000000"></text>
	<text x="885.60" y="2267.66" style="font-family:'Helvetica';font-size:225.00px;fill:#000000"></text>
	<text x="885.60" y="2617.31" style="font-family:'Helvetica';font-size:225.00px;fill:#000000"></text>
	<text x="885.60" y="2966.96" style="font-family:'Helvetica';font-size:225.00px;fill:#000000"></text>
	<text x="885.60" y="3316.61" style="font-family:'Helvetica';font-weight:bold;font-size:225.00px;fill:#000000">COVID-19 Death in ONS - Asthma - ethnicity</text>
	<text x="885.60" y="3666.26" style="font-family:'Helvetica';font-size:225.00px;fill:#000000"></text>
	<text x="885.60" y="4015.91" style="font-family:'Helvetica';font-size:225.00px;fill:#000000"></text>
	<text x="885.60" y="4365.11" style="font-family:'Helvetica';font-size:225.00px;fill:#000000"></text>
	<text x="885.60" y="4714.76" style="font-family:'Helvetica';font-size:225.00px;fill:#000000"></text>
	<text x="885.60" y="5064.41" style="font-family:'Helvetica';font-size:225.00px;fill:#000000"></text>
	<text x="885.60" y="5414.06" style="font-family:'Helvetica';font-weight:bold;font-size:225.00px;fill:#000000">Non-COVID Death in ONS - Asthma</text>
	<text x="885.60" y="5763.71" style="font-family:'Helvetica';font-size:225.00px;fill:#000000"></text>
	<text x="885.60" y="6113.36" style="font-family:'Helvetica';font-size:225.00px;fill:#000000"></text>
	<text x="885.60" y="6463.01" style="font-family:'Helvetica';font-size:225.00px;fill:#000000"></text>
	<text x="885.60" y="6812.66" style="font-family:'Helvetica';font-size:225.00px;fill:#000000"></text>
	<text x="885.60" y="7162.31" style="font-family:'Helvetica';font-size:225.00px;fill:#000000"></text>
	<text x="885.60" y="7511.96" style="font-family:'Helvetica';font-weight:bold;font-size:225.00px;fill:#000000">COVID-19 Death in ONS - Asthma - Ever</text>
	<text x="885.60" y="7861.16" style="font-family:'Helvetica';font-size:225.00px;fill:#000000"></text>
	<text x="885.60" y="8210.81" style="font-family:'Helvetica';font-size:225.00px;fill:#000000"></text>
	<text x="885.60" y="8560.46" style="font-family:'Helvetica';font-size:225.00px;fill:#000000"></text>
	<text x="885.60" y="8910.11" style="font-family:'Helvetica';font-size:225.00px;fill:#000000"></text>
	<text x="885.60" y="9259.76" style="font-family:'Helvetica';font-size:225.00px;fill:#000000"></text>
	<text x="885.60" y="720.61" style="font-family:'Helvetica';font-size:299.70px;fill:#000000"></text>
	<text x="5404.95" y="1218.71" style="font-family:'Helvetica';font-size:225.00px;fill:#000000">Univariable</text>
	<text x="5404.95" y="1568.36" style="font-family:'Helvetica';font-size:225.00px;fill:#000000">Univariable</text>
	<text x="5404.95" y="1918.01" style="font-family:'Helvetica';font-size:225.00px;fill:#000000">Age/Sex adjusted</text>
	<text x="5404.95" y="2267.66" style="font-family:'Helvetica';font-size:225.00px;fill:#000000">Age/Sex adjusted</text>
	<text x="5404.95" y="2617.31" style="font-family:'Helvetica';font-size:225.00px;fill:#000000">Fully adjusted</text>
	<text x="5404.95" y="2966.96" style="font-family:'Helvetica';font-size:225.00px;fill:#000000">Fully adjusted</text>
	<text x="5404.95" y="3316.61" style="font-family:'Helvetica';font-size:225.00px;fill:#000000">Univariable</text>
	<text x="5404.95" y="3666.26" style="font-family:'Helvetica';font-size:225.00px;fill:#000000">Univariable</text>
	<text x="5404.95" y="4015.91" style="font-family:'Helvetica';font-size:225.00px;fill:#000000">Age/Sex adjusted</text>
	<text x="5404.95" y="4365.11" style="font-family:'Helvetica';font-size:225.00px;fill:#000000">Age/Sex adjusted</text>
	<text x="5404.95" y="4714.76" style="font-family:'Helvetica';font-size:225.00px;fill:#000000">Fully adjusted</text>
	<text x="5404.95" y="5064.41" style="font-family:'Helvetica';font-size:225.00px;fill:#000000">Fully adjusted</text>
	<text x="5404.95" y="5414.06" style="font-family:'Helvetica';font-size:225.00px;fill:#000000">Univariable</text>
	<text x="5404.95" y="5763.71" style="font-family:'Helvetica';font-size:225.00px;fill:#000000">Univariable</text>
	<text x="5404.95" y="6113.36" style="font-family:'Helvetica';font-size:225.00px;fill:#000000">Age/Sex adjusted</text>
	<text x="5404.95" y="6463.01" style="font-family:'Helvetica';font-size:225.00px;fill:#000000">Age/Sex adjusted</text>
	<text x="5404.95" y="6812.66" style="font-family:'Helvetica';font-size:225.00px;fill:#000000">Fully adjusted</text>
	<text x="5404.95" y="7162.31" style="font-family:'Helvetica';font-size:225.00px;fill:#000000">Fully adjusted</text>
	<text x="5404.95" y="7511.96" style="font-family:'Helvetica';font-size:225.00px;fill:#000000">Univariable</text>
	<text x="5404.95" y="7861.16" style="font-family:'Helvetica';font-size:225.00px;fill:#000000">Univariable</text>
	<text x="5404.95" y="8210.81" style="font-family:'Helvetica';font-size:225.00px;fill:#000000">Age/Sex adjusted</text>
	<text x="5404.95" y="8560.46" style="font-family:'Helvetica';font-size:225.00px;fill:#000000">Age/Sex adjusted</text>
	<text x="5404.95" y="8910.11" style="font-family:'Helvetica';font-size:225.00px;fill:#000000">Fully adjusted</text>
	<text x="5404.95" y="9259.76" style="font-family:'Helvetica';font-size:225.00px;fill:#000000">Fully adjusted</text>
	<text x="5404.95" y="720.61" style="font-family:'Helvetica';font-weight:bold;font-size:299.70px;fill:#000000">Analysis</text>
	<text x="7162.65" y="1218.71" style="font-family:'Helvetica';font-size:225.00px;fill:#000000">ICS (Low/Medium Dose)</text>
	<text x="7162.65" y="1568.36" style="font-family:'Helvetica';font-size:225.00px;fill:#000000">ICS (High Dose)</text>
	<text x="7162.65" y="1918.01" style="font-family:'Helvetica';font-size:225.00px;fill:#000000">ICS (Low/Medium Dose)</text>
	<text x="7162.65" y="2267.66" style="font-family:'Helvetica';font-size:225.00px;fill:#000000">ICS (High Dose)</text>
	<text x="7162.65" y="2617.31" style="font-family:'Helvetica';font-size:225.00px;fill:#000000">ICS (Low/Medium Dose)</text>
	<text x="7162.65" y="2966.96" style="font-family:'Helvetica';font-size:225.00px;fill:#000000">ICS (High Dose)</text>
	<text x="7162.65" y="3316.61" style="font-family:'Helvetica';font-size:225.00px;fill:#000000">ICS (Low/Medium Dose)</text>
	<text x="7162.65" y="3666.26" style="font-family:'Helvetica';font-size:225.00px;fill:#000000">ICS (High Dose)</text>
	<text x="7162.65" y="4015.91" style="font-family:'Helvetica';font-size:225.00px;fill:#000000">ICS (Low/Medium Dose)</text>
	<text x="7162.65" y="4365.11" style="font-family:'Helvetica';font-size:225.00px;fill:#000000">ICS (High Dose)</text>
	<text x="7162.65" y="4714.76" style="font-family:'Helvetica';font-size:225.00px;fill:#000000">ICS (Low/Medium Dose)</text>
	<text x="7162.65" y="5064.41" style="font-family:'Helvetica';font-size:225.00px;fill:#000000">ICS (High Dose)</text>
	<text x="7162.65" y="5414.06" style="font-family:'Helvetica';font-size:225.00px;fill:#000000">ICS (Low/Medium Dose)</text>
	<text x="7162.65" y="5763.71" style="font-family:'Helvetica';font-size:225.00px;fill:#000000">ICS (High Dose)</text>
	<text x="7162.65" y="6113.36" style="font-family:'Helvetica';font-size:225.00px;fill:#000000">ICS (Low/Medium Dose)</text>
	<text x="7162.65" y="6463.01" style="font-family:'Helvetica';font-size:225.00px;fill:#000000">ICS (High Dose)</text>
	<text x="7162.65" y="6812.66" style="font-family:'Helvetica';font-size:225.00px;fill:#000000">ICS (Low/Medium Dose)</text>
	<text x="7162.65" y="7162.31" style="font-family:'Helvetica';font-size:225.00px;fill:#000000">ICS (High Dose)</text>
	<text x="7162.65" y="7511.96" style="font-family:'Helvetica';font-size:225.00px;fill:#000000">ICS (Low/Medium Dose)</text>
	<text x="7162.65" y="7861.16" style="font-family:'Helvetica';font-size:225.00px;fill:#000000">ICS (High Dose)</text>
	<text x="7162.65" y="8210.81" style="font-family:'Helvetica';font-size:225.00px;fill:#000000">ICS (Low/Medium Dose)</text>
	<text x="7162.65" y="8560.46" style="font-family:'Helvetica';font-size:225.00px;fill:#000000">ICS (High Dose)</text>
	<text x="7162.65" y="8910.11" style="font-family:'Helvetica';font-size:225.00px;fill:#000000">ICS (Low/Medium Dose)</text>
	<text x="7162.65" y="9259.76" style="font-family:'Helvetica';font-size:225.00px;fill:#000000">ICS (High Dose)</text>
	<text x="7162.65" y="720.61" style="font-family:'Helvetica';font-weight:bold;font-size:299.70px;fill:#000000">Exposure</text>
	<text x="13282.20" y="1219.16" style="font-family:'Helvetica';font-size:225.00px;fill:#000000" text-anchor="middle">1.36 (1.01-1.84)</text>
	<text x="13282.20" y="1568.81" style="font-family:'Helvetica';font-size:225.00px;fill:#000000" text-anchor="middle">2.30 (1.64-3.23)</text>
	<text x="13282.20" y="1918.46" style="font-family:'Helvetica';font-size:225.00px;fill:#000000" text-anchor="middle">1.02 (0.76-1.37)</text>
	<text x="13282.20" y="2268.11" style="font-family:'Helvetica';font-size:225.00px;fill:#000000" text-anchor="middle">1.61 (1.15-2.27)</text>
	<text x="13282.20" y="2617.31" style="font-family:'Helvetica';font-size:225.00px;fill:#000000" text-anchor="middle">1.14 (0.85-1.54)</text>
	<text x="13282.20" y="2966.96" style="font-family:'Helvetica';font-size:225.00px;fill:#000000" text-anchor="middle">1.55 (1.10-2.18)</text>
	<text x="13282.20" y="3316.61" style="font-family:'Helvetica';font-size:225.00px;fill:#000000" text-anchor="middle">2.01 (1.24-3.25)</text>
	<text x="13282.20" y="3666.26" style="font-family:'Helvetica';font-size:225.00px;fill:#000000" text-anchor="middle">3.65 (2.16-6.17)</text>
	<text x="13282.20" y="4015.91" style="font-family:'Helvetica';font-size:225.00px;fill:#000000" text-anchor="middle">1.50 (0.93-2.44)</text>
	<text x="13282.20" y="4365.56" style="font-family:'Helvetica';font-size:225.00px;fill:#000000" text-anchor="middle">2.62 (1.55-4.42)</text>
	<text x="13282.20" y="4715.21" style="font-family:'Helvetica';font-size:225.00px;fill:#000000" text-anchor="middle">1.65 (1.02-2.68)</text>
	<text x="13282.20" y="5064.86" style="font-family:'Helvetica';font-size:225.00px;fill:#000000" text-anchor="middle">2.50 (1.48-4.24)</text>
	<text x="13282.20" y="5414.51" style="font-family:'Helvetica';font-size:225.00px;fill:#000000" text-anchor="middle">0.99 (0.84-1.17)</text>
	<text x="13282.20" y="5764.16" style="font-family:'Helvetica';font-size:225.00px;fill:#000000" text-anchor="middle">1.32 (1.07-1.61)</text>
	<text x="13282.20" y="6113.36" style="font-family:'Helvetica';font-size:225.00px;fill:#000000" text-anchor="middle">0.75 (0.63-0.88)</text>
	<text x="13282.20" y="6463.01" style="font-family:'Helvetica';font-size:225.00px;fill:#000000" text-anchor="middle">0.93 (0.76-1.14)</text>
	<text x="13282.20" y="6812.66" style="font-family:'Helvetica';font-size:225.00px;fill:#000000" text-anchor="middle">0.83 (0.70-0.98)</text>
	<text x="13282.20" y="7162.31" style="font-family:'Helvetica';font-size:225.00px;fill:#000000" text-anchor="middle">0.94 (0.76-1.15)</text>
	<text x="13282.20" y="7511.96" style="font-family:'Helvetica';font-size:225.00px;fill:#000000" text-anchor="middle">1.35 (1.04-1.76)</text>
	<text x="13282.20" y="7861.61" style="font-family:'Helvetica';font-size:225.00px;fill:#000000" text-anchor="middle">2.28 (1.67-3.11)</text>
	<text x="13282.20" y="8211.26" style="font-family:'Helvetica';font-size:225.00px;fill:#000000" text-anchor="middle">1.03 (0.79-1.34)</text>
	<text x="13282.20" y="8560.91" style="font-family:'Helvetica';font-size:225.00px;fill:#000000" text-anchor="middle">1.62 (1.19-2.21)</text>
	<text x="13282.20" y="8910.56" style="font-family:'Helvetica';font-size:225.00px;fill:#000000" text-anchor="middle">1.16 (0.89-1.51)</text>
	<text x="13282.20" y="9260.21" style="font-family:'Helvetica';font-size:225.00px;fill:#000000" text-anchor="middle">1.55 (1.13-2.12)</text>
	<text x="13282.20" y="720.61" style="font-family:'Helvetica';font-weight:bold;font-size:299.70px;fill:#000000" text-anchor="middle">HR (95% CI)</text>
	<line x1="490.50" y1="9418.50" x2="490.50" y2="378.00" style="stroke:#FFFFFF;stroke-width:21.60"/>
	<line x1="490.50" y1="9418.50" x2="14022.00" y2="9418.50" style="stroke:#000000;stroke-width:21.60"/>
	<line x1="9767.25" y1="9418.50" x2="9767.25" y2="9568.35" style="stroke:#000000;stroke-width:21.60"/>
	<text x="9767.25" y="9800.77" style="font-family:'Helvetica';font-size:225.00px;fill:#000000" text-anchor="middle">0</text>
	<line x1="10269.45" y1="9418.50" x2="10269.45" y2="9568.35" style="stroke:#000000;stroke-width:21.60"/>
	<text x="10269.45" y="9800.77" style="font-family:'Helvetica';font-size:225.00px;fill:#000000" text-anchor="middle">1</text>
	<line x1="10771.20" y1="9418.50" x2="10771.20" y2="9568.35" style="stroke:#000000;stroke-width:21.60"/>
	<text x="10771.20" y="9800.77" style="font-family:'Helvetica';font-size:225.00px;fill:#000000" text-anchor="middle">2</text>
	<line x1="11273.40" y1="9418.50" x2="11273.40" y2="9568.35" style="stroke:#000000;stroke-width:21.60"/>
	<text x="11273.40" y="9800.77" style="font-family:'Helvetica';font-size:225.00px;fill:#000000" text-anchor="middle">3</text>
	<line x1="11775.60" y1="9418.50" x2="11775.60" y2="9568.35" style="stroke:#000000;stroke-width:21.60"/>
	<text x="11775.60" y="9800.77" style="font-family:'Helvetica';font-size:225.00px;fill:#000000" text-anchor="middle">4</text>
	<line x1="12277.80" y1="9418.50" x2="12277.80" y2="9568.35" style="stroke:#000000;stroke-width:21.60"/>
	<text x="12277.80" y="9800.77" style="font-family:'Helvetica';font-size:225.00px;fill:#000000" text-anchor="middle">5</text>
	<line x1="12780.00" y1="9418.50" x2="12780.00" y2="9568.35" style="stroke:#000000;stroke-width:21.60"/>
	<text x="12780.00" y="9800.77" style="font-family:'Helvetica';font-size:225.00px;fill:#000000" text-anchor="middle">6</text>
	<text x="9416.25" y="10279.13" style="font-family:'Helvetica';font-size:225.00px;fill:#000000" text-anchor="middle">Hazard ratio (HR)</text>
</svg>
