<?xml version="1.0" encoding="UTF-8" standalone="no"?>
<!-- This is a Stata 16.1 generated SVG file (http://www.stata.com) -->

<svg version="1.1" width="5.50in" height="4.00in" viewBox="0 0 3960 2880" xmlns="http://www.w3.org/2000/svg" xmlns:xlink="http://www.w3.org/1999/xlink">
	<desc>Stata Graph - Graph</desc>
	<rect x="0" y="0" width="3960" height="2880" style="fill:#EAF2F3;stroke:none"/>
	<rect x="0.00" y="0.00" width="3959.88" height="2880.00" style="fill:#FFFFFF"/>
	<rect x="2.88" y="2.88" width="3954.12" height="2874.24" style="fill:none;stroke:#EAF2F3;stroke-width:5.76"/>
	<rect x="851.28" y="490.93" width="2998.83" height="1818.32" style="fill:#FFFFFF"/>
	<rect x="854.16" y="493.81" width="2993.07" height="1812.56" style="fill:none;stroke:#FFFFFF;stroke-width:5.76"/>
	<line x1="851.28" y1="2245.89" x2="3850.11" y2="2245.89" style="stroke:#EAF2F3;stroke-width:8.64"/>
	<path d=" M914.51 2246.01 L914.51 2246.01 L914.51 2246.01 L943.22 2246.01 L943.22 2245.76 L972.06 2245.76 L972.06 2245.51 L1000.77 2245.51 L1000.77 2245.39 L1029.48 2245.39 L1029.48 2245.27 L1058.19 2245.27 L1058.19 2245.14 L1086.90 2245.14 L1086.90 2244.90 L1115.61 2244.90 L1115.61 2244.77 L1144.32 2244.77 L1144.32 2244.52 L1173.03 2244.52 L1173.03 2244.15 L1201.74 2244.15 L1201.74 2243.91 L1230.45 2243.91 L1230.45 2243.78 L1259.28 2243.78 L1259.28 2243.53 L1287.99 2243.53 L1287.99 2243.29 L1316.70 2243.29 L1316.70 2243.16 L1345.41 2243.16 L1345.41 2243.04 L1374.12 2243.04 L1374.12 2243.04 L1402.83 2243.04 L1402.83 2242.92 L1431.54 2242.92 L1431.54 2242.67 L1460.25 2242.67 L1460.25 2242.54 L1488.96 2242.54 L1488.96 2242.42 L1517.67 2242.42 L1517.67 2242.17 L1546.38 2242.17 L1546.38 2241.93 L1575.21 2241.93 L1575.21 2241.80 L1603.92 2241.80 L1603.92 2241.55 L1632.63 2241.55 L1632.63 2241.18 L1661.34 2241.18 L1661.34 2240.94 L1690.05 2240.94 L1690.05 2240.94 L1718.76 2240.94 L1718.76 2240.81 L1747.47 2240.81 L1747.47 2240.69 L1776.18 2240.69 L1776.18 2240.44 L1804.89 2240.44 L1804.89 2240.32 L1833.60 2240.32 L1833.60 2240.19 L1862.31 2240.19 L1862.31 2239.94 L1891.15 2239.94 L1891.15 2239.82 L1919.86 2239.82 L1919.86 2239.45 L1948.57 2239.45 L1948.57 2239.20 L1977.28 2239.20 L1977.28 2239.08 L2005.99 2239.08 L2005.99 2238.83 L2034.70 2238.83 L2034.70 2238.71 L2063.41 2238.71 L2063.41 2238.58 L2092.12 2238.58 L2092.12 2238.46 L2120.83 2238.46 L2120.83 2238.21 L2149.54 2238.21 L2149.54 2237.84 L2178.25 2237.84 L2178.25 2237.72 L2207.08 2237.72 L2207.08 2237.47 L2235.79 2237.47 L2235.79 2237.22 L2264.50 2237.22 L2264.50 2236.97 L2293.21 2236.97 L2293.21 2236.85 L2321.92 2236.85 L2321.92 2236.48 L2350.63 2236.48 L2350.63 2236.48 L2379.34 2236.48 L2379.34 2236.23 L2408.05 2236.23 L2408.05 2235.86 L2436.76 2235.86 L2436.76 2235.86 L2465.47 2235.86 L2465.47 2235.74 L2494.18 2235.74 L2494.18 2235.61 L2523.01 2235.61 L2523.01 2235.37 L2551.72 2235.37 L2551.72 2234.99 L2580.43 2234.99 L2580.43 2234.87 L2609.14 2234.87 L2609.14 2234.75 L2637.86 2234.75 L2637.86 2234.62 L2666.57 2234.62 L2666.57 2234.38 L2695.28 2234.38 L2695.28 2234.25 L2723.99 2234.25 L2723.99 2234.00 L2752.70 2234.00 L2752.70 2233.76 L2781.41 2233.76 L2781.41 2233.51 L2810.11 2233.51 L2810.11 2233.51" stroke-linejoin="round" style="fill:none;stroke:#1A476F;stroke-width:8.64"/>
	<path d=" M914.51 2246.01 L914.51 2246.01 L914.51 2246.01 L943.22 2246.01 L943.22 2245.64 L972.06 2245.64 L972.06 2245.51 L1000.77 2245.51 L1000.77 2245.27 L1029.48 2245.27 L1029.48 2245.02 L1058.19 2245.02 L1058.19 2244.77 L1086.90 2244.77 L1086.90 2244.52 L1115.61 2244.52 L1115.61 2244.40 L1144.32 2244.40 L1144.32 2244.15 L1173.03 2244.15 L1173.03 2243.91 L1201.74 2243.91 L1201.74 2243.66 L1230.45 2243.66 L1230.45 2243.41 L1259.28 2243.41 L1259.28 2243.16 L1287.99 2243.16 L1287.99 2242.92 L1316.70 2242.92 L1316.70 2242.54 L1345.41 2242.54 L1345.41 2242.42 L1374.12 2242.42 L1374.12 2242.05 L1402.83 2242.05 L1402.83 2241.80 L1431.54 2241.80 L1431.54 2241.68 L1460.25 2241.68 L1460.25 2241.43 L1488.96 2241.43 L1488.96 2241.06 L1517.67 2241.06 L1517.67 2240.81 L1546.38 2240.81 L1546.38 2240.56 L1575.21 2240.56 L1575.21 2240.32 L1603.92 2240.32 L1603.92 2240.07 L1632.63 2240.07 L1632.63 2239.82 L1661.34 2239.82 L1661.34 2239.57 L1690.05 2239.57 L1690.05 2239.45 L1718.76 2239.45 L1718.76 2239.33 L1747.47 2239.33 L1747.47 2239.08 L1776.18 2239.08 L1776.18 2238.83 L1804.89 2238.83 L1804.89 2238.58 L1833.60 2238.58 L1833.60 2238.21 L1862.31 2238.21 L1862.31 2237.96 L1891.15 2237.96 L1891.15 2237.84 L1919.86 2237.84 L1919.86 2237.59 L1948.57 2237.59 L1948.57 2237.22 L1977.28 2237.22 L1977.28 2236.97 L2005.99 2236.97 L2005.99 2236.60 L2034.70 2236.60 L2034.70 2236.23 L2063.41 2236.23 L2063.41 2235.86 L2092.12 2235.86 L2092.12 2235.74 L2120.83 2235.74 L2120.83 2235.49 L2149.54 2235.49 L2149.54 2235.24 L2178.25 2235.24 L2178.25 2234.99 L2207.08 2234.99 L2207.08 2234.62 L2235.79 2234.62 L2235.79 2234.38 L2264.50 2234.38 L2264.50 2234.13 L2293.21 2234.13 L2293.21 2233.76 L2321.92 2233.76 L2321.92 2233.39 L2350.63 2233.39 L2350.63 2233.26 L2379.34 2233.26 L2379.34 2233.01 L2408.05 2233.01 L2408.05 2232.77 L2436.76 2232.77 L2436.76 2232.64 L2465.47 2232.64 L2465.47 2232.40 L2494.18 2232.40 L2494.18 2232.15 L2523.01 2232.15 L2523.01 2231.90 L2551.72 2231.90 L2551.72 2231.65 L2580.43 2231.65 L2580.43 2231.28 L2609.14 2231.28 L2609.14 2231.16 L2637.86 2231.16 L2637.86 2230.91 L2666.57 2230.91 L2666.57 2230.79 L2695.28 2230.79 L2695.28 2230.54 L2723.99 2230.54 L2723.99 2230.17 L2752.70 2230.17 L2752.70 2230.04 L2781.41 2230.04 L2781.41 2229.80 L2810.11 2229.80 L2810.11 2229.55" stroke-linejoin="round" style="fill:none;stroke:#90353B;stroke-width:8.64"/>
	<line x1="851.28" y1="2309.25" x2="851.28" y2="490.93" style="stroke:#000000;stroke-width:5.76"/>
	<line x1="851.28" y1="2245.89" x2="811.30" y2="2245.89" style="stroke:#000000;stroke-width:5.76"/>
	<text x="791.26" y="2273.90" style="font-family:'Helvetica';font-size:79.94px;fill:#000000" text-anchor="end">0.000</text>
	<text x="914.64" y="2747.83" style="font-family:'Helvetica';font-size:60.02px;fill:#000000" text-anchor="middle">105249</text>
	<text x="1489.08" y="2747.83" style="font-family:'Helvetica';font-size:60.02px;fill:#000000" text-anchor="middle">104963</text>
	<text x="2063.53" y="2747.83" style="font-family:'Helvetica';font-size:60.02px;fill:#000000" text-anchor="middle">104491</text>
	<text x="2637.86" y="2747.83" style="font-family:'Helvetica';font-size:60.02px;fill:#000000" text-anchor="middle">104028</text>
	<text x="3212.30" y="2747.83" style="font-family:'Helvetica';font-size:60.02px;fill:#000000" text-anchor="middle">0</text>
	<text x="3786.75" y="2747.83" style="font-family:'Helvetica';font-size:60.02px;fill:#000000" text-anchor="middle">0</text>
	<text x="770.96" y="2747.83" style="font-family:'Helvetica';font-size:60.02px;fill:#000000" text-anchor="end">ICS Combination</text>
	<text x="914.64" y="2674.44" style="font-family:'Helvetica';font-size:60.02px;fill:#000000" text-anchor="middle">43308</text>
	<text x="1489.08" y="2674.44" style="font-family:'Helvetica';font-size:60.02px;fill:#000000" text-anchor="middle">43222</text>
	<text x="2063.53" y="2674.44" style="font-family:'Helvetica';font-size:60.02px;fill:#000000" text-anchor="middle">43088</text>
	<text x="2637.86" y="2674.44" style="font-family:'Helvetica';font-size:60.02px;fill:#000000" text-anchor="middle">42942</text>
	<text x="3212.30" y="2674.44" style="font-family:'Helvetica';font-size:60.02px;fill:#000000" text-anchor="middle">0</text>
	<text x="3786.75" y="2674.44" style="font-family:'Helvetica';font-size:60.02px;fill:#000000" text-anchor="middle">0</text>
	<text x="770.96" y="2674.44" style="font-family:'Helvetica';font-size:60.02px;fill:#000000" text-anchor="end">LABA/LAMA Combination</text>
	<text x="770.96" y="2601.18" style="font-family:'Helvetica';font-size:60.02px;fill:#000000" text-anchor="end">Number at risk</text>
	<line x1="851.28" y1="2309.25" x2="3850.11" y2="2309.25" style="stroke:#000000;stroke-width:5.76"/>
	<line x1="914.64" y1="2309.25" x2="914.64" y2="2349.22" style="stroke:#000000;stroke-width:5.76"/>
	<text x="914.64" y="2425.17" style="font-family:'Helvetica';font-size:79.94px;fill:#000000" text-anchor="middle">0</text>
	<line x1="1489.08" y1="2309.25" x2="1489.08" y2="2349.22" style="stroke:#000000;stroke-width:5.76"/>
	<text x="1489.08" y="2425.17" style="font-family:'Helvetica';font-size:79.94px;fill:#000000" text-anchor="middle">20</text>
	<line x1="2063.53" y1="2309.25" x2="2063.53" y2="2349.22" style="stroke:#000000;stroke-width:5.76"/>
	<text x="2063.53" y="2425.17" style="font-family:'Helvetica';font-size:79.94px;fill:#000000" text-anchor="middle">40</text>
	<line x1="2637.86" y1="2309.25" x2="2637.86" y2="2349.22" style="stroke:#000000;stroke-width:5.76"/>
	<text x="2637.86" y="2425.17" style="font-family:'Helvetica';font-size:79.94px;fill:#000000" text-anchor="middle">60</text>
	<line x1="3212.30" y1="2309.25" x2="3212.30" y2="2349.22" style="stroke:#000000;stroke-width:5.76"/>
	<text x="3212.30" y="2425.17" style="font-family:'Helvetica';font-size:79.94px;fill:#000000" text-anchor="middle">80</text>
	<line x1="3786.75" y1="2309.25" x2="3786.75" y2="2349.22" style="stroke:#000000;stroke-width:5.76"/>
	<text x="3786.75" y="2425.17" style="font-family:'Helvetica';font-size:79.94px;fill:#000000" text-anchor="middle">100</text>
	<text x="2350.76" y="2515.14" style="font-family:'Helvetica';font-size:79.94px;fill:#000000" text-anchor="middle">Days since 1 Mar 2020</text>
	<rect x="1264.11" y="269.91" width="2173.17" height="186.37" style="fill:#FFFFFF"/>
	<rect x="1266.99" y="272.79" width="2167.41" height="180.61" style="fill:none;stroke:#EAF2F3;stroke-width:5.76"/>
	<line x1="1307.30" y1="363.09" x2="1681.76" y2="363.09" style="stroke:#90353B;stroke-width:8.64"/>
	<line x1="2303.48" y1="363.09" x2="2677.83" y2="363.09" style="stroke:#1A476F;stroke-width:8.64"/>
	<text x="1741.78" y="384.13" style="font-family:'Helvetica';font-size:60.02px;fill:#000000">ICS Combination</text>
	<text x="2737.84" y="384.13" style="font-family:'Helvetica';font-size:60.02px;fill:#000000">LABA/LAMA Combination</text>
	<text x="1246.78" y="187.99" style="font-family:'Helvetica';font-size:99.99px;fill:#1E2D53">Time to Non-COVID Death in ONS, COPD population</text>
</svg>
