<?xml version="1.0" encoding="UTF-8" standalone="no"?>
<!-- This is a Stata 16.1 generated SVG file (http://www.stata.com) -->

<svg version="1.1" width="5.50in" height="4.00in" viewBox="0 0 3960 2880" xmlns="http://www.w3.org/2000/svg" xmlns:xlink="http://www.w3.org/1999/xlink">
	<desc>Stata Graph - Graph</desc>
	<rect x="0" y="0" width="3960" height="2880" style="fill:#EAF2F3;stroke:none"/>
	<rect x="0.00" y="0.00" width="3959.88" height="2880.00" style="fill:#FFFFFF"/>
	<rect x="2.88" y="2.88" width="3954.12" height="2874.24" style="fill:none;stroke:#EAF2F3;stroke-width:5.76"/>
	<rect x="902.51" y="490.93" width="2938.32" height="1818.32" style="fill:#FFFFFF"/>
	<rect x="905.39" y="493.81" width="2932.56" height="1812.56" style="fill:none;stroke:#FFFFFF;stroke-width:5.76"/>
	<line x1="902.51" y1="2245.89" x2="3840.83" y2="2245.89" style="stroke:#EAF2F3;stroke-width:8.64"/>
	<path d=" M965.75 2246.01 L965.75 2246.01 L965.75 2246.01 L993.84 2246.01 L993.84 2245.76 L1022.05 2245.76 L1022.05 2245.51 L1050.14 2245.51 L1050.14 2245.39 L1078.23 2245.39 L1078.23 2245.27 L1106.33 2245.27 L1106.33 2245.14 L1134.42 2245.14 L1134.42 2244.90 L1162.63 2244.90 L1162.63 2244.77 L1190.72 2244.77 L1190.72 2244.52 L1218.81 2244.52 L1218.81 2244.28 L1246.90 2244.28 L1246.90 2244.03 L1275.00 2244.03 L1275.00 2243.78 L1303.21 2243.78 L1303.21 2243.53 L1331.30 2243.53 L1331.30 2243.41 L1359.39 2243.41 L1359.39 2243.16 L1387.48 2243.16 L1387.48 2243.16 L1415.58 2243.16 L1415.58 2243.04 L1443.79 2243.04 L1443.79 2242.92 L1471.88 2242.92 L1471.88 2242.79 L1499.97 2242.79 L1499.97 2242.67 L1528.07 2242.67 L1528.07 2242.42 L1556.16 2242.42 L1556.16 2242.30 L1584.37 2242.30 L1584.37 2241.93 L1612.46 2241.93 L1612.46 2241.80 L1640.55 2241.80 L1640.55 2241.68 L1668.64 2241.68 L1668.64 2241.31 L1696.74 2241.31 L1696.74 2240.94 L1724.95 2240.94 L1724.95 2240.94 L1753.04 2240.94 L1753.04 2240.81 L1781.13 2240.81 L1781.13 2240.81 L1809.22 2240.81 L1809.22 2240.56 L1837.32 2240.56 L1837.32 2240.32 L1865.53 2240.32 L1865.53 2240.19 L1893.62 2240.19 L1893.62 2239.94 L1921.71 2239.94 L1921.71 2239.82 L1949.81 2239.82 L1949.81 2239.57 L1977.90 2239.57 L1977.90 2239.33 L2006.11 2239.33 L2006.11 2239.20 L2034.20 2239.20 L2034.20 2238.95 L2062.29 2238.95 L2062.29 2238.83 L2090.39 2238.83 L2090.39 2238.71 L2118.48 2238.71 L2118.48 2238.58 L2146.69 2238.58 L2146.69 2238.34 L2174.78 2238.34 L2174.78 2237.96 L2202.87 2237.96 L2202.87 2237.84 L2230.97 2237.84 L2230.97 2237.72 L2259.06 2237.72 L2259.06 2237.35 L2287.27 2237.35 L2287.27 2237.22 L2315.36 2237.22 L2315.36 2237.10 L2343.45 2237.10 L2343.45 2236.73 L2371.55 2236.73 L2371.55 2236.60 L2399.64 2236.60 L2399.64 2236.48 L2427.85 2236.48 L2427.85 2236.11 L2455.94 2236.11 L2455.94 2236.11 L2484.03 2236.11 L2484.03 2235.98 L2512.13 2235.98 L2512.13 2235.86 L2540.22 2235.86 L2540.22 2235.61 L2568.43 2235.61 L2568.43 2235.24 L2596.52 2235.24 L2596.52 2235.12 L2624.61 2235.12 L2624.61 2234.99 L2652.70 2234.99 L2652.70 2234.87 L2680.80 2234.87 L2680.80 2234.75 L2709.01 2234.75 L2709.01 2234.50 L2737.10 2234.50 L2737.10 2234.50 L2765.19 2234.50 L2765.19 2234.25 L2793.28 2234.25 L2793.28 2234.13 L2821.38 2234.13 L2821.38 2234.00" stroke-linejoin="round" style="fill:none;stroke:#1A476F;stroke-width:8.64"/>
	<path d=" M965.75 2246.01 L965.75 2246.01 L965.75 2246.01 L993.84 2246.01 L993.84 2245.64 L1022.05 2245.64 L1022.05 2245.51 L1050.14 2245.51 L1050.14 2245.27 L1078.23 2245.27 L1078.23 2245.02 L1106.33 2245.02 L1106.33 2244.77 L1134.42 2244.77 L1134.42 2244.52 L1162.63 2244.52 L1162.63 2244.40 L1190.72 2244.40 L1190.72 2244.03 L1218.81 2244.03 L1218.81 2243.91 L1246.90 2243.91 L1246.90 2243.78 L1275.00 2243.78 L1275.00 2243.41 L1303.21 2243.41 L1303.21 2243.16 L1331.30 2243.16 L1331.30 2242.92 L1359.39 2242.92 L1359.39 2242.67 L1387.48 2242.67 L1387.48 2242.54 L1415.58 2242.54 L1415.58 2242.17 L1443.79 2242.17 L1443.79 2241.93 L1471.88 2241.93 L1471.88 2241.68 L1499.97 2241.68 L1499.97 2241.43 L1528.07 2241.43 L1528.07 2241.06 L1556.16 2241.06 L1556.16 2240.81 L1584.37 2240.81 L1584.37 2240.56 L1612.46 2240.56 L1612.46 2240.32 L1640.55 2240.32 L1640.55 2240.07 L1668.64 2240.07 L1668.64 2239.82 L1696.74 2239.82 L1696.74 2239.57 L1724.95 2239.57 L1724.95 2239.45 L1753.04 2239.45 L1753.04 2239.33 L1781.13 2239.33 L1781.13 2239.08 L1809.22 2239.08 L1809.22 2238.95 L1837.32 2238.95 L1837.32 2238.58 L1865.53 2238.58 L1865.53 2238.34 L1893.62 2238.34 L1893.62 2238.09 L1921.71 2238.09 L1921.71 2237.84 L1949.81 2237.84 L1949.81 2237.59 L1977.90 2237.59 L1977.90 2237.35 L2006.11 2237.35 L2006.11 2237.10 L2034.20 2237.10 L2034.20 2236.60 L2062.29 2236.60 L2062.29 2236.36 L2090.39 2236.36 L2090.39 2235.98 L2118.48 2235.98 L2118.48 2235.74 L2146.69 2235.74 L2146.69 2235.49 L2174.78 2235.49 L2174.78 2235.24 L2202.87 2235.24 L2202.87 2234.99 L2230.97 2234.99 L2230.97 2234.75 L2259.06 2234.75 L2259.06 2234.50 L2287.27 2234.50 L2287.27 2234.25 L2315.36 2234.25 L2315.36 2233.88 L2343.45 2233.88 L2343.45 2233.63 L2371.55 2233.63 L2371.55 2233.39 L2399.64 2233.39 L2399.64 2233.14 L2427.85 2233.14 L2427.85 2233.01 L2455.94 2233.01 L2455.94 2232.77 L2484.03 2232.77 L2484.03 2232.52 L2512.13 2232.52 L2512.13 2232.40 L2540.22 2232.40 L2540.22 2232.15 L2568.43 2232.15 L2568.43 2231.90 L2596.52 2231.90 L2596.52 2231.53 L2624.61 2231.53 L2624.61 2231.41 L2652.70 2231.41 L2652.70 2231.28 L2680.80 2231.28 L2680.80 2231.16 L2709.01 2231.16 L2709.01 2231.03 L2737.10 2231.03 L2737.10 2230.66 L2765.19 2230.66 L2765.19 2230.54 L2793.28 2230.54 L2793.28 2230.42 L2821.38 2230.42 L2821.38 2230.29" stroke-linejoin="round" style="fill:none;stroke:#90353B;stroke-width:8.64"/>
	<line x1="902.51" y1="2309.25" x2="902.51" y2="490.93" style="stroke:#000000;stroke-width:5.76"/>
	<line x1="902.51" y1="2245.89" x2="862.54" y2="2245.89" style="stroke:#000000;stroke-width:5.76"/>
	<text x="842.49" y="2273.90" style="font-family:'Helvetica';font-size:79.94px;fill:#000000" text-anchor="end">0.000</text>
	<text x="965.87" y="2747.83" style="font-family:'Helvetica';font-size:60.02px;fill:#000000" text-anchor="middle">105210</text>
	<text x="1528.19" y="2747.83" style="font-family:'Helvetica';font-size:60.02px;fill:#000000" text-anchor="middle">104926</text>
	<text x="2090.51" y="2747.83" style="font-family:'Helvetica';font-size:60.02px;fill:#000000" text-anchor="middle">104455</text>
	<text x="2652.83" y="2747.83" style="font-family:'Helvetica';font-size:60.02px;fill:#000000" text-anchor="middle">104008</text>
	<text x="3215.15" y="2747.83" style="font-family:'Helvetica';font-size:60.02px;fill:#000000" text-anchor="middle">0</text>
	<text x="3777.47" y="2747.83" style="font-family:'Helvetica';font-size:60.02px;fill:#000000" text-anchor="middle">0</text>
	<text x="825.29" y="2747.83" style="font-family:'Helvetica';font-size:60.02px;fill:#000000" text-anchor="end">ICS Combination</text>
	<text x="965.87" y="2674.44" style="font-family:'Helvetica';font-size:60.02px;fill:#000000" text-anchor="middle">43278</text>
	<text x="1528.19" y="2674.44" style="font-family:'Helvetica';font-size:60.02px;fill:#000000" text-anchor="middle">43193</text>
	<text x="2090.51" y="2674.44" style="font-family:'Helvetica';font-size:60.02px;fill:#000000" text-anchor="middle">43061</text>
	<text x="2652.83" y="2674.44" style="font-family:'Helvetica';font-size:60.02px;fill:#000000" text-anchor="middle">42919</text>
	<text x="3215.15" y="2674.44" style="font-family:'Helvetica';font-size:60.02px;fill:#000000" text-anchor="middle">0</text>
	<text x="3777.47" y="2674.44" style="font-family:'Helvetica';font-size:60.02px;fill:#000000" text-anchor="middle">0</text>
	<text x="825.29" y="2674.44" style="font-family:'Helvetica';font-size:60.02px;fill:#000000" text-anchor="end">LABA/LAMA Combination</text>
	<text x="825.29" y="2601.18" style="font-family:'Helvetica';font-size:60.02px;fill:#000000" text-anchor="end">Number at risk</text>
	<line x1="902.51" y1="2309.25" x2="3840.83" y2="2309.25" style="stroke:#000000;stroke-width:5.76"/>
	<line x1="965.87" y1="2309.25" x2="965.87" y2="2349.22" style="stroke:#000000;stroke-width:5.76"/>
	<text x="965.87" y="2425.17" style="font-family:'Helvetica';font-size:79.94px;fill:#000000" text-anchor="middle">0</text>
	<line x1="1528.19" y1="2309.25" x2="1528.19" y2="2349.22" style="stroke:#000000;stroke-width:5.76"/>
	<text x="1528.19" y="2425.17" style="font-family:'Helvetica';font-size:79.94px;fill:#000000" text-anchor="middle">20</text>
	<line x1="2090.51" y1="2309.25" x2="2090.51" y2="2349.22" style="stroke:#000000;stroke-width:5.76"/>
	<text x="2090.51" y="2425.17" style="font-family:'Helvetica';font-size:79.94px;fill:#000000" text-anchor="middle">40</text>
	<line x1="2652.83" y1="2309.25" x2="2652.83" y2="2349.22" style="stroke:#000000;stroke-width:5.76"/>
	<text x="2652.83" y="2425.17" style="font-family:'Helvetica';font-size:79.94px;fill:#000000" text-anchor="middle">60</text>
	<line x1="3215.15" y1="2309.25" x2="3215.15" y2="2349.22" style="stroke:#000000;stroke-width:5.76"/>
	<text x="3215.15" y="2425.17" style="font-family:'Helvetica';font-size:79.94px;fill:#000000" text-anchor="middle">80</text>
	<line x1="3777.47" y1="2309.25" x2="3777.47" y2="2349.22" style="stroke:#000000;stroke-width:5.76"/>
	<text x="3777.47" y="2425.17" style="font-family:'Helvetica';font-size:79.94px;fill:#000000" text-anchor="middle">100</text>
	<text x="2371.67" y="2515.14" style="font-family:'Helvetica';font-size:79.94px;fill:#000000" text-anchor="middle">Days since 1 Mar 2020</text>
	<rect x="1236.14" y="269.91" width="2271.06" height="186.37" style="fill:#FFFFFF"/>
	<rect x="1239.02" y="272.79" width="2265.30" height="180.61" style="fill:none;stroke:#EAF2F3;stroke-width:5.76"/>
	<line x1="1279.33" y1="363.09" x2="1653.67" y2="363.09" style="stroke:#90353B;stroke-width:8.64"/>
	<line x1="2322.66" y1="363.09" x2="2697.01" y2="363.09" style="stroke:#1A476F;stroke-width:8.64"/>
	<text x="1713.69" y="384.13" style="font-family:'Helvetica';font-size:60.02px;fill:#000000">ICS Combination</text>
	<text x="2757.03" y="384.13" style="font-family:'Helvetica';font-size:60.02px;fill:#000000">LABA/LAMA Combination</text>
	<text x="1140.85" y="187.99" style="font-family:'Helvetica';font-size:99.99px;fill:#1E2D53">Time to Non-COVID Death in ONS, COPD population</text>
</svg>
