<?xml version="1.0" encoding="UTF-8" standalone="no"?>
<!-- This is a Stata 16.1 generated SVG file (http://www.stata.com) -->

<svg version="1.1" width="5.50in" height="4.00in" viewBox="0 0 3960 2880" xmlns="http://www.w3.org/2000/svg" xmlns:xlink="http://www.w3.org/1999/xlink">
	<desc>Stata Graph - Graph</desc>
	<rect x="0" y="0" width="3960" height="2880" style="fill:#EAF2F3;stroke:none"/>
	<rect x="0.00" y="0.00" width="3959.88" height="2880.00" style="fill:#FFFFFF"/>
	<rect x="2.88" y="2.88" width="3954.12" height="2874.24" style="fill:none;stroke:#EAF2F3;stroke-width:5.76"/>
	<rect x="816.25" y="630.90" width="3033.86" height="1604.96" style="fill:#FFFFFF"/>
	<rect x="819.13" y="633.78" width="3028.10" height="1599.20" style="fill:none;stroke:#FFFFFF;stroke-width:5.76"/>
	<line x1="816.25" y1="2172.62" x2="3850.11" y2="2172.62" style="stroke:#EAF2F3;stroke-width:8.64"/>
	<line x1="816.25" y1="1500.64" x2="3850.11" y2="1500.64" style="stroke:#EAF2F3;stroke-width:8.64"/>
	<line x1="816.25" y1="828.66" x2="3850.11" y2="828.66" style="stroke:#EAF2F3;stroke-width:8.64"/>
	<path d=" M879.62 2172.62 L879.62 2172.62 L879.62 2172.62 L879.62 2172.62 L879.62 2172.62 L908.57 2172.62 L908.57 2172.62 L937.65 2172.62 L937.65 2172.62 L966.74 2172.62 L966.74 2172.62 L995.82 2172.62 L995.82 2172.62 L1024.90 2172.62 L1024.90 2172.62 L1053.98 2172.62 L1053.98 2172.62 L1083.06 2172.62 L1083.06 2172.62 L1112.14 2172.62 L1112.14 2172.62 L1141.22 2172.62 L1141.22 2172.62 L1170.30 2172.62 L1170.30 2172.62 L1199.38 2172.62 L1199.38 2172.62 L1228.47 2172.62 L1228.47 2172.62 L1257.55 2172.62 L1257.55 2172.62 L1286.51 2172.62 L1286.51 2172.62 L1315.59 2172.62 L1315.59 2172.62 L1344.67 2172.62 L1344.67 2172.62 L1373.75 2172.62 L1373.75 2172.62 L1402.83 2172.62 L1402.83 2120.89 L1431.91 2120.89 L1431.91 2120.89 L1460.99 2120.89 L1460.99 2120.89 L1490.07 2120.89 L1490.07 2104.56 L1519.15 2104.56 L1519.15 2099.61 L1548.24 2099.61 L1548.24 2069.78 L1577.32 2069.78 L1577.32 2023.38 L1606.40 2023.38 L1606.40 2023.38 L1635.48 2023.38 L1635.48 2016.94 L1664.44 2016.94 L1664.44 2008.77 L1693.52 2008.77 L1693.52 2008.77 L1722.60 2008.77 L1722.60 1998.01 L1751.68 1998.01 L1751.68 1940.21 L1780.76 1940.21 L1780.76 1940.21 L1809.84 1940.21 L1809.84 1940.21 L1838.92 1940.21 L1838.92 1885.02 L1868.01 1885.02 L1868.01 1867.57 L1897.09 1867.57 L1897.09 1813.86 L1926.17 1813.86 L1926.17 1781.93 L1955.25 1781.93 L1955.25 1750.37 L1984.33 1750.37 L1984.33 1735.77 L2013.29 1735.77 L2013.29 1697.41 L2042.37 1697.41 L2042.37 1680.33 L2071.45 1680.33 L2071.45 1669.56 L2100.53 1669.56 L2100.53 1661.27 L2129.61 1661.27 L2129.61 1648.90 L2158.70 1648.90 L2158.70 1648.90 L2187.78 1648.90 L2187.78 1634.05 L2216.86 1634.05 L2216.86 1559.79 L2245.94 1559.79 L2245.94 1508.68 L2275.02 1508.68 L2275.02 1508.68 L2304.10 1508.68 L2304.10 1443.59 L2333.18 1443.59 L2333.18 1408.32 L2362.26 1408.32 L2362.26 1384.81 L2391.22 1384.81 L2391.22 1359.06 L2420.30 1359.06 L2420.30 1320.70 L2449.38 1320.70 L2449.38 1271.08 L2478.47 1271.08 L2478.47 1245.95 L2507.55 1245.95 L2507.55 1233.58 L2536.63 1233.58 L2536.63 1233.58 L2565.71 1233.58 L2565.71 1233.58 L2594.79 1233.58 L2594.79 1224.54 L2623.87 1224.54 L2623.87 1224.54 L2652.95 1224.54 L2652.95 1205.12 L2682.03 1205.12 L2682.03 1154.87 L2711.11 1154.87 L2711.11 1142.74 L2740.20 1142.74 L2740.20 1130.49 L2798.24 1130.49 L2798.24 1130.49" stroke-linejoin="round" style="fill:none;stroke:#1A476F;stroke-width:8.64"/>
	<path d=" M879.62 2172.62 L879.62 2172.62 L879.62 2172.62 L879.62 2172.62 L879.62 2172.62 L908.57 2172.62 L908.57 2172.62 L937.65 2172.62 L937.65 2172.62 L966.74 2172.62 L966.74 2172.62 L995.82 2172.62 L995.82 2172.62 L1024.90 2172.62 L1024.90 2170.64 L1053.98 2170.64 L1053.98 2170.64 L1083.06 2170.64 L1083.06 2170.64 L1112.14 2170.64 L1112.14 2170.64 L1141.22 2170.64 L1141.22 2170.64 L1170.30 2170.64 L1170.30 2170.64 L1199.38 2170.64 L1199.38 2170.64 L1228.47 2170.64 L1228.47 2170.64 L1257.55 2170.64 L1257.55 2170.64 L1286.51 2170.64 L1286.51 2170.64 L1315.59 2170.64 L1315.59 2170.64 L1344.67 2170.64 L1344.67 2167.30 L1373.75 2167.30 L1373.75 2167.30 L1402.83 2167.30 L1402.83 2162.85 L1431.91 2162.85 L1431.91 2162.85 L1460.99 2162.85 L1460.99 2160.99 L1490.07 2160.99 L1490.07 2157.03 L1519.15 2157.03 L1519.15 2147.50 L1548.24 2147.50 L1548.24 2143.79 L1577.32 2143.79 L1577.32 2137.11 L1606.40 2137.11 L1606.40 2124.11 L1635.48 2124.11 L1635.48 2114.71 L1664.44 2114.71 L1664.44 2103.69 L1693.52 2103.69 L1693.52 2080.92 L1722.60 2080.92 L1722.60 2059.39 L1751.68 2059.39 L1751.68 2041.57 L1780.76 2041.57 L1780.76 2010.88 L1809.84 2010.88 L1809.84 1973.01 L1838.92 1973.01 L1838.92 1948.01 L1868.01 1948.01 L1868.01 1917.69 L1897.09 1917.69 L1897.09 1872.89 L1926.17 1872.89 L1926.17 1848.02 L1955.25 1848.02 L1955.25 1804.08 L1984.33 1804.08 L1984.33 1760.03 L2013.29 1760.03 L2013.29 1734.16 L2042.37 1734.16 L2042.37 1689.36 L2071.45 1689.36 L2071.45 1659.17 L2100.53 1659.17 L2100.53 1625.88 L2129.61 1625.88 L2129.61 1607.32 L2158.70 1607.32 L2158.70 1585.04 L2187.78 1585.04 L2187.78 1567.22 L2216.86 1567.22 L2216.86 1531.95 L2245.94 1531.95 L2245.94 1492.72 L2275.02 1492.72 L2275.02 1472.30 L2304.10 1472.30 L2304.10 1447.30 L2333.18 1447.30 L2333.18 1427.38 L2362.26 1427.38 L2362.26 1402.13 L2391.22 1402.13 L2391.22 1381.09 L2420.30 1381.09 L2420.30 1354.24 L2449.38 1354.24 L2449.38 1316.99 L2478.47 1316.99 L2478.47 1292.24 L2507.55 1292.24 L2507.55 1287.04 L2536.63 1287.04 L2536.63 1271.69 L2565.71 1271.69 L2565.71 1262.41 L2594.79 1262.41 L2594.79 1248.31 L2623.87 1248.31 L2623.87 1238.78 L2652.95 1238.78 L2652.95 1221.20 L2682.03 1221.20 L2682.03 1197.57 L2711.11 1197.57 L2711.11 1188.28 L2740.20 1188.28 L2740.20 1166.38 L2769.15 1166.38 L2769.15 1152.27 L2798.24 1152.27 L2798.24 1143.61" stroke-linejoin="round" style="fill:none;stroke:#90353B;stroke-width:8.64"/>
	<path d=" M879.62 2172.62 L879.62 2172.62 L879.62 2172.62 L879.62 2172.62 L879.62 2172.62 L908.57 2172.62 L908.57 2172.62 L937.65 2172.62 L937.65 2172.62 L966.74 2172.62 L966.74 2172.62 L995.82 2172.62 L995.82 2172.62 L1024.90 2172.62 L1024.90 2172.62 L1053.98 2172.62 L1053.98 2172.62 L1083.06 2172.62 L1083.06 2172.62 L1112.14 2172.62 L1112.14 2172.62 L1141.22 2172.62 L1141.22 2172.62 L1170.30 2172.62 L1170.30 2172.62 L1199.38 2172.62 L1199.38 2172.62 L1228.47 2172.62 L1228.47 2172.62 L1257.55 2172.62 L1257.55 2172.62 L1286.51 2172.62 L1286.51 2172.62 L1315.59 2172.62 L1315.59 2172.62 L1344.67 2172.62 L1344.67 2172.62 L1373.75 2172.62 L1373.75 2172.62 L1402.83 2172.62 L1402.83 2172.62 L1431.91 2172.62 L1431.91 2159.50 L1460.99 2159.50 L1460.99 2146.51 L1490.07 2146.51 L1490.07 2146.51 L1519.15 2146.51 L1519.15 2146.51 L1548.24 2146.51 L1548.24 2133.39 L1577.32 2133.39 L1577.32 2107.16 L1606.40 2107.16 L1606.40 2081.05 L1635.48 2081.05 L1635.48 2054.81 L1664.44 2054.81 L1664.44 2015.58 L1693.52 2015.58 L1693.52 1989.47 L1722.60 1989.47 L1722.60 1989.47 L1751.68 1989.47 L1751.68 1963.23 L1780.76 1963.23 L1780.76 1963.23 L1809.84 1963.23 L1809.84 1924.00 L1838.92 1924.00 L1838.92 1884.77 L1868.01 1884.77 L1868.01 1806.19 L1897.09 1806.19 L1897.09 1740.72 L1926.17 1740.72 L1926.17 1701.49 L1955.25 1701.49 L1955.25 1649.14 L1984.33 1649.14 L1984.33 1609.79 L2013.29 1609.79 L2013.29 1544.32 L2042.37 1544.32 L2042.37 1491.98 L2071.45 1491.98 L2071.45 1452.75 L2100.53 1452.75 L2100.53 1439.63 L2129.61 1439.63 L2129.61 1400.40 L2158.70 1400.40 L2158.70 1374.16 L2187.78 1374.16 L2187.78 1334.81 L2216.86 1334.81 L2216.86 1269.34 L2245.94 1269.34 L2245.94 1243.23 L2275.02 1243.23 L2275.02 1190.76 L2304.10 1190.76 L2304.10 1164.65 L2333.18 1164.65 L2333.18 1125.29 L2362.26 1125.29 L2362.26 1059.83 L2391.22 1059.83 L2391.22 1033.59 L2449.38 1033.59 L2449.38 994.36 L2478.47 994.36 L2478.47 981.24 L2507.55 981.24 L2507.55 955.01 L2536.63 955.01 L2536.63 928.90 L2565.71 928.90 L2565.71 902.66 L2594.79 902.66 L2594.79 850.31 L2623.87 850.31 L2623.87 837.19 L2652.95 837.19 L2652.95 824.08 L2682.03 824.08 L2682.03 797.84 L2711.11 797.84 L2711.11 797.84 L2740.20 797.84 L2740.20 797.84 L2769.15 797.84 L2769.15 758.61 L2798.24 758.61 L2798.24 732.38" stroke-linejoin="round" style="fill:none;stroke:#55752F;stroke-width:8.64"/>
	<line x1="816.25" y1="2235.86" x2="816.25" y2="630.90" style="stroke:#000000;stroke-width:5.76"/>
	<line x1="816.25" y1="2172.62" x2="776.28" y2="2172.62" style="stroke:#000000;stroke-width:5.76"/>
	<text x="756.24" y="2200.63" style="font-family:'Helvetica';font-size:79.94px;fill:#000000" text-anchor="end">0.0000</text>
	<line x1="816.25" y1="1500.64" x2="776.28" y2="1500.64" style="stroke:#000000;stroke-width:5.76"/>
	<text x="756.24" y="1528.65" style="font-family:'Helvetica';font-size:79.94px;fill:#000000" text-anchor="end">0.0005</text>
	<line x1="816.25" y1="828.66" x2="776.28" y2="828.66" style="stroke:#000000;stroke-width:5.76"/>
	<text x="756.24" y="856.67" style="font-family:'Helvetica';font-size:79.94px;fill:#000000" text-anchor="end">0.0010</text>
	<text x="879.62" y="2747.83" style="font-family:'Helvetica';font-size:60.02px;fill:#000000" text-anchor="middle">102787</text>
	<text x="1460.99" y="2747.83" style="font-family:'Helvetica';font-size:60.02px;fill:#000000" text-anchor="middle">102726</text>
	<text x="2042.49" y="2747.83" style="font-family:'Helvetica';font-size:60.02px;fill:#000000" text-anchor="middle">102602</text>
	<text x="2623.87" y="2747.83" style="font-family:'Helvetica';font-size:60.02px;fill:#000000" text-anchor="middle">102495</text>
	<text x="3205.37" y="2747.83" style="font-family:'Helvetica';font-size:60.02px;fill:#000000" text-anchor="middle">0</text>
	<text x="3786.75" y="2747.83" style="font-family:'Helvetica';font-size:60.02px;fill:#000000" text-anchor="middle">0</text>
	<text x="734.21" y="2747.83" style="font-family:'Helvetica';font-size:60.02px;fill:#000000" text-anchor="end">ICS (High Dose)</text>
	<text x="879.62" y="2674.44" style="font-family:'Helvetica';font-size:60.02px;fill:#000000" text-anchor="middle">102830</text>
	<text x="1460.99" y="2674.44" style="font-family:'Helvetica';font-size:60.02px;fill:#000000" text-anchor="middle">102776.5</text>
	<text x="2042.49" y="2674.44" style="font-family:'Helvetica';font-size:60.02px;fill:#000000" text-anchor="middle">102678.8</text>
	<text x="2623.87" y="2674.44" style="font-family:'Helvetica';font-size:60.02px;fill:#000000" text-anchor="middle">102583.4</text>
	<text x="3205.37" y="2674.44" style="font-family:'Helvetica';font-size:60.02px;fill:#000000" text-anchor="middle">0</text>
	<text x="3786.75" y="2674.44" style="font-family:'Helvetica';font-size:60.02px;fill:#000000" text-anchor="middle">0</text>
	<text x="734.21" y="2674.44" style="font-family:'Helvetica';font-size:60.02px;fill:#000000" text-anchor="end">ICS (Low/Medium Dose)</text>
	<text x="879.62" y="2601.18" style="font-family:'Helvetica';font-size:60.02px;fill:#000000" text-anchor="middle">103673.4</text>
	<text x="1460.99" y="2601.18" style="font-family:'Helvetica';font-size:60.02px;fill:#000000" text-anchor="middle">103585.5</text>
	<text x="2042.49" y="2601.18" style="font-family:'Helvetica';font-size:60.02px;fill:#000000" text-anchor="middle">103467.3</text>
	<text x="2623.87" y="2601.18" style="font-family:'Helvetica';font-size:60.02px;fill:#000000" text-anchor="middle">103355.8</text>
	<text x="3205.37" y="2601.18" style="font-family:'Helvetica';font-size:60.02px;fill:#000000" text-anchor="middle">0</text>
	<text x="3786.75" y="2601.18" style="font-family:'Helvetica';font-size:60.02px;fill:#000000" text-anchor="middle">0</text>
	<text x="734.21" y="2601.18" style="font-family:'Helvetica';font-size:60.02px;fill:#000000" text-anchor="end">SABA only</text>
	<text x="734.21" y="2527.80" style="font-family:'Helvetica';font-size:60.02px;fill:#000000" text-anchor="end">Number at risk</text>
	<line x1="816.25" y1="2235.86" x2="3850.11" y2="2235.86" style="stroke:#000000;stroke-width:5.76"/>
	<line x1="879.62" y1="2235.86" x2="879.62" y2="2275.96" style="stroke:#000000;stroke-width:5.76"/>
	<text x="879.62" y="2351.78" style="font-family:'Helvetica';font-size:79.94px;fill:#000000" text-anchor="middle">0</text>
	<line x1="1460.99" y1="2235.86" x2="1460.99" y2="2275.96" style="stroke:#000000;stroke-width:5.76"/>
	<text x="1460.99" y="2351.78" style="font-family:'Helvetica';font-size:79.94px;fill:#000000" text-anchor="middle">20</text>
	<line x1="2042.49" y1="2235.86" x2="2042.49" y2="2275.96" style="stroke:#000000;stroke-width:5.76"/>
	<text x="2042.49" y="2351.78" style="font-family:'Helvetica';font-size:79.94px;fill:#000000" text-anchor="middle">40</text>
	<line x1="2623.87" y1="2235.86" x2="2623.87" y2="2275.96" style="stroke:#000000;stroke-width:5.76"/>
	<text x="2623.87" y="2351.78" style="font-family:'Helvetica';font-size:79.94px;fill:#000000" text-anchor="middle">60</text>
	<line x1="3205.37" y1="2235.86" x2="3205.37" y2="2275.96" style="stroke:#000000;stroke-width:5.76"/>
	<text x="3205.37" y="2351.78" style="font-family:'Helvetica';font-size:79.94px;fill:#000000" text-anchor="middle">80</text>
	<line x1="3786.75" y1="2235.86" x2="3786.75" y2="2275.96" style="stroke:#000000;stroke-width:5.76"/>
	<text x="3786.75" y="2351.78" style="font-family:'Helvetica';font-size:79.94px;fill:#000000" text-anchor="middle">100</text>
	<text x="2333.18" y="2441.87" style="font-family:'Helvetica';font-size:79.94px;fill:#000000" text-anchor="middle">Days since 1 Mar 2020</text>
	<rect x="1281.68" y="269.91" width="2103.13" height="326.46" style="fill:#FFFFFF"/>
	<rect x="1284.56" y="272.79" width="2097.37" height="320.70" style="fill:none;stroke:#EAF2F3;stroke-width:5.76"/>
	<line x1="1324.87" y1="363.09" x2="1699.21" y2="363.09" style="stroke:#1A476F;stroke-width:8.64"/>
	<line x1="2287.64" y1="363.09" x2="2662.11" y2="363.09" style="stroke:#90353B;stroke-width:8.64"/>
	<line x1="1324.87" y1="503.06" x2="1699.21" y2="503.06" style="stroke:#55752F;stroke-width:8.64"/>
	<text x="1759.23" y="384.13" style="font-family:'Helvetica';font-size:60.02px;fill:#000000">SABA only</text>
	<text x="2722.13" y="384.13" style="font-family:'Helvetica';font-size:60.02px;fill:#000000">ICS (Low/Medium Dose)</text>
	<text x="1759.23" y="524.10" style="font-family:'Helvetica';font-size:60.02px;fill:#000000">ICS (High Dose)</text>
	<text x="1087.89" y="187.99" style="font-family:'Helvetica';font-size:99.99px;fill:#1E2D53">Time to COVID-19 Death in ONS, Asthma - PSM population</text>
</svg>
