<?xml version="1.0" encoding="UTF-8" standalone="no"?>
<!-- This is a Stata 16.1 generated SVG file (http://www.stata.com) -->

<svg version="1.1" width="5.50in" height="4.00in" viewBox="0 0 3960 2880" xmlns="http://www.w3.org/2000/svg" xmlns:xlink="http://www.w3.org/1999/xlink">
	<desc>Stata Graph - Graph</desc>
	<rect x="0" y="0" width="3960" height="2880" style="fill:#EAF2F3;stroke:none"/>
	<rect x="0.00" y="0.00" width="3959.88" height="2880.00" style="fill:#FFFFFF"/>
	<rect x="2.88" y="2.88" width="3954.12" height="2874.24" style="fill:none;stroke:#EAF2F3;stroke-width:5.76"/>
	<rect x="390.80" y="100.86" width="3468.22" height="1992.81" style="fill:#FFFFFF"/>
	<rect x="393.68" y="103.74" width="3462.46" height="1987.05" style="fill:none;stroke:#FFFFFF;stroke-width:5.76"/>
	<line x1="390.80" y1="2030.31" x2="3859.02" y2="2030.31" style="stroke:#EAF2F3;stroke-width:8.64"/>
	<line x1="390.80" y1="1563.75" x2="3859.02" y2="1563.75" style="stroke:#EAF2F3;stroke-width:8.64"/>
	<line x1="390.80" y1="1097.20" x2="3859.02" y2="1097.20" style="stroke:#EAF2F3;stroke-width:8.64"/>
	<line x1="390.80" y1="630.65" x2="3859.02" y2="630.65" style="stroke:#EAF2F3;stroke-width:8.64"/>
	<path d=" M761.93 1999.74 L771.33 1962.61 L780.62 1941.33 L790.02 1933.41 L799.42 1923.75 L808.71 1903.09 L818.11 1881.43 L827.39 1862.87 L836.80 1852.22 L846.20 1823.02 L855.48 1788.37 L864.89 1776.61 L874.29 1776.24 L883.58 1777.35 L892.98 1762.50 L902.26 1751.12 L911.67 1745.67 L921.07 1740.35 L930.35 1733.92 L939.76 1719.81 L949.16 1712.51 L958.44 1709.29 L967.85 1709.41 L977.25 1691.72 L986.53 1674.02 L995.94 1665.48 L1005.22 1659.54 L1014.63 1645.68 L1024.03 1623.40 L1033.31 1609.05 L1042.72 1594.07 L1052.12 1536.65 L1061.40 1379.61 L1070.81 1225.66 L1080.09 1192.74 L1089.49 1128.64 L1098.90 1052.53 L1108.18 1129.38 L1117.59 1194.84 L1126.99 1158.71 L1136.27 1159.70 L1145.68 1112.67 L1155.08 1043.00 L1164.36 960.08 L1173.77 827.42 L1183.05 767.52 L1192.45 781.63 L1201.86 710.84 L1211.14 590.55 L1220.55 522.37 L1229.95 608.13 L1239.23 678.67 L1248.64 627.06 L1257.92 621.74 L1267.32 678.91 L1276.73 753.91 L1286.01 793.76 L1295.41 752.55 L1304.82 665.18 L1314.10 733.37 L1323.51 899.81 L1332.79 959.83 L1342.19 902.29 L1351.60 891.65 L1360.88 931.50 L1370.28 997.46 L1379.69 1087.05 L1388.97 1121.46 L1398.38 1079.75 L1407.78 1081.49 L1417.06 1194.10 L1426.47 1318.84 L1435.75 1369.58 L1445.15 1369.46 L1454.56 1380.23 L1463.84 1415.99 L1473.24 1428.74 L1482.65 1452.38 L1491.93 1475.15 L1501.34 1501.38 L1510.62 1543.09 L1520.02 1588.63 L1529.43 1603.36 L1538.71 1617.22 L1548.11 1658.30 L1557.52 1683.05 L1566.80 1689.86 L1576.20 1709.91 L1585.48 1740.60 L1594.89 1751.98 L1604.30 1766.96 L1613.58 1785.27 L1622.98 1797.65 L1632.39 1799.13 L1641.67 1810.15 L1651.07 1824.13 L1660.48 1833.78 L1669.76 1840.72 L1679.16 1852.72 L1688.44 1867.07 L1697.85 1865.84 L1707.26 1872.77 L1716.54 1878.71 L1725.94 1871.65 L1735.35 1873.39 L1744.63 1887.99 L1754.03 1885.14 L1763.31 1873.39 L1772.72 1869.55 L1782.12 1878.71 L1791.40 1891.58 L1800.81 1892.32 L1810.21 1876.73 L1819.50 1879.94 L1828.90 1894.67 L1838.18 1913.11 L1847.59 1914.60 L1856.99 1906.92 L1866.27 1903.09 L1875.68 1897.39 L1885.08 1902.96 L1894.37 1892.69 L1903.77 1883.04 L1913.17 1879.57 L1922.46 1882.05 L1931.86 1876.23 L1941.14 1862.62 L1950.55 1850.62 L1959.95 1838.98 L1969.23 1854.95 L1978.64 1870.17 L1988.04 1865.59 L1997.33 1845.29 L2006.73 1814.73 L2016.01 1798.64 L2025.42 1801.49 L2034.82 1824.01 L2044.10 1829.45 L2053.51 1839.23 L2062.91 1846.66 L2072.19 1847.89 L2081.60 1829.70 L2090.88 1802.48 L2100.28 1786.76 L2109.69 1783.29 L2118.97 1804.95 L2128.38 1834.40 L2137.78 1847.52 L2147.06 1840.34 L2156.47 1812.99 L2165.87 1792.70 L2175.15 1805.69 L2184.56 1826.61 L2193.84 1826.73 L2203.24 1821.04 L2212.65 1830.32 L2221.93 1829.21 L2231.34 1814.11 L2240.74 1818.07 L2250.02 1838.61 L2259.43 1836.63 L2268.71 1830.94 L2278.11 1841.09 L2287.52 1854.82 L2296.80 1862.87 L2306.20 1870.66 L2315.61 1866.70 L2324.89 1855.32 L2334.30 1846.04 L2343.70 1862.00 L2352.98 1875.24 L2362.39 1883.29 L2371.67 1887.74 L2381.07 1892.32 L2390.48 1886.88 L2399.76 1886.50 L2409.16 1890.46 L2418.57 1902.10 L2427.85 1907.54 L2437.26 1910.39 L2446.54 1913.36 L2455.94 1904.08 L2465.35 1907.54 L2474.63 1921.90 L2484.03 1927.71 L2493.44 1927.22 L2502.72 1926.97 L2512.13 1921.65 L2521.41 1920.41 L2530.81 1927.84 L2540.22 1936.38 L2549.50 1948.26 L2558.90 1948.26 L2568.31 1942.81 L2577.59 1941.57 L2586.99 1945.41 L2596.40 1955.56 L2605.68 1961.38 L2615.09 1967.69 L2624.37 1972.02 L2633.77 1969.79 L2643.18 1960.63 L2652.46 1960.01 L2661.86 1962.12 L2671.27 1966.57 L2680.55 1970.04 L2689.95 1976.97 L2699.24 1981.55 L2708.64 1978.82 L2718.05 1979.94 L2727.33 1980.80 L2736.73 1979.07 L2746.14 1980.93 L2755.42 1987.24 L2764.82 1997.76 L2774.10 2002.21 L2783.51 2003.08 L2792.91 2001.22 L2802.20 2001.35 L2811.60 2003.20 L2821.01 1999.00 L2830.29 1995.65 L2839.69 1996.52 L2849.10 1997.51 L2858.38 2002.34 L2867.78 2007.78 L2877.06 2012.24 L2886.47 2011.50 L2895.87 2010.63 L2905.16 2011.25 L2914.56 2008.65 L2923.97 2008.03 L2933.25 2013.48 L2942.65 2013.60 L2951.93 2010.26 L2961.34 2010.88 L2970.74 2014.71 L2980.02 2015.83 L2989.43 2018.55 L2998.83 2019.42 L3008.11 2019.42 L3017.52 2018.55 L3026.80 2017.44 L3036.21 2019.91 L3045.61 2021.77 L3054.89 2024.61 L3064.30 2027.34 L3073.70 2026.22 L3082.98 2023.50 L3092.39 2023.00 L3101.79 2023.13 L3111.07 2023.25 L3120.48 2023.50 L3129.76 2023.87 L3139.17 2023.25 L3148.57 2025.11 L3157.85 2026.84 L3167.26 2028.08 L3176.66 2029.32 L3185.94 2029.07 L3195.35 2028.94 L3204.63 2028.94 L3214.03 2028.70 L3223.44 2027.71 L3232.72 2028.08 L3242.13 2028.70 L3251.53 2028.82 L3260.81 2029.32 L3270.22 2030.18 L3279.50 2029.93 L3288.90 2028.45 L3298.31 2027.34 L3307.59 2028.20 L3316.99 2029.81 L3326.40 2030.43 L3335.68 2030.43 L3345.09 2030.43 L3354.49 2030.31 L3363.77 2029.32 L3373.18 2028.20 L3382.46 2028.82 L3391.86 2029.81 L3401.27 2029.81 L3410.55 2029.69 L3419.95 2029.69 L3429.36 2029.81 L3438.64 2030.43 L3448.05 2030.43 L3457.33 2030.43 L3466.73 2030.43 L3476.14 2030.06 L3485.42 2029.56 L3494.82 2029.81 L3504.23 2030.43 L3513.51 2029.93 L3522.91 2029.81 L3532.32 2030.18 L3541.60 2030.43 L3551.01 2029.81 L3560.29 2029.56" stroke-linejoin="round" style="fill:none;stroke:#1A476F;stroke-width:8.64"/>
	<path d=" M738.29 2030.18 L748.56 2029.93 L758.71 2012.36 L768.98 1986.13 L779.25 1960.01 L789.40 1946.03 L799.67 1928.95 L809.82 1907.91 L820.09 1888.86 L830.36 1870.66 L840.51 1848.26 L850.78 1809.28 L861.05 1785.52 L871.20 1784.65 L881.47 1780.82 L891.62 1757.30 L901.89 1745.18 L912.16 1745.18 L922.31 1737.13 L932.58 1724.02 L942.85 1707.80 L953.00 1703.72 L963.27 1696.54 L973.54 1684.04 L983.69 1680.21 L993.96 1664.37 L1004.11 1649.27 L1014.38 1646.42 L1024.65 1630.33 L1034.80 1602.49 L1045.07 1561.65 L1055.34 1494.82 L1065.49 1334.44 L1075.76 1240.76 L1085.91 1204.00 L1096.18 1074.55 L1106.45 1127.89 L1116.60 1215.39 L1126.87 1151.28 L1137.14 1136.56 L1147.29 1115.64 L1157.56 1062.55 L1167.70 911.69 L1177.98 737.94 L1188.25 677.43 L1198.39 646.12 L1208.67 560.11 L1218.94 455.41 L1229.09 540.68 L1239.36 648.97 L1249.50 581.89 L1259.78 564.81 L1270.05 639.81 L1280.19 716.29 L1290.46 737.45 L1300.74 631.14 L1310.88 621.49 L1321.15 820.61 L1331.43 935.70 L1341.57 883.48 L1351.85 902.91 L1361.99 979.14 L1372.26 1048.81 L1382.54 1127.27 L1392.68 1125.79 L1402.95 1092.75 L1413.22 1181.11 L1423.37 1299.79 L1433.64 1338.89 L1443.79 1346.69 L1454.06 1362.04 L1464.33 1398.54 L1474.48 1448.79 L1484.75 1490.37 L1495.02 1519.20 L1505.17 1543.33 L1515.44 1585.29 L1525.59 1637.14 L1535.86 1656.94 L1546.13 1665.60 L1556.28 1689.12 L1566.55 1712.75 L1576.82 1729.58 L1586.97 1740.72 L1597.24 1753.34 L1607.39 1779.83 L1617.66 1806.93 L1627.93 1813.37 L1638.08 1820.79 L1648.35 1837.37 L1658.62 1846.04 L1668.77 1856.31 L1679.04 1870.54 L1689.31 1881.68 L1699.46 1883.91 L1709.73 1880.81 L1719.88 1887.49 L1730.15 1897.02 L1740.42 1896.78 L1750.57 1887.62 L1760.84 1880.81 L1771.11 1884.40 L1781.26 1896.65 L1791.53 1902.47 L1801.68 1894.30 L1811.95 1874.62 L1822.22 1880.81 L1832.37 1905.81 L1842.64 1915.59 L1852.91 1915.96 L1863.06 1903.71 L1873.33 1893.56 L1883.47 1894.30 L1893.75 1887.87 L1904.02 1885.64 L1914.16 1886.38 L1924.44 1878.71 L1934.71 1864.23 L1944.86 1834.77 L1955.13 1812.38 L1965.27 1820.42 L1975.55 1843.93 L1985.82 1851.61 L1995.96 1838.73 L2006.23 1814.73 L2016.51 1800.00 L2026.65 1805.57 L2036.92 1822.89 L2047.20 1826.11 L2057.34 1829.21 L2067.61 1827.84 L2077.76 1822.52 L2088.03 1814.11 L2098.30 1794.06 L2108.45 1786.76 L2118.72 1808.42 L2128.99 1834.16 L2139.14 1837.50 L2149.41 1830.57 L2159.56 1815.10 L2169.83 1798.02 L2180.10 1802.72 L2190.25 1816.46 L2200.52 1831.93 L2210.79 1841.21 L2220.94 1839.11 L2231.21 1836.14 L2241.36 1834.77 L2251.63 1838.36 L2261.90 1835.15 L2272.05 1843.81 L2282.32 1862.99 L2292.59 1874.25 L2302.74 1874.25 L2313.01 1862.50 L2323.16 1852.72 L2333.43 1849.01 L2343.70 1861.51 L2353.85 1877.84 L2364.12 1887.87 L2374.39 1897.52 L2384.54 1899.00 L2394.81 1899.37 L2405.08 1895.91 L2415.23 1896.28 L2425.50 1902.34 L2435.65 1903.83 L2445.92 1910.76 L2456.19 1919.67 L2466.34 1923.88 L2476.61 1923.88 L2486.88 1925.73 L2497.03 1929.45 L2507.30 1928.70 L2517.45 1932.42 L2527.72 1941.95 L2537.99 1947.27 L2548.14 1948.26 L2558.41 1945.16 L2568.68 1947.76 L2578.83 1954.32 L2589.10 1958.53 L2599.24 1963.97 L2609.52 1965.09 L2619.79 1964.47 L2629.93 1966.08 L2640.21 1965.71 L2650.48 1963.97 L2660.63 1968.43 L2670.90 1973.13 L2681.04 1975.48 L2691.32 1979.94 L2701.59 1984.64 L2711.73 1984.64 L2722.01 1985.14 L2732.28 1987.49 L2742.42 1989.34 L2752.70 1991.94 L2762.97 1993.43 L2773.11 1996.03 L2783.39 2000.36 L2793.53 2000.73 L2803.80 2000.85 L2814.07 2001.97 L2824.22 2003.45 L2834.49 2002.96 L2844.76 2003.95 L2854.91 2006.30 L2865.18 2009.27 L2875.33 2011.99 L2885.60 2012.11 L2895.87 2012.61 L2906.02 2011.74 L2916.29 2012.73 L2926.56 2014.71 L2936.71 2015.08 L2946.98 2015.95 L2957.13 2017.81 L2967.40 2019.04 L2977.67 2019.66 L2987.82 2019.79 L2998.09 2020.65 L3008.36 2020.78 L3018.51 2019.91 L3028.78 2020.41 L3038.93 2021.40 L3049.20 2022.39 L3059.47 2022.88 L3069.62 2023.99 L3079.89 2024.74 L3090.16 2024.37 L3100.31 2024.74 L3110.58 2025.36 L3120.85 2026.10 L3131.00 2026.35 L3141.27 2026.10 L3151.42 2026.72 L3161.69 2027.46 L3171.96 2027.71 L3182.11 2027.58 L3192.38 2027.83 L3202.65 2028.45 L3212.80 2028.70 L3223.07 2028.70 L3233.22 2028.45 L3243.49 2028.33 L3253.76 2028.57 L3263.91 2028.82 L3274.18 2029.32 L3284.45 2029.81 L3294.60 2029.56 L3304.87 2029.07 L3315.01 2029.32 L3325.29 2029.81 L3335.56 2029.81 L3345.70 2029.69 L3355.98 2029.69 L3366.25 2029.81 L3376.39 2029.56 L3386.67 2029.69 L3396.81 2030.18 L3407.09 2030.31 L3417.36 2030.06 L3427.50 2030.18 L3437.78 2030.31 L3448.05 2029.93 L3458.19 2029.93 L3468.47 2030.31 L3478.74 2030.31 L3488.88 2030.18 L3499.16 2030.06 L3509.30 2030.06 L3519.57 2030.18 L3529.84 2030.31 L3539.99 2030.43 L3550.26 2030.43 L3560.53 2030.43 L3570.68 2030.31 L3580.95 2030.31 L3591.10 2030.31 L3601.37 2030.43 L3611.64 2030.43 L3621.79 2030.31 L3632.06 2030.31 L3642.33 2030.31 L3652.48 2030.31 L3662.75 2030.43 L3672.90 2030.43 L3683.17 2030.43 L3693.44 2030.43 L3703.59 2030.43 L3713.86 2030.43 L3724.13 2030.43 L3734.28 2030.43 L3744.55 2030.43 L3754.70 2030.43 L3764.97 2030.43 L3775.24 2030.43 L3785.39 2030.31 L3795.66 2030.31" stroke-linejoin="round" style="fill:none;stroke:#90353B;stroke-width:8.64"/>
	<path d=" M762.30 2013.97 L771.83 1994.29 L781.23 1981.55 L790.76 1971.40 L800.29 1956.05 L809.82 1938.48 L819.35 1920.91 L828.88 1896.53 L838.41 1873.63 L847.81 1850.62 L857.34 1826.11 L866.87 1807.92 L876.40 1790.84 L885.93 1777.23 L895.46 1762.50 L904.86 1753.84 L914.39 1743.82 L923.92 1738.12 L933.45 1721.79 L942.98 1702.23 L952.50 1684.66 L962.03 1689.61 L971.44 1674.02 L980.97 1657.56 L990.50 1658.80 L1000.02 1677.36 L1009.55 1654.59 L1019.08 1608.68 L1028.61 1595.19 L1038.02 1604.10 L1047.54 1593.70 L1057.07 1495.19 L1066.60 1321.69 L1076.13 1271.08 L1085.66 1276.15 L1095.06 1163.53 L1104.59 1145.96 L1114.12 1219.10 L1123.65 1184.45 L1133.18 1171.83 L1142.71 1167.00 L1152.24 1108.71 L1161.64 996.09 L1171.17 849.94 L1180.70 744.75 L1190.23 730.52 L1199.76 691.04 L1209.29 591.17 L1218.81 497.24 L1228.22 527.81 L1237.75 627.56 L1247.28 618.40 L1256.81 572.36 L1266.33 599.34 L1275.86 667.28 L1285.27 742.65 L1294.80 696.24 L1304.33 585.73 L1313.85 641.91 L1323.38 809.35 L1332.91 891.77 L1342.44 864.30 L1351.85 874.82 L1361.37 923.08 L1370.90 993.50 L1380.43 1075.05 L1389.96 1088.42 L1399.49 1047.45 L1408.89 1097.57 L1418.42 1223.43 L1427.95 1290.88 L1437.48 1308.94 L1447.01 1341.86 L1456.54 1364.39 L1466.07 1390.13 L1475.47 1426.63 L1485.00 1474.40 L1494.53 1531.08 L1504.06 1547.91 L1513.59 1547.67 L1523.12 1578.85 L1532.64 1618.58 L1542.05 1645.43 L1551.58 1669.32 L1561.11 1699.02 L1570.63 1719.56 L1580.16 1731.07 L1589.69 1737.26 L1599.10 1743.07 L1608.63 1763.86 L1618.15 1796.04 L1627.68 1807.05 L1637.21 1806.19 L1646.74 1810.77 L1656.27 1826.98 L1665.67 1834.65 L1675.20 1848.88 L1684.73 1869.30 L1694.26 1870.29 L1703.79 1872.40 L1713.32 1877.35 L1722.85 1887.49 L1732.25 1899.50 L1741.78 1907.29 L1751.31 1901.60 L1760.84 1883.91 L1770.37 1876.97 L1779.90 1890.09 L1789.30 1904.32 L1798.83 1899.13 L1808.36 1876.97 L1817.89 1867.20 L1827.42 1885.51 L1836.94 1908.53 L1846.47 1911.50 L1855.88 1913.36 L1865.41 1905.56 L1874.94 1889.47 L1884.46 1885.27 L1893.99 1882.67 L1903.52 1877.47 L1913.05 1875.12 L1922.46 1876.11 L1931.98 1860.39 L1941.51 1832.79 L1951.04 1809.41 L1960.57 1808.54 L1970.10 1829.45 L1979.51 1846.66 L1989.03 1839.85 L1998.56 1820.17 L2008.09 1792.33 L2017.62 1786.14 L2027.15 1796.41 L2036.68 1818.32 L2046.08 1823.88 L2055.61 1824.87 L2065.14 1822.89 L2074.67 1816.58 L2084.20 1808.04 L2093.73 1799.88 L2103.26 1786.02 L2112.66 1789.98 L2122.19 1814.85 L2131.72 1837.74 L2141.25 1839.11 L2150.78 1822.28 L2160.30 1811.39 L2169.71 1800.62 L2179.24 1803.47 L2188.77 1821.66 L2198.30 1837.13 L2207.82 1838.36 L2217.35 1833.54 L2226.88 1828.09 L2236.29 1828.59 L2245.82 1837.99 L2255.34 1840.34 L2264.87 1839.97 L2274.40 1852.35 L2283.93 1864.23 L2293.46 1866.58 L2302.86 1869.92 L2312.39 1865.22 L2321.92 1856.93 L2331.45 1852.72 L2340.98 1862.25 L2350.51 1884.15 L2359.91 1899.87 L2369.44 1902.22 L2378.97 1901.73 L2388.50 1899.62 L2398.03 1896.28 L2407.56 1893.43 L2417.09 1896.90 L2426.49 1905.31 L2436.02 1904.32 L2445.55 1912.24 L2455.08 1925.36 L2464.61 1933.53 L2474.13 1932.91 L2483.66 1925.73 L2493.07 1923.51 L2502.60 1926.11 L2512.13 1930.07 L2521.65 1937.24 L2531.18 1943.31 L2540.71 1951.47 L2550.12 1951.47 L2559.64 1948.63 L2569.17 1950.98 L2578.70 1955.93 L2588.23 1961.62 L2597.76 1967.69 L2607.29 1968.06 L2616.69 1964.96 L2626.22 1964.10 L2635.75 1966.94 L2645.28 1972.27 L2654.81 1971.89 L2664.34 1974.74 L2673.87 1984.15 L2683.27 1986.25 L2692.80 1986.99 L2702.33 1990.09 L2711.86 1990.95 L2721.39 1990.09 L2730.91 1991.57 L2740.32 1991.69 L2749.85 1992.31 L2759.38 1991.08 L2768.91 1993.06 L2778.43 1999.24 L2787.96 2003.08 L2797.49 2002.09 L2806.90 2002.34 L2816.43 2003.08 L2825.95 2002.96 L2835.48 2003.20 L2845.01 2003.95 L2854.54 2006.42 L2863.95 2011.87 L2873.47 2013.97 L2883.00 2012.49 L2892.53 2013.60 L2902.06 2014.84 L2911.59 2014.96 L2921.12 2014.84 L2930.52 2015.70 L2940.05 2017.81 L2949.58 2020.28 L2959.11 2020.90 L2968.64 2021.40 L2978.17 2021.64 L2987.70 2021.40 L2997.10 2022.01 L3006.63 2022.26 L3016.16 2022.14 L3025.69 2023.13 L3035.22 2023.99 L3044.74 2022.88 L3054.15 2023.87 L3063.68 2024.98 L3073.21 2024.61 L3082.74 2025.23 L3092.26 2025.85 L3101.79 2026.22 L3111.32 2026.47 L3120.73 2026.96 L3130.26 2027.46 L3139.78 2028.08 L3149.31 2028.45 L3158.84 2028.57 L3168.37 2028.45 L3177.90 2028.57 L3187.30 2028.82 L3196.83 2028.94 L3206.36 2029.07 L3215.89 2029.32 L3225.42 2029.44 L3234.95 2029.19 L3244.35 2028.94 L3253.88 2028.82 L3263.41 2029.19 L3272.94 2029.56 L3282.47 2029.81 L3292.00 2030.06 L3301.53 2030.06 L3310.93 2030.06 L3320.46 2029.93 L3329.99 2029.81 L3339.52 2029.56 L3349.05 2029.69 L3358.57 2029.81 L3368.10 2029.93 L3377.51 2030.18 L3387.04 2030.18 L3396.57 2030.18 L3406.09 2030.18 L3415.62 2030.18 L3425.15 2030.06 L3434.56 2030.18 L3444.09 2030.18 L3453.61 2029.93 L3463.14 2029.93 L3472.67 2030.18 L3482.20 2030.31 L3491.73 2030.31 L3501.14 2030.31 L3510.66 2030.43 L3520.19 2030.31 L3529.72 2030.31 L3539.25 2030.31 L3548.78 2030.43 L3558.31 2030.43 L3567.71 2030.43 L3577.24 2030.31 L3586.77 2030.31 L3596.30 2030.18 L3605.83 2030.31" stroke-linejoin="round" style="fill:none;stroke:#55752F;stroke-width:8.64"/>
	<line x1="390.80" y1="2093.67" x2="390.80" y2="100.86" style="stroke:#000000;stroke-width:5.76"/>
	<line x1="390.80" y1="2030.31" x2="350.83" y2="2030.31" style="stroke:#000000;stroke-width:5.76"/>
	<text x="300.72" y="2030.31" style="font-family:'Helvetica';font-size:99.99px;fill:#000000" transform="rotate(-90 300.72,2030.31)" text-anchor="middle">0</text>
	<line x1="390.80" y1="1563.75" x2="350.83" y2="1563.75" style="stroke:#000000;stroke-width:5.76"/>
	<text x="300.72" y="1563.75" style="font-family:'Helvetica';font-size:99.99px;fill:#000000" transform="rotate(-90 300.72,1563.75)" text-anchor="middle">5</text>
	<line x1="390.80" y1="1097.20" x2="350.83" y2="1097.20" style="stroke:#000000;stroke-width:5.76"/>
	<text x="300.72" y="1097.20" style="font-family:'Helvetica';font-size:99.99px;fill:#000000" transform="rotate(-90 300.72,1097.20)" text-anchor="middle">10</text>
	<line x1="390.80" y1="630.65" x2="350.83" y2="630.65" style="stroke:#000000;stroke-width:5.76"/>
	<text x="300.72" y="630.65" style="font-family:'Helvetica';font-size:99.99px;fill:#000000" transform="rotate(-90 300.72,630.65)" text-anchor="middle">15</text>
	<line x1="390.80" y1="164.22" x2="350.83" y2="164.22" style="stroke:#000000;stroke-width:5.76"/>
	<text x="300.72" y="164.22" style="font-family:'Helvetica';font-size:99.99px;fill:#000000" transform="rotate(-90 300.72,164.22)" text-anchor="middle">20</text>
	<text x="190.71" y="1097.20" style="font-family:'Helvetica';font-size:99.99px;fill:#000000" transform="rotate(-90 190.71,1097.20)" text-anchor="middle">kdensity p2</text>
	<line x1="390.80" y1="2093.67" x2="3859.02" y2="2093.67" style="stroke:#000000;stroke-width:5.76"/>
	<line x1="454.16" y1="2093.67" x2="454.16" y2="2133.64" style="stroke:#000000;stroke-width:5.76"/>
	<text x="454.16" y="2223.62" style="font-family:'Helvetica';font-size:99.99px;fill:#000000" text-anchor="middle">0</text>
	<line x1="1259.65" y1="2093.67" x2="1259.65" y2="2133.64" style="stroke:#000000;stroke-width:5.76"/>
	<text x="1259.65" y="2223.62" style="font-family:'Helvetica';font-size:99.99px;fill:#000000" text-anchor="middle">.1</text>
	<line x1="2065.14" y1="2093.67" x2="2065.14" y2="2133.64" style="stroke:#000000;stroke-width:5.76"/>
	<text x="2065.14" y="2223.62" style="font-family:'Helvetica';font-size:99.99px;fill:#000000" text-anchor="middle">.2</text>
	<line x1="2870.63" y1="2093.67" x2="2870.63" y2="2133.64" style="stroke:#000000;stroke-width:5.76"/>
	<text x="2870.63" y="2223.62" style="font-family:'Helvetica';font-size:99.99px;fill:#000000" text-anchor="middle">.3</text>
	<line x1="3676.24" y1="2093.67" x2="3676.24" y2="2133.64" style="stroke:#000000;stroke-width:5.76"/>
	<text x="3676.24" y="2223.62" style="font-family:'Helvetica';font-size:99.99px;fill:#000000" text-anchor="middle">.4</text>
	<text x="2124.91" y="2333.64" style="font-family:'Helvetica';font-size:99.99px;fill:#000000" text-anchor="middle">x</text>
	<rect x="1209.90" y="2418.27" width="1830.01" height="326.34" style="fill:#FFFFFF"/>
	<rect x="1212.78" y="2421.15" width="1824.26" height="320.58" style="fill:none;stroke:#EAF2F3;stroke-width:5.76"/>
	<line x1="1253.22" y1="2511.46" x2="1627.56" y2="2511.46" style="stroke:#1A476F;stroke-width:8.64"/>
	<line x1="2203.12" y1="2511.46" x2="2577.47" y2="2511.46" style="stroke:#90353B;stroke-width:8.64"/>
	<line x1="1253.22" y1="2651.43" x2="1627.56" y2="2651.43" style="stroke:#55752F;stroke-width:8.64"/>
	<text x="1687.58" y="2539.47" style="font-family:'Helvetica';font-size:79.94px;fill:#000000">P2 - SABA</text>
	<text x="2637.48" y="2539.47" style="font-family:'Helvetica';font-size:79.94px;fill:#000000">P2 - LD ICS</text>
	<text x="1687.58" y="2679.44" style="font-family:'Helvetica';font-size:79.94px;fill:#000000">P2 - HD ICS</text>
</svg>
