<?xml version="1.0" encoding="UTF-8" standalone="no"?>
<!-- This is a Stata 16.1 generated SVG file (http://www.stata.com) -->

<svg version="1.1" width="5.50in" height="4.00in" viewBox="0 0 3960 2880" xmlns="http://www.w3.org/2000/svg" xmlns:xlink="http://www.w3.org/1999/xlink">
	<desc>Stata Graph - Graph</desc>
	<rect x="0" y="0" width="3960" height="2880" style="fill:#EAF2F3;stroke:none"/>
	<rect x="0.00" y="0.00" width="3959.88" height="2880.00" style="fill:#FFFFFF"/>
	<rect x="2.88" y="2.88" width="3954.12" height="2874.24" style="fill:none;stroke:#EAF2F3;stroke-width:5.76"/>
	<rect x="390.80" y="100.86" width="3468.22" height="1992.81" style="fill:#FFFFFF"/>
	<rect x="393.68" y="103.74" width="3462.46" height="1987.05" style="fill:none;stroke:#FFFFFF;stroke-width:5.76"/>
	<line x1="390.80" y1="2030.31" x2="3859.02" y2="2030.31" style="stroke:#EAF2F3;stroke-width:8.64"/>
	<line x1="390.80" y1="1408.32" x2="3859.02" y2="1408.32" style="stroke:#EAF2F3;stroke-width:8.64"/>
	<line x1="390.80" y1="786.21" x2="3859.02" y2="786.21" style="stroke:#EAF2F3;stroke-width:8.64"/>
	<line x1="390.80" y1="164.22" x2="3859.02" y2="164.22" style="stroke:#EAF2F3;stroke-width:8.64"/>
	<path d=" M734.58 2023.99 L744.73 2013.48 L755.00 1996.89 L765.27 1970.78 L775.54 1925.86 L785.69 1868.31 L795.96 1796.41 L806.23 1711.89 L816.50 1621.55 L826.65 1514.00 L836.92 1421.93 L847.19 1348.67 L857.34 1295.83 L867.61 1291.87 L877.88 1326.52 L888.15 1386.41 L898.30 1447.30 L908.57 1484.18 L918.84 1512.89 L929.12 1558.18 L939.26 1602.24 L949.53 1638.62 L959.80 1651.37 L969.95 1655.70 L980.22 1651.87 L990.50 1631.32 L1000.77 1598.40 L1010.91 1538.51 L1021.18 1442.48 L1031.46 1331.72 L1041.73 1206.60 L1051.88 1045.72 L1062.15 868.63 L1072.42 699.09 L1082.69 540.43 L1092.84 413.59 L1103.11 325.47 L1113.38 320.77 L1123.53 367.05 L1133.80 417.55 L1144.07 465.31 L1154.34 514.94 L1164.49 579.29 L1174.76 623.47 L1185.03 669.51 L1195.30 735.59 L1205.45 814.30 L1215.72 869.37 L1225.99 919.49 L1236.14 994.98 L1246.41 1061.56 L1256.68 1107.72 L1266.95 1135.57 L1277.10 1170.84 L1287.37 1211.06 L1297.64 1239.39 L1307.91 1252.14 L1318.06 1270.46 L1328.33 1307.58 L1338.60 1345.82 L1348.75 1368.22 L1359.02 1373.92 L1369.29 1382.33 L1379.57 1400.89 L1389.71 1423.91 L1399.98 1438.39 L1410.26 1454.85 L1420.53 1481.09 L1430.67 1503.49 L1440.94 1516.85 L1451.22 1520.81 L1461.49 1523.78 L1471.63 1538.51 L1481.91 1556.82 L1492.18 1583.06 L1502.33 1606.82 L1512.60 1627.36 L1522.87 1639.24 L1533.14 1631.45 L1543.29 1631.57 L1553.56 1634.42 L1563.83 1637.14 L1574.10 1659.29 L1584.25 1679.09 L1594.52 1702.36 L1604.79 1724.39 L1614.94 1724.26 L1625.21 1720.80 L1635.48 1706.94 L1645.75 1691.72 L1655.90 1679.09 L1666.17 1666.47 L1676.44 1655.08 L1686.71 1636.64 L1696.86 1615.24 L1707.13 1591.72 L1717.40 1570.68 L1727.67 1552.99 L1737.82 1548.78 L1748.09 1546.06 L1758.36 1531.45 L1768.51 1518.34 L1778.78 1505.47 L1789.05 1515.61 L1799.33 1529.72 L1809.47 1541.85 L1819.74 1543.95 L1830.02 1536.53 L1840.29 1530.96 L1850.43 1524.28 L1860.70 1533.19 L1870.98 1545.81 L1881.12 1566.85 L1891.39 1576.25 L1901.67 1578.36 L1911.94 1570.81 L1922.09 1568.95 L1932.36 1564.99 L1942.63 1566.48 L1952.90 1571.06 L1963.05 1582.07 L1973.32 1594.44 L1983.59 1596.05 L1993.74 1595.68 L2004.01 1593.58 L2014.28 1596.55 L2024.55 1601.75 L2034.70 1612.76 L2044.97 1615.11 L2055.24 1623.03 L2065.51 1620.19 L2075.66 1625.01 L2085.93 1631.45 L2096.20 1642.71 L2106.47 1655.46 L2116.62 1660.16 L2126.89 1660.41 L2137.16 1650.38 L2147.31 1647.41 L2157.58 1652.24 L2167.85 1655.70 L2178.12 1668.57 L2188.27 1666.35 L2198.54 1668.33 L2208.81 1663.99 L2219.09 1670.31 L2229.23 1677.36 L2239.50 1688.62 L2249.78 1690.23 L2259.92 1693.82 L2270.19 1700.25 L2280.47 1703.84 L2290.74 1708.42 L2300.88 1704.09 L2311.16 1696.29 L2321.43 1692.09 L2331.70 1704.46 L2341.84 1718.69 L2352.12 1742.58 L2362.39 1753.22 L2372.66 1758.54 L2382.81 1762.50 L2393.08 1762.38 L2403.35 1768.69 L2413.50 1779.83 L2423.77 1782.43 L2434.04 1780.94 L2444.31 1790.22 L2454.46 1796.91 L2464.73 1805.57 L2475.00 1795.42 L2485.27 1809.28 L2495.42 1850.74 L2505.69 1896.03 L2515.96 1927.59 L2526.11 1933.28 L2536.38 1937.49 L2546.65 1944.54 L2556.92 1949.74 L2567.07 1950.24 L2577.34 1954.07 L2587.61 1959.39 L2597.88 1966.94 L2608.03 1974.49 L2618.30 1976.97 L2628.57 1979.81 L2638.72 1982.54 L2648.99 1984.64 L2659.26 1987.86 L2669.53 1986.99 L2679.68 1986.87 L2689.95 1987.61 L2700.22 1989.34 L2710.50 1991.69 L2720.64 1992.19 L2730.91 1996.40 L2741.19 2000.11 L2751.46 2005.06 L2761.61 2008.28 L2771.88 2011.74 L2782.15 2016.45 L2792.30 2019.91 L2802.57 2023.00 L2812.84 2023.50 L2823.11 2024.24 L2833.26 2024.49 L2843.53 2024.74 L2853.80 2025.11 L2864.07 2025.36 L2874.22 2025.73 L2884.49 2026.35 L2894.76 2026.84 L2904.91 2027.21 L2915.18 2027.83 L2925.45 2028.20 L2935.72 2028.57 L2945.87 2028.45 L2956.14 2028.20 L2966.41 2027.95 L2976.68 2028.20 L2986.83 2028.08 L2997.10 2027.95 L3007.37 2028.20 L3017.64 2028.45 L3027.79 2028.94 L3038.06 2029.07 L3048.33 2029.07 L3058.48 2029.19 L3068.75 2029.19 L3079.02 2028.94 L3089.30 2028.70 L3099.44 2028.45 L3109.71 2028.33 L3119.99 2028.20 L3130.26 2028.08 L3140.40 2028.33 L3150.68 2028.57 L3160.95 2028.70 L3171.09 2028.94 L3181.36 2029.32 L3191.64 2029.69 L3201.91 2029.81 L3212.05 2029.32 L3222.33 2028.94 L3232.60 2028.70 L3242.87 2028.82 L3253.02 2029.07 L3263.29 2029.32 L3273.56 2029.32 L3283.71 2029.32 L3293.98 2029.32 L3304.25 2029.32 L3314.52 2029.32 L3324.67 2029.44 L3334.94 2029.56 L3345.21 2029.69 L3355.48 2029.81 L3365.63 2029.93 L3375.90 2029.93 L3386.17 2029.93 L3396.44 2029.93 L3406.59 2029.93 L3416.86 2030.06 L3427.13 2030.18 L3437.28 2030.18 L3447.55 2030.31 L3457.82 2030.43 L3468.09 2030.31 L3478.24 2030.18 L3488.51 2030.18 L3498.78 2030.18 L3509.05 2030.31 L3519.20 2030.31 L3529.47 2030.31 L3539.74 2030.31 L3549.89 2030.31 L3560.16 2030.31 L3570.43 2030.31 L3580.71 2030.31 L3590.85 2030.43 L3601.13 2030.31 L3611.40 2030.18 L3621.67 2030.18 L3631.82 2030.31 L3642.09 2030.31 L3652.36 2030.43 L3662.63 2030.31 L3672.78 2030.31 L3683.05 2030.31 L3693.32 2030.31 L3703.47 2030.31 L3713.74 2030.31 L3724.01 2030.31 L3734.28 2030.43 L3744.43 2030.43 L3754.70 2030.43 L3764.97 2030.43 L3775.24 2030.31 L3785.39 2030.31 L3795.66 2030.31" stroke-linejoin="round" style="fill:none;stroke:#1A476F;stroke-width:8.64"/>
	<path d=" M727.65 2028.70 L737.43 2024.49 L747.33 2016.20 L757.10 2002.46 L767.00 1979.69 L776.90 1945.04 L786.68 1893.93 L796.58 1823.39 L806.48 1741.71 L816.25 1646.05 L826.15 1545.56 L835.93 1448.91 L845.83 1364.51 L855.73 1322.68 L865.51 1314.27 L875.41 1336.91 L885.18 1376.02 L895.08 1415.62 L904.98 1465.12 L914.76 1514.50 L924.66 1562.76 L934.56 1604.72 L944.34 1637.39 L954.24 1663.25 L964.01 1679.59 L973.91 1686.64 L983.81 1675.13 L993.59 1647.29 L1003.49 1606.70 L1013.39 1540.98 L1023.16 1444.95 L1033.07 1337.90 L1042.84 1208.21 L1052.74 1053.76 L1062.64 891.03 L1072.42 734.11 L1082.32 607.01 L1092.22 495.51 L1101.99 397.13 L1111.89 362.35 L1121.67 361.24 L1131.57 378.81 L1141.47 415.81 L1151.25 450.09 L1161.15 517.41 L1171.05 588.82 L1180.82 642.65 L1190.72 709.36 L1200.50 777.79 L1210.40 824.45 L1220.30 863.55 L1230.08 914.17 L1239.97 975.30 L1249.75 1032.73 L1259.65 1077.03 L1269.55 1110.44 L1279.33 1144.60 L1289.23 1175.66 L1299.13 1201.16 L1308.90 1224.92 L1318.80 1253.38 L1328.58 1283.95 L1338.48 1307.95 L1348.38 1327.88 L1358.16 1344.34 L1368.06 1360.55 L1377.96 1379.11 L1387.73 1395.82 L1397.63 1409.68 L1407.41 1426.02 L1417.31 1444.95 L1427.21 1469.33 L1436.98 1492.47 L1446.88 1505.84 L1456.79 1509.67 L1466.56 1514.00 L1476.46 1530.46 L1486.24 1554.72 L1496.14 1577.37 L1506.04 1591.35 L1515.81 1599.64 L1525.71 1605.46 L1535.49 1611.77 L1545.39 1622.78 L1555.29 1631.57 L1565.07 1635.90 L1574.97 1654.09 L1584.87 1674.39 L1594.64 1697.90 L1604.54 1717.21 L1614.32 1712.63 L1624.22 1707.18 L1634.12 1691.96 L1643.89 1673.52 L1653.80 1657.81 L1663.69 1644.69 L1673.47 1635.90 L1683.37 1623.03 L1693.15 1603.85 L1703.05 1577.86 L1712.95 1555.59 L1722.72 1540.36 L1732.62 1539.87 L1742.52 1540.36 L1752.30 1541.85 L1762.20 1533.06 L1771.98 1526.75 L1781.88 1524.28 L1791.78 1529.35 L1801.55 1536.40 L1811.45 1532.69 L1821.23 1531.08 L1831.13 1526.38 L1841.03 1529.47 L1850.81 1529.23 L1860.70 1540.49 L1870.61 1547.42 L1880.38 1563.01 L1890.28 1568.21 L1900.06 1568.58 L1909.96 1566.85 L1919.86 1569.69 L1929.63 1578.36 L1939.53 1588.63 L1949.43 1599.27 L1959.21 1606.33 L1969.11 1611.15 L1978.89 1612.27 L1988.79 1615.73 L1998.69 1615.98 L2008.46 1619.32 L2018.36 1620.31 L2028.26 1623.77 L2038.04 1630.70 L2047.94 1636.15 L2057.72 1643.20 L2067.61 1641.60 L2077.51 1645.56 L2087.29 1648.03 L2097.19 1653.35 L2107.09 1659.79 L2116.87 1660.28 L2126.77 1661.52 L2136.54 1660.28 L2146.44 1663.87 L2156.34 1669.44 L2166.12 1669.93 L2176.02 1678.97 L2185.80 1670.31 L2195.70 1674.88 L2205.60 1671.79 L2215.37 1676.00 L2225.27 1685.16 L2235.17 1688.13 L2244.95 1697.16 L2254.85 1699.64 L2264.63 1705.33 L2274.53 1704.96 L2284.43 1708.17 L2294.20 1703.97 L2304.10 1699.64 L2314.00 1694.07 L2323.78 1697.16 L2333.68 1717.33 L2343.45 1732.68 L2353.35 1749.01 L2363.25 1753.47 L2373.03 1757.18 L2382.93 1763.37 L2392.83 1767.82 L2402.61 1772.16 L2412.51 1778.22 L2422.28 1775.74 L2432.18 1776.36 L2442.08 1782.43 L2451.86 1791.46 L2461.76 1808.04 L2471.53 1806.06 L2481.43 1819.80 L2491.34 1849.25 L2501.11 1884.77 L2511.01 1922.52 L2520.91 1931.06 L2530.69 1934.64 L2540.59 1938.60 L2550.36 1941.70 L2560.26 1945.66 L2570.16 1949.37 L2579.94 1953.83 L2589.84 1958.78 L2599.74 1962.12 L2609.52 1966.20 L2619.42 1970.16 L2629.19 1974.49 L2639.09 1977.09 L2648.99 1978.08 L2658.77 1980.06 L2668.67 1981.05 L2678.57 1983.65 L2688.34 1985.01 L2698.24 1988.48 L2708.02 1991.45 L2717.92 1994.91 L2727.82 1998.50 L2737.60 2000.61 L2747.50 2003.08 L2757.40 2003.82 L2767.17 2006.05 L2777.07 2010.26 L2786.85 2015.83 L2796.75 2020.53 L2806.65 2023.13 L2816.43 2022.88 L2826.33 2023.38 L2836.10 2023.62 L2846.00 2023.99 L2855.90 2024.61 L2865.68 2024.49 L2875.58 2024.86 L2885.48 2025.36 L2895.26 2025.48 L2905.16 2025.85 L2914.93 2025.97 L2924.83 2025.73 L2934.73 2025.85 L2944.51 2026.10 L2954.41 2026.59 L2964.31 2027.46 L2974.08 2027.95 L2983.98 2027.95 L2993.76 2027.46 L3003.66 2026.96 L3013.56 2026.59 L3023.34 2026.84 L3033.24 2027.34 L3043.14 2028.08 L3052.91 2028.33 L3062.81 2028.20 L3072.59 2028.08 L3082.49 2027.83 L3092.39 2028.08 L3102.16 2028.33 L3112.07 2028.45 L3121.84 2028.57 L3131.74 2028.57 L3141.64 2028.70 L3151.42 2028.82 L3161.32 2028.70 L3171.22 2028.45 L3180.99 2028.33 L3190.89 2028.33 L3200.67 2028.57 L3210.57 2028.82 L3220.47 2028.82 L3230.25 2028.82 L3240.15 2028.94 L3250.05 2029.07 L3259.82 2029.32 L3269.72 2029.32 L3279.50 2029.19 L3289.40 2029.19 L3299.30 2029.19 L3309.07 2029.32 L3318.97 2029.32 L3328.88 2029.44 L3338.65 2029.69 L3348.55 2029.69 L3358.33 2029.69 L3368.23 2029.81 L3378.13 2029.69 L3387.90 2029.93 L3397.80 2030.06 L3407.70 2030.06 L3417.48 2030.06 L3427.38 2029.93 L3437.16 2029.81 L3447.06 2029.81 L3456.96 2029.81 L3466.73 2029.93 L3476.63 2030.06 L3486.41 2030.06 L3496.31 2030.06 L3506.21 2030.06 L3515.99 2029.93 L3525.89 2030.06 L3535.78 2030.06 L3545.56 2030.06 L3555.46 2030.06 L3565.24 2030.06 L3575.14 2030.06 L3585.04 2030.06 L3594.81 2030.18 L3604.71 2030.18 L3614.61 2030.18 L3624.39 2030.31 L3634.29 2030.31 L3644.07 2030.31 L3653.97 2030.31 L3663.87 2030.31 L3673.64 2030.31" stroke-linejoin="round" style="fill:none;stroke:#90353B;stroke-width:8.64"/>
	<path d=" M729.13 2028.70 L738.79 2024.74 L748.44 2015.95 L758.09 2001.84 L767.75 1978.08 L777.40 1941.70 L787.05 1891.33 L796.70 1819.18 L806.36 1734.29 L816.01 1636.15 L825.66 1533.81 L835.31 1441.73 L844.97 1364.76 L854.62 1322.06 L864.27 1305.73 L873.92 1323.55 L883.58 1367.60 L893.23 1415.37 L902.88 1469.70 L912.53 1511.03 L922.18 1545.93 L931.84 1584.30 L941.49 1620.43 L951.14 1649.76 L960.79 1670.43 L970.45 1677.85 L980.10 1672.66 L989.75 1654.22 L999.40 1617.59 L1009.06 1555.83 L1018.71 1458.19 L1028.24 1346.94 L1037.89 1243.23 L1047.54 1132.10 L1057.20 1004.39 L1066.85 860.09 L1076.50 711.46 L1086.15 585.23 L1095.81 467.42 L1105.46 392.92 L1115.11 366.68 L1124.76 360.37 L1134.42 370.02 L1144.07 399.72 L1153.72 439.57 L1163.37 496.75 L1173.03 550.58 L1182.68 604.79 L1192.33 683.37 L1201.98 774.95 L1211.64 842.39 L1221.29 899.94 L1230.94 948.08 L1240.59 992.38 L1250.25 1026.17 L1259.90 1055.62 L1269.55 1094.60 L1279.20 1141.01 L1288.86 1183.21 L1298.51 1217.49 L1308.16 1246.08 L1317.81 1269.34 L1327.47 1300.41 L1337.12 1326.39 L1346.77 1341.62 L1356.42 1352.13 L1366.08 1356.59 L1375.73 1366.86 L1385.38 1389.38 L1395.03 1412.03 L1404.69 1435.17 L1414.34 1453.98 L1423.99 1467.84 L1433.64 1490.86 L1443.30 1512.52 L1452.95 1526.88 L1462.60 1540.12 L1472.25 1555.96 L1481.91 1567.10 L1491.56 1577.00 L1501.21 1587.76 L1510.86 1584.54 L1520.52 1592.59 L1530.05 1600.88 L1539.70 1612.02 L1549.35 1631.20 L1559.00 1654.71 L1568.65 1677.48 L1578.31 1688.25 L1587.96 1698.27 L1597.61 1698.65 L1607.27 1700.38 L1616.92 1700.01 L1626.57 1690.48 L1636.22 1679.71 L1645.88 1665.23 L1655.53 1657.31 L1665.18 1648.15 L1674.83 1635.16 L1684.48 1612.27 L1694.14 1592.96 L1703.79 1573.65 L1713.44 1556.58 L1723.10 1543.21 L1732.75 1534.42 L1742.40 1525.14 L1752.05 1526.38 L1761.70 1518.71 L1771.36 1521.31 L1781.01 1526.50 L1790.66 1538.38 L1800.32 1542.84 L1809.97 1539.00 L1819.62 1538.63 L1829.27 1531.58 L1838.92 1527.74 L1848.58 1517.35 L1858.23 1524.15 L1867.88 1538.14 L1877.54 1568.21 L1887.19 1587.14 L1896.84 1594.20 L1906.49 1589.87 L1916.14 1589.00 L1925.80 1597.79 L1935.45 1600.39 L1945.10 1603.36 L1954.76 1600.26 L1964.41 1598.28 L1974.06 1595.81 L1983.71 1600.51 L1993.37 1608.43 L2003.02 1614.12 L2012.67 1622.78 L2022.32 1618.08 L2031.85 1624.76 L2041.50 1630.09 L2051.16 1643.33 L2060.81 1648.15 L2070.46 1653.23 L2080.11 1659.42 L2089.77 1666.10 L2099.42 1670.18 L2109.07 1673.77 L2118.72 1673.77 L2128.38 1672.41 L2138.03 1671.79 L2147.68 1676.99 L2157.33 1681.20 L2166.99 1680.45 L2176.64 1691.59 L2186.29 1682.31 L2195.94 1685.53 L2205.60 1675.26 L2215.25 1674.88 L2224.90 1675.87 L2234.55 1672.90 L2244.21 1680.08 L2253.86 1685.53 L2263.51 1694.19 L2273.16 1697.66 L2282.82 1697.16 L2292.47 1688.99 L2302.12 1684.91 L2311.77 1684.66 L2321.43 1684.66 L2331.08 1700.50 L2340.73 1712.88 L2350.38 1733.30 L2360.04 1739.98 L2369.69 1740.23 L2379.34 1739.98 L2388.99 1739.48 L2398.65 1756.81 L2408.30 1772.03 L2417.95 1782.18 L2427.60 1785.77 L2437.26 1780.57 L2446.91 1789.11 L2456.56 1801.61 L2466.21 1819.68 L2475.87 1829.33 L2485.52 1846.53 L2495.17 1871.90 L2504.82 1897.15 L2514.48 1922.39 L2524.13 1933.16 L2533.66 1937.74 L2543.31 1941.95 L2552.96 1942.94 L2562.61 1944.17 L2572.27 1948.63 L2581.92 1955.43 L2591.57 1960.51 L2601.22 1959.52 L2610.88 1956.80 L2620.53 1960.14 L2630.18 1964.96 L2639.84 1973.01 L2649.49 1978.21 L2659.14 1980.68 L2668.79 1981.18 L2678.45 1981.92 L2688.10 1979.81 L2697.75 1981.92 L2707.40 1985.14 L2717.05 1990.58 L2726.71 1996.15 L2736.36 2001.97 L2746.01 2008.90 L2755.66 2013.97 L2765.32 2018.05 L2774.97 2019.17 L2784.62 2020.65 L2794.28 2021.77 L2803.93 2023.38 L2813.58 2023.50 L2823.23 2023.50 L2832.89 2023.25 L2842.54 2023.87 L2852.19 2025.36 L2861.84 2025.73 L2871.49 2024.98 L2881.15 2023.75 L2890.80 2023.38 L2900.45 2024.12 L2910.11 2025.11 L2919.76 2025.36 L2929.41 2024.86 L2939.06 2024.86 L2948.72 2024.37 L2958.37 2024.49 L2968.02 2025.48 L2977.67 2026.47 L2987.32 2028.08 L2996.98 2028.70 L3006.63 2028.57 L3016.28 2028.45 L3025.93 2028.45 L3035.46 2028.45 L3045.12 2028.20 L3054.77 2028.45 L3064.42 2028.45 L3074.07 2028.70 L3083.73 2029.19 L3093.38 2029.32 L3103.03 2028.94 L3112.68 2028.45 L3122.34 2028.08 L3131.99 2028.08 L3141.64 2028.45 L3151.29 2028.82 L3160.95 2029.44 L3170.60 2029.44 L3180.25 2029.32 L3189.90 2029.19 L3199.56 2029.44 L3209.21 2029.19 L3218.86 2028.82 L3228.51 2028.33 L3238.17 2028.20 L3247.82 2028.70 L3257.47 2029.07 L3267.12 2028.94 L3276.78 2028.82 L3286.43 2028.94 L3296.08 2028.94 L3305.73 2028.82 L3315.39 2028.45 L3325.04 2027.95 L3334.69 2027.95 L3344.34 2028.70 L3354.00 2029.32 L3363.65 2029.93 L3373.30 2029.69 L3382.95 2029.19 L3392.61 2029.07 L3402.26 2029.07 L3411.91 2029.32 L3421.56 2029.32 L3431.22 2029.32 L3440.87 2029.69 L3450.52 2030.18 L3460.17 2030.43 L3469.83 2030.43 L3479.48 2030.43 L3489.13 2030.43 L3498.78 2030.43 L3508.44 2030.43 L3518.09 2030.43 L3527.74 2030.43 L3537.27 2030.43 L3546.92 2030.43 L3556.57 2030.43 L3566.23 2030.43 L3575.88 2030.43 L3585.53 2030.43 L3595.18 2030.06 L3604.84 2029.69 L3614.49 2029.56" stroke-linejoin="round" style="fill:none;stroke:#55752F;stroke-width:8.64"/>
	<line x1="390.80" y1="2093.67" x2="390.80" y2="100.86" style="stroke:#000000;stroke-width:5.76"/>
	<line x1="390.80" y1="2030.31" x2="350.83" y2="2030.31" style="stroke:#000000;stroke-width:5.76"/>
	<text x="300.72" y="2030.31" style="font-family:'Helvetica';font-size:99.99px;fill:#000000" transform="rotate(-90 300.72,2030.31)" text-anchor="middle">0</text>
	<line x1="390.80" y1="1408.32" x2="350.83" y2="1408.32" style="stroke:#000000;stroke-width:5.76"/>
	<text x="300.72" y="1408.32" style="font-family:'Helvetica';font-size:99.99px;fill:#000000" transform="rotate(-90 300.72,1408.32)" text-anchor="middle">5</text>
	<line x1="390.80" y1="786.21" x2="350.83" y2="786.21" style="stroke:#000000;stroke-width:5.76"/>
	<text x="300.72" y="786.21" style="font-family:'Helvetica';font-size:99.99px;fill:#000000" transform="rotate(-90 300.72,786.21)" text-anchor="middle">10</text>
	<line x1="390.80" y1="164.22" x2="350.83" y2="164.22" style="stroke:#000000;stroke-width:5.76"/>
	<text x="300.72" y="164.22" style="font-family:'Helvetica';font-size:99.99px;fill:#000000" transform="rotate(-90 300.72,164.22)" text-anchor="middle">15</text>
	<text x="190.71" y="1097.20" style="font-family:'Helvetica';font-size:99.99px;fill:#000000" transform="rotate(-90 190.71,1097.20)" text-anchor="middle">kdensity p0</text>
	<line x1="390.80" y1="2093.67" x2="3859.02" y2="2093.67" style="stroke:#000000;stroke-width:5.76"/>
	<line x1="454.16" y1="2093.67" x2="454.16" y2="2133.64" style="stroke:#000000;stroke-width:5.76"/>
	<text x="454.16" y="2223.62" style="font-family:'Helvetica';font-size:99.99px;fill:#000000" text-anchor="middle">0</text>
	<line x1="1240.72" y1="2093.67" x2="1240.72" y2="2133.64" style="stroke:#000000;stroke-width:5.76"/>
	<text x="1240.72" y="2223.62" style="font-family:'Helvetica';font-size:99.99px;fill:#000000" text-anchor="middle">.1</text>
	<line x1="2027.15" y1="2093.67" x2="2027.15" y2="2133.64" style="stroke:#000000;stroke-width:5.76"/>
	<text x="2027.15" y="2223.62" style="font-family:'Helvetica';font-size:99.99px;fill:#000000" text-anchor="middle">.2</text>
	<line x1="2813.70" y1="2093.67" x2="2813.70" y2="2133.64" style="stroke:#000000;stroke-width:5.76"/>
	<text x="2813.70" y="2223.62" style="font-family:'Helvetica';font-size:99.99px;fill:#000000" text-anchor="middle">.3</text>
	<line x1="3600.26" y1="2093.67" x2="3600.26" y2="2133.64" style="stroke:#000000;stroke-width:5.76"/>
	<text x="3600.26" y="2223.62" style="font-family:'Helvetica';font-size:99.99px;fill:#000000" text-anchor="middle">.4</text>
	<text x="2124.91" y="2333.64" style="font-family:'Helvetica';font-size:99.99px;fill:#000000" text-anchor="middle">x</text>
	<rect x="1209.90" y="2418.27" width="1830.01" height="326.34" style="fill:#FFFFFF"/>
	<rect x="1212.78" y="2421.15" width="1824.26" height="320.58" style="fill:none;stroke:#EAF2F3;stroke-width:5.76"/>
	<line x1="1253.22" y1="2511.46" x2="1627.56" y2="2511.46" style="stroke:#1A476F;stroke-width:8.64"/>
	<line x1="2203.12" y1="2511.46" x2="2577.47" y2="2511.46" style="stroke:#90353B;stroke-width:8.64"/>
	<line x1="1253.22" y1="2651.43" x2="1627.56" y2="2651.43" style="stroke:#55752F;stroke-width:8.64"/>
	<text x="1687.58" y="2539.47" style="font-family:'Helvetica';font-size:79.94px;fill:#000000">P0 - SABA</text>
	<text x="2637.48" y="2539.47" style="font-family:'Helvetica';font-size:79.94px;fill:#000000">P0 - LD ICS</text>
	<text x="1687.58" y="2679.44" style="font-family:'Helvetica';font-size:79.94px;fill:#000000">P0 - HD ICS</text>
</svg>
