<?xml version="1.0" encoding="UTF-8" standalone="no"?>
<!-- This is a Stata 16.1 generated SVG file (http://www.stata.com) -->

<svg version="1.1" width="5.50in" height="4.00in" viewBox="0 0 3960 2880" xmlns="http://www.w3.org/2000/svg" xmlns:xlink="http://www.w3.org/1999/xlink">
	<desc>Stata Graph - Graph</desc>
	<rect x="0" y="0" width="3960" height="2880" style="fill:#EAF2F3;stroke:none"/>
	<rect x="0.00" y="0.00" width="3959.88" height="2880.00" style="fill:#FFFFFF"/>
	<rect x="2.88" y="2.88" width="3954.12" height="2874.24" style="fill:none;stroke:#EAF2F3;stroke-width:5.76"/>
	<rect x="390.80" y="100.86" width="3468.22" height="1992.81" style="fill:#FFFFFF"/>
	<rect x="393.68" y="103.74" width="3462.46" height="1987.05" style="fill:none;stroke:#FFFFFF;stroke-width:5.76"/>
	<line x1="390.80" y1="2030.31" x2="3859.02" y2="2030.31" style="stroke:#EAF2F3;stroke-width:8.64"/>
	<line x1="390.80" y1="1408.32" x2="3859.02" y2="1408.32" style="stroke:#EAF2F3;stroke-width:8.64"/>
	<line x1="390.80" y1="786.21" x2="3859.02" y2="786.21" style="stroke:#EAF2F3;stroke-width:8.64"/>
	<line x1="390.80" y1="164.22" x2="3859.02" y2="164.22" style="stroke:#EAF2F3;stroke-width:8.64"/>
	<path d=" M761.93 2013.10 L771.33 2004.94 L780.62 1996.27 L790.02 1986.50 L799.42 1976.97 L808.71 1968.43 L818.11 1958.16 L827.39 1946.52 L836.80 1933.16 L846.20 1921.16 L855.48 1909.89 L864.89 1899.13 L874.29 1888.98 L883.58 1880.32 L892.98 1873.14 L902.26 1865.96 L911.67 1857.79 L921.07 1848.88 L930.35 1840.47 L939.76 1832.67 L949.16 1824.01 L958.44 1814.11 L967.85 1803.71 L977.25 1792.82 L986.53 1781.81 L995.94 1767.95 L1005.22 1753.72 L1014.63 1738.25 L1024.03 1719.06 L1033.31 1685.28 L1042.72 1631.69 L1052.12 1573.16 L1061.40 1502.50 L1070.81 1421.81 L1080.09 1357.58 L1089.49 1305.48 L1098.90 1270.21 L1108.18 1256.97 L1117.59 1242.24 L1126.99 1223.93 L1136.27 1200.04 L1145.68 1147.20 L1155.08 1074.18 L1164.36 1005.13 L1173.77 927.04 L1183.05 840.41 L1192.45 756.26 L1201.86 687.82 L1211.14 643.52 L1220.55 603.67 L1229.95 571.62 L1239.23 554.79 L1248.64 562.96 L1257.92 583.62 L1267.32 594.14 L1276.73 582.39 L1286.01 582.39 L1295.41 601.57 L1304.82 618.77 L1314.10 633.00 L1323.51 646.24 L1332.79 667.03 L1342.19 700.08 L1351.60 738.07 L1360.88 761.46 L1370.28 778.78 L1379.69 803.16 L1388.97 843.01 L1398.38 889.17 L1407.78 942.01 L1417.06 989.41 L1426.47 1037.92 L1435.75 1094.36 L1445.15 1145.34 L1454.56 1180.61 L1463.84 1201.16 L1473.24 1219.35 L1482.65 1245.58 L1491.93 1279.24 L1501.34 1310.80 L1510.62 1343.10 L1520.02 1380.72 L1529.43 1415.74 L1538.71 1448.79 L1548.11 1478.49 L1557.52 1505.34 L1566.80 1532.32 L1576.20 1559.17 L1585.48 1584.54 L1594.89 1604.35 L1604.30 1625.14 L1613.58 1643.33 L1622.98 1658.30 L1632.39 1673.28 L1641.67 1686.39 L1651.07 1699.51 L1660.48 1713.12 L1669.76 1726.74 L1679.16 1738.99 L1688.44 1750.37 L1697.85 1756.69 L1707.26 1762.50 L1716.54 1768.57 L1725.94 1770.30 L1735.35 1770.67 L1744.63 1768.44 L1754.03 1766.22 L1763.31 1767.08 L1772.72 1768.81 L1782.12 1766.09 L1791.40 1764.73 L1800.81 1768.07 L1810.21 1775.00 L1819.50 1781.31 L1828.90 1786.26 L1838.18 1789.36 L1847.59 1793.94 L1856.99 1796.78 L1866.27 1792.70 L1875.68 1783.42 L1885.08 1772.90 L1894.37 1764.48 L1903.77 1754.33 L1913.17 1743.20 L1922.46 1728.10 L1931.86 1711.27 L1941.14 1699.64 L1950.55 1692.21 L1959.95 1685.65 L1969.23 1678.10 L1978.64 1667.09 L1988.04 1650.75 L1997.33 1632.56 L2006.73 1615.36 L2016.01 1597.54 L2025.42 1589.12 L2034.82 1591.35 L2044.10 1600.51 L2053.51 1610.53 L2062.91 1608.18 L2072.19 1596.18 L2081.60 1573.28 L2090.88 1556.70 L2100.28 1543.58 L2109.69 1542.72 L2118.97 1549.40 L2128.38 1557.07 L2137.78 1560.41 L2147.06 1559.67 L2156.47 1559.30 L2165.87 1548.41 L2175.15 1540.74 L2184.56 1538.38 L2193.84 1543.46 L2203.24 1546.80 L2212.65 1548.04 L2221.93 1547.17 L2231.34 1546.55 L2240.74 1547.91 L2250.02 1551.38 L2259.43 1557.44 L2268.71 1570.07 L2278.11 1586.28 L2287.52 1596.80 L2296.80 1602.61 L2306.20 1606.94 L2315.61 1608.68 L2324.89 1610.66 L2334.30 1613.38 L2343.70 1620.56 L2352.98 1629.71 L2362.39 1642.83 L2371.67 1654.47 L2381.07 1663.13 L2390.48 1667.95 L2399.76 1674.14 L2409.16 1680.95 L2418.57 1688.87 L2427.85 1694.44 L2437.26 1701.24 L2446.54 1709.29 L2455.94 1715.85 L2465.35 1721.91 L2474.63 1729.71 L2484.03 1733.67 L2493.44 1738.00 L2502.72 1743.20 L2512.13 1744.19 L2521.41 1750.87 L2530.81 1758.42 L2540.22 1767.70 L2549.50 1775.37 L2558.90 1784.28 L2568.31 1791.09 L2577.59 1798.02 L2586.99 1805.45 L2596.40 1815.22 L2605.68 1827.35 L2615.09 1835.39 L2624.37 1840.59 L2633.77 1841.58 L2643.18 1840.72 L2652.46 1839.11 L2661.86 1840.96 L2671.27 1846.41 L2680.55 1854.20 L2689.95 1863.61 L2699.24 1870.17 L2708.64 1875.12 L2718.05 1877.84 L2727.33 1880.81 L2736.73 1886.63 L2746.14 1895.66 L2755.42 1906.68 L2764.82 1916.82 L2774.10 1927.34 L2783.51 1936.50 L2792.91 1939.59 L2802.20 1938.73 L2811.60 1934.89 L2821.01 1932.17 L2830.29 1930.81 L2839.69 1932.66 L2849.10 1937.00 L2858.38 1943.18 L2867.78 1951.60 L2877.06 1958.90 L2886.47 1962.98 L2895.87 1965.09 L2905.16 1966.20 L2914.56 1966.70 L2923.97 1965.46 L2933.25 1966.20 L2942.65 1967.32 L2951.93 1969.79 L2961.34 1974.25 L2970.74 1976.97 L2980.02 1981.05 L2989.43 1984.89 L2998.83 1988.48 L3008.11 1990.21 L3017.52 1992.07 L3026.80 1994.54 L3036.21 1998.25 L3045.61 2002.46 L3054.89 2005.93 L3064.30 2009.02 L3073.70 2010.13 L3082.98 2009.64 L3092.39 2008.28 L3101.79 2006.79 L3111.07 2005.31 L3120.48 2006.30 L3129.76 2007.66 L3139.17 2010.13 L3148.57 2013.35 L3157.85 2016.69 L3167.26 2019.54 L3176.66 2022.39 L3185.94 2024.24 L3195.35 2024.37 L3204.63 2024.37 L3214.03 2023.87 L3223.44 2023.38 L3232.72 2023.62 L3242.13 2024.24 L3251.53 2025.11 L3260.81 2025.73 L3270.22 2025.48 L3279.50 2025.11 L3288.90 2024.98 L3298.31 2025.36 L3307.59 2025.60 L3316.99 2026.35 L3326.40 2027.71 L3335.68 2028.82 L3345.09 2028.57 L3354.49 2027.83 L3363.77 2026.96 L3373.18 2026.47 L3382.46 2026.22 L3391.86 2026.10 L3401.27 2026.59 L3410.55 2027.71 L3419.95 2028.57 L3429.36 2028.82 L3438.64 2029.44 L3448.05 2029.69 L3457.33 2029.56 L3466.73 2029.44 L3476.14 2029.32 L3485.42 2028.94 L3494.82 2028.70 L3504.23 2028.57 L3513.51 2028.82 L3522.91 2028.94 L3532.32 2028.82 L3541.60 2028.70 L3551.01 2028.70 L3560.29 2029.07" stroke-linejoin="round" style="fill:none;stroke:#1A476F;stroke-width:8.64"/>
	<path d=" M738.29 2027.83 L748.56 2023.62 L758.71 2017.68 L768.98 2010.26 L779.25 2001.60 L789.40 1991.69 L799.67 1981.30 L809.82 1971.28 L820.09 1958.78 L830.36 1945.16 L840.51 1931.55 L850.78 1918.43 L861.05 1905.19 L871.20 1892.82 L881.47 1881.80 L891.62 1872.52 L901.89 1862.99 L912.16 1852.84 L922.31 1842.70 L932.58 1832.67 L942.85 1822.15 L953.00 1811.51 L963.27 1800.62 L973.54 1789.60 L983.69 1777.97 L993.96 1766.09 L1004.11 1751.61 L1014.38 1734.53 L1024.65 1712.26 L1034.80 1675.50 L1045.07 1619.94 L1055.34 1558.31 L1065.49 1477.25 L1075.76 1398.54 L1085.91 1339.51 L1096.18 1292.36 L1106.45 1265.75 L1116.60 1244.84 L1126.87 1224.30 L1137.14 1197.57 L1147.29 1131.98 L1157.56 1042.01 L1167.70 951.54 L1177.98 846.48 L1188.25 734.97 L1198.39 633.00 L1208.67 573.85 L1218.94 534.86 L1229.09 503.31 L1239.36 487.22 L1249.50 494.27 L1259.78 515.06 L1270.05 516.67 L1280.19 498.23 L1290.46 508.75 L1300.74 537.09 L1310.88 562.59 L1321.15 588.33 L1331.43 625.45 L1341.57 679.66 L1351.85 736.83 L1361.99 773.09 L1372.26 799.82 L1382.54 839.42 L1392.68 886.82 L1402.95 932.73 L1413.22 978.27 L1423.37 1022.21 L1433.64 1071.46 L1443.79 1123.31 L1454.06 1162.05 L1464.33 1194.60 L1474.48 1230.36 L1484.75 1271.20 L1495.02 1316.49 L1505.17 1361.29 L1515.44 1400.77 L1525.59 1436.66 L1535.86 1472.05 L1546.13 1504.35 L1556.28 1529.60 L1566.55 1550.14 L1576.82 1572.17 L1586.97 1597.04 L1597.24 1621.55 L1607.39 1642.83 L1617.66 1664.86 L1627.93 1686.02 L1638.08 1703.84 L1648.35 1719.56 L1658.62 1734.66 L1668.77 1749.51 L1679.04 1762.13 L1689.31 1771.54 L1699.46 1780.32 L1709.73 1787.01 L1719.88 1789.85 L1730.15 1788.74 L1740.42 1787.13 L1750.57 1785.77 L1760.84 1785.52 L1771.11 1784.41 L1781.26 1781.93 L1791.53 1777.85 L1801.68 1778.22 L1811.95 1780.32 L1822.22 1784.16 L1832.37 1788.49 L1842.64 1792.95 L1852.91 1794.68 L1863.06 1791.83 L1873.33 1781.07 L1883.47 1769.68 L1893.75 1759.16 L1904.02 1748.52 L1914.16 1734.29 L1924.44 1709.66 L1934.71 1681.82 L1944.86 1659.42 L1955.13 1643.70 L1965.27 1633.67 L1975.55 1628.35 L1985.82 1619.69 L1995.96 1612.27 L2006.23 1599.77 L2016.51 1587.51 L2026.65 1579.72 L2036.92 1579.84 L2047.20 1583.68 L2057.34 1588.01 L2067.61 1580.21 L2077.76 1563.63 L2088.03 1547.91 L2098.30 1540.49 L2108.45 1540.12 L2118.72 1546.92 L2128.99 1554.10 L2139.14 1558.18 L2149.41 1554.84 L2159.56 1544.57 L2169.83 1535.29 L2180.10 1533.31 L2190.25 1539.50 L2200.52 1550.76 L2210.79 1562.02 L2220.94 1570.31 L2231.21 1570.31 L2241.36 1568.58 L2251.63 1570.68 L2261.90 1580.09 L2272.05 1594.20 L2282.32 1607.32 L2292.59 1614.62 L2302.74 1616.23 L2313.01 1612.64 L2323.16 1608.31 L2333.43 1608.80 L2343.70 1618.70 L2353.85 1635.04 L2364.12 1655.08 L2374.39 1671.67 L2384.54 1680.21 L2394.81 1684.79 L2405.08 1685.90 L2415.23 1687.88 L2425.50 1693.57 L2435.65 1702.36 L2445.92 1713.50 L2456.19 1724.26 L2466.34 1733.79 L2476.61 1741.96 L2486.88 1746.41 L2497.03 1752.35 L2507.30 1759.90 L2517.45 1769.56 L2527.72 1778.10 L2537.99 1785.40 L2548.14 1793.19 L2558.41 1800.25 L2568.68 1806.56 L2578.83 1814.11 L2589.10 1821.90 L2599.24 1830.44 L2609.52 1836.26 L2619.79 1839.35 L2629.93 1840.22 L2640.21 1842.32 L2650.48 1845.54 L2660.63 1851.23 L2670.90 1859.03 L2681.04 1868.31 L2691.32 1876.73 L2701.59 1884.77 L2711.73 1890.09 L2722.01 1895.91 L2732.28 1900.49 L2742.42 1905.07 L2752.70 1911.50 L2762.97 1918.68 L2773.11 1924.25 L2783.39 1930.19 L2793.53 1934.77 L2803.80 1938.48 L2814.07 1940.96 L2824.22 1942.69 L2834.49 1946.03 L2844.76 1950.36 L2854.91 1955.06 L2865.18 1960.39 L2875.33 1964.72 L2885.60 1968.18 L2895.87 1971.15 L2906.02 1972.64 L2916.29 1974.49 L2926.56 1976.84 L2936.71 1980.06 L2946.98 1984.02 L2957.13 1987.24 L2967.40 1990.09 L2977.67 1993.06 L2987.82 1994.54 L2998.09 1995.41 L3008.36 1996.15 L3018.51 1996.89 L3028.78 1998.25 L3038.93 1999.74 L3049.20 2002.09 L3059.47 2004.57 L3069.62 2006.67 L3079.89 2008.40 L3090.16 2010.01 L3100.31 2011.50 L3110.58 2012.61 L3120.85 2013.72 L3131.00 2015.21 L3141.27 2016.57 L3151.42 2017.68 L3161.69 2018.67 L3171.96 2019.79 L3182.11 2021.02 L3192.38 2021.89 L3202.65 2022.63 L3212.80 2023.00 L3223.07 2023.38 L3233.22 2023.50 L3243.49 2023.62 L3253.76 2024.24 L3263.91 2024.86 L3274.18 2025.60 L3284.45 2026.22 L3294.60 2026.59 L3304.87 2026.96 L3315.01 2027.09 L3325.29 2027.09 L3335.56 2027.46 L3345.70 2027.71 L3355.98 2027.71 L3366.25 2027.83 L3376.39 2028.08 L3386.67 2028.45 L3396.81 2028.70 L3407.09 2029.07 L3417.36 2029.32 L3427.50 2029.32 L3437.78 2029.19 L3448.05 2029.32 L3458.19 2029.44 L3468.47 2029.44 L3478.74 2029.44 L3488.88 2029.44 L3499.16 2029.44 L3509.30 2029.44 L3519.57 2029.56 L3529.84 2029.81 L3539.99 2030.06 L3550.26 2030.18 L3560.53 2030.31 L3570.68 2030.31 L3580.95 2030.31 L3591.10 2030.18 L3601.37 2030.18 L3611.64 2030.18 L3621.79 2030.18 L3632.06 2030.18 L3642.33 2030.18 L3652.48 2030.18 L3662.75 2030.18 L3672.90 2030.31 L3683.17 2030.31 L3693.44 2030.43 L3703.59 2030.43 L3713.86 2030.43 L3724.13 2030.43 L3734.28 2030.43 L3744.55 2030.43 L3754.70 2030.43 L3764.97 2030.31 L3775.24 2030.31 L3785.39 2030.31 L3795.66 2030.31" stroke-linejoin="round" style="fill:none;stroke:#90353B;stroke-width:8.64"/>
	<path d=" M762.30 2020.90 L771.83 2015.33 L781.23 2009.14 L790.76 2001.84 L800.29 1993.43 L809.82 1984.27 L819.35 1973.75 L828.88 1961.87 L838.41 1948.88 L847.81 1935.51 L857.34 1922.02 L866.87 1909.27 L876.40 1896.16 L885.93 1885.51 L895.46 1874.25 L904.86 1864.35 L914.39 1853.21 L923.92 1841.33 L933.45 1830.44 L942.98 1818.93 L952.50 1806.19 L962.03 1794.68 L971.44 1785.27 L980.97 1776.86 L990.50 1765.97 L1000.02 1751.61 L1009.55 1738.37 L1019.08 1724.88 L1028.61 1704.21 L1038.02 1664.37 L1047.54 1613.50 L1057.07 1563.63 L1066.60 1497.67 L1076.13 1430.47 L1085.66 1376.64 L1095.06 1333.08 L1104.59 1307.34 L1114.12 1288.15 L1123.65 1261.79 L1133.18 1234.32 L1142.71 1184.94 L1152.24 1107.23 L1161.64 1024.68 L1171.17 937.06 L1180.70 841.03 L1190.23 745.62 L1199.76 661.34 L1209.29 608.75 L1218.81 568.53 L1228.22 533.63 L1237.75 508.88 L1247.28 506.28 L1256.81 520.76 L1266.33 529.42 L1275.86 513.95 L1285.27 500.21 L1294.80 509.12 L1304.33 525.71 L1313.85 543.53 L1323.38 563.20 L1332.91 595.38 L1342.44 646.12 L1351.85 694.51 L1361.37 727.30 L1370.90 750.44 L1380.43 781.38 L1389.96 825.19 L1399.49 869.87 L1408.89 916.89 L1418.42 962.06 L1427.95 1012.31 L1437.48 1066.39 L1447.01 1113.54 L1456.54 1145.34 L1466.07 1182.22 L1475.47 1222.94 L1485.00 1261.05 L1494.53 1297.56 L1504.06 1336.42 L1513.59 1370.82 L1523.12 1402.63 L1532.64 1433.19 L1542.05 1465.12 L1551.58 1500.14 L1561.11 1528.98 L1570.63 1550.26 L1580.16 1570.19 L1589.69 1590.48 L1599.10 1610.66 L1608.63 1627.86 L1618.15 1645.31 L1627.68 1662.76 L1637.21 1677.73 L1646.74 1692.33 L1656.27 1704.71 L1665.67 1718.45 L1675.20 1733.67 L1684.73 1746.91 L1694.26 1759.53 L1703.79 1771.17 L1713.32 1782.06 L1722.85 1790.22 L1732.25 1793.56 L1741.78 1793.81 L1751.31 1792.57 L1760.84 1790.84 L1770.37 1788.61 L1779.90 1783.66 L1789.30 1775.25 L1798.83 1772.90 L1808.36 1773.15 L1817.89 1774.51 L1827.42 1777.48 L1836.94 1783.17 L1846.47 1788.86 L1855.88 1790.97 L1865.41 1785.03 L1874.94 1772.65 L1884.46 1759.66 L1893.99 1748.27 L1903.52 1735.90 L1913.05 1720.43 L1922.46 1698.77 L1931.98 1672.16 L1941.51 1650.88 L1951.04 1635.04 L1960.57 1625.38 L1970.10 1616.84 L1979.51 1611.03 L1989.03 1600.63 L1998.56 1587.89 L2008.09 1574.27 L2017.62 1563.51 L2027.15 1559.55 L2036.68 1565.86 L2046.08 1571.80 L2055.61 1577.99 L2065.14 1573.04 L2074.67 1559.79 L2084.20 1542.47 L2093.73 1533.06 L2103.26 1531.08 L2112.66 1538.63 L2122.19 1546.43 L2131.72 1555.09 L2141.25 1557.69 L2150.78 1553.48 L2160.30 1545.81 L2169.71 1538.88 L2179.24 1539.50 L2188.77 1544.82 L2198.30 1552.62 L2207.82 1558.93 L2217.35 1565.24 L2226.88 1565.61 L2236.29 1563.88 L2245.82 1565.98 L2255.34 1574.27 L2264.87 1586.40 L2274.40 1598.65 L2283.93 1609.42 L2293.46 1614.00 L2302.86 1615.85 L2312.39 1613.26 L2321.92 1613.38 L2331.45 1621.05 L2340.98 1633.06 L2350.51 1649.14 L2359.91 1667.58 L2369.44 1683.05 L2378.97 1689.61 L2388.50 1690.60 L2398.03 1688.37 L2407.56 1687.01 L2417.09 1689.36 L2426.49 1696.67 L2436.02 1710.03 L2445.55 1724.88 L2455.08 1736.39 L2464.61 1744.81 L2474.13 1749.63 L2483.66 1752.85 L2493.07 1753.34 L2502.60 1755.32 L2512.13 1762.50 L2521.65 1774.26 L2531.18 1784.41 L2540.71 1794.43 L2550.12 1801.86 L2559.64 1809.28 L2569.17 1816.46 L2578.70 1823.39 L2588.23 1830.20 L2597.76 1836.63 L2607.29 1841.33 L2616.69 1845.29 L2626.22 1847.89 L2635.75 1849.87 L2645.28 1855.94 L2654.81 1864.97 L2664.34 1874.25 L2673.87 1883.91 L2683.27 1892.57 L2692.80 1899.50 L2702.33 1905.56 L2711.86 1908.16 L2721.39 1909.77 L2730.91 1911.38 L2740.32 1911.38 L2749.85 1913.98 L2759.38 1918.68 L2768.91 1923.63 L2778.43 1929.08 L2787.96 1934.77 L2797.49 1939.22 L2806.90 1942.94 L2816.43 1944.05 L2825.95 1944.54 L2835.48 1948.13 L2845.01 1953.33 L2854.54 1958.03 L2863.95 1963.73 L2873.47 1969.05 L2883.00 1973.63 L2892.53 1976.72 L2902.06 1977.71 L2911.59 1979.32 L2921.12 1982.41 L2930.52 1985.75 L2940.05 1989.22 L2949.58 1992.81 L2959.11 1996.03 L2968.64 1998.62 L2978.17 2000.23 L2987.70 2000.98 L2997.10 2001.84 L3006.63 2002.96 L3016.16 2003.70 L3025.69 2004.69 L3035.22 2006.05 L3044.74 2007.29 L3054.15 2008.53 L3063.68 2009.76 L3073.21 2011.00 L3082.74 2012.61 L3092.26 2014.22 L3101.79 2015.33 L3111.32 2016.94 L3120.73 2018.55 L3130.26 2019.91 L3139.78 2021.15 L3149.31 2022.26 L3158.84 2023.13 L3168.37 2023.62 L3177.90 2024.12 L3187.30 2024.49 L3196.83 2024.98 L3206.36 2025.48 L3215.89 2025.73 L3225.42 2025.73 L3234.95 2025.73 L3244.35 2025.85 L3253.88 2025.97 L3263.41 2026.35 L3272.94 2027.09 L3282.47 2027.71 L3292.00 2028.33 L3301.53 2028.70 L3310.93 2028.70 L3320.46 2028.45 L3329.99 2028.20 L3339.52 2028.08 L3349.05 2028.20 L3358.57 2028.33 L3368.10 2028.70 L3377.51 2029.07 L3387.04 2029.44 L3396.57 2029.44 L3406.09 2029.56 L3415.62 2029.44 L3425.15 2029.32 L3434.56 2029.19 L3444.09 2029.19 L3453.61 2029.19 L3463.14 2029.32 L3472.67 2029.44 L3482.20 2029.56 L3491.73 2029.93 L3501.14 2030.06 L3510.66 2030.18 L3520.19 2030.18 L3529.72 2030.18 L3539.25 2030.18 L3548.78 2030.18 L3558.31 2030.18 L3567.71 2030.18 L3577.24 2030.18 L3586.77 2030.06 L3596.30 2030.06 L3605.83 2030.06" stroke-linejoin="round" style="fill:none;stroke:#55752F;stroke-width:8.64"/>
	<line x1="390.80" y1="2093.67" x2="390.80" y2="100.86" style="stroke:#000000;stroke-width:5.76"/>
	<line x1="390.80" y1="2030.31" x2="350.83" y2="2030.31" style="stroke:#000000;stroke-width:5.76"/>
	<text x="300.72" y="2030.31" style="font-family:'Helvetica';font-size:99.99px;fill:#000000" transform="rotate(-90 300.72,2030.31)" text-anchor="middle">0</text>
	<line x1="390.80" y1="1408.32" x2="350.83" y2="1408.32" style="stroke:#000000;stroke-width:5.76"/>
	<text x="300.72" y="1408.32" style="font-family:'Helvetica';font-size:99.99px;fill:#000000" transform="rotate(-90 300.72,1408.32)" text-anchor="middle">5</text>
	<line x1="390.80" y1="786.21" x2="350.83" y2="786.21" style="stroke:#000000;stroke-width:5.76"/>
	<text x="300.72" y="786.21" style="font-family:'Helvetica';font-size:99.99px;fill:#000000" transform="rotate(-90 300.72,786.21)" text-anchor="middle">10</text>
	<line x1="390.80" y1="164.22" x2="350.83" y2="164.22" style="stroke:#000000;stroke-width:5.76"/>
	<text x="300.72" y="164.22" style="font-family:'Helvetica';font-size:99.99px;fill:#000000" transform="rotate(-90 300.72,164.22)" text-anchor="middle">15</text>
	<text x="190.71" y="1097.20" style="font-family:'Helvetica';font-size:99.99px;fill:#000000" transform="rotate(-90 190.71,1097.20)" text-anchor="middle">kdensity p2</text>
	<line x1="390.80" y1="2093.67" x2="3859.02" y2="2093.67" style="stroke:#000000;stroke-width:5.76"/>
	<line x1="454.16" y1="2093.67" x2="454.16" y2="2133.64" style="stroke:#000000;stroke-width:5.76"/>
	<text x="454.16" y="2223.62" style="font-family:'Helvetica';font-size:99.99px;fill:#000000" text-anchor="middle">0</text>
	<line x1="1259.65" y1="2093.67" x2="1259.65" y2="2133.64" style="stroke:#000000;stroke-width:5.76"/>
	<text x="1259.65" y="2223.62" style="font-family:'Helvetica';font-size:99.99px;fill:#000000" text-anchor="middle">.1</text>
	<line x1="2065.14" y1="2093.67" x2="2065.14" y2="2133.64" style="stroke:#000000;stroke-width:5.76"/>
	<text x="2065.14" y="2223.62" style="font-family:'Helvetica';font-size:99.99px;fill:#000000" text-anchor="middle">.2</text>
	<line x1="2870.63" y1="2093.67" x2="2870.63" y2="2133.64" style="stroke:#000000;stroke-width:5.76"/>
	<text x="2870.63" y="2223.62" style="font-family:'Helvetica';font-size:99.99px;fill:#000000" text-anchor="middle">.3</text>
	<line x1="3676.24" y1="2093.67" x2="3676.24" y2="2133.64" style="stroke:#000000;stroke-width:5.76"/>
	<text x="3676.24" y="2223.62" style="font-family:'Helvetica';font-size:99.99px;fill:#000000" text-anchor="middle">.4</text>
	<text x="2124.91" y="2333.64" style="font-family:'Helvetica';font-size:99.99px;fill:#000000" text-anchor="middle">x</text>
	<rect x="1209.90" y="2418.27" width="1830.01" height="326.34" style="fill:#FFFFFF"/>
	<rect x="1212.78" y="2421.15" width="1824.26" height="320.58" style="fill:none;stroke:#EAF2F3;stroke-width:5.76"/>
	<line x1="1253.22" y1="2511.46" x2="1627.56" y2="2511.46" style="stroke:#1A476F;stroke-width:8.64"/>
	<line x1="2203.12" y1="2511.46" x2="2577.47" y2="2511.46" style="stroke:#90353B;stroke-width:8.64"/>
	<line x1="1253.22" y1="2651.43" x2="1627.56" y2="2651.43" style="stroke:#55752F;stroke-width:8.64"/>
	<text x="1687.58" y="2539.47" style="font-family:'Helvetica';font-size:79.94px;fill:#000000">P2 - SABA</text>
	<text x="2637.48" y="2539.47" style="font-family:'Helvetica';font-size:79.94px;fill:#000000">P2 - LD ICS</text>
	<text x="1687.58" y="2679.44" style="font-family:'Helvetica';font-size:79.94px;fill:#000000">P2 - HD ICS</text>
</svg>
