<?xml version="1.0" encoding="UTF-8" standalone="no"?>
<!-- This is a Stata 16.1 generated SVG file (http://www.stata.com) -->

<svg version="1.1" width="5.50in" height="4.00in" viewBox="0 0 3960 2880" xmlns="http://www.w3.org/2000/svg" xmlns:xlink="http://www.w3.org/1999/xlink">
	<desc>Stata Graph - Graph</desc>
	<rect x="0" y="0" width="3960" height="2880" style="fill:#EAF2F3;stroke:none"/>
	<rect x="0.00" y="0.00" width="3959.88" height="2880.00" style="fill:#FFFFFF"/>
	<rect x="2.88" y="2.88" width="3954.12" height="2874.24" style="fill:none;stroke:#EAF2F3;stroke-width:5.76"/>
	<rect x="390.80" y="100.86" width="3468.22" height="1992.81" style="fill:#FFFFFF"/>
	<rect x="393.68" y="103.74" width="3462.46" height="1987.05" style="fill:none;stroke:#FFFFFF;stroke-width:5.76"/>
	<line x1="390.80" y1="2030.31" x2="3859.02" y2="2030.31" style="stroke:#EAF2F3;stroke-width:8.64"/>
	<line x1="390.80" y1="1563.75" x2="3859.02" y2="1563.75" style="stroke:#EAF2F3;stroke-width:8.64"/>
	<line x1="390.80" y1="1097.20" x2="3859.02" y2="1097.20" style="stroke:#EAF2F3;stroke-width:8.64"/>
	<line x1="390.80" y1="630.65" x2="3859.02" y2="630.65" style="stroke:#EAF2F3;stroke-width:8.64"/>
	<path d=" M761.93 1949.37 L771.33 1917.69 L780.62 1882.79 L790.02 1845.29 L799.42 1809.53 L808.71 1777.60 L818.11 1745.92 L827.39 1712.75 L836.80 1679.96 L846.20 1650.13 L855.48 1625.38 L864.89 1603.48 L874.29 1587.14 L883.58 1571.67 L892.98 1562.02 L902.26 1555.71 L911.67 1548.16 L921.07 1538.51 L930.35 1530.84 L939.76 1522.30 L949.16 1512.89 L958.44 1501.13 L967.85 1490.00 L977.25 1476.63 L986.53 1463.51 L995.94 1446.81 L1005.22 1428.49 L1014.63 1407.45 L1024.03 1374.41 L1033.31 1316.25 L1042.72 1244.96 L1052.12 1162.05 L1061.40 1059.46 L1070.81 966.52 L1080.09 888.43 L1089.49 821.48 L1098.90 783.49 L1108.18 767.52 L1117.59 768.39 L1126.99 765.17 L1136.27 752.42 L1145.68 741.66 L1155.08 715.17 L1164.36 686.96 L1173.77 655.90 L1183.05 621.62 L1192.45 598.35 L1201.86 588.94 L1211.14 586.84 L1220.55 592.78 L1229.95 603.30 L1239.23 624.71 L1248.64 664.06 L1257.92 708.99 L1267.32 741.29 L1276.73 773.59 L1286.01 810.34 L1295.41 857.61 L1304.82 902.54 L1314.10 937.44 L1323.51 973.08 L1332.79 1010.57 L1342.19 1057.23 L1351.60 1106.11 L1360.88 1142.25 L1370.28 1167.00 L1379.69 1195.46 L1388.97 1233.70 L1398.38 1276.27 L1407.78 1315.87 L1417.06 1354.49 L1426.47 1390.50 L1435.75 1426.63 L1445.15 1464.26 L1454.56 1497.92 L1463.84 1521.43 L1473.24 1541.35 L1482.65 1563.63 L1491.93 1586.77 L1501.34 1609.79 L1510.62 1632.31 L1520.02 1655.33 L1529.43 1677.48 L1538.71 1697.41 L1548.11 1717.83 L1557.52 1736.27 L1566.80 1752.97 L1576.20 1770.79 L1585.48 1787.25 L1594.89 1801.49 L1604.30 1813.74 L1613.58 1825.12 L1622.98 1835.52 L1632.39 1843.19 L1641.67 1851.23 L1651.07 1860.14 L1660.48 1867.07 L1669.76 1874.38 L1679.16 1882.05 L1688.44 1887.87 L1697.85 1892.07 L1707.26 1895.91 L1716.54 1899.25 L1725.94 1900.24 L1735.35 1899.99 L1744.63 1899.62 L1754.03 1899.75 L1763.31 1899.62 L1772.72 1900.24 L1782.12 1899.62 L1791.40 1899.37 L1800.81 1901.85 L1810.21 1905.69 L1819.50 1909.89 L1828.90 1913.23 L1838.18 1915.83 L1847.59 1918.18 L1856.99 1920.66 L1866.27 1921.03 L1875.68 1918.93 L1885.08 1916.70 L1894.37 1914.60 L1903.77 1912.99 L1913.17 1911.38 L1922.46 1909.03 L1931.86 1906.92 L1941.14 1906.43 L1950.55 1907.67 L1959.95 1908.04 L1969.23 1908.16 L1978.64 1906.43 L1988.04 1903.95 L1997.33 1901.60 L2006.73 1899.37 L2016.01 1896.28 L2025.42 1894.30 L2034.82 1894.67 L2044.10 1897.15 L2053.51 1899.13 L2062.91 1900.61 L2072.19 1899.13 L2081.60 1896.28 L2090.88 1894.67 L2100.28 1895.17 L2109.69 1896.03 L2118.97 1898.26 L2128.38 1900.74 L2137.78 1903.83 L2147.06 1906.80 L2156.47 1907.91 L2165.87 1907.67 L2175.15 1906.06 L2184.56 1906.06 L2193.84 1907.17 L2203.24 1909.40 L2212.65 1912.62 L2221.93 1915.46 L2231.34 1917.44 L2240.74 1919.92 L2250.02 1922.52 L2259.43 1925.49 L2268.71 1928.70 L2278.11 1932.79 L2287.52 1935.76 L2296.80 1937.37 L2306.20 1938.73 L2315.61 1940.58 L2324.89 1941.45 L2334.30 1942.69 L2343.70 1944.54 L2352.98 1947.14 L2362.39 1950.11 L2371.67 1953.21 L2381.07 1956.18 L2390.48 1958.90 L2399.76 1961.00 L2409.16 1963.60 L2418.57 1965.21 L2427.85 1966.70 L2437.26 1968.55 L2446.54 1970.78 L2455.94 1972.76 L2465.35 1974.37 L2474.63 1975.48 L2484.03 1976.35 L2493.44 1977.22 L2502.72 1978.58 L2512.13 1979.81 L2521.41 1980.93 L2530.81 1982.41 L2540.22 1983.77 L2549.50 1985.26 L2558.90 1987.12 L2568.31 1988.97 L2577.59 1990.83 L2586.99 1992.56 L2596.40 1994.17 L2605.68 1995.90 L2615.09 1997.39 L2624.37 1998.75 L2633.77 1999.49 L2643.18 1999.74 L2652.46 1999.99 L2661.86 2000.48 L2671.27 2001.10 L2680.55 2002.09 L2689.95 2003.45 L2699.24 2004.81 L2708.64 2005.68 L2718.05 2006.79 L2727.33 2007.78 L2736.73 2009.02 L2746.14 2010.26 L2755.42 2011.62 L2764.82 2012.98 L2774.10 2014.34 L2783.51 2015.58 L2792.91 2016.32 L2802.20 2016.45 L2811.60 2016.32 L2821.01 2016.07 L2830.29 2016.32 L2839.69 2016.69 L2849.10 2017.31 L2858.38 2018.05 L2867.78 2019.04 L2877.06 2019.91 L2886.47 2020.65 L2895.87 2021.15 L2905.16 2021.64 L2914.56 2021.64 L2923.97 2021.64 L2933.25 2021.77 L2942.65 2022.01 L2951.93 2022.39 L2961.34 2022.88 L2970.74 2023.50 L2980.02 2023.87 L2989.43 2024.24 L2998.83 2024.86 L3008.11 2025.23 L3017.52 2025.48 L3026.80 2025.85 L3036.21 2026.22 L3045.61 2026.59 L3054.89 2026.96 L3064.30 2027.34 L3073.70 2027.46 L3082.98 2027.46 L3092.39 2027.46 L3101.79 2027.21 L3111.07 2027.09 L3120.48 2027.21 L3129.76 2027.34 L3139.17 2027.71 L3148.57 2028.08 L3157.85 2028.45 L3167.26 2028.94 L3176.66 2029.19 L3185.94 2029.44 L3195.35 2029.56 L3204.63 2029.56 L3214.03 2029.56 L3223.44 2029.56 L3232.72 2029.56 L3242.13 2029.56 L3251.53 2029.69 L3260.81 2029.69 L3270.22 2029.69 L3279.50 2029.69 L3288.90 2029.81 L3298.31 2029.81 L3307.59 2029.81 L3316.99 2029.93 L3326.40 2030.06 L3335.68 2030.06 L3345.09 2030.18 L3354.49 2030.06 L3363.77 2030.06 L3373.18 2029.93 L3382.46 2029.93 L3391.86 2029.93 L3401.27 2029.93 L3410.55 2030.06 L3419.95 2030.18 L3429.36 2030.18 L3438.64 2030.31 L3448.05 2030.31 L3457.33 2030.31 L3466.73 2030.31 L3476.14 2030.31 L3485.42 2030.18 L3494.82 2030.18 L3504.23 2030.18 L3513.51 2030.18 L3522.91 2030.18 L3532.32 2030.18 L3541.60 2030.18 L3551.01 2030.18 L3560.29 2030.31" stroke-linejoin="round" style="fill:none;stroke:#1A476F;stroke-width:8.64"/>
	<path d=" M738.29 2026.22 L748.56 2018.05 L758.71 2004.94 L768.98 1989.47 L779.25 1970.53 L789.40 1951.47 L799.67 1932.66 L809.82 1915.71 L820.09 1896.53 L830.36 1873.88 L840.51 1851.11 L850.78 1830.07 L861.05 1811.63 L871.20 1794.43 L881.47 1781.81 L891.62 1771.78 L901.89 1762.38 L912.16 1751.24 L922.31 1740.72 L932.58 1732.18 L942.85 1722.28 L953.00 1713.00 L963.27 1704.09 L973.54 1695.18 L983.69 1685.90 L993.96 1676.00 L1004.11 1665.97 L1014.38 1650.75 L1024.65 1630.09 L1034.80 1597.54 L1045.07 1533.19 L1055.34 1460.67 L1065.49 1375.15 L1075.76 1280.73 L1085.91 1219.72 L1096.18 1180.98 L1106.45 1168.98 L1116.60 1160.94 L1126.87 1156.11 L1137.14 1144.48 L1147.29 1079.63 L1157.56 991.14 L1167.70 893.01 L1177.98 786.83 L1188.25 679.66 L1198.39 580.28 L1208.67 535.61 L1218.94 518.03 L1229.09 506.28 L1239.36 509.62 L1249.50 535.61 L1259.78 574.22 L1270.05 593.40 L1280.19 597.61 L1290.46 617.28 L1300.74 652.68 L1310.88 693.15 L1321.15 730.52 L1331.43 784.72 L1341.57 851.06 L1351.85 907.24 L1361.99 949.69 L1372.26 993.12 L1382.54 1037.68 L1392.68 1082.72 L1402.95 1131.11 L1413.22 1179.50 L1423.37 1227.27 L1433.64 1279.74 L1443.79 1327.76 L1454.06 1361.29 L1464.33 1392.73 L1474.48 1428.37 L1484.75 1465.74 L1495.02 1504.85 L1505.17 1543.46 L1515.44 1577.86 L1525.59 1609.05 L1535.86 1638.87 L1546.13 1665.48 L1556.28 1685.90 L1566.55 1703.60 L1576.82 1722.04 L1586.97 1741.34 L1597.24 1760.52 L1607.39 1777.72 L1617.66 1794.80 L1627.93 1811.51 L1638.08 1825.00 L1648.35 1836.38 L1658.62 1847.40 L1668.77 1859.40 L1679.04 1868.93 L1689.31 1876.23 L1699.46 1882.79 L1709.73 1888.24 L1719.88 1891.70 L1730.15 1892.94 L1740.42 1893.43 L1750.57 1893.43 L1760.84 1893.93 L1771.11 1895.04 L1781.26 1896.40 L1791.53 1895.41 L1801.68 1895.79 L1811.95 1897.39 L1822.22 1900.12 L1832.37 1905.07 L1842.64 1909.65 L1852.91 1912.49 L1863.06 1910.64 L1873.33 1905.19 L1883.47 1899.87 L1893.75 1895.54 L1904.02 1892.07 L1914.16 1886.13 L1924.44 1875.24 L1934.71 1861.75 L1944.86 1849.75 L1955.13 1842.45 L1965.27 1839.72 L1975.55 1839.97 L1985.82 1838.98 L1995.96 1835.64 L2006.23 1829.21 L2016.51 1824.26 L2026.65 1822.28 L2036.92 1825.37 L2047.20 1829.58 L2057.34 1833.29 L2067.61 1831.68 L2077.76 1825.49 L2088.03 1818.69 L2098.30 1815.35 L2108.45 1817.20 L2118.72 1822.03 L2128.99 1828.71 L2139.14 1832.92 L2149.41 1831.80 L2159.56 1826.85 L2169.83 1823.27 L2180.10 1824.26 L2190.25 1829.08 L2200.52 1836.51 L2210.79 1842.94 L2220.94 1846.53 L2231.21 1847.77 L2241.36 1846.90 L2251.63 1848.88 L2261.90 1853.59 L2272.05 1861.13 L2282.32 1868.19 L2292.59 1872.89 L2302.74 1874.87 L2313.01 1872.89 L2323.16 1871.41 L2333.43 1872.02 L2343.70 1877.22 L2353.85 1885.51 L2364.12 1894.30 L2374.39 1901.97 L2384.54 1905.19 L2394.81 1907.42 L2405.08 1908.28 L2415.23 1909.52 L2425.50 1912.24 L2435.65 1916.08 L2445.92 1921.28 L2456.19 1925.49 L2466.34 1929.57 L2476.61 1933.16 L2486.88 1935.02 L2497.03 1937.24 L2507.30 1940.46 L2517.45 1944.42 L2527.72 1948.13 L2537.99 1951.10 L2548.14 1954.07 L2558.41 1956.42 L2568.68 1958.78 L2578.83 1961.75 L2589.10 1964.96 L2599.24 1968.31 L2609.52 1970.29 L2619.79 1971.65 L2629.93 1972.02 L2640.21 1972.88 L2650.48 1974.37 L2660.63 1976.35 L2670.90 1978.95 L2681.04 1982.54 L2691.32 1985.26 L2701.59 1987.73 L2711.73 1989.71 L2722.01 1991.45 L2732.28 1992.93 L2742.42 1994.42 L2752.70 1996.52 L2762.97 1998.75 L2773.11 2000.73 L2783.39 2002.46 L2793.53 2003.95 L2803.80 2005.18 L2814.07 2005.80 L2824.22 2006.42 L2834.49 2007.29 L2844.76 2008.65 L2854.91 2010.13 L2865.18 2011.74 L2875.33 2013.23 L2885.60 2014.09 L2895.87 2014.96 L2906.02 2015.33 L2916.29 2015.83 L2926.56 2016.57 L2936.71 2017.56 L2946.98 2018.67 L2957.13 2019.54 L2967.40 2020.28 L2977.67 2021.15 L2987.82 2021.64 L2998.09 2021.89 L3008.36 2022.01 L3018.51 2022.26 L3028.78 2022.63 L3038.93 2023.00 L3049.20 2023.62 L3059.47 2024.37 L3069.62 2024.86 L3079.89 2025.23 L3090.16 2025.60 L3100.31 2025.97 L3110.58 2026.22 L3120.85 2026.59 L3131.00 2026.96 L3141.27 2027.21 L3151.42 2027.58 L3161.69 2027.71 L3171.96 2028.08 L3182.11 2028.33 L3192.38 2028.57 L3202.65 2028.70 L3212.80 2028.82 L3223.07 2028.94 L3233.22 2028.94 L3243.49 2028.94 L3253.76 2029.07 L3263.91 2029.19 L3274.18 2029.44 L3284.45 2029.56 L3294.60 2029.69 L3304.87 2029.69 L3315.01 2029.69 L3325.29 2029.69 L3335.56 2029.81 L3345.70 2029.93 L3355.98 2029.81 L3366.25 2029.81 L3376.39 2029.93 L3386.67 2030.06 L3396.81 2030.06 L3407.09 2030.18 L3417.36 2030.18 L3427.50 2030.18 L3437.78 2030.18 L3448.05 2030.18 L3458.19 2030.18 L3468.47 2030.18 L3478.74 2030.18 L3488.88 2030.18 L3499.16 2030.18 L3509.30 2030.18 L3519.57 2030.18 L3529.84 2030.31 L3539.99 2030.31 L3550.26 2030.43 L3560.53 2030.43 L3570.68 2030.43 L3580.95 2030.43 L3591.10 2030.43 L3601.37 2030.31 L3611.64 2030.31 L3621.79 2030.31 L3632.06 2030.31 L3642.33 2030.31 L3652.48 2030.31 L3662.75 2030.43 L3672.90 2030.43 L3683.17 2030.43 L3693.44 2030.43 L3703.59 2030.43 L3713.86 2030.43 L3724.13 2030.43 L3734.28 2030.43 L3744.55 2030.43 L3754.70 2030.43 L3764.97 2030.43 L3775.24 2030.43 L3785.39 2030.43 L3795.66 2030.43" stroke-linejoin="round" style="fill:none;stroke:#90353B;stroke-width:8.64"/>
	<path d=" M762.30 2015.83 L771.83 2011.74 L781.23 2006.92 L790.76 2001.47 L800.29 1995.41 L809.82 1988.85 L819.35 1981.79 L828.88 1974.25 L838.41 1966.33 L847.81 1958.28 L857.34 1949.74 L866.87 1941.08 L876.40 1932.42 L885.93 1923.63 L895.46 1914.72 L904.86 1905.93 L914.39 1897.52 L923.92 1888.98 L933.45 1880.32 L942.98 1871.65 L952.50 1862.99 L962.03 1854.20 L971.44 1843.93 L980.97 1830.69 L990.50 1815.96 L1000.02 1799.13 L1009.55 1778.84 L1019.08 1757.30 L1028.61 1734.66 L1038.02 1710.40 L1047.54 1685.53 L1057.07 1659.54 L1066.60 1632.31 L1076.13 1602.74 L1085.66 1570.19 L1095.06 1534.42 L1104.59 1497.05 L1114.12 1457.70 L1123.65 1415.74 L1133.18 1371.07 L1142.71 1326.27 L1152.24 1282.83 L1161.64 1240.39 L1171.17 1198.80 L1180.70 1157.22 L1190.23 1118.12 L1199.76 1082.72 L1209.29 1046.71 L1218.81 1012.18 L1228.22 981.86 L1237.75 957.24 L1247.28 938.92 L1256.81 925.93 L1266.33 919.12 L1275.86 917.14 L1285.27 919.99 L1294.80 927.41 L1304.33 938.80 L1313.85 952.04 L1323.38 967.88 L1332.91 985.70 L1342.44 1006.24 L1351.85 1030.00 L1361.37 1055.62 L1370.90 1082.10 L1380.43 1109.82 L1389.96 1139.40 L1399.49 1171.45 L1408.89 1204.00 L1418.42 1234.44 L1427.95 1264.27 L1437.48 1295.08 L1447.01 1326.52 L1456.54 1356.96 L1466.07 1387.16 L1475.47 1416.36 L1485.00 1445.57 L1494.53 1474.40 L1504.06 1502.12 L1513.59 1526.63 L1523.12 1550.02 L1532.64 1573.28 L1542.05 1595.93 L1551.58 1617.22 L1561.11 1637.63 L1570.63 1656.57 L1580.16 1673.89 L1589.69 1690.35 L1599.10 1706.07 L1608.63 1721.54 L1618.15 1735.65 L1627.68 1748.64 L1637.21 1760.77 L1646.74 1772.28 L1656.27 1783.29 L1665.67 1793.32 L1675.20 1802.48 L1684.73 1810.52 L1694.26 1817.94 L1703.79 1824.63 L1713.32 1830.07 L1722.85 1834.03 L1732.25 1837.13 L1741.78 1839.85 L1751.31 1842.08 L1760.84 1843.69 L1770.37 1845.17 L1779.90 1845.79 L1789.30 1845.79 L1798.83 1845.42 L1808.36 1844.43 L1817.89 1842.70 L1827.42 1840.59 L1836.94 1838.12 L1846.47 1835.02 L1855.88 1831.19 L1865.41 1825.62 L1874.94 1818.93 L1884.46 1811.63 L1893.99 1804.46 L1903.52 1797.15 L1913.05 1789.11 L1922.46 1779.33 L1931.98 1768.32 L1941.51 1757.18 L1951.04 1746.91 L1960.57 1737.26 L1970.10 1728.84 L1979.51 1721.17 L1989.03 1714.11 L1998.56 1707.43 L2008.09 1701.00 L2017.62 1694.69 L2027.15 1689.12 L2036.68 1685.28 L2046.08 1682.81 L2055.61 1680.83 L2065.14 1678.23 L2074.67 1675.75 L2084.20 1673.15 L2093.73 1671.42 L2103.26 1670.68 L2112.66 1670.43 L2122.19 1670.06 L2131.72 1669.44 L2141.25 1668.57 L2150.78 1668.33 L2160.30 1668.70 L2169.71 1669.69 L2179.24 1671.17 L2188.77 1673.40 L2198.30 1676.12 L2207.82 1679.09 L2217.35 1681.82 L2226.88 1684.29 L2236.29 1686.89 L2245.82 1689.86 L2255.34 1693.70 L2264.87 1698.15 L2274.40 1703.22 L2283.93 1708.17 L2293.46 1713.12 L2302.86 1718.45 L2312.39 1724.02 L2321.92 1729.58 L2331.45 1735.28 L2340.98 1740.60 L2350.51 1745.55 L2359.91 1750.75 L2369.44 1756.07 L2378.97 1761.64 L2388.50 1767.33 L2398.03 1773.02 L2407.56 1778.84 L2417.09 1784.53 L2426.49 1790.10 L2436.02 1795.05 L2445.55 1799.63 L2455.08 1804.08 L2464.61 1808.79 L2474.13 1813.86 L2483.66 1819.18 L2493.07 1824.75 L2502.60 1830.44 L2512.13 1836.51 L2521.65 1841.95 L2531.18 1847.27 L2540.71 1852.35 L2550.12 1856.80 L2559.64 1861.51 L2569.17 1866.08 L2578.70 1871.03 L2588.23 1876.48 L2597.76 1881.55 L2607.29 1886.75 L2616.69 1891.45 L2626.22 1896.16 L2635.75 1900.74 L2645.28 1905.19 L2654.81 1909.65 L2664.34 1913.98 L2673.87 1917.81 L2683.27 1921.53 L2692.80 1925.24 L2702.33 1928.95 L2711.86 1932.91 L2721.39 1936.75 L2730.91 1940.34 L2740.32 1943.55 L2749.85 1946.52 L2759.38 1949.25 L2768.91 1951.72 L2778.43 1954.32 L2787.96 1957.04 L2797.49 1959.77 L2806.90 1962.49 L2816.43 1965.46 L2825.95 1968.31 L2835.48 1971.28 L2845.01 1974.12 L2854.54 1976.84 L2863.95 1979.69 L2873.47 1982.29 L2883.00 1984.76 L2892.53 1987.24 L2902.06 1989.84 L2911.59 1992.19 L2921.12 1994.66 L2930.52 1996.89 L2940.05 1999.00 L2949.58 2000.85 L2959.11 2002.34 L2968.64 2003.82 L2978.17 2005.31 L2987.70 2006.67 L2997.10 2007.91 L3006.63 2009.27 L3016.16 2010.38 L3025.69 2011.50 L3035.22 2012.49 L3044.74 2013.35 L3054.15 2014.34 L3063.68 2015.21 L3073.21 2016.20 L3082.74 2017.19 L3092.26 2018.18 L3101.79 2019.04 L3111.32 2020.03 L3120.73 2020.90 L3130.26 2021.64 L3139.78 2022.51 L3149.31 2023.25 L3158.84 2023.87 L3168.37 2024.49 L3177.90 2024.98 L3187.30 2025.36 L3196.83 2025.85 L3206.36 2026.22 L3215.89 2026.59 L3225.42 2026.84 L3234.95 2027.09 L3244.35 2027.34 L3253.88 2027.58 L3263.41 2027.71 L3272.94 2027.83 L3282.47 2028.08 L3292.00 2028.20 L3301.53 2028.33 L3310.93 2028.57 L3320.46 2028.70 L3329.99 2028.82 L3339.52 2028.94 L3349.05 2029.07 L3358.57 2029.19 L3368.10 2029.19 L3377.51 2029.32 L3387.04 2029.32 L3396.57 2029.32 L3406.09 2029.44 L3415.62 2029.44 L3425.15 2029.56 L3434.56 2029.69 L3444.09 2029.69 L3453.61 2029.81 L3463.14 2029.81 L3472.67 2029.81 L3482.20 2029.93 L3491.73 2029.93 L3501.14 2029.93 L3510.66 2030.06 L3520.19 2030.06 L3529.72 2030.06 L3539.25 2030.18 L3548.78 2030.18 L3558.31 2030.18 L3567.71 2030.18 L3577.24 2030.18 L3586.77 2030.18 L3596.30 2030.31 L3605.83 2030.31" stroke-linejoin="round" style="fill:none;stroke:#55752F;stroke-width:8.64"/>
	<line x1="390.80" y1="2093.67" x2="390.80" y2="100.86" style="stroke:#000000;stroke-width:5.76"/>
	<line x1="390.80" y1="2030.31" x2="350.83" y2="2030.31" style="stroke:#000000;stroke-width:5.76"/>
	<text x="300.72" y="2030.31" style="font-family:'Helvetica';font-size:99.99px;fill:#000000" transform="rotate(-90 300.72,2030.31)" text-anchor="middle">0</text>
	<line x1="390.80" y1="1563.75" x2="350.83" y2="1563.75" style="stroke:#000000;stroke-width:5.76"/>
	<text x="300.72" y="1563.75" style="font-family:'Helvetica';font-size:99.99px;fill:#000000" transform="rotate(-90 300.72,1563.75)" text-anchor="middle">5</text>
	<line x1="390.80" y1="1097.20" x2="350.83" y2="1097.20" style="stroke:#000000;stroke-width:5.76"/>
	<text x="300.72" y="1097.20" style="font-family:'Helvetica';font-size:99.99px;fill:#000000" transform="rotate(-90 300.72,1097.20)" text-anchor="middle">10</text>
	<line x1="390.80" y1="630.65" x2="350.83" y2="630.65" style="stroke:#000000;stroke-width:5.76"/>
	<text x="300.72" y="630.65" style="font-family:'Helvetica';font-size:99.99px;fill:#000000" transform="rotate(-90 300.72,630.65)" text-anchor="middle">15</text>
	<line x1="390.80" y1="164.22" x2="350.83" y2="164.22" style="stroke:#000000;stroke-width:5.76"/>
	<text x="300.72" y="164.22" style="font-family:'Helvetica';font-size:99.99px;fill:#000000" transform="rotate(-90 300.72,164.22)" text-anchor="middle">20</text>
	<text x="190.71" y="1097.20" style="font-family:'Helvetica';font-size:99.99px;fill:#000000" transform="rotate(-90 190.71,1097.20)" text-anchor="middle">kdensity p2</text>
	<line x1="390.80" y1="2093.67" x2="3859.02" y2="2093.67" style="stroke:#000000;stroke-width:5.76"/>
	<line x1="454.16" y1="2093.67" x2="454.16" y2="2133.64" style="stroke:#000000;stroke-width:5.76"/>
	<text x="454.16" y="2223.62" style="font-family:'Helvetica';font-size:99.99px;fill:#000000" text-anchor="middle">0</text>
	<line x1="1259.65" y1="2093.67" x2="1259.65" y2="2133.64" style="stroke:#000000;stroke-width:5.76"/>
	<text x="1259.65" y="2223.62" style="font-family:'Helvetica';font-size:99.99px;fill:#000000" text-anchor="middle">.1</text>
	<line x1="2065.14" y1="2093.67" x2="2065.14" y2="2133.64" style="stroke:#000000;stroke-width:5.76"/>
	<text x="2065.14" y="2223.62" style="font-family:'Helvetica';font-size:99.99px;fill:#000000" text-anchor="middle">.2</text>
	<line x1="2870.63" y1="2093.67" x2="2870.63" y2="2133.64" style="stroke:#000000;stroke-width:5.76"/>
	<text x="2870.63" y="2223.62" style="font-family:'Helvetica';font-size:99.99px;fill:#000000" text-anchor="middle">.3</text>
	<line x1="3676.24" y1="2093.67" x2="3676.24" y2="2133.64" style="stroke:#000000;stroke-width:5.76"/>
	<text x="3676.24" y="2223.62" style="font-family:'Helvetica';font-size:99.99px;fill:#000000" text-anchor="middle">.4</text>
	<text x="2124.91" y="2333.64" style="font-family:'Helvetica';font-size:99.99px;fill:#000000" text-anchor="middle">x</text>
	<rect x="1209.90" y="2418.27" width="1830.01" height="326.34" style="fill:#FFFFFF"/>
	<rect x="1212.78" y="2421.15" width="1824.26" height="320.58" style="fill:none;stroke:#EAF2F3;stroke-width:5.76"/>
	<line x1="1253.22" y1="2511.46" x2="1627.56" y2="2511.46" style="stroke:#1A476F;stroke-width:8.64"/>
	<line x1="2203.12" y1="2511.46" x2="2577.47" y2="2511.46" style="stroke:#90353B;stroke-width:8.64"/>
	<line x1="1253.22" y1="2651.43" x2="1627.56" y2="2651.43" style="stroke:#55752F;stroke-width:8.64"/>
	<text x="1687.58" y="2539.47" style="font-family:'Helvetica';font-size:79.94px;fill:#000000">P2 - SABA</text>
	<text x="2637.48" y="2539.47" style="font-family:'Helvetica';font-size:79.94px;fill:#000000">P2 - LD ICS</text>
	<text x="1687.58" y="2679.44" style="font-family:'Helvetica';font-size:79.94px;fill:#000000">P2 - HD ICS</text>
</svg>
