<?xml version="1.0" encoding="UTF-8" standalone="no"?>
<!-- This is a Stata 16.1 generated SVG file (http://www.stata.com) -->

<svg version="1.1" width="5.50in" height="4.00in" viewBox="0 0 3960 2880" xmlns="http://www.w3.org/2000/svg" xmlns:xlink="http://www.w3.org/1999/xlink">
	<desc>Stata Graph - Graph</desc>
	<rect x="0" y="0" width="3960" height="2880" style="fill:#EAF2F3;stroke:none"/>
	<rect x="0.00" y="0.00" width="3959.88" height="2880.00" style="fill:#FFFFFF"/>
	<rect x="2.88" y="2.88" width="3954.12" height="2874.24" style="fill:none;stroke:#EAF2F3;stroke-width:5.76"/>
	<rect x="390.80" y="100.86" width="3468.22" height="1992.81" style="fill:#FFFFFF"/>
	<rect x="393.68" y="103.74" width="3462.46" height="1987.05" style="fill:none;stroke:#FFFFFF;stroke-width:5.76"/>
	<line x1="390.80" y1="2030.31" x2="3859.02" y2="2030.31" style="stroke:#EAF2F3;stroke-width:8.64"/>
	<line x1="390.80" y1="1408.32" x2="3859.02" y2="1408.32" style="stroke:#EAF2F3;stroke-width:8.64"/>
	<line x1="390.80" y1="786.21" x2="3859.02" y2="786.21" style="stroke:#EAF2F3;stroke-width:8.64"/>
	<line x1="390.80" y1="164.22" x2="3859.02" y2="164.22" style="stroke:#EAF2F3;stroke-width:8.64"/>
	<path d=" M454.04 2030.18 L463.57 2030.18 L473.10 2030.18 L482.63 2030.18 L492.15 2030.31 L501.68 2030.31 L511.21 2030.31 L520.74 2030.31 L530.14 2030.43 L539.67 2030.43 L549.20 2030.43 L558.73 2030.43 L568.26 2030.43 L577.79 2030.43 L587.32 2030.43 L596.85 2030.43 L606.38 2030.43 L615.90 2030.43 L625.31 2030.43 L634.84 2030.43 L644.37 2030.43 L653.89 2030.43 L663.42 2030.31 L672.95 2030.31 L682.48 2030.31 L692.01 2030.31 L701.54 2030.31 L710.94 2030.31 L720.47 2030.31 L730.00 2030.18 L739.53 2030.18 L749.06 2030.18 L758.59 2030.18 L768.12 2030.18 L777.64 2030.18 L787.17 2030.18 L796.58 2030.18 L806.11 2030.18 L815.64 2030.18 L825.16 2030.06 L834.69 2030.06 L844.22 2029.93 L853.75 2029.93 L863.28 2029.93 L872.81 2029.81 L882.34 2029.81 L891.74 2029.81 L901.27 2029.69 L910.80 2029.69 L920.33 2029.69 L929.86 2029.56 L939.39 2029.56 L948.91 2029.56 L958.44 2029.56 L967.97 2029.56 L977.38 2029.44 L986.91 2029.32 L996.43 2029.19 L1005.96 2029.07 L1015.49 2028.94 L1025.02 2028.82 L1034.55 2028.57 L1044.08 2028.20 L1053.61 2027.95 L1063.14 2027.58 L1072.54 2027.21 L1082.07 2026.72 L1091.60 2026.22 L1101.13 2025.85 L1110.66 2025.36 L1120.18 2024.86 L1129.71 2024.37 L1139.24 2023.75 L1148.77 2023.25 L1158.18 2022.63 L1167.70 2022.14 L1177.23 2021.77 L1186.76 2021.52 L1196.29 2021.02 L1205.82 2020.78 L1215.35 2020.41 L1224.88 2020.16 L1234.41 2019.66 L1243.93 2019.29 L1253.34 2018.92 L1262.87 2018.43 L1272.40 2018.05 L1281.93 2017.44 L1291.45 2016.82 L1300.98 2016.07 L1310.51 2015.21 L1320.04 2014.34 L1329.57 2013.60 L1338.97 2012.86 L1348.50 2011.99 L1358.03 2011.12 L1367.56 2010.38 L1377.09 2009.52 L1386.62 2008.65 L1396.15 2007.91 L1405.68 2007.16 L1415.20 2006.42 L1424.61 2005.68 L1434.14 2004.94 L1443.67 2004.19 L1453.20 2003.20 L1462.72 2002.21 L1472.25 2001.10 L1481.78 1999.86 L1491.31 1998.50 L1500.84 1997.14 L1510.37 1995.41 L1519.77 1993.55 L1529.30 1991.57 L1538.83 1989.47 L1548.36 1987.36 L1557.89 1985.26 L1567.42 1983.16 L1576.95 1980.43 L1586.47 1977.59 L1596.00 1974.86 L1605.41 1972.02 L1614.94 1969.42 L1624.47 1966.82 L1633.99 1964.59 L1643.52 1962.24 L1653.05 1959.77 L1662.58 1957.54 L1672.11 1954.94 L1681.64 1951.97 L1691.17 1949.00 L1700.57 1945.78 L1710.10 1942.69 L1719.63 1939.47 L1729.16 1935.88 L1738.69 1932.05 L1748.22 1927.96 L1757.74 1922.15 L1767.27 1914.22 L1776.80 1905.31 L1786.21 1896.16 L1795.74 1885.51 L1805.27 1873.39 L1814.79 1859.40 L1824.32 1841.09 L1833.85 1818.19 L1843.38 1790.72 L1852.91 1758.29 L1862.44 1722.53 L1871.97 1685.03 L1881.37 1647.66 L1890.90 1612.64 L1900.43 1581.95 L1909.96 1553.73 L1919.49 1527.00 L1929.02 1501.01 L1938.54 1475.27 L1948.07 1453.37 L1957.60 1435.30 L1967.01 1422.80 L1976.54 1414.51 L1986.06 1410.05 L1995.59 1410.67 L2005.12 1412.77 L2014.65 1417.60 L2024.18 1423.54 L2033.71 1431.58 L2043.24 1437.15 L2052.64 1441.49 L2062.17 1440.50 L2071.70 1434.06 L2081.23 1418.22 L2090.76 1393.22 L2100.28 1360.92 L2109.81 1321.82 L2119.34 1274.66 L2128.87 1221.82 L2138.40 1155.37 L2147.80 1071.34 L2157.33 976.67 L2166.86 879.64 L2176.39 788.06 L2185.92 706.39 L2195.45 636.34 L2204.98 580.41 L2214.51 540.19 L2224.03 508.50 L2233.44 484.37 L2242.97 472.62 L2252.50 477.69 L2262.03 499.47 L2271.55 540.56 L2281.08 598.72 L2290.61 666.54 L2300.14 728.54 L2309.67 785.84 L2319.20 838.31 L2328.60 889.54 L2338.13 937.19 L2347.66 984.21 L2357.19 1032.48 L2366.72 1083.47 L2376.25 1130.12 L2385.78 1169.47 L2395.30 1199.92 L2404.83 1225.04 L2414.24 1242.24 L2423.77 1258.08 L2433.30 1271.08 L2442.82 1283.95 L2452.35 1295.21 L2461.88 1305.48 L2471.41 1315.63 L2480.94 1325.53 L2490.47 1334.19 L2500.00 1343.97 L2509.40 1354.24 L2518.93 1366.12 L2528.46 1378.12 L2537.99 1390.37 L2547.52 1403.00 L2557.05 1415.25 L2566.57 1426.88 L2576.10 1438.27 L2585.63 1449.65 L2595.04 1461.29 L2604.57 1474.77 L2614.09 1488.26 L2623.62 1500.89 L2633.15 1512.15 L2642.68 1521.55 L2652.21 1531.33 L2661.74 1540.12 L2671.27 1548.04 L2680.80 1555.34 L2690.20 1561.03 L2699.73 1566.72 L2709.26 1571.30 L2718.79 1576.25 L2728.32 1580.96 L2737.84 1584.92 L2747.37 1587.76 L2756.90 1589.99 L2766.43 1592.84 L2775.84 1594.94 L2785.36 1594.07 L2794.89 1588.38 L2804.42 1580.96 L2813.95 1571.43 L2823.48 1560.29 L2833.01 1546.80 L2842.54 1530.22 L2852.07 1511.53 L2861.47 1488.02 L2871.00 1461.16 L2880.53 1435.42 L2890.06 1410.55 L2899.59 1387.03 L2909.11 1363.03 L2918.64 1341.12 L2928.17 1323.30 L2937.70 1304.74 L2947.23 1285.80 L2956.64 1270.46 L2966.16 1260.06 L2975.69 1253.87 L2985.22 1252.14 L2994.75 1254.00 L3004.28 1263.28 L3013.81 1277.02 L3023.34 1292.24 L3032.86 1311.54 L3042.27 1334.93 L3051.80 1361.91 L3061.33 1391.12 L3070.86 1421.81 L3080.39 1454.85 L3089.91 1486.16 L3099.44 1515.37 L3108.97 1544.94 L3118.50 1575.88 L3128.03 1606.20 L3137.43 1635.41 L3146.96 1661.77 L3156.49 1689.74 L3166.02 1719.56 L3175.55 1750.37 L3185.08 1781.68 L3194.61 1811.63 L3204.14 1839.97 L3213.66 1867.20 L3223.07 1892.94 L3232.60 1916.58 L3242.13 1937.49 L3251.66 1955.68 L3261.18 1971.40 L3270.71 1984.89 L3280.24 1996.52 L3289.77 2005.80 L3299.30 2012.86" stroke-linejoin="round" style="fill:none;stroke:#1A476F;stroke-width:8.64"/>
	<path d=" M718.25 2030.31 L727.03 2030.31 L735.69 2030.31 L744.48 2030.31 L753.14 2030.31 L761.80 2030.31 L770.59 2030.31 L779.25 2030.31 L788.04 2030.31 L796.70 2030.31 L805.49 2030.18 L814.15 2030.18 L822.81 2030.18 L831.60 2030.18 L840.26 2030.18 L849.05 2030.18 L857.71 2030.18 L866.50 2030.18 L875.16 2030.06 L883.82 2030.06 L892.61 2030.06 L901.27 2030.06 L910.06 2029.93 L918.72 2029.93 L927.51 2029.81 L936.17 2029.81 L944.83 2029.81 L953.62 2029.81 L962.28 2029.81 L971.07 2029.69 L979.73 2029.69 L988.51 2029.56 L997.18 2029.56 L1005.84 2029.44 L1014.63 2029.32 L1023.29 2029.19 L1032.08 2028.94 L1040.74 2028.70 L1049.52 2028.45 L1058.19 2028.20 L1066.85 2028.08 L1075.63 2027.83 L1084.30 2027.71 L1093.08 2027.46 L1101.75 2027.34 L1110.53 2027.21 L1119.19 2026.96 L1127.86 2026.84 L1136.64 2026.59 L1145.31 2026.35 L1154.09 2026.10 L1162.76 2025.97 L1171.54 2025.73 L1180.20 2025.48 L1188.99 2025.23 L1197.65 2024.86 L1206.32 2024.61 L1215.10 2024.49 L1223.76 2024.24 L1232.55 2023.87 L1241.21 2023.50 L1250.00 2023.00 L1258.66 2022.63 L1267.32 2022.14 L1276.11 2021.77 L1284.77 2021.40 L1293.56 2021.02 L1302.22 2020.53 L1311.01 2020.03 L1319.67 2019.66 L1328.33 2019.17 L1337.12 2018.92 L1345.78 2018.30 L1354.57 2017.81 L1363.23 2017.06 L1372.02 2016.45 L1380.68 2015.70 L1389.34 2014.84 L1398.13 2014.09 L1406.79 2013.48 L1415.58 2012.73 L1424.24 2011.87 L1433.03 2010.88 L1441.69 2009.76 L1450.35 2008.65 L1459.14 2007.41 L1467.80 2006.17 L1476.59 2004.94 L1485.25 2003.82 L1494.03 2002.59 L1502.70 2001.60 L1511.36 2000.73 L1520.14 1999.86 L1528.81 1999.00 L1537.59 1997.88 L1546.26 1996.77 L1555.04 1995.41 L1563.70 1993.80 L1572.49 1992.19 L1581.15 1990.33 L1589.82 1988.23 L1598.60 1985.75 L1607.27 1983.40 L1616.05 1981.18 L1624.71 1978.95 L1633.50 1976.72 L1642.16 1974.25 L1650.83 1971.77 L1659.61 1969.42 L1668.27 1967.32 L1677.06 1965.21 L1685.72 1963.11 L1694.51 1960.51 L1703.17 1957.66 L1711.83 1954.44 L1720.62 1951.10 L1729.28 1947.76 L1738.07 1944.42 L1746.73 1940.96 L1755.52 1937.37 L1764.18 1933.53 L1772.84 1928.95 L1781.63 1922.27 L1790.29 1913.85 L1799.08 1905.19 L1807.74 1895.91 L1816.53 1885.76 L1825.19 1874.87 L1833.85 1862.74 L1842.64 1848.76 L1851.30 1832.79 L1860.09 1814.97 L1868.75 1795.17 L1877.54 1775.37 L1886.20 1755.45 L1894.86 1734.91 L1903.65 1714.86 L1912.31 1697.90 L1921.10 1684.91 L1929.76 1673.89 L1938.54 1665.23 L1947.21 1657.81 L1955.87 1649.89 L1964.65 1641.47 L1973.32 1631.32 L1982.10 1619.69 L1990.77 1608.80 L1999.55 1598.90 L2008.21 1589.87 L2017.00 1584.67 L2025.66 1583.31 L2034.33 1587.39 L2043.11 1593.45 L2051.78 1600.63 L2060.56 1605.95 L2069.22 1605.71 L2078.01 1598.65 L2086.67 1582.81 L2095.34 1559.79 L2104.12 1530.22 L2112.78 1498.16 L2121.57 1462.65 L2130.23 1427.38 L2139.02 1391.24 L2147.68 1357.95 L2156.34 1322.06 L2165.13 1279.00 L2173.79 1230.73 L2182.58 1179.75 L2191.24 1129.50 L2200.03 1082.48 L2208.69 1039.90 L2217.35 1005.13 L2226.14 981.86 L2234.80 971.72 L2243.59 971.34 L2252.25 979.14 L2261.04 995.85 L2269.70 1020.10 L2278.36 1040.89 L2287.15 1061.56 L2295.81 1082.23 L2304.60 1102.65 L2313.26 1124.55 L2322.05 1145.09 L2330.71 1169.23 L2339.37 1193.23 L2348.16 1221.45 L2356.82 1246.20 L2365.61 1267.24 L2374.27 1281.72 L2383.05 1294.96 L2391.72 1302.76 L2400.38 1310.18 L2409.16 1316.99 L2417.83 1321.94 L2426.61 1326.02 L2435.28 1329.24 L2444.06 1333.82 L2452.72 1338.27 L2461.51 1343.72 L2470.17 1348.05 L2478.84 1351.89 L2487.62 1354.61 L2496.28 1358.07 L2505.07 1361.54 L2513.73 1366.86 L2522.52 1372.18 L2531.18 1377.01 L2539.84 1381.22 L2548.63 1385.18 L2557.29 1388.64 L2566.08 1394.46 L2574.74 1400.65 L2583.53 1407.08 L2592.19 1414.51 L2600.85 1422.30 L2609.64 1429.73 L2618.30 1437.65 L2627.09 1447.43 L2635.75 1458.19 L2644.54 1468.09 L2653.20 1475.15 L2661.86 1478.49 L2670.65 1479.97 L2679.31 1481.33 L2688.10 1481.71 L2696.76 1480.59 L2705.55 1479.35 L2714.21 1479.11 L2722.87 1478.86 L2731.66 1478.98 L2740.32 1481.33 L2749.11 1485.67 L2757.77 1488.51 L2766.55 1488.39 L2775.22 1484.43 L2783.88 1478.98 L2792.67 1471.93 L2801.33 1460.30 L2810.11 1440.99 L2818.78 1416.12 L2827.56 1388.15 L2836.23 1358.07 L2845.01 1327.76 L2853.68 1295.46 L2862.34 1262.29 L2871.12 1226.40 L2879.79 1184.20 L2888.57 1134.95 L2897.24 1087.18 L2906.02 1045.72 L2914.68 1010.08 L2923.35 974.69 L2932.13 938.18 L2940.80 906.25 L2949.58 878.03 L2958.24 853.04 L2967.03 832.37 L2975.69 821.11 L2984.36 817.64 L2993.14 814.30 L3001.80 808.24 L3010.59 803.78 L3019.25 810.59 L3028.04 831.75 L3036.70 863.93 L3045.36 900.31 L3054.15 942.26 L3062.81 986.07 L3071.60 1026.17 L3080.26 1064.65 L3089.05 1105.99 L3097.71 1148.31 L3106.37 1188.66 L3115.16 1227.39 L3123.82 1262.41 L3132.61 1299.17 L3141.27 1340.25 L3150.06 1386.41 L3158.72 1434.93 L3167.38 1485.05 L3176.17 1536.03 L3184.83 1587.02 L3193.62 1636.89 L3202.28 1685.90 L3211.07 1733.30 L3219.73 1778.22 L3228.39 1820.79 L3237.18 1859.65 L3245.84 1894.30 L3254.63 1924.62 L3263.29 1950.73 L3272.07 1971.52 L3280.74 1987.61 L3289.52 2000.61 L3298.18 2010.88 L3306.85 2018.30 L3315.63 2023.38 L3324.30 2026.84" stroke-linejoin="round" style="fill:none;stroke:#90353B;stroke-width:8.64"/>
	<path d=" M571.35 2030.31 L580.51 2030.31 L589.67 2030.31 L598.83 2030.31 L607.98 2030.31 L617.14 2030.31 L626.30 2030.31 L635.58 2030.31 L644.74 2030.43 L653.89 2030.43 L663.05 2030.31 L672.21 2030.31 L681.37 2030.31 L690.65 2030.31 L699.81 2030.31 L708.96 2030.31 L718.12 2030.31 L727.28 2030.31 L736.44 2030.18 L745.59 2030.18 L754.88 2030.18 L764.03 2030.18 L773.19 2030.18 L782.35 2030.06 L791.50 2030.06 L800.66 2030.06 L809.94 2029.93 L819.10 2029.93 L828.26 2029.93 L837.42 2029.81 L846.57 2029.81 L855.73 2029.69 L865.01 2029.56 L874.17 2029.44 L883.33 2029.32 L892.49 2029.19 L901.64 2029.07 L910.80 2028.94 L919.96 2028.70 L929.24 2028.57 L938.40 2028.45 L947.55 2028.33 L956.71 2028.20 L965.87 2027.95 L975.03 2027.83 L984.31 2027.71 L993.47 2027.46 L1002.62 2027.21 L1011.78 2026.96 L1020.94 2026.72 L1030.10 2026.47 L1039.25 2026.35 L1048.53 2026.10 L1057.69 2025.85 L1066.85 2025.73 L1076.01 2025.48 L1085.16 2025.23 L1094.32 2024.98 L1103.60 2024.86 L1112.76 2024.61 L1121.92 2024.37 L1131.08 2024.12 L1140.23 2023.99 L1149.39 2023.50 L1158.55 2023.13 L1167.83 2022.63 L1176.99 2022.01 L1186.14 2021.40 L1195.30 2020.78 L1204.46 2020.28 L1213.62 2019.54 L1222.90 2018.92 L1232.06 2018.30 L1241.21 2017.56 L1250.37 2016.69 L1259.53 2015.83 L1268.68 2014.71 L1277.97 2013.72 L1287.12 2012.86 L1296.28 2011.99 L1305.44 2011.25 L1314.60 2010.26 L1323.75 2009.52 L1332.91 2008.65 L1342.19 2007.78 L1351.35 2006.79 L1360.51 2005.68 L1369.66 2004.44 L1378.82 2003.33 L1387.98 2002.21 L1397.26 2000.98 L1406.42 1999.37 L1415.58 1997.76 L1424.73 1996.03 L1433.89 1994.05 L1443.05 1991.82 L1452.21 1989.71 L1461.49 1987.49 L1470.64 1984.89 L1479.80 1982.41 L1488.96 1980.19 L1498.12 1978.08 L1507.28 1975.98 L1516.56 1973.50 L1525.71 1971.40 L1534.87 1969.05 L1544.03 1966.57 L1553.19 1964.10 L1562.34 1961.62 L1571.50 1958.53 L1580.78 1954.94 L1589.94 1951.23 L1599.10 1947.64 L1608.26 1943.80 L1617.41 1939.84 L1626.57 1935.88 L1635.85 1931.55 L1645.01 1926.97 L1654.17 1922.15 L1663.32 1917.07 L1672.48 1911.63 L1681.64 1905.44 L1690.92 1899.37 L1700.08 1893.68 L1709.23 1887.74 L1718.39 1881.68 L1727.55 1875.98 L1736.71 1869.92 L1745.87 1862.87 L1755.15 1853.59 L1764.30 1842.82 L1773.46 1831.56 L1782.62 1819.68 L1791.78 1807.55 L1800.93 1795.67 L1810.21 1783.91 L1819.37 1771.91 L1828.53 1758.91 L1837.69 1743.94 L1846.85 1727.73 L1856.00 1710.03 L1865.16 1692.58 L1874.44 1675.13 L1883.60 1657.81 L1892.76 1642.21 L1901.91 1627.73 L1911.07 1613.75 L1920.23 1599.77 L1929.51 1584.30 L1938.67 1568.09 L1947.83 1551.38 L1956.98 1534.92 L1966.14 1519.57 L1975.30 1505.22 L1984.45 1492.47 L1993.74 1481.83 L2002.89 1472.42 L2012.05 1464.26 L2021.21 1456.09 L2030.37 1448.91 L2039.52 1440.87 L2048.80 1431.34 L2057.96 1419.70 L2067.12 1408.07 L2076.28 1393.84 L2085.43 1379.98 L2094.59 1364.26 L2103.87 1347.31 L2113.03 1329.36 L2122.19 1310.68 L2131.35 1290.13 L2140.50 1266.50 L2149.66 1239.64 L2158.82 1212.29 L2168.10 1185.81 L2177.26 1162.05 L2186.41 1140.76 L2195.57 1122.57 L2204.73 1108.22 L2213.89 1097.33 L2223.17 1087.55 L2232.33 1080.00 L2241.48 1074.31 L2250.64 1071.34 L2259.80 1070.10 L2268.96 1071.71 L2278.11 1077.15 L2287.39 1086.31 L2296.55 1097.57 L2305.71 1109.82 L2314.87 1121.46 L2324.03 1132.72 L2333.18 1143.73 L2342.46 1154.87 L2351.62 1165.27 L2360.78 1175.41 L2369.94 1185.81 L2379.09 1196.58 L2388.25 1206.60 L2397.41 1215.51 L2406.69 1223.68 L2415.85 1230.98 L2425.01 1237.41 L2434.16 1242.24 L2443.32 1246.94 L2452.48 1251.89 L2461.76 1255.73 L2470.92 1259.69 L2480.07 1263.90 L2489.23 1270.33 L2498.39 1278.01 L2507.55 1287.41 L2516.83 1296.94 L2525.99 1306.84 L2535.14 1317.61 L2544.30 1328.75 L2553.46 1339.64 L2562.61 1350.53 L2571.77 1362.28 L2581.05 1374.16 L2590.21 1386.54 L2599.37 1398.29 L2608.53 1410.42 L2617.68 1422.06 L2626.84 1432.08 L2636.12 1440.12 L2645.28 1446.31 L2654.44 1452.13 L2663.59 1457.33 L2672.75 1462.03 L2681.91 1466.11 L2691.07 1469.33 L2700.35 1471.31 L2709.51 1473.04 L2718.66 1474.77 L2727.82 1475.76 L2736.98 1475.89 L2746.14 1475.39 L2755.42 1474.65 L2764.57 1474.16 L2773.73 1471.93 L2782.89 1466.48 L2792.05 1458.19 L2801.20 1447.67 L2810.36 1434.93 L2819.64 1420.94 L2828.80 1404.48 L2837.96 1386.04 L2847.12 1365.13 L2856.27 1341.12 L2865.43 1314.02 L2874.71 1286.79 L2883.87 1261.18 L2893.03 1238.16 L2902.18 1215.14 L2911.34 1194.22 L2920.50 1176.40 L2929.78 1160.94 L2938.94 1148.06 L2948.10 1136.43 L2957.25 1126.66 L2966.41 1120.59 L2975.57 1117.99 L2984.73 1120.22 L2994.01 1127.65 L3003.16 1140.64 L3012.32 1157.47 L3021.48 1175.91 L3030.64 1194.60 L3039.80 1214.77 L3049.08 1237.04 L3058.23 1262.54 L3067.39 1289.39 L3076.55 1317.61 L3085.71 1348.79 L3094.86 1380.85 L3104.02 1413.76 L3113.30 1447.92 L3122.46 1482.82 L3131.62 1518.46 L3140.78 1554.47 L3149.93 1590.61 L3159.09 1627.49 L3168.37 1665.60 L3177.53 1703.47 L3186.69 1740.35 L3195.84 1776.12 L3205.00 1809.90 L3214.16 1841.33 L3223.44 1870.17 L3232.60 1896.53 L3241.76 1919.67 L3250.91 1940.21 L3260.07 1958.16 L3269.23 1973.63 L3278.39 1986.74 L3287.67 1997.76 L3296.82 2006.55 L3305.98 2013.35 L3315.14 2018.80" stroke-linejoin="round" style="fill:none;stroke:#55752F;stroke-width:8.64"/>
	<line x1="390.80" y1="2093.67" x2="390.80" y2="100.86" style="stroke:#000000;stroke-width:5.76"/>
	<line x1="390.80" y1="2030.31" x2="350.83" y2="2030.31" style="stroke:#000000;stroke-width:5.76"/>
	<text x="300.72" y="2030.31" style="font-family:'Helvetica';font-size:99.99px;fill:#000000" transform="rotate(-90 300.72,2030.31)" text-anchor="middle">0</text>
	<line x1="390.80" y1="1408.32" x2="350.83" y2="1408.32" style="stroke:#000000;stroke-width:5.76"/>
	<text x="300.72" y="1408.32" style="font-family:'Helvetica';font-size:99.99px;fill:#000000" transform="rotate(-90 300.72,1408.32)" text-anchor="middle">5</text>
	<line x1="390.80" y1="786.21" x2="350.83" y2="786.21" style="stroke:#000000;stroke-width:5.76"/>
	<text x="300.72" y="786.21" style="font-family:'Helvetica';font-size:99.99px;fill:#000000" transform="rotate(-90 300.72,786.21)" text-anchor="middle">10</text>
	<line x1="390.80" y1="164.22" x2="350.83" y2="164.22" style="stroke:#000000;stroke-width:5.76"/>
	<text x="300.72" y="164.22" style="font-family:'Helvetica';font-size:99.99px;fill:#000000" transform="rotate(-90 300.72,164.22)" text-anchor="middle">15</text>
	<text x="190.71" y="1097.20" style="font-family:'Helvetica';font-size:99.99px;fill:#000000" transform="rotate(-90 190.71,1097.20)" text-anchor="middle">kdensity p1</text>
	<line x1="390.80" y1="2093.67" x2="3859.02" y2="2093.67" style="stroke:#000000;stroke-width:5.76"/>
	<line x1="592.27" y1="2093.67" x2="592.27" y2="2133.64" style="stroke:#000000;stroke-width:5.76"/>
	<text x="592.27" y="2223.62" style="font-family:'Helvetica';font-size:99.99px;fill:#000000" text-anchor="middle">.5</text>
	<line x1="1393.18" y1="2093.67" x2="1393.18" y2="2133.64" style="stroke:#000000;stroke-width:5.76"/>
	<text x="1393.18" y="2223.62" style="font-family:'Helvetica';font-size:99.99px;fill:#000000" text-anchor="middle">.6</text>
	<line x1="2193.96" y1="2093.67" x2="2193.96" y2="2133.64" style="stroke:#000000;stroke-width:5.76"/>
	<text x="2193.96" y="2223.62" style="font-family:'Helvetica';font-size:99.99px;fill:#000000" text-anchor="middle">.7</text>
	<line x1="2994.87" y1="2093.67" x2="2994.87" y2="2133.64" style="stroke:#000000;stroke-width:5.76"/>
	<text x="2994.87" y="2223.62" style="font-family:'Helvetica';font-size:99.99px;fill:#000000" text-anchor="middle">.8</text>
	<line x1="3795.66" y1="2093.67" x2="3795.66" y2="2133.64" style="stroke:#000000;stroke-width:5.76"/>
	<text x="3795.66" y="2223.62" style="font-family:'Helvetica';font-size:99.99px;fill:#000000" text-anchor="middle">.9</text>
	<text x="2124.91" y="2333.64" style="font-family:'Helvetica';font-size:99.99px;fill:#000000" text-anchor="middle">x</text>
	<rect x="1209.90" y="2418.27" width="1830.01" height="326.34" style="fill:#FFFFFF"/>
	<rect x="1212.78" y="2421.15" width="1824.26" height="320.58" style="fill:none;stroke:#EAF2F3;stroke-width:5.76"/>
	<line x1="1253.22" y1="2511.46" x2="1627.56" y2="2511.46" style="stroke:#1A476F;stroke-width:8.64"/>
	<line x1="2203.12" y1="2511.46" x2="2577.47" y2="2511.46" style="stroke:#90353B;stroke-width:8.64"/>
	<line x1="1253.22" y1="2651.43" x2="1627.56" y2="2651.43" style="stroke:#55752F;stroke-width:8.64"/>
	<text x="1687.58" y="2539.47" style="font-family:'Helvetica';font-size:79.94px;fill:#000000">P1 - SABA</text>
	<text x="2637.48" y="2539.47" style="font-family:'Helvetica';font-size:79.94px;fill:#000000">P1 - LD ICS</text>
	<text x="1687.58" y="2679.44" style="font-family:'Helvetica';font-size:79.94px;fill:#000000">P1 - HD ICS</text>
</svg>
