<?xml version="1.0" encoding="UTF-8" standalone="no"?>
<!-- This is a Stata 16.1 generated SVG file (http://www.stata.com) -->

<svg version="1.1" width="5.50in" height="4.00in" viewBox="0 0 3960 2880" xmlns="http://www.w3.org/2000/svg" xmlns:xlink="http://www.w3.org/1999/xlink">
	<desc>Stata Graph - Graph</desc>
	<rect x="0" y="0" width="3960" height="2880" style="fill:#EAF2F3;stroke:none"/>
	<rect x="0.00" y="0.00" width="3959.88" height="2880.00" style="fill:#FFFFFF"/>
	<rect x="2.88" y="2.88" width="3954.12" height="2874.24" style="fill:none;stroke:#EAF2F3;stroke-width:5.76"/>
	<rect x="390.80" y="100.86" width="3468.22" height="1992.81" style="fill:#FFFFFF"/>
	<rect x="393.68" y="103.74" width="3462.46" height="1987.05" style="fill:none;stroke:#FFFFFF;stroke-width:5.76"/>
	<line x1="390.80" y1="2030.31" x2="3859.02" y2="2030.31" style="stroke:#EAF2F3;stroke-width:8.64"/>
	<line x1="390.80" y1="1678.35" x2="3859.02" y2="1678.35" style="stroke:#EAF2F3;stroke-width:8.64"/>
	<line x1="390.80" y1="1326.27" x2="3859.02" y2="1326.27" style="stroke:#EAF2F3;stroke-width:8.64"/>
	<line x1="390.80" y1="974.19" x2="3859.02" y2="974.19" style="stroke:#EAF2F3;stroke-width:8.64"/>
	<line x1="390.80" y1="622.23" x2="3859.02" y2="622.23" style="stroke:#EAF2F3;stroke-width:8.64"/>
	<line x1="390.80" y1="270.15" x2="3859.02" y2="270.15" style="stroke:#EAF2F3;stroke-width:8.64"/>
	<path d=" M454.04 2029.93 L463.57 2029.93 L473.10 2030.18 L482.63 2030.31 L492.15 2030.43 L501.68 2030.43 L511.21 2030.43 L520.74 2030.43 L530.14 2030.43 L539.67 2030.43 L549.20 2030.43 L558.73 2030.43 L568.26 2030.43 L577.79 2030.43 L587.32 2030.43 L596.85 2030.43 L606.38 2030.43 L615.90 2030.43 L625.31 2030.43 L634.84 2030.43 L644.37 2030.43 L653.89 2030.43 L663.42 2030.43 L672.95 2030.43 L682.48 2030.43 L692.01 2030.43 L701.54 2030.43 L710.94 2030.31 L720.47 2030.18 L730.00 2030.18 L739.53 2030.31 L749.06 2030.43 L758.59 2030.31 L768.12 2030.31 L777.64 2030.31 L787.17 2030.18 L796.58 2030.18 L806.11 2030.18 L815.64 2030.18 L825.16 2030.43 L834.69 2030.43 L844.22 2030.31 L853.75 2030.31 L863.28 2030.18 L872.81 2029.93 L882.34 2029.69 L891.74 2029.44 L901.27 2029.56 L910.80 2029.93 L920.33 2030.31 L929.86 2030.18 L939.39 2029.56 L948.91 2029.32 L958.44 2028.94 L967.97 2028.94 L977.38 2029.19 L986.91 2029.69 L996.43 2029.81 L1005.96 2029.44 L1015.49 2029.19 L1025.02 2029.32 L1034.55 2029.07 L1044.08 2028.45 L1053.61 2027.95 L1063.14 2027.83 L1072.54 2028.45 L1082.07 2028.82 L1091.60 2027.58 L1101.13 2025.48 L1110.66 2024.98 L1120.18 2024.86 L1129.71 2025.73 L1139.24 2024.74 L1148.77 2024.12 L1158.18 2024.24 L1167.70 2024.37 L1177.23 2023.99 L1186.76 2023.13 L1196.29 2022.26 L1205.82 2021.77 L1215.35 2019.91 L1224.88 2019.54 L1234.41 2020.28 L1243.93 2021.40 L1253.34 2020.28 L1262.87 2019.17 L1272.40 2017.56 L1281.93 2016.45 L1291.45 2015.21 L1300.98 2013.72 L1310.51 2013.85 L1320.04 2014.71 L1329.57 2014.34 L1338.97 2012.49 L1348.50 2009.89 L1358.03 2008.53 L1367.56 2007.29 L1377.09 2007.78 L1386.62 2007.91 L1396.15 2008.53 L1405.68 2008.53 L1415.20 2006.30 L1424.61 2004.57 L1434.14 2002.59 L1443.67 2002.59 L1453.20 2001.47 L1462.72 2002.59 L1472.25 2001.84 L1481.78 1997.51 L1491.31 1990.33 L1500.84 1985.26 L1510.37 1986.62 L1519.77 1987.73 L1529.30 1984.39 L1538.83 1980.06 L1548.36 1976.97 L1557.89 1974.62 L1567.42 1970.41 L1576.95 1967.19 L1586.47 1966.70 L1596.00 1965.71 L1605.41 1963.97 L1614.94 1957.66 L1624.47 1949.37 L1633.99 1936.50 L1643.52 1926.72 L1653.05 1926.97 L1662.58 1929.57 L1672.11 1933.53 L1681.64 1933.16 L1691.17 1935.51 L1700.57 1931.06 L1710.10 1919.67 L1719.63 1907.42 L1729.16 1899.99 L1738.69 1890.59 L1748.22 1878.58 L1757.74 1868.31 L1767.27 1864.97 L1776.80 1861.63 L1786.21 1858.04 L1795.74 1854.95 L1805.27 1851.11 L1814.79 1825.25 L1824.32 1778.10 L1833.85 1742.83 L1843.38 1733.67 L1852.91 1734.78 L1862.44 1725.38 L1871.97 1696.67 L1881.37 1652.98 L1890.90 1599.64 L1900.43 1538.51 L1909.96 1490.74 L1919.49 1453.86 L1929.02 1432.70 L1938.54 1435.54 L1948.07 1455.96 L1957.60 1473.29 L1967.01 1468.83 L1976.54 1444.58 L1986.06 1387.40 L1995.59 1322.81 L2005.12 1281.22 L2014.65 1268.11 L2024.18 1290.51 L2033.71 1309.69 L2043.24 1333.94 L2052.64 1379.11 L2062.17 1405.97 L2071.70 1427.75 L2081.23 1426.88 L2090.76 1421.93 L2100.28 1357.58 L2109.81 1267.73 L2119.34 1157.84 L2128.87 1073.94 L2138.40 996.09 L2147.80 958.97 L2157.33 946.72 L2166.86 935.70 L2176.39 890.53 L2185.92 822.96 L2195.45 671.36 L2204.98 444.03 L2214.51 236.74 L2224.03 164.22 L2233.44 242.43 L2242.97 330.79 L2252.50 412.97 L2262.03 484.37 L2271.55 574.59 L2281.08 589.93 L2290.61 536.84 L2300.14 491.80 L2309.67 507.39 L2319.20 565.80 L2328.60 677.68 L2338.13 742.65 L2347.66 827.67 L2357.19 841.90 L2366.72 876.42 L2376.25 910.21 L2385.78 952.29 L2395.30 967.14 L2404.83 992.26 L2414.24 1021.09 L2423.77 1050.92 L2433.30 1041.88 L2442.82 1021.22 L2452.35 1000.55 L2461.88 995.35 L2471.41 994.36 L2480.94 1000.43 L2490.47 1024.81 L2500.00 1061.19 L2509.40 1079.13 L2518.93 1082.48 L2528.46 1082.10 L2537.99 1057.35 L2547.52 1077.40 L2557.05 1102.40 L2566.57 1126.41 L2576.10 1159.70 L2585.63 1162.67 L2595.04 1160.32 L2604.57 1162.54 L2614.09 1164.77 L2623.62 1179.50 L2633.15 1186.43 L2642.68 1205.86 L2652.21 1221.70 L2661.74 1253.50 L2671.27 1278.25 L2680.80 1282.46 L2690.20 1253.13 L2699.73 1217.99 L2709.26 1234.20 L2718.79 1245.71 L2728.32 1263.77 L2737.84 1256.72 L2747.37 1252.02 L2756.90 1275.16 L2766.43 1282.21 L2775.84 1304.98 L2785.36 1305.97 L2794.89 1281.97 L2804.42 1244.35 L2813.95 1205.12 L2823.48 1205.12 L2833.01 1195.71 L2842.54 1146.95 L2852.07 1060.94 L2861.47 982.98 L2871.00 953.89 L2880.53 955.50 L2890.06 920.98 L2899.59 869.37 L2909.11 795.74 L2918.64 671.24 L2928.17 569.27 L2937.70 541.79 L2947.23 597.98 L2956.64 654.04 L2966.16 604.54 L2975.69 547.24 L2985.22 525.34 L2994.75 492.29 L3004.28 465.56 L3013.81 469.27 L3023.34 537.34 L3032.86 586.47 L3042.27 584.98 L3051.80 593.03 L3061.33 685.47 L3070.86 804.03 L3080.39 904.15 L3089.91 921.10 L3099.44 908.60 L3108.97 927.29 L3118.50 978.27 L3128.03 1051.66 L3137.43 1115.39 L3146.96 1157.22 L3156.49 1215.26 L3166.02 1295.08 L3175.55 1394.46 L3185.08 1489.75 L3194.61 1556.33 L3204.14 1609.79 L3213.66 1665.36 L3223.07 1739.73 L3232.60 1810.15 L3242.13 1864.97 L3251.66 1896.53 L3261.18 1917.94 L3270.71 1942.94 L3280.24 1975.11 L3289.77 2004.19 L3299.30 2020.16" stroke-linejoin="round" style="fill:none;stroke:#1A476F;stroke-width:8.64"/>
	<path d=" M718.25 2030.18 L727.03 2030.18 L735.69 2030.31 L744.48 2030.31 L753.14 2030.31 L761.80 2030.06 L770.59 2030.06 L779.25 2030.06 L788.04 2030.06 L796.70 2030.06 L805.49 2030.06 L814.15 2030.06 L822.81 2030.18 L831.60 2030.06 L840.26 2029.93 L849.05 2029.93 L857.71 2029.93 L866.50 2029.93 L875.16 2030.06 L883.82 2029.81 L892.61 2029.56 L901.27 2029.44 L910.06 2029.44 L918.72 2029.69 L927.51 2029.56 L936.17 2029.19 L944.83 2028.94 L953.62 2028.82 L962.28 2029.07 L971.07 2029.44 L979.73 2029.56 L988.51 2029.44 L997.18 2028.94 L1005.84 2028.45 L1014.63 2028.20 L1023.29 2028.20 L1032.08 2028.45 L1040.74 2028.08 L1049.52 2027.21 L1058.19 2025.85 L1066.85 2024.74 L1075.63 2024.37 L1084.30 2024.74 L1093.08 2025.23 L1101.75 2025.36 L1110.53 2025.11 L1119.19 2024.49 L1127.86 2023.87 L1136.64 2023.50 L1145.31 2022.88 L1154.09 2022.39 L1162.76 2022.01 L1171.54 2021.40 L1180.20 2021.27 L1188.99 2021.02 L1197.65 2020.90 L1206.32 2020.90 L1215.10 2019.79 L1223.76 2018.43 L1232.55 2017.68 L1241.21 2017.56 L1250.00 2018.05 L1258.66 2018.05 L1267.32 2016.57 L1276.11 2014.47 L1284.77 2012.73 L1293.56 2012.24 L1302.22 2012.36 L1311.01 2012.24 L1319.67 2011.87 L1328.33 2011.37 L1337.12 2010.75 L1345.78 2009.64 L1354.57 2008.15 L1363.23 2006.92 L1372.02 2006.42 L1380.68 2005.06 L1389.34 2003.20 L1398.13 2001.60 L1406.79 2000.85 L1415.58 1999.49 L1424.24 1997.39 L1433.03 1996.40 L1441.69 1996.03 L1450.35 1995.90 L1459.14 1993.18 L1467.80 1988.85 L1476.59 1985.01 L1485.25 1982.17 L1494.03 1980.80 L1502.70 1979.69 L1511.36 1978.58 L1520.14 1977.71 L1528.81 1976.60 L1537.59 1977.34 L1546.26 1976.97 L1555.04 1974.25 L1563.70 1970.53 L1572.49 1965.09 L1581.15 1961.50 L1589.82 1958.28 L1598.60 1955.56 L1607.27 1953.45 L1616.05 1950.24 L1624.71 1945.78 L1633.50 1939.10 L1642.16 1934.89 L1650.83 1931.55 L1659.61 1929.69 L1668.27 1927.47 L1677.06 1921.53 L1685.72 1916.82 L1694.51 1913.98 L1703.17 1913.36 L1711.83 1912.86 L1720.62 1907.79 L1729.28 1897.89 L1738.07 1886.01 L1746.73 1877.84 L1755.52 1874.00 L1764.18 1871.53 L1772.84 1868.93 L1781.63 1864.72 L1790.29 1859.03 L1799.08 1853.34 L1807.74 1837.13 L1816.53 1802.72 L1825.19 1761.39 L1833.85 1735.28 L1842.64 1729.96 L1851.30 1731.32 L1860.09 1723.27 L1868.75 1691.59 L1877.54 1650.51 L1886.20 1601.75 L1894.86 1548.28 L1903.65 1496.43 L1912.31 1459.43 L1921.10 1438.76 L1929.76 1432.95 L1938.54 1440.25 L1947.21 1451.76 L1955.87 1468.22 L1964.65 1464.50 L1973.32 1442.48 L1982.10 1407.21 L1990.77 1360.43 L1999.55 1329.61 L2008.21 1298.80 L2017.00 1284.57 L2025.66 1299.66 L2034.33 1321.82 L2043.11 1345.95 L2051.78 1375.40 L2060.56 1393.96 L2069.22 1422.55 L2078.01 1437.52 L2086.67 1424.28 L2095.34 1390.25 L2104.12 1319.59 L2112.78 1234.82 L2121.57 1137.92 L2130.23 1062.06 L2139.02 997.58 L2147.68 971.84 L2156.34 956.74 L2165.13 943.87 L2173.79 917.39 L2182.58 867.39 L2191.24 779.03 L2200.03 609.24 L2208.69 428.93 L2217.35 287.73 L2226.14 261.62 L2234.80 331.04 L2243.59 400.96 L2252.25 482.39 L2261.04 543.77 L2269.70 611.59 L2278.36 641.05 L2287.15 618.65 L2295.81 583.13 L2304.60 579.17 L2313.26 616.67 L2322.05 693.02 L2330.71 785.34 L2339.37 846.35 L2348.16 905.38 L2356.82 916.64 L2365.61 936.94 L2374.27 952.53 L2383.05 971.96 L2391.72 978.65 L2400.38 979.88 L2409.16 992.01 L2417.83 1003.03 L2426.61 1024.56 L2435.28 1037.55 L2444.06 1042.13 L2452.72 1033.47 L2461.51 1029.14 L2470.17 1030.50 L2478.84 1046.34 L2487.62 1071.09 L2496.28 1089.90 L2505.07 1097.45 L2513.73 1095.96 L2522.52 1086.31 L2531.18 1086.56 L2539.84 1091.88 L2548.63 1111.19 L2557.29 1133.34 L2566.08 1145.96 L2574.74 1155.12 L2583.53 1154.00 L2592.19 1153.01 L2600.85 1165.39 L2609.64 1179.50 L2618.30 1193.98 L2627.09 1215.14 L2635.75 1232.84 L2644.54 1250.78 L2653.20 1267.73 L2661.86 1281.84 L2670.65 1301.52 L2679.31 1312.78 L2688.10 1289.89 L2696.76 1249.91 L2705.55 1229.62 L2714.21 1238.28 L2722.87 1265.51 L2731.66 1284.69 L2740.32 1284.81 L2749.11 1288.65 L2757.77 1297.56 L2766.55 1301.15 L2775.22 1307.71 L2783.88 1307.46 L2792.67 1289.39 L2801.33 1268.48 L2810.11 1239.52 L2818.78 1222.94 L2827.56 1218.23 L2836.23 1179.62 L2845.01 1098.69 L2853.68 1008.72 L2862.34 942.39 L2871.12 914.54 L2879.79 922.83 L2888.57 894.74 L2897.24 843.51 L2906.02 779.53 L2914.68 666.79 L2923.35 538.95 L2932.13 444.77 L2940.80 423.49 L2949.58 486.97 L2958.24 541.92 L2967.03 510.36 L2975.69 464.82 L2984.36 420.14 L2993.14 371.63 L3001.80 346.14 L3010.59 352.20 L3019.25 401.33 L3028.04 458.01 L3036.70 480.54 L3045.36 474.47 L3054.15 535.61 L3062.81 650.33 L3071.60 774.20 L3080.26 872.34 L3089.05 901.79 L3097.71 903.90 L3106.37 908.48 L3115.16 939.91 L3123.82 996.96 L3132.61 1067.25 L3141.27 1138.41 L3150.06 1208.46 L3158.72 1270.83 L3167.38 1331.84 L3176.17 1395.32 L3184.83 1461.53 L3193.62 1524.77 L3202.28 1588.26 L3211.07 1656.94 L3219.73 1728.22 L3228.39 1794.68 L3237.18 1844.06 L3245.84 1882.17 L3254.63 1915.46 L3263.29 1947.76 L3272.07 1973.26 L3280.74 1993.43 L3289.52 2010.13 L3298.18 2020.41 L3306.85 2026.10 L3315.63 2028.94 L3324.30 2030.06" stroke-linejoin="round" style="fill:none;stroke:#90353B;stroke-width:8.64"/>
	<path d=" M571.35 2030.18 L580.51 2030.18 L589.67 2030.31 L598.83 2030.43 L607.98 2030.43 L617.14 2030.43 L626.30 2030.43 L635.58 2030.43 L644.74 2030.43 L653.89 2030.43 L663.05 2030.43 L672.21 2030.43 L681.37 2030.43 L690.65 2030.43 L699.81 2030.43 L708.96 2030.31 L718.12 2030.31 L727.28 2030.18 L736.44 2030.18 L745.59 2030.31 L754.88 2030.43 L764.03 2030.43 L773.19 2030.31 L782.35 2030.18 L791.50 2030.18 L800.66 2030.06 L809.94 2030.18 L819.10 2030.18 L828.26 2030.18 L837.42 2029.93 L846.57 2029.69 L855.73 2029.69 L865.01 2029.93 L874.17 2030.06 L883.33 2030.31 L892.49 2030.06 L901.64 2029.69 L910.80 2029.44 L919.96 2028.82 L929.24 2028.57 L938.40 2028.45 L947.55 2028.82 L956.71 2029.32 L965.87 2028.94 L975.03 2028.57 L984.31 2028.08 L993.47 2027.83 L1002.62 2028.08 L1011.78 2028.57 L1020.94 2027.34 L1030.10 2026.35 L1039.25 2025.48 L1048.53 2025.23 L1057.69 2024.61 L1066.85 2023.75 L1076.01 2024.37 L1085.16 2025.36 L1094.32 2026.22 L1103.60 2025.73 L1112.76 2024.74 L1121.92 2024.12 L1131.08 2024.24 L1140.23 2025.11 L1149.39 2025.73 L1158.55 2025.23 L1167.83 2024.37 L1176.99 2022.88 L1186.14 2022.51 L1195.30 2022.26 L1204.46 2021.64 L1213.62 2020.03 L1222.90 2018.92 L1232.06 2018.55 L1241.21 2018.80 L1250.37 2018.80 L1259.53 2019.04 L1268.68 2018.67 L1277.97 2016.32 L1287.12 2016.07 L1296.28 2015.21 L1305.44 2014.59 L1314.60 2012.49 L1323.75 2009.39 L1332.91 2009.02 L1342.19 2009.27 L1351.35 2011.62 L1360.51 2011.74 L1369.66 2008.65 L1378.82 2006.55 L1387.98 2006.30 L1397.26 2007.04 L1406.42 2007.41 L1415.58 2003.95 L1424.73 1999.12 L1433.89 1996.40 L1443.05 1997.76 L1452.21 1999.99 L1461.49 1998.01 L1470.64 1992.93 L1479.80 1990.70 L1488.96 1990.33 L1498.12 1988.85 L1507.28 1983.77 L1516.56 1978.33 L1525.71 1976.47 L1534.87 1974.99 L1544.03 1977.46 L1553.19 1980.56 L1562.34 1981.55 L1571.50 1977.22 L1580.78 1968.68 L1589.94 1967.07 L1599.10 1965.58 L1608.26 1962.98 L1617.41 1958.53 L1626.57 1954.82 L1635.85 1950.36 L1645.01 1943.68 L1654.17 1936.62 L1663.32 1934.27 L1672.48 1934.64 L1681.64 1932.05 L1690.92 1931.30 L1700.08 1929.57 L1709.23 1923.51 L1718.39 1913.48 L1727.55 1903.09 L1736.71 1893.81 L1745.87 1885.39 L1755.15 1880.32 L1764.30 1877.22 L1773.46 1873.14 L1782.62 1867.57 L1791.78 1862.12 L1800.93 1857.55 L1810.21 1837.99 L1819.37 1798.89 L1828.53 1761.88 L1837.69 1745.42 L1846.85 1740.60 L1856.00 1738.62 L1865.16 1722.53 L1874.44 1699.26 L1883.60 1663.25 L1892.76 1594.20 L1901.91 1506.95 L1911.07 1434.18 L1920.23 1390.87 L1929.51 1390.37 L1938.67 1398.29 L1947.83 1408.07 L1956.98 1436.53 L1966.14 1448.54 L1975.30 1440.99 L1984.45 1402.75 L1993.74 1337.16 L2002.89 1288.15 L2012.05 1254.86 L2021.21 1266.13 L2030.37 1295.21 L2039.52 1316.00 L2048.80 1343.47 L2057.96 1364.02 L2067.12 1396.93 L2076.28 1412.03 L2085.43 1389.51 L2094.59 1358.45 L2103.87 1288.28 L2113.03 1195.83 L2122.19 1068.86 L2131.35 984.09 L2140.50 915.41 L2149.66 905.38 L2158.82 887.56 L2168.10 891.03 L2177.26 888.92 L2186.41 850.81 L2195.57 737.45 L2204.73 558.25 L2213.89 388.46 L2223.17 301.71 L2232.33 307.65 L2241.48 363.22 L2250.64 453.19 L2259.80 535.24 L2268.96 646.00 L2278.11 713.56 L2287.39 711.58 L2296.55 679.66 L2305.71 666.04 L2314.87 693.27 L2324.03 738.69 L2333.18 781.38 L2342.46 823.33 L2351.62 882.98 L2360.78 922.46 L2369.94 963.05 L2379.09 975.18 L2388.25 992.51 L2397.41 1003.40 L2406.69 1010.08 L2415.85 1010.08 L2425.01 1012.93 L2434.16 1025.18 L2443.32 1035.82 L2452.48 1029.63 L2461.76 1025.92 L2470.92 1023.57 L2480.07 1023.44 L2489.23 1028.15 L2498.39 1023.57 L2507.55 1039.66 L2516.83 1062.18 L2525.99 1061.68 L2535.14 1063.54 L2544.30 1074.68 L2553.46 1107.23 L2562.61 1151.90 L2571.77 1179.87 L2581.05 1175.29 L2590.21 1160.07 L2599.37 1153.51 L2608.53 1161.18 L2617.68 1179.00 L2626.84 1202.52 L2636.12 1228.63 L2645.28 1253.87 L2654.44 1274.05 L2663.59 1287.41 L2672.75 1294.71 L2681.91 1295.70 L2691.07 1276.15 L2700.35 1246.82 L2709.51 1231.10 L2718.66 1215.76 L2727.82 1215.39 L2736.98 1213.53 L2746.14 1218.11 L2755.42 1237.04 L2764.57 1244.72 L2773.73 1257.71 L2782.89 1266.00 L2792.05 1263.90 L2801.20 1239.15 L2810.36 1205.36 L2819.64 1180.98 L2828.80 1173.56 L2837.96 1122.57 L2847.12 1013.30 L2856.27 920.48 L2865.43 875.93 L2874.71 891.52 L2883.87 904.02 L2893.03 857.24 L2902.18 806.01 L2911.34 716.91 L2920.50 578.92 L2929.78 468.28 L2938.94 409.01 L2948.10 452.94 L2957.25 532.02 L2966.41 518.16 L2975.57 494.89 L2984.73 460.12 L2994.01 424.85 L3003.16 400.22 L3012.32 389.70 L3021.48 436.48 L3030.64 501.08 L3039.80 546.62 L3049.08 596.00 L3058.23 684.36 L3067.39 788.44 L3076.55 867.02 L3085.71 911.57 L3094.86 916.64 L3104.02 940.53 L3113.30 975.43 L3122.46 1017.50 L3131.62 1079.38 L3140.78 1142.87 L3149.93 1228.01 L3159.09 1309.32 L3168.37 1395.57 L3177.53 1469.95 L3186.69 1533.31 L3195.84 1592.22 L3205.00 1651.37 L3214.16 1709.91 L3223.44 1773.15 L3232.60 1824.87 L3241.76 1860.64 L3250.91 1891.45 L3260.07 1917.81 L3269.23 1951.35 L3278.39 1983.77 L3287.67 2007.29 L3296.82 2020.90 L3305.98 2026.35 L3315.14 2028.57" stroke-linejoin="round" style="fill:none;stroke:#55752F;stroke-width:8.64"/>
	<line x1="390.80" y1="2093.67" x2="390.80" y2="100.86" style="stroke:#000000;stroke-width:5.76"/>
	<line x1="390.80" y1="2030.31" x2="350.83" y2="2030.31" style="stroke:#000000;stroke-width:5.76"/>
	<text x="300.72" y="2030.31" style="font-family:'Helvetica';font-size:99.99px;fill:#000000" transform="rotate(-90 300.72,2030.31)" text-anchor="middle">0</text>
	<line x1="390.80" y1="1678.35" x2="350.83" y2="1678.35" style="stroke:#000000;stroke-width:5.76"/>
	<text x="300.72" y="1678.35" style="font-family:'Helvetica';font-size:99.99px;fill:#000000" transform="rotate(-90 300.72,1678.35)" text-anchor="middle">2</text>
	<line x1="390.80" y1="1326.27" x2="350.83" y2="1326.27" style="stroke:#000000;stroke-width:5.76"/>
	<text x="300.72" y="1326.27" style="font-family:'Helvetica';font-size:99.99px;fill:#000000" transform="rotate(-90 300.72,1326.27)" text-anchor="middle">4</text>
	<line x1="390.80" y1="974.19" x2="350.83" y2="974.19" style="stroke:#000000;stroke-width:5.76"/>
	<text x="300.72" y="974.19" style="font-family:'Helvetica';font-size:99.99px;fill:#000000" transform="rotate(-90 300.72,974.19)" text-anchor="middle">6</text>
	<line x1="390.80" y1="622.23" x2="350.83" y2="622.23" style="stroke:#000000;stroke-width:5.76"/>
	<text x="300.72" y="622.23" style="font-family:'Helvetica';font-size:99.99px;fill:#000000" transform="rotate(-90 300.72,622.23)" text-anchor="middle">8</text>
	<line x1="390.80" y1="270.15" x2="350.83" y2="270.15" style="stroke:#000000;stroke-width:5.76"/>
	<text x="300.72" y="270.15" style="font-family:'Helvetica';font-size:99.99px;fill:#000000" transform="rotate(-90 300.72,270.15)" text-anchor="middle">10</text>
	<text x="190.71" y="1097.20" style="font-family:'Helvetica';font-size:99.99px;fill:#000000" transform="rotate(-90 190.71,1097.20)" text-anchor="middle">kdensity p1</text>
	<line x1="390.80" y1="2093.67" x2="3859.02" y2="2093.67" style="stroke:#000000;stroke-width:5.76"/>
	<line x1="592.27" y1="2093.67" x2="592.27" y2="2133.64" style="stroke:#000000;stroke-width:5.76"/>
	<text x="592.27" y="2223.62" style="font-family:'Helvetica';font-size:99.99px;fill:#000000" text-anchor="middle">.5</text>
	<line x1="1393.18" y1="2093.67" x2="1393.18" y2="2133.64" style="stroke:#000000;stroke-width:5.76"/>
	<text x="1393.18" y="2223.62" style="font-family:'Helvetica';font-size:99.99px;fill:#000000" text-anchor="middle">.6</text>
	<line x1="2193.96" y1="2093.67" x2="2193.96" y2="2133.64" style="stroke:#000000;stroke-width:5.76"/>
	<text x="2193.96" y="2223.62" style="font-family:'Helvetica';font-size:99.99px;fill:#000000" text-anchor="middle">.7</text>
	<line x1="2994.87" y1="2093.67" x2="2994.87" y2="2133.64" style="stroke:#000000;stroke-width:5.76"/>
	<text x="2994.87" y="2223.62" style="font-family:'Helvetica';font-size:99.99px;fill:#000000" text-anchor="middle">.8</text>
	<line x1="3795.66" y1="2093.67" x2="3795.66" y2="2133.64" style="stroke:#000000;stroke-width:5.76"/>
	<text x="3795.66" y="2223.62" style="font-family:'Helvetica';font-size:99.99px;fill:#000000" text-anchor="middle">.9</text>
	<text x="2124.91" y="2333.64" style="font-family:'Helvetica';font-size:99.99px;fill:#000000" text-anchor="middle">x</text>
	<rect x="1209.90" y="2418.27" width="1830.01" height="326.34" style="fill:#FFFFFF"/>
	<rect x="1212.78" y="2421.15" width="1824.26" height="320.58" style="fill:none;stroke:#EAF2F3;stroke-width:5.76"/>
	<line x1="1253.22" y1="2511.46" x2="1627.56" y2="2511.46" style="stroke:#1A476F;stroke-width:8.64"/>
	<line x1="2203.12" y1="2511.46" x2="2577.47" y2="2511.46" style="stroke:#90353B;stroke-width:8.64"/>
	<line x1="1253.22" y1="2651.43" x2="1627.56" y2="2651.43" style="stroke:#55752F;stroke-width:8.64"/>
	<text x="1687.58" y="2539.47" style="font-family:'Helvetica';font-size:79.94px;fill:#000000">P1 - SABA</text>
	<text x="2637.48" y="2539.47" style="font-family:'Helvetica';font-size:79.94px;fill:#000000">P1 - LD ICS</text>
	<text x="1687.58" y="2679.44" style="font-family:'Helvetica';font-size:79.94px;fill:#000000">P1 - HD ICS</text>
</svg>
