<?xml version="1.0" encoding="UTF-8" standalone="no"?>
<!-- This is a Stata 16.1 generated SVG file (http://www.stata.com) -->

<svg version="1.1" width="5.50in" height="4.00in" viewBox="0 0 3960 2880" xmlns="http://www.w3.org/2000/svg" xmlns:xlink="http://www.w3.org/1999/xlink">
	<desc>Stata Graph - Graph</desc>
	<rect x="0" y="0" width="3960" height="2880" style="fill:#EAF2F3;stroke:none"/>
	<rect x="0.00" y="0.00" width="3959.88" height="2880.00" style="fill:#FFFFFF"/>
	<rect x="2.88" y="2.88" width="3954.12" height="2874.24" style="fill:none;stroke:#EAF2F3;stroke-width:5.76"/>
	<rect x="390.80" y="100.86" width="3468.22" height="1992.81" style="fill:#FFFFFF"/>
	<rect x="393.68" y="103.74" width="3462.46" height="1987.05" style="fill:none;stroke:#FFFFFF;stroke-width:5.76"/>
	<line x1="390.80" y1="2030.31" x2="3859.02" y2="2030.31" style="stroke:#EAF2F3;stroke-width:8.64"/>
	<line x1="390.80" y1="1408.32" x2="3859.02" y2="1408.32" style="stroke:#EAF2F3;stroke-width:8.64"/>
	<line x1="390.80" y1="786.21" x2="3859.02" y2="786.21" style="stroke:#EAF2F3;stroke-width:8.64"/>
	<line x1="390.80" y1="164.22" x2="3859.02" y2="164.22" style="stroke:#EAF2F3;stroke-width:8.64"/>
	<path d=" M734.58 2011.62 L744.73 2002.71 L755.00 1990.95 L765.27 1976.72 L775.54 1959.89 L785.69 1940.96 L795.96 1920.78 L806.23 1900.61 L816.50 1880.81 L826.65 1861.88 L836.92 1844.18 L847.19 1828.71 L857.34 1815.96 L867.61 1806.19 L877.88 1799.63 L888.15 1795.92 L898.30 1795.17 L908.57 1796.66 L918.84 1799.50 L929.12 1802.85 L939.26 1804.95 L949.53 1803.47 L959.80 1797.77 L969.95 1786.63 L980.22 1766.71 L990.50 1738.25 L1000.77 1702.36 L1010.91 1657.68 L1021.18 1604.47 L1031.46 1545.44 L1041.73 1483.93 L1051.88 1420.20 L1062.15 1356.22 L1072.42 1295.21 L1082.69 1238.28 L1092.84 1186.30 L1103.11 1140.76 L1113.38 1104.13 L1123.53 1077.03 L1133.80 1059.46 L1144.07 1050.67 L1154.34 1051.91 L1164.49 1063.17 L1174.76 1080.37 L1185.03 1102.03 L1195.30 1128.26 L1205.45 1156.23 L1215.72 1183.21 L1225.99 1209.45 L1236.14 1236.30 L1246.41 1262.17 L1256.68 1286.55 L1266.95 1310.80 L1277.10 1333.70 L1287.37 1353.87 L1297.64 1371.94 L1307.91 1389.01 L1318.06 1404.48 L1328.33 1417.97 L1338.60 1430.22 L1348.75 1442.48 L1359.02 1454.36 L1369.29 1465.49 L1379.57 1475.64 L1389.71 1485.29 L1399.98 1495.07 L1410.26 1504.85 L1420.53 1514.62 L1430.67 1524.03 L1440.94 1534.05 L1451.22 1544.32 L1461.49 1553.85 L1471.63 1562.89 L1481.91 1571.55 L1492.18 1579.10 L1502.33 1587.27 L1512.60 1595.68 L1522.87 1603.97 L1533.14 1612.39 L1543.29 1621.30 L1553.56 1629.22 L1563.83 1635.53 L1574.10 1640.36 L1584.25 1643.45 L1594.52 1644.44 L1604.79 1643.33 L1614.94 1640.48 L1625.21 1635.16 L1635.48 1627.49 L1645.75 1617.46 L1655.90 1604.10 L1666.17 1589.25 L1676.44 1572.29 L1686.71 1551.87 L1696.86 1531.08 L1707.13 1510.04 L1717.40 1490.37 L1727.67 1471.93 L1737.82 1455.47 L1748.09 1440.37 L1758.36 1426.26 L1768.51 1413.64 L1778.78 1402.63 L1789.05 1394.09 L1799.33 1387.65 L1809.47 1384.19 L1819.74 1381.59 L1830.02 1380.10 L1840.29 1378.87 L1850.43 1378.87 L1860.70 1378.49 L1870.98 1379.36 L1881.12 1378.87 L1891.39 1379.73 L1901.67 1379.24 L1911.94 1380.35 L1922.09 1380.47 L1932.36 1382.08 L1942.63 1382.33 L1952.90 1383.57 L1963.05 1383.94 L1973.32 1384.06 L1983.59 1384.19 L1993.74 1384.81 L2004.01 1386.41 L2014.28 1388.39 L2024.55 1391.49 L2034.70 1394.95 L2044.97 1398.67 L2055.24 1401.39 L2065.51 1403.62 L2075.66 1405.60 L2085.93 1408.57 L2096.20 1410.92 L2106.47 1414.01 L2116.62 1415.74 L2126.89 1417.72 L2137.16 1418.10 L2147.31 1419.83 L2157.58 1421.19 L2167.85 1423.05 L2178.12 1423.79 L2188.27 1425.64 L2198.54 1427.13 L2208.81 1429.11 L2219.09 1431.21 L2229.23 1434.43 L2239.50 1435.79 L2249.78 1437.77 L2259.92 1440.00 L2270.19 1442.97 L2280.47 1447.05 L2290.74 1452.13 L2300.88 1458.44 L2311.16 1464.26 L2321.43 1470.81 L2331.70 1477.37 L2341.84 1485.91 L2352.12 1493.09 L2362.39 1501.38 L2372.66 1510.42 L2382.81 1520.19 L2393.08 1529.35 L2403.35 1537.77 L2413.50 1549.03 L2423.77 1563.63 L2434.04 1578.73 L2444.31 1595.19 L2454.46 1614.37 L2464.73 1634.79 L2475.00 1657.19 L2485.27 1680.45 L2495.42 1704.34 L2505.69 1728.10 L2515.96 1751.98 L2526.11 1775.74 L2536.38 1799.75 L2546.65 1820.91 L2556.92 1840.59 L2567.07 1859.53 L2577.34 1875.61 L2587.61 1888.36 L2597.88 1895.91 L2608.03 1902.84 L2618.30 1909.40 L2628.57 1915.59 L2638.72 1920.78 L2648.99 1925.73 L2659.26 1930.81 L2669.53 1935.63 L2679.68 1940.21 L2689.95 1944.30 L2700.22 1948.88 L2710.50 1953.58 L2720.64 1958.53 L2730.91 1963.97 L2741.19 1969.30 L2751.46 1974.86 L2761.61 1980.56 L2771.88 1986.25 L2782.15 1991.82 L2792.30 1996.77 L2802.57 2001.47 L2812.84 2005.68 L2823.11 2009.52 L2833.26 2012.61 L2843.53 2014.96 L2853.80 2017.19 L2864.07 2018.80 L2874.22 2020.16 L2884.49 2020.90 L2894.76 2021.64 L2904.91 2022.26 L2915.18 2022.88 L2925.45 2023.38 L2935.72 2023.75 L2945.87 2024.24 L2956.14 2024.61 L2966.41 2024.98 L2976.68 2025.23 L2986.83 2025.48 L2997.10 2025.73 L3007.37 2025.85 L3017.64 2025.85 L3027.79 2025.97 L3038.06 2025.97 L3048.33 2025.97 L3058.48 2025.97 L3068.75 2026.10 L3079.02 2026.10 L3089.30 2025.97 L3099.44 2026.10 L3109.71 2026.10 L3119.99 2026.10 L3130.26 2026.22 L3140.40 2026.22 L3150.68 2026.22 L3160.95 2026.35 L3171.09 2026.35 L3181.36 2026.47 L3191.64 2026.72 L3201.91 2026.84 L3212.05 2026.96 L3222.33 2027.09 L3232.60 2027.21 L3242.87 2027.21 L3253.02 2027.21 L3263.29 2027.34 L3273.56 2027.34 L3283.71 2027.34 L3293.98 2027.46 L3304.25 2027.58 L3314.52 2027.83 L3324.67 2027.95 L3334.94 2028.20 L3345.21 2028.33 L3355.48 2028.45 L3365.63 2028.70 L3375.90 2028.82 L3386.17 2029.07 L3396.44 2029.19 L3406.59 2029.32 L3416.86 2029.44 L3427.13 2029.56 L3437.28 2029.69 L3447.55 2029.81 L3457.82 2029.81 L3468.09 2029.93 L3478.24 2029.93 L3488.51 2030.06 L3498.78 2030.06 L3509.05 2030.06 L3519.20 2030.18 L3529.47 2030.18 L3539.74 2030.06 L3549.89 2030.06 L3560.16 2030.06 L3570.43 2030.18 L3580.71 2030.18 L3590.85 2030.18 L3601.13 2030.18 L3611.40 2030.18 L3621.67 2030.18 L3631.82 2030.18 L3642.09 2030.18 L3652.36 2030.18 L3662.63 2030.18 L3672.78 2030.18 L3683.05 2030.18 L3693.32 2030.18 L3703.47 2030.18 L3713.74 2030.18 L3724.01 2030.18 L3734.28 2030.18 L3744.43 2030.31 L3754.70 2030.31 L3764.97 2030.31 L3775.24 2030.31 L3785.39 2030.31 L3795.66 2030.31" stroke-linejoin="round" style="fill:none;stroke:#1A476F;stroke-width:8.64"/>
	<path d=" M727.65 2018.80 L737.43 2009.14 L747.33 1994.05 L757.10 1971.28 L767.00 1940.34 L776.90 1899.13 L786.68 1847.77 L796.58 1787.25 L806.48 1719.93 L816.25 1651.62 L826.15 1586.03 L835.93 1527.37 L845.83 1479.48 L855.73 1445.07 L865.51 1426.63 L875.41 1423.79 L885.18 1435.30 L895.08 1459.55 L904.98 1492.10 L914.76 1528.86 L924.66 1565.73 L934.56 1598.16 L944.34 1623.90 L954.24 1640.98 L964.01 1648.28 L973.91 1641.47 L983.81 1617.34 L993.59 1578.73 L1003.49 1521.55 L1013.39 1442.60 L1023.16 1344.34 L1033.07 1231.85 L1042.84 1107.47 L1052.74 972.09 L1062.64 834.84 L1072.42 708.86 L1082.32 592.90 L1092.22 493.04 L1101.99 417.67 L1111.89 365.94 L1121.67 340.08 L1131.57 339.46 L1141.47 358.27 L1151.25 394.28 L1161.15 444.52 L1171.05 502.81 L1180.82 563.20 L1190.72 623.72 L1200.50 689.68 L1210.40 753.91 L1220.30 812.57 L1230.08 869.74 L1239.97 924.69 L1249.75 974.93 L1259.65 1020.72 L1269.55 1063.42 L1279.33 1104.87 L1289.23 1144.10 L1299.13 1177.39 L1308.90 1206.60 L1318.80 1234.82 L1328.58 1261.30 L1338.48 1285.43 L1348.38 1308.20 L1358.16 1329.49 L1368.06 1349.78 L1377.96 1369.21 L1387.73 1388.77 L1397.63 1407.21 L1407.41 1424.78 L1417.31 1441.49 L1427.21 1457.82 L1436.98 1474.03 L1446.88 1490.74 L1456.79 1507.32 L1466.56 1523.16 L1476.46 1538.51 L1486.24 1552.49 L1496.14 1565.24 L1506.04 1577.74 L1515.81 1590.48 L1525.71 1601.99 L1535.49 1614.74 L1545.39 1627.12 L1555.29 1639.37 L1565.07 1651.99 L1574.97 1664.24 L1584.87 1675.38 L1594.64 1683.67 L1604.54 1689.24 L1614.32 1691.84 L1624.22 1690.97 L1634.12 1687.26 L1643.89 1680.08 L1653.80 1667.09 L1663.69 1652.24 L1673.47 1636.15 L1683.37 1620.06 L1693.15 1605.71 L1703.05 1592.34 L1712.95 1580.71 L1722.72 1569.32 L1732.62 1559.92 L1742.52 1552.00 L1752.30 1547.17 L1762.20 1544.45 L1771.98 1543.21 L1781.88 1542.59 L1791.78 1542.34 L1801.55 1542.34 L1811.45 1541.85 L1821.23 1543.83 L1831.13 1546.68 L1841.03 1551.38 L1850.81 1554.72 L1860.70 1559.55 L1870.61 1563.51 L1880.38 1569.45 L1890.28 1575.26 L1900.06 1582.19 L1909.96 1588.50 L1919.86 1595.43 L1929.63 1601.62 L1939.53 1606.70 L1949.43 1612.51 L1959.21 1617.59 L1969.11 1623.65 L1978.89 1627.86 L1988.79 1632.93 L1998.69 1636.40 L2008.46 1640.48 L2018.36 1643.95 L2028.26 1647.29 L2038.04 1650.88 L2047.94 1654.84 L2057.72 1659.17 L2067.61 1663.00 L2077.51 1667.21 L2087.29 1670.43 L2097.19 1673.77 L2107.09 1676.37 L2116.87 1679.83 L2126.77 1681.94 L2136.54 1685.90 L2146.44 1687.38 L2156.34 1689.98 L2166.12 1691.10 L2176.02 1693.70 L2185.80 1695.55 L2195.70 1698.77 L2205.60 1701.49 L2215.37 1705.08 L2225.27 1707.93 L2235.17 1711.76 L2244.95 1715.48 L2254.85 1717.95 L2264.63 1720.92 L2274.53 1721.66 L2284.43 1723.77 L2294.20 1726.24 L2304.10 1729.96 L2314.00 1733.92 L2323.78 1738.87 L2333.68 1744.81 L2343.45 1751.24 L2353.35 1758.67 L2363.25 1765.84 L2373.03 1774.14 L2382.93 1780.08 L2392.83 1785.52 L2402.61 1789.85 L2412.51 1793.81 L2422.28 1799.26 L2432.18 1802.72 L2442.08 1809.16 L2451.86 1818.56 L2461.76 1830.32 L2471.53 1844.06 L2481.43 1858.78 L2491.34 1874.50 L2501.11 1890.46 L2511.01 1905.07 L2520.91 1918.43 L2530.69 1930.81 L2540.59 1941.45 L2550.36 1950.61 L2560.26 1955.06 L2570.16 1958.78 L2579.94 1962.37 L2589.84 1965.95 L2599.74 1969.54 L2609.52 1972.76 L2619.42 1975.73 L2629.19 1978.70 L2639.09 1981.18 L2648.99 1983.40 L2658.77 1985.75 L2668.67 1987.86 L2678.57 1989.96 L2688.34 1992.07 L2698.24 1994.29 L2708.02 1996.52 L2717.92 1998.75 L2727.82 2001.10 L2737.60 2003.70 L2747.50 2006.42 L2757.40 2009.14 L2767.17 2011.74 L2777.07 2014.22 L2786.85 2016.57 L2796.75 2018.67 L2806.65 2020.53 L2816.43 2022.14 L2826.33 2023.62 L2836.10 2024.61 L2846.00 2025.23 L2855.90 2025.48 L2865.68 2025.73 L2875.58 2025.85 L2885.48 2026.10 L2895.26 2026.35 L2905.16 2026.47 L2914.93 2026.59 L2924.83 2026.84 L2934.73 2027.09 L2944.51 2027.34 L2954.41 2027.46 L2964.31 2027.58 L2974.08 2027.71 L2983.98 2027.83 L2993.76 2027.83 L3003.66 2027.95 L3013.56 2028.08 L3023.34 2028.08 L3033.24 2028.20 L3043.14 2028.20 L3052.91 2028.33 L3062.81 2028.45 L3072.59 2028.57 L3082.49 2028.70 L3092.39 2028.70 L3102.16 2028.82 L3112.07 2028.82 L3121.84 2028.82 L3131.74 2028.94 L3141.64 2028.94 L3151.42 2028.94 L3161.32 2028.94 L3171.22 2028.94 L3180.99 2028.94 L3190.89 2028.94 L3200.67 2029.07 L3210.57 2029.07 L3220.47 2029.07 L3230.25 2029.19 L3240.15 2029.32 L3250.05 2029.32 L3259.82 2029.44 L3269.72 2029.44 L3279.50 2029.44 L3289.40 2029.56 L3299.30 2029.56 L3309.07 2029.56 L3318.97 2029.69 L3328.88 2029.69 L3338.65 2029.69 L3348.55 2029.81 L3358.33 2029.81 L3368.23 2029.93 L3378.13 2029.93 L3387.90 2030.06 L3397.80 2030.06 L3407.70 2030.06 L3417.48 2030.06 L3427.38 2030.06 L3437.16 2030.06 L3447.06 2030.06 L3456.96 2030.06 L3466.73 2030.06 L3476.63 2030.06 L3486.41 2030.06 L3496.31 2030.06 L3506.21 2030.18 L3515.99 2030.18 L3525.89 2030.18 L3535.78 2030.18 L3545.56 2030.18 L3555.46 2030.18 L3565.24 2030.18 L3575.14 2030.18 L3585.04 2030.18 L3594.81 2030.18 L3604.71 2030.18 L3614.61 2030.31 L3624.39 2030.31 L3634.29 2030.31 L3644.07 2030.31 L3653.97 2030.31 L3663.87 2030.31 L3673.64 2030.31" stroke-linejoin="round" style="fill:none;stroke:#90353B;stroke-width:8.64"/>
	<path d=" M729.13 1970.66 L738.79 1937.12 L748.44 1891.83 L758.09 1833.91 L767.75 1763.49 L777.40 1681.32 L787.05 1590.98 L796.70 1494.82 L806.36 1397.18 L816.01 1302.88 L825.66 1215.14 L835.31 1137.17 L844.97 1071.46 L854.62 1020.10 L864.27 985.58 L873.92 969.49 L883.58 970.85 L893.23 988.67 L902.88 1021.22 L912.53 1064.16 L922.18 1113.54 L931.84 1164.77 L941.49 1213.28 L951.14 1253.38 L960.79 1282.46 L970.45 1300.28 L980.10 1304.61 L989.75 1295.83 L999.40 1273.18 L1009.06 1238.40 L1018.71 1190.64 L1028.24 1130.99 L1037.89 1062.80 L1047.54 991.64 L1057.20 917.76 L1066.85 843.26 L1076.50 773.46 L1086.15 711.09 L1095.81 655.65 L1105.46 610.35 L1115.11 578.18 L1124.76 559.00 L1134.42 550.58 L1144.07 555.04 L1153.72 571.87 L1163.37 598.60 L1173.03 632.01 L1182.68 671.49 L1192.33 714.31 L1201.98 758.36 L1211.64 802.79 L1221.29 848.70 L1230.94 893.63 L1240.59 936.07 L1250.25 976.42 L1259.90 1016.64 L1269.55 1054.01 L1279.20 1087.55 L1288.86 1118.73 L1298.51 1149.05 L1308.16 1177.39 L1317.81 1204.37 L1327.47 1230.86 L1337.12 1256.97 L1346.77 1282.46 L1356.42 1306.22 L1366.08 1329.12 L1375.73 1351.52 L1385.38 1374.04 L1395.03 1395.94 L1404.69 1417.48 L1414.34 1438.76 L1423.99 1459.43 L1433.64 1479.23 L1443.30 1499.03 L1452.95 1517.96 L1462.60 1535.79 L1472.25 1552.37 L1481.91 1568.21 L1491.56 1583.18 L1501.21 1597.54 L1510.86 1610.78 L1520.52 1623.16 L1530.05 1634.17 L1539.70 1643.95 L1549.35 1653.35 L1559.00 1661.77 L1568.65 1668.70 L1578.31 1674.64 L1587.96 1679.83 L1597.61 1684.04 L1607.27 1686.27 L1616.92 1686.77 L1626.57 1685.53 L1636.22 1682.93 L1645.88 1678.23 L1655.53 1672.41 L1665.18 1666.10 L1674.83 1659.54 L1684.48 1652.49 L1694.14 1645.06 L1703.79 1638.38 L1713.44 1631.82 L1723.10 1626.87 L1732.75 1622.78 L1742.40 1619.69 L1752.05 1616.84 L1761.70 1615.48 L1771.36 1614.86 L1781.01 1615.11 L1790.66 1615.73 L1800.32 1617.83 L1809.97 1621.05 L1819.62 1625.01 L1829.27 1629.22 L1838.92 1634.17 L1848.58 1639.24 L1858.23 1644.44 L1867.88 1650.01 L1877.54 1655.08 L1887.19 1660.28 L1896.84 1666.10 L1906.49 1671.42 L1916.14 1676.62 L1925.80 1681.69 L1935.45 1686.77 L1945.10 1691.22 L1954.76 1694.31 L1964.41 1697.28 L1974.06 1700.13 L1983.71 1703.47 L1993.37 1707.31 L2003.02 1711.52 L2012.67 1715.97 L2022.32 1720.67 L2031.85 1725.87 L2041.50 1731.69 L2051.16 1737.13 L2060.81 1742.70 L2070.46 1748.15 L2080.11 1753.72 L2089.77 1758.42 L2099.42 1763.74 L2109.07 1768.81 L2118.72 1773.52 L2128.38 1777.60 L2138.03 1781.19 L2147.68 1784.41 L2157.33 1787.50 L2166.99 1790.10 L2176.64 1792.57 L2186.29 1794.93 L2195.94 1797.77 L2205.60 1800.74 L2215.25 1803.59 L2224.90 1806.31 L2234.55 1808.91 L2244.21 1811.39 L2253.86 1813.74 L2263.51 1816.71 L2273.16 1820.05 L2282.82 1824.13 L2292.47 1828.71 L2302.12 1833.17 L2311.77 1837.87 L2321.43 1842.08 L2331.08 1847.27 L2340.73 1851.85 L2350.38 1857.05 L2360.04 1862.00 L2369.69 1867.57 L2379.34 1873.14 L2388.99 1878.95 L2398.65 1884.90 L2408.30 1890.59 L2417.95 1896.16 L2427.60 1901.97 L2437.26 1907.91 L2446.91 1914.35 L2456.56 1921.16 L2466.21 1928.21 L2475.87 1935.14 L2485.52 1941.82 L2495.17 1947.89 L2504.82 1953.95 L2514.48 1959.77 L2524.13 1965.58 L2533.66 1970.66 L2543.31 1974.99 L2552.96 1978.82 L2562.61 1982.29 L2572.27 1985.38 L2581.92 1987.98 L2591.57 1990.09 L2601.22 1992.07 L2610.88 1993.92 L2620.53 1995.65 L2630.18 1997.26 L2639.84 1999.00 L2649.49 2000.73 L2659.14 2002.34 L2668.79 2003.95 L2678.45 2005.68 L2688.10 2007.41 L2697.75 2009.27 L2707.40 2011.12 L2717.05 2012.73 L2726.71 2014.22 L2736.36 2015.83 L2746.01 2017.19 L2755.66 2018.67 L2765.32 2020.03 L2774.97 2021.40 L2784.62 2022.51 L2794.28 2023.50 L2803.93 2024.24 L2813.58 2024.86 L2823.23 2025.23 L2832.89 2025.48 L2842.54 2025.73 L2852.19 2025.97 L2861.84 2026.10 L2871.49 2026.22 L2881.15 2026.35 L2890.80 2026.35 L2900.45 2026.47 L2910.11 2026.59 L2919.76 2026.72 L2929.41 2026.84 L2939.06 2026.96 L2948.72 2027.21 L2958.37 2027.46 L2968.02 2027.71 L2977.67 2027.95 L2987.32 2028.08 L2996.98 2028.20 L3006.63 2028.45 L3016.28 2028.57 L3025.93 2028.70 L3035.46 2028.94 L3045.12 2028.94 L3054.77 2029.07 L3064.42 2029.19 L3074.07 2029.19 L3083.73 2029.19 L3093.38 2029.32 L3103.03 2029.32 L3112.68 2029.44 L3122.34 2029.44 L3131.99 2029.44 L3141.64 2029.56 L3151.29 2029.56 L3160.95 2029.56 L3170.60 2029.56 L3180.25 2029.56 L3189.90 2029.69 L3199.56 2029.69 L3209.21 2029.69 L3218.86 2029.69 L3228.51 2029.69 L3238.17 2029.69 L3247.82 2029.69 L3257.47 2029.56 L3267.12 2029.56 L3276.78 2029.56 L3286.43 2029.56 L3296.08 2029.56 L3305.73 2029.69 L3315.39 2029.69 L3325.04 2029.69 L3334.69 2029.69 L3344.34 2029.69 L3354.00 2029.81 L3363.65 2029.81 L3373.30 2029.81 L3382.95 2029.81 L3392.61 2029.93 L3402.26 2029.93 L3411.91 2029.93 L3421.56 2030.06 L3431.22 2030.06 L3440.87 2030.18 L3450.52 2030.18 L3460.17 2030.18 L3469.83 2030.18 L3479.48 2030.31 L3489.13 2030.31 L3498.78 2030.31 L3508.44 2030.43 L3518.09 2030.43 L3527.74 2030.43 L3537.27 2030.43 L3546.92 2030.31 L3556.57 2030.31 L3566.23 2030.31 L3575.88 2030.31 L3585.53 2030.31 L3595.18 2030.31 L3604.84 2030.31 L3614.49 2030.31" stroke-linejoin="round" style="fill:none;stroke:#55752F;stroke-width:8.64"/>
	<line x1="390.80" y1="2093.67" x2="390.80" y2="100.86" style="stroke:#000000;stroke-width:5.76"/>
	<line x1="390.80" y1="2030.31" x2="350.83" y2="2030.31" style="stroke:#000000;stroke-width:5.76"/>
	<text x="300.72" y="2030.31" style="font-family:'Helvetica';font-size:99.99px;fill:#000000" transform="rotate(-90 300.72,2030.31)" text-anchor="middle">0</text>
	<line x1="390.80" y1="1408.32" x2="350.83" y2="1408.32" style="stroke:#000000;stroke-width:5.76"/>
	<text x="300.72" y="1408.32" style="font-family:'Helvetica';font-size:99.99px;fill:#000000" transform="rotate(-90 300.72,1408.32)" text-anchor="middle">5</text>
	<line x1="390.80" y1="786.21" x2="350.83" y2="786.21" style="stroke:#000000;stroke-width:5.76"/>
	<text x="300.72" y="786.21" style="font-family:'Helvetica';font-size:99.99px;fill:#000000" transform="rotate(-90 300.72,786.21)" text-anchor="middle">10</text>
	<line x1="390.80" y1="164.22" x2="350.83" y2="164.22" style="stroke:#000000;stroke-width:5.76"/>
	<text x="300.72" y="164.22" style="font-family:'Helvetica';font-size:99.99px;fill:#000000" transform="rotate(-90 300.72,164.22)" text-anchor="middle">15</text>
	<text x="190.71" y="1097.20" style="font-family:'Helvetica';font-size:99.99px;fill:#000000" transform="rotate(-90 190.71,1097.20)" text-anchor="middle">kdensity p0</text>
	<line x1="390.80" y1="2093.67" x2="3859.02" y2="2093.67" style="stroke:#000000;stroke-width:5.76"/>
	<line x1="454.16" y1="2093.67" x2="454.16" y2="2133.64" style="stroke:#000000;stroke-width:5.76"/>
	<text x="454.16" y="2223.62" style="font-family:'Helvetica';font-size:99.99px;fill:#000000" text-anchor="middle">0</text>
	<line x1="1240.72" y1="2093.67" x2="1240.72" y2="2133.64" style="stroke:#000000;stroke-width:5.76"/>
	<text x="1240.72" y="2223.62" style="font-family:'Helvetica';font-size:99.99px;fill:#000000" text-anchor="middle">.1</text>
	<line x1="2027.15" y1="2093.67" x2="2027.15" y2="2133.64" style="stroke:#000000;stroke-width:5.76"/>
	<text x="2027.15" y="2223.62" style="font-family:'Helvetica';font-size:99.99px;fill:#000000" text-anchor="middle">.2</text>
	<line x1="2813.70" y1="2093.67" x2="2813.70" y2="2133.64" style="stroke:#000000;stroke-width:5.76"/>
	<text x="2813.70" y="2223.62" style="font-family:'Helvetica';font-size:99.99px;fill:#000000" text-anchor="middle">.3</text>
	<line x1="3600.26" y1="2093.67" x2="3600.26" y2="2133.64" style="stroke:#000000;stroke-width:5.76"/>
	<text x="3600.26" y="2223.62" style="font-family:'Helvetica';font-size:99.99px;fill:#000000" text-anchor="middle">.4</text>
	<text x="2124.91" y="2333.64" style="font-family:'Helvetica';font-size:99.99px;fill:#000000" text-anchor="middle">x</text>
	<rect x="1209.90" y="2418.27" width="1830.01" height="326.34" style="fill:#FFFFFF"/>
	<rect x="1212.78" y="2421.15" width="1824.26" height="320.58" style="fill:none;stroke:#EAF2F3;stroke-width:5.76"/>
	<line x1="1253.22" y1="2511.46" x2="1627.56" y2="2511.46" style="stroke:#1A476F;stroke-width:8.64"/>
	<line x1="2203.12" y1="2511.46" x2="2577.47" y2="2511.46" style="stroke:#90353B;stroke-width:8.64"/>
	<line x1="1253.22" y1="2651.43" x2="1627.56" y2="2651.43" style="stroke:#55752F;stroke-width:8.64"/>
	<text x="1687.58" y="2539.47" style="font-family:'Helvetica';font-size:79.94px;fill:#000000">P0 - SABA</text>
	<text x="2637.48" y="2539.47" style="font-family:'Helvetica';font-size:79.94px;fill:#000000">P0 - LD ICS</text>
	<text x="1687.58" y="2679.44" style="font-family:'Helvetica';font-size:79.94px;fill:#000000">P0 - HD ICS</text>
</svg>
