<?xml version="1.0" encoding="UTF-8" standalone="no"?>
<!-- This is a Stata 16.1 generated SVG file (http://www.stata.com) -->

<svg version="1.1" width="5.50in" height="4.00in" viewBox="0 0 3960 2880" xmlns="http://www.w3.org/2000/svg" xmlns:xlink="http://www.w3.org/1999/xlink">
	<desc>Stata Graph - Graph</desc>
	<rect x="0" y="0" width="3960" height="2880" style="fill:#EAF2F3;stroke:none"/>
	<rect x="0.00" y="0.00" width="3959.88" height="2880.00" style="fill:#FFFFFF"/>
	<rect x="2.88" y="2.88" width="3954.12" height="2874.24" style="fill:none;stroke:#EAF2F3;stroke-width:5.76"/>
	<rect x="390.80" y="100.86" width="3468.22" height="1992.81" style="fill:#FFFFFF"/>
	<rect x="393.68" y="103.74" width="3462.46" height="1987.05" style="fill:none;stroke:#FFFFFF;stroke-width:5.76"/>
	<line x1="390.80" y1="2030.31" x2="3859.02" y2="2030.31" style="stroke:#EAF2F3;stroke-width:8.64"/>
	<line x1="390.80" y1="1589.62" x2="3859.02" y2="1589.62" style="stroke:#EAF2F3;stroke-width:8.64"/>
	<line x1="390.80" y1="1148.81" x2="3859.02" y2="1148.81" style="stroke:#EAF2F3;stroke-width:8.64"/>
	<line x1="390.80" y1="708.12" x2="3859.02" y2="708.12" style="stroke:#EAF2F3;stroke-width:8.64"/>
	<line x1="390.80" y1="267.31" x2="3859.02" y2="267.31" style="stroke:#EAF2F3;stroke-width:8.64"/>
	<path d=" M454.04 2029.69 L463.57 2029.69 L473.10 2029.81 L482.63 2030.18 L492.15 2030.31 L501.68 2030.43 L511.21 2030.43 L520.74 2030.43 L530.14 2030.43 L539.67 2030.43 L549.20 2030.43 L558.73 2030.43 L568.26 2030.43 L577.79 2030.43 L587.32 2030.43 L596.85 2030.43 L606.38 2030.43 L615.90 2030.43 L625.31 2030.43 L634.84 2030.43 L644.37 2030.43 L653.89 2030.43 L663.42 2030.43 L672.95 2030.43 L682.48 2030.43 L692.01 2030.43 L701.54 2030.31 L710.94 2030.31 L720.47 2030.31 L730.00 2030.31 L739.53 2030.31 L749.06 2030.31 L758.59 2030.31 L768.12 2030.31 L777.64 2030.18 L787.17 2030.06 L796.58 2030.06 L806.11 2030.06 L815.64 2030.06 L825.16 2030.18 L834.69 2030.31 L844.22 2030.31 L853.75 2030.18 L863.28 2029.93 L872.81 2029.56 L882.34 2029.19 L891.74 2029.07 L901.27 2029.07 L910.80 2029.44 L920.33 2029.44 L929.86 2028.94 L939.39 2028.20 L948.91 2027.21 L958.44 2026.47 L967.97 2026.59 L977.38 2027.34 L986.91 2027.71 L996.43 2027.83 L1005.96 2028.20 L1015.49 2027.95 L1025.02 2027.09 L1034.55 2026.22 L1044.08 2025.85 L1053.61 2025.60 L1063.14 2025.73 L1072.54 2025.85 L1082.07 2024.86 L1091.60 2022.76 L1101.13 2021.15 L1110.66 2018.92 L1120.18 2018.05 L1129.71 2018.18 L1139.24 2018.55 L1148.77 2018.80 L1158.18 2018.43 L1167.70 2018.43 L1177.23 2017.31 L1186.76 2016.57 L1196.29 2014.59 L1205.82 2011.50 L1215.35 2009.14 L1224.88 2008.15 L1234.41 2007.41 L1243.93 2006.42 L1253.34 2005.68 L1262.87 2003.33 L1272.40 1999.99 L1281.93 1996.15 L1291.45 1993.06 L1300.98 1992.19 L1310.51 1992.31 L1320.04 1992.44 L1329.57 1990.33 L1338.97 1988.48 L1348.50 1985.75 L1358.03 1980.19 L1367.56 1977.83 L1377.09 1978.58 L1386.62 1980.68 L1396.15 1980.80 L1405.68 1981.18 L1415.20 1980.56 L1424.61 1976.47 L1434.14 1972.88 L1443.67 1970.04 L1453.20 1970.41 L1462.72 1968.18 L1472.25 1959.77 L1481.78 1948.88 L1491.31 1938.36 L1500.84 1931.43 L1510.37 1925.36 L1519.77 1923.26 L1529.30 1922.52 L1538.83 1917.69 L1548.36 1908.16 L1557.89 1897.52 L1567.42 1893.19 L1576.95 1892.57 L1586.47 1887.74 L1596.00 1883.16 L1605.41 1876.48 L1614.94 1861.38 L1624.47 1836.88 L1633.99 1817.45 L1643.52 1808.17 L1653.05 1798.89 L1662.58 1799.63 L1672.11 1810.15 L1681.64 1816.83 L1691.17 1812.38 L1700.57 1800.50 L1710.10 1785.52 L1719.63 1760.40 L1729.16 1734.41 L1738.69 1708.92 L1748.22 1689.74 L1757.74 1673.65 L1767.27 1659.54 L1776.80 1648.77 L1786.21 1645.56 L1795.74 1639.49 L1805.27 1612.88 L1814.79 1566.23 L1824.32 1523.16 L1833.85 1481.33 L1843.38 1446.81 L1852.91 1430.47 L1862.44 1428.24 L1871.97 1417.97 L1881.37 1387.28 L1890.90 1350.53 L1900.43 1306.72 L1909.96 1261.55 L1919.49 1223.68 L1929.02 1205.86 L1938.54 1200.78 L1948.07 1193.23 L1957.60 1183.71 L1967.01 1166.38 L1976.54 1123.81 L1986.06 1067.75 L1995.59 1009.96 L2005.12 966.27 L2014.65 926.92 L2024.18 908.60 L2033.71 914.17 L2043.24 935.21 L2052.64 963.30 L2062.17 994.36 L2071.70 1019.11 L2081.23 1030.62 L2090.76 998.45 L2100.28 941.15 L2109.81 870.73 L2119.34 786.46 L2128.87 702.92 L2138.40 642.41 L2147.80 614.93 L2157.33 587.34 L2166.86 567.29 L2176.39 550.70 L2185.92 508.38 L2195.45 425.47 L2204.98 334.88 L2214.51 255.18 L2224.03 200.98 L2233.44 164.22 L2242.97 170.53 L2252.50 199.12 L2262.03 233.03 L2271.55 253.94 L2281.08 267.43 L2290.61 281.42 L2300.14 267.68 L2309.67 261.86 L2319.20 280.67 L2328.60 319.04 L2338.13 364.33 L2347.66 410.00 L2357.19 461.11 L2366.72 497.12 L2376.25 529.79 L2385.78 574.09 L2395.30 616.17 L2404.83 663.32 L2414.24 693.64 L2423.77 703.54 L2433.30 697.48 L2442.82 687.08 L2452.35 664.31 L2461.88 651.19 L2471.41 660.35 L2480.94 683.49 L2490.47 715.30 L2500.00 739.31 L2509.40 759.48 L2518.93 771.61 L2528.46 763.81 L2537.99 770.86 L2547.52 788.93 L2557.05 823.09 L2566.57 863.06 L2576.10 892.39 L2585.63 919.12 L2595.04 916.89 L2604.57 913.92 L2614.09 914.79 L2623.62 917.39 L2633.15 935.08 L2642.68 957.98 L2652.21 995.23 L2661.74 1028.64 L2671.27 1049.31 L2680.80 1050.92 L2690.20 1041.88 L2699.73 1041.76 L2709.26 1029.51 L2718.79 1036.93 L2728.32 1052.28 L2737.84 1070.47 L2747.37 1086.19 L2756.90 1100.05 L2766.43 1128.51 L2775.84 1135.32 L2785.36 1129.38 L2794.89 1109.95 L2804.42 1078.76 L2813.95 1057.85 L2823.48 1029.01 L2833.01 994.11 L2842.54 946.59 L2852.07 894.86 L2861.47 842.76 L2871.00 799.08 L2880.53 766.41 L2890.06 742.40 L2899.59 701.19 L2909.11 620.75 L2918.64 549.22 L2928.17 505.78 L2937.70 493.90 L2947.23 488.09 L2956.64 497.74 L2966.16 512.84 L2975.69 497.61 L2985.22 470.64 L2994.75 464.57 L3004.28 480.17 L3013.81 506.03 L3023.34 526.20 L3032.86 549.71 L3042.27 585.48 L3051.80 632.26 L3061.33 690.42 L3070.86 752.55 L3080.39 811.70 L3089.91 854.77 L3099.44 887.93 L3108.97 921.35 L3118.50 972.46 L3128.03 1032.35 L3137.43 1100.05 L3146.96 1172.07 L3156.49 1243.23 L3166.02 1324.29 L3175.55 1408.44 L3185.08 1491.73 L3194.61 1566.72 L3204.14 1635.41 L3213.66 1699.14 L3223.07 1758.29 L3232.60 1816.21 L3242.13 1864.35 L3251.66 1902.47 L3261.18 1931.80 L3270.71 1956.92 L3280.24 1979.20 L3289.77 1999.24 L3299.30 2015.70" stroke-linejoin="round" style="fill:none;stroke:#1A476F;stroke-width:8.64"/>
	<path d=" M718.25 2029.93 L727.03 2029.93 L735.69 2029.93 L744.48 2029.93 L753.14 2029.81 L761.80 2029.56 L770.59 2029.44 L779.25 2029.32 L788.04 2029.19 L796.70 2029.32 L805.49 2029.56 L814.15 2029.56 L822.81 2029.56 L831.60 2029.44 L840.26 2029.44 L849.05 2029.44 L857.71 2029.56 L866.50 2029.44 L875.16 2029.19 L883.82 2028.82 L892.61 2028.57 L901.27 2028.45 L910.06 2028.45 L918.72 2028.33 L927.51 2028.20 L936.17 2027.95 L944.83 2027.46 L953.62 2027.34 L962.28 2027.46 L971.07 2027.83 L979.73 2027.83 L988.51 2027.71 L997.18 2027.21 L1005.84 2026.72 L1014.63 2026.35 L1023.29 2026.10 L1032.08 2025.60 L1040.74 2024.98 L1049.52 2023.99 L1058.19 2022.51 L1066.85 2021.52 L1075.63 2020.78 L1084.30 2020.53 L1093.08 2020.16 L1101.75 2019.66 L1110.53 2019.17 L1119.19 2018.30 L1127.86 2017.31 L1136.64 2016.69 L1145.31 2016.07 L1154.09 2015.21 L1162.76 2013.97 L1171.54 2013.23 L1180.20 2012.36 L1188.99 2011.37 L1197.65 2010.51 L1206.32 2009.14 L1215.10 2007.66 L1223.76 2006.17 L1232.55 2005.06 L1241.21 2004.57 L1250.00 2003.82 L1258.66 2002.71 L1267.32 2000.73 L1276.11 1998.25 L1284.77 1995.41 L1293.56 1993.06 L1302.22 1990.83 L1311.01 1990.09 L1319.67 1989.59 L1328.33 1988.97 L1337.12 1987.49 L1345.78 1985.51 L1354.57 1983.53 L1363.23 1981.30 L1372.02 1978.08 L1380.68 1974.49 L1389.34 1971.77 L1398.13 1969.05 L1406.79 1965.09 L1415.58 1961.75 L1424.24 1959.89 L1433.03 1958.53 L1441.69 1955.19 L1450.35 1949.99 L1459.14 1944.54 L1467.80 1937.74 L1476.59 1930.19 L1485.25 1924.25 L1494.03 1919.67 L1502.70 1916.70 L1511.36 1914.47 L1520.14 1913.36 L1528.81 1912.49 L1537.59 1909.52 L1546.26 1905.69 L1555.04 1901.35 L1563.70 1894.55 L1572.49 1886.26 L1581.15 1878.09 L1589.82 1871.65 L1598.60 1865.47 L1607.27 1857.79 L1616.05 1850.12 L1624.71 1839.97 L1633.50 1830.69 L1642.16 1821.41 L1650.83 1813.74 L1659.61 1806.19 L1668.27 1798.51 L1677.06 1791.09 L1685.72 1785.40 L1694.51 1779.09 L1703.17 1772.28 L1711.83 1763.74 L1720.62 1751.49 L1729.28 1735.15 L1738.07 1720.18 L1746.73 1705.20 L1755.52 1692.33 L1764.18 1684.17 L1772.84 1677.73 L1781.63 1670.55 L1790.29 1657.56 L1799.08 1633.80 L1807.74 1592.09 L1816.53 1544.57 L1825.19 1502.50 L1833.85 1468.34 L1842.64 1442.48 L1851.30 1426.02 L1860.09 1417.35 L1868.75 1405.10 L1877.54 1377.63 L1886.20 1342.11 L1894.86 1306.84 L1903.65 1275.41 L1912.31 1246.94 L1921.10 1221.45 L1929.76 1204.13 L1938.54 1196.33 L1947.21 1189.52 L1955.87 1174.05 L1964.65 1157.35 L1973.32 1136.68 L1982.10 1109.21 L1990.77 1075.42 L1999.55 1030.75 L2008.21 1000.43 L2017.00 977.53 L2025.66 958.23 L2034.33 950.43 L2043.11 960.08 L2051.78 981.99 L2060.56 1010.08 L2069.22 1022.08 L2078.01 1028.27 L2086.67 1013.17 L2095.34 975.55 L2104.12 911.82 L2112.78 842.39 L2121.57 769.13 L2130.23 710.35 L2139.02 661.46 L2147.68 633.25 L2156.34 610.11 L2165.13 595.63 L2173.79 575.08 L2182.58 543.77 L2191.24 476.70 L2200.03 399.48 L2208.69 320.15 L2217.35 261.00 L2226.14 224.49 L2234.80 210.88 L2243.59 231.42 L2252.25 264.34 L2261.04 301.22 L2269.70 324.73 L2278.36 340.45 L2287.15 352.70 L2295.81 363.22 L2304.60 364.95 L2313.26 380.42 L2322.05 402.82 L2330.71 443.04 L2339.37 479.42 L2348.16 513.58 L2356.82 542.17 L2365.61 561.97 L2374.27 571.50 L2383.05 584.37 L2391.72 594.14 L2400.38 611.10 L2409.16 624.59 L2417.83 644.02 L2426.61 662.08 L2435.28 674.46 L2444.06 677.68 L2452.72 678.79 L2461.51 684.48 L2470.17 693.15 L2478.84 713.44 L2487.62 739.06 L2496.28 764.18 L2505.07 781.26 L2513.73 786.70 L2522.52 786.58 L2531.18 792.40 L2539.84 800.69 L2548.63 822.10 L2557.29 845.98 L2566.08 868.13 L2574.74 884.47 L2583.53 893.50 L2592.19 901.18 L2600.85 910.09 L2609.64 922.96 L2618.30 945.11 L2627.09 971.59 L2635.75 996.47 L2644.54 1019.98 L2653.20 1046.09 L2661.86 1069.73 L2670.65 1081.73 L2679.31 1079.13 L2688.10 1070.35 L2696.76 1064.16 L2705.55 1058.22 L2714.21 1058.96 L2722.87 1069.11 L2731.66 1088.17 L2740.32 1111.93 L2749.11 1125.05 L2757.77 1133.09 L2766.55 1143.61 L2775.22 1146.83 L2783.88 1137.79 L2792.67 1120.96 L2801.33 1098.44 L2810.11 1079.75 L2818.78 1054.38 L2827.56 1017.01 L2836.23 965.53 L2845.01 910.70 L2853.68 850.81 L2862.34 798.71 L2871.12 759.85 L2879.79 726.93 L2888.57 702.80 L2897.24 667.90 L2906.02 596.12 L2914.68 515.43 L2923.35 442.67 L2932.13 397.37 L2940.80 385.00 L2949.58 376.34 L2958.24 383.39 L2967.03 403.69 L2975.69 393.41 L2984.36 368.91 L2993.14 355.42 L3001.80 363.22 L3010.59 387.72 L3019.25 407.77 L3028.04 432.52 L3036.70 469.89 L3045.36 516.30 L3054.15 569.52 L3062.81 637.83 L3071.60 711.96 L3080.26 774.82 L3089.05 824.57 L3097.71 860.09 L3106.37 891.77 L3115.16 934.59 L3123.82 990.53 L3132.61 1058.59 L3141.27 1133.96 L3150.06 1209.32 L3158.72 1280.23 L3167.38 1349.29 L3176.17 1415.50 L3184.83 1480.59 L3193.62 1545.69 L3202.28 1613.50 L3211.07 1679.96 L3219.73 1740.60 L3228.39 1796.91 L3237.18 1847.52 L3245.84 1890.09 L3254.63 1922.76 L3263.29 1950.73 L3272.07 1974.99 L3280.74 1994.29 L3289.52 2007.91 L3298.18 2017.81 L3306.85 2024.37 L3315.63 2027.71 L3324.30 2029.44" stroke-linejoin="round" style="fill:none;stroke:#90353B;stroke-width:8.64"/>
	<path d=" M571.35 2030.06 L580.51 2030.06 L589.67 2030.06 L598.83 2030.31 L607.98 2030.43 L617.14 2030.43 L626.30 2030.43 L635.58 2030.43 L644.74 2030.43 L653.89 2030.43 L663.05 2030.43 L672.21 2030.43 L681.37 2030.43 L690.65 2030.43 L699.81 2030.31 L708.96 2030.18 L718.12 2030.06 L727.28 2030.06 L736.44 2030.06 L745.59 2030.06 L754.88 2030.31 L764.03 2030.31 L773.19 2030.18 L782.35 2029.93 L791.50 2029.81 L800.66 2029.69 L809.94 2029.69 L819.10 2029.69 L828.26 2029.44 L837.42 2029.32 L846.57 2029.07 L855.73 2028.94 L865.01 2029.07 L874.17 2029.44 L883.33 2029.44 L892.49 2029.32 L901.64 2028.94 L910.80 2027.71 L919.96 2026.84 L929.24 2026.22 L938.40 2026.10 L947.55 2025.97 L956.71 2026.10 L965.87 2026.47 L975.03 2026.35 L984.31 2025.85 L993.47 2025.85 L1002.62 2025.97 L1011.78 2025.48 L1020.94 2025.11 L1030.10 2024.37 L1039.25 2023.38 L1048.53 2021.40 L1057.69 2020.28 L1066.85 2020.03 L1076.01 2020.16 L1085.16 2021.15 L1094.32 2021.89 L1103.60 2022.14 L1112.76 2021.89 L1121.92 2021.02 L1131.08 2020.03 L1140.23 2019.17 L1149.39 2018.43 L1158.55 2017.93 L1167.83 2016.32 L1176.99 2016.20 L1186.14 2015.83 L1195.30 2014.47 L1204.46 2012.86 L1213.62 2011.62 L1222.90 2010.26 L1232.06 2007.66 L1241.21 2006.42 L1250.37 2006.55 L1259.53 2005.68 L1268.68 2003.95 L1277.97 2004.19 L1287.12 2002.34 L1296.28 1999.61 L1305.44 1995.65 L1314.60 1991.94 L1323.75 1988.35 L1332.91 1986.87 L1342.19 1988.35 L1351.35 1989.59 L1360.51 1989.34 L1369.66 1989.22 L1378.82 1987.36 L1387.98 1984.27 L1397.26 1981.67 L1406.42 1978.58 L1415.58 1973.50 L1424.73 1968.68 L1433.89 1965.95 L1443.05 1962.86 L1452.21 1957.91 L1461.49 1954.07 L1470.64 1951.72 L1479.80 1947.51 L1488.96 1942.81 L1498.12 1939.10 L1507.28 1935.26 L1516.56 1927.96 L1525.71 1920.41 L1534.87 1916.70 L1544.03 1915.46 L1553.19 1916.33 L1562.34 1911.63 L1571.50 1908.53 L1580.78 1906.43 L1589.94 1898.76 L1599.10 1889.47 L1608.26 1883.29 L1617.41 1877.96 L1626.57 1864.35 L1635.85 1848.14 L1645.01 1839.11 L1654.17 1832.05 L1663.32 1824.01 L1672.48 1819.68 L1681.64 1820.91 L1690.92 1815.72 L1700.08 1804.70 L1709.23 1789.23 L1718.39 1772.03 L1727.55 1752.73 L1736.71 1733.17 L1745.87 1721.17 L1755.15 1712.88 L1764.30 1706.44 L1773.46 1700.25 L1782.62 1694.56 L1791.78 1682.56 L1800.93 1654.47 L1810.21 1608.80 L1819.37 1562.27 L1828.53 1519.45 L1837.69 1482.32 L1846.85 1462.65 L1856.00 1459.06 L1865.16 1462.89 L1874.44 1451.51 L1883.60 1418.96 L1892.76 1372.55 L1901.91 1317.98 L1911.07 1260.06 L1920.23 1215.88 L1929.51 1185.81 L1938.67 1175.66 L1947.83 1175.17 L1956.98 1167.74 L1966.14 1159.70 L1975.30 1138.41 L1984.45 1109.08 L1993.74 1066.51 L2002.89 1018.00 L2012.05 983.60 L2021.21 955.01 L2030.37 932.73 L2039.52 934.96 L2048.80 945.97 L2057.96 970.60 L2067.12 983.97 L2076.28 995.85 L2085.43 990.53 L2094.59 956.37 L2103.87 883.36 L2113.03 799.94 L2122.19 722.48 L2131.35 656.64 L2140.50 602.56 L2149.66 572.11 L2158.82 564.69 L2168.10 565.18 L2177.26 548.35 L2186.41 519.64 L2195.57 456.78 L2204.73 379.43 L2213.89 301.71 L2223.17 245.53 L2232.33 219.79 L2241.48 229.44 L2250.64 257.41 L2259.80 302.70 L2268.96 340.94 L2278.11 371.14 L2287.39 391.06 L2296.55 405.54 L2305.71 413.21 L2314.87 408.26 L2324.03 414.45 L2333.18 434.99 L2342.46 459.75 L2351.62 482.39 L2360.78 512.59 L2369.94 541.92 L2379.09 567.78 L2388.25 591.42 L2397.41 611.84 L2406.69 629.41 L2415.85 640.06 L2425.01 651.32 L2434.16 652.43 L2443.32 648.10 L2452.48 646.00 L2461.76 646.49 L2470.92 645.62 L2480.07 649.21 L2489.23 664.06 L2498.39 682.01 L2507.55 698.22 L2516.83 710.22 L2525.99 724.70 L2535.14 746.11 L2544.30 782.25 L2553.46 816.28 L2562.61 855.39 L2571.77 882.86 L2581.05 893.38 L2590.21 895.36 L2599.37 896.60 L2608.53 900.19 L2617.68 923.95 L2626.84 955.75 L2636.12 990.15 L2645.28 1018.37 L2654.44 1047.33 L2663.59 1069.23 L2672.75 1076.04 L2681.91 1070.47 L2691.07 1058.10 L2700.35 1041.88 L2709.51 1021.71 L2718.66 1012.43 L2727.82 1009.34 L2736.98 1019.61 L2746.14 1031.61 L2755.42 1047.33 L2764.57 1068.00 L2773.73 1085.20 L2782.89 1087.92 L2792.05 1078.76 L2801.20 1058.59 L2810.36 1039.16 L2819.64 1011.81 L2828.80 961.82 L2837.96 895.98 L2847.12 835.46 L2856.27 773.71 L2865.43 729.90 L2874.71 703.29 L2883.87 691.29 L2893.03 677.30 L2902.18 625.45 L2911.34 542.66 L2920.50 460.74 L2929.78 396.88 L2938.94 375.47 L2948.10 368.54 L2957.25 378.07 L2966.41 409.13 L2975.57 413.09 L2984.73 400.72 L2994.01 389.58 L3003.16 397.50 L3012.32 422.99 L3021.48 447.37 L3030.64 487.10 L3039.80 544.02 L3049.08 607.14 L3058.23 673.72 L3067.39 736.46 L3076.55 795.37 L3085.71 842.89 L3094.86 880.26 L3104.02 911.32 L3113.30 955.75 L3122.46 1013.54 L3131.62 1076.91 L3140.78 1156.36 L3149.93 1237.04 L3159.09 1321.32 L3168.37 1402.26 L3177.53 1478.86 L3186.69 1548.16 L3195.84 1611.15 L3205.00 1672.78 L3214.16 1730.45 L3223.44 1783.42 L3232.60 1829.08 L3241.76 1869.18 L3250.91 1902.10 L3260.07 1932.42 L3269.23 1958.28 L3278.39 1982.78 L3287.67 2003.08 L3296.82 2016.57 L3305.98 2024.37 L3315.14 2027.95" stroke-linejoin="round" style="fill:none;stroke:#55752F;stroke-width:8.64"/>
	<line x1="390.80" y1="2093.67" x2="390.80" y2="100.86" style="stroke:#000000;stroke-width:5.76"/>
	<line x1="390.80" y1="2030.31" x2="350.83" y2="2030.31" style="stroke:#000000;stroke-width:5.76"/>
	<text x="300.72" y="2030.31" style="font-family:'Helvetica';font-size:99.99px;fill:#000000" transform="rotate(-90 300.72,2030.31)" text-anchor="middle">0</text>
	<line x1="390.80" y1="1589.62" x2="350.83" y2="1589.62" style="stroke:#000000;stroke-width:5.76"/>
	<text x="300.72" y="1589.62" style="font-family:'Helvetica';font-size:99.99px;fill:#000000" transform="rotate(-90 300.72,1589.62)" text-anchor="middle">2</text>
	<line x1="390.80" y1="1148.81" x2="350.83" y2="1148.81" style="stroke:#000000;stroke-width:5.76"/>
	<text x="300.72" y="1148.81" style="font-family:'Helvetica';font-size:99.99px;fill:#000000" transform="rotate(-90 300.72,1148.81)" text-anchor="middle">4</text>
	<line x1="390.80" y1="708.12" x2="350.83" y2="708.12" style="stroke:#000000;stroke-width:5.76"/>
	<text x="300.72" y="708.12" style="font-family:'Helvetica';font-size:99.99px;fill:#000000" transform="rotate(-90 300.72,708.12)" text-anchor="middle">6</text>
	<line x1="390.80" y1="267.31" x2="350.83" y2="267.31" style="stroke:#000000;stroke-width:5.76"/>
	<text x="300.72" y="267.31" style="font-family:'Helvetica';font-size:99.99px;fill:#000000" transform="rotate(-90 300.72,267.31)" text-anchor="middle">8</text>
	<text x="190.71" y="1097.20" style="font-family:'Helvetica';font-size:99.99px;fill:#000000" transform="rotate(-90 190.71,1097.20)" text-anchor="middle">kdensity p1</text>
	<line x1="390.80" y1="2093.67" x2="3859.02" y2="2093.67" style="stroke:#000000;stroke-width:5.76"/>
	<line x1="592.27" y1="2093.67" x2="592.27" y2="2133.64" style="stroke:#000000;stroke-width:5.76"/>
	<text x="592.27" y="2223.62" style="font-family:'Helvetica';font-size:99.99px;fill:#000000" text-anchor="middle">.5</text>
	<line x1="1393.18" y1="2093.67" x2="1393.18" y2="2133.64" style="stroke:#000000;stroke-width:5.76"/>
	<text x="1393.18" y="2223.62" style="font-family:'Helvetica';font-size:99.99px;fill:#000000" text-anchor="middle">.6</text>
	<line x1="2193.96" y1="2093.67" x2="2193.96" y2="2133.64" style="stroke:#000000;stroke-width:5.76"/>
	<text x="2193.96" y="2223.62" style="font-family:'Helvetica';font-size:99.99px;fill:#000000" text-anchor="middle">.7</text>
	<line x1="2994.87" y1="2093.67" x2="2994.87" y2="2133.64" style="stroke:#000000;stroke-width:5.76"/>
	<text x="2994.87" y="2223.62" style="font-family:'Helvetica';font-size:99.99px;fill:#000000" text-anchor="middle">.8</text>
	<line x1="3795.66" y1="2093.67" x2="3795.66" y2="2133.64" style="stroke:#000000;stroke-width:5.76"/>
	<text x="3795.66" y="2223.62" style="font-family:'Helvetica';font-size:99.99px;fill:#000000" text-anchor="middle">.9</text>
	<text x="2124.91" y="2333.64" style="font-family:'Helvetica';font-size:99.99px;fill:#000000" text-anchor="middle">x</text>
	<rect x="1209.90" y="2418.27" width="1830.01" height="326.34" style="fill:#FFFFFF"/>
	<rect x="1212.78" y="2421.15" width="1824.26" height="320.58" style="fill:none;stroke:#EAF2F3;stroke-width:5.76"/>
	<line x1="1253.22" y1="2511.46" x2="1627.56" y2="2511.46" style="stroke:#1A476F;stroke-width:8.64"/>
	<line x1="2203.12" y1="2511.46" x2="2577.47" y2="2511.46" style="stroke:#90353B;stroke-width:8.64"/>
	<line x1="1253.22" y1="2651.43" x2="1627.56" y2="2651.43" style="stroke:#55752F;stroke-width:8.64"/>
	<text x="1687.58" y="2539.47" style="font-family:'Helvetica';font-size:79.94px;fill:#000000">P1 - SABA</text>
	<text x="2637.48" y="2539.47" style="font-family:'Helvetica';font-size:79.94px;fill:#000000">P1 - LD ICS</text>
	<text x="1687.58" y="2679.44" style="font-family:'Helvetica';font-size:79.94px;fill:#000000">P1 - HD ICS</text>
</svg>
