<?xml version="1.0" encoding="UTF-8" standalone="no"?>
<!-- This is a Stata 16.1 generated SVG file (http://www.stata.com) -->

<svg version="1.1" width="5.50in" height="4.00in" viewBox="0 0 3960 2880" xmlns="http://www.w3.org/2000/svg" xmlns:xlink="http://www.w3.org/1999/xlink">
	<desc>Stata Graph - Graph</desc>
	<rect x="0" y="0" width="3960" height="2880" style="fill:#EAF2F3;stroke:none"/>
	<rect x="0.00" y="0.00" width="3959.88" height="2880.00" style="fill:#FFFFFF"/>
	<rect x="2.88" y="2.88" width="3954.12" height="2874.24" style="fill:none;stroke:#EAF2F3;stroke-width:5.76"/>
	<rect x="390.80" y="100.86" width="3468.22" height="1992.81" style="fill:#FFFFFF"/>
	<rect x="393.68" y="103.74" width="3462.46" height="1987.05" style="fill:none;stroke:#FFFFFF;stroke-width:5.76"/>
	<line x1="390.80" y1="2030.31" x2="3859.02" y2="2030.31" style="stroke:#EAF2F3;stroke-width:8.64"/>
	<line x1="390.80" y1="1408.32" x2="3859.02" y2="1408.32" style="stroke:#EAF2F3;stroke-width:8.64"/>
	<line x1="390.80" y1="786.21" x2="3859.02" y2="786.21" style="stroke:#EAF2F3;stroke-width:8.64"/>
	<line x1="390.80" y1="164.22" x2="3859.02" y2="164.22" style="stroke:#EAF2F3;stroke-width:8.64"/>
	<path d=" M734.58 2009.39 L744.73 1986.62 L755.00 1950.48 L765.27 1885.76 L775.54 1797.52 L785.69 1688.75 L795.96 1555.21 L806.23 1403.12 L816.50 1236.67 L826.65 1075.92 L836.92 922.34 L847.19 794.38 L857.34 723.09 L867.61 715.54 L877.88 759.85 L888.15 830.14 L898.30 917.63 L908.57 1002.28 L918.84 1079.88 L929.12 1153.63 L939.26 1228.26 L949.53 1288.28 L959.80 1343.84 L969.95 1376.39 L980.22 1387.90 L990.50 1389.88 L1000.77 1376.02 L1010.91 1332.09 L1021.18 1264.52 L1031.46 1185.07 L1041.73 1079.38 L1051.88 949.93 L1062.15 827.42 L1072.42 702.67 L1082.69 573.72 L1092.84 478.80 L1103.11 443.91 L1113.38 428.81 L1123.53 436.97 L1133.80 484.87 L1144.07 540.80 L1154.34 574.84 L1164.49 604.91 L1174.76 658.00 L1185.03 704.16 L1195.30 746.98 L1205.45 797.84 L1215.72 861.08 L1225.99 921.84 L1236.14 972.95 L1246.41 1021.34 L1256.68 1062.67 L1266.95 1101.04 L1277.10 1127.77 L1287.37 1150.66 L1297.64 1175.41 L1307.91 1202.52 L1318.06 1229.74 L1328.33 1259.07 L1338.60 1289.39 L1348.75 1315.50 L1359.02 1338.40 L1369.29 1355.35 L1379.57 1371.69 L1389.71 1389.01 L1399.98 1412.90 L1410.26 1438.39 L1420.53 1461.04 L1430.67 1481.95 L1440.94 1501.75 L1451.22 1519.94 L1461.49 1531.95 L1471.63 1546.43 L1481.91 1569.20 L1492.18 1590.98 L1502.33 1610.78 L1512.60 1627.98 L1522.87 1636.15 L1533.14 1640.98 L1543.29 1645.06 L1553.56 1650.13 L1563.83 1659.04 L1574.10 1673.40 L1584.25 1689.74 L1594.52 1701.37 L1604.79 1710.28 L1614.94 1718.32 L1625.21 1716.47 L1635.48 1712.38 L1645.75 1708.42 L1655.90 1701.37 L1666.17 1693.57 L1676.44 1684.41 L1686.71 1675.50 L1696.86 1661.52 L1707.13 1647.91 L1717.40 1637.14 L1727.67 1631.45 L1737.82 1627.98 L1748.09 1622.29 L1758.36 1618.58 L1768.51 1613.38 L1778.78 1613.38 L1789.05 1614.86 L1799.33 1623.77 L1809.47 1632.07 L1819.74 1636.03 L1830.02 1636.77 L1840.29 1634.29 L1850.43 1636.27 L1860.70 1641.10 L1870.98 1652.86 L1881.12 1662.88 L1891.39 1671.79 L1901.67 1675.63 L1911.94 1676.49 L1922.09 1673.28 L1932.36 1672.78 L1942.63 1675.63 L1952.90 1682.19 L1963.05 1689.24 L1973.32 1695.43 L1983.59 1701.86 L1993.74 1704.34 L2004.01 1706.69 L2014.28 1708.30 L2024.55 1714.86 L2034.70 1719.06 L2044.97 1725.13 L2055.24 1728.72 L2065.51 1733.92 L2075.66 1737.26 L2085.93 1745.42 L2096.20 1754.46 L2106.47 1762.13 L2116.62 1768.69 L2126.89 1770.55 L2137.16 1771.78 L2147.31 1773.64 L2157.58 1775.50 L2167.85 1782.55 L2178.12 1786.39 L2188.27 1792.33 L2198.54 1793.07 L2208.81 1798.89 L2219.09 1802.10 L2229.23 1809.28 L2239.50 1814.48 L2249.78 1822.28 L2259.92 1828.09 L2270.19 1832.67 L2280.47 1837.74 L2290.74 1841.21 L2300.88 1842.94 L2311.16 1841.95 L2321.43 1846.53 L2331.70 1851.61 L2341.84 1860.39 L2352.12 1869.43 L2362.39 1879.70 L2372.66 1884.77 L2382.81 1888.36 L2393.08 1893.43 L2403.35 1898.51 L2413.50 1902.47 L2423.77 1906.68 L2434.04 1913.36 L2444.31 1916.70 L2454.46 1919.92 L2464.73 1921.28 L2475.00 1928.46 L2485.27 1936.87 L2495.42 1946.77 L2505.69 1958.53 L2515.96 1970.04 L2526.11 1977.71 L2536.38 1981.05 L2546.65 1983.28 L2556.92 1985.38 L2567.07 1987.73 L2577.34 1989.84 L2587.61 1992.68 L2597.88 1996.03 L2608.03 1999.12 L2618.30 2002.09 L2628.57 2004.07 L2638.72 2005.93 L2648.99 2007.41 L2659.26 2008.15 L2669.53 2008.90 L2679.68 2009.27 L2689.95 2009.89 L2700.22 2010.51 L2710.50 2011.25 L2720.64 2012.98 L2730.91 2014.34 L2741.19 2016.07 L2751.46 2017.81 L2761.61 2019.79 L2771.88 2021.40 L2782.15 2022.76 L2792.30 2024.24 L2802.57 2025.23 L2812.84 2025.85 L2823.11 2026.10 L2833.26 2026.47 L2843.53 2026.59 L2853.80 2026.84 L2864.07 2027.09 L2874.22 2027.46 L2884.49 2027.71 L2894.76 2028.08 L2904.91 2028.45 L2915.18 2028.70 L2925.45 2028.94 L2935.72 2029.07 L2945.87 2029.07 L2956.14 2028.94 L2966.41 2028.82 L2976.68 2028.82 L2986.83 2028.82 L2997.10 2028.94 L3007.37 2029.07 L3017.64 2029.32 L3027.79 2029.32 L3038.06 2029.56 L3048.33 2029.56 L3058.48 2029.69 L3068.75 2029.56 L3079.02 2029.56 L3089.30 2029.44 L3099.44 2029.32 L3109.71 2029.07 L3119.99 2029.07 L3130.26 2029.07 L3140.40 2029.19 L3150.68 2029.32 L3160.95 2029.44 L3171.09 2029.69 L3181.36 2029.81 L3191.64 2029.93 L3201.91 2029.93 L3212.05 2029.93 L3222.33 2029.69 L3232.60 2029.69 L3242.87 2029.56 L3253.02 2029.69 L3263.29 2029.81 L3273.56 2029.81 L3283.71 2029.81 L3293.98 2029.81 L3304.25 2029.81 L3314.52 2029.81 L3324.67 2029.93 L3334.94 2029.93 L3345.21 2030.06 L3355.48 2030.06 L3365.63 2030.18 L3375.90 2030.18 L3386.17 2030.18 L3396.44 2030.18 L3406.59 2030.18 L3416.86 2030.18 L3427.13 2030.31 L3437.28 2030.31 L3447.55 2030.31 L3457.82 2030.31 L3468.09 2030.31 L3478.24 2030.31 L3488.51 2030.31 L3498.78 2030.31 L3509.05 2030.31 L3519.20 2030.31 L3529.47 2030.31 L3539.74 2030.31 L3549.89 2030.31 L3560.16 2030.43 L3570.43 2030.43 L3580.71 2030.43 L3590.85 2030.31 L3601.13 2030.31 L3611.40 2030.31 L3621.67 2030.31 L3631.82 2030.31 L3642.09 2030.31 L3652.36 2030.43 L3662.63 2030.43 L3672.78 2030.31 L3683.05 2030.31 L3693.32 2030.31 L3703.47 2030.31 L3713.74 2030.31 L3724.01 2030.31 L3734.28 2030.43 L3744.43 2030.43 L3754.70 2030.43 L3764.97 2030.43 L3775.24 2030.43 L3785.39 2030.43 L3795.66 2030.43" stroke-linejoin="round" style="fill:none;stroke:#1A476F;stroke-width:8.64"/>
	<path d=" M727.65 2022.76 L737.43 2011.62 L747.33 1992.31 L757.10 1959.77 L767.00 1908.53 L776.90 1833.29 L786.68 1730.45 L796.58 1604.35 L806.48 1452.75 L816.25 1286.30 L826.15 1117.00 L835.93 960.58 L845.83 843.14 L855.73 769.63 L865.51 750.07 L875.41 772.10 L885.18 827.42 L895.08 903.40 L904.98 982.36 L914.76 1068.12 L924.66 1151.41 L934.56 1229.12 L944.34 1296.57 L954.24 1350.90 L964.01 1394.09 L973.91 1419.58 L983.81 1429.36 L993.59 1424.04 L1003.49 1396.56 L1013.39 1344.21 L1023.16 1277.39 L1033.07 1192.24 L1042.84 1083.22 L1052.74 962.19 L1062.64 848.21 L1072.42 738.93 L1082.32 629.29 L1092.22 541.79 L1101.99 495.51 L1111.89 462.84 L1121.67 444.15 L1131.57 458.01 L1141.47 493.28 L1151.25 530.53 L1161.15 567.41 L1171.05 624.46 L1180.82 685.23 L1190.72 733.37 L1200.50 777.30 L1210.40 821.97 L1220.30 865.66 L1230.08 905.63 L1239.97 944.49 L1249.75 988.05 L1259.65 1030.25 L1269.55 1062.67 L1279.33 1089.28 L1289.23 1117.74 L1299.13 1145.84 L1308.90 1173.81 L1318.80 1203.14 L1328.58 1231.10 L1338.48 1257.46 L1348.38 1282.96 L1358.16 1306.10 L1368.06 1326.89 L1377.96 1347.68 L1387.73 1368.84 L1397.63 1389.14 L1407.41 1409.80 L1417.31 1435.17 L1427.21 1459.80 L1436.98 1480.84 L1446.88 1498.29 L1456.79 1513.51 L1466.56 1527.99 L1476.46 1542.47 L1486.24 1560.41 L1496.14 1578.98 L1506.04 1595.93 L1515.81 1609.17 L1525.71 1621.05 L1535.49 1632.44 L1545.39 1644.32 L1555.29 1653.48 L1565.07 1665.36 L1574.97 1676.49 L1584.87 1685.90 L1594.64 1694.93 L1604.54 1701.74 L1614.32 1706.57 L1624.22 1701.37 L1634.12 1695.43 L1643.89 1687.38 L1653.80 1678.60 L1663.69 1671.79 L1673.47 1664.49 L1683.37 1657.68 L1693.15 1646.79 L1703.05 1635.90 L1712.95 1624.27 L1722.72 1618.08 L1732.62 1614.62 L1742.52 1615.36 L1752.30 1613.87 L1762.20 1614.12 L1771.98 1613.50 L1781.88 1614.37 L1791.78 1617.22 L1801.55 1619.57 L1811.45 1622.91 L1821.23 1623.28 L1831.13 1625.63 L1841.03 1625.14 L1850.81 1631.45 L1860.70 1637.88 L1870.61 1647.66 L1880.38 1653.10 L1890.28 1659.29 L1900.06 1662.88 L1909.96 1665.23 L1919.86 1669.32 L1929.63 1675.38 L1939.53 1684.04 L1949.43 1692.21 L1959.21 1699.64 L1969.11 1704.59 L1978.89 1709.16 L1988.79 1712.01 L1998.69 1714.98 L2008.46 1716.96 L2018.36 1721.17 L2028.26 1725.62 L2038.04 1730.57 L2047.94 1736.76 L2057.72 1741.09 L2067.61 1746.17 L2077.51 1750.00 L2087.29 1754.95 L2097.19 1759.66 L2107.09 1763.99 L2116.87 1767.70 L2126.77 1769.80 L2136.54 1772.90 L2146.44 1776.49 L2156.34 1779.21 L2166.12 1786.02 L2176.02 1787.25 L2185.80 1792.08 L2195.70 1792.45 L2205.60 1798.27 L2215.37 1801.61 L2225.27 1806.81 L2235.17 1814.60 L2244.95 1819.31 L2254.85 1825.86 L2264.63 1829.08 L2274.53 1835.15 L2284.43 1836.63 L2294.20 1838.12 L2304.10 1838.98 L2314.00 1842.08 L2323.78 1848.14 L2333.68 1853.96 L2343.45 1863.24 L2353.35 1870.29 L2363.25 1877.22 L2373.03 1881.18 L2382.93 1886.01 L2392.83 1891.21 L2402.61 1895.66 L2412.51 1899.00 L2422.28 1901.73 L2432.18 1905.19 L2442.08 1909.40 L2451.86 1914.97 L2461.76 1919.17 L2471.53 1926.48 L2481.43 1935.39 L2491.34 1945.29 L2501.11 1955.31 L2511.01 1964.84 L2520.91 1973.50 L2530.69 1977.22 L2540.59 1979.69 L2550.36 1981.67 L2560.26 1983.90 L2570.16 1986.37 L2579.94 1988.48 L2589.84 1990.58 L2599.74 1993.06 L2609.52 1995.28 L2619.42 1997.76 L2629.19 1999.74 L2639.09 2001.72 L2648.99 2003.45 L2658.77 2004.44 L2668.67 2005.80 L2678.57 2006.67 L2688.34 2008.28 L2698.24 2009.64 L2708.02 2011.25 L2717.92 2012.86 L2727.82 2014.47 L2737.60 2015.70 L2747.50 2016.69 L2757.40 2017.81 L2767.17 2019.17 L2777.07 2020.78 L2786.85 2022.39 L2796.75 2023.87 L2806.65 2024.74 L2816.43 2025.36 L2826.33 2025.48 L2836.10 2025.60 L2846.00 2025.85 L2855.90 2026.10 L2865.68 2026.47 L2875.58 2026.72 L2885.48 2026.96 L2895.26 2027.09 L2905.16 2027.21 L2914.93 2027.34 L2924.83 2027.34 L2934.73 2027.34 L2944.51 2027.58 L2954.41 2027.95 L2964.31 2028.33 L2974.08 2028.57 L2983.98 2028.57 L2993.76 2028.45 L3003.66 2028.20 L3013.56 2028.08 L3023.34 2028.20 L3033.24 2028.45 L3043.14 2028.70 L3052.91 2028.82 L3062.81 2028.94 L3072.59 2028.94 L3082.49 2028.94 L3092.39 2028.94 L3102.16 2029.07 L3112.07 2029.19 L3121.84 2029.32 L3131.74 2029.44 L3141.64 2029.44 L3151.42 2029.44 L3161.32 2029.32 L3171.22 2029.32 L3180.99 2029.32 L3190.89 2029.32 L3200.67 2029.32 L3210.57 2029.44 L3220.47 2029.56 L3230.25 2029.69 L3240.15 2029.69 L3250.05 2029.69 L3259.82 2029.81 L3269.72 2029.81 L3279.50 2029.81 L3289.40 2029.81 L3299.30 2029.81 L3309.07 2029.81 L3318.97 2029.81 L3328.88 2029.93 L3338.65 2029.93 L3348.55 2030.06 L3358.33 2030.06 L3368.23 2030.06 L3378.13 2030.06 L3387.90 2030.18 L3397.80 2030.18 L3407.70 2030.18 L3417.48 2030.18 L3427.38 2030.18 L3437.16 2030.18 L3447.06 2030.18 L3456.96 2030.18 L3466.73 2030.18 L3476.63 2030.18 L3486.41 2030.31 L3496.31 2030.31 L3506.21 2030.31 L3515.99 2030.31 L3525.89 2030.31 L3535.78 2030.31 L3545.56 2030.31 L3555.46 2030.31 L3565.24 2030.31 L3575.14 2030.31 L3585.04 2030.31 L3594.81 2030.31 L3604.71 2030.31 L3614.61 2030.31 L3624.39 2030.31 L3634.29 2030.31 L3644.07 2030.31 L3653.97 2030.31 L3663.87 2030.31 L3673.64 2030.31" stroke-linejoin="round" style="fill:none;stroke:#90353B;stroke-width:8.64"/>
	<path d=" M729.13 2022.88 L738.79 2011.25 L748.44 1991.69 L758.09 1957.91 L767.75 1904.57 L777.40 1829.70 L787.05 1725.62 L796.70 1596.05 L806.36 1440.87 L816.01 1272.93 L825.66 1107.84 L835.31 957.36 L844.97 842.76 L854.62 769.63 L864.27 748.34 L873.92 772.47 L883.58 830.14 L893.23 908.85 L902.88 986.19 L912.53 1066.14 L922.18 1140.27 L931.84 1208.58 L941.49 1271.32 L951.14 1329.61 L960.79 1377.88 L970.45 1410.18 L980.10 1423.66 L989.75 1422.92 L999.40 1402.13 L1009.06 1351.89 L1018.71 1284.44 L1028.24 1209.45 L1037.89 1121.83 L1047.54 1019.86 L1057.20 919.12 L1066.85 820.24 L1076.50 713.81 L1086.15 605.78 L1095.81 530.66 L1105.46 484.87 L1115.11 450.59 L1124.76 435.12 L1134.42 454.42 L1144.07 481.77 L1153.72 503.18 L1163.37 535.85 L1173.03 593.77 L1182.68 650.95 L1192.33 704.90 L1201.98 768.26 L1211.64 836.58 L1221.29 887.07 L1230.94 923.95 L1240.59 957.61 L1250.25 990.03 L1259.90 1021.22 L1269.55 1055.50 L1279.20 1090.52 L1288.86 1124.92 L1298.51 1159.20 L1308.16 1190.02 L1317.81 1219.72 L1327.47 1246.45 L1337.12 1271.57 L1346.77 1293.60 L1356.42 1311.54 L1366.08 1327.63 L1375.73 1345.20 L1385.38 1366.24 L1395.03 1391.12 L1404.69 1416.24 L1414.34 1438.51 L1423.99 1462.89 L1433.64 1486.53 L1443.30 1508.19 L1452.95 1528.11 L1462.60 1550.02 L1472.25 1568.83 L1481.91 1580.83 L1491.56 1591.60 L1501.21 1601.75 L1510.86 1612.14 L1520.52 1618.45 L1530.05 1630.46 L1539.70 1644.57 L1549.35 1659.42 L1559.00 1673.77 L1568.65 1682.68 L1578.31 1691.34 L1587.96 1694.07 L1597.61 1696.05 L1607.27 1695.30 L1616.92 1695.55 L1626.57 1694.69 L1636.22 1690.85 L1645.88 1689.36 L1655.53 1683.30 L1665.18 1676.00 L1674.83 1666.10 L1684.48 1658.05 L1694.14 1644.44 L1703.79 1631.08 L1713.44 1620.31 L1723.10 1614.37 L1732.75 1607.19 L1742.40 1603.73 L1752.05 1601.13 L1761.70 1604.84 L1771.36 1607.81 L1781.01 1615.24 L1790.66 1621.42 L1800.32 1625.01 L1809.97 1626.99 L1819.62 1625.75 L1829.27 1623.40 L1838.92 1618.58 L1848.58 1623.03 L1858.23 1629.59 L1867.88 1642.59 L1877.54 1654.22 L1887.19 1669.32 L1896.84 1677.73 L1906.49 1682.81 L1916.14 1687.01 L1925.80 1688.62 L1935.45 1690.48 L1945.10 1692.58 L1954.76 1695.18 L1964.41 1692.71 L1974.06 1694.07 L1983.71 1699.39 L1993.37 1704.46 L2003.02 1707.68 L2012.67 1711.52 L2022.32 1720.18 L2031.85 1722.41 L2041.50 1728.84 L2051.16 1735.03 L2060.81 1744.06 L2070.46 1750.37 L2080.11 1757.43 L2089.77 1763.25 L2099.42 1768.20 L2109.07 1771.91 L2118.72 1775.50 L2128.38 1777.23 L2138.03 1780.57 L2147.68 1784.90 L2157.33 1788.61 L2166.99 1795.17 L2176.64 1796.41 L2186.29 1800.62 L2195.94 1797.65 L2205.60 1800.74 L2215.25 1799.01 L2224.90 1799.50 L2234.55 1803.34 L2244.21 1807.80 L2253.86 1815.22 L2263.51 1818.44 L2273.16 1824.38 L2282.82 1826.85 L2292.47 1827.60 L2302.12 1827.72 L2311.77 1828.96 L2321.43 1835.39 L2331.08 1842.08 L2340.73 1852.97 L2350.38 1860.02 L2360.04 1866.58 L2369.69 1870.79 L2379.34 1872.89 L2388.99 1877.35 L2398.65 1882.67 L2408.30 1890.22 L2417.95 1896.28 L2427.60 1901.11 L2437.26 1906.92 L2446.91 1910.88 L2456.56 1917.19 L2466.21 1923.14 L2475.87 1932.05 L2485.52 1940.96 L2495.17 1950.24 L2504.82 1958.90 L2514.48 1967.32 L2524.13 1974.74 L2533.66 1978.70 L2543.31 1980.19 L2552.96 1982.29 L2562.61 1984.39 L2572.27 1986.50 L2581.92 1988.97 L2591.57 1990.83 L2601.22 1991.82 L2610.88 1993.18 L2620.53 1994.54 L2630.18 1996.64 L2639.84 1999.24 L2649.49 2002.71 L2659.14 2004.81 L2668.79 2005.56 L2678.45 2005.68 L2688.10 2006.67 L2697.75 2007.29 L2707.40 2008.90 L2717.05 2010.88 L2726.71 2013.72 L2736.36 2016.57 L2746.01 2018.80 L2755.66 2021.02 L2765.32 2022.51 L2774.97 2023.62 L2784.62 2024.12 L2794.28 2024.74 L2803.93 2024.98 L2813.58 2025.11 L2823.23 2025.48 L2832.89 2025.97 L2842.54 2026.22 L2852.19 2026.47 L2861.84 2026.59 L2871.49 2026.35 L2881.15 2026.10 L2890.80 2025.97 L2900.45 2026.10 L2910.11 2026.35 L2919.76 2026.72 L2929.41 2026.96 L2939.06 2026.84 L2948.72 2026.72 L2958.37 2026.96 L2968.02 2027.34 L2977.67 2027.83 L2987.32 2028.20 L2996.98 2028.82 L3006.63 2029.07 L3016.28 2028.94 L3025.93 2029.07 L3035.46 2028.94 L3045.12 2028.94 L3054.77 2028.94 L3064.42 2029.07 L3074.07 2029.19 L3083.73 2029.32 L3093.38 2029.44 L3103.03 2029.44 L3112.68 2029.32 L3122.34 2029.32 L3131.99 2029.32 L3141.64 2029.44 L3151.29 2029.69 L3160.95 2029.69 L3170.60 2029.81 L3180.25 2029.81 L3189.90 2029.93 L3199.56 2029.81 L3209.21 2029.69 L3218.86 2029.56 L3228.51 2029.56 L3238.17 2029.44 L3247.82 2029.44 L3257.47 2029.56 L3267.12 2029.56 L3276.78 2029.69 L3286.43 2029.69 L3296.08 2029.81 L3305.73 2029.69 L3315.39 2029.56 L3325.04 2029.56 L3334.69 2029.44 L3344.34 2029.56 L3354.00 2029.81 L3363.65 2029.93 L3373.30 2029.93 L3382.95 2029.93 L3392.61 2029.93 L3402.26 2029.81 L3411.91 2029.81 L3421.56 2029.93 L3431.22 2030.06 L3440.87 2030.06 L3450.52 2030.18 L3460.17 2030.31 L3469.83 2030.43 L3479.48 2030.43 L3489.13 2030.43 L3498.78 2030.43 L3508.44 2030.43 L3518.09 2030.43 L3527.74 2030.43 L3537.27 2030.43 L3546.92 2030.43 L3556.57 2030.43 L3566.23 2030.43 L3575.88 2030.43 L3585.53 2030.31 L3595.18 2030.31 L3604.84 2030.18 L3614.49 2030.18" stroke-linejoin="round" style="fill:none;stroke:#55752F;stroke-width:8.64"/>
	<line x1="390.80" y1="2093.67" x2="390.80" y2="100.86" style="stroke:#000000;stroke-width:5.76"/>
	<line x1="390.80" y1="2030.31" x2="350.83" y2="2030.31" style="stroke:#000000;stroke-width:5.76"/>
	<text x="300.72" y="2030.31" style="font-family:'Helvetica';font-size:99.99px;fill:#000000" transform="rotate(-90 300.72,2030.31)" text-anchor="middle">0</text>
	<line x1="390.80" y1="1408.32" x2="350.83" y2="1408.32" style="stroke:#000000;stroke-width:5.76"/>
	<text x="300.72" y="1408.32" style="font-family:'Helvetica';font-size:99.99px;fill:#000000" transform="rotate(-90 300.72,1408.32)" text-anchor="middle">5</text>
	<line x1="390.80" y1="786.21" x2="350.83" y2="786.21" style="stroke:#000000;stroke-width:5.76"/>
	<text x="300.72" y="786.21" style="font-family:'Helvetica';font-size:99.99px;fill:#000000" transform="rotate(-90 300.72,786.21)" text-anchor="middle">10</text>
	<line x1="390.80" y1="164.22" x2="350.83" y2="164.22" style="stroke:#000000;stroke-width:5.76"/>
	<text x="300.72" y="164.22" style="font-family:'Helvetica';font-size:99.99px;fill:#000000" transform="rotate(-90 300.72,164.22)" text-anchor="middle">15</text>
	<text x="190.71" y="1097.20" style="font-family:'Helvetica';font-size:99.99px;fill:#000000" transform="rotate(-90 190.71,1097.20)" text-anchor="middle">kdensity p0</text>
	<line x1="390.80" y1="2093.67" x2="3859.02" y2="2093.67" style="stroke:#000000;stroke-width:5.76"/>
	<line x1="454.16" y1="2093.67" x2="454.16" y2="2133.64" style="stroke:#000000;stroke-width:5.76"/>
	<text x="454.16" y="2223.62" style="font-family:'Helvetica';font-size:99.99px;fill:#000000" text-anchor="middle">0</text>
	<line x1="1240.72" y1="2093.67" x2="1240.72" y2="2133.64" style="stroke:#000000;stroke-width:5.76"/>
	<text x="1240.72" y="2223.62" style="font-family:'Helvetica';font-size:99.99px;fill:#000000" text-anchor="middle">.1</text>
	<line x1="2027.15" y1="2093.67" x2="2027.15" y2="2133.64" style="stroke:#000000;stroke-width:5.76"/>
	<text x="2027.15" y="2223.62" style="font-family:'Helvetica';font-size:99.99px;fill:#000000" text-anchor="middle">.2</text>
	<line x1="2813.70" y1="2093.67" x2="2813.70" y2="2133.64" style="stroke:#000000;stroke-width:5.76"/>
	<text x="2813.70" y="2223.62" style="font-family:'Helvetica';font-size:99.99px;fill:#000000" text-anchor="middle">.3</text>
	<line x1="3600.26" y1="2093.67" x2="3600.26" y2="2133.64" style="stroke:#000000;stroke-width:5.76"/>
	<text x="3600.26" y="2223.62" style="font-family:'Helvetica';font-size:99.99px;fill:#000000" text-anchor="middle">.4</text>
	<text x="2124.91" y="2333.64" style="font-family:'Helvetica';font-size:99.99px;fill:#000000" text-anchor="middle">x</text>
	<rect x="1209.90" y="2418.27" width="1830.01" height="326.34" style="fill:#FFFFFF"/>
	<rect x="1212.78" y="2421.15" width="1824.26" height="320.58" style="fill:none;stroke:#EAF2F3;stroke-width:5.76"/>
	<line x1="1253.22" y1="2511.46" x2="1627.56" y2="2511.46" style="stroke:#1A476F;stroke-width:8.64"/>
	<line x1="2203.12" y1="2511.46" x2="2577.47" y2="2511.46" style="stroke:#90353B;stroke-width:8.64"/>
	<line x1="1253.22" y1="2651.43" x2="1627.56" y2="2651.43" style="stroke:#55752F;stroke-width:8.64"/>
	<text x="1687.58" y="2539.47" style="font-family:'Helvetica';font-size:79.94px;fill:#000000">P0 - SABA</text>
	<text x="2637.48" y="2539.47" style="font-family:'Helvetica';font-size:79.94px;fill:#000000">P0 - LD ICS</text>
	<text x="1687.58" y="2679.44" style="font-family:'Helvetica';font-size:79.94px;fill:#000000">P0 - HD ICS</text>
</svg>
